<svg xmlns="http://www.w3.org/2000/svg" xmlns:xlink="http://www.w3.org/1999/xlink" width="505" height="588" viewBox="0 0 505 588">
  <defs>
    <linearGradient id="linear-gradient" x1="0.5" x2="0.5" y2="1" gradientUnits="objectBoundingBox">
      <stop offset="0" stop-color="#f9fef5"/>
      <stop offset="1" stop-color="#e7f7f8"/>
    </linearGradient>
    <clipPath id="clip-path">
      <rect id="Rectángulo_325856" data-name="Rectángulo 325856" width="27.388" height="54.529" fill="none"/>
    </clipPath>
    <clipPath id="clip-path-2">
      <rect id="Rectángulo_325857" data-name="Rectángulo 325857" width="43.037" height="70.032" fill="none"/>
    </clipPath>
    <clipPath id="clip-path-3">
      <rect id="Rectángulo_325858" data-name="Rectángulo 325858" width="44.23" height="81.362" fill="none"/>
    </clipPath>
    <clipPath id="clip-path-4">
      <rect id="Rectángulo_325859" data-name="Rectángulo 325859" width="65.851" height="76.242" fill="none"/>
    </clipPath>
    <clipPath id="clip-path-5">
      <rect id="Rectángulo_325884" data-name="Rectángulo 325884" width="60.965" height="60.966" fill="none"/>
    </clipPath>
    <clipPath id="clip-path-6">
      <rect id="Rectángulo_325883" data-name="Rectángulo 325883" width="60.965" height="60.965" fill="none"/>
    </clipPath>
    <clipPath id="clip-path-7">
      <rect id="Rectángulo_325887" data-name="Rectángulo 325887" width="35.342" height="34.459" fill="#dbf9bd"/>
    </clipPath>
  </defs>
  <g id="Grupo_1069988" data-name="Grupo 1069988" transform="translate(9304 3940)">
    <rect id="Rectángulo_375414" data-name="Rectángulo 375414" width="505" height="588" transform="translate(-9304 -3940)" fill="url(#linear-gradient)"/>
    <g id="Rectángulo_325902" data-name="Rectángulo 325902" transform="translate(-8994 -3474)" fill="#fff" stroke="#707070" stroke-width="2">
      <rect width="188" height="106" rx="15" stroke="none"/>
      <rect x="1" y="1" width="186" height="104" rx="14" fill="none"/>
    </g>
    <path id="Trazado_816747" data-name="Trazado 816747" d="M2.828-1.227H8.219V0H1.32V-11.375H2.828ZM11.273,0H9.828V-8.453h1.445ZM9.711-10.7a.863.863,0,0,1,.215-.594.807.807,0,0,1,.637-.242.819.819,0,0,1,.641.242.854.854,0,0,1,.219.594.826.826,0,0,1-.219.586.834.834,0,0,1-.641.234.821.821,0,0,1-.637-.234A.834.834,0,0,1,9.711-10.7ZM20.742-4.133a5.026,5.026,0,0,1-.891,3.113A2.846,2.846,0,0,1,17.461.156,2.947,2.947,0,0,1,14.984-.977L14.914,0H13.586V-12h1.445v4.477a2.93,2.93,0,0,1,2.414-1.086,2.863,2.863,0,0,1,2.418,1.164,5.177,5.177,0,0,1,.879,3.188ZM19.3-4.3a3.906,3.906,0,0,0-.57-2.281,1.888,1.888,0,0,0-1.641-.8,2.122,2.122,0,0,0-2.055,1.328V-2.4A2.181,2.181,0,0,0,17.1-1.07a1.878,1.878,0,0,0,1.617-.8A4.153,4.153,0,0,0,19.3-4.3Zm7.352-2.859a4.331,4.331,0,0,0-.711-.055A1.9,1.9,0,0,0,24.008-6V0H22.563V-8.453h1.406l.023.977a2.251,2.251,0,0,1,2.016-1.133,1.477,1.477,0,0,1,.641.109ZM31.192.156A3.693,3.693,0,0,1,28.4-.973a4.19,4.19,0,0,1-1.078-3.02v-.266A5.073,5.073,0,0,1,27.8-6.5a3.748,3.748,0,0,1,1.344-1.547,3.378,3.378,0,0,1,1.871-.559,3.166,3.166,0,0,1,2.563,1.086,4.7,4.7,0,0,1,.914,3.109v.6H28.762a3,3,0,0,0,.73,2.02,2.3,2.3,0,0,0,1.777.77,2.517,2.517,0,0,0,1.3-.312,3.259,3.259,0,0,0,.93-.828l.883.688A3.55,3.55,0,0,1,31.192.156Zm-.18-7.578a1.928,1.928,0,0,0-1.469.637A3.1,3.1,0,0,0,28.809-5h4.234v-.109a2.753,2.753,0,0,0-.594-1.707A1.815,1.815,0,0,0,31.012-7.422ZM39.77-4.3a4.952,4.952,0,0,1,.922-3.129,2.915,2.915,0,0,1,2.414-1.184,2.932,2.932,0,0,1,2.352,1.016V-12H46.9V0H45.575L45.5-.906A2.943,2.943,0,0,1,43.09.156a2.887,2.887,0,0,1-2.395-1.2,5.008,5.008,0,0,1-.926-3.141Zm1.445.164a3.749,3.749,0,0,0,.594,2.25,1.92,1.92,0,0,0,1.641.813A2.108,2.108,0,0,0,45.458-2.3V-6.187a2.125,2.125,0,0,0-1.992-1.2,1.929,1.929,0,0,0-1.656.82A4.128,4.128,0,0,0,41.215-4.133ZM52.653.156a3.693,3.693,0,0,1-2.8-1.129,4.19,4.19,0,0,1-1.078-3.02v-.266a5.073,5.073,0,0,1,.48-2.246A3.748,3.748,0,0,1,50.6-8.051a3.378,3.378,0,0,1,1.871-.559,3.166,3.166,0,0,1,2.563,1.086,4.7,4.7,0,0,1,.914,3.109v.6H50.223a3,3,0,0,0,.73,2.02,2.3,2.3,0,0,0,1.777.77,2.517,2.517,0,0,0,1.3-.312,3.259,3.259,0,0,0,.93-.828l.883.688A3.55,3.55,0,0,1,52.653.156Zm-.18-7.578A1.928,1.928,0,0,0,51-6.785,3.1,3.1,0,0,0,50.27-5H54.5v-.109a2.753,2.753,0,0,0-.594-1.707A1.815,1.815,0,0,0,52.473-7.422ZM63.543-10.5v2.047h1.578v1.117H63.543v5.249a1.173,1.173,0,0,0,.211.763.888.888,0,0,0,.719.254,3.5,3.5,0,0,0,.688-.094V0a4.215,4.215,0,0,1-1.109.155A1.8,1.8,0,0,1,62.59-.43,2.517,2.517,0,0,1,62.1-2.094V-7.336H60.559V-8.453H62.1V-10.5ZM70.317.156a3.693,3.693,0,0,1-2.8-1.129,4.19,4.19,0,0,1-1.078-3.02v-.266a5.073,5.073,0,0,1,.48-2.246,3.748,3.748,0,0,1,1.344-1.547,3.378,3.378,0,0,1,1.871-.559A3.166,3.166,0,0,1,72.7-7.523a4.7,4.7,0,0,1,.914,3.109v.6H67.887a3,3,0,0,0,.73,2.02,2.3,2.3,0,0,0,1.777.77,2.517,2.517,0,0,0,1.3-.312,3.259,3.259,0,0,0,.93-.828l.883.688A3.55,3.55,0,0,1,70.317.156Zm-.18-7.578a1.928,1.928,0,0,0-1.469.637A3.1,3.1,0,0,0,67.934-5h4.234v-.109a2.753,2.753,0,0,0-.594-1.707A1.815,1.815,0,0,0,70.137-7.422Zm6.508-1.031.039.938a3.122,3.122,0,0,1,2.508-1.094A2.417,2.417,0,0,1,81.606-7.25a3.2,3.2,0,0,1,1.1-.984,3.242,3.242,0,0,1,1.6-.375q2.781,0,2.828,2.945V0H85.684V-5.578a1.941,1.941,0,0,0-.414-1.355,1.823,1.823,0,0,0-1.391-.449,1.916,1.916,0,0,0-1.336.48,1.949,1.949,0,0,0-.617,1.293V0H80.473V-5.539a1.613,1.613,0,0,0-1.8-1.844,1.934,1.934,0,0,0-1.945,1.211V0H75.278V-8.453ZM88.926-4.3a4.993,4.993,0,0,1,.488-2.234A3.643,3.643,0,0,1,90.774-8.07a3.7,3.7,0,0,1,1.988-.539,3.565,3.565,0,0,1,2.793,1.2,4.6,4.6,0,0,1,1.066,3.18v.1a5.036,5.036,0,0,1-.473,2.215A3.589,3.589,0,0,1,94.8-.391a3.743,3.743,0,0,1-2.02.547,3.556,3.556,0,0,1-2.785-1.2A4.575,4.575,0,0,1,88.926-4.2Zm1.453.172a3.616,3.616,0,0,0,.652,2.258,2.088,2.088,0,0,0,1.746.852,2.075,2.075,0,0,0,1.75-.863A3.955,3.955,0,0,0,95.176-4.3a3.61,3.61,0,0,0-.66-2.254,2.1,2.1,0,0,0-1.754-.863,2.075,2.075,0,0,0-1.727.852A3.925,3.925,0,0,0,90.379-4.133ZM102.52-7.156a4.331,4.331,0,0,0-.711-.055A1.9,1.9,0,0,0,99.879-6V0H98.434V-8.453H99.84l.023.977a2.251,2.251,0,0,1,2.016-1.133,1.477,1.477,0,0,1,.641.109ZM107.426-4.3a4.993,4.993,0,0,1,.488-2.234,3.643,3.643,0,0,1,1.359-1.531,3.7,3.7,0,0,1,1.988-.539,3.565,3.565,0,0,1,2.793,1.2,4.6,4.6,0,0,1,1.066,3.18v.1a5.036,5.036,0,0,1-.473,2.215A3.589,3.589,0,0,1,113.3-.391a3.743,3.743,0,0,1-2.02.547,3.556,3.556,0,0,1-2.785-1.2A4.575,4.575,0,0,1,107.426-4.2Zm1.453.172a3.616,3.616,0,0,0,.652,2.258,2.088,2.088,0,0,0,1.746.852,2.075,2.075,0,0,0,1.75-.863,3.955,3.955,0,0,0,.648-2.418,3.61,3.61,0,0,0-.66-2.254,2.1,2.1,0,0,0-1.754-.863,2.075,2.075,0,0,0-1.727.852A3.925,3.925,0,0,0,108.879-4.133ZM6.313,22a3.036,3.036,0,0,1-.2-.891A3.225,3.225,0,0,1,3.7,22.156a2.984,2.984,0,0,1-2.051-.707,2.287,2.287,0,0,1-.8-1.793,2.39,2.39,0,0,1,1-2.051,4.733,4.733,0,0,1,2.824-.73H6.086v-.664A1.623,1.623,0,0,0,5.633,15,1.821,1.821,0,0,0,4.3,14.555a2.107,2.107,0,0,0-1.3.391,1.151,1.151,0,0,0-.523.945H1.023a2,2,0,0,1,.449-1.223,3.066,3.066,0,0,1,1.219-.934,4.1,4.1,0,0,1,1.691-.344,3.342,3.342,0,0,1,2.289.73,2.635,2.635,0,0,1,.859,2.012v3.891a4.757,4.757,0,0,0,.3,1.852V22Zm-2.4-1.1A2.54,2.54,0,0,0,5.2,20.547a2.127,2.127,0,0,0,.883-.914V17.9H4.953Q2.3,17.9,2.3,19.453a1.316,1.316,0,0,0,.453,1.063A1.742,1.742,0,0,0,3.914,20.9Zm7.25-7.352.047,1.063a3.08,3.08,0,0,1,2.531-1.219q2.68,0,2.7,3.023V22H15V16.406a1.946,1.946,0,0,0-.418-1.352,1.675,1.675,0,0,0-1.277-.437,2.086,2.086,0,0,0-1.234.375,2.546,2.546,0,0,0-.828.984V22H9.8V13.547ZM18.281,17.7a4.968,4.968,0,0,1,.914-3.145,2.923,2.923,0,0,1,2.422-1.168,2.908,2.908,0,0,1,2.414,1.094l.07-.937h1.32V21.8a3.439,3.439,0,0,1-.973,2.586,3.589,3.589,0,0,1-2.613.945,4.348,4.348,0,0,1-1.789-.391,3.08,3.08,0,0,1-1.336-1.07l.75-.867a2.826,2.826,0,0,0,2.273,1.148,2.214,2.214,0,0,0,1.645-.594,2.269,2.269,0,0,0,.59-1.672v-.727a2.971,2.971,0,0,1-2.367,1,2.887,2.887,0,0,1-2.4-1.2A5.224,5.224,0,0,1,18.281,17.7Zm1.453.164a3.79,3.79,0,0,0,.586,2.246,1.9,1.9,0,0,0,1.641.816,2.117,2.117,0,0,0,2.008-1.242V15.828a2.142,2.142,0,0,0-1.992-1.211,1.921,1.921,0,0,0-1.648.82A4.128,4.128,0,0,0,19.734,17.867Zm13.086,3.3a3.07,3.07,0,0,1-2.477.992,2.628,2.628,0,0,1-2.059-.785,3.4,3.4,0,0,1-.715-2.324v-5.5h1.445v5.461q0,1.922,1.563,1.922a2.163,2.163,0,0,0,2.2-1.234V13.547h1.445V22H32.852Zm8.523-1.406a1.064,1.064,0,0,0-.441-.91,4.249,4.249,0,0,0-1.539-.559,7.277,7.277,0,0,1-1.742-.562,2.479,2.479,0,0,1-.953-.781,1.869,1.869,0,0,1-.309-1.078,2.193,2.193,0,0,1,.879-1.758,3.432,3.432,0,0,1,2.246-.719,3.532,3.532,0,0,1,2.332.742,2.357,2.357,0,0,1,.895,1.9H41.258a1.3,1.3,0,0,0-.5-1.023,1.888,1.888,0,0,0-1.27-.43,1.976,1.976,0,0,0-1.234.344,1.082,1.082,0,0,0-.445.9.877.877,0,0,0,.414.789,5.1,5.1,0,0,0,1.5.508,7.8,7.8,0,0,1,1.754.578,2.558,2.558,0,0,1,1,.809,1.988,1.988,0,0,1,.324,1.152,2.163,2.163,0,0,1-.906,1.816,3.8,3.8,0,0,1-2.352.684,4.257,4.257,0,0,1-1.8-.359,2.922,2.922,0,0,1-1.223-1A2.42,2.42,0,0,1,36.07,19.4h1.445a1.5,1.5,0,0,0,.582,1.152,2.258,2.258,0,0,0,1.434.426,2.331,2.331,0,0,0,1.316-.332A1.02,1.02,0,0,0,41.344,19.758ZM46.633,11.5v2.047h1.578v1.117H46.633v5.249a1.173,1.173,0,0,0,.211.763.888.888,0,0,0,.719.254,3.5,3.5,0,0,0,.688-.094V22a4.215,4.215,0,0,1-1.109.155,1.8,1.8,0,0,1-1.461-.586,2.517,2.517,0,0,1-.492-1.664V14.664H43.648V13.547h1.539V11.5ZM51.469,22H50.023V13.547h1.445ZM49.906,11.3a.863.863,0,0,1,.215-.594.807.807,0,0,1,.637-.242.819.819,0,0,1,.641.242.854.854,0,0,1,.219.594.826.826,0,0,1-.219.586.834.834,0,0,1-.641.234.821.821,0,0,1-.637-.234A.834.834,0,0,1,49.906,11.3ZM59,22a3.036,3.036,0,0,1-.2-.891,3.225,3.225,0,0,1-2.406,1.047,2.984,2.984,0,0,1-2.051-.707,2.287,2.287,0,0,1-.8-1.793,2.39,2.39,0,0,1,1-2.051,4.733,4.733,0,0,1,2.824-.73h1.406v-.664A1.623,1.623,0,0,0,58.32,15a1.821,1.821,0,0,0-1.336-.449,2.107,2.107,0,0,0-1.3.391,1.151,1.151,0,0,0-.523.945H53.711a2,2,0,0,1,.449-1.223,3.066,3.066,0,0,1,1.219-.934,4.1,4.1,0,0,1,1.691-.344,3.342,3.342,0,0,1,2.289.73,2.635,2.635,0,0,1,.859,2.012v3.891a4.757,4.757,0,0,0,.3,1.852V22Zm-2.4-1.1a2.54,2.54,0,0,0,1.289-.352,2.127,2.127,0,0,0,.883-.914V17.9H57.641q-2.656,0-2.656,1.555a1.316,1.316,0,0,0,.453,1.063A1.742,1.742,0,0,0,56.6,20.9Z" transform="translate(-8958 -3438)" fill="#12263f"/>
    <g id="Grupo_1069987" data-name="Grupo 1069987" transform="translate(535 625.248)">
      <g id="Trazado_281610" data-name="Trazado 281610" transform="translate(-9829 -4099.248)" fill="#fff">
        <path d="M 210.8235321044922 105 L 13.17647075653076 105 C 6.462352752685547 105 1 98.71961975097656 1 91 L 1 15 C 1 7.28038215637207 6.462352752685547 1 13.17647075653076 1 L 210.8235321044922 1 C 217.5376434326172 1 223 7.28038215637207 223 15 L 223 91 C 223 98.71961975097656 217.5376434326172 105 210.8235321044922 105 Z" stroke="none"/>
        <path d="M 13.17646789550781 2 C 7.01373291015625 2 2 7.831764221191406 2 15 L 2 91 C 2 98.16823577880859 7.01373291015625 104 13.17646789550781 104 L 210.8235321044922 104 C 216.9862670898438 104 222 98.16823577880859 222 91 L 222 15 C 222 7.831764221191406 216.9862670898438 2 210.8235321044922 2 L 13.17646789550781 2 M 13.17646789550781 0 L 210.8235321044922 0 C 218.1006774902344 0 224 6.715736389160156 224 15 L 224 91 C 224 99.28426361083984 218.1006774902344 106 210.8235321044922 106 L 13.17646789550781 106 C 5.8992919921875 106 0 99.28426361083984 0 91 L 0 15 C 0 6.715736389160156 5.8992919921875 0 13.17646789550781 0 Z" stroke="none" fill="#707070"/>
      </g>
      <text id="Libre_de_hambre_sed_o_desnutrición_" data-name="Libre de hambre, sed o
desnutrición " transform="translate(-9794.451 -4051.5)" fill="#12263f" font-size="16" font-family="Roboto-Regular, Roboto"><tspan x="0" y="0">Lib</tspan><tspan y="0" letter-spacing="-0.009em">r</tspan><tspan y="0">e de hamb</tspan><tspan y="0" letter-spacing="-0.01em">r</tspan><tspan y="0">e, sed o</tspan><tspan x="0" y="22">desnutrición </tspan></text>
    </g>
    <g id="Grupo_262708" data-name="Grupo 262708" transform="translate(-993.999 -318.142)">
      <path id="Trazado_281351" data-name="Trazado 281351" d="M645.479,511.663c0,8.055-78.569,14.585-175.489,14.585S294.5,519.718,294.5,511.663s78.568-14.585,175.488-14.585,175.489,6.529,175.489,14.585" transform="translate(-8511.081 -3706.382)" fill="#1b3f5e"/>
      <path id="Trazado_281352" data-name="Trazado 281352" d="M392.02,482.13l-.875,14.689a6.13,6.13,0,0,0,3.423,5.871c6.438,3.157,20.058,8.191,29.938.434,0,0,1.105-9.392-12.818-15.469Z" transform="translate(-8522.333 -3704.641)" fill="#2c2524"/>
      <path id="Trazado_281353" data-name="Trazado 281353" d="M413.768,488.206,409,486.866c2.357,2.026,4.843,3.909,7.341,5.71,2.775,2,5.371,4.412,3.93,8.087-1.225,3.126-4.32,5.363-7.137,7.1a20.23,20.23,0,0,0,13.457-4.093s1.1-9.392-12.818-15.469" transform="translate(-8524.413 -3705.193)" fill="#221e1c"/>
      <path id="Trazado_281354" data-name="Trazado 281354" d="M385.336,386.047s9.259,70.28,15.992,79.959a17.861,17.861,0,0,1,9.679,6.033,17.579,17.579,0,0,1,3.646,8.136,42.325,42.325,0,0,1-8.978-.4,49.1,49.1,0,0,1-20.34-8.295l1.172-3.37A16.706,16.706,0,0,0,386,455.839c-5.619-12.675-18.426-43.055-22.97-66.426Z" transform="translate(-8519.062 -3693.453)" fill="#847771"/>
      <g id="Grupo_262625" data-name="Grupo 262625" transform="translate(-8156.099 -3307.582)" opacity="0.61" style="mix-blend-mode: multiply;isolation: isolate">
        <g id="Grupo_262624" data-name="Grupo 262624">
          <g id="Grupo_262623" data-name="Grupo 262623" clip-path="url(#clip-path)">
            <path id="Trazado_281355" data-name="Trazado 281355" d="M390.341,419.876c-2.956-17.88-5.084-34.028-5.084-34.028l-22.305,3.366c3.2,16.457,10.5,36.384,16.5,51.162.567-1.392,6.766-15.891,10.894-20.5" transform="translate(-362.953 -385.848)" fill="#847771"/>
          </g>
        </g>
      </g>
      <path id="Trazado_281356" data-name="Trazado 281356" d="M414.815,382.728l-34.089-32.4-31.984,44.609a42.675,42.675,0,0,0,18.2,7.4,20.056,20.056,0,0,0,3.321,7.309,3.193,3.193,0,0,0,5.611-1.113,27.572,27.572,0,0,0,.946-5.718,44.669,44.669,0,0,0,6.369-.889,18.523,18.523,0,0,0,3.427,5.467,3.193,3.193,0,0,0,5.477-1.646,26.758,26.758,0,0,0,.337-6.8q2.327-1.009,4.726-2.325a18.513,18.513,0,0,0,4,5.054,3.192,3.192,0,0,0,5.266-2.231,25.607,25.607,0,0,0-.8-8.425,85.529,85.529,0,0,0,9.19-8.285" transform="translate(-8517.397 -3689.293)" fill="#ffa4a4"/>
      <path id="Trazado_281357" data-name="Trazado 281357" d="M382.589,379.8c8.042,1.074,15.93,3.04,24,3.943a73.584,73.584,0,0,0,7.965.673c.56-.552,1.119-1.1,1.682-1.684l-34.088-32.4-21.2,29.574a81.027,81.027,0,0,1,21.645-.1" transform="translate(-8518.818 -3689.293)" fill="#e59393"/>
      <path id="Trazado_281358" data-name="Trazado 281358" d="M414.815,386.692l-4.989-4.743c-22.084,31.256-57.14,13.862-58.484,13.324l-2.6,3.623a42.675,42.675,0,0,0,18.2,7.4,20.056,20.056,0,0,0,3.321,7.309,3.193,3.193,0,0,0,5.611-1.113,27.583,27.583,0,0,0,.946-5.718,44.674,44.674,0,0,0,6.369-.889,18.523,18.523,0,0,0,3.427,5.467A3.193,3.193,0,0,0,392.1,409.7a26.757,26.757,0,0,0,.337-6.8c1.552-.673,3.128-1.444,4.726-2.325a18.513,18.513,0,0,0,4,5.054,3.192,3.192,0,0,0,5.266-2.232,25.611,25.611,0,0,0-.8-8.425,85.425,85.425,0,0,0,9.19-8.284" transform="translate(-8517.397 -3692.976)" fill="#e59393"/>
      <path id="Trazado_281359" data-name="Trazado 281359" d="M589.686,482.13l-.875,14.689a6.13,6.13,0,0,0,3.423,5.871c6.438,3.157,20.058,8.191,29.938.434,0,0,1.105-9.392-12.818-15.469Z" transform="translate(-8545.351 -3704.641)" fill="#2c2524"/>
      <path id="Trazado_281360" data-name="Trazado 281360" d="M609.466,487.655,589.8,482.13l-.039.651,13.6,3.821c13.922,6.077,12.817,15.469,12.817,15.469-4.5,3.533-9.774,4.408-14.793,4.02,6.562,1.713,14.51,2.046,20.9-2.968,0,0,1.1-9.392-12.818-15.469" transform="translate(-8545.462 -3704.641)" fill="#221e1c"/>
      <path id="Trazado_281361" data-name="Trazado 281361" d="M554.915,494.038l-.875,14.689a6.13,6.13,0,0,0,3.423,5.871c6.438,3.157,20.058,8.191,29.938.434,0,0,1.105-9.392-12.818-15.469Z" transform="translate(-8541.302 -3706.028)" fill="#2c2524"/>
      <path id="Trazado_281362" data-name="Trazado 281362" d="M574.7,499.562l-19.669-5.525-.038.651,13.6,3.821c13.922,6.077,12.817,15.47,12.817,15.47-4.5,3.532-9.774,4.407-14.793,4.019,6.562,1.713,14.51,2.046,20.9-2.968,0,0,1.1-9.392-12.818-15.469" transform="translate(-8541.413 -3706.028)" fill="#221e1c"/>
      <path id="Trazado_281363" data-name="Trazado 281363" d="M598.44,378.95s3.788,32.825-8.838,50.08c0,0,1.033,19.2,7.144,33.157,2.957.3,11.584,6.823,10.953,13.135,0,0-18.938,2.736-31.143-4a44.126,44.126,0,0,0,3.788-25.461s-10.1-68.6-24.409-74.91c0,0,20.621-9.259,42.505,8" transform="translate(-8541.523 -3691.406)" fill="#847771"/>
      <g id="Grupo_262628" data-name="Grupo 262628" transform="translate(-7985.588 -3322.653)" opacity="0.61" style="mix-blend-mode: multiply;isolation: isolate">
        <g id="Grupo_262627" data-name="Grupo 262627">
          <g id="Grupo_262626" data-name="Grupo 262626" clip-path="url(#clip-path-2)">
            <path id="Trazado_281364" data-name="Trazado 281364" d="M592.747,424.1c8.8-17.9,5.692-44.833,5.692-44.833-21.884-17.255-42.5-8-42.5-8,11.409,5.034,20.143,49.672,23.214,67.55,4.522-4.91,9.027-9.848,13.6-14.721" transform="translate(-555.935 -368.791)" fill="#847771"/>
          </g>
        </g>
      </g>
      <path id="Trazado_281365" data-name="Trazado 281365" d="M377.667,229.341c41.658,11.537,72.652,3.562,115.591-4.489,53.867-10.1,73.226-7.575,103.947-12.2,14.249-2.147,44.828,14.328,58.778,17.815L631,296s-2.51,120.193-118.1,69.691c0,0-62.846,46.012-136.913-22.445,0,0-34.79-124.007,1.683-113.907" transform="translate(-8518.825 -3673.239)" fill="#cdc3b9"/>
      <path id="Trazado_281366" data-name="Trazado 281366" d="M591.749,370.623c-12.266,4.849-26.083,3.5-38.983.754s-16.176-7.054-29.36-7.5c-20.086-.674-29.693,12.666-70.981,10.662-28.9-1.4-53.868-23.287-66.212-12.064,69.859,58.076,129.338,16.272,129.338,16.272,22.957,10.029,51.02,17.9,75.324,7.72,16.01-6.709,27.067-20.686,33.685-36.354a119.809,119.809,0,0,0,8.411-32.762,170.505,170.505,0,0,1-8.835,18.592c-7.607,14.286-17.334,28.728-32.387,34.678" transform="translate(-8521.761 -3685.454)" fill="#b9a8a0"/>
      <path id="Trazado_281367" data-name="Trazado 281367" d="M668.871,296.755a12.345,12.345,0,0,0-1,4.731c.507-2.088,1.062-4.174,1.6-6.291l-.6,1.56" transform="translate(-8554.558 -3682.874)" fill="#b9a8a0"/>
      <path id="Trazado_281368" data-name="Trazado 281368" d="M331.116,492.01l-.875,14.689a6.13,6.13,0,0,0,3.423,5.871c6.438,3.157,20.058,8.19,29.938.434,0,0,1.105-9.392-12.818-15.469Z" transform="translate(-8515.241 -3705.792)" fill="#2c2524"/>
      <path id="Trazado_281369" data-name="Trazado 281369" d="M352.567,498.092l-4.619-1.3a26.847,26.847,0,0,1,6.006,5.1c1.124,1.3,2.156,2.675,3.184,4.05.457.612.913,1.226,1.376,1.834a11.854,11.854,0,0,1,1.668,2.116c.381,1.013-.292,2.458-.844,3.322-1.368,2.144-3.739,3.485-6.142,4.443a19.835,19.835,0,0,0,12.188-4.1s1.1-9.392-12.818-15.469" transform="translate(-8517.305 -3706.349)" fill="#221e1c"/>
      <path id="Trazado_281370" data-name="Trazado 281370" d="M320.9,252.039a32.1,32.1,0,0,0-14.393,7.64,29.2,29.2,0,0,0-8.315,12.991c-1.481,4.913-1.573,10.308-1.036,15.888.285,2.792.709,5.637,1.224,8.527l1.677,8.835a232.767,232.767,0,0,1,4.493,36.623c.1,3.106.037,6.224-.079,9.337-.1,1.559-.148,3.115-.284,4.671-.165,1.555-.307,3.107-.512,4.656a84.405,84.405,0,0,1-4.322,18.177l-4.065-1.089a127.408,127.408,0,0,0,.7-35.2c-.565-5.868-1.533-11.712-2.55-17.569-1.047-5.854-2.244-11.711-3.472-17.6-.615-2.927-1.264-5.912-1.826-8.978s-1.075-6.2-1.349-9.435a55.207,55.207,0,0,1-.042-9.934,38.149,38.149,0,0,1,2.262-10.057A33.991,33.991,0,0,1,301.7,253.515a31.49,31.49,0,0,1,18.851-5.67Z" transform="translate(-8510.154 -3677.357)" fill="#847771"/>
      <path id="Trazado_281371" data-name="Trazado 281371" d="M288.718,399c-6.408,10-7.812,15.054-9.215,30.765-1.015,11.376,4.405,21.96,9.468,27.579-3.031-6.772-1.328-14.76,1.74-21.515s7.43-12.907,9.973-19.876c2.037-5.581,3.292-13.641-.094-19.011-3.232-5.126-8.775-2.775-11.872,2.059" transform="translate(-8509.32 -3694.386)" fill="#2c2524"/>
      <path id="Trazado_281372" data-name="Trazado 281372" d="M406.679,291.38c11.183-48.643-46.987-83.633-84.3-50.487q-.728.647-1.454,1.325s-39.559,36.613,5.892,103.526c0,0-2.525,28.2-5.471,36.614l-3.188,3.7a13.5,13.5,0,0,0-1.187,15.991c11.5,18.335,10.014,26.474,9,60.832,0,0,13.747,12.625,28.056,7.856l-5.331-8.7c-2.931-2.729-6.347-6.613-6.406-10.617l-.748-50.125s9.259-10.1,11.363-22.3c0,0,42.568-38.867,53.775-87.611" transform="translate(-8512.299 -3675.034)" fill="#cdc3b9"/>
      <path id="Trazado_281373" data-name="Trazado 281373" d="M334.862,377.9c1.473-3.261,3.083-10.112,2.458-11.128a15.6,15.6,0,0,0-2.166-1.828c-3.218-3.035-6.53-5.966-9.658-9.086,1.04,1.649,2.118,3.312,3.265,5,0,0-2.658,25.78-5.261,36.3A104.29,104.29,0,0,0,334.862,377.9" transform="translate(-8514.458 -3689.938)" fill="#b9a8a0"/>
      <path id="Trazado_281374" data-name="Trazado 281374" d="M562.227,291.262s-.561,49.378-18.517,67.334c0,0,14.588,68.457,2.244,108.3,0,0,9.539,2.244,6.173,11.223,0,0,17.956,1.122,21.884-2.245a17.29,17.29,0,0,0-10.1-11.783l1.122-31.423s26.934-46.012,40.963-80.8c0,0,0-46.012-43.768-60.6" transform="translate(-8540.1 -3682.416)" fill="#cdc3b9"/>
      <path id="Trazado_281375" data-name="Trazado 281375" d="M420.746,298.411a25.3,25.3,0,0,0-3.516,26.1c2.074,4.553,6.014,8.684,10.991,9.2,3.491.361,6.888-1.08,10.1-2.491l17.16-7.532c3.282-1.44,6.689-2.975,8.958-5.748,4.19-5.12,3.007-13.2-1.3-18.228-10.243-11.955-32.025-13.73-42.4-1.3" transform="translate(-8525.123 -3682.255)" fill="#131313"/>
      <path id="Trazado_281376" data-name="Trazado 281376" d="M350,304.968c2.512,3.19,6.484,4.772,9.958,6.874s6.846,5.434,6.652,9.49c-.277,5.822-7.227,8.677-10.355,13.594-1.65,2.594-2.187,5.735-3.526,8.5s-4.044,5.343-7.083,4.883c-2.811-.425-4.647-3.3-5.167-6.093s-.112-5.682-.413-8.51c-.594-5.593-3.867-10.479-6.87-15.235s-5.918-9.987-5.659-15.605c.243-5.264,5.983-12.569,11.841-12.167,6.461.442,7.462,10.252,10.623,14.268" transform="translate(-8514.926 -3682.348)" fill="#131313"/>
      <path id="Trazado_281377" data-name="Trazado 281377" d="M564.686,354.8c-2.523,3.852-2.643,8.817-1.875,13.357s2.329,8.93,2.893,13.5c.458,3.715.574,8.123,3.693,10.194,3.683,2.447,8.631-.36,11.542-3.687a32.007,32.007,0,0,0,7.617-16.975c.573-4.564.085-9.415-2.311-13.343-4.32-7.083-16.154-11.3-21.56-3.046" transform="translate(-8542.275 -3689.286)" fill="#131313"/>
      <path id="Trazado_281378" data-name="Trazado 281378" d="M379.072,252.746c-6.787,5.461-17.566,8.575-18.342,17.252-.819,9.165,10.578,14.284,14.545,22.586,1.875,3.924,2.468,9.108,6.384,11,3.72,1.8,8.235-.779,10.549-4.2s3.259-7.586,5.278-11.189c6.749-12.044,22.815-14.5,36.618-14.767s29.416-.45,38.8-10.573c7.27-7.841,8.488-19.924,5.406-30.163-.283-.94-.606-1.863-.949-2.777-31.975,6.126-58.243,10.633-90.1,3.813.2,7.187-2.561,14.493-8.19,19.021" transform="translate(-8518.788 -3675.272)" fill="#131313"/>
      <path id="Trazado_281379" data-name="Trazado 281379" d="M505.781,260.249c1.755,4.3,4.812,8.112,6.267,12.5,3.018,9.116-1.3,18.709-4.157,27.867s-3.619,20.5,4.288,26.715c5.429,4.27,13.829,4.6,20.172,1.556a23.565,23.565,0,0,0,12.293-15.367c1.263-4.875,1.126-10.035,2.944-14.761s6.574-9.155,12.018-8.505c5.35.638,8.641,5.724,9.96,10.5s1.581,9.96,4.539,14.077c3.759,5.229,11.257,7.468,18.07,6.773s13.029-3.866,18.573-7.543c10.028-6.652,19.215-17.3,16.256-28.285-2.415-8.967-12.234-15.068-14.671-24.029-4.01-14.744,13.439-28.382,11.638-43.484a18.443,18.443,0,0,0-1.458-5.223,27.647,27.647,0,0,0-8.648-.395c-5.572.839-10.769,1.444-15.867,1.931,3.232,13.888-16.148,27.946-28.966,28.376-3.2.107-6.579-.345-9.132-2.273-4.665-3.523-4.8-10.867-1.869-15.923a31.2,31.2,0,0,1,6.614-7.569c-11.887,1.04-25.718,2.614-43.734,5.692-1.177.854-2.327,1.741-3.433,2.682-10.277,8.758-16.6,22.664-11.7,34.687" transform="translate(-8535.486 -3673.24)" fill="#131313"/>
      <path id="Trazado_281380" data-name="Trazado 281380" d="M312.946,283.5c1.181-3.183,1.526-6.609,2.388-9.892a32.491,32.491,0,0,1,13.9-18.987c5.075-3.211,10.921-4.929,16.545-7.034s11.277-4.764,15.188-9.322a17.465,17.465,0,0,0,4.127-9.513c-14.231-2.668-29.735.608-42.717,12.139q-.729.647-1.454,1.325s-18.23,16.886-15.711,48.67a5.917,5.917,0,0,0,1.048-.2c3.257-.961,5.507-4.006,6.689-7.189" transform="translate(-8512.3 -3675.035)" fill="#131313"/>
      <g id="Grupo_262631" data-name="Grupo 262631" transform="translate(-7917.572 -3458.908)" style="mix-blend-mode: multiply;isolation: isolate">
        <g id="Grupo_262630" data-name="Grupo 262630">
          <g id="Grupo_262629" data-name="Grupo 262629" clip-path="url(#clip-path-3)">
            <path id="Trazado_281381" data-name="Trazado 281381" d="M637.7,214.578c-1.772,4.629-10.888,29.8,1.964,55.41a68.309,68.309,0,0,0,23.146,25.952C665.5,288.948,668.9,280.331,672,270.8c4.64-14.261,7.224-32.931,3.016-49.343Z" transform="translate(-632.915 -214.578)" fill="#b9a8a0"/>
          </g>
        </g>
      </g>
      <path id="Trazado_281382" data-name="Trazado 281382" d="M707.607,159.568a30.671,30.671,0,0,1-1.43,7.819,30.262,30.262,0,0,1-3.529,7.421,31.359,31.359,0,0,1-2.58,3.412,30.266,30.266,0,0,1-3.169,3.009,32.318,32.318,0,0,1-7.607,4.636,5.526,5.526,0,1,1-3.134-10.477l.147-.019a22.669,22.669,0,0,0,5.99-1.453,22.114,22.114,0,0,0,2.872-1.377,24.583,24.583,0,0,0,2.667-1.9,24.985,24.985,0,0,0,4.656-5.034,28.039,28.039,0,0,0,3.317-6.312l.029-.081a.914.914,0,0,1,1.772.354" transform="translate(-8556.136 -3666.969)" fill="#aa8c64"/>
      <path id="Trazado_281383" data-name="Trazado 281383" d="M696.5,176.159a35.685,35.685,0,0,1-10.094,5.027,32,32,0,0,1-4.526,1.125,5.588,5.588,0,0,0,.368,1.049,5.528,5.528,0,0,0,7.348,2.666,32.345,32.345,0,0,0,7.606-4.637,30.265,30.265,0,0,0,3.169-3.008,31.576,31.576,0,0,0,2.581-3.413,30.288,30.288,0,0,0,3.528-7.421,32.222,32.222,0,0,0,1.2-5.407A33.714,33.714,0,0,1,696.5,176.159" transform="translate(-8556.189 -3667.38)" fill="#977c58"/>
      <path id="Trazado_281384" data-name="Trazado 281384" d="M659.244,272.344s5.558,7.117,11.732,8.417c17.665,3.717,23.975-1.276,23.975-1.276s6.631-2.295,6.376-9.436Z" transform="translate(-8553.554 -3679.946)" fill="#b9a8a0"/>
      <path id="Trazado_281385" data-name="Trazado 281385" d="M660.514,267.581s5.558,7.117,11.733,8.417c17.664,3.717,23.974-1.276,23.974-1.276s6.631-2.3,6.376-9.436Z" transform="translate(-8553.701 -3679.391)" fill="#cdc3b9"/>
      <path id="Trazado_281386" data-name="Trazado 281386" d="M693.119,193.321s-1.53,9.692,3.57,14.027a20.225,20.225,0,0,0,18.364.765c9.947-4.591,13.59-22.848,11.477-24.229-18.364-9.693-26.015,14.792-33.412,9.436" transform="translate(-8557.473 -3669.645)" fill="#0a0a0a"/>
      <path id="Trazado_281387" data-name="Trazado 281387" d="M707.145,207.051a17.387,17.387,0,0,1-8.023-2c-1.752-1.661-2.311-4.673-2.4-7.2,3.183-.4,5.946-2.867,8.856-5.464,3.669-3.274,7.827-6.985,12.987-6.985a13.7,13.7,0,0,1,5.651,1.324c-.006,3.884-3.424,15.684-10.127,18.778a16.462,16.462,0,0,1-6.939,1.549Z" transform="translate(-8557.917 -3670.089)"/>
      <path id="Trazado_281388" data-name="Trazado 281388" d="M665.3,171.021s-30.606-4.208-33.284,35.2c0,0-8.657,59.465,33.011,57.822a9.564,9.564,0,0,0,1.986-.3c4.337-1.1,22.421-5.353,30.8-1.664,0,0,8.417-12.625-3.443-24.1a42.449,42.449,0,0,1,.383-21.806c3.443-11.095-1.53-17.981-4.974-21.424,0,0-3.826-22.189-24.484-23.719" transform="translate(-8550.295 -3668.399)" fill="#cdc3b9"/>
      <path id="Trazado_281389" data-name="Trazado 281389" d="M674.467,253.37c-.236,3.3-.018,10.855,6.143,15.354a8.571,8.571,0,0,0,5.194,1.605l8.714-.135a8.724,8.724,0,0,0,8.1-5.76,25.238,25.238,0,0,0,1.4-12.028,2.914,2.914,0,0,0-1.726-2.242,30.684,30.684,0,0,0-26.227.8,2.954,2.954,0,0,0-1.6,2.4" transform="translate(-8555.319 -3677.331)" fill="#e59393"/>
      <path id="Trazado_281390" data-name="Trazado 281390" d="M694.116,219.139a25.972,25.972,0,0,0,8.073,21.3,25.182,25.182,0,0,0-1.833-1.977,47.415,47.415,0,0,1,1.218-21.538c3.443-11.094-1.53-17.98-4.974-21.424,0,0-3.157-13.72-13.936-20.4,5.134,6.136,13.524,20.061,11.453,44.036" transform="translate(-8556.28 -3668.89)" fill="#0c0c0c"/>
      <path id="Trazado_281391" data-name="Trazado 281391" d="M657.411,198.111A33.64,33.64,0,0,0,635.451,184.5a45.556,45.556,0,0,0-6.79,14.51c-6.251-3.648-14.057-16.879-28.38-9.319-2.113,1.382,1.53,19.638,11.477,24.229a19.988,19.988,0,0,0,14.848.8c-.663,12.738.254,39.688,18.664,48.323a6.285,6.285,0,0,0,3,.59c14.185-.785,10.551-11.055,16.984-22.93,4.787-8.838,4.91-25.249-7.842-42.594" transform="translate(-8546.62 -3669.984)" fill="#131313"/>
      <path id="Trazado_281392" data-name="Trazado 281392" d="M620.551,213.243a16.462,16.462,0,0,1-6.942-1.55c-6.7-3.093-10.121-14.893-10.127-18.777a13.7,13.7,0,0,1,5.651-1.324c5.16,0,9.318,3.712,12.986,6.985,2.91,2.6,5.673,5.063,8.859,5.465-.093,2.531-.652,5.546-2.406,7.207a17.41,17.41,0,0,1-8.021,1.994" transform="translate(-8547.061 -3670.81)"/>
      <path id="Trazado_281393" data-name="Trazado 281393" d="M660.789,274.606a10.528,10.528,0,0,0,4.655-.119c1.612-.324,3.233-.785,4.871-1.242q2.448-.728,4.958-1.426c1.668-.482,3.363-.918,5.087-1.3a48.4,48.4,0,0,1,10.7-1.347,17.7,17.7,0,0,1,5.513.83,11.71,11.71,0,0,1,4.856,2.884.744.744,0,0,1-.54,1.26h-.027c-1.814-.014-3.419-.088-5.024-.118l-4.786-.063a64.192,64.192,0,0,0-9.849.914l-5.036.866c-1.693.3-3.4.611-5.142.842a40.051,40.051,0,0,1-5.334.463,15.6,15.6,0,0,1-2.781-.213,7.341,7.341,0,0,1-2.736-1,.694.694,0,0,1,.563-1.25Z" transform="translate(-8553.624 -3679.844)" fill="#91837d"/>
      <path id="Trazado_281394" data-name="Trazado 281394" d="M703.516,251.389c-.071.912-4.769.421-12.906.771-7.933.342-15.361.618-15.361-.351s6.648-4.208,14.589-4.208,13.752,2.822,13.677,3.788" transform="translate(-8555.417 -3677.332)" fill="#e1a4a4"/>
      <path id="Trazado_281395" data-name="Trazado 281395" d="M704.468,212.514a5.9,5.9,0,0,0-1.753,11.413c.717-3.842,2.055-7.413,1.753-11.413" transform="translate(-8558.172 -3673.246)"/>
      <path id="Trazado_281396" data-name="Trazado 281396" d="M704.745,214.677a4,4,0,0,0-1.378,7.6,22.642,22.642,0,0,0,1.378-7.6" transform="translate(-8558.424 -3673.498)" fill="#1f1f1f"/>
      <path id="Trazado_281397" data-name="Trazado 281397" d="M704.713,216.264a2.488,2.488,0,0,0-2.315,2.63,2.7,2.7,0,0,0,1.578,2.455c.912-.841,1.438-4,.847-5.072-.038,0-.073-.012-.11-.012" transform="translate(-8558.578 -3673.683)"/>
      <path id="Trazado_281398" data-name="Trazado 281398" d="M703.823,217.694a.707.707,0,1,1-.208-1.042.754.754,0,0,1,.208,1.042" transform="translate(-8558.589 -3673.718)" fill="#ececec"/>
      <path id="Trazado_281399" data-name="Trazado 281399" d="M680.209,254.806a8.029,8.029,0,0,1,1.778.633,14.939,14.939,0,0,1,1.644.942c.537.338,1.059.712,1.572,1.108a13.742,13.742,0,0,1,1.484,1.311.456.456,0,0,1-.336.771,13.613,13.613,0,0,1-1.97-.188c-.639-.1-1.269-.23-1.883-.391a14.91,14.91,0,0,1-1.81-.558,8,8,0,0,1-1.676-.866,1.54,1.54,0,0,1,1.2-2.762" transform="translate(-8555.78 -3678.167)" fill="#7e5050"/>
      <path id="Trazado_281400" data-name="Trazado 281400" d="M704.47,257.25a8.007,8.007,0,0,1-1.677.866,14.711,14.711,0,0,1-1.81.558c-.614.162-1.243.288-1.883.392a13.836,13.836,0,0,1-1.97.188.456.456,0,0,1-.335-.772,13.657,13.657,0,0,1,1.484-1.311c.512-.4,1.035-.769,1.572-1.107a14.926,14.926,0,0,1,1.643-.942,8.019,8.019,0,0,1,1.778-.633,1.54,1.54,0,0,1,1.2,2.762" transform="translate(-8557.911 -3678.13)" fill="#7e5050"/>
      <path id="Trazado_281401" data-name="Trazado 281401" d="M659.561,222.629a7.7,7.7,0,0,1-.345-1.293,9.832,9.832,0,0,1-.017-2.835,5.715,5.715,0,0,0-.512-3.046,5.918,5.918,0,1,0-4.529,8.3,13.392,13.392,0,0,1,2.779-.189c.632.041,1.245.105,1.779.172a.809.809,0,0,0,.846-1.108" transform="translate(-8552.171 -3673.181)"/>
      <path id="Trazado_281402" data-name="Trazado 281402" d="M649.171,217.939a4.313,4.313,0,1,1,4.313,4.314,4.314,4.314,0,0,1-4.313-4.314" transform="translate(-8552.38 -3673.375)" fill="#1f1f1f"/>
      <path id="Trazado_281403" data-name="Trazado 281403" d="M650.4,218.082a3.226,3.226,0,1,1,3.227,3.227,3.227,3.227,0,0,1-3.227-3.227" transform="translate(-8552.523 -3673.519)"/>
      <path id="Trazado_281404" data-name="Trazado 281404" d="M652.97,215.882a.947.947,0,1,1-.947-.947.947.947,0,0,1,.947.947" transform="translate(-8552.603 -3673.528)" fill="#ececec"/>
      <path id="Trazado_281405" data-name="Trazado 281405" d="M627.4,162.9a35.456,35.456,0,0,0,.907,7.058,18.986,18.986,0,0,0,2.438,6.106,7.445,7.445,0,0,0,3.872,3.217c1.356.5,3.065.174,4.723-.125l.409-.073a4.96,4.96,0,0,1,5.726,4.119,5.063,5.063,0,0,1-4.016,5.873,4.99,4.99,0,0,1-1.372.049l-2.361-.254a9.486,9.486,0,0,1-2.354-.482c-.8-.259-1.581-.488-2.341-.809-.757-.415-1.5-.849-2.212-1.294a14.87,14.87,0,0,1-5.429-7.736,24.4,24.4,0,0,1-1.006-8.2,38.393,38.393,0,0,1,1.025-7.724,1.008,1.008,0,0,1,1.219-.761,1.03,1.03,0,0,1,.77.976Z" transform="translate(-8549.492 -3667.345)" fill="#cfab7a"/>
      <path id="Trazado_281406" data-name="Trazado 281406" d="M646.823,185.47a4.958,4.958,0,0,0-5.725-4.119l-.409.074a10.089,10.089,0,0,1-4.557.171c.571.4,1.167.793,1.8,1.18,2.219,1.35,5.392,3.081,5.673,5.99a4.528,4.528,0,0,1-.524,2.512,5.067,5.067,0,0,0,3.739-5.809" transform="translate(-8550.862 -3669.608)" fill="#bf9d71"/>
      <g id="Grupo_262634" data-name="Grupo 262634" transform="translate(-7946.917 -3482.584)" opacity="0.83" style="mix-blend-mode: multiply;isolation: isolate">
        <g id="Grupo_262633" data-name="Grupo 262633">
          <g id="Grupo_262632" data-name="Grupo 262632" clip-path="url(#clip-path-4)">
            <path id="Trazado_281407" data-name="Trazado 281407" d="M662.928,231.375c-2.736-3.143-6.583-4.555-10.743-5.441-3.763-.8-8.1-.77-11.482-2.8-3.834-2.3-5.671-6.526-5.987-10.9a38.132,38.132,0,0,0-1.928-9.859,33.782,33.782,0,0,1-1.793-9.61,44.5,44.5,0,0,0-2.334,6.628c-6.251-3.648-14.057-16.878-28.38-9.319-2.113,1.382,1.53,19.639,11.477,24.23a19.992,19.992,0,0,0,14.848.8c-.663,12.736.254,39.687,18.662,48.323a6.283,6.283,0,0,0,3.008.589c14.383-.8,10.438-11.355,17.264-23.446l.013-.067a32.727,32.727,0,0,0-2.626-9.126" transform="translate(-599.703 -187.782)" fill="#b9a8a0"/>
          </g>
        </g>
      </g>
      <g id="Grupo_262709" data-name="Grupo 262709" transform="translate(0 7.134)">
        <path id="Trazado_281418" data-name="Trazado 281418" d="M333.469,401.085A11.483,11.483,0,1,1,321.987,389.6a11.483,11.483,0,0,1,11.483,11.483" transform="translate(-8512.944 -3693.867)" fill="#3b5620"/>
        <path id="Trazado_281419" data-name="Trazado 281419" d="M329.12,401.745a6.474,6.474,0,1,1-6.474-6.474,6.473,6.473,0,0,1,6.474,6.474" transform="translate(-8513.604 -3694.527)" fill="#dbf9bd"/>
      </g>
      <g id="Grupo_1069984" data-name="Grupo 1069984" transform="translate(163.19 -162.18)">
        <path id="Trazado_281418-2" data-name="Trazado 281418" d="M333.469,401.085A11.483,11.483,0,1,1,321.987,389.6a11.483,11.483,0,0,1,11.483,11.483" transform="translate(-8512.944 -3693.867)" fill="#3b5620"/>
        <path id="Trazado_281419-2" data-name="Trazado 281419" d="M329.12,401.745a6.474,6.474,0,1,1-6.474-6.474,6.473,6.473,0,0,1,6.474,6.474" transform="translate(-8513.604 -3694.527)" fill="#dbf9bd"/>
      </g>
      <g id="Grupo_1069985" data-name="Grupo 1069985" transform="translate(294.703 -33.276)">
        <path id="Trazado_281418-3" data-name="Trazado 281418" d="M333.469,401.085A11.483,11.483,0,1,1,321.987,389.6a11.483,11.483,0,0,1,11.483,11.483" transform="translate(-8512.944 -3693.867)" fill="#3b5620"/>
        <path id="Trazado_281419-3" data-name="Trazado 281419" d="M329.12,401.745a6.474,6.474,0,1,1-6.474-6.474,6.473,6.473,0,0,1,6.474,6.474" transform="translate(-8513.604 -3694.527)" fill="#dbf9bd"/>
      </g>
    </g>
    <g id="Grupo_262712" data-name="Grupo 262712" transform="translate(-810 -410)">
      <g id="Rectángulo_325901" data-name="Rectángulo 325901" transform="translate(-8484 -3518)" fill="#fff" stroke="#707070" stroke-width="2">
        <rect width="255" height="121" rx="15" stroke="none"/>
        <rect x="1" y="1" width="253" height="119" rx="14" fill="none"/>
      </g>
      <path id="Trazado_816746" data-name="Trazado 816746" d="M2.828-1.227H8.219V0H1.32V-11.375H2.828ZM11.273,0H9.828V-8.453h1.445ZM9.711-10.7a.863.863,0,0,1,.215-.594.807.807,0,0,1,.637-.242.819.819,0,0,1,.641.242.854.854,0,0,1,.219.594.826.826,0,0,1-.219.586.834.834,0,0,1-.641.234.821.821,0,0,1-.637-.234A.834.834,0,0,1,9.711-10.7ZM20.742-4.133a5.026,5.026,0,0,1-.891,3.113A2.846,2.846,0,0,1,17.461.156,2.947,2.947,0,0,1,14.984-.977L14.914,0H13.586V-12h1.445v4.477a2.93,2.93,0,0,1,2.414-1.086,2.863,2.863,0,0,1,2.418,1.164,5.177,5.177,0,0,1,.879,3.188ZM19.3-4.3a3.906,3.906,0,0,0-.57-2.281,1.888,1.888,0,0,0-1.641-.8,2.122,2.122,0,0,0-2.055,1.328V-2.4A2.181,2.181,0,0,0,17.1-1.07a1.878,1.878,0,0,0,1.617-.8A4.153,4.153,0,0,0,19.3-4.3Zm7.352-2.859a4.331,4.331,0,0,0-.711-.055A1.9,1.9,0,0,0,24.008-6V0H22.563V-8.453h1.406l.023.977a2.251,2.251,0,0,1,2.016-1.133,1.477,1.477,0,0,1,.641.109ZM31.192.156A3.693,3.693,0,0,1,28.4-.973a4.19,4.19,0,0,1-1.078-3.02v-.266A5.073,5.073,0,0,1,27.8-6.5a3.748,3.748,0,0,1,1.344-1.547,3.378,3.378,0,0,1,1.871-.559,3.166,3.166,0,0,1,2.563,1.086,4.7,4.7,0,0,1,.914,3.109v.6H28.762a3,3,0,0,0,.73,2.02,2.3,2.3,0,0,0,1.777.77,2.517,2.517,0,0,0,1.3-.312,3.259,3.259,0,0,0,.93-.828l.883.688A3.55,3.55,0,0,1,31.192.156Zm-.18-7.578a1.928,1.928,0,0,0-1.469.637A3.1,3.1,0,0,0,28.809-5h4.234v-.109a2.753,2.753,0,0,0-.594-1.707A1.815,1.815,0,0,0,31.012-7.422ZM39.77-4.3a4.952,4.952,0,0,1,.922-3.129,2.915,2.915,0,0,1,2.414-1.184,2.932,2.932,0,0,1,2.352,1.016V-12H46.9V0H45.575L45.5-.906A2.943,2.943,0,0,1,43.09.156a2.887,2.887,0,0,1-2.395-1.2,5.008,5.008,0,0,1-.926-3.141Zm1.445.164a3.749,3.749,0,0,0,.594,2.25,1.92,1.92,0,0,0,1.641.813A2.108,2.108,0,0,0,45.458-2.3V-6.187a2.125,2.125,0,0,0-1.992-1.2,1.929,1.929,0,0,0-1.656.82A4.128,4.128,0,0,0,41.215-4.133ZM52.653.156a3.693,3.693,0,0,1-2.8-1.129,4.19,4.19,0,0,1-1.078-3.02v-.266a5.073,5.073,0,0,1,.48-2.246A3.748,3.748,0,0,1,50.6-8.051a3.378,3.378,0,0,1,1.871-.559,3.166,3.166,0,0,1,2.563,1.086,4.7,4.7,0,0,1,.914,3.109v.6H50.223a3,3,0,0,0,.73,2.02,2.3,2.3,0,0,0,1.777.77,2.517,2.517,0,0,0,1.3-.312,3.259,3.259,0,0,0,.93-.828l.883.688A3.55,3.55,0,0,1,52.653.156Zm-.18-7.578A1.928,1.928,0,0,0,51-6.785,3.1,3.1,0,0,0,50.27-5H54.5v-.109a2.753,2.753,0,0,0-.594-1.707A1.815,1.815,0,0,0,52.473-7.422ZM63.153,0H61.708V-8.453h1.445ZM61.59-10.7a.863.863,0,0,1,.215-.594.807.807,0,0,1,.637-.242.819.819,0,0,1,.641.242.854.854,0,0,1,.219.594.826.826,0,0,1-.219.586.834.834,0,0,1-.641.234.821.821,0,0,1-.637-.234A.834.834,0,0,1,61.59-10.7Zm5.234,2.242.039.938a3.122,3.122,0,0,1,2.508-1.094A2.417,2.417,0,0,1,71.786-7.25a3.2,3.2,0,0,1,1.1-.984,3.242,3.242,0,0,1,1.6-.375q2.781,0,2.828,2.945V0H75.864V-5.578a1.941,1.941,0,0,0-.414-1.355,1.823,1.823,0,0,0-1.391-.449,1.916,1.916,0,0,0-1.336.48,1.949,1.949,0,0,0-.617,1.293V0H70.653V-5.539a1.613,1.613,0,0,0-1.8-1.844A1.934,1.934,0,0,0,66.9-6.172V0H65.458V-8.453Zm19.8,4.32a5.062,5.062,0,0,1-.883,3.109A2.829,2.829,0,0,1,83.356.156,3.1,3.1,0,0,1,80.934-.82V3.25H79.489v-11.7h1.32l.07.938a2.977,2.977,0,0,1,2.453-1.094,2.882,2.882,0,0,1,2.41,1.148,5.117,5.117,0,0,1,.887,3.2ZM85.184-4.3a3.735,3.735,0,0,0-.609-2.258A1.963,1.963,0,0,0,82.9-7.383a2.125,2.125,0,0,0-1.969,1.164V-2.18a2.129,2.129,0,0,0,1.984,1.156,1.954,1.954,0,0,0,1.652-.824A4.077,4.077,0,0,0,85.184-4.3ZM91.973.156a3.693,3.693,0,0,1-2.8-1.129A4.19,4.19,0,0,1,88.1-3.992v-.266a5.073,5.073,0,0,1,.48-2.246,3.748,3.748,0,0,1,1.344-1.547,3.378,3.378,0,0,1,1.871-.559,3.166,3.166,0,0,1,2.563,1.086,4.7,4.7,0,0,1,.914,3.109v.6H89.544a3,3,0,0,0,.73,2.02,2.3,2.3,0,0,0,1.777.77,2.517,2.517,0,0,0,1.3-.312,3.259,3.259,0,0,0,.93-.828l.883.688A3.55,3.55,0,0,1,91.973.156Zm-.18-7.578a1.928,1.928,0,0,0-1.469.637A3.1,3.1,0,0,0,89.59-5h4.234v-.109a2.753,2.753,0,0,0-.594-1.707A1.815,1.815,0,0,0,91.794-7.422ZM96.59-4.3a4.952,4.952,0,0,1,.922-3.129,2.915,2.915,0,0,1,2.414-1.184,2.932,2.932,0,0,1,2.352,1.016V-12h1.445V0H102.4l-.07-.906A2.943,2.943,0,0,1,99.911.156a2.887,2.887,0,0,1-2.395-1.2,5.008,5.008,0,0,1-.926-3.141Zm1.445.164a3.749,3.749,0,0,0,.594,2.25,1.92,1.92,0,0,0,1.641.813A2.109,2.109,0,0,0,102.278-2.3V-6.187a2.125,2.125,0,0,0-1.992-1.2,1.929,1.929,0,0,0-1.656.82A4.128,4.128,0,0,0,98.036-4.133ZM107.536,0H106.09V-8.453h1.445Zm-1.562-10.7a.863.863,0,0,1,.215-.594.807.807,0,0,1,.637-.242.819.819,0,0,1,.641.242.854.854,0,0,1,.219.594.826.826,0,0,1-.219.586.834.834,0,0,1-.641.234.821.821,0,0,1-.637-.234A.834.834,0,0,1,105.973-10.7Zm5.234,2.242.039.938a3.122,3.122,0,0,1,2.508-1.094,2.417,2.417,0,0,1,2.414,1.359,3.2,3.2,0,0,1,1.1-.984,3.242,3.242,0,0,1,1.6-.375q2.781,0,2.828,2.945V0h-1.445V-5.578a1.941,1.941,0,0,0-.414-1.355,1.823,1.823,0,0,0-1.391-.449,1.916,1.916,0,0,0-1.336.48,1.949,1.949,0,0,0-.617,1.293V0h-1.453V-5.539a1.613,1.613,0,0,0-1.8-1.844,1.934,1.934,0,0,0-1.945,1.211V0H109.84V-8.453ZM127.379.156a3.693,3.693,0,0,1-2.8-1.129,4.19,4.19,0,0,1-1.078-3.02v-.266a5.073,5.073,0,0,1,.48-2.246,3.748,3.748,0,0,1,1.344-1.547,3.378,3.378,0,0,1,1.871-.559,3.166,3.166,0,0,1,2.562,1.086,4.7,4.7,0,0,1,.914,3.109v.6H124.95a3,3,0,0,0,.73,2.02,2.3,2.3,0,0,0,1.777.77,2.517,2.517,0,0,0,1.3-.312,3.258,3.258,0,0,0,.93-.828l.883.688A3.55,3.55,0,0,1,127.379.156Zm-.18-7.578a1.928,1.928,0,0,0-1.469.637A3.1,3.1,0,0,0,125-5h4.234v-.109a2.753,2.753,0,0,0-.594-1.707A1.815,1.815,0,0,0,127.2-7.422Zm6.516-1.031.047,1.063a3.08,3.08,0,0,1,2.531-1.219q2.68,0,2.7,3.023V0h-1.445V-5.594a1.946,1.946,0,0,0-.418-1.352,1.675,1.675,0,0,0-1.277-.437,2.086,2.086,0,0,0-1.234.375,2.546,2.546,0,0,0-.828.984V0h-1.445V-8.453Zm9.422-2.047v2.047h1.578v1.117h-1.578v5.249a1.173,1.173,0,0,0,.211.763.888.888,0,0,0,.719.254,3.5,3.5,0,0,0,.688-.094V0a4.215,4.215,0,0,1-1.109.155,1.8,1.8,0,0,1-1.461-.586,2.517,2.517,0,0,1-.492-1.664V-7.336h-1.539V-8.453h1.539V-10.5Zm2.551,6.2a4.993,4.993,0,0,1,.488-2.234,3.642,3.642,0,0,1,1.359-1.531,3.7,3.7,0,0,1,1.988-.539,3.565,3.565,0,0,1,2.793,1.2,4.6,4.6,0,0,1,1.066,3.18v.1a5.036,5.036,0,0,1-.473,2.215,3.589,3.589,0,0,1-1.352,1.527,3.743,3.743,0,0,1-2.02.547,3.556,3.556,0,0,1-2.785-1.2A4.575,4.575,0,0,1,145.688-4.2Zm1.453.172a3.616,3.616,0,0,0,.652,2.258,2.088,2.088,0,0,0,1.746.852,2.075,2.075,0,0,0,1.75-.863,3.954,3.954,0,0,0,.648-2.418,3.61,3.61,0,0,0-.66-2.254,2.1,2.1,0,0,0-1.754-.863,2.075,2.075,0,0,0-1.727.852A3.925,3.925,0,0,0,147.141-4.133Zm12.977,1.891a1.064,1.064,0,0,0-.441-.91,4.249,4.249,0,0,0-1.539-.559,7.277,7.277,0,0,1-1.742-.562,2.479,2.479,0,0,1-.953-.781,1.869,1.869,0,0,1-.309-1.078,2.193,2.193,0,0,1,.879-1.758,3.432,3.432,0,0,1,2.246-.719,3.532,3.532,0,0,1,2.332.742,2.357,2.357,0,0,1,.895,1.9h-1.453a1.3,1.3,0,0,0-.5-1.023,1.888,1.888,0,0,0-1.27-.43,1.976,1.976,0,0,0-1.234.344,1.082,1.082,0,0,0-.445.9.877.877,0,0,0,.414.789,5.1,5.1,0,0,0,1.5.508,7.8,7.8,0,0,1,1.754.578,2.558,2.558,0,0,1,1,.809,1.988,1.988,0,0,1,.324,1.152,2.163,2.163,0,0,1-.906,1.816,3.8,3.8,0,0,1-2.352.684,4.257,4.257,0,0,1-1.8-.359,2.922,2.922,0,0,1-1.223-1,2.42,2.42,0,0,1-.441-1.395h1.445a1.5,1.5,0,0,0,.582,1.152,2.258,2.258,0,0,0,1.434.426,2.331,2.331,0,0,0,1.316-.332A1.02,1.02,0,0,0,160.118-2.242Zm14.43-1.891a5.062,5.062,0,0,1-.883,3.109,2.829,2.829,0,0,1-2.391,1.18,3.1,3.1,0,0,1-2.422-.977V3.25h-1.445v-11.7h1.32l.07.938a2.977,2.977,0,0,1,2.453-1.094,2.882,2.882,0,0,1,2.41,1.148,5.117,5.117,0,0,1,.887,3.2ZM173.1-4.3a3.735,3.735,0,0,0-.609-2.258,1.963,1.963,0,0,0-1.672-.828,2.125,2.125,0,0,0-1.969,1.164V-2.18a2.129,2.129,0,0,0,1.984,1.156,1.954,1.954,0,0,0,1.652-.824A4.077,4.077,0,0,0,173.1-4.3ZM181.6,0a3.036,3.036,0,0,1-.2-.891A3.225,3.225,0,0,1,178.993.156a2.984,2.984,0,0,1-2.051-.707,2.287,2.287,0,0,1-.8-1.793,2.39,2.39,0,0,1,1-2.051,4.733,4.733,0,0,1,2.824-.73h1.406v-.664A1.623,1.623,0,0,0,180.922-7a1.821,1.821,0,0,0-1.336-.449,2.107,2.107,0,0,0-1.3.391,1.151,1.151,0,0,0-.523.945h-1.453a2,2,0,0,1,.449-1.223,3.066,3.066,0,0,1,1.219-.934,4.1,4.1,0,0,1,1.691-.344,3.342,3.342,0,0,1,2.289.73,2.635,2.635,0,0,1,.859,2.012v3.891a4.757,4.757,0,0,0,.3,1.852V0Zm-2.4-1.1a2.54,2.54,0,0,0,1.289-.352,2.127,2.127,0,0,0,.883-.914V-4.1h-1.133q-2.656,0-2.656,1.555a1.316,1.316,0,0,0,.453,1.063A1.742,1.742,0,0,0,179.2-1.1Zm9.969-6.055a4.331,4.331,0,0,0-.711-.055A1.9,1.9,0,0,0,186.532-6V0h-1.445V-8.453h1.406l.023.977a2.251,2.251,0,0,1,2.016-1.133,1.477,1.477,0,0,1,.641.109ZM195.1,0a3.036,3.036,0,0,1-.2-.891A3.225,3.225,0,0,1,192.493.156a2.984,2.984,0,0,1-2.051-.707,2.287,2.287,0,0,1-.8-1.793,2.39,2.39,0,0,1,1-2.051,4.733,4.733,0,0,1,2.824-.73h1.406v-.664A1.623,1.623,0,0,0,194.423-7a1.821,1.821,0,0,0-1.336-.449,2.107,2.107,0,0,0-1.3.391,1.151,1.151,0,0,0-.523.945h-1.453a2,2,0,0,1,.449-1.223,3.066,3.066,0,0,1,1.219-.934,4.1,4.1,0,0,1,1.691-.344,3.342,3.342,0,0,1,2.289.73,2.635,2.635,0,0,1,.859,2.012v3.891a4.757,4.757,0,0,0,.3,1.852V0Zm-2.4-1.1a2.54,2.54,0,0,0,1.289-.352,2.127,2.127,0,0,0,.883-.914V-4.1h-1.133q-2.656,0-2.656,1.555a1.316,1.316,0,0,0,.453,1.063A1.742,1.742,0,0,0,192.7-1.1ZM2.453,13.547l.039.938A3.122,3.122,0,0,1,5,13.391,2.417,2.417,0,0,1,7.414,14.75a3.2,3.2,0,0,1,1.1-.984,3.242,3.242,0,0,1,1.6-.375q2.781,0,2.828,2.945V22H11.492V16.422a1.941,1.941,0,0,0-.414-1.355,1.823,1.823,0,0,0-1.391-.449,1.916,1.916,0,0,0-1.336.48,1.949,1.949,0,0,0-.617,1.293V22H6.281V16.461a1.613,1.613,0,0,0-1.8-1.844,1.934,1.934,0,0,0-1.945,1.211V22H1.086V13.547ZM20.336,22a3.036,3.036,0,0,1-.2-.891,3.225,3.225,0,0,1-2.406,1.047,2.984,2.984,0,0,1-2.051-.707,2.287,2.287,0,0,1-.8-1.793,2.39,2.39,0,0,1,1-2.051,4.733,4.733,0,0,1,2.824-.73h1.406v-.664A1.623,1.623,0,0,0,19.656,15a1.821,1.821,0,0,0-1.336-.449,2.107,2.107,0,0,0-1.3.391,1.151,1.151,0,0,0-.523.945H15.047a2,2,0,0,1,.449-1.223,3.066,3.066,0,0,1,1.219-.934,4.1,4.1,0,0,1,1.691-.344,3.342,3.342,0,0,1,2.289.73,2.635,2.635,0,0,1,.859,2.012v3.891a4.757,4.757,0,0,0,.3,1.852V22Zm-2.4-1.1a2.54,2.54,0,0,0,1.289-.352,2.127,2.127,0,0,0,.883-.914V17.9H18.977q-2.656,0-2.656,1.555a1.316,1.316,0,0,0,.453,1.063A1.742,1.742,0,0,0,17.938,20.9Zm7.25-7.352.047,1.063a3.08,3.08,0,0,1,2.531-1.219q2.68,0,2.7,3.023V22H29.023V16.406a1.946,1.946,0,0,0-.418-1.352,1.675,1.675,0,0,0-1.277-.437,2.086,2.086,0,0,0-1.234.375,2.546,2.546,0,0,0-.828.984V22H23.82V13.547ZM34.219,22H32.773V13.547h1.445ZM32.656,11.3a.863.863,0,0,1,.215-.594.807.807,0,0,1,.637-.242.819.819,0,0,1,.641.242.854.854,0,0,1,.219.594.826.826,0,0,1-.219.586.834.834,0,0,1-.641.234.821.821,0,0,1-.637-.234A.834.834,0,0,1,32.656,11.3ZM37.242,22V14.664H35.906V13.547h1.336V12.68a2.878,2.878,0,0,1,.727-2.1,2.745,2.745,0,0,1,2.055-.742,3.816,3.816,0,0,1,.992.132l-.078,1.165a4.151,4.151,0,0,0-.781-.07,1.41,1.41,0,0,0-1.086.411,1.669,1.669,0,0,0-.383,1.18v.893h1.8v1.117h-1.8V22Zm8.164.156a3.693,3.693,0,0,1-2.8-1.129,4.19,4.19,0,0,1-1.078-3.02v-.266a5.073,5.073,0,0,1,.48-2.246,3.748,3.748,0,0,1,1.344-1.547,3.378,3.378,0,0,1,1.871-.559,3.166,3.166,0,0,1,2.563,1.086,4.7,4.7,0,0,1,.914,3.109v.6H42.977a3,3,0,0,0,.73,2.02,2.3,2.3,0,0,0,1.777.77,2.517,2.517,0,0,0,1.3-.312,3.259,3.259,0,0,0,.93-.828l.883.688A3.55,3.55,0,0,1,45.406,22.156Zm-.18-7.578a1.928,1.928,0,0,0-1.469.637A3.1,3.1,0,0,0,43.023,17h4.234v-.109a2.753,2.753,0,0,0-.594-1.707A1.815,1.815,0,0,0,45.227,14.578Zm10.07,5.18a1.064,1.064,0,0,0-.441-.91,4.249,4.249,0,0,0-1.539-.559,7.277,7.277,0,0,1-1.742-.562,2.479,2.479,0,0,1-.953-.781,1.869,1.869,0,0,1-.309-1.078,2.193,2.193,0,0,1,.879-1.758,3.432,3.432,0,0,1,2.246-.719,3.532,3.532,0,0,1,2.332.742,2.357,2.357,0,0,1,.895,1.9H55.211a1.3,1.3,0,0,0-.5-1.023,1.888,1.888,0,0,0-1.27-.43,1.976,1.976,0,0,0-1.234.344,1.082,1.082,0,0,0-.445.9.877.877,0,0,0,.414.789,5.1,5.1,0,0,0,1.5.508,7.8,7.8,0,0,1,1.754.578,2.558,2.558,0,0,1,1,.809,1.988,1.988,0,0,1,.324,1.152,2.163,2.163,0,0,1-.906,1.816,3.8,3.8,0,0,1-2.352.684,4.257,4.257,0,0,1-1.8-.359,2.922,2.922,0,0,1-1.223-1,2.42,2.42,0,0,1-.441-1.395h1.445a1.5,1.5,0,0,0,.582,1.152,2.258,2.258,0,0,0,1.434.426,2.331,2.331,0,0,0,1.316-.332A1.02,1.02,0,0,0,55.3,19.758ZM60.586,11.5v2.047h1.578v1.117H60.586v5.249a1.173,1.173,0,0,0,.211.763.888.888,0,0,0,.719.254,3.5,3.5,0,0,0,.688-.094V22a4.215,4.215,0,0,1-1.109.155,1.8,1.8,0,0,1-1.461-.586,2.517,2.517,0,0,1-.492-1.664V14.664H57.6V13.547h1.539V11.5ZM69.07,22a3.036,3.036,0,0,1-.2-.891,3.225,3.225,0,0,1-2.406,1.047,2.984,2.984,0,0,1-2.051-.707,2.287,2.287,0,0,1-.8-1.793,2.39,2.39,0,0,1,1-2.051,4.733,4.733,0,0,1,2.824-.73h1.406v-.664A1.623,1.623,0,0,0,68.391,15a1.821,1.821,0,0,0-1.336-.449,2.108,2.108,0,0,0-1.3.391,1.151,1.151,0,0,0-.523.945H63.781a2,2,0,0,1,.449-1.223,3.066,3.066,0,0,1,1.219-.934,4.1,4.1,0,0,1,1.691-.344,3.342,3.342,0,0,1,2.289.73,2.635,2.635,0,0,1,.859,2.012v3.891a4.757,4.757,0,0,0,.3,1.852V22Zm-2.4-1.1a2.54,2.54,0,0,0,1.289-.352,2.127,2.127,0,0,0,.883-.914V17.9H67.711q-2.656,0-2.656,1.555a1.316,1.316,0,0,0,.453,1.063A1.742,1.742,0,0,0,66.672,20.9Zm9.969-6.055a4.331,4.331,0,0,0-.711-.055A1.9,1.9,0,0,0,74,16v6H72.555V13.547h1.406l.023.977A2.251,2.251,0,0,1,76,13.391a1.477,1.477,0,0,1,.641.109Zm10.211,4.914a1.064,1.064,0,0,0-.441-.91,4.249,4.249,0,0,0-1.539-.559,7.277,7.277,0,0,1-1.742-.562,2.478,2.478,0,0,1-.953-.781,1.869,1.869,0,0,1-.309-1.078,2.193,2.193,0,0,1,.879-1.758,3.432,3.432,0,0,1,2.246-.719,3.532,3.532,0,0,1,2.332.742,2.357,2.357,0,0,1,.895,1.9H86.766a1.3,1.3,0,0,0-.5-1.023,1.888,1.888,0,0,0-1.27-.43,1.976,1.976,0,0,0-1.234.344,1.082,1.082,0,0,0-.445.9.877.877,0,0,0,.414.789,5.1,5.1,0,0,0,1.5.508,7.8,7.8,0,0,1,1.754.578,2.558,2.558,0,0,1,1,.809,1.988,1.988,0,0,1,.324,1.152,2.163,2.163,0,0,1-.906,1.816,3.8,3.8,0,0,1-2.352.684,4.257,4.257,0,0,1-1.8-.359,2.922,2.922,0,0,1-1.223-1,2.42,2.42,0,0,1-.441-1.395h1.445a1.5,1.5,0,0,0,.582,1.152,2.258,2.258,0,0,0,1.434.426,2.331,2.331,0,0,0,1.316-.332A1.02,1.02,0,0,0,86.852,19.758ZM95.4,21.164a3.07,3.07,0,0,1-2.477.992,2.628,2.628,0,0,1-2.059-.785,3.4,3.4,0,0,1-.715-2.324v-5.5h1.445v5.461q0,1.922,1.563,1.922a2.163,2.163,0,0,0,2.2-1.234V13.547H96.8V22H95.43ZM4.484,42.977a2.082,2.082,0,0,0,1.352-.469,1.649,1.649,0,0,0,.641-1.172H7.844a2.621,2.621,0,0,1-.5,1.383,3.293,3.293,0,0,1-1.23,1.047,3.55,3.55,0,0,1-1.629.391A3.482,3.482,0,0,1,1.738,43a4.59,4.59,0,0,1-1.02-3.152v-.242a5.089,5.089,0,0,1,.453-2.2,3.451,3.451,0,0,1,1.3-1.492,3.7,3.7,0,0,1,2-.531,3.39,3.39,0,0,1,2.363.852,3.043,3.043,0,0,1,1,2.211H6.477a1.992,1.992,0,0,0-.621-1.348,1.932,1.932,0,0,0-1.379-.527,2.023,2.023,0,0,0-1.707.793,3.724,3.724,0,0,0-.605,2.293v.273a3.65,3.65,0,0,0,.6,2.25A2.033,2.033,0,0,0,4.484,42.977Zm4.6-3.281a4.993,4.993,0,0,1,.488-2.234,3.643,3.643,0,0,1,1.359-1.531,3.7,3.7,0,0,1,1.988-.539,3.565,3.565,0,0,1,2.793,1.2,4.6,4.6,0,0,1,1.066,3.18v.1a5.036,5.036,0,0,1-.473,2.215,3.589,3.589,0,0,1-1.352,1.527,3.743,3.743,0,0,1-2.02.547,3.556,3.556,0,0,1-2.785-1.2A4.575,4.575,0,0,1,9.086,39.8Zm1.453.172a3.616,3.616,0,0,0,.652,2.258,2.211,2.211,0,0,0,3.5-.012,3.955,3.955,0,0,0,.648-2.418,3.61,3.61,0,0,0-.66-2.254,2.1,2.1,0,0,0-1.754-.863,2.075,2.075,0,0,0-1.727.852A3.925,3.925,0,0,0,10.539,39.867Zm9.414-4.32.039.938A3.122,3.122,0,0,1,22.5,35.391a2.417,2.417,0,0,1,2.414,1.359,3.2,3.2,0,0,1,1.1-.984,3.242,3.242,0,0,1,1.6-.375q2.781,0,2.828,2.945V44H28.992V38.422a1.941,1.941,0,0,0-.414-1.355,1.823,1.823,0,0,0-1.391-.449,1.916,1.916,0,0,0-1.336.48,1.949,1.949,0,0,0-.617,1.293V44H23.781V38.461a1.613,1.613,0,0,0-1.8-1.844,1.934,1.934,0,0,0-1.945,1.211V44H18.586V35.547Zm19.8,4.32a5.062,5.062,0,0,1-.883,3.109,2.829,2.829,0,0,1-2.391,1.18,3.1,3.1,0,0,1-2.422-.977v4.07H32.617v-11.7h1.32l.07.938a2.977,2.977,0,0,1,2.453-1.094,2.882,2.882,0,0,1,2.41,1.148,5.117,5.117,0,0,1,.887,3.2ZM38.313,39.7a3.735,3.735,0,0,0-.609-2.258,1.963,1.963,0,0,0-1.672-.828,2.125,2.125,0,0,0-1.969,1.164V41.82a2.129,2.129,0,0,0,1.984,1.156,1.954,1.954,0,0,0,1.652-.824A4.077,4.077,0,0,0,38.313,39.7Zm2.9-.008a4.993,4.993,0,0,1,.488-2.234,3.643,3.643,0,0,1,1.359-1.531,3.7,3.7,0,0,1,1.988-.539,3.565,3.565,0,0,1,2.793,1.2,4.6,4.6,0,0,1,1.066,3.18v.1a5.036,5.036,0,0,1-.473,2.215,3.589,3.589,0,0,1-1.352,1.527,3.743,3.743,0,0,1-2.02.547,3.556,3.556,0,0,1-2.785-1.2A4.575,4.575,0,0,1,41.211,39.8Zm1.453.172a3.616,3.616,0,0,0,.652,2.258,2.211,2.211,0,0,0,3.5-.012,3.955,3.955,0,0,0,.648-2.418,3.61,3.61,0,0,0-.66-2.254,2.1,2.1,0,0,0-1.754-.863,2.075,2.075,0,0,0-1.727.852A3.925,3.925,0,0,0,42.664,39.867ZM54.8,36.844a4.331,4.331,0,0,0-.711-.055A1.9,1.9,0,0,0,52.164,38v6H50.719V35.547h1.406l.023.977a2.251,2.251,0,0,1,2.016-1.133,1.477,1.477,0,0,1,.641.109Zm3.68-3.344v2.047h1.578v1.117H58.484v5.249a1.173,1.173,0,0,0,.211.763.888.888,0,0,0,.719.254,3.5,3.5,0,0,0,.688-.094V44a4.215,4.215,0,0,1-1.109.155,1.8,1.8,0,0,1-1.461-.586,2.517,2.517,0,0,1-.492-1.664V36.664H55.5V35.547h1.539V33.5ZM66.969,44a3.036,3.036,0,0,1-.2-.891,3.225,3.225,0,0,1-2.406,1.047,2.984,2.984,0,0,1-2.051-.707,2.287,2.287,0,0,1-.8-1.793,2.39,2.39,0,0,1,1-2.051,4.733,4.733,0,0,1,2.824-.73h1.406v-.664A1.623,1.623,0,0,0,66.289,37a1.821,1.821,0,0,0-1.336-.449,2.107,2.107,0,0,0-1.3.391,1.151,1.151,0,0,0-.523.945H61.68a2,2,0,0,1,.449-1.223,3.066,3.066,0,0,1,1.219-.934,4.1,4.1,0,0,1,1.691-.344,3.342,3.342,0,0,1,2.289.73,2.635,2.635,0,0,1,.859,2.012v3.891a4.757,4.757,0,0,0,.3,1.852V44Zm-2.4-1.1a2.54,2.54,0,0,0,1.289-.352,2.127,2.127,0,0,0,.883-.914V39.9H65.609q-2.656,0-2.656,1.555a1.316,1.316,0,0,0,.453,1.063A1.742,1.742,0,0,0,64.57,42.9Zm7.242-7.352.039.938a3.122,3.122,0,0,1,2.508-1.094,2.417,2.417,0,0,1,2.414,1.359,3.2,3.2,0,0,1,1.1-.984,3.242,3.242,0,0,1,1.6-.375q2.781,0,2.828,2.945V44H80.852V38.422a1.941,1.941,0,0,0-.414-1.355,1.823,1.823,0,0,0-1.391-.449,1.916,1.916,0,0,0-1.336.48,1.949,1.949,0,0,0-.617,1.293V44H75.641V38.461a1.613,1.613,0,0,0-1.8-1.844,1.934,1.934,0,0,0-1.945,1.211V44H70.445V35.547ZM86.047,44H84.6V35.547h1.445ZM84.484,33.3a.863.863,0,0,1,.215-.594.807.807,0,0,1,.637-.242.819.819,0,0,1,.641.242.854.854,0,0,1,.219.594.826.826,0,0,1-.219.586.834.834,0,0,1-.641.234.821.821,0,0,1-.637-.234A.834.834,0,0,1,84.484,33.3Zm7.383,10.852a3.693,3.693,0,0,1-2.8-1.129,4.19,4.19,0,0,1-1.078-3.02v-.266a5.073,5.073,0,0,1,.48-2.246,3.748,3.748,0,0,1,1.344-1.547,3.378,3.378,0,0,1,1.871-.559,3.166,3.166,0,0,1,2.563,1.086,4.7,4.7,0,0,1,.914,3.109v.6H89.438a3,3,0,0,0,.73,2.02,2.3,2.3,0,0,0,1.777.77,2.517,2.517,0,0,0,1.3-.312,3.259,3.259,0,0,0,.93-.828l.883.688A3.55,3.55,0,0,1,91.867,44.156Zm-.18-7.578a1.928,1.928,0,0,0-1.469.637A3.1,3.1,0,0,0,89.484,39h4.234v-.109a2.753,2.753,0,0,0-.594-1.707A1.815,1.815,0,0,0,91.688,36.578ZM98.2,35.547l.047,1.063a3.08,3.08,0,0,1,2.531-1.219q2.68,0,2.7,3.023V44h-1.445V38.406a1.946,1.946,0,0,0-.418-1.352,1.675,1.675,0,0,0-1.277-.437,2.086,2.086,0,0,0-1.234.375,2.546,2.546,0,0,0-.828.984V44H96.836V35.547Zm9.422-2.047v2.047H109.2v1.117h-1.578v5.249a1.173,1.173,0,0,0,.211.763.888.888,0,0,0,.719.254,3.5,3.5,0,0,0,.688-.094V44a4.215,4.215,0,0,1-1.109.155,1.8,1.8,0,0,1-1.461-.586,2.517,2.517,0,0,1-.492-1.664V36.664h-1.539V35.547h1.539V33.5Zm2.727,6.2a4.993,4.993,0,0,1,.488-2.234A3.643,3.643,0,0,1,112.2,35.93a3.7,3.7,0,0,1,1.988-.539,3.565,3.565,0,0,1,2.793,1.2,4.6,4.6,0,0,1,1.066,3.18v.1a5.036,5.036,0,0,1-.473,2.215,3.589,3.589,0,0,1-1.352,1.527,3.743,3.743,0,0,1-2.02.547,3.556,3.556,0,0,1-2.785-1.2,4.575,4.575,0,0,1-1.066-3.164Zm1.453.172a3.616,3.616,0,0,0,.652,2.258,2.211,2.211,0,0,0,3.5-.012A3.955,3.955,0,0,0,116.6,39.7a3.61,3.61,0,0,0-.66-2.254,2.1,2.1,0,0,0-1.754-.863,2.075,2.075,0,0,0-1.727.852A3.925,3.925,0,0,0,111.8,39.867Zm13.383-4.32.047,1.063a3.08,3.08,0,0,1,2.531-1.219q2.68,0,2.7,3.023V44h-1.445V38.406a1.946,1.946,0,0,0-.418-1.352,1.675,1.675,0,0,0-1.277-.437,2.086,2.086,0,0,0-1.234.375,2.546,2.546,0,0,0-.828.984V44H123.82V35.547ZM137.867,44a3.036,3.036,0,0,1-.2-.891,3.225,3.225,0,0,1-2.406,1.047,2.984,2.984,0,0,1-2.051-.707,2.287,2.287,0,0,1-.8-1.793,2.39,2.39,0,0,1,1-2.051,4.733,4.733,0,0,1,2.824-.73h1.406v-.664A1.623,1.623,0,0,0,137.188,37a1.821,1.821,0,0,0-1.336-.449,2.107,2.107,0,0,0-1.3.391,1.151,1.151,0,0,0-.523.945h-1.453a2,2,0,0,1,.449-1.223,3.066,3.066,0,0,1,1.219-.934,4.1,4.1,0,0,1,1.691-.344,3.342,3.342,0,0,1,2.289.73,2.635,2.635,0,0,1,.859,2.012v3.891a4.757,4.757,0,0,0,.3,1.852V44Zm-2.4-1.1a2.54,2.54,0,0,0,1.289-.352,2.127,2.127,0,0,0,.883-.914V39.9h-1.133q-2.656,0-2.656,1.555a1.316,1.316,0,0,0,.453,1.063A1.742,1.742,0,0,0,135.469,42.9Zm7.844-9.4v2.047h1.578v1.117h-1.578v5.249a1.173,1.173,0,0,0,.211.763.888.888,0,0,0,.719.254,3.5,3.5,0,0,0,.688-.094V44a4.215,4.215,0,0,1-1.109.155,1.8,1.8,0,0,1-1.461-.586,2.517,2.517,0,0,1-.492-1.664V36.664h-1.539V35.547h1.539V33.5Zm8.484,9.664a3.07,3.07,0,0,1-2.477.992,2.628,2.628,0,0,1-2.059-.785,3.4,3.4,0,0,1-.715-2.324v-5.5h1.445v5.461q0,1.922,1.563,1.922a2.163,2.163,0,0,0,2.2-1.234V35.547H153.2V44h-1.375Zm7.688-6.32a4.331,4.331,0,0,0-.711-.055A1.9,1.9,0,0,0,156.844,38v6H155.4V35.547H156.8l.023.977a2.251,2.251,0,0,1,2.016-1.133,1.477,1.477,0,0,1,.641.109ZM165.719,44a3.036,3.036,0,0,1-.2-.891,3.225,3.225,0,0,1-2.406,1.047,2.984,2.984,0,0,1-2.051-.707,2.287,2.287,0,0,1-.8-1.793,2.39,2.39,0,0,1,1-2.051,4.733,4.733,0,0,1,2.824-.73h1.406v-.664A1.623,1.623,0,0,0,165.039,37a1.821,1.821,0,0,0-1.336-.449,2.107,2.107,0,0,0-1.3.391,1.151,1.151,0,0,0-.523.945H160.43a2,2,0,0,1,.449-1.223,3.066,3.066,0,0,1,1.219-.934,4.1,4.1,0,0,1,1.691-.344,3.342,3.342,0,0,1,2.289.73,2.635,2.635,0,0,1,.859,2.012v3.891a4.757,4.757,0,0,0,.3,1.852V44Zm-2.4-1.1a2.54,2.54,0,0,0,1.289-.352,2.127,2.127,0,0,0,.883-.914V39.9h-1.133q-2.656,0-2.656,1.555a1.316,1.316,0,0,0,.453,1.063A1.742,1.742,0,0,0,163.32,42.9Zm7.453,1.1h-1.445V32h1.445Z" transform="translate(-8451.818 -3474)" fill="#12263f"/>
    </g>
    <path id="Trazado_814912" data-name="Trazado 814912" d="M-9020.733-3772.357V-3874.55h-19.884" fill="none" stroke="#707070" stroke-width="2"/>
    <path id="Trazado_814913" data-name="Trazado 814913" d="M-8891.724-3644.27h52.253v183.578" fill="none" stroke="#707070" stroke-width="2"/>
    <path id="Trazado_814914" data-name="Trazado 814914" d="M-9184.432-3605.428h-60.576v136.874" fill="none" stroke="#707070" stroke-width="2"/>
  </g>
</svg>
