<svg xmlns="http://www.w3.org/2000/svg" width="127.048" height="110.027" viewBox="0 0 127.048 110.027">
  <g id="Grupo_262700" data-name="Grupo 262700" transform="translate(-421.476 -8665.974)">
    <path id="Trazado_281426" data-name="Trazado 281426" d="M126.868,17.5H63.344L31.582,72.51l31.762,55.014h63.524L158.63,72.51Z" transform="translate(389.894 8648.477)" fill="#e2e8ec"/>
    <path id="Trazado_281432" data-name="Trazado 281432" d="M69.332,87.549a9.274,9.274,0,0,0,.512-2.177,17.537,17.537,0,0,1,5.08-8.67,1.239,1.239,0,0,0,.352-1.184c-.068-.6.12-.86.749-.757a3.5,3.5,0,0,0,.691-.024c.492.13,1.2-.219,1.446.159s.046,1.033.09,1.563a2.259,2.259,0,0,1-.854,2.007,14.768,14.768,0,0,0-.021,22.333,14.17,14.17,0,0,0,9.789,3.68,9.327,9.327,0,0,0,2.416-.188c5.762-1.107,9.766-4.39,11.633-9.943A14.025,14.025,0,0,0,97.88,79.435c-1.212-1.283-2.129-2.436-1.8-4.254.062-.347-.119-.429-.438-.419-.833.027-1.668.026-2.5.037-1.293-.01-2.586-.045-3.879-.019-.5.01-.639-.149-.607-.627a12.819,12.819,0,0,0,0-1.731c-.031-.471.1-.638.6-.626,1.292.03,2.586,0,3.88-.01.852.007,1.7,0,2.557.028.292.008.4-.066.4-.381-.022-.737-.021-1.475,0-2.212.009-.317-.116-.385-.4-.376-.851.025-1.7.028-2.554.039-1.293-.011-2.586-.038-3.879-.025-.434,0-.63-.091-.6-.573a13.892,13.892,0,0,0,0-1.87c-.032-.483.164-.578.6-.574,1.293.014,2.586-.013,3.879-.025.851.012,1.7.015,2.554.04.286.008.411-.06.4-.376-.02-.737-.021-1.476,0-2.213.009-.314-.1-.388-.4-.38-.852.023-1.705.021-2.557.028-1.271-.007-2.542-.048-3.811-.007-.57.018-.708-.176-.669-.7a11.244,11.244,0,0,0,0-1.662c-.034-.479.111-.637.608-.626,1.293.025,2.586-.011,3.879-.021.835.01,1.67.009,2.5.037.324.011.453-.078.442-.424-.023-.718-.023-1.439,0-2.157.011-.345-.117-.435-.442-.424-.834.027-1.669.026-2.5.036H87.175c-1.228-.013-2.459.011-3.685-.052-.646-.033-.8.17-.8.8.023,7.1.008,14.2.024,21.3a1.845,1.845,0,0,1-.975,1.773,9.17,9.17,0,0,0-2.827,2.541,9.9,9.9,0,0,0-1.906,8.256,5.667,5.667,0,0,0,.565,2.063,10.365,10.365,0,0,0,9.609,6.384,10.1,10.1,0,0,0,7.155-2.878,9.459,9.459,0,0,0,2.988-5.576,3.7,3.7,0,0,0,.137-.536,9.966,9.966,0,0,0-4.268-9.8,3.042,3.042,0,0,1-1.574-3.205c.01-.069,0-.14,0-.209.037-.5-.217-1.162.11-1.463.273-.252.919-.1,1.4-.124.472.1,1.129-.214,1.383.146.231.328.1.944.054,1.425a1.139,1.139,0,0,0,.586,1.132,13.385,13.385,0,0,1-7.989,24.093c-.739-.064-1.485-.08-2.214-.2a13.359,13.359,0,0,1-5.729-23.928,1.174,1.174,0,0,0,.536-1.087q-.021-14.616-.009-29.232a9.621,9.621,0,0,1,.106-1.872c.711-3.606,3.412-5.875,7.31-6.138a7.394,7.394,0,0,1,6.746,4.363c.571,1.172.545,1.184-.729,1.526a.9.9,0,0,0-.179.094,4.913,4.913,0,0,0-.811.177c-.5.2-.721.084-.952-.447a4.23,4.23,0,0,0-4.074-2.706,4.4,4.4,0,0,0-4.45,4.291c-.036,1.873,0,3.748-.017,5.621,0,.335.047.494.442.484,1.341-.031,2.682-.024,4.023-.032h5.992c.831.007,1.663,0,2.493.028.317.01.45-.061.437-.412-.027-.715-.017-1.432,0-2.148,0-.275-.036-.424-.369-.411-.853.032-1.707.029-2.561.04-1.316-.011-2.632-.039-3.948-.025-.415.005-.576-.1-.553-.537a18.483,18.483,0,0,0,0-1.941c-.023-.436.137-.541.553-.537,1.315.015,2.632-.012,3.948-.023.508.012,1.016.031,1.524.033,1.493,0,1.493,0,1.267-1.512a8.9,8.9,0,0,0-8.778-7.372,3.068,3.068,0,0,0-.344-.021,8.909,8.909,0,0,0-8.574,9c-.01,5.356,0,10.712,0,16.069,0,.529.158,1.185-.094,1.552s-.95.027-1.442.147c-.45-.105-1.057.183-1.329-.13-.29-.333-.087-.931-.088-1.412-.007-5.407-.022-10.814,0-16.221a11.86,11.86,0,0,1,23.7-.761c.133,5.381.04,10.767.045,16.151q0,6.091-.009,12.183a1.392,1.392,0,0,0,.455,1.083c5.106,5.176,6.816,11.332,4.619,18.252-2.149,6.769-6.974,10.792-13.962,12.192-.388.077-.825-.041-1.168.249h-3.9c-.191-.268-.5-.179-.753-.224A17.811,17.811,0,0,1,69.676,93.168a3.811,3.811,0,0,0-.344-1.439Z" transform="translate(389.894 8648.477)" fill="#020202"/>
    <path id="Trazado_281433" data-name="Trazado 281433" d="M129.75,56.972a8.132,8.132,0,0,1,.48,2.923,3.586,3.586,0,0,1-.692.03c-.577-.081-.856.1-.832.728a2.96,2.96,0,0,1-.252,1.284,13.077,13.077,0,0,1-3.673.957,8.455,8.455,0,0,1-5.16-1.348,8.309,8.309,0,0,1-4.067-6.228,7.391,7.391,0,0,1,12.219.879c.232.389.269,1.035.669,1.136.381.1.868-.224,1.308-.361" transform="translate(389.894 8648.477)" fill="#fdd547"/>
    <path id="Trazado_281434" data-name="Trazado 281434" d="M129.75,56.972c-.44.137-.927.458-1.308.361-.4-.1-.437-.747-.669-1.136a7.391,7.391,0,0,0-12.219-.879,6.6,6.6,0,0,0-1.5,3.148c-.1.467,0,1.122-.275,1.368s-.918.1-1.4.133c-.115-.011-.229-.03-.344-.032-1.164-.018-1.164-.017-1.044-1.162a10.41,10.41,0,0,1,19.918-2.946c.213.5.172.744-.392.848a4.308,4.308,0,0,0-.772.3" transform="translate(389.894 8648.477)" fill="#040302"/>
    <path id="Trazado_281435" data-name="Trazado 281435" d="M112.384,59.967c.481-.028,1.116.118,1.4-.133s.174-.9.275-1.367a6.591,6.591,0,0,1,1.5-3.149,8.314,8.314,0,0,0,4.066,6.229,8.466,8.466,0,0,0,5.161,1.347,13.062,13.062,0,0,0,3.672-.957,7.331,7.331,0,0,1-6.186,5.357,7.483,7.483,0,0,1-7.322-3.576c-.247-.411-.293-1.087-.71-1.2-.392-.108-.907.226-1.368.366a10.97,10.97,0,0,1-.483-2.915" transform="translate(389.894 8648.477)" fill="#fdb03b"/>
    <path id="Trazado_281436" data-name="Trazado 281436" d="M112.868,62.882c.461-.14.975-.474,1.368-.366.416.115.463.791.71,1.2a7.485,7.485,0,0,0,7.322,3.577,7.334,7.334,0,0,0,6.186-5.358,2.929,2.929,0,0,0,.252-1.284c-.023-.631.256-.808.833-.727a9.068,9.068,0,0,1,1.452,0c.674-.108.793.187.738.8a10.411,10.411,0,0,1-19.735,3.769c-.535-1.069-.534-1.068.559-1.464.108-.039.21-.1.315-.143" transform="translate(389.894 8648.477)" fill="#020202"/>
    <path id="Trazado_281437" data-name="Trazado 281437" d="M113.946,69.4c-.111.117-.2.22-.3.317-1.178,1.179-2.367,2.347-3.527,3.543-.292.3-.452.253-.706-.023-.455-.492-.935-.963-1.424-1.422-.246-.231-.294-.385-.019-.653,1.21-1.178,2.4-2.38,3.593-3.574.16-.16.284-.366.547-.086.538.574,1.107,1.117,1.662,1.676a2.3,2.3,0,0,1,.173.222" transform="translate(389.894 8648.477)" fill="#070707"/>
    <path id="Trazado_281438" data-name="Trazado 281438" d="M132.84,46.336c.19-.011.25.138.342.228.512.5,1,1.03,1.531,1.513.268.244.208.378-.016.6-1.2,1.187-2.4,2.38-3.579,3.59-.263.27-.416.245-.655-.01-.491-.523-1.006-1.023-1.518-1.526-.166-.162-.257-.279-.037-.495,1.254-1.234,2.493-2.483,3.738-3.726.065-.065.136-.121.194-.172" transform="translate(389.894 8648.477)" fill="#070707"/>
    <path id="Trazado_281439" data-name="Trazado 281439" d="M113.937,50.458c-.064.09-.1.148-.144.2s-.1.1-.146.149c-.578.566-1.118,1.532-1.743,1.59s-1.154-.985-1.731-1.538c-.719-.688-1.4-1.417-2.12-2.1-.287-.273-.383-.445-.031-.754.521-.456,1-.964,1.477-1.468.2-.212.326-.235.547-.011,1.216,1.239,2.45,2.461,3.677,3.69.077.076.143.163.214.245" transform="translate(389.894 8648.477)" fill="#040302"/>
    <path id="Trazado_281440" data-name="Trazado 281440" d="M134.963,71.49c-.108.115-.184.2-.264.282-.507.507-1.031,1-1.515,1.528-.246.268-.39.2-.608-.019q-1.8-1.829-3.63-3.634c-.209-.206-.23-.323,0-.535.54-.506,1.061-1.033,1.569-1.571.214-.227.346-.2.553.009,1.219,1.236,2.451,2.459,3.677,3.687.075.076.141.161.222.253" transform="translate(389.894 8648.477)" fill="#020202"/>
    <path id="Trazado_281441" data-name="Trazado 281441" d="M106.5,61.4c-.857,0-1.714-.011-2.57.005-.324.007-.453-.088-.442-.432.023-.717.02-1.435,0-2.153-.009-.315.118-.387.406-.386q2.6.015,5.209,0c.273,0,.358.086.352.355-.015.741-.025,1.483,0,2.222.015.38-.169.4-.459.394-.834-.013-1.667-.005-2.5-.005" transform="translate(389.894 8648.477)" fill="#020202"/>
    <path id="Trazado_281442" data-name="Trazado 281442" d="M122.825,74.781c0,.81-.018,1.621.008,2.431.012.392-.047.605-.516.56a18.8,18.8,0,0,1-2.407-.09c-.015-.761-.039-1.523-.044-2.284-.008-1.042.012-2.085-.01-3.126-.007-.351.072-.49.453-.473.693.031,1.39.036,2.083,0,.4-.021.445.156.439.483-.017.834-.006,1.667-.006,2.5" transform="translate(389.894 8648.477)" fill="#020202"/>
    <path id="Trazado_281443" data-name="Trazado 281443" d="M122.825,45.1c0,.834-.015,1.669.007,2.5.009.332-.087.441-.425.429-.718-.024-1.437-.021-2.155,0-.306.008-.395-.094-.393-.4q.02-2.571,0-5.143c0-.306.1-.43.4-.388a1.29,1.29,0,0,0,.139,0c.785.01,1.82-.279,2.286.112.484.406.1,1.479.143,2.259.012.207,0,.416,0,.625" transform="translate(389.894 8648.477)"/>
    <path id="Trazado_281444" data-name="Trazado 281444" d="M136.128,61.4c-.811,0-1.623-.018-2.433.008-.368.013-.479-.1-.465-.467.028-.694.026-1.39,0-2.085-.013-.34.1-.426.431-.423q2.536.022,5.074,0c.33,0,.442.086.43.425-.025.694-.028,1.391,0,2.085.015.368-.1.476-.466.465-.857-.026-1.715-.008-2.572-.008" transform="translate(389.894 8648.477)"/>
    <path id="Trazado_281445" data-name="Trazado 281445" d="M76.713,68.816c.489.12,1.191-.206,1.434.144s.094,1.016.1,1.542c.006,1.288,0,1.288-1.256,1.305-.091,0-.183.014-.274.022-1.426-.068-1.436-.068-1.421-1.5.006-.476-.214-1.1.1-1.385.26-.239.867-.1,1.321-.129" transform="translate(389.894 8648.477)"/>
    <path id="Trazado_281446" data-name="Trazado 281446" d="M77.007,91.588a9.9,9.9,0,0,1,1.906-8.256,9.17,9.17,0,0,1,2.827-2.541,1.846,1.846,0,0,0,.975-1.774c-.016-7.1,0-14.2-.024-21.3,0-.634.153-.836.8-.8,1.226.063,2.457.039,3.685.051q-.006,3.2-.012,6.4-.006,16.9-.011,33.8c-.317-.046-.634-.116-.953-.134A11.317,11.317,0,0,1,78.977,93.8c-.731-.678-1.271-1.513-1.97-2.212" transform="translate(389.894 8648.477)" fill="#d0093a"/>
    <path id="Trazado_281447" data-name="Trazado 281447" d="M87.152,97.162q.006-16.9.011-33.8,0-3.2.012-6.4H93.14q0,1.465,0,2.932c-1.293.011-2.587.046-3.879.021-.5-.01-.642.147-.608.625a11.257,11.257,0,0,1,0,1.663c-.039.523.1.717.669.7,1.269-.04,2.54,0,3.811.008q0,1.45-.005,2.9c-1.292.011-2.586.038-3.878.025-.435,0-.63.091-.6.573a13.907,13.907,0,0,1,0,1.871c-.032.482.163.577.6.573,1.292-.013,2.586.014,3.879.025q0,1.45,0,2.9c-1.294.008-2.588.041-3.881.011-.5-.012-.631.155-.6.625a12.834,12.834,0,0,1,0,1.732c-.032.477.109.637.607.627,1.293-.026,2.586.008,3.88.019q0,.721-.008,1.445c-.481.026-1.127-.128-1.4.123-.327.3-.074.961-.11,1.464-.005.069.008.14,0,.208a3.041,3.041,0,0,0,1.574,3.205,9.968,9.968,0,0,1,4.267,9.8,3.7,3.7,0,0,1-.137.536A25.052,25.052,0,0,1,95.6,93.645a12.384,12.384,0,0,1-8.42,3.513Zm4.521-10.891a1.875,1.875,0,0,0-2,2.065,4.294,4.294,0,0,0,3.72,3.811,1.9,1.9,0,0,0,2.159-2.112,4.165,4.165,0,0,0-3.877-3.764m3.888-1.056a2.1,2.1,0,0,0-1.919-1.948,1.018,1.018,0,0,0-1.014,1.215,2.26,2.26,0,0,0,1.757,1.761.979.979,0,0,0,1.176-1.028" transform="translate(389.894 8648.477)" fill="#fc636e"/>
    <path id="Trazado_281448" data-name="Trazado 281448" d="M87.164,53.954c-1.341.008-2.683,0-4.023.032-.4.009-.445-.149-.442-.484.014-1.874-.02-3.748.016-5.621a4.4,4.4,0,0,1,4.45-4.292q0,5.182,0,10.365" transform="translate(389.894 8648.477)" fill="#cbd0df"/>
    <path id="Trazado_281449" data-name="Trazado 281449" d="M87.164,53.954q0-5.182,0-10.365A4.233,4.233,0,0,1,91.24,46.3c.231.531.452.644.952.446a4.9,4.9,0,0,1,.81-.176l.15,1.423c-1.316.01-2.632.038-3.948.023-.416-.005-.576.1-.553.538a18.464,18.464,0,0,1,0,1.94c-.023.437.139.541.554.537,1.315-.014,2.632.013,3.948.025q0,1.451,0,2.9H87.164" transform="translate(389.894 8648.477)" fill="#dadfe9"/>
    <path id="Trazado_281450" data-name="Trazado 281450" d="M77.007,91.588c.7.7,1.239,1.534,1.97,2.212A11.317,11.317,0,0,0,86.2,97.028c.319.018.636.088.953.134l.024,0q0,1.438,0,2.877a10.364,10.364,0,0,1-9.609-6.385,5.677,5.677,0,0,1-.565-2.062" transform="translate(389.894 8648.477)" fill="#a10134"/>
    <path id="Trazado_281451" data-name="Trazado 281451" d="M87.181,100.035q0-1.439,0-2.877a12.379,12.379,0,0,0,8.42-3.513,25.052,25.052,0,0,0,1.727-2.064,9.454,9.454,0,0,1-2.988,5.576,10.1,10.1,0,0,1-7.154,2.878" transform="translate(389.894 8648.477)" fill="#ed3048"/>
    <path id="Trazado_281452" data-name="Trazado 281452" d="M93.153,47.989,93,46.566a.941.941,0,0,1,.18-.1c1.273-.341,1.3-.353.728-1.525a7.394,7.394,0,0,0-6.746-4.363q0-.721,0-1.445a8.9,8.9,0,0,1,8.778,7.373c.226,1.512.226,1.515-1.267,1.511-.508,0-1.016-.022-1.524-.033" transform="translate(389.894 8648.477)" fill="#f1f4f9"/>
    <path id="Trazado_281453" data-name="Trazado 281453" d="M93.156,53.954l0-2.9c.854-.012,1.708-.009,2.561-.041.333-.012.374.136.369.411-.014.716-.024,1.433,0,2.148.013.352-.12.422-.437.413-.83-.026-1.662-.021-2.493-.029" transform="translate(389.894 8648.477)" fill="#f6f9fe"/>
    <path id="Trazado_281454" data-name="Trazado 281454" d="M91.673,86.271a4.166,4.166,0,0,1,3.878,3.764,1.9,1.9,0,0,1-2.16,2.112,4.293,4.293,0,0,1-3.719-3.811,1.874,1.874,0,0,1,2-2.065" transform="translate(389.894 8648.477)" fill="#f6f9fe"/>
    <path id="Trazado_281455" data-name="Trazado 281455" d="M95.561,85.215a.979.979,0,0,1-1.176,1.028,2.26,2.26,0,0,1-1.757-1.761,1.018,1.018,0,0,1,1.014-1.215,2.1,2.1,0,0,1,1.919,1.948" transform="translate(389.894 8648.477)" fill="#f1f4f9"/>
  </g>
</svg>
