<svg xmlns="http://www.w3.org/2000/svg" width="127.048" height="110.027" viewBox="0 0 127.048 110.027">
  <g id="Grupo_262701" data-name="Grupo 262701" transform="translate(-418.391 -8811.061)">
    <path id="Trazado_281427" data-name="Trazado 281427" d="M123.784,162.584H60.26L28.5,217.6,60.26,272.611h63.524L155.546,217.6Z" transform="translate(389.894 8648.477)" fill="#e2e8ec"/>
    <path id="Trazado_281456" data-name="Trazado 281456" d="M124.877,250.4H61.806a2.483,2.483,0,0,1-1.2-2.508c.046-3.175.014-6.351.018-9.527,0-.968.143-1.157,1.042-1.461.886.3,1.046.515,1.05,1.463.006,1.437.028,2.875-.012,4.312-.015.557.161.691.7.687,3.477-.023,6.954-.028,10.431,0,.612.006.708-.2.705-.752-.022-4.034-.01-8.068-.014-12.1,0-.532.167-1.209-.094-1.555-.283-.376-1-.083-1.519-.134-.023,0-.047,0-.07,0a1.928,1.928,0,0,1-1.991-2.033c-.013-.835-.005-1.669,0-2.5,0-1.575.719-2.3,2.283-2.3,4.033,0,8.066.012,12.1-.013.784-.005,1.3.235,1.492,1.02-.3.932-.5,1.081-1.5,1.082-3.9,0-7.791.009-11.686-.012-.483,0-.662.1-.607.6a5.333,5.333,0,0,1,0,1.25c-.083.645.1.841.8.838,7.048-.031,14.1-.017,21.146-.02,1.461,0,2.921-.015,4.381-.024.276.009.553.039.827.022.68-.041,1.635.309,1.968-.146s.085-1.37.116-2.081c.014-.326-.086-.448-.424-.437-.829.027-1.658.022-2.488.03l-8.394-.023c-1,0-1.2-.154-1.494-1.081a1.161,1.161,0,0,1,1.211-1.013c3.892.009,7.785,0,11.678.01a1.88,1.88,0,0,1,1.973,1.833,28.4,28.4,0,0,1-.005,3.2,1.882,1.882,0,0,1-1.933,1.8c-.44.015-.881.021-1.321,0-.333-.016-.438.109-.438.439q.012,6.814,0,13.627c0,.305.062.473.417.47,3.01-.021,6.021-.03,9.032-.043.579.012,1.161-.009,1.736.045.531.049.655-.144.653-.658q-.024-10.619-.006-21.235a1.616,1.616,0,0,0-.258-.912q-3.389-5.345-6.755-10.705a3.048,3.048,0,0,0-1.194-1.122Q96.074,204.462,88,200.168a.841.841,0,0,0-.895-.008q-8.043,4.269-16.1,8.508a3.292,3.292,0,0,0-1.3,1.211q-3.34,5.336-6.713,10.65a1.253,1.253,0,0,0-.275.7c.018,1.229.029,2.457.042,3.686-.015.276-.043.551-.043.827,0,2.353,0,4.707,0,7.06,0,.942-.171,1.161-1.053,1.449a1.213,1.213,0,0,1-1.048-1.394c.019-2.621.01-5.243,0-7.864a1.224,1.224,0,0,0-.09-.758c-.085.053-.159.1-.231.145a3.37,3.37,0,0,1-4.392-.314c-1.138-1.133-1.219-2.546-.233-4.11q4.518-7.167,9.03-14.339a4.609,4.609,0,0,1,1.795-1.686c6.522-3.446,13.049-6.883,19.552-10.365a2.835,2.835,0,0,1,2.989,0c3.1,1.7,6.244,3.328,9.373,4.978.151.079.292.249.546.135,0-1.857.006-3.731,0-5.6a14.624,14.624,0,0,1,.2-2.7,13.662,13.662,0,0,1,26.619-1.265,11.155,11.155,0,0,0,.5,1.969v58.068a2.929,2.929,0,0,1-1.392,1.253m-14.9-2.111c.67.008,1.339,0,2.008.029.311.013.393-.1.385-.4q-.026-1.038,0-2.079c.006-.3-.1-.412-.4-.4-.667.028-1.335.035-2,.051-3.01-.014-6.021-.025-9.031-.049-.368,0-.408.178-.4.473.014.649.027,1.3,0,1.947-.019.386.135.456.481.454,2.988-.018,5.977-.021,8.965-.028m10.583-27.7c1.064.01,2.128.009,3.192.035.323.008.437-.075.436-.42q-.018-5.451,0-10.9c0-.344-.113-.427-.436-.419-1.064.026-2.128.025-3.192.035h-8.106c.157.252.275.443.395.632,2.208,3.5,4.427,6.992,6.61,10.507.289.465.581.67,1.1.534M92.011,233.1l4.735-4.225H78.339l4.77,4.245c1.369,1.248,2.746,2.489,4.1,3.753.279.26.453.2.692-.023q2.047-1.881,4.109-3.75m28.54,1.332c1.088.015,2.177.021,3.264.05.336.009.37-.158.369-.427q-.007-5.464,0-10.928c0-.334-.1-.439-.434-.431-1.065.027-2.132.026-3.2.035-.361-.089-.617-.028-.732.391a1.922,1.922,0,0,1-.352.591c-1.1,1.463-2.9,1.7-4.76.644l-.187-.148c-.017.051-.033.1-.05.152q-.012,4.83-.027,9.659c0,.3.051.466.412.461,1.9-.028,3.794-.035,5.692-.049m.011,2.172c-1.9-.012-3.8-.015-5.693-.042-.423-.007-.421.224-.42.528q.006,5.351,0,10.7c0,.369.064.532.486.526,1.875-.029,3.75-.025,5.626-.032,1.066.007,2.133,0,3.2.029.339.008.429-.112.428-.439q-.013-5.43,0-10.86c0-.316-.078-.459-.425-.45-1.065.027-2.132.028-3.2.039m-25.208-3.617c-1.97,1.76-3.933,3.528-5.915,5.274-.379.333-.136.483.094.69q3.257,2.934,6.51,5.871c.764.689,1.531,1.375,2.4,2.158,0-.5,0-.844,0-1.186q-.015-6.4-.031-12.8v-2.84l-3.062,2.835m-18.7.027a3.359,3.359,0,0,0-.034.345q0,6.575,0,13.15c0,.108.012.217.02.362a.893.893,0,0,0,.228-.088q4.4-3.957,8.79-7.91c.312-.279.211-.421-.039-.643q-2.934-2.611-5.855-5.239l-3.154-2.912a23.282,23.282,0,0,0,.046,2.935m36.525-51.788a9.523,9.523,0,0,0-2.218.086,11.635,11.635,0,0,0-9.919,10.918c-.017.6.162.714.725.712,6.056-.021,12.112-.012,18.168-.014.208,0,.415-.023.623-.035,1.063.011,2.126.013,3.189.039.332.008.442-.106.431-.439a12.887,12.887,0,0,0-.286-2.267c-1.056-4.991-5.837-9.005-10.713-9m7.372,25.54c1.062.01,2.125.011,3.187.035.315.007.448-.065.447-.415q-.018-5.481,0-10.961c0-.284-.066-.42-.383-.411-1.085.028-2.169.034-3.254.049-.832-.013-1.665-.039-2.5-.039-5.445,0-10.891.007-16.336-.016-.56,0-.695.16-.678.7.039,1.2.034,2.41,0,3.614a.845.845,0,0,0,.528.908c1.995,1.021,3.955,2.112,5.96,3.112a6.578,6.578,0,0,1,3.346,3.074.57.57,0,0,0,.578.39c3.034-.022,6.069-.026,9.1-.035M58.26,222.95a1.551,1.551,0,0,0,1.3-.881c2.639-4.2,5.323-8.368,7.914-12.594a8.167,8.167,0,0,1,3.351-3.1q7.741-4,15.415-8.134a2.454,2.454,0,0,1,2.591-.007q7.924,4.251,15.9,8.41a6.493,6.493,0,0,1,2.606,2.408c2.728,4.388,5.5,8.749,8.258,13.117a1.315,1.315,0,0,0,1.886.582c.622-.386.655-.923.108-1.789q-4.486-7.113-8.968-14.231a3.052,3.052,0,0,0-1.226-1.088q-9.7-5.124-19.4-10.261a.839.839,0,0,0-.9,0q-9.784,5.188-19.581,10.357a2.442,2.442,0,0,0-.975.863q-4.6,7.328-9.222,14.646a.948.948,0,0,0-.114,1.1,1.254,1.254,0,0,0,1.048.6m20.1,25.31H96.736c-3.006-2.711-5.936-5.341-8.848-7.992-.37-.337-.549-.11-.794.111q-2.916,2.636-5.837,5.267c-.94.847-1.877,1.7-2.892,2.614m-9.776.047c1.809,0,3.617-.015,5.426.011.438.006.559-.123.533-.545a12.6,12.6,0,0,1,0-1.738c.04-.513-.167-.607-.632-.6-2.968.019-5.936,0-8.9.014-.737,0-1.711-.31-2.148.117-.478.464-.075,1.451-.159,2.2-.056.5.182.553.6.549,1.762-.019,3.525-.008,5.287-.008" transform="translate(389.894 8648.477)" fill="#030202"/>
    <path id="Trazado_281457" data-name="Trazado 281457" d="M124.877,250.4a2.929,2.929,0,0,0,1.392-1.253c0,.417.133,1.123-.026,1.2a3.5,3.5,0,0,1-1.366.057" transform="translate(389.894 8648.477)" fill="#f8f5f5"/>
    <path id="Trazado_281458" data-name="Trazado 281458" d="M61.67,236.9l0-2.651c.882-.287,1.051-.507,1.053-1.448,0-2.354,0-4.707,0-7.061,0-.275.028-.551.043-.826.168-.058.235-.207.328-.341q4.179-6.093,8.364-12.182a5.171,5.171,0,0,1,1.686-1.625c1.811-1.029,3.645-2.017,5.466-3.028q4.126-2.292,8.245-4.6a1.2,1.2,0,0,1,1.238-.041c4.648,2.315,9.306,4.612,13.954,6.928a4.546,4.546,0,0,1,1.906,1.47q2.653,4.068,5.262,8.167a4.923,4.923,0,0,1,.771,2.7q-.017,10.476,0,20.952-4.517.02-9.032.044c-.355,0-.417-.165-.417-.47q.009-6.813,0-13.627c0-.33.105-.455.438-.439.44.021.881.015,1.321,0a1.881,1.881,0,0,0,1.933-1.8,28.4,28.4,0,0,0,.005-3.2,1.879,1.879,0,0,0-1.973-1.832c-3.893-.013-7.786,0-11.678-.01a1.161,1.161,0,0,0-1.211,1.012H86.727c-.193-.786-.708-1.025-1.492-1.02-4.033.025-8.066.01-12.1.012-1.563,0-2.279.725-2.283,2.3,0,.834-.01,1.669,0,2.5a1.929,1.929,0,0,0,1.991,2.034c.024,0,.047,0,.07,0,.523.05,1.236-.242,1.519.133.261.347.094,1.024.094,1.555,0,4.034-.008,8.068.014,12.1,0,.548-.093.758-.705.753q-5.215-.047-10.43,0c-.54,0-.716-.13-.7-.688.04-1.436.018-2.874.012-4.311,0-.948-.164-1.162-1.05-1.464m25.893-31.836a7.152,7.152,0,1,0,7.122,7.194,7.183,7.183,0,0,0-7.122-7.194" transform="translate(389.894 8648.477)" fill="#fd7f85"/>
    <path id="Trazado_281459" data-name="Trazado 281459" d="M109.984,243.31q0-10.476,0-20.952a4.912,4.912,0,0,0-.771-2.7q-2.606-4.1-5.261-8.167a4.56,4.56,0,0,0-1.906-1.47c-4.648-2.316-9.306-4.612-13.955-6.927a1.193,1.193,0,0,0-1.238.04q-4.112,2.319-8.244,4.6c-1.821,1.012-3.655,2-5.466,3.029a5.18,5.18,0,0,0-1.687,1.624q-4.179,6.093-8.364,12.182c-.092.135-.16.283-.327.341-.014-1.228-.024-2.457-.042-3.685a1.256,1.256,0,0,1,.275-.7q3.361-5.322,6.713-10.649a3.287,3.287,0,0,1,1.3-1.212q8.057-4.239,16.1-8.508a.841.841,0,0,1,.895.008q8.072,4.29,16.154,8.556a3.048,3.048,0,0,1,1.195,1.121q3.365,5.361,6.754,10.706a1.605,1.605,0,0,1,.258.911q-.009,10.617.007,21.235c0,.514-.122.707-.653.658-.575-.053-1.157-.033-1.736-.045" transform="translate(389.894 8648.477)" fill="#e3636d"/>
    <path id="Trazado_281460" data-name="Trazado 281460" d="M120.555,206.764c-3.035.009-6.069.012-9.1.035a.569.569,0,0,1-.577-.39,6.584,6.584,0,0,0-3.347-3.074c-2-1-3.964-2.092-5.959-3.112a.844.844,0,0,1-.528-.908c.033-1.2.038-2.411,0-3.615-.017-.535.118-.7.679-.694,5.445.023,10.89.012,16.335.016.833,0,1.665.025,2.5.039l.006,11.7" transform="translate(389.894 8648.477)" fill="#f8f5f5"/>
    <path id="Trazado_281461" data-name="Trazado 281461" d="M58.261,222.949a1.253,1.253,0,0,1-1.049-.6.95.95,0,0,1,.114-1.1q4.617-7.318,9.222-14.646a2.46,2.46,0,0,1,.976-.863q9.792-5.175,19.581-10.357a.841.841,0,0,1,.895,0q9.691,5.142,19.4,10.262a3.044,3.044,0,0,1,1.226,1.088q4.468,7.125,8.968,14.231c.546.866.514,1.4-.108,1.789a1.315,1.315,0,0,1-1.886-.582c-2.76-4.368-5.53-8.73-8.258-13.118a6.5,6.5,0,0,0-2.606-2.408q-7.971-4.162-15.9-8.41a2.458,2.458,0,0,0-2.592.007q-7.68,4.118-15.415,8.135a8.156,8.156,0,0,0-3.35,3.1c-2.592,4.227-5.275,8.4-7.914,12.594a1.549,1.549,0,0,1-1.3.881" transform="translate(389.894 8648.477)" fill="#fadc7b"/>
    <path id="Trazado_281462" data-name="Trazado 281462" d="M120.562,192.891c-.208.012-.415.035-.623.035-6.056,0-12.112-.006-18.168.014-.563,0-.742-.11-.725-.712a11.633,11.633,0,0,1,9.919-10.917,9.522,9.522,0,0,1,2.218-.087,14.572,14.572,0,0,1,3.5,2.438,12.6,12.6,0,0,1,3.88,9.229" transform="translate(389.894 8648.477)" fill="#fd7f85"/>
    <path id="Trazado_281463" data-name="Trazado 281463" d="M78.365,248.26c1.015-.918,1.952-1.767,2.892-2.614q2.917-2.634,5.837-5.268c.245-.221.424-.447.794-.11,2.912,2.65,5.842,5.281,8.848,7.992Z" transform="translate(389.894 8648.477)" fill="#ce8f7f"/>
    <path id="Trazado_281464" data-name="Trazado 281464" d="M79.766,232.989q2.927,2.62,5.856,5.239c.249.222.35.363.039.642q-4.406,3.943-8.791,7.91a.87.87,0,0,1-.228.089c-.008-.146-.02-.254-.02-.362q0-6.576,0-13.151a3.371,3.371,0,0,1,.035-.344l3.107-.023" transform="translate(389.894 8648.477)" fill="#ce8f7f"/>
    <path id="Trazado_281465" data-name="Trazado 281465" d="M98.417,232.99q.015,6.4.031,12.8v1.186c-.874-.784-1.64-1.47-2.4-2.159q-3.255-2.934-6.509-5.871c-.23-.207-.473-.356-.095-.69,1.983-1.745,3.946-3.513,5.916-5.273l3.062.005" transform="translate(389.894 8648.477)" fill="#ce8f7f"/>
    <path id="Trazado_281466" data-name="Trazado 281466" d="M86.728,222.99h2.64c.291.927.5,1.078,1.5,1.081l8.394.023v2.612c-1.46.008-2.92.023-4.38.024-7.049,0-14.1-.011-21.147.02-.7,0-.879-.193-.8-.838a5.333,5.333,0,0,0,0-1.25c-.055-.5.124-.6.606-.6,3.895.021,7.791.013,11.686.012,1,0,1.2-.15,1.5-1.082" transform="translate(389.894 8648.477)" fill="#f8f5f5"/>
    <path id="Trazado_281467" data-name="Trazado 281467" d="M120.557,248.283c-1.875.007-3.751,0-5.626.032-.421.006-.487-.157-.486-.526q.018-5.351,0-10.7c0-.3,0-.534.42-.528,1.9.027,3.8.03,5.693.042q0,5.841,0,11.681" transform="translate(389.894 8648.477)" fill="#fd7f85"/>
    <path id="Trazado_281468" data-name="Trazado 281468" d="M114.711,224.355c1.861,1.06,3.661.819,4.76-.644a1.91,1.91,0,0,0,.352-.591c.115-.419.371-.48.732-.39q0,5.85,0,11.7c-1.9.014-3.8.021-5.692.049-.361,0-.413-.156-.412-.461q.022-4.83.027-9.659l.237,0" transform="translate(389.894 8648.477)" fill="#f8f5f5"/>
    <path id="Trazado_281469" data-name="Trazado 281469" d="M83.11,233.117l-4.77-4.244H96.746L92.012,233.1a.58.58,0,0,0-.458-.109H83.629c-.182,0-.376-.036-.519.128" transform="translate(389.894 8648.477)" fill="#cb755e"/>
    <path id="Trazado_281470" data-name="Trazado 281470" d="M120.56,220.583c-.521.136-.812-.07-1.1-.534-2.183-3.515-4.4-7.008-6.611-10.507l-.395-.632h8.107v11.673" transform="translate(389.894 8648.477)" fill="#f7f4f4"/>
    <path id="Trazado_281471" data-name="Trazado 281471" d="M120.555,206.764l-.006-11.7c1.085-.015,2.17-.021,3.254-.05.317-.008.384.128.383.412q-.009,5.479,0,10.96c0,.35-.131.423-.446.416-1.063-.025-2.125-.025-3.188-.035" transform="translate(389.894 8648.477)" fill="#d6d3e3"/>
    <path id="Trazado_281472" data-name="Trazado 281472" d="M120.551,234.43q0-5.85,0-11.7c1.066-.009,2.133-.007,3.2-.035.333-.008.434.1.434.431q-.017,5.465,0,10.928c0,.269-.034.436-.369.427-1.088-.029-2.177-.035-3.265-.05" transform="translate(389.894 8648.477)" fill="#d9d6e7"/>
    <path id="Trazado_281473" data-name="Trazado 281473" d="M120.56,220.583V208.91c1.064-.01,2.128-.009,3.192-.035.323-.008.437.075.436.419q-.018,5.452,0,10.9c0,.345-.113.427-.436.419-1.064-.026-2.128-.025-3.192-.034" transform="translate(389.894 8648.477)" fill="#dcd9eb"/>
    <path id="Trazado_281474" data-name="Trazado 281474" d="M120.557,248.283q0-5.841,0-11.681c1.067-.011,2.133-.012,3.2-.039.346-.009.425.134.424.451q-.012,5.428,0,10.859c0,.327-.09.447-.429.439-1.066-.025-2.133-.022-3.2-.029" transform="translate(389.894 8648.477)" fill="#e3636d"/>
    <path id="Trazado_281475" data-name="Trazado 281475" d="M120.562,192.891a12.6,12.6,0,0,0-3.88-9.229,14.572,14.572,0,0,0-3.5-2.438c4.876-.005,9.657,4.009,10.713,9a12.887,12.887,0,0,1,.286,2.267c.011.333-.1.447-.431.439-1.063-.026-2.126-.028-3.189-.039" transform="translate(389.894 8648.477)" fill="#e3636d"/>
    <path id="Trazado_281476" data-name="Trazado 281476" d="M68.589,248.307c-1.762,0-3.525-.011-5.287.008-.414,0-.652-.047-.6-.549.084-.753-.319-1.74.159-2.2.437-.427,1.411-.114,2.148-.117,2.968-.01,5.936,0,8.9-.014.465,0,.672.091.632.6a12.6,12.6,0,0,0,0,1.738c.026.422-.095.551-.533.545-1.809-.026-3.617-.011-5.426-.011" transform="translate(389.894 8648.477)" fill="#f3f0f0"/>
    <path id="Trazado_281477" data-name="Trazado 281477" d="M109.977,248.284c-2.989.007-5.977.01-8.966.028-.345,0-.5-.069-.48-.455.031-.647.017-1.3,0-1.946-.006-.3.034-.476.4-.473,3.01.024,6.02.034,9.031.049l.009,2.8" transform="translate(389.894 8648.477)" fill="#f7f4f4"/>
    <path id="Trazado_281478" data-name="Trazado 281478" d="M83.11,233.117c.143-.164.337-.127.519-.128h7.925a.58.58,0,0,1,.458.109q-2.057,1.873-4.109,3.75c-.239.219-.413.283-.693.022-1.355-1.264-2.731-2.5-4.1-3.753" transform="translate(389.894 8648.477)" fill="#ce8f7f"/>
    <path id="Trazado_281479" data-name="Trazado 281479" d="M99.257,226.707V224.1c.829-.008,1.659,0,2.487-.03.338-.011.438.111.424.437-.03.711.227,1.611-.116,2.08s-1.288.106-1.968.147c-.274.016-.551-.013-.827-.022" transform="translate(389.894 8648.477)" fill="#d9d6e7"/>
    <path id="Trazado_281480" data-name="Trazado 281480" d="M109.977,248.284l-.009-2.8c.667-.016,1.336-.023,2-.051.3-.013.4.1.4.4-.015.693-.016,1.386,0,2.079.008.294-.074.41-.385.4-.669-.027-1.339-.021-2.008-.029" transform="translate(389.894 8648.477)" fill="#d6d3e3"/>
    <path id="Trazado_281481" data-name="Trazado 281481" d="M79.766,232.989l-3.107.023a22.93,22.93,0,0,1-.046-2.936l3.153,2.913" transform="translate(389.894 8648.477)" fill="#a96553"/>
    <path id="Trazado_281482" data-name="Trazado 281482" d="M98.417,232.99l-3.062-.005,3.062-2.835Z" transform="translate(389.894 8648.477)" fill="#cb755e"/>
    <path id="Trazado_281483" data-name="Trazado 281483" d="M114.711,224.355l-.237,0c.017-.05.034-.1.05-.151l.187.147" transform="translate(389.894 8648.477)" fill="#d9d6e7"/>
    <path id="Trazado_281484" data-name="Trazado 281484" d="M87.563,205.062a7.152,7.152,0,1,1-7.173,7.159,7.154,7.154,0,0,1,7.173-7.159M86.449,217.1a1.935,1.935,0,0,0,.39.134,5.079,5.079,0,0,0,5.73-5.677,5,5,0,0,0-6.12-4.22,2.132,2.132,0,0,0-.934.236,5.088,5.088,0,0,0-2.875,5.847,4.832,4.832,0,0,0,3.809,3.68" transform="translate(389.894 8648.477)" fill="#030202"/>
    <path id="Trazado_281485" data-name="Trazado 281485" d="M86.449,217.1a4.832,4.832,0,0,1-3.809-3.68,5.088,5.088,0,0,1,2.875-5.847,2.132,2.132,0,0,1,.934-.236c.309.387.622.772.928,1.162a6.1,6.1,0,0,1,.288,7.04c-.362.565-1,.9-1.216,1.561" transform="translate(389.894 8648.477)" fill="#365d7c"/>
    <path id="Trazado_281486" data-name="Trazado 281486" d="M86.449,217.1c.221-.66.854-1,1.216-1.561a6.1,6.1,0,0,0-.288-7.04c-.306-.39-.619-.775-.928-1.162a5,5,0,0,1,6.12,4.22,5.079,5.079,0,0,1-5.73,5.677,1.935,1.935,0,0,1-.39-.134" transform="translate(389.894 8648.477)" fill="#2b4c65"/>
  </g>
</svg>
