<svg xmlns="http://www.w3.org/2000/svg" width="127.048" height="110.026" viewBox="0 0 127.048 110.026">
  <g id="Grupo_262702" data-name="Grupo 262702" transform="translate(-420.934 -8956.115)">
    <path id="Trazado_281428" data-name="Trazado 281428" d="M126.327,307.638H62.8L31.041,362.651,62.8,417.665h63.524l31.762-55.014Z" transform="translate(389.894 8648.477)" fill="#e2e8ec"/>
    <path id="Trazado_281487" data-name="Trazado 281487" d="M102.926,321.982a4.152,4.152,0,0,1,1.437,1.4c1.538,2.183,3.139,4.324,4.636,6.536a8.005,8.005,0,1,1-13.3.043c1.646-2.407,3.382-4.751,5.063-7.134.264-.374.679-.536.982-.846Zm1.636,5.592c-.624-.9-1.274-1.789-1.863-2.714-.3-.475-.434-.329-.685.026-1.453,2.059-2.926,4.1-4.388,6.155a5.78,5.78,0,1,0,9.851.642,29.864,29.864,0,0,0-2.915-4.109" transform="translate(389.894 8648.477)" fill="#040404"/>
    <path id="Trazado_281488" data-name="Trazado 281488" d="M93.218,349.254c.909-.339,1.219-.246,1.8.556s1.17,1.63,1.8,2.5a18.753,18.753,0,0,1,3.7-3.852,17.251,17.251,0,0,1,7.711-3.384c.955-.159,1.239,0,1.633.906-.047.892-.634,1.162-1.409,1.308a15.368,15.368,0,0,0-3.878,28.969,14.21,14.21,0,0,0,8.131,1.423,6.7,6.7,0,0,0,1.382-.158,15.387,15.387,0,0,0,1.325-29.943,11.613,11.613,0,0,1-2.264-.6,1.534,1.534,0,0,1-.38-1c.35-.867.649-1.039,1.566-.9a17.591,17.591,0,0,1,.518,34.545,16.35,16.35,0,0,1-6.288.161c-.509-.085-.677-.044-.829.515-2.43,8.949-8.03,14.72-17.2,16.648a21.822,21.822,0,0,1-25.6-16.538,21.287,21.287,0,0,1,3.461-17.687c4.934-6.988,9.934-13.929,14.92-20.881a3.524,3.524,0,0,1,6.033.03c.762,1.051,1.491,2.128,2.273,3.165a1.257,1.257,0,0,1-.033,1.835c-.885.318-1.214.227-1.755-.521-.732-1.012-1.449-2.034-2.179-3.048-.9-1.25-1.778-1.252-2.668-.008L70.372,363.743a24.957,24.957,0,0,0-2.181,3.734c-.242.5-.1.672.385.794A3.278,3.278,0,0,0,72,367.342c1.286-1.366,2.149-1.38,3.4-.026a3.24,3.24,0,0,0,4.128.623l.016-.009.126-.058a2.333,2.333,0,0,0,.726-.61c1.167-1.277,2.135-1.269,3.3.029a3.338,3.338,0,0,0,4.954.054c1.281-1.377,2.138-1.382,3.4-.027a3.107,3.107,0,0,0,2.617,1.063,17.6,17.6,0,0,1,.745-13.647.606.606,0,0,0-.11-.717c-.708-.97-1.378-1.967-2.1-2.923a1.278,1.278,0,0,1,.007-1.84M90.8,394.646c.263-.055.531-.091.787-.168,7.54-2.264,12.1-7.337,14.054-14.883.115-.447-.059-.52-.407-.649a17.335,17.335,0,0,1-9.316-7.911.751.751,0,0,0-.858-.446,5.283,5.283,0,0,1-4.362-1.514c-.3-.292-.43-.2-.687.03a5.488,5.488,0,0,1-7.643-.029c-.245-.22-.375-.293-.638-.023a5.437,5.437,0,0,1-7.523.169c-.379-.356-.551-.4-.969-.024a5.314,5.314,0,0,1-5.409,1.144c-.521-.163-.64-.058-.755.436a19.38,19.38,0,0,0,2.009,14.281A19.582,19.582,0,0,0,90.8,394.646" transform="translate(389.894 8648.477)" fill="#030404"/>
    <path id="Trazado_281489" data-name="Trazado 281489" d="M79.534,367.94a3.242,3.242,0,0,1-4.128-.623c-1.256-1.355-2.118-1.34-3.4.025a3.278,3.278,0,0,1-3.425.929c-.482-.121-.628-.29-.386-.794a25.1,25.1,0,0,1,2.182-3.734q7.308-10.22,14.614-20.441c.89-1.245,1.768-1.242,2.668.008.73,1.013,1.447,2.036,2.179,3.048.54.748.869.839,1.755.521.291.566.854.962,1.016,1.61a1.939,1.939,0,0,0-.328.288c-1.17,1.625-2.331,3.257-3.5,4.885-2.049,2.859-4.089,5.724-6.153,8.571a28.154,28.154,0,0,0-2.939,4.9c-.111.245-.269.488-.011.737l-.127.059-.072-.08.057.089" transform="translate(389.894 8648.477)" fill="#bad8fa"/>
    <path id="Trazado_281490" data-name="Trazado 281490" d="M112.7,377.682a14.219,14.219,0,0,1-8.131-1.423,15.369,15.369,0,0,1,3.878-28.969c.775-.146,1.362-.416,1.409-1.308a9.842,9.842,0,0,1,2.908,0,1.523,1.523,0,0,0,.379,1,15.6,15.6,0,0,0-7.626,5.747,4.674,4.674,0,0,0-1.2,2.278L104.3,355l-.195.128a3.957,3.957,0,0,0-1.4,4.809c-.069.1-.183.183-.2.286a14.539,14.539,0,0,0,.009,4.585,16.223,16.223,0,0,0,3.083,7.416,15.958,15.958,0,0,0,7.107,5.455" transform="translate(389.894 8648.477)" fill="#7fb2f9"/>
    <path id="Trazado_281491" data-name="Trazado 281491" d="M79.676,367.872c-.258-.25-.1-.492.011-.737a28.216,28.216,0,0,1,2.939-4.9c2.064-2.847,4.105-5.713,6.153-8.572,1.167-1.628,2.328-3.259,3.5-4.885a1.935,1.935,0,0,1,.328-.287c.321.162.415.5.613.765a1.28,1.28,0,0,0-.007,1.84c.725.956,1.4,1.953,2.1,2.923a.607.607,0,0,1,.111.717,17.6,17.6,0,0,0-.746,13.647,3.109,3.109,0,0,1-2.617-1.063c-1.265-1.355-2.121-1.35-3.4.027a3.337,3.337,0,0,1-4.954-.054c-1.168-1.3-2.136-1.3-3.3-.028a2.315,2.315,0,0,1-.725.609" transform="translate(389.894 8648.477)" fill="#dfeffd"/>
    <path id="Trazado_281492" data-name="Trazado 281492" d="M103.875,339.939a5.764,5.764,0,0,1-6.249-8.9c1.462-2.052,2.935-4.1,4.388-6.154.251-.356.384-.5.686-.027.588.925,1.238,1.812,1.861,2.715-.767,1.072-1.579,2.115-2.287,3.224a6.531,6.531,0,0,0-.433,6.414,9.17,9.17,0,0,0,2.034,2.726" transform="translate(389.894 8648.477)" fill="#b9d8f9"/>
    <path id="Trazado_281493" data-name="Trazado 281493" d="M103.875,339.939a9.17,9.17,0,0,1-2.034-2.726,6.531,6.531,0,0,1,.433-6.414c.708-1.109,1.52-2.152,2.287-3.224a29.631,29.631,0,0,1,2.916,4.108,5.716,5.716,0,0,1-3.6,8.256" transform="translate(389.894 8648.477)" fill="#dfeffd"/>
    <path id="Trazado_281494" data-name="Trazado 281494" d="M78.487,370.618a5.572,5.572,0,0,0,3.248-1.565c.263-.27.392-.2.638.023a5.487,5.487,0,0,0,7.643.029c.257-.232.386-.321.687-.03a5.283,5.283,0,0,0,4.362,1.515.752.752,0,0,1,.858.445,17.337,17.337,0,0,0,9.316,7.912c.348.129.522.2.406.648-1.952,7.546-6.513,12.62-14.053,14.884-.256.076-.525.112-.787.167A17.3,17.3,0,0,1,85,391.009a20.838,20.838,0,0,1-6.958-14.339,23.6,23.6,0,0,1,.446-6.052" transform="translate(389.894 8648.477)" fill="#cae1fd"/>
    <path id="Trazado_281495" data-name="Trazado 281495" d="M112.7,377.683a15.984,15.984,0,0,1-7.107-5.455,16.227,16.227,0,0,1-3.083-7.417,14.5,14.5,0,0,1-.008-4.584c.016-.1.13-.191.2-.286.126.209.242.426.381.626a3.844,3.844,0,0,0,6.558-3.986c-1-1.891-3.027-2.488-5.327-1.57a4.669,4.669,0,0,1,1.2-2.278,15.6,15.6,0,0,1,7.626-5.747,11.581,11.581,0,0,0,2.264.6,15.388,15.388,0,0,1-1.324,29.944,6.78,6.78,0,0,1-1.383.158m3.772-23.384a1.127,1.127,0,0,0-2.19-.375q-3.884,7.948-7.765,15.9a1.115,1.115,0,0,0-.143.848,1.059,1.059,0,0,0,.92.833,1.094,1.094,0,0,0,1.191-.67q3.917-8.015,7.828-16.031a3.13,3.13,0,0,0,.159-.5m3.705,12.035a3.84,3.84,0,1,0-3.834,3.815,3.818,3.818,0,0,0,3.834-3.815" transform="translate(389.894 8648.477)" fill="#9cc4f9"/>
    <path id="Trazado_281496" data-name="Trazado 281496" d="M78.487,370.618a23.6,23.6,0,0,0-.446,6.052A20.838,20.838,0,0,0,85,391.009a17.3,17.3,0,0,0,5.806,3.637,19.58,19.58,0,0,1-21.717-9.586,19.371,19.371,0,0,1-2.009-14.281c.115-.494.234-.6.755-.437a5.314,5.314,0,0,0,5.409-1.143c.418-.374.59-.332.969.023a5.519,5.519,0,0,0,4.275,1.4" transform="translate(389.894 8648.477)" fill="#9cc5f9"/>
    <path id="Trazado_281497" data-name="Trazado 281497" d="M79.534,367.94l-.057-.089.072.08-.015.009" transform="translate(389.894 8648.477)" fill="#dfeffd"/>
    <path id="Trazado_281498" data-name="Trazado 281498" d="M104.316,355.011c2.3-.918,4.324-.321,5.327,1.57a3.844,3.844,0,0,1-6.558,3.986c-.139-.2-.254-.417-.381-.626a3.959,3.959,0,0,1,1.4-4.809L104.3,355Zm1.9,4.988a1.631,1.631,0,0,0,1.668-1.594,1.639,1.639,0,0,0-3.277-.055A1.624,1.624,0,0,0,106.214,360" transform="translate(389.894 8648.477)" fill="#030304"/>
    <path id="Trazado_281499" data-name="Trazado 281499" d="M104.3,355l-.2.127.2-.127" transform="translate(389.894 8648.477)" fill="#9cc4f9"/>
    <path id="Trazado_281500" data-name="Trazado 281500" d="M116.475,354.3a3.153,3.153,0,0,1-.159.5q-3.909,8.019-7.828,16.032a1.1,1.1,0,0,1-1.191.67,1.059,1.059,0,0,1-.92-.833,1.117,1.117,0,0,1,.143-.849q3.878-7.95,7.765-15.9a1.128,1.128,0,0,1,2.19.376" transform="translate(389.894 8648.477)" fill="#030304"/>
    <path id="Trazado_281501" data-name="Trazado 281501" d="M120.18,366.333a3.839,3.839,0,1,1-7.678-.076,3.839,3.839,0,0,1,7.678.076m-2.213-.042a1.609,1.609,0,0,0-1.643-1.6,1.625,1.625,0,1,0,.045,3.249,1.6,1.6,0,0,0,1.6-1.645" transform="translate(389.894 8648.477)" fill="#020304"/>
    <path id="Trazado_281502" data-name="Trazado 281502" d="M106.214,360a1.624,1.624,0,0,1-1.609-1.649,1.639,1.639,0,0,1,3.277.055A1.631,1.631,0,0,1,106.214,360" transform="translate(389.894 8648.477)" fill="#99c1f4"/>
    <path id="Trazado_281503" data-name="Trazado 281503" d="M117.967,366.291a1.6,1.6,0,0,1-1.6,1.645,1.625,1.625,0,1,1-.045-3.249,1.609,1.609,0,0,1,1.643,1.6" transform="translate(389.894 8648.477)" fill="#9ac2f6"/>
  </g>
</svg>
