<svg xmlns="http://www.w3.org/2000/svg" width="127.048" height="110.026" viewBox="0 0 127.048 110.026">
  <g id="Grupo_262705" data-name="Grupo 262705" transform="translate(-421.476 -9388.71)">
    <path id="Trazado_281564" data-name="Trazado 281564" d="M95.286,288.78H31.762L0,343.793l31.762,55.014H95.286l31.762-55.014Z" transform="translate(421.476 9099.93)" fill="#e2e8ec"/>
    <path id="Trazado_281565" data-name="Trazado 281565" d="M28.175,351.19l8.3-8.28c.878-.877.876-.878.04-1.751a1.82,1.82,0,0,1-.021-2.8,3.843,3.843,0,0,1,.351-.348c.493-.4.787-.736.167-1.351a1.628,1.628,0,0,1,.061-1.968,6.256,6.256,0,0,1,.573-.624q7.8-7.809,15.6-15.607c.369-.368.49-.612.017-.97a5.391,5.391,0,0,1-.8-.8,1.756,1.756,0,0,1,.016-2.324c.821-.878,1.663-1.74,2.546-2.554a1.757,1.757,0,0,1,2.641.123c1.065,1.035,2.117,2.085,3.144,3.157.308.321.469.306.766-.007.843-.889,1.714-1.753,2.6-2.605.276-.266.339-.442.016-.716a11.235,11.235,0,0,1-1-1,1.775,1.775,0,0,1,0-2.489c.5-.536,1.011-1.057,1.548-1.552a1.773,1.773,0,0,1,2.645.008q3.427,3.373,6.8,6.807a1.742,1.742,0,0,1-.023,2.534c-.481.517-.978,1.024-1.5,1.5a1.8,1.8,0,0,1-2.7-.013c-.018-.016-.034-.033-.051-.05-.39-.373-.81-1.07-1.164-1.039-.438.04-.83.676-1.228,1.068-.589.578-1.149,1.186-1.756,1.744-.319.292-.322.459,0,.763,1.054,1.012,2.079,2.055,3.106,3.1a1.834,1.834,0,0,1-.011,2.892q-1.017,1.034-2.049,2.052a1.852,1.852,0,0,1-2.952.024c-.984-.956-.984-.956-1.939,0L46.871,343.174c-1.206,1.207-1.669,1.269-3.1.348-.239-.154-.325-.054-.46.082-.249.251-.5.506-.751.749a1.847,1.847,0,0,1-2.856,0c-.857-.808-.857-.808-1.688.024q-3.85,3.854-7.7,7.706c-.858.857-1.366.844-2.14-.042Zm39.04-41.6c-1.167-1.317-1.167-1.317-2.251-.039l1.115,1.055q2.226,2.255,4.453,4.51c.857.865.849.853,1.657-.058.208-.235.191-.35-.02-.558q-2.487-2.445-4.954-4.91M53.22,324.161c1.507,1.523,3.018,3.042,4.517,4.573.213.217.339.234.56.008.922-.945,1.861-1.872,2.8-2.8.155-.154.3-.276.1-.522a1.091,1.091,0,0,1,.107-1.527,1.22,1.22,0,0,1,1.638.3c.254.277.528.536.8.8.518.51,1.029,1.411,1.562,1.425.6.015,1.053-.946,1.622-1.424.372-.311.315-.5-.007-.819-1.413-1.38-2.8-2.791-4.2-4.183q-2.473-2.46-4.96-4.907-.625-.654-1.253-1.307c-.11-.114-.21-.255-.387-.071-.579.605-1.165,1.2-1.748,1.8a10.528,10.528,0,0,0,1.37,1.469.967.967,0,0,0,.166.121c.933.951,1.855,1.913,2.8,2.848a1.258,1.258,0,0,1,.3,1.638,1.17,1.17,0,0,1-1.825-.154c-.232-.224-.472-.44-.708-.66-.3-.322-.622-.633-.909-.971-.234-.275-.4-.279-.659-.009-.579.615-1.189,1.2-1.786,1.8-1.292,1.294-1.293,1.294.038,2.546a.187.187,0,0,0,.065.025m-1.537,1.551a10.622,10.622,0,0,1-.815-.872c-.371-.493-.625-.4-1.029.011-3.2,3.237-6.423,6.448-9.64,9.668-1.245,1.246-1.246,1.246.02,2.463a.606.606,0,0,0,.118.071q1.86,1.884,3.719,3.768c1.079,1.087,1.082,1.085,2.15.014.878-.88.877-.879.057-1.754a1.992,1.992,0,0,1-.232-.264,1.013,1.013,0,0,1,.119-1.408.982.982,0,0,1,1.354-.047,6.894,6.894,0,0,1,.814.781c.188.2.311.256.562.034.981-.872.992-.859.11-1.808-.553-.6-.6-1.233-.135-1.679.531-.5,1.12-.417,1.863.421.471.53.733.517,1.24.015.529-.524.567-.857-.03-1.279a1.977,1.977,0,0,1-.392-.4,1.049,1.049,0,0,1,1.5-1.464,5.834,5.834,0,0,1,.7.694c.215.251.366.281.613.019.614-.651,1.252-1.281,1.9-1.9.222-.213.22-.344,0-.561-1.53-1.5-3.047-3.011-4.568-4.518M67.29,314.725a7.224,7.224,0,0,1-.874-.738c-.292-.336-.472-.308-.765.006-.688.737-1.418,1.435-2.13,2.148-.837.838-.82.821-.006,1.655.307.315.469.308.766-.005.84-.884,1.716-1.733,2.577-2.6.113-.113.217-.234.432-.469M39.738,339.544a2.127,2.127,0,0,0-.673-.647c-.1-.054-.911.731-.865.846a1.684,1.684,0,0,0,.656.7,2.822,2.822,0,0,0,.882-.9M42,341.818a2.433,2.433,0,0,0-.692-.668c-.121,0-.9.784-.849.878a1.625,1.625,0,0,0,.677.672c.088.045.87-.775.864-.882" transform="translate(421.476 9099.93)" fill="#030404"/>
    <path id="Trazado_281566" data-name="Trazado 281566" d="M82.375,363.416a1.206,1.206,0,0,1,1.01,1.379c-.018,3.184,0,6.367-.01,9.551a1.9,1.9,0,0,1-2.044,2.088q-12.486.017-24.972,0a1.878,1.878,0,0,1-2.018-2.043q-.009-11.072,0-22.142a4.309,4.309,0,0,1,4.446-4.475c.519-.011,1.038-.018,1.556,0,.345.014.488-.064.505-.458.081-1.97.095-1.969-1.886-1.971a7.725,7.725,0,0,1-.848-.02,1.76,1.76,0,0,1-1.655-1.782q-.03-2.864,0-5.73a1.741,1.741,0,0,1,1.811-1.767q10.576-.012,21.152,0a1.75,1.75,0,0,1,1.831,1.82c.019,1.862.016,3.725,0,5.588a1.777,1.777,0,0,1-1.849,1.885c-.683.029-1.368.022-2.051,0-.36-.012-.478.093-.492.473-.071,1.945-.083,1.945,1.834,1.956a4.354,4.354,0,0,1,4.676,4.672c.008,2.075-.013,4.15.009,6.225a1.2,1.2,0,0,1-1.009,1.38c-.884-.22-1.107-.5-1.121-1.427a4.8,4.8,0,0,1,0-.635c.043-.369-.089-.49-.467-.479-.871.027-1.743.009-2.614.009-1.186,0-1.186,0-.756,1.115.034.087.069.175.1.264a9.03,9.03,0,0,1-.386,7.123c-.224.459-.117.554.355.533.681-.03,1.366.011,2.048-.013.558-.02,1.3.255,1.62-.122.273-.317.085-1.033.1-1.573.018-.924.238-1.207,1.121-1.427M59.02,357.557c-.727-.013-1.455-.014-2.181-.045-.335-.015-.38.143-.379.423q.01,4.089,0,8.179c0,.274.033.446.373.43.726-.033,1.453-.037,2.179-.053.374.017.75.012,1.119.058.624.076.648-.132.4-.639a8.962,8.962,0,0,1-.709-5.621,13.484,13.484,0,0,1,.937-2.737,8.423,8.423,0,0,0-1.741.005M62,343.188c1.861.013,3.722.044,5.583.029.768-.006,1.275.249,1.428,1.041-.242.859-.5,1.076-1.385,1.091-.988.016-1.977.013-2.965.015-1.694,0-1.669,0-1.7,1.663-.011.573.124.754.727.749,3.106-.029,6.212-.008,9.319-.005,1.759,0,1.73,0,1.76-1.753.01-.593-.205-.69-.724-.678-1.015.023-1.275-.19-1.527-1.082.152-.792.663-1.051,1.427-1.039,1.554.024,3.108,0,4.661.014.377,0,.55-.078.542-.5-.023-1.366-.021-2.731,0-4.1.006-.377-.121-.474-.484-.473q-8.334.027-16.667.029c-.986-.007-1.972-.007-2.958-.027-.312-.007-.469.059-.465.421.016,1.409.011,2.818,0,4.228,0,.292.092.429.4.421,1.008-.023,2.017-.031,3.025-.044M59.03,355.364c.988.011,1.977.036,2.965.028a1.353,1.353,0,0,0,.891-.362,9.094,9.094,0,0,1,11.914-.04,1.309,1.309,0,0,0,.862.425c1.7-.01,3.394-.016,5.091,0,.436.005.5-.2.5-.562-.015-.848,0-1.7-.006-2.545a2.214,2.214,0,0,0-2.423-2.4q-3.57-.009-7.142,0-5.975.009-11.949.025c-.422-.006-.845-.036-1.265-.012a2.178,2.178,0,0,0-1.979,1.954c-.044,1.031-.006,2.064-.021,3.1,0,.338.134.46.46.448.7-.026,1.4-.036,2.1-.053m-.012,13.361c-.656-.005-1.313.005-1.968-.021-.4-.015-.6.084-.589.54q.033,2.25,0,4.5c-.007.458.19.554.59.539.656-.026,1.312-.016,1.969-.021q6.083.009,12.165.019c3.136,0,6.272-.007,9.407.008.463,0,.677-.089.666-.614-.032-1.462-.027-2.924,0-4.386.008-.474-.163-.6-.616-.593q-2.369.035-4.738,0a1.693,1.693,0,0,0-1.157.4,9.026,9.026,0,0,1-11.855-.075,1.217,1.217,0,0,0-.83-.321c-1.013.02-2.027.017-3.041.024m7.917-13.452a3.782,3.782,0,0,0-1.565.6,7.107,7.107,0,0,0-3.519,7.221,7.034,7.034,0,0,0,5.238,5.753,6.355,6.355,0,0,0,5.88-1.078A6.99,6.99,0,0,0,73,356.307a6.251,6.251,0,0,0-6.063-1.034" transform="translate(421.476 9099.93)" fill="#030202"/>
    <path id="Trazado_281567" data-name="Trazado 281567" d="M82.49,331.962c-1.649,0-3.3.068-4.946-.017a4.327,4.327,0,0,1,.032-8.628q4.944-.181,9.893,0a4.325,4.325,0,0,1,.037,8.628c-1.668.085-3.344.017-5.016.017m-1.019-4.323c0-.588-.016-1.178.006-1.765.015-.372-.125-.494-.49-.486-1.036.023-2.073-.005-3.108.031a2.214,2.214,0,0,0-.011,4.428c1.035.041,2.072.005,3.107.036.43.013.517-.175.5-.549-.022-.564,0-1.13-.006-1.7m2.123-.082c0,.636,0,1.271,0,1.907,0,.221-.013.423.313.416,1.223-.025,2.452.032,3.668-.073a2.214,2.214,0,0,0-.131-4.37c-1.149-.075-2.306-.03-3.458-.056-.317-.008-.4.112-.4.41.017.588.005,1.177.005,1.766" transform="translate(421.476 9099.93)" fill="#030404"/>
    <path id="Trazado_281568" data-name="Trazado 281568" d="M96.646,329.248a4.364,4.364,0,0,1,3.022,7.028,11.5,11.5,0,0,1-1,1.091c-1.912,1.922-3.82,3.849-5.75,5.753a4.223,4.223,0,0,1-4.737,1.065,4.159,4.159,0,0,1-2.784-3.752,4.224,4.224,0,0,1,1.3-3.454q3.208-3.243,6.451-6.453a4.475,4.475,0,0,1,3.5-1.278M89.7,342.362a2.452,2.452,0,0,0,1.714-.746c.7-.7,1.393-1.4,2.1-2.086.219-.211.3-.355.037-.611-.894-.867-1.764-1.759-2.644-2.641-.128-.128-.235-.3-.445-.075a32.5,32.5,0,0,0-2.58,2.7,2.023,2.023,0,0,0-.115,2.265,2.216,2.216,0,0,0,1.931,1.2m6.53-11a2.077,2.077,0,0,0-1.529.616c-.758.739-1.494,1.5-2.256,2.235-.246.238-.232.382.012.618.88.85,1.738,1.722,2.6,2.591.163.164.287.286.509.053.814-.849,1.688-1.644,2.453-2.534a2.008,2.008,0,0,0,.209-2.373,2.141,2.141,0,0,0-2-1.206" transform="translate(421.476 9099.93)" fill="#030404"/>
    <path id="Trazado_281569" data-name="Trazado 281569" d="M38.955,375.11c-1.555,0-3.112.034-4.666-.008a4.354,4.354,0,0,1-1.05-8.551,5.33,5.33,0,0,1,1.465-.192c2.875,0,5.751-.02,8.626,0a4.387,4.387,0,0,1,4.369,5.9,4.3,4.3,0,0,1-3.865,2.83c-1.625.05-3.252.01-4.879.01Zm-4.27-2.15c.963.011,1.926.016,2.888.037.263.006.374-.059.371-.348-.013-1.269-.011-2.538,0-3.807,0-.272-.09-.371-.366-.364-.962.025-1.924.031-2.887.044a2.239,2.239,0,1,0,0,4.438m5.378-2.313c0,.612.02,1.224-.009,1.834-.018.388.088.532.5.519.987-.029,1.975,0,2.963-.012a2.246,2.246,0,1,0,.117-4.49c-1.056-.053-2.116,0-3.175-.022-.309-.005-.411.1-.4.407.017.588.006,1.176.006,1.764" transform="translate(421.476 9099.93)" fill="#030404"/>
    <path id="Trazado_281570" data-name="Trazado 281570" d="M91.529,346.515a5.579,5.579,0,1,1-5.591,5.558,5.6,5.6,0,0,1,5.591-5.558m-1.4,2.441,4.52,4.5a3.409,3.409,0,0,0-4.52-4.5m2.691,6.245L88.4,350.735a3.331,3.331,0,0,0,.727,3.821,3.234,3.234,0,0,0,3.7.645" transform="translate(421.476 9099.93)" fill="#030404"/>
    <path id="Trazado_281571" data-name="Trazado 281571" d="M47.345,364.185a4.245,4.245,0,0,1-4.221-1.776,3.961,3.961,0,0,1,2.9-6.15,5.983,5.983,0,0,1,4.164.638,4,4,0,0,1-1.885,7.283,9.122,9.122,0,0,1-.96.005m-.217-2.108c.359,0,.666.022.97,0a1.948,1.948,0,0,0,1.724-1.762,1.892,1.892,0,0,0-1.447-1.917,5.837,5.837,0,0,0-2.384.008,1.833,1.833,0,0,0-1.1,2.793,2.154,2.154,0,0,0,2.24.882" transform="translate(421.476 9099.93)" fill="#030404"/>
    <path id="Trazado_281572" data-name="Trazado 281572" d="M38.237,349.7a3.945,3.945,0,0,1,3.7,2.407,3.735,3.735,0,0,1-.608,4.157,6.326,6.326,0,0,1-3.018,2.343,4.016,4.016,0,0,1-4.4-1.612,3.957,3.957,0,0,1,.193-4.678,6.332,6.332,0,0,1,3.115-2.442c.384-.1.783-.136,1.019-.175m-2.861,5.044a1.791,1.791,0,0,0,1,1.684,1.726,1.726,0,0,0,1.987-.184,11.513,11.513,0,0,0,1.4-1.4,1.892,1.892,0,0,0,.138-2.118,1.858,1.858,0,0,0-1.94-.86A4.393,4.393,0,0,0,35.4,354.48c-.013.093-.019.188-.026.262" transform="translate(421.476 9099.93)" fill="#030404"/>
    <path id="Trazado_281573" data-name="Trazado 281573" d="M82.376,363.416c-.883.22-1.1.5-1.122,1.427-.01.539.178,1.255-.1,1.573-.324.377-1.062.1-1.62.121-.682.025-1.367-.016-2.049.014-.471.021-.579-.075-.355-.533a9.025,9.025,0,0,0,.386-7.123c-.03-.089-.064-.177-.1-.265-.43-1.115-.43-1.115.755-1.114.872,0,1.744.018,2.614-.009.378-.011.511.11.467.479a4.8,4.8,0,0,0,0,.635c.014.924.237,1.207,1.12,1.426v3.369" transform="translate(421.476 9099.93)" fill="#e2e5e9"/>
    <path id="Trazado_281574" data-name="Trazado 281574" d="M51.683,325.712c1.521,1.508,3.038,3.02,4.567,4.518.222.218.224.348,0,.562-.646.62-1.284,1.249-1.9,1.9-.247.262-.4.232-.613-.018a5.759,5.759,0,0,0-.7-.694,1.049,1.049,0,0,0-1.5,1.463,1.977,1.977,0,0,0,.392.4c.6.423.558.756.03,1.279-.507.5-.769.516-1.24-.015-.743-.837-1.333-.925-1.863-.421-.47.446-.418,1.085.135,1.68.882.948.871.936-.11,1.807-.251.223-.374.165-.562-.034a6.976,6.976,0,0,0-.814-.781.984.984,0,0,0-1.355.048,1.013,1.013,0,0,0-.118,1.407,2,2,0,0,0,.232.265c.82.874.82.874-.057,1.753-1.068,1.071-1.071,1.074-2.15-.014q-1.865-1.88-3.719-3.767c0-.3.235-.45.414-.63q5.148-5.152,10.3-10.3c.18-.18.335-.407.632-.411" transform="translate(421.476 9099.93)" fill="#a0dcf6"/>
    <path id="Trazado_281575" data-name="Trazado 281575" d="M59,321.584a1.256,1.256,0,0,0-.3-1.638c-.949-.935-1.871-1.9-2.8-2.847l1.853-2.017q2.479,2.453,4.959,4.906c1.4,1.393,2.785,2.8,4.2,4.184.322.314.379.507.007.819-.569.477-1.024,1.438-1.622,1.423-.533-.014-1.043-.914-1.562-1.425-.268-.264-.542-.523-.8-.8a1.221,1.221,0,0,0-1.639-.3,6.865,6.865,0,0,1-2.3-2.306" transform="translate(421.476 9099.93)" fill="#fdfdfd"/>
    <path id="Trazado_281576" data-name="Trazado 281576" d="M59,321.584a6.865,6.865,0,0,0,2.3,2.306,1.091,1.091,0,0,0-.107,1.527c.2.246.055.368-.1.522-.935.932-1.875,1.859-2.8,2.8-.221.227-.348.209-.56-.007-1.5-1.531-3.01-3.05-4.517-4.573.039-.107.05-.242.123-.315,1.037-1.031,2.084-2.053,3.128-3.077.236.22.475.436.707.661a1.17,1.17,0,0,0,1.825.153" transform="translate(421.476 9099.93)" fill="#e2e5e9"/>
    <path id="Trazado_281577" data-name="Trazado 281577" d="M51.683,325.712c-.3,0-.452.231-.632.411q-5.151,5.15-10.3,10.3c-.179.18-.41.332-.414.63a.625.625,0,0,1-.118-.071c-1.266-1.217-1.265-1.217-.02-2.464q4.825-4.829,9.64-9.668c.4-.408.658-.5,1.029-.011a10.622,10.622,0,0,0,.815.872" transform="translate(421.476 9099.93)" fill="#90c7df"/>
    <path id="Trazado_281578" data-name="Trazado 281578" d="M67.215,309.6q2.475,2.457,4.954,4.91c.212.208.229.323.021.557-.809.911-.8.924-1.657.058q-2.23-2.252-4.454-4.51a2.446,2.446,0,0,1,1.136-1.015" transform="translate(421.476 9099.93)" fill="#fdfdfd"/>
    <path id="Trazado_281579" data-name="Trazado 281579" d="M67.291,314.725c-.216.235-.32.356-.433.469-.86.864-1.737,1.713-2.576,2.6-.3.313-.46.32-.767.006-.813-.834-.83-.817.006-1.655.713-.714,1.442-1.412,2.13-2.149.294-.314.473-.342.765-.006a7.145,7.145,0,0,0,.875.738" transform="translate(421.476 9099.93)" fill="#e2e5e9"/>
    <path id="Trazado_281580" data-name="Trazado 281580" d="M56.472,320.77c-1.044,1.024-2.09,2.046-3.128,3.077-.073.072-.083.208-.123.315a.21.21,0,0,1-.065-.026c-1.331-1.252-1.331-1.252-.039-2.546.6-.6,1.207-1.185,1.787-1.8.254-.27.425-.266.659.009.286.338.6.649.909.971" transform="translate(421.476 9099.93)" fill="#cdd0d4"/>
    <path id="Trazado_281581" data-name="Trazado 281581" d="M57.756,315.082Q56.83,316.09,55.9,317.1a.968.968,0,0,1-.166-.121,10.642,10.642,0,0,1-1.37-1.469c.583-.6,1.169-1.2,1.748-1.8.177-.185.277-.043.386.071q.629.651,1.254,1.307" transform="translate(421.476 9099.93)" fill="#e2e5e9"/>
    <path id="Trazado_281582" data-name="Trazado 281582" d="M67.215,309.6a2.446,2.446,0,0,0-1.136,1.015l-1.115-1.054c1.084-1.279,1.084-1.279,2.251.039" transform="translate(421.476 9099.93)" fill="#e2e5e9"/>
    <path id="Trazado_281583" data-name="Trazado 281583" d="M39.739,339.545a2.8,2.8,0,0,1-.883.9,1.681,1.681,0,0,1-.656-.7c-.046-.116.765-.9.866-.846a2.137,2.137,0,0,1,.673.647" transform="translate(421.476 9099.93)" fill="#e2e5e9"/>
    <path id="Trazado_281584" data-name="Trazado 281584" d="M42,341.818c.006.107-.776.927-.864.882a1.625,1.625,0,0,1-.677-.672c-.052-.094.728-.879.849-.878a2.433,2.433,0,0,1,.692.668" transform="translate(421.476 9099.93)" fill="#e2e5e9"/>
    <path id="Trazado_281585" data-name="Trazado 281585" d="M66.935,355.273A6.251,6.251,0,0,1,73,356.307a6.989,6.989,0,0,1-.029,11.461,6.353,6.353,0,0,1-5.88,1.079c-.012-.218-.178-.3-.328-.422a8.162,8.162,0,0,1-.142-12.727c.139-.117.344-.185.316-.425m1.908,6.173c1.108,0,2.215.012,3.323,0,.873-.013,1.305-.373,1.314-1.044s-.425-1.071-1.283-1.077q-3.322-.026-6.645,0c-.871.006-1.307.378-1.316,1.047-.01.7.44,1.066,1.356,1.077,1.083.013,2.167,0,3.251,0m.048,1.336c-.823,0-1.646-.014-2.468,0a1.056,1.056,0,1,0-.028,2.1q2.468.041,4.936,0a1.056,1.056,0,1,0-.043-2.1c-.8-.019-1.6,0-2.4,0" transform="translate(421.476 9099.93)" fill="#fbc202"/>
    <path id="Trazado_281586" data-name="Trazado 281586" d="M59.018,368.725c1.014-.006,2.027,0,3.041-.024a1.222,1.222,0,0,1,.83.321,9.026,9.026,0,0,0,11.855.075,1.687,1.687,0,0,1,1.156-.4q2.37.035,4.739,0c.453-.006.624.12.615.594-.025,1.461-.029,2.924,0,4.385.012.525-.2.617-.665.615-3.136-.016-6.271-.006-9.407-.009q-6.083-.006-12.165-.019,0-2.769,0-5.538" transform="translate(421.476 9099.93)" fill="#765336"/>
    <path id="Trazado_281587" data-name="Trazado 281587" d="M59.73,349.932q5.975-.012,11.95-.025,3.57,0,7.142,0a2.214,2.214,0,0,1,2.423,2.4c.006.848-.01,1.7.006,2.546.007.363-.062.566-.5.561-1.7-.019-3.394-.013-5.092,0a1.309,1.309,0,0,1-.862-.425,9.093,9.093,0,0,0-11.913.04,1.355,1.355,0,0,1-.892.362c-.988.008-1.977-.017-2.965-.028,0-1.841-.19-3.706.7-5.432" transform="translate(421.476 9099.93)" fill="#765336"/>
    <path id="Trazado_281588" data-name="Trazado 281588" d="M61.994,338.189q8.333-.01,16.666-.029c.364,0,.491.1.485.473-.02,1.365-.022,2.731,0,4.1.007.425-.165.507-.542.5-1.553-.015-3.108.011-4.661-.013-.764-.013-1.275.247-1.427,1.038h-3.5c-.153-.791-.661-1.046-1.428-1.04-1.861.014-3.722-.017-5.583-.029q0-2.5-.008-5" transform="translate(421.476 9099.93)" fill="#f5921e"/>
    <path id="Trazado_281589" data-name="Trazado 281589" d="M69.013,344.258h3.5c.252.893.512,1.106,1.527,1.082.519-.012.734.086.724.678-.03,1.753,0,1.754-1.76,1.753-3.107,0-6.213-.024-9.319.005-.6.006-.738-.176-.727-.749.033-1.662.008-1.661,1.7-1.663.988,0,1.977,0,2.965-.015.88-.014,1.143-.232,1.385-1.091" transform="translate(421.476 9099.93)" fill="#c59f7c"/>
    <path id="Trazado_281590" data-name="Trazado 281590" d="M59.014,366.491c-.726.016-1.453.02-2.179.053-.34.016-.374-.156-.374-.429q.009-4.09,0-8.18c0-.28.043-.438.379-.423.726.032,1.454.032,2.181.045q0,4.467-.007,8.934" transform="translate(421.476 9099.93)" fill="#cdd0d4"/>
    <path id="Trazado_281591" data-name="Trazado 281591" d="M66.935,355.273c.028.241-.177.308-.316.425a8.162,8.162,0,0,0,.142,12.727c.15.122.316.205.328.422a7.034,7.034,0,0,1-5.238-5.753,7.107,7.107,0,0,1,3.519-7.221,3.782,3.782,0,0,1,1.565-.6" transform="translate(421.476 9099.93)" fill="#e2af02"/>
    <path id="Trazado_281592" data-name="Trazado 281592" d="M61.994,338.189q0,2.5.008,5c-1.008.013-2.017.021-3.026.044-.311.007-.4-.129-.4-.421.008-1.41.013-2.819,0-4.229,0-.361.153-.427.465-.421.986.02,1.972.02,2.958.028" transform="translate(421.476 9099.93)" fill="#d9811a"/>
    <path id="Trazado_281593" data-name="Trazado 281593" d="M59.018,368.725q0,2.769,0,5.538c-.657.005-1.314-.005-1.969.021-.4.016-.6-.081-.59-.538q.035-2.252,0-4.5c-.007-.456.188-.555.589-.539.656.025,1.313.015,1.969.02" transform="translate(421.476 9099.93)" fill="#694b30"/>
    <path id="Trazado_281594" data-name="Trazado 281594" d="M59.73,349.932c-.89,1.726-.7,3.591-.7,5.432-.7.017-1.4.027-2.1.053-.325.012-.464-.11-.459-.447.014-1.032-.024-2.065.02-3.1a2.18,2.18,0,0,1,1.979-1.955c.42-.024.843.006,1.265.012" transform="translate(421.476 9099.93)" fill="#694b30"/>
    <path id="Trazado_281595" data-name="Trazado 281595" d="M59.014,366.491q0-4.467.007-8.934a8.422,8.422,0,0,1,1.741-.005,13.383,13.383,0,0,0-.937,2.737,8.962,8.962,0,0,0,.708,5.621c.247.508.224.716-.4.639-.37-.046-.746-.04-1.119-.058" transform="translate(421.476 9099.93)" fill="#e2e5e9"/>
    <path id="Trazado_281596" data-name="Trazado 281596" d="M81.471,327.639c0,.565-.016,1.131.006,1.7.014.374-.072.562-.5.549-1.035-.032-2.073.005-3.107-.036a2.215,2.215,0,0,1,.011-4.429c1.035-.035,2.072-.007,3.107-.03.366-.009.5.114.491.485-.023.588-.006,1.177-.006,1.766" transform="translate(421.476 9099.93)" fill="#47bddc"/>
    <path id="Trazado_281597" data-name="Trazado 281597" d="M83.594,327.557c0-.589.012-1.178-.005-1.766-.009-.3.079-.418.4-.41,1.152.026,2.309-.019,3.458.056a2.214,2.214,0,0,1,.131,4.37c-1.216.1-2.445.048-3.668.073-.326.007-.314-.2-.313-.416,0-.636,0-1.271,0-1.907" transform="translate(421.476 9099.93)" fill="#fdfdfd"/>
    <path id="Trazado_281598" data-name="Trazado 281598" d="M89.7,342.362a2.216,2.216,0,0,1-1.931-1.2,2.021,2.021,0,0,1,.116-2.265,32.325,32.325,0,0,1,2.579-2.7c.211-.226.317-.053.445.075.881.882,1.75,1.774,2.645,2.641.264.256.181.4-.038.611-.709.687-1.4,1.391-2.1,2.086a2.455,2.455,0,0,1-1.715.746" transform="translate(421.476 9099.93)" fill="#47bddc"/>
    <path id="Trazado_281599" data-name="Trazado 281599" d="M96.231,331.363a2.141,2.141,0,0,1,2,1.206,2.008,2.008,0,0,1-.209,2.373c-.765.89-1.639,1.685-2.453,2.534-.222.233-.346.111-.509-.053-.861-.869-1.719-1.741-2.6-2.591-.244-.236-.258-.38-.012-.618.762-.735,1.5-1.5,2.256-2.235a2.077,2.077,0,0,1,1.529-.616" transform="translate(421.476 9099.93)" fill="#fdfdfd"/>
    <path id="Trazado_281600" data-name="Trazado 281600" d="M40.063,370.647c0-.588.012-1.176-.005-1.764-.008-.3.094-.412.4-.407,1.059.017,2.119-.031,3.175.022a2.246,2.246,0,1,1-.117,4.49c-.988.013-1.977-.017-2.964.012-.412.013-.518-.131-.5-.519.029-.61.008-1.222.008-1.834" transform="translate(421.476 9099.93)" fill="#f7d665"/>
    <path id="Trazado_281601" data-name="Trazado 281601" d="M34.69,368.522c.962-.013,1.925-.019,2.887-.044.276-.007.367.092.365.364-.009,1.269-.011,2.538,0,3.807,0,.289-.108.354-.371.348-.962-.021-1.925-.026-2.888-.037a5.042,5.042,0,0,0-.274-.644,3.077,3.077,0,0,1-.2-2.713c.13-.381.476-.654.476-1.081" transform="translate(421.476 9099.93)" fill="#fdfdfd"/>
    <path id="Trazado_281602" data-name="Trazado 281602" d="M34.69,368.522c0,.427-.346.7-.476,1.081a3.077,3.077,0,0,0,.2,2.713,5.042,5.042,0,0,1,.274.644,2.239,2.239,0,1,1,0-4.438" transform="translate(421.476 9099.93)" fill="#e2e5e9"/>
    <path id="Trazado_281603" data-name="Trazado 281603" d="M90.131,348.956a3.41,3.41,0,0,1,4.521,4.5l-4.521-4.5" transform="translate(421.476 9099.93)" fill="#f7d665"/>
    <path id="Trazado_281604" data-name="Trazado 281604" d="M92.822,355.2a3.234,3.234,0,0,1-3.7-.645,3.331,3.331,0,0,1-.727-3.821l4.425,4.466" transform="translate(421.476 9099.93)" fill="#f7d665"/>
    <path id="Trazado_281605" data-name="Trazado 281605" d="M47.128,362.077a2.154,2.154,0,0,1-2.24-.882,1.833,1.833,0,0,1,1.1-2.793,5.837,5.837,0,0,1,2.384-.008,1.892,1.892,0,0,1,1.447,1.917,1.948,1.948,0,0,1-1.724,1.762c-.3.026-.611,0-.97,0" transform="translate(421.476 9099.93)" fill="#f7d665"/>
    <path id="Trazado_281606" data-name="Trazado 281606" d="M35.376,354.742c.007-.074.013-.169.026-.262a4.393,4.393,0,0,1,2.556-2.612,1.858,1.858,0,0,1,1.94.86,1.892,1.892,0,0,1-.138,2.118,11.513,11.513,0,0,1-1.4,1.4,1.726,1.726,0,0,1-1.987.184,1.791,1.791,0,0,1-1-1.684" transform="translate(421.476 9099.93)" fill="#f7d665"/>
    <path id="Trazado_281607" data-name="Trazado 281607" d="M68.844,361.446c-1.084,0-2.168.01-3.252,0-.915-.011-1.365-.381-1.355-1.076.009-.67.445-1.042,1.316-1.047q3.322-.021,6.645,0c.858.007,1.292.4,1.283,1.077s-.442,1.032-1.315,1.044c-1.107.016-2.215,0-3.322,0" transform="translate(421.476 9099.93)" fill="#030202"/>
    <path id="Trazado_281608" data-name="Trazado 281608" d="M68.891,362.782c.8,0,1.6-.014,2.4,0a1.056,1.056,0,1,1,.043,2.1q-2.468.042-4.936,0a1.055,1.055,0,1,1,.028-2.1c.822-.019,1.645,0,2.468,0" transform="translate(421.476 9099.93)" fill="#030202"/>
  </g>
</svg>
