<svg xmlns="http://www.w3.org/2000/svg" width="83" height="83" viewBox="0 0 83 83">
  <g id="Grupo_1069956" data-name="Grupo 1069956" transform="translate(-600 -2681)">
    <g id="Grupo_1069950" data-name="Grupo 1069950">
      <circle id="Elipse_4700" data-name="Elipse 4700" cx="41.5" cy="41.5" r="41.5" transform="translate(600 2681)" fill="#3b5620"/>
      <g id="Grupo_261840" data-name="Grupo 261840" transform="translate(43.854 -79.902)">
        <path id="Trazado_279909" data-name="Trazado 279909" d="M66.357,146.892a.829.829,0,0,1,.981.812c.153,1.1.372,2.182.545,3.275a5.2,5.2,0,0,0,.151,1.253,2.47,2.47,0,0,0,.816.807c1.628,1.239,3.315,2.407,4.891,3.709a5.787,5.787,0,0,1,1.958,4.568,14.5,14.5,0,0,0,.656,5.059,2.521,2.521,0,0,1-1.515,3.515,3.093,3.093,0,0,1-1.188.179c-1.787.019-3.574.01-5.361.014a2.61,2.61,0,0,1-2.371-2.35c-.033-1.394-.089-2.794,0-4.182a2.286,2.286,0,0,0-1.188-2.4,7.886,7.886,0,0,1-.653-.467,3.453,3.453,0,0,0-.663,2.516c.083.917.225,1.828.343,2.742.153,1.2.315,2.4.458,3.6.039.33.013.666.031,1A2.726,2.726,0,0,0,65,171.927a3.7,3.7,0,0,1,.486,3.986,2.961,2.961,0,0,1-1.841,1.3H57.157a2.934,2.934,0,0,1-1.936-2.128c-.137-.616-.114-1.266-.19-1.9a25.222,25.222,0,0,0-.417-3.017c-.328-1.339-.787-2.647-1.22-3.959-.773-2.346-1.993-3.323-4.56-3.274-1.2.023-2.4.064-3.59-.014a2.4,2.4,0,0,0-2.386,1.015,4.885,4.885,0,0,0-1.25,3.238c.068.891.29,1.769.424,2.656a1.453,1.453,0,0,0,.532,1.126,4.872,4.872,0,0,1,1.1,1.087,3.734,3.734,0,0,1,.632,3.372,3.023,3.023,0,0,1-1.874,1.795H30.391a2.972,2.972,0,0,1-1.91-2.09,3.141,3.141,0,0,1-.091-.557c-.045-1.344-.018-2.694-.142-4.03a19.208,19.208,0,0,0-.618-2.616c-.523.419-.913.761-1.334,1.059a9.4,9.4,0,0,1-1.72,1.1,1.949,1.949,0,0,1-2.84-1.256,2.3,2.3,0,0,1,.072-1.41,10.953,10.953,0,0,0,.447-5.466c-.109-.893-.248-1.783-.351-2.676a.781.781,0,0,1,.7-.947c.75.069.957.268,1.064,1.02.119.836.257,1.671.354,2.51a12.786,12.786,0,0,1-.458,5.972,2.808,2.808,0,0,0-.059.757l.237.123,3.184-2.565a4.382,4.382,0,0,1-.223-3.805,6.829,6.829,0,0,0,.179-5.441,9.733,9.733,0,0,1-.351-6.915,34.95,34.95,0,0,1,1.777-3.66,9.959,9.959,0,0,0-4.927,2.009,3.925,3.925,0,0,0-1.442,3.561,28.071,28.071,0,0,0,.786,3.29c.223.9.178,1.017-.589,1.506a.98.98,0,0,1-1.093-.86,17.066,17.066,0,0,1-.9-4.641,5.305,5.305,0,0,1,1.5-3.62,9.938,9.938,0,0,1,5.311-2.765c1.058-.251,2.167-.283,3.234-.5a13.87,13.87,0,0,0,2.263-.719,9.269,9.269,0,0,1,4.86-.578c1.336.195,2.693.254,4.041.366.38.032.762.042,1.177.063,0-.963-.007-1.807,0-2.65A25.92,25.92,0,0,1,43.619,134c.117-.417.344-.806.429-1.227.141-.7.495-1.057,1.227-.979a.921.921,0,0,1,.524,1.389,21.427,21.427,0,0,0-1.471,6.77,20.989,20.989,0,0,0,.319,5.4,12.245,12.245,0,0,0,3.879,7.246,11.434,11.434,0,0,0,1.092.752c.166-1.234.318-2.357.469-3.481.065-.17.142-.338.194-.512a17.694,17.694,0,0,1,2.762-5.337c1.344-1.857,2.766-3.657,4.094-5.525a7.683,7.683,0,0,0,1.55-3.664,6.751,6.751,0,0,0-1.624-5.038,7.079,7.079,0,0,1-1.543-3.413c-.2-1.255-.331-2.52-.5-3.809a12.962,12.962,0,0,0-3.06,2.051c-.038.042-.077.083-.115.124l0,0a2.305,2.305,0,0,0-.439.27,20.176,20.176,0,0,0-3.6,4.185,1.25,1.25,0,0,1-1.486.613,1.013,1.013,0,0,1-.093-1.5,46.734,46.734,0,0,1,3.25-3.925,19.408,19.408,0,0,1,5.447-3.8,1.319,1.319,0,0,0,.575-.7,1.943,1.943,0,0,1,2.111-1.5c.931.073,1.576-.526,2.356-.794a10.58,10.58,0,0,1,4.366-.677,13.548,13.548,0,0,1,3.519.915,12.721,12.721,0,0,0,5.067.647,12.464,12.464,0,0,1,1.9-.087,1.018,1.018,0,0,1,.829,1.054,7.487,7.487,0,0,1-1.213,4.884,20.377,20.377,0,0,1-1.7,1.887c.548,1.28,1.085,2.632,1.707,3.944a6.194,6.194,0,0,0,1.08,1.547c.98,1.046,2.016,2.038,3.031,3.051a5.55,5.55,0,0,1-.631,8.321,5.613,5.613,0,0,1-6.978-.219,7.894,7.894,0,0,0-3.116-1.857c-.5-.11-1.006-.2-1.7-.333.147.914.231,1.706.409,2.477.268,1.162.213,1.452-.559,1.977a1.018,1.018,0,0,1-1.046-.882c-.2-1.108-.388-2.218-.582-3.336a11.777,11.777,0,0,1-4.631-1.311c-1.055-.562-.749-.592-1.453.363-.079.108-.143.226-.221.334-1.556,2.152-3.186,4.255-4.649,6.468a11.133,11.133,0,0,0-1.889,6.507c.033.5.09,1,.1,1.5.008.912-.5,1.235-1.335.891a11.413,11.413,0,0,1-4.083-2.943,12.667,12.667,0,0,1-2.831-5.07c-.231-.788-.434-1.585-.646-2.363-.743-.052-1.462-.084-2.177-.158-.9-.094-1.8-.289-2.7-.322a17.894,17.894,0,0,0-3.588.081,7.194,7.194,0,0,0-4.706,3.06,8.058,8.058,0,0,0-1.115,7.964,11.671,11.671,0,0,1,.724,3.424,9.41,9.41,0,0,1-.8,3.767,2.917,2.917,0,0,0,0,1.735c.4,1.368.945,2.694,1.407,4.046a12.679,12.679,0,0,1,.3,1.232H35c-.133-.919-.3-1.714-.353-2.518A6.588,6.588,0,0,1,36,163.543a5.205,5.205,0,0,1,3.235-2.223,6.283,6.283,0,0,1,1.563-.14c3.235.028,6.472.005,9.7.147a4.491,4.491,0,0,1,3.913,2.827c.728,1.569,1.235,3.242,1.821,4.875.156.437.244.9.332,1.226a42.227,42.227,0,0,1,5.877-.127c-.2-1.725-.4-3.393-.591-5.06a10.448,10.448,0,0,0-.109-1.442,4.743,4.743,0,0,1,.911-3.978c.522-.7,1.163-1.3,1.719-1.977A7.609,7.609,0,0,0,66.2,152.62a34.317,34.317,0,0,0-.58-4.57.882.882,0,0,1,.736-1.158m-2.5-22.055a3,3,0,0,1-2.308,1.238,9.55,9.55,0,0,0-2,.723c-.588.249-1.153.554-1.808.873a12.7,12.7,0,0,1,2.516,4.566,8.266,8.266,0,0,1-.531,5.312c.27.164.481.3.7.423a8.381,8.381,0,0,0,5.291,1.124,6.4,6.4,0,0,1,4.128.814c.92.528,1.74,1.227,2.617,1.83a3.57,3.57,0,0,0,4.191.1,3.752,3.752,0,0,0,.57-5.928c-1.061-1.076-2.172-2.107-3.181-3.231a9.73,9.73,0,0,1-1.314-2.021c-.551-1.061-1-2.175-1.538-3.242a.728.728,0,0,0-.646-.266,4.815,4.815,0,0,1-3.687-.46c-1.029-.522-1.974-1.208-3-1.851m10-4.671a13.959,13.959,0,0,1-2.753.179,18.015,18.015,0,0,1-3.933-.9,9.94,9.94,0,0,0-4.4-.7c-.653.062-1.294.25-2.064.406a7.536,7.536,0,0,1,2.952,3.078,1.558,1.558,0,0,0,.451.51,23.814,23.814,0,0,0,2.043,1.488,7.215,7.215,0,0,0,2.386,1.186c3.272.526,5.437-2.508,5.316-5.245m.05,43.12c0-.72.011-1.4,0-2.089a3.634,3.634,0,0,0-.79-2.494A17.3,17.3,0,0,0,71,156.812c-1.013-.792-2.079-1.518-3.215-2.34a10.981,10.981,0,0,1-2.408,4.872c.049.094.058.143.086.16,1.229.755,2.289,1.618,2.211,3.269,0,.075.291.24.443.235a19.266,19.266,0,0,1,5.783.278M33.722,175.445c.862,0,1.725-.021,2.587.006a.969.969,0,0,0,1.022-1.23,2.637,2.637,0,0,0-2.524-2.322c-1.232-.056-2.469-.023-3.7-.009a.913.913,0,0,0-.945.957c-.014.529-.018,1.059,0,1.587a.967.967,0,0,0,1.033,1.008c.843.009,1.686,0,2.529,0m26.732,0c.884,0,1.768.01,2.651,0a.926.926,0,0,0,1-1.135,2.653,2.653,0,0,0-2.5-2.4c-1.253-.072-2.513-.028-3.769-.012a.9.9,0,0,0-.913.928c-.016.53-.016,1.061,0,1.59a.929.929,0,0,0,1.055,1.035c.824.008,1.649,0,2.474,0m10.8-7.159H73.9c.443,0,.776-.177.833-.645a2.339,2.339,0,0,0-2.042-2.776,33.95,33.95,0,0,0-4.27-.117.8.8,0,0,0-.764.874c-.017.549-.011,1.1,0,1.647a.929.929,0,0,0,1.011,1.014c.863.012,1.725,0,2.588,0M40.3,170.061c-.692-2.508-.838-4.946,1.149-7.07-2.163-.206-3.707.513-4.464,2.476a5.89,5.89,0,0,0-.542,1.93,16.939,16.939,0,0,0,.365,2.664Zm16.545-47.447c.194.763.418,1.714.686,2.652.1.349.259.541.72.253a7.512,7.512,0,0,1,3.425-1.252c.555-.042.729-.391.52-.927a5.045,5.045,0,0,0-4.507-3.18.7.7,0,0,0-.508.418c-.148.593-.208,1.208-.336,2.036M38.991,175.443c1,0,1.956.041,2.908-.018a.788.788,0,0,0,.763-.871,2.4,2.4,0,0,0-1.918-2.519,19.823,19.823,0,0,0-2.467-.173,4.615,4.615,0,0,1,.714,3.581" transform="translate(548 2655)" fill="#010101"/>
        <path id="Trazado_279910" data-name="Trazado 279910" d="M51.516,153.278a11.118,11.118,0,0,1,1.889-6.507c1.463-2.213,3.092-4.316,4.648-6.467.079-.109.143-.227.222-.335.7-.954.4-.924,1.452-.362a11.768,11.768,0,0,0,4.632,1.31c.194,1.118.38,2.229.581,3.336a1.019,1.019,0,0,0,1.046.883q.186.877.371,1.755a.882.882,0,0,0-.736,1.158,34.5,34.5,0,0,1,.58,4.57,7.611,7.611,0,0,1-1.824,5.052c-.557.672-1.2,1.279-1.719,1.976a4.744,4.744,0,0,0-.911,3.979,10.269,10.269,0,0,1,.108,1.441,2.685,2.685,0,0,1-.44-.287c-1.618-1.567-3.261-3.108-4.833-4.72a30.315,30.315,0,0,1-4.168-5.517c-.268-.441-.6-.844-.9-1.265" transform="translate(548 2655)" fill="#daa985"/>
        <path id="Trazado_279911" data-name="Trazado 279911" d="M46.326,129.813a1.251,1.251,0,0,0,1.486-.613,20.15,20.15,0,0,1,3.6-4.185,2.329,2.329,0,0,1,.438-.27,3.555,3.555,0,0,1-.137.5c-.483,1.135-1,2.255-1.459,3.4a30.9,30.9,0,0,0-2.154,11.1,29.341,29.341,0,0,0,.34,4.082,23.478,23.478,0,0,0,1.645,6.037l-.468,3.481a11.621,11.621,0,0,1-1.092-.752,12.246,12.246,0,0,1-3.88-7.247,20.981,20.981,0,0,1-.318-5.4,21.393,21.393,0,0,1,1.471-6.77.922.922,0,0,0-.524-1.389l1.051-1.982" transform="translate(548 2655)" fill="#ebca5f"/>
        <path id="Trazado_279912" data-name="Trazado 279912" d="M22.139,156.694c.765-.489.81-.6.587-1.506a28.268,28.268,0,0,1-.785-3.29,3.929,3.929,0,0,1,1.442-3.561,9.952,9.952,0,0,1,4.926-2.009,35.15,35.15,0,0,0-1.777,3.66,9.733,9.733,0,0,0,.352,6.915,6.829,6.829,0,0,1-.179,5.441,4.382,4.382,0,0,0,.222,3.805l-3.183,2.565-.237-.123a2.808,2.808,0,0,1,.059-.757,12.8,12.8,0,0,0,.458-5.972c-.1-.839-.235-1.673-.354-2.51-.107-.752-.314-.95-1.064-1.02q-.234-.819-.467-1.638" transform="translate(548 2655)" fill="#eaca5f"/>
        <path id="Trazado_279913" data-name="Trazado 279913" d="M51.516,153.278c.3.421.63.824.9,1.265a30.315,30.315,0,0,0,4.168,5.517c1.572,1.612,3.215,3.153,4.833,4.72a2.685,2.685,0,0,0,.44.287c.195,1.668.39,3.335.591,5.061a41.924,41.924,0,0,0-5.877.127c-.087-.329-.175-.79-.331-1.226-.586-1.634-1.093-3.307-1.822-4.875a4.491,4.491,0,0,0-3.913-2.828c-3.229-.142-6.467-.119-9.7-.147a6.29,6.29,0,0,0-1.564.14A5.2,5.2,0,0,0,36,163.542a6.582,6.582,0,0,0-1.358,4.068c.057.8.22,1.6.352,2.518H30.066a12.066,12.066,0,0,0-.3-1.233c-.461-1.351-1-2.678-1.406-4.046a2.925,2.925,0,0,1-.006-1.735,9.4,9.4,0,0,0,.8-3.766,11.646,11.646,0,0,0-.725-3.425,8.054,8.054,0,0,1,1.116-7.963,7.2,7.2,0,0,1,4.7-3.061,17.829,17.829,0,0,1,3.589-.08c.9.033,1.8.227,2.7.321.715.075,1.434.106,2.177.159.212.778.415,1.574.645,2.362a12.666,12.666,0,0,0,2.832,5.071,11.421,11.421,0,0,0,4.082,2.943c.837.344,1.344.02,1.335-.891-.005-.5-.061-1-.094-1.506" transform="translate(548 2655)" fill="#cb8a5a"/>
        <path id="Trazado_279914" data-name="Trazado 279914" d="M63.854,124.836c1.029.644,1.975,1.329,3,1.851a4.814,4.814,0,0,0,3.687.461.725.725,0,0,1,.646.266c.54,1.067.987,2.181,1.538,3.241a9.71,9.71,0,0,0,1.314,2.022c1.008,1.123,2.119,2.155,3.181,3.231a3.752,3.752,0,0,1-.571,5.928,3.569,3.569,0,0,1-4.19-.1c-.878-.6-1.7-1.3-2.617-1.831a6.417,6.417,0,0,0-4.129-.814,8.383,8.383,0,0,1-5.291-1.123c-.217-.125-.429-.26-.7-.423a8.253,8.253,0,0,0,.531-5.312,12.693,12.693,0,0,0-2.516-4.567c.656-.319,1.22-.623,1.808-.872a9.535,9.535,0,0,1,1.995-.723,3.007,3.007,0,0,0,2.309-1.239m3.087,6.637c0-.058.01-.117.011-.175.016-.6.243-.883.756-.892.53-.009.757.266.779.8.02.511.358.749.915.734a.752.752,0,0,0,.84-.817,2.4,2.4,0,0,0-2.421-2.489c-1.533-.086-2.572,1-2.664,2.72a4.462,4.462,0,0,0-2.244,1.134,2.472,2.472,0,0,0,.336,3.52,4.174,4.174,0,0,0,4.251.431,2.383,2.383,0,0,0,1.666-2.2,2.306,2.306,0,0,0-1.144-2.221c-.345-.206-.72-.363-1.081-.542" transform="translate(548 2655)" fill="#cb8a5a"/>
        <path id="Trazado_279915" data-name="Trazado 279915" d="M50.087,149.87a23.478,23.478,0,0,1-1.645-6.037,29.189,29.189,0,0,1-.34-4.082,30.881,30.881,0,0,1,2.154-11.1c.455-1.147.976-2.266,1.459-3.4a3.641,3.641,0,0,0,.137-.5l0,0c.039-.041.077-.083.115-.124a13.018,13.018,0,0,1,3.06-2.052c.165,1.29.3,2.555.5,3.81a7.081,7.081,0,0,0,1.544,3.413,6.754,6.754,0,0,1,1.623,5.038,7.683,7.683,0,0,1-1.55,3.664c-1.327,1.868-2.75,3.668-4.094,5.525a17.724,17.724,0,0,0-2.762,5.336c-.052.175-.129.342-.194.513" transform="translate(548 2655)" fill="#f2d98d"/>
        <path id="Trazado_279916" data-name="Trazado 279916" d="M73.851,120.166c.121,2.736-2.044,5.77-5.316,5.245a7.254,7.254,0,0,1-2.386-1.186,24.191,24.191,0,0,1-2.043-1.488,1.558,1.558,0,0,1-.451-.51,7.53,7.53,0,0,0-2.952-3.078c.77-.156,1.411-.344,2.064-.406a9.926,9.926,0,0,1,4.4.7,18.01,18.01,0,0,0,3.934.9,14.107,14.107,0,0,0,2.752-.179" transform="translate(548 2655)" fill="#f2d98d"/>
        <path id="Trazado_279917" data-name="Trazado 279917" d="M73.9,163.286a19.267,19.267,0,0,0-5.783-.278c-.152.005-.447-.16-.443-.235.078-1.651-.982-2.513-2.212-3.269-.028-.017-.036-.066-.085-.16a10.98,10.98,0,0,0,2.407-4.872c1.137.822,2.2,1.548,3.216,2.34a17.455,17.455,0,0,1,2.108,1.891A3.634,3.634,0,0,1,73.9,161.2c.013.684,0,1.37,0,2.089" transform="translate(548 2655)" fill="#ca8a5a"/>
        <path id="Trazado_279918" data-name="Trazado 279918" d="M33.722,175.444c-.843,0-1.686.006-2.529,0a.968.968,0,0,1-1.033-1.008c-.02-.529-.015-1.059,0-1.588a.912.912,0,0,1,.945-.957c1.234-.014,2.471-.047,3.7.01a2.636,2.636,0,0,1,2.524,2.321.97.97,0,0,1-1.022,1.231c-.861-.028-1.725-.007-2.587-.007" transform="translate(548 2655)" fill="#707c89"/>
        <path id="Trazado_279919" data-name="Trazado 279919" d="M60.454,175.444c-.825,0-1.65.006-2.474,0a.929.929,0,0,1-1.055-1.035c-.016-.529-.016-1.06,0-1.59a.9.9,0,0,1,.913-.928c1.256-.017,2.516-.06,3.769.012a2.653,2.653,0,0,1,2.5,2.4.926.926,0,0,1-1,1.135c-.883.013-1.767,0-2.651,0" transform="translate(548 2655)" fill="#8894a2"/>
        <path id="Trazado_279920" data-name="Trazado 279920" d="M71.252,168.285c-.863,0-1.725.008-2.588,0a.929.929,0,0,1-1.011-1.014c-.008-.549-.014-1.1,0-1.647a.8.8,0,0,1,.763-.874,33.945,33.945,0,0,1,4.27.117,2.339,2.339,0,0,1,2.043,2.776c-.057.468-.39.644-.833.645H71.252" transform="translate(548 2655)" fill="#707c89"/>
        <path id="Trazado_279921" data-name="Trazado 279921" d="M40.3,170.061H36.806a16.939,16.939,0,0,1-.365-2.664,5.866,5.866,0,0,1,.542-1.93c.757-1.963,2.3-2.682,4.464-2.476-1.988,2.124-1.841,4.562-1.149,7.07" transform="translate(548 2655)" fill="#c37b46"/>
        <path id="Trazado_279922" data-name="Trazado 279922" d="M56.843,122.614c.128-.828.189-1.442.336-2.036a.7.7,0,0,1,.508-.418,5.045,5.045,0,0,1,4.507,3.18c.209.536.035.885-.52.927a7.5,7.5,0,0,0-3.425,1.253c-.46.287-.62.1-.72-.254-.268-.938-.491-1.889-.686-2.652" transform="translate(548 2655)" fill="#d9a884"/>
        <path id="Trazado_279923" data-name="Trazado 279923" d="M38.991,175.443a4.615,4.615,0,0,0-.714-3.581,19.823,19.823,0,0,1,2.467.173,2.4,2.4,0,0,1,1.918,2.519.788.788,0,0,1-.763.871c-.952.059-1.91.018-2.908.018" transform="translate(548 2655)" fill="#636e7d"/>
        <path id="Trazado_279924" data-name="Trazado 279924" d="M51.964,124.623l-.115.124.115-.124" transform="translate(548 2655)" fill="#ebca5f"/>
        <path id="Trazado_279925" data-name="Trazado 279925" d="M66.941,131.473c.361.179.736.336,1.081.542a2.306,2.306,0,0,1,1.144,2.221,2.383,2.383,0,0,1-1.666,2.2,4.174,4.174,0,0,1-4.251-.431,2.472,2.472,0,0,1-.336-3.52,4.462,4.462,0,0,1,2.244-1.134c.684.788,1.241.825,1.784.12" transform="translate(548 2655)" fill="#fffefe"/>
        <path id="Trazado_279926" data-name="Trazado 279926" d="M66.941,131.473c-.543.7-1.1.668-1.784-.12.092-1.717,1.131-2.806,2.664-2.72a2.4,2.4,0,0,1,2.421,2.489.752.752,0,0,1-.84.817c-.557.015-.895-.223-.915-.734-.022-.533-.249-.808-.779-.8-.513.009-.74.289-.756.892,0,.058-.007.117-.011.175" transform="translate(548 2655)" fill="#010101"/>
      </g>
    </g>
  </g>
</svg>
