<svg xmlns="http://www.w3.org/2000/svg" width="83" height="83" viewBox="0 0 83 83">
  <g id="Grupo_1069951" data-name="Grupo 1069951" transform="translate(-1020 -2681)">
    <circle id="Elipse_4701" data-name="Elipse 4701" cx="41.5" cy="41.5" r="41.5" transform="translate(1020 2681)" fill="#3b5620"/>
    <g id="Grupo_261841" data-name="Grupo 261841" transform="translate(463.854 -180.745)">
      <path id="Trazado_279929" data-name="Trazado 279929" d="M80.146,236.2c-.128.266-.262.528-.383.8a7.329,7.329,0,0,1-3.779,3.413c-.435.216-.875.42-1.309.628a15.032,15.032,0,0,1-3.111,7.529c-.629.793-1.414,1.46-2.076,2.23-.583.678-1.093,1.42-1.639,2.131-.141.183-.263.422-.452.52-.779.4-.6,1.109-.6,1.758a26.27,26.27,0,0,1-.02,2.931,6.3,6.3,0,0,1-1.274,3.419,12.993,12.993,0,0,1-1.736,1.678.8.8,0,0,0-.368.694q.007,3.221-.007,6.44a6.151,6.151,0,0,0-.09.669,1.514,1.514,0,0,0,.243.712c.452.61,1.157.986,1.434,1.778a2.525,2.525,0,0,1-2.351,3.348c-1.377-.058-2.751.031-4.137-.118a23.55,23.55,0,0,0-3.886.123,3.817,3.817,0,0,1-2.773-1.012,5.259,5.259,0,0,1-1.669-3.459c-.215-1.386-.456-2.768-.713-4.147a.5.5,0,0,0-.369-.313c-2.619,0-5.08-.812-7.585-1.409-1.214-.29-2.452-.478-3.741-.724a17.718,17.718,0,0,0,.045,2.742,1.668,1.668,0,0,0,.958.989,7.306,7.306,0,0,1,3.466,2.709,4.144,4.144,0,0,1,.824,2.437,2.555,2.555,0,0,1-2.2,2.165c-1.372-.051-2.751.086-4.127.086-2.233,0-4.466-.078-6.7-.057a6.807,6.807,0,0,1-3.172-.645,6.126,6.126,0,0,1-3.124-3.568c-.726-2.117-1.258-4.3-1.893-6.448a4.852,4.852,0,0,1-.345-2.242,13.547,13.547,0,0,1,.572-2.283,1.957,1.957,0,0,0-.154-2.08,9.012,9.012,0,0,1-1.7-6.547,8.875,8.875,0,0,1,2.312-5.077c.245-.271.253-.411.058-.727a15.639,15.639,0,0,1-2.238-5.533,11.121,11.121,0,0,1,2.027-8.814c.546-.739,1.186-1.409,1.754-2.133a.629.629,0,0,0,.051-.544,4.361,4.361,0,0,1,.49-4.817,4.726,4.726,0,0,1,1.595-1.265c1.32-.658,2.683-1.24,4.058-1.775a1.882,1.882,0,0,1,2.615,1.567,3.788,3.788,0,0,1-.208,1.156q-.243,1.457-.469,2.917c-.161,1.037.009,2.171-.721,3.048a4.553,4.553,0,0,1-2.553,1.5,4.346,4.346,0,0,1-3.349-.676c-5.031,4.511-4.375,10.35-1.3,14.71,5.5-4,11.925-5.06,18.6-5.621-.884-.493-1.707-.916-2.494-1.4a5.382,5.382,0,0,1-2.411-2.876c-.631-1.9-.1-3.1,1.448-4.362a5.571,5.571,0,0,1,.761-.479c.858-.493.854-.489.571-1.41a8.324,8.324,0,0,1,1.272-7.392,9.849,9.849,0,0,1,5.461-4.014,5.863,5.863,0,0,1,2.927-.2,1.517,1.517,0,0,1,.943,2.322c-.5.887-1.213,1.655-1.766,2.518a20.356,20.356,0,0,0-1.293,2.376c-.107.229.04.576.073.9.912-.611,1.746-1.23,2.636-1.753a11.649,11.649,0,0,1,3.965-1.553,28.726,28.726,0,0,1,3.159-.439,25.19,25.19,0,0,1,3.248.1c.6.047,1.027.131,1.074,1.125a1.283,1.283,0,0,1-1.371.634,26.322,26.322,0,0,0-3.469-.092,24.647,24.647,0,0,0-3.163.656,11.166,11.166,0,0,0-3.954,2.027l1.406,1.078c.224.105.445.217.673.313a6.578,6.578,0,0,1,4.21,5.425c.166,1.183.164,2.388.251,3.582.043.6.107,1.189.176,1.782.037.319,0,.787.186.913.224.153.645.006.981,0,.716-.006,1.431,0,2.168,0,0-.289-.016-.5,0-.715.155-1.765.328-3.529.473-5.295A6.7,6.7,0,0,1,62.9,230.69a7.218,7.218,0,0,1,2.8-1.8,2.577,2.577,0,0,0,1.572-1.407c-.833-.458-1.648-.889-2.444-1.35-.442-.256-.771-.6-.513-1.177a.89.89,0,0,1,1.352-.325c1.212.729,2.394,1.506,3.59,2.262a.841.841,0,0,0,.171.055,3.174,3.174,0,0,0-.8-2.8c-.692-.91-1.4-1.812-2.042-2.757a1.563,1.563,0,0,1-.146-1.8,1.762,1.762,0,0,1,1.642-.845,9.013,9.013,0,0,1,5.861,2.284,9.5,9.5,0,0,1,3.323,5.31,8.285,8.285,0,0,1-.3,4.62c-.131.4-.058.5.261.682a5.368,5.368,0,0,1,2.627,2.444c.1.236.2.471.294.707Zm-29.155-5.86-1.745-1.508a13.8,13.8,0,0,0-.859,19.358A7.212,7.212,0,0,1,50.059,245c.153-.147.313-.289.459-.443a11.3,11.3,0,0,1,4.509-3.091.689.689,0,0,0,.534-.845c-.131-1.633-.212-3.27-.369-4.9a9.4,9.4,0,0,0-.441-2.233,5.12,5.12,0,0,0-3.76-3.15m.226,16.036c-.092.118-.18.238-.276.352a3.267,3.267,0,0,0-.489,3.529c.793,2.032,2.465,3.066,4.35,3.859a11.258,11.258,0,0,0,5.192.69,18.906,18.906,0,0,0,2.121-.371A7.935,7.935,0,0,0,67.2,250.8a3.243,3.243,0,0,0-.131-3.91,15.911,15.911,0,0,0-2.874-2.745,9.068,9.068,0,0,0-7.243-1.4,10.265,10.265,0,0,0-5.739,3.634m-16.271,2.363c-.68.419-.817.377-1.456-.123a6.99,6.99,0,0,0-1.639-1.062,6.784,6.784,0,0,0-6.9.658A7.438,7.438,0,0,0,23.3,258.54a3.455,3.455,0,0,1,.338,3.881,3.9,3.9,0,0,0-.25,2.908q.738,2.734,1.5,5.462c.1.349.23.689.392,1.17a11.531,11.531,0,0,1,4.394-3.566c0-.878-.007-1.649,0-2.419a6.121,6.121,0,0,1,1.984-4.755c.673-.6,1.484-1.05,2.115-1.686a7.419,7.419,0,0,0,1.944-7.457,1.029,1.029,0,0,1,.4-1.265c.585-.039,1.113.068,1.272.726a9.785,9.785,0,0,1,.133,4.719,8.731,8.731,0,0,1-3.584,5.381c-.529.36-1.006.8-1.581,1.257a4.9,4.9,0,0,0,.611.222c1.7.323,3.407.607,5.1.963,2.752.58,5.491,1.225,8.243,1.8.87.183,1.765.24,2.76.369-.182-1.03-.389-1.888-.474-2.758a8.491,8.491,0,0,1-.035-2.669,3.842,3.842,0,0,1,3.253-2.86,5.31,5.31,0,0,1,4.3,1.688,6.571,6.571,0,0,1,1.925,4.674c1.261-.623,2.474-1.182,3.647-1.815a6.627,6.627,0,0,0,2.407-1.946c1.124-1.613,1.009-3.443.931-5.347-.368.142-.65.25-.931.36a13.2,13.2,0,0,1-5.977,1.016,13.7,13.7,0,0,1-4.533-1.091,8.819,8.819,0,0,1-3.639-2.723,11.707,11.707,0,0,0-1.477-1.9,14.406,14.406,0,0,1-3.331-4.171c-.652-1.261-1.157-2.6-1.764-3.982A47.307,47.307,0,0,0,30.607,245.2a.312.312,0,0,0,.19.124,10,10,0,0,1,3.492,1.655c.743.544.933.981.657,1.754m34.672-.631c4.579-4.386,4.789-14.495-1.012-19.31a5.936,5.936,0,0,1-2.724,1.928,4.548,4.548,0,0,0-1.53.976,5.745,5.745,0,0,0-1.656,4.216c-.03.773-.066,1.546-.126,2.318-.08,1.016-.187,2.029-.277,2.985,3.419,1.347,6.009,3.411,7.325,6.887m-13.3,22.616a2.687,2.687,0,0,0,.038-.3c-.029-2.184.011-4.372-.113-6.551a4.435,4.435,0,0,0-3.271-4.083,2.149,2.149,0,0,0-2.782,2.131,21.642,21.642,0,0,0,.363,2.673q.492,2.848,1.042,5.687c.032.169.265.423.41.426,1.421.033,2.843.02,4.313.02M42.671,230.51a20.359,20.359,0,0,1,2.493-.8,2.531,2.531,0,0,0,1.794-1.1.54.54,0,0,0,.079-.659,3.022,3.022,0,0,1-.464-2.109,8.041,8.041,0,0,1,1.656-3.21c.543-.665,1.064-1.349,1.641-2.082-3.951-.221-9.313,4.79-7.2,9.96m32.594.025a6.732,6.732,0,0,0-1.09-6.75,7.975,7.975,0,0,0-6.1-3.3c.149.234.23.384.332.519.716.953,1.5,1.864,2.141,2.866a3.833,3.833,0,0,1,.441,3.93.747.747,0,0,0,.09.954,1.994,1.994,0,0,0,1.443.9,5.537,5.537,0,0,1,1.145.342c.52.171,1.038.351,1.6.541M26.394,273.586a3.976,3.976,0,0,0,2.677,1.464c1.787.092,3.581.053,5.373.048.6,0,.821-.35.64-.922a4.987,4.987,0,0,0-3.013-2.948c-.516-.24-.968-.615-1.469-.893a.778.778,0,0,0-.592-.1,8.052,8.052,0,0,0-3.616,3.349m4.632-49.555a.542.542,0,0,0-.31.008,44.252,44.252,0,0,0-4.244,2.13,2.475,2.475,0,0,0-.225,3.923,2.532,2.532,0,0,0,3.762.054,1.441,1.441,0,0,0,.364-.75,9.928,9.928,0,0,0,.124-1.084c.173-1.419.35-2.838.529-4.281m30.617,40.6a2.412,2.412,0,0,0-.351.08c-.968.419-1.942.823-2.891,1.28a.793.793,0,0,0-.316.588c-.05.967-.054,1.937-.07,2.9-.006.4,0,.8,0,1.2h3.6c.012-.123.03-.217.03-.31,0-1.889,0-3.778,0-5.744M31.6,264.623a5.929,5.929,0,0,0-.109,3.356c.108.488.1,1.022.569,1.319a4.808,4.808,0,0,0,1.1.485.763.763,0,0,0,.543-.084c.684-.39,1.356-.8,2.022-1.224.128-.08.292-.234.3-.358.026-.853.013-1.706.013-2.5l-4.431-.993M36.933,275.1c1.187,0,2.35,0,3.513,0,.81,0,1.067-.421.725-1.181a4.971,4.971,0,0,0-2.749-2.6,13.881,13.881,0,0,1-1.615-.981c-.145-.086-.368-.206-.483-.153-.445.206-.862.475-1.333.746a5.594,5.594,0,0,1,1.942,4.174m15.138-2.621a2.61,2.61,0,0,0,2.261,2.621c.914-.031,1.832.032,2.745-.009.309-.014.765-.141.879-.359a.892.892,0,0,0-.278-1.138c-.331-.268-.606-.605-.925-.889a.766.766,0,0,0-.44-.217c-1.4-.016-2.8-.009-4.242-.009m7.723,2.624c.965,0,1.877.023,2.786-.016.232-.01.608-.173.651-.336a1.227,1.227,0,0,0-.121-.928,9.833,9.833,0,0,0-1.174-1.208.411.411,0,0,0-.247-.125c-.826-.01-1.652-.006-2.477-.006.712.768.537,1.676.582,2.619M43.56,234.867l1.241-3.2a12.694,12.694,0,0,0-4.782,2.692l3.541.505m34.49-.526a17.119,17.119,0,0,0-4.965-2.715q.654,1.675,1.26,3.225l3.705-.51m.111,1.967c-.022-.07-.044-.141-.065-.211-1.037.152-2.075.295-3.108.467-.129.022-.333.2-.329.3.028.7.1,1.4.164,2.15,1.332-.666,2.664-1.283,3.338-2.709M43,238.886c.087-.665.184-1.286.238-1.911a.442.442,0,0,0-.229-.358c-1.062-.184-2.129-.337-3.225-.5.116,1.073,2.075,2.522,3.216,2.773" transform="translate(548 2655)" fill="#010101"/>
      <path id="Trazado_279930" data-name="Trazado 279930" d="M64.317,224.954c-.258.578.071.921.513,1.176.8.462,1.611.893,2.444,1.351a2.58,2.58,0,0,1-1.572,1.407,7.215,7.215,0,0,0-2.8,1.8,6.7,6.7,0,0,0-1.834,4.064c-.145,1.767-.318,3.53-.473,5.3-.019.211,0,.426,0,.715-.737,0-1.452,0-2.168,0-.336,0-.757.15-.981,0-.185-.126-.149-.594-.186-.913-.069-.593-.133-1.187-.176-1.782-.087-1.194-.085-2.4-.251-3.582a6.578,6.578,0,0,0-4.21-5.425c-.228-.1-.449-.208-.673-.313.535-.63,1.075-1.254,1.6-1.891.327-.4.633-.809.947-1.214a24.821,24.821,0,0,1,3.163-.657,26.5,26.5,0,0,1,3.469.093,1.283,1.283,0,0,0,1.371-.634l1.82.51" transform="translate(548 2655)" fill="#cb8a5a"/>
      <path id="Trazado_279931" data-name="Trazado 279931" d="M34.946,248.736c.276-.773.086-1.21-.657-1.754a10.017,10.017,0,0,0-3.492-1.654.312.312,0,0,1-.19-.125,47.307,47.307,0,0,1,12.767-2.475c.606,1.385,1.112,2.721,1.764,3.983a14.4,14.4,0,0,0,3.331,4.17,11.716,11.716,0,0,1,1.477,1.9,8.825,8.825,0,0,0,3.639,2.722,13.723,13.723,0,0,0,4.532,1.092,13.194,13.194,0,0,0,5.978-1.017c.281-.11.563-.218.93-.36.079,1.9.194,3.734-.93,5.348a6.634,6.634,0,0,1-2.407,1.945c-1.173.634-2.386,1.192-3.648,1.815a6.566,6.566,0,0,0-1.924-4.674,5.31,5.31,0,0,0-4.3-1.688,3.845,3.845,0,0,0-3.254,2.86,8.521,8.521,0,0,0,.036,2.669c.085.87.292,1.728.474,2.759-.995-.129-1.89-.187-2.76-.369-2.752-.578-5.491-1.222-8.243-1.8-1.693-.357-3.4-.64-5.1-.964a4.845,4.845,0,0,1-.611-.222c.575-.46,1.052-.9,1.581-1.256a8.734,8.734,0,0,0,3.584-5.381,9.789,9.789,0,0,0-.133-4.72c-.159-.658-.687-.764-1.272-.726a8.054,8.054,0,0,0-.391-.885c-.239-.41-.522-.8-.786-1.192" transform="translate(548 2655)" fill="#daa985"/>
      <path id="Trazado_279932" data-name="Trazado 279932" d="M34.946,248.736c.264.4.547.782.786,1.192a8.054,8.054,0,0,1,.391.885,1.029,1.029,0,0,0-.4,1.265,7.421,7.421,0,0,1-1.944,7.458c-.631.635-1.442,1.087-2.115,1.685a6.122,6.122,0,0,0-1.984,4.755c-.008.771,0,1.541,0,2.419a11.541,11.541,0,0,0-4.394,3.566c-.162-.48-.3-.82-.392-1.17q-.759-2.729-1.5-5.462a3.9,3.9,0,0,1,.25-2.908,3.453,3.453,0,0,0-.339-3.881,7.439,7.439,0,0,1,1.654-10.331,6.784,6.784,0,0,1,6.9-.657,6.947,6.947,0,0,1,1.639,1.062c.639.5.776.541,1.456.122" transform="translate(548 2655)" fill="#cb8a5a"/>
      <path id="Trazado_279933" data-name="Trazado 279933" d="M69.618,248.1c-1.316-3.476-3.906-5.54-7.325-6.887.09-.956.2-1.969.277-2.985.06-.772.1-1.545.126-2.318a5.748,5.748,0,0,1,1.655-4.216,4.562,4.562,0,0,1,1.531-.976,5.936,5.936,0,0,0,2.724-1.928c5.8,4.815,5.591,14.924,1.012,19.31m-4.344-8.248a2.562,2.562,0,0,0,.013.734,1.771,1.771,0,0,0,.466.864c.58.42,1.268-.032,1.279-.783s-.267-1.613.948-1.749c.6-.068.5-.64.44-1.033a.608.608,0,0,0-.775-.515c-1.1.249-2.191.513-3.274.818-.163.046-.325.327-.369.525q-.231,1.036,1.272,1.139" transform="translate(548 2655)" fill="#d9a985"/>
      <path id="Trazado_279934" data-name="Trazado 279934" d="M51.216,246.373a10.267,10.267,0,0,1,5.74-3.634,9.069,9.069,0,0,1,7.243,1.4,15.916,15.916,0,0,1,2.874,2.746A3.241,3.241,0,0,1,67.2,250.8a7.935,7.935,0,0,1-5.089,3.636,4.462,4.462,0,0,0-.533-.4c-1.461-.8-2.928-1.593-4.393-2.387a2.746,2.746,0,0,0-.221-4.134c-1.534-1.115-3.691-1.182-4.646.51-.256-.336-.523-.664-.764-1.01a6.13,6.13,0,0,1-.342-.635m8.67,3.447a2.116,2.116,0,0,0,1.067,1.965c1.521,1.153,4.239-.169,4.674-1.838a2.373,2.373,0,0,0-.721-2.7,2.953,2.953,0,0,0-1.936-.52,3.188,3.188,0,0,0-3.084,3.1" transform="translate(548 2655)" fill="#f8dde3"/>
      <path id="Trazado_279935" data-name="Trazado 279935" d="M50.991,230.337a5.119,5.119,0,0,1,3.76,3.149,9.4,9.4,0,0,1,.441,2.233c.157,1.63.237,3.267.369,4.9a.689.689,0,0,1-.535.845,11.288,11.288,0,0,0-4.508,3.091c-.146.154-.306.3-.46.443a12.2,12.2,0,0,1-1.289-9.659,21.189,21.189,0,0,1,2.222-5m1.4,9.375c.9.258,1.487-.166,1.407-.928-.052-.487-.366-.638-.811-.729-.961-.2-1.907-.468-2.866-.681a.656.656,0,0,0-.805.571.959.959,0,0,0,.225.79,5.39,5.39,0,0,0,1.122.59c-.008.186-.023.409-.027.633a5.636,5.636,0,0,0,0,.7.924.924,0,0,0,.963.932c.583-.024.793-.3.789-1.021,0-.27,0-.541,0-.857" transform="translate(548 2655)" fill="#d9a885"/>
      <path id="Trazado_279936" data-name="Trazado 279936" d="M50.991,230.337a21.189,21.189,0,0,0-2.222,5A12.2,12.2,0,0,0,50.059,245a7.207,7.207,0,0,0-1.672,3.189,13.8,13.8,0,0,1,.859-19.358l1.745,1.508" transform="translate(548 2655)" fill="#ca8a5a"/>
      <path id="Trazado_279937" data-name="Trazado 279937" d="M56.313,270.721c-1.47,0-2.892.013-4.313-.019-.145,0-.378-.258-.41-.427q-.551-2.838-1.042-5.687a21.642,21.642,0,0,1-.363-2.673,2.149,2.149,0,0,1,2.782-2.131,4.435,4.435,0,0,1,3.271,4.083c.124,2.179.084,4.367.113,6.551a2.687,2.687,0,0,1-.038.3" transform="translate(548 2655)" fill="#cb8a5a"/>
      <path id="Trazado_279938" data-name="Trazado 279938" d="M42.671,230.51c-2.115-5.17,3.248-10.181,7.2-9.96-.577.733-1.1,1.417-1.641,2.082a8.046,8.046,0,0,0-1.657,3.209,3.024,3.024,0,0,0,.465,2.11.539.539,0,0,1-.08.658,2.525,2.525,0,0,1-1.793,1.1,20.3,20.3,0,0,0-2.493.8" transform="translate(548 2655)" fill="#6f7b89"/>
      <path id="Trazado_279939" data-name="Trazado 279939" d="M75.265,230.535c-.559-.19-1.077-.37-1.6-.541a5.555,5.555,0,0,0-1.145-.342,1.992,1.992,0,0,1-1.443-.9.746.746,0,0,1-.09-.954,3.831,3.831,0,0,0-.442-3.93c-.64-1-1.424-1.913-2.141-2.866-.1-.135-.182-.285-.331-.518a7.967,7.967,0,0,1,6.1,3.3,6.73,6.73,0,0,1,1.091,6.75" transform="translate(548 2655)" fill="#8793a1"/>
      <path id="Trazado_279940" data-name="Trazado 279940" d="M26.394,273.586a8.052,8.052,0,0,1,3.616-3.349.779.779,0,0,1,.592.1c.5.278.953.652,1.469.892a4.985,4.985,0,0,1,3.013,2.948c.181.572-.042.92-.64.922-1.792.006-3.586.044-5.373-.048a3.976,3.976,0,0,1-2.677-1.464" transform="translate(548 2655)" fill="#6f7b89"/>
      <path id="Trazado_279941" data-name="Trazado 279941" d="M51.216,246.373a6.218,6.218,0,0,0,.342.634c.241.347.508.675.764,1.011a3.116,3.116,0,0,0,4.867,3.624c1.465.794,2.932,1.585,4.393,2.387a4.359,4.359,0,0,1,.533.4,19.178,19.178,0,0,1-2.121.371,11.241,11.241,0,0,1-5.192-.691c-1.885-.793-3.558-1.826-4.351-3.858a3.267,3.267,0,0,1,.49-3.529c.095-.115.183-.235.275-.352" transform="translate(548 2655)" fill="#f4c8d2"/>
      <path id="Trazado_279942" data-name="Trazado 279942" d="M31.026,224.031c-.179,1.444-.356,2.862-.529,4.281a9.733,9.733,0,0,1-.124,1.085,1.423,1.423,0,0,1-.364.749,2.532,2.532,0,0,1-3.762-.054,2.475,2.475,0,0,1,.226-3.923,44.484,44.484,0,0,1,4.244-2.13.539.539,0,0,1,.309-.008" transform="translate(548 2655)" fill="#ca8a5a"/>
      <path id="Trazado_279943" data-name="Trazado 279943" d="M61.643,264.636c0,1.966,0,3.855,0,5.744,0,.093-.018.186-.03.309h-3.6c0-.4-.005-.8,0-1.2.016-.969.019-1.938.07-2.9A.791.791,0,0,1,58.4,266c.949-.457,1.923-.862,2.891-1.28a2.412,2.412,0,0,1,.351-.08" transform="translate(548 2655)" fill="#c47b46"/>
      <path id="Trazado_279944" data-name="Trazado 279944" d="M31.6,264.623l4.431.992c0,.8.012,1.649-.014,2.5,0,.124-.168.277-.295.358-.666.421-1.338.834-2.022,1.224a.769.769,0,0,1-.543.084,4.789,4.789,0,0,1-1.1-.485c-.47-.3-.461-.831-.569-1.319a5.929,5.929,0,0,1,.109-3.356" transform="translate(548 2655)" fill="#c37b46"/>
      <path id="Trazado_279945" data-name="Trazado 279945" d="M36.932,275.1a5.59,5.59,0,0,0-1.942-4.174c.472-.271.888-.54,1.334-.746.114-.053.337.066.482.153a14.107,14.107,0,0,0,1.615.981,4.976,4.976,0,0,1,2.75,2.6c.341.76.084,1.178-.726,1.181-1.163,0-2.326,0-3.513,0" transform="translate(548 2655)" fill="#636e7d"/>
      <path id="Trazado_279946" data-name="Trazado 279946" d="M52.071,272.479c1.443,0,2.843-.006,4.242.011a.765.765,0,0,1,.44.216c.319.285.594.622.925.889a.894.894,0,0,1,.278,1.139c-.114.218-.569.344-.878.358-.914.042-1.831-.022-2.746.01a2.613,2.613,0,0,1-2.261-2.623" transform="translate(548 2655)" fill="#8793a1"/>
      <path id="Trazado_279947" data-name="Trazado 279947" d="M59.794,275.1c-.045-.943.13-1.851-.582-2.619.825,0,1.651,0,2.477.006a.417.417,0,0,1,.247.125,9.9,9.9,0,0,1,1.174,1.208,1.228,1.228,0,0,1,.121.928c-.043.163-.419.326-.651.336-.909.039-1.821.016-2.786.016" transform="translate(548 2655)" fill="#6f7b89"/>
      <path id="Trazado_279948" data-name="Trazado 279948" d="M43.56,234.867l-3.541-.505A12.7,12.7,0,0,1,44.8,231.67c-.454,1.168-.855,2.2-1.241,3.2" transform="translate(548 2655)" fill="#c27a45"/>
      <path id="Trazado_279949" data-name="Trazado 279949" d="M78.05,234.341l-3.705.511-1.261-3.226a17.148,17.148,0,0,1,4.966,2.715" transform="translate(548 2655)" fill="#c98959"/>
      <path id="Trazado_279950" data-name="Trazado 279950" d="M78.161,236.309c-.674,1.426-2.006,2.042-3.338,2.708-.063-.748-.136-1.448-.164-2.149,0-.1.2-.282.329-.3,1.033-.173,2.071-.316,3.108-.468.021.071.043.141.065.212" transform="translate(548 2655)" fill="#f1d88c"/>
      <path id="Trazado_279951" data-name="Trazado 279951" d="M43,238.886c-1.141-.251-3.1-1.7-3.216-2.773,1.1.167,2.163.32,3.225.5a.442.442,0,0,1,.229.358c-.054.625-.151,1.246-.238,1.911" transform="translate(548 2655)" fill="#e9c95e"/>
      <path id="Trazado_279952" data-name="Trazado 279952" d="M54.494,225.642c-.315.406-.62.819-.947,1.215-.526.636-1.067,1.261-1.6,1.89l-1.407-1.079a11.176,11.176,0,0,1,3.955-2.026" transform="translate(548 2655)" fill="#c27a45"/>
      <path id="Trazado_279953" data-name="Trazado 279953" d="M65.274,239.857q-1.5-.1-1.272-1.139c.044-.2.206-.479.369-.525,1.083-.3,2.177-.569,3.274-.818a.608.608,0,0,1,.775.515c.059.393.16.965-.44,1.033-1.215.136-.938,1.006-.948,1.749s-.7,1.2-1.279.783a1.771,1.771,0,0,1-.466-.864,2.562,2.562,0,0,1-.013-.734" transform="translate(548 2655)" fill="#010101"/>
      <path id="Trazado_279954" data-name="Trazado 279954" d="M57.19,251.642a3.352,3.352,0,0,1-5.124-2.471,3.3,3.3,0,0,1,.257-1.153c.954-1.692,3.112-1.625,4.645-.509a2.745,2.745,0,0,1,.222,4.133m-2.435-3.149c-.737,0-.962.233-.836.868.12.6,1.575,1.267,2.086.936a.645.645,0,0,0,.247-.416,1.4,1.4,0,0,0-1.5-1.388" transform="translate(548 2655)" fill="#010101"/>
      <path id="Trazado_279955" data-name="Trazado 279955" d="M59.887,249.82a3.187,3.187,0,0,1,3.083-3.1,2.954,2.954,0,0,1,1.937.52,2.373,2.373,0,0,1,.721,2.7c-.435,1.669-3.154,2.991-4.674,1.838a2.115,2.115,0,0,1-1.067-1.965m2.562.632a1.726,1.726,0,0,0,1.442-.893.7.7,0,0,0-.276-1.061,1.552,1.552,0,0,0-1.74.666,1.386,1.386,0,0,0-.134.954c.046.164.46.226.708.334" transform="translate(548 2655)" fill="#010101"/>
      <path id="Trazado_279956" data-name="Trazado 279956" d="M52.393,239.712c0,.316,0,.587,0,.857,0,.725-.206,1-.789,1.021a.924.924,0,0,1-.963-.932,5.636,5.636,0,0,1,0-.7c0-.224.019-.447.027-.633a5.39,5.39,0,0,1-1.122-.59.959.959,0,0,1-.225-.79.656.656,0,0,1,.805-.571c.959.213,1.9.484,2.866.681.445.091.759.242.811.729.08.762-.508,1.186-1.407.928" transform="translate(548 2655)" fill="#010101"/>
      <path id="Trazado_279957" data-name="Trazado 279957" d="M54.755,248.493a1.4,1.4,0,0,1,1.5,1.388.645.645,0,0,1-.247.416c-.511.331-1.966-.336-2.086-.936-.126-.635.1-.869.836-.868" transform="translate(548 2655)" fill="#f3c8d2"/>
      <path id="Trazado_279958" data-name="Trazado 279958" d="M62.449,250.452c-.248-.108-.662-.17-.708-.334a1.386,1.386,0,0,1,.134-.954,1.552,1.552,0,0,1,1.74-.666.7.7,0,0,1,.276,1.061,1.726,1.726,0,0,1-1.442.893" transform="translate(548 2655)" fill="#f3c8d2"/>
    </g>
  </g>
</svg>
