<svg xmlns="http://www.w3.org/2000/svg" width="83" height="83" viewBox="0 0 83 83">
  <g id="Grupo_1069958" data-name="Grupo 1069958" transform="translate(-180 -2825)">
    <circle id="Elipse_4702" data-name="Elipse 4702" cx="41.5" cy="41.5" r="41.5" transform="translate(180 2825)" fill="#3b5620"/>
    <g id="Grupo_261842" data-name="Grupo 261842" transform="translate(-376.146 -137.274)">
      <path id="Trazado_279959" data-name="Trazado 279959" d="M69.365,355.468c.089.642-.253.94-.809,1.189a11.194,11.194,0,0,1-5.16.8c-.039,0-.078,0-.117,0-.268-.011-.7-.129-.773-.016a2.527,2.527,0,0,0-.479,1.239c-.039,3.042.017,6.085-.035,9.126a3.244,3.244,0,0,1-3.429,3.316,4.653,4.653,0,0,1-1.91-.721.529.529,0,0,0-.689.02A3.216,3.216,0,0,1,50.742,368c.016-1.481-.009-2.963-.017-4.445l-.092-.1a10.362,10.362,0,0,1-4.2,1.722,9.11,9.11,0,0,1-6.446-1.4l-.167-.106c-.015.041-.03.083-.046.124,0,1.346.021,2.692-.021,4.037a3.283,3.283,0,0,1-3.468,3.3,3.434,3.434,0,0,1-1.656-.617c-.4-.261-.667-.325-1.044-.038a3.183,3.183,0,0,1-5.025-1.777,1.893,1.893,0,0,1-.057-.51c0-2.692-.039-5.385.014-8.076a3.678,3.678,0,0,0-.637-2.256,6.622,6.622,0,0,1-1.1-3.176c-.062-.69-.55-.854-.906-1.15a9.612,9.612,0,0,1-3.212-5.26,12.674,12.674,0,0,1-.243-2.453,3.763,3.763,0,0,1,.148-1.3.892.892,0,0,0-.286-1.065,6.61,6.61,0,0,1,1.962-10.968,6.65,6.65,0,0,1,4.589-.136c.618.184.9-.246,1.225-.528a9.516,9.516,0,0,1,4.739-2.126,9.872,9.872,0,0,1,3.191.111.906.906,0,0,0,.652-.247,9.133,9.133,0,0,1,3.2-1.888.932.932,0,0,1,1.315.512.982.982,0,0,1-.773,1.15,7.857,7.857,0,0,0-3.114,2.073.988.988,0,0,1-1.057.242,7.541,7.541,0,0,0-7.811,2.3,7.914,7.914,0,0,0-1.907,4.008c-.107.593-.031,1.228-.717,1.691a7.431,7.431,0,0,0-3.492,7.611,7.573,7.573,0,0,0,3.134,5.232c.487.363,1.118.652.981,1.477a2.374,2.374,0,0,0,.163.829,7.817,7.817,0,0,0,3.207,4.837,7.543,7.543,0,0,0,5.7,1.255c.671-.1,1.382-.423,2.009.215a7.437,7.437,0,0,0,5.689,2.363,7.871,7.871,0,0,0,5.39-2.251,1.638,1.638,0,0,1,1.547-.4,13.457,13.457,0,0,0,2.988.078,7.148,7.148,0,0,0,3.865-1.77l1.992-2.254a11.233,11.233,0,0,1-4.516-3.459,11.368,11.368,0,0,1-2.067-5.092c-.154.024-.23.03-.3.049-1.479.383-2.924.415-4.024-.833a4.229,4.229,0,0,1-.948-3.559,10.086,10.086,0,0,1,2.82-5.623c.537-.568,1.081-1.051.717-1.922a.478.478,0,0,1,0-.232,5.838,5.838,0,0,1,1.984-3.972c.252-.207.485-.438.817-.74H52.507a3.2,3.2,0,0,0-.657.135.826.826,0,0,1-1.024-.236,8.162,8.162,0,0,0-4.306-2.362,1.011,1.011,0,0,1-.939-1.071c.454-.777.566-.854,1.656-.571a8.734,8.734,0,0,1,3.984,2.049,1.463,1.463,0,0,0,1.414.281,9.392,9.392,0,0,1,5.59.934c.118.055.243.1.408.161,1.172-3.32,3.54-4.938,6.992-4.437a5.716,5.716,0,0,1,4.832,4.5,5.677,5.677,0,0,1,3.691,1.067A4.96,4.96,0,0,1,76.4,336.1a.653.653,0,0,1,0,.117,2.375,2.375,0,0,0,.866,2.181,9.137,9.137,0,0,1,2.657,4.874c.024.132.148.245.226.366v2.108a1.333,1.333,0,0,0-.222.349,3.363,3.363,0,0,1-3.173,2.461c-.64-.04-1.279-.091-1.992-.142-.1.444-.216.991-.354,1.532a9.521,9.521,0,0,1-2.047,3.885.892.892,0,0,1-1.224.217c-.5-.642-.5-.818,0-1.443a8,8,0,0,0,1.855-4.525c.115-2.056.067-4.12.085-6.181a.764.764,0,0,0-.04-.234l-2.841.236a3.159,3.159,0,0,1-.545-.142,1.429,1.429,0,0,0-1.672.21,5.554,5.554,0,0,1-3.247,1.089,5.708,5.708,0,0,1-3.769-1.223,1.115,1.115,0,0,0-1.2-.2,5.432,5.432,0,0,1-3.371.005l-.226.009c-.005,1.814.02,3.629-.024,5.442a7.912,7.912,0,0,0,1.439,4.849,17.1,17.1,0,0,0,1.943,2.008,2.061,2.061,0,0,0,.319.327,8.306,8.306,0,0,0,8.027.764,1.018,1.018,0,0,1,1.5.425M35.522,368.94a1.388,1.388,0,0,0,2.334-.524A3.091,3.091,0,0,0,38,367.4c.015-1.589.007-3.178.007-4.807l-1.309.16H35.025c0,1.715-.006,3.371,0,5.026,0,.446.03.9.494,1.157m-5.05-.346a.665.665,0,0,0,.074.212,1.425,1.425,0,0,0,1.677.474,1.511,1.511,0,0,0,1.023-1.447c.041-1.842.014-3.686.014-5.493l-1.247-.522-1.754-1.035c0,2.433,0,4.841.01,7.248a1.806,1.806,0,0,0,.2.563m22.5.355a1.147,1.147,0,0,0,1.21.378,1.559,1.559,0,0,0,1.313-1.786c.008-1.284,0-2.568,0-3.852v-1.065l-.882.127h-2.1c0,1.795-.021,3.557.02,5.316.008.3.286.588.439.882m6.207-7.755c-.568.283-1.147.547-1.7.861a.632.632,0,0,0-.216.476c-.008,1.8.012,3.607.008,5.411a1.289,1.289,0,0,0,.848,1.252.923.923,0,0,0,1.108.074,1.7,1.7,0,0,0,1.026-1.647c-.019-2.218-.007-4.436-.007-6.655v-.621l-1.069.849m15.692-16.029c.028.417-.1.958.113,1.23.658.838,2.739.462,3.16-.525a5,5,0,0,0,.209-.948,8.1,8.1,0,0,0-2.7-5.723c-.3.543-.734.992-.762,1.466-.088,1.495-.022,3-.016,4.5m-23.988-.239a1.72,1.72,0,0,0,2.076,1.88c1.261-.08,1.459-.294,1.421-1.531,0-.039-.01-.077-.015-.116.007-1.228-.049-2.46.041-3.682a2.4,2.4,0,0,0-.959-2.178c-1.447,1.6-2.692,3.291-2.564,5.627m-24.141-11.11a4.527,4.527,0,0,0-4.424,2.912,4.286,4.286,0,0,0,.315,4.255l.642.954a29.966,29.966,0,0,1,2.194-2.666c.722-.7,1.521-1.288,1.461-2.433a.449.449,0,0,1,.057-.163c.365-.91.73-1.821,1.147-2.859Zm34.771-4.468a3.938,3.938,0,0,0-1.268,2.526c-.095.585-.385.9-.974.875-.323-.013-.643-.1-.967-.116a3.744,3.744,0,1,0,1.565,7.1,1.126,1.126,0,0,1,1.577.256,4.346,4.346,0,0,0,6.273-.03,1.151,1.151,0,0,1,1.541-.238,10.49,10.49,0,0,0,1.4.384,6.136,6.136,0,0,0,1.2-.1,3.694,3.694,0,0,0,2.687-4.661,3.773,3.773,0,0,0-4.369-2.617c-.727.183-1.1-.089-1.258-.859a5.3,5.3,0,0,0-1.425-2.728c-1.384-1.432-4.7-1.539-5.975.21" transform="translate(548 2655)" fill="#010101"/>
      <path id="Trazado_279960" data-name="Trazado 279960" d="M45.582,327.946a1.011,1.011,0,0,0,.938,1.072,8.158,8.158,0,0,1,4.307,2.362.824.824,0,0,0,1.024.235,3.128,3.128,0,0,1,.657-.134,1.017,1.017,0,0,1-.078.333,5.851,5.851,0,0,0-.887,4.455,1.406,1.406,0,0,1-.347.985c-.784.932-1.738,1.738-2.421,2.733a7.935,7.935,0,0,0-1.672,5.666,6.043,6.043,0,0,0,5.379,5.008c.371.038.878-.135,1.089.052.261.232.279.738.4,1.126.058.185.116.371.172.557a11.01,11.01,0,0,0,3.835,5.915c.338.254.653.537.979.807a7.151,7.151,0,0,1-3.866,1.77,13.459,13.459,0,0,1-2.988-.078,1.639,1.639,0,0,0-1.547.4,7.866,7.866,0,0,1-5.389,2.251A7.438,7.438,0,0,1,39.48,361.1c-.627-.638-1.339-.317-2.009-.215a7.542,7.542,0,0,1-5.7-1.256,7.811,7.811,0,0,1-3.206-4.836,2.381,2.381,0,0,1-.164-.829c.137-.826-.494-1.114-.981-1.478a7.566,7.566,0,0,1-3.133-5.231,7.43,7.43,0,0,1,3.491-7.611c.686-.463.611-1.1.717-1.691a7.93,7.93,0,0,1,1.907-4.008,7.543,7.543,0,0,1,7.811-2.3.989.989,0,0,0,1.057-.242,7.853,7.853,0,0,1,3.114-2.073.982.982,0,0,0,.773-1.15Zm-1.827,27.9c.711-.238,1.417-.492,2.136-.7a.959.959,0,0,1,.675.006,4.258,4.258,0,0,0,5.058-.648,1.317,1.317,0,0,0,.253-1.043.631.631,0,0,0-.829-.443,2.142,2.142,0,0,0-.769.305,2.335,2.335,0,0,1-3.305-.057,1.181,1.181,0,0,0-1.375-.082,2.523,2.523,0,0,1-3.6.03.937.937,0,0,0-1.238.025.745.745,0,0,0,.042,1.229,5.016,5.016,0,0,0,2.956,1.382M42.4,339.439a4.453,4.453,0,0,0,2.835-.949.967.967,0,0,0,.326-1.382,1.059,1.059,0,0,0-1.408-.036,1.976,1.976,0,0,1-2.827.012.979.979,0,0,0-1.27-.088,2.1,2.1,0,0,1-3.064,0,1.049,1.049,0,0,0-1.225.063.808.808,0,0,0,.089,1.221,3.619,3.619,0,0,0,4.285.762.991.991,0,0,1,.944-.013,8.575,8.575,0,0,0,1.315.413m-9.584,9.368a4.16,4.16,0,0,0,2.562-.943c.482-.379.687-.933.42-1.324a1.084,1.084,0,0,0-1.5-.088,1.972,1.972,0,0,1-2.858-.048,1.181,1.181,0,0,0-1.284-.015.854.854,0,0,0,.036,1.233,3.729,3.729,0,0,0,2.62,1.185" transform="translate(548 2655)" fill="#dddaec"/>
      <path id="Trazado_279961" data-name="Trazado 279961" d="M70.19,341.9l2.84-.236a.731.731,0,0,1,.04.234c-.017,2.06.03,4.125-.084,6.181a8,8,0,0,1-1.856,4.525c-.493.625-.495.8,0,1.442q-.884.71-1.768,1.418a1.018,1.018,0,0,0-1.5-.425,8.305,8.305,0,0,1-8.027-.764,2.018,2.018,0,0,1-.319-.327,22.066,22.066,0,0,0,3.234-.231,9.206,9.206,0,0,0,6.772-5.734,4.728,4.728,0,0,0,.192-1.07q.115-.816.229-1.632c.081-.165.23-.329.234-.5.022-.961.01-1.923.01-2.885" transform="translate(548 2655)" fill="#ffcebf"/>
      <path id="Trazado_279962" data-name="Trazado 279962" d="M39.776,363.794c.015-.041.03-.082.046-.123l.167.105Z" transform="translate(548 2655)" fill="silver"/>
      <path id="Trazado_279963" data-name="Trazado 279963" d="M50.633,363.451l.092.1-.092-.1" transform="translate(548 2655)" fill="#e1e1e1"/>
      <path id="Trazado_279964" data-name="Trazado 279964" d="M70.19,341.9c0,.961.013,1.923-.01,2.884,0,.168-.152.332-.234.5-.536-.771-1.345-.824-1.619-.058a2.328,2.328,0,0,0,0,1.373c.186.6.473.629,1.391.316a4.783,4.783,0,0,1-.193,1.071,9.2,9.2,0,0,1-6.772,5.733,22.049,22.049,0,0,1-3.233.232,17.03,17.03,0,0,1-1.944-2.008,7.917,7.917,0,0,1-1.439-4.85c.044-1.813.019-3.628.024-5.442l.226-.008a5.432,5.432,0,0,0,3.371-.006,1.115,1.115,0,0,1,1.2.2,5.707,5.707,0,0,0,3.769,1.222,5.553,5.553,0,0,0,3.247-1.088,1.43,1.43,0,0,1,1.672-.211,3.158,3.158,0,0,0,.545.143m-8.732,4.007.1-.089c-.184-.336-.293-.781-.575-.972-.221-.15-.861-.1-.953.061a2.38,2.38,0,0,0-.3,1.389,1.312,1.312,0,0,0,.745.811c.187.08.615-.176.8-.395.159-.183.129-.53.183-.8" transform="translate(548 2655)" fill="#ffdfcf"/>
      <path id="Trazado_279965" data-name="Trazado 279965" d="M70.656,340.1a10.3,10.3,0,0,1-1.4-.384,1.152,1.152,0,0,0-1.541.239,4.346,4.346,0,0,1-6.273.029,1.127,1.127,0,0,0-1.577-.256,3.744,3.744,0,1,1-1.565-7.1c.323.012.644.1.967.116.588.024.879-.289.974-.875a3.941,3.941,0,0,1,1.268-2.526,3.893,3.893,0,0,1,.551.163,4.879,4.879,0,0,1,2.649,2.728,2.135,2.135,0,0,0,2.454,1.6,2.973,2.973,0,0,1,2.956,1.488,4.687,4.687,0,0,1,.763,2.644c-.039.711-.151,1.418-.23,2.127" transform="translate(548 2655)" fill="#f9f6f6"/>
      <path id="Trazado_279966" data-name="Trazado 279966" d="M58.958,359.118c-.325-.27-.641-.553-.978-.807a11,11,0,0,1-3.835-5.915q-.084-.279-.173-.557c-.122-.388-.141-.894-.4-1.126-.21-.187-.718-.014-1.089-.051a6.044,6.044,0,0,1-5.378-5.009,7.93,7.93,0,0,1,1.672-5.666c.683-.995,1.637-1.8,2.421-2.732a1.413,1.413,0,0,0,.346-.986,5.859,5.859,0,0,1,.887-4.455.969.969,0,0,0,.078-.333h2.921c-.332.3-.565.533-.817.74a5.838,5.838,0,0,0-1.984,3.972.466.466,0,0,0,0,.232c.363.87-.18,1.354-.717,1.922a10.09,10.09,0,0,0-2.821,5.623,4.233,4.233,0,0,0,.949,3.559c1.1,1.248,2.544,1.216,4.024.833.073-.019.149-.025.3-.049a11.368,11.368,0,0,0,2.067,5.092,11.242,11.242,0,0,0,4.516,3.459l-1.992,2.254" transform="translate(548 2655)" fill="#d0cee7"/>
      <path id="Trazado_279967" data-name="Trazado 279967" d="M70.656,340.1c.079-.709.191-1.416.23-2.127a4.687,4.687,0,0,0-.763-2.644,2.973,2.973,0,0,0-2.956-1.488,2.135,2.135,0,0,1-2.454-1.6,4.879,4.879,0,0,0-2.649-2.728,3.893,3.893,0,0,0-.551-.163c1.272-1.748,4.591-1.642,5.975-.21a5.3,5.3,0,0,1,1.424,2.729c.157.769.531,1.041,1.258.859a3.774,3.774,0,0,1,4.37,2.617A3.7,3.7,0,0,1,71.853,340a6.136,6.136,0,0,1-1.2.1" transform="translate(548 2655)" fill="#dddaec"/>
      <path id="Trazado_279968" data-name="Trazado 279968" d="M22.633,340.983a4.286,4.286,0,0,1-.314-4.255,4.525,4.525,0,0,1,4.423-2.912,1.941,1.941,0,0,1-.035.287c-.268.968-.516,1.942-.826,2.9a2.009,2.009,0,0,1-.574.868,9.118,9.118,0,0,0-2.674,3.116" transform="translate(548 2655)" fill="#365d7c"/>
      <path id="Trazado_279969" data-name="Trazado 279969" d="M50.883,344.926C50.755,342.59,52,340.9,53.447,339.3a2.4,2.4,0,0,1,.959,2.178c-.09,1.222-.034,2.454-.04,3.682a3.76,3.76,0,0,1-3.483-.233" transform="translate(548 2655)" fill="#365d7c"/>
      <path id="Trazado_279970" data-name="Trazado 279970" d="M74.871,345.165c-.006-1.5-.072-3.005.016-4.5.028-.474.467-.923.762-1.466a8.1,8.1,0,0,1,2.7,5.723c-.258.124-.516.251-.776.372a3.956,3.956,0,0,1-2.706-.129" transform="translate(548 2655)" fill="#365d7c"/>
      <path id="Trazado_279971" data-name="Trazado 279971" d="M58.121,369.194a1.289,1.289,0,0,1-.848-1.252c0-1.8-.016-3.607-.008-5.411a.632.632,0,0,1,.216-.476c.551-.314,1.13-.578,1.7-.861,0,1.947-.007,3.895.01,5.842a2.456,2.456,0,0,1-.8,1.808,3.71,3.71,0,0,0-.271.35" transform="translate(548 2655)" fill="#ffdfcf"/>
      <path id="Trazado_279972" data-name="Trazado 279972" d="M52.972,368.949c-.153-.294-.431-.584-.438-.882-.042-1.759-.021-3.52-.021-5.316h2.1c0,1.09.008,2.18,0,3.27a8.575,8.575,0,0,1-.084,1.1c-.131.934-.86,1.372-1.557,1.832" transform="translate(548 2655)" fill="#ffdfcf"/>
      <path id="Trazado_279973" data-name="Trazado 279973" d="M30.472,368.594a1.824,1.824,0,0,1-.2-.563c-.014-2.408-.009-4.816-.009-7.248l1.754,1.034c0,1.421.008,2.843,0,4.264a2.536,2.536,0,0,1-1.541,2.513" transform="translate(548 2655)" fill="#ffdfcf"/>
      <path id="Trazado_279974" data-name="Trazado 279974" d="M30.472,368.594a2.536,2.536,0,0,0,1.541-2.513c.009-1.421,0-2.843,0-4.264l1.247.522c0,1.807.026,3.651-.014,5.494a1.515,1.515,0,0,1-1.023,1.447,1.426,1.426,0,0,1-1.678-.475.693.693,0,0,1-.074-.211" transform="translate(548 2655)" fill="#ffcebf"/>
      <path id="Trazado_279975" data-name="Trazado 279975" d="M22.633,340.983a9.118,9.118,0,0,1,2.674-3.116,2.009,2.009,0,0,0,.574-.868c.31-.954.558-1.928.826-2.9a1.941,1.941,0,0,0,.035-.287h1.393c-.417,1.038-.782,1.949-1.147,2.859a.452.452,0,0,0-.058.163c.06,1.146-.738,1.729-1.461,2.433a30.283,30.283,0,0,0-2.193,2.666l-.643-.954" transform="translate(548 2655)" fill="#2b4c65"/>
      <path id="Trazado_279976" data-name="Trazado 279976" d="M35.522,368.94c-.464-.257-.491-.711-.493-1.156-.01-1.656,0-3.312,0-5.027H36.7c0,1.47.007,2.941,0,4.412a1.7,1.7,0,0,1-1.175,1.771" transform="translate(548 2655)" fill="#ffdfcf"/>
      <path id="Trazado_279977" data-name="Trazado 279977" d="M58.121,369.194a3.71,3.71,0,0,1,.271-.35,2.456,2.456,0,0,0,.8-1.808c-.017-1.947-.008-3.9-.01-5.842l1.069-.849v.621c0,2.219-.012,4.437.007,6.655a1.7,1.7,0,0,1-1.026,1.647.923.923,0,0,1-1.108-.074" transform="translate(548 2655)" fill="#ffcebf"/>
      <path id="Trazado_279978" data-name="Trazado 279978" d="M35.522,368.94a1.7,1.7,0,0,0,1.175-1.771c.007-1.471,0-2.942,0-4.412l1.309-.16c0,1.629.008,3.218-.006,4.807a3.092,3.092,0,0,1-.144,1.012,1.388,1.388,0,0,1-2.334.524" transform="translate(548 2655)" fill="#ffcebf"/>
      <path id="Trazado_279979" data-name="Trazado 279979" d="M52.972,368.949c.7-.46,1.426-.9,1.557-1.832a8.575,8.575,0,0,0,.084-1.1c.01-1.09,0-2.18,0-3.27l.882-.127v1.065c0,1.284.006,2.568,0,3.852a1.559,1.559,0,0,1-1.313,1.786,1.147,1.147,0,0,1-1.21-.378" transform="translate(548 2655)" fill="#ffcebf"/>
      <path id="Trazado_279980" data-name="Trazado 279980" d="M50.883,344.926a3.76,3.76,0,0,0,3.483.233c0,.039.012.077.014.116.039,1.237-.159,1.451-1.421,1.531a1.72,1.72,0,0,1-2.076-1.88" transform="translate(548 2655)" fill="#2b4c65"/>
      <path id="Trazado_279981" data-name="Trazado 279981" d="M74.871,345.165a3.956,3.956,0,0,0,2.706.129c.26-.121.518-.248.776-.372a5,5,0,0,1-.209.948c-.421.987-2.5,1.363-3.16.525-.214-.272-.085-.812-.113-1.23" transform="translate(548 2655)" fill="#2b4c65"/>
      <path id="Trazado_279982" data-name="Trazado 279982" d="M56.387,341.644l-.226.009.226-.009" transform="translate(548 2655)" fill="#e8cbbd"/>
      <path id="Trazado_279983" data-name="Trazado 279983" d="M43.754,355.848a5.013,5.013,0,0,1-2.955-1.382.745.745,0,0,1-.043-1.229.939.939,0,0,1,1.238-.025,2.524,2.524,0,0,0,3.6-.03,1.181,1.181,0,0,1,1.375.082,2.333,2.333,0,0,0,3.3.058,2.139,2.139,0,0,1,.769-.3.632.632,0,0,1,.83.442,1.321,1.321,0,0,1-.253,1.044,4.26,4.26,0,0,1-5.059.647.964.964,0,0,0-.675-.006c-.718.213-1.425.466-2.136.7" transform="translate(548 2655)" fill="#010101"/>
      <path id="Trazado_279984" data-name="Trazado 279984" d="M42.4,339.439a8.553,8.553,0,0,1-1.315-.414.991.991,0,0,0-.944.013,3.617,3.617,0,0,1-4.285-.762.809.809,0,0,1-.089-1.22,1.048,1.048,0,0,1,1.225-.063,2.1,2.1,0,0,0,3.064,0,.976.976,0,0,1,1.27.088,1.976,1.976,0,0,0,2.827-.013,1.06,1.06,0,0,1,1.409.037.967.967,0,0,1-.327,1.382,4.456,4.456,0,0,1-2.835.949" transform="translate(548 2655)" fill="#010101"/>
      <path id="Trazado_279985" data-name="Trazado 279985" d="M32.815,348.807a3.729,3.729,0,0,1-2.62-1.185.854.854,0,0,1-.036-1.233,1.181,1.181,0,0,1,1.284.015,1.972,1.972,0,0,0,2.858.048,1.084,1.084,0,0,1,1.5.088c.267.391.062.945-.42,1.324a4.16,4.16,0,0,1-2.562.943" transform="translate(548 2655)" fill="#010101"/>
      <path id="Trazado_279986" data-name="Trazado 279986" d="M69.718,346.917c-.918.313-1.2.289-1.391-.317a2.325,2.325,0,0,1,0-1.372c.274-.767,1.083-.713,1.619.058l-.228,1.631" transform="translate(548 2655)" fill="#010101"/>
      <path id="Trazado_279987" data-name="Trazado 279987" d="M61.458,345.911c-.054.275-.024.622-.183.8-.189.219-.617.475-.8.395a1.312,1.312,0,0,1-.745-.811,2.38,2.38,0,0,1,.3-1.389c.092-.163.732-.211.953-.061.282.191.391.636.575.972l-.1.089" transform="translate(548 2655)" fill="#010101"/>
    </g>
  </g>
</svg>
