<svg xmlns="http://www.w3.org/2000/svg" width="105.531" height="108.322" viewBox="0 0 105.531 108.322">
  <g id="Grupo_1015342" data-name="Grupo 1015342" transform="translate(-13738.014 9798.166)">
    <path id="Trazado_605578" data-name="Trazado 605578" d="M175.95,145.047c0,9.561-.023,19.123,0,28.684.007,3.58,2.911,6.76,6.093,6.773l-.012,5.386c-3.542-.044-6.088,2.3-6.087,5.607s2.545,5.65,6.087,5.607c.014,3.355.045,6.71.032,10.065a1.968,1.968,0,0,1-2.212,2.2q-16.248.005-32.5-.021a6.821,6.821,0,0,0-3.285-5.166,6.68,6.68,0,0,0-10.043,5.165l-8.36-.039a6.856,6.856,0,0,0-6.9-6.053c-4.044-.028-8.089,0-12.133-.012a3,3,0,0,1-3.231-3.163q-.006-25.99.013-51.981a3.375,3.375,0,0,0,2.934-2.477c.057-.194.148-.535.238-.54a7.288,7.288,0,0,1,3.267.126c.827.343.692,1.174.692,1.9q0,22.719,0,45.438c0,2.973,1.593,4.575,4.555,4.575q25.08,0,50.16,0c2.954,0,4.546-1.609,4.548-4.585q.005-12.126,0-24.251,0-10.721,0-21.443c0-1.43.389-1.822,1.8-1.826,1.445,0,2.891.023,4.337.036" transform="translate(13641.775 -9901.269)" fill="#bcc1c8"/>
    <path id="Trazado_605579" data-name="Trazado 605579" d="M122.437,197.357l8.36.039h13.328q16.248.014,32.5.021a1.968,1.968,0,0,0,2.212-2.2c.012-3.355-.019-6.71-.032-10.065.014-.68.032-1.36.041-2.039a.991.991,0,0,1,.971-1.119c.72-.03,1.072.431,1.072,1.137,0,4.213.047,8.426-.032,12.638a3.943,3.943,0,0,1-3.738,3.691c-.339.023-.68.011-1.021.011H97.837c-3.323,0-4.823-1.5-4.823-4.818q0-42,0-84c0-3.025,1.129-4.161,4.131-4.164.894,0,1.788-.017,2.681,0a3.184,3.184,0,0,1,3.376,3.225c.032.76.278.9.953.871,1.147-.05,2.3.02,3.446-.026a1.309,1.309,0,0,1,1.524,1.025c-.183.553-.45,1.018-1.126,1.025-.636.006-1.273.006-1.908.006-2.951,0-2.951,0-2.825,3.01l0,12.3a15.536,15.536,0,0,1-.048,1.776c-.145,1.066.263,1.349,1.32,1.332,4.024-.063,8.051-.025,12.076-.025,3.063,0,3.063,0,2.925-3.083q0-6.15.006-12.3c.011-.716-.024-1.435.046-2.145.077-.765-.266-.892-.938-.878-1.937.038-3.875,0-5.812.021-.778.011-1.308-.235-1.473-1.044.183-.818.737-1.029,1.513-1.017,1.871.03,3.744-.014,5.616.021.72.014,1.105-.024,1.124-.967a3.129,3.129,0,0,1,3.2-3.121c1.105-.04,2.212-.019,3.318-.009,2.345.021,3.639,1.291,3.649,3.618.016,3.4.04,6.808-.02,10.212-.016.877.25,1.2,1.08,1.475,7.12,2.322,11.18,7.36,12.787,14.554.159.714.108,1.251-.554,1.637-1.1.121-1.328-.636-1.515-1.475a17.263,17.263,0,0,0-5.406-9.564c-.356-.313-.69-.636-1.22-.532-.92-1.41-2.476-1.83-3.875-2.5-1.067-.512-1.411-.185-1.288.949.092.838.054,1.691.073,2.537a2.508,2.508,0,0,0,1.01,2.776A8.246,8.246,0,0,1,132.995,133a18.146,18.146,0,0,1,1.882,7.976c.115,3.139-.019,6.279-.183,9.42A62.818,62.818,0,0,1,133.15,162.1c-.266,1.086-.172,1.615,1.082,1.389a1.966,1.966,0,0,1,.382,0,7.373,7.373,0,0,1,3.091,1.684c.822.788,1.544.6,2.313-.138.822-.793,1.726-1.5,2.594-2.242a6.226,6.226,0,0,1,1.271-.575c.956-.2.963-.667.807-1.537-1.03-5.735-1.561-11.536-2.166-17.327-.079-.763.043-1.351.827-1.646,1,.1,1.156.818,1.24,1.634.522,5.116,1.009,10.237,1.813,15.32a6.564,6.564,0,0,1,.2,1.128c-.039,1.617.818,2.335,2.435,2.421a10.971,10.971,0,0,1,2.992-7.732,2.886,2.886,0,0,1,2.9-1.145,2.642,2.642,0,0,1,2.133,2.126,2.73,2.73,0,0,1-1.166,2.9,31.353,31.353,0,0,0-4.911,4.812c-.338.4-.367.6-.059,1.038,1.341,1.9,1.693,1.977,3.489.621,2.867-2.166,5.274-2.065,8.011.35.463.407.92.778,1.587.543.81-.287.509-.989.509-1.528q.024-14.551.012-29.1c0-2.872,1.22-4.076,4.122-4.079,2.851,0,5.7-.013,8.552,0a3.359,3.359,0,0,1,3.671,3.629c.02,2.212-.006,4.425.01,6.637,0,.752-.131,1.447-1.024,1.448s-1.04-.677-1.033-1.438c.019-2.127.013-4.255,0-6.382-.006-1.435-.393-1.843-1.778-1.848-1.445,0-2.891.023-4.337.036-1.446-.013-2.892-.04-4.337-.036-1.413,0-1.8.4-1.8,1.826q-.009,10.721,0,21.443,0,12.126,0,24.251c0,2.976-1.594,4.585-4.547,4.585q-25.081.005-50.161,0c-2.962,0-4.555-1.6-4.555-4.575q0-22.719,0-45.438c0-.721.134-1.553-.693-1.9a7.288,7.288,0,0,0-3.267-.126c-.09,0-.18.345-.238.54a3.375,3.375,0,0,1-2.934,2.477,37.23,37.23,0,0,1-4.08-.07c-.983-.117-1.065.2-1.065,1.037q.033,28.853.019,57.706c0,1.937.669,2.6,2.613,2.6q10.532.009,21.065,0c1.232,0,2.465-.042,3.7-.065m29.329-38.248q1.465-1.2,2.932-2.4a.75.75,0,0,0,.222-1.107.587.587,0,0,0-.98-.084c-.977,1.038-2.048,2.031-2.172,3.589l-.128.114c.028,0,.067,0,.08-.012a.384.384,0,0,0,.046-.1m-50.62-43.43c.014-1.909.032-3.818.039-5.727a1.253,1.253,0,0,0-1.407-1.416q-1.655-.006-3.311,0a1.25,1.25,0,0,0-1.405,1.416c.008,1.909.026,3.818.039,5.727q0,6.122-.006,12.245c-.012,1.528-.015,3.056-.037,4.584-.016,1.053.473,1.577,1.536,1.568q1.529-.013,3.058,0c1.062.01,1.553-.516,1.537-1.568-.021-1.528-.026-3.056-.037-4.584q0-6.123-.006-12.245m20.515,12.245c-.012,1.528-.015,3.056-.037,4.584-.016,1.053.473,1.577,1.536,1.568q1.529-.013,3.058,0c1.062.01,1.553-.516,1.538-1.568-.021-1.528-.025-3.056-.037-4.584q0-6.123-.006-12.245c.014-1.909.032-3.818.039-5.727a1.253,1.253,0,0,0-1.407-1.416q-1.655-.006-3.311,0a1.25,1.25,0,0,0-1.405,1.416c.008,1.909.026,3.818.039,5.727q0,6.122-.006,12.245M164.5,176.976q0-3.077-.007-6.153c.014-.765.016-1.53.05-2.293.021-.486-.006-.8-.665-.711a3.474,3.474,0,0,1-2.938-1.229c-1.642-1.566-3.007-1.661-4.906-.392-3.607,2.408-3.971,2.358-6.885-.959a3.6,3.6,0,0,0-5-.9,12.689,12.689,0,0,0-2.787,2.208c-1.623,1.57-3.121,1.64-4.869.271-2.1-1.643-3.154-1.68-5.379-.186-2.148,1.44-3.4,1.311-5.281-.543-2.243-2.217-4.265-2.381-6.8-.527a15.107,15.107,0,0,0-1.347,1.168c-2.015,1.881-3.551,1.892-5.539.023a5.613,5.613,0,0,0-2.734-1.713v3q0,4.471,0,8.942c-.012,1.233-.041,2.466-.034,3.7.01,1.757.705,2.437,2.5,2.443,2.638.009,5.276,0,7.914,0q21.06,0,42.121,0c1.959,0,2.627-.654,2.63-2.572,0-1.19-.023-2.381-.035-3.571m-55.372-43.92a6.948,6.948,0,0,1,.235,2.446c0,8.508.022,17.016-.022,25.523-.006,1.2.028,2.084,1.485,2.365a4.876,4.876,0,0,1,1.839,1.1c2.288,1.775,2.278,1.788,4.569-.114,3.578-2.971,6.868-2.843,10.165.4,1.228,1.206,2.671.829,3.176-.847a44.213,44.213,0,0,0,1.634-8.363,81.426,81.426,0,0,0,.389-16.8,11.614,11.614,0,0,0-2.716-6.659c-.288,3.076-1.323,4.022-4.242,4.024-.851,0-1.7.011-2.552,0a3.218,3.218,0,0,1-3.358-2.379c-.154-.423-.245-.707-.818-.7-3.228.036-6.457.017-9.784.017" transform="translate(13645 -9889.318)" fill="#020202"/>
    <path id="Trazado_605580" data-name="Trazado 605580" d="M162.24,150.678c-.783.294-.906.883-.826,1.646.6,5.791,1.136,11.592,2.166,17.327.156.871.149,1.339-.807,1.537a6.236,6.236,0,0,0-1.271.574c-.185-.7-.394-1.389-.551-2.092-1.55-6.983-2.022-14.112-2.787-21.2-.507-4.7-1.4-9.215-4.327-13.089.53-.1.863.22,1.219.532a17.258,17.258,0,0,1,5.406,9.565c.188.839.413,1.6,1.515,1.475-.028,1.249.419,2.465.263,3.722" transform="translate(13626.111 -9898.289)" fill="#b5fab5"/>
    <path id="Trazado_605581" data-name="Trazado 605581" d="M217.442,191.843l.012-5.387q.014-10.21.03-20.421a6.785,6.785,0,0,1,.022-1.02.962.962,0,0,1,1.06-.885.939.939,0,0,1,.938.874,7.273,7.273,0,0,1,.023,1.02q0,14.1,0,28.209c0,.212,0,.425,0,.638.013.738-.267,1.3-1.07,1.271-.714-.026-.983-.545-.98-1.239,0-1.02-.023-2.04-.037-3.06" transform="translate(13606.359 -9907.222)" fill="#020202"/>
    <path id="Trazado_605582" data-name="Trazado 605582" d="M107.864,117.929c-.126-3.01-.126-3.01,2.825-3.01.636,0,1.272,0,1.908-.006.676-.007.942-.472,1.126-1.025l2.248-.005c.165.809.694,1.054,1.473,1.044,1.937-.026,3.875.017,5.812-.022.672-.013,1.014.114.938.879-.07.709-.035,1.429-.046,2.146H107.864" transform="translate(13640.4 -9891.619)" fill="#bcc1c8"/>
    <path id="Trazado_605583" data-name="Trazado 605583" d="M238.4,189.779c-.25.727-.482,1.595-.845,2.4-.336.75-.226,1.128.607,1.339a20.805,20.805,0,0,1,2.284.789c.64.245.99.714.72,1.4a1,1,0,0,1-1.383.549c-.846-.279-1.686-.577-2.515-.9-.56-.22-.829-.092-1,.512-.241.856-.585,1.682-.892,2.519a.969.969,0,0,1-1.3.707.989.989,0,0,1-.6-1.438c.367-1.034,1.174-2.268.877-3.081-.31-.848-1.894-.829-2.9-1.247-.628-.261-1.085-.616-.842-1.321.252-.729.807-.845,1.551-.6,1.032.334,2.238,1.285,3.036.854.7-.378.811-1.856,1.164-2.855.223-.629.6-1.08,1.307-.911.551.131.83.565.731,1.287" transform="translate(13602.29 -9914.776)" fill="#090909"/>
    <path id="Trazado_605584" data-name="Trazado 605584" d="M127.272,93.432c-.5.843-1.134.858-1.938.419a5.115,5.115,0,0,1,2.952-9.577,5.235,5.235,0,0,1,4.574,4.465,1.263,1.263,0,0,1-1.215,1.586,1.83,1.83,0,0,1-.858-1.3,3.042,3.042,0,0,0-2.885-2.71,3.084,3.084,0,0,0-3.052,2.2,2.949,2.949,0,0,0,1.517,3.529,1.5,1.5,0,0,1,.906,1.384" transform="translate(13635.79 -9882.416)" fill="#090909"/>
    <path id="Trazado_605585" data-name="Trazado 605585" d="M151.826,105.509a.994.994,0,0,1-.956-1.28,2.2,2.2,0,0,1,.436-.765q4.266-6.177,8.541-12.347c.416-.6.871-1.319,1.723-.744.913.616.39,1.32-.057,1.966q-4.238,6.12-8.477,12.239c-.287.413-.541.882-1.211.932" transform="translate(13627.042 -9884.252)" fill="#090909"/>
    <path id="Trazado_605586" data-name="Trazado 605586" d="M162.545,128.33a9.424,9.424,0,0,1,5.549,2.01,2.406,2.406,0,0,1,.536,3.3,2.326,2.326,0,0,1-3.356.654,42.3,42.3,0,0,0-5.072-3.842.925.925,0,0,1-.458-1.094,1.019,1.019,0,0,1,.909-.778c.632-.081,1.262-.168,1.893-.253m2.03,2.925c.361.181.476.23.582.294.547.333.827,1.077,1.593,1.052.079,0,.244-.337.21-.375a2.318,2.318,0,0,0-2.386-.971" transform="translate(13624.289 -9896.105)" fill="#090909"/>
    <path id="Trazado_605587" data-name="Trazado 605587" d="M228.586,101.44A5.057,5.057,0,0,0,230.92,98.1a.974.974,0,0,1,1.195-.869c.674.1.837.584.853,1.209.079,3.1.813,4.089,3.829,5.178.589.213.962.575.84,1.222a.981.981,0,0,1-1.227.82,5.173,5.173,0,0,0-3.985,1.315c-.569.014-1.136,0-1.317-.694a.97.97,0,0,1,.475-1.2c1.578-.709,1.229-1.56.268-2.513-.2-.2-.226-.561-.528-.636-.743.357-1.149,1.391-2.183,1.014-.73-.267-.639-.9-.554-1.506" transform="translate(13602.916 -9886.442)" fill="#090909"/>
    <path id="Trazado_605588" data-name="Trazado 605588" d="M171.984,120.96c-3.336-.474-6.528-.925-9.721-1.381-1.427-.2-2.85-.443-4.281-.622-.73-.092-1.3-.376-1.2-1.163.1-.869.787-.989,1.542-.879q6.8.995,13.6,1.97c.679.1,1.178.372,1.147,1.091a.967.967,0,0,1-1.088.983" transform="translate(13625.201 -9892.549)" fill="#090909"/>
    <path id="Trazado_605589" data-name="Trazado 605589" d="M128.188,94.36a1.5,1.5,0,0,0-.906-1.384,2.949,2.949,0,0,1-1.517-3.529,3.084,3.084,0,0,1,3.052-2.2,3.042,3.042,0,0,1,2.885,2.71,1.83,1.83,0,0,0,.858,1.3c-.5,2.09-1.945,3.118-4.373,3.106" transform="translate(13634.873 -9883.345)" fill="#846cec"/>
    <path id="Trazado_605590" data-name="Trazado 605590" d="M226.783,103.342c-.085.6-.176,1.24.554,1.506,1.034.377,1.44-.657,2.183-1.014.3.074.325.435.528.636.961.953,1.311,1.8-.268,2.513a.97.97,0,0,0-.475,1.2c.181.7.748.709,1.317.694a5.881,5.881,0,0,0-1.176,2.356c-.135.67-.511,1.086-1.242.951-.668-.123-.814-.628-.823-1.238-.05-3.009-.834-4.1-3.722-5.112-.6-.21-1.016-.523-.919-1.165.107-.709.647-.945,1.32-.878a5.355,5.355,0,0,0,2.723-.452" transform="translate(13604.719 -9888.346)" fill="#fb9206"/>
    <path id="Trazado_605591" data-name="Trazado 605591" d="M183.878,97.219c0,.454-.339.75-.78.97q-4.878,2.432-9.754,4.868a.966.966,0,0,1-1.426-.345.983.983,0,0,1,.5-1.475c3.29-1.647,6.575-3.305,9.878-4.924a1.029,1.029,0,0,1,1.579.906" transform="translate(13620.547 -9886.117)" fill="#090909"/>
    <path id="Trazado_605592" data-name="Trazado 605592" d="M154.839,112.955a1.014,1.014,0,0,1-1.026-.817,1.059,1.059,0,0,1,.707-1.214q2.158-1.083,4.321-2.159c.72-.361,1.427-.746,2.159-1.08a.976.976,0,0,1,1.409.447.925.925,0,0,1-.412,1.313c-2.261,1.157-4.536,2.289-6.808,3.425a1.516,1.516,0,0,1-.35.084" transform="translate(13626.128 -9889.652)" fill="#090909"/>
    <path id="Trazado_605593" data-name="Trazado 605593" d="M123.351,210.68c-1.232.023-2.464.064-3.7.065q-10.532.01-21.065,0c-1.944,0-2.612-.665-2.613-2.6q-.005-28.854-.019-57.707c0-.837.081-1.153,1.065-1.037a37.229,37.229,0,0,0,4.08.07q-.01,25.99-.014,51.981a3,3,0,0,0,3.231,3.162c4.044.017,8.089-.014,12.134.012a6.856,6.856,0,0,1,6.9,6.053" transform="translate(13644.085 -9902.641)" fill="#636972"/>
    <path id="Trazado_605594" data-name="Trazado 605594" d="M161.144,235.6H147.816a6.681,6.681,0,0,1,10.043-5.166,6.825,6.825,0,0,1,3.285,5.166" transform="translate(13627.981 -9927.521)" fill="#636972"/>
    <path id="Trazado_605595" data-name="Trazado 605595" d="M171.874,197.98q0,3.077.007,6.153h-55.1q0-4.472,0-8.942a6.284,6.284,0,0,1,2.979,1.628c2.173,2.041,2.708,2.033,4.887.085,3.153-2.82,6.3-3.532,9.539-.008,1.073,1.167,2.064,1.215,3.413.317,2.523-1.68,4.586-2.079,7.019.117,1.206,1.088,2.161.917,3.353-.27a15.775,15.775,0,0,1,2.464-2.008c2.79-1.835,5.239-1.427,7.21,1.238,1.251,1.693,2.648,2.586,4.852.582a4.356,4.356,0,0,1,6.391.087,3.184,3.184,0,0,0,2.978,1.021" transform="translate(13637.618 -9916.476)" fill="#96ebfd"/>
    <path id="Trazado_605596" data-name="Trazado 605596" d="M116.769,208.731h55.1c.013,1.191.039,2.381.036,3.571,0,1.918-.672,2.572-2.63,2.572q-21.061,0-42.121,0c-2.638,0-5.276.007-7.914,0-1.795-.006-2.49-.685-2.5-2.443-.007-1.233.021-2.466.034-3.7" transform="translate(13637.634 -9921.072)" fill="#70a0bb"/>
    <path id="Trazado_605597" data-name="Trazado 605597" d="M107.882,119.751h16.284q0,6.148-.006,12.3H107.887Z" transform="translate(13640.382 -9893.441)" fill="#846cec"/>
    <path id="Trazado_605598" data-name="Trazado 605598" d="M171.876,196.6a3.184,3.184,0,0,1-2.978-1.021,4.356,4.356,0,0,0-6.391-.087c-2.2,2-3.6,1.111-4.852-.582-1.97-2.665-4.419-3.073-7.21-1.238a15.775,15.775,0,0,0-2.464,2.008c-1.191,1.187-2.147,1.358-3.353.27-2.433-2.2-4.5-1.8-7.019-.117-1.349.9-2.34.85-3.413-.317-3.24-3.524-6.386-2.812-9.539.008-2.179,1.948-2.714,1.956-4.887-.085a6.284,6.284,0,0,0-2.979-1.628v-3a5.61,5.61,0,0,1,2.734,1.714c1.987,1.869,3.523,1.858,5.539-.023a14.924,14.924,0,0,1,1.347-1.169c2.535-1.855,4.556-1.69,6.8.527,1.876,1.853,3.132,1.983,5.28.542,2.226-1.493,3.281-1.456,5.379.187,1.748,1.369,3.247,1.3,4.869-.272a12.708,12.708,0,0,1,2.787-2.208,3.605,3.605,0,0,1,5,.9c2.914,3.317,3.278,3.368,6.884.96,1.9-1.269,3.265-1.174,4.906.392a3.472,3.472,0,0,0,2.939,1.229c.658-.093.686.225.665.711-.034.764-.035,1.529-.05,2.293" transform="translate(13637.616 -9915.097)" fill="#fefefe"/>
    <path id="Trazado_605599" data-name="Trazado 605599" d="M151.5,134.16c2.923,3.875,3.82,8.392,4.327,13.089.765,7.086,1.238,14.214,2.787,21.2.156.7.365,1.394.551,2.092-.869.743-1.773,1.449-2.594,2.241-.769.742-1.492.926-2.313.138a7.375,7.375,0,0,0-3.091-1.683c.268-.936.549-1.868.8-2.807,1.833-6.812,2.126-13.776,2.05-20.777a16.591,16.591,0,0,0-1.041-5.967c-1.231-3.125-3.119-5.626-6.568-6.54-.02-.846.018-1.7-.073-2.536-.123-1.134.22-1.461,1.287-.949,1.4.672,2.955,1.091,3.875,2.5" transform="translate(13628.447 -9897.065)" fill="#02d402"/>
    <path id="Trazado_605600" data-name="Trazado 605600" d="M146.415,136.821c3.449.914,5.337,3.416,6.568,6.539a16.609,16.609,0,0,1,1.04,5.968c.075,7-.217,13.966-2.05,20.777-.253.94-.534,1.871-.8,2.807a1.97,1.97,0,0,0-.382,0c-1.255.226-1.349-.3-1.082-1.389a62.759,62.759,0,0,0,1.542-11.695c.165-3.141.3-6.281.184-9.42a18.137,18.137,0,0,0-1.882-7.976,8.241,8.241,0,0,0-2.126-2.832,2.507,2.507,0,0,1-1.01-2.776" transform="translate(13628.443 -9898.742)" fill="#137e13"/>
    <path id="Trazado_605601" data-name="Trazado 605601" d="M140.615,119.825l.006,12.245h-6.058q0-6.122.006-12.245h6.046" transform="translate(13632.097 -9893.464)" fill="#f185e3"/>
    <path id="Trazado_605602" data-name="Trazado 605602" d="M96.032,132.07l.006-12.245h6.045l.006,12.245H96.032" transform="translate(13644.063 -9893.464)" fill="#f185e3"/>
    <path id="Trazado_605603" data-name="Trazado 605603" d="M107.856,137.589h16.273c.137,3.083.137,3.083-2.925,3.083-4.026,0-8.051-.038-12.076.025-1.058.017-1.466-.266-1.321-1.332a15.376,15.376,0,0,0,.048-1.776" transform="translate(13640.414 -9898.98)" fill="#4f1d9d"/>
    <path id="Trazado_605604" data-name="Trazado 605604" d="M102.068,116.606H96.023c-.013-1.909-.03-3.818-.039-5.727a1.25,1.25,0,0,1,1.405-1.416q1.656-.006,3.311,0a1.253,1.253,0,0,1,1.407,1.416c-.007,1.909-.025,3.818-.039,5.727" transform="translate(13644.077 -9890.245)" fill="#fdd8fd"/>
    <path id="Trazado_605605" data-name="Trazado 605605" d="M140.6,116.606h-6.046c-.013-1.909-.03-3.818-.039-5.727a1.25,1.25,0,0,1,1.405-1.416q1.656-.006,3.311,0a1.253,1.253,0,0,1,1.407,1.416c-.007,1.909-.025,3.818-.039,5.727" transform="translate(13632.111 -9890.245)" fill="#fdd8fd"/>
    <path id="Trazado_605606" data-name="Trazado 605606" d="M96.015,137.586h6.058c.012,1.528.016,3.056.037,4.584.014,1.051-.475,1.577-1.538,1.568q-1.529-.014-3.058,0c-1.063.01-1.552-.516-1.536-1.568.023-1.528.026-3.056.037-4.584" transform="translate(13644.079 -9898.979)" fill="#9a4885"/>
    <path id="Trazado_605607" data-name="Trazado 605607" d="M134.547,137.586H140.6c.012,1.528.016,3.056.037,4.584a1.348,1.348,0,0,1-1.538,1.568q-1.529-.014-3.058,0c-1.063.01-1.552-.516-1.536-1.568.023-1.528.026-3.056.037-4.584" transform="translate(13632.114 -9898.979)" fill="#9a4885"/>
    <path id="Trazado_605608" data-name="Trazado 605608" d="M178.231,181.1c.124-1.558,1.195-2.551,2.172-3.589a.587.587,0,0,1,.98.084.751.751,0,0,1-.222,1.107q-1.469,1.2-2.933,2.4Z" transform="translate(13618.537 -9911.308)" fill="#137e13"/>
    <path id="Trazado_605609" data-name="Trazado 605609" d="M178.172,182.817a.37.37,0,0,1-.045.1c-.013.016-.052.009-.08.012l.128-.114,0,0" transform="translate(13618.593 -9913.026)" fill="#137e13"/>
    <path id="Trazado_605610" data-name="Trazado 605610" d="M166.769,132.555a2.318,2.318,0,0,1,2.386.971c.034.038-.131.372-.21.375-.767.025-1.046-.719-1.593-1.052-.105-.064-.221-.112-.582-.294" transform="translate(13622.096 -9897.405)" fill="#02d402"/>
    <path id="Trazado_605611" data-name="Trazado 605611" d="M140.86,181.086c0,.588,0,.843,0,1.1a1.049,1.049,0,0,1-.76,1.057.979.979,0,0,1-1.118-.409,37.116,37.116,0,0,0-5.357-5.244,2.764,2.764,0,0,1,3.824-3.991,10.524,10.524,0,0,1,3.412,7.489m-2.559-2.191c-.227-1.569-1.238-2.5-2.046-3.558-.344-.448-.7-.621-1.162-.187-.5.476-.171.842.2,1.166.956.832,1.923,1.651,3.007,2.579" transform="translate(13632.655 -9909.921)" fill="#090909"/>
    <path id="Trazado_605612" data-name="Trazado 605612" d="M139.232,179.831c-1.085-.928-2.052-1.747-3.007-2.579-.372-.324-.7-.689-.2-1.166.458-.434.818-.261,1.162.187.808,1.054,1.819,1.989,2.046,3.558" transform="translate(13631.723 -9910.857)" fill="#137e13"/>
  </g>
</svg>
