<svg xmlns="http://www.w3.org/2000/svg" width="149" height="149" viewBox="0 0 149 149">
  <g id="Grupo_1070060" data-name="Grupo 1070060" transform="translate(-495.334 -2471)">
    <rect id="Rectángulo_375463" data-name="Rectángulo 375463" width="149" height="149" transform="translate(495.334 2471)" fill="none"/>
    <g id="Grupo_1015379" data-name="Grupo 1015379" transform="translate(197.385 -155.53)">
      <path id="Trazado_605674" data-name="Trazado 605674" d="M102.563,169.672l.032,0c-.089,2.026-.187,4.052-.266,6.078-.5,12.894-.969,25.789-1.5,38.682-.278,6.72,4.191,11.495,10.922,11.5q38.457.009,76.914,0a12.6,12.6,0,0,0,2.063-.117,10.355,10.355,0,0,0,8.9-10.952c-.146-4.27-.308-8.539-.516-12.806-.039-.8.145-1.021.959-1,2.632.055,5.266.033,7.9.017a6.219,6.219,0,1,0,.007-12.426c-2.719-.014-5.439-.035-8.157.016-.878.016-1.263-.1-1.281-1.14-.062-3.581-.261-7.159-.4-10.738-.4-10.263-.878-20.525-1.175-30.791-.363-12.545-1.409-25.07-1.167-37.634.054-2.8-.006-5.611.015-8.416a2.18,2.18,0,0,0-1.313-2.3,2.153,2.153,0,0,0-2.54.733c-1.274,1.29-2.583,2.545-3.829,3.861-.474.5-.753.5-1.226,0-1.246-1.316-2.542-2.585-3.837-3.853-1.272-1.246-2.279-1.235-3.566.033-1.231,1.211-2.469,2.415-3.649,3.675-.555.593-.9.694-1.509.028-1.19-1.306-2.474-2.53-3.74-3.765-1.233-1.2-2.24-1.2-3.471,0s-2.5,2.393-3.643,3.68c-.684.768-1.074.641-1.7-.044-1.134-1.242-2.356-2.4-3.557-3.582-1.287-1.263-2.295-1.272-3.567-.024-1.294,1.269-2.588,2.54-3.833,3.856-.479.505-.757.486-1.227-.01-1.216-1.284-2.486-2.518-3.746-3.761-1.388-1.369-2.338-1.358-3.748.04-1.227,1.214-2.468,2.417-3.654,3.67-.491.52-.793.578-1.317.021-1.239-1.321-2.539-2.586-3.837-3.851-1.231-1.2-2.235-1.191-3.473.009-.805.781-1.587,1.587-2.38,2.381-2.089,2.09-2.089,2.09-4.134.046-.793-.794-1.579-1.6-2.383-2.379-1.289-1.257-2.294-1.267-3.567-.017-1.294,1.27-2.588,2.541-3.833,3.857-.482.51-.762.475-1.226-.017-1.155-1.223-2.378-2.382-3.557-3.583-.785-.8-1.581-1.518-2.819-1-1.22.514-1.287,1.556-1.306,2.691-.134,7.8.156,15.6-.219,23.413-.734,15.3-1.241,30.616-1.842,45.924" transform="translate(220 2541.905)" fill="#fefefe"/>
      <path id="Trazado_605675" data-name="Trazado 605675" d="M102.563,169.671c.6-15.308,1.108-30.622,1.842-45.923.375-7.809.085-15.61.219-23.413.02-1.135.087-2.178,1.306-2.691,1.238-.521,2.034.2,2.819,1,1.178,1.2,2.4,2.36,3.557,3.584.465.492.744.526,1.226.016,1.245-1.316,2.54-2.586,3.833-3.857,1.273-1.25,2.278-1.239,3.567.018.8.783,1.589,1.585,2.383,2.378,2.045,2.044,2.045,2.044,4.134-.046.793-.793,1.575-1.6,2.38-2.38,1.239-1.2,2.242-1.209,3.473-.009,1.3,1.265,2.6,2.53,3.838,3.852.523.557.825.5,1.316-.021,1.186-1.254,2.427-2.456,3.654-3.671,1.41-1.4,2.36-1.409,3.748-.04,1.26,1.243,2.529,2.477,3.746,3.762.469.5.748.515,1.227.01,1.245-1.316,2.54-2.587,3.833-3.857,1.272-1.248,2.28-1.239,3.567.024,1.2,1.179,2.424,2.341,3.557,3.582.625.686,1.014.812,1.7.044,1.147-1.288,2.407-2.474,3.643-3.68s2.239-1.206,3.471,0c1.267,1.235,2.55,2.459,3.74,3.765.608.668.954.566,1.509-.028,1.179-1.26,2.418-2.464,3.649-3.675,1.288-1.267,2.294-1.279,3.566-.033,1.3,1.269,2.59,2.538,3.837,3.853.474.5.752.5,1.226,0,1.246-1.315,2.555-2.571,3.829-3.861a2.153,2.153,0,0,1,2.54-.733,2.18,2.18,0,0,1,1.313,2.3c-.021,2.805.039,5.612-.015,8.416-.242,12.565.8,25.089,1.167,37.635.3,10.266.774,20.527,1.175,30.79.139,3.579.339,7.157.4,10.738.018,1.043.4,1.156,1.281,1.14,2.718-.052,5.437-.03,8.157-.016a6.219,6.219,0,1,1-.007,12.427c-2.633.015-5.267.037-7.9-.018-.814-.016-1,.2-.959,1,.208,4.267.37,8.536.516,12.806a10.355,10.355,0,0,1-8.9,10.952,12.509,12.509,0,0,1-2.063.117q-38.457.008-76.914,0c-6.731,0-11.2-4.776-10.922-11.5.534-12.892,1-25.787,1.5-38.681.079-2.027.177-4.053.266-6.079l-.032,0m78.692,35.536c.014-.6.039-1.2.04-1.807.005-2.331,0-2.361-2.329-2.32-1.275.023-3.077-.575-3.683.244-.637.861-.152,2.554-.157,3.883-.015.6-.04,1.205-.041,1.808,0,2.34,0,2.37,2.329,2.327,1.275-.023,3.076.575,3.683-.248.638-.866.152-2.557.158-3.887m-14.511-18.649a7.9,7.9,0,0,0-5.484-7.748,3.736,3.736,0,0,1-2.165-1.672,10.29,10.29,0,0,0-17.758,0,3.443,3.443,0,0,1-2.044,1.632,6.5,6.5,0,0,0-3.317,2.1,7.828,7.828,0,0,0-2.305,6.449c.057.967.4,1.349,1.483,1.343,9.869-.048,19.738-.028,29.608-.028,2,0,2,0,1.982-2.078m-33.1,6.266c-1.079-.014-2.159.013-3.233-.057-.742-.047-.933.212-.93.937.026,7.337-.015,14.675.032,22.012a6.086,6.086,0,0,0,6.028,6.051q14.7.068,29.393,0a5.871,5.871,0,0,0,5.547-4.1,4.79,4.79,0,0,0,.452-2.5q0-7.7,0-15.41c0-2.2.637-2.836,2.852-2.837q16.9,0,33.8,0c1.745,0,2.708-.746,2.707-2.071s-.961-2.061-2.709-2.07h-.517q-36,0-72,0c-.474,0-.947.027-1.421.04M114.743,118.24a6.042,6.042,0,0,0-6.229,5.778c-.133,2.844-.217,5.69-.327,8.535q-.872,22.5-1.747,45-.321,8.21-.651,16.421c-.281,7.155-.611,14.308-.814,21.465a6.071,6.071,0,0,0,6.143,6.3H127.4a11.128,11.128,0,0,1-2.04-7.426c.053-.755-.314-.823-.92-.817-2.244.025-4.489.015-6.733.009-2.032-.005-2.715-.684-2.715-2.718q0-42.858,0-85.716c0-2.046.676-2.73,2.7-2.731q32.5,0,65,0c2.091,0,2.745.674,2.746,2.817q.005,7.51,0,15.02,0,23.63-.021,47.261c0,.928.167,1.269,1.182,1.231,2.284-.086,4.574-.058,6.861-.01.791.017,1.019-.184.983-1.008q-.505-11.317-.927-22.635-.78-20.116-1.544-40.232c-.167-4.316-2.571-6.585-6.929-6.585q-34.442,0-68.884,0c-.474,0-.948.031-1.422.047m8.546,8.281a25.934,25.934,0,0,1-2.714-.061c-1.18-.143-1.463.273-1.461,1.449q.054,40.008.028,80.016a4.766,4.766,0,0,1,0,.646c-.086.624.168.815.79.8,1.422-.042,2.853-.088,4.27.012,1.006.07,1.19-.274,1.182-1.213-.046-5.611-.026-11.221-.021-16.832,0-2.022.676-2.678,2.728-2.7.3,0,.6-.028.9-.044.9.174.59-.431.559-.859a12.231,12.231,0,0,1,7.618-12.577,2.669,2.669,0,0,0,1.146-.979,14.46,14.46,0,0,1,23.782-.053,2.893,2.893,0,0,0,1.245,1.048,12.179,12.179,0,0,1,7.519,12.624c-.059.713.077.864.758.856,2.8-.033,5.611-.079,8.413.018,1.135.039,1.3-.334,1.294-1.36q-.048-29.772,0-59.546c0-1.1-.294-1.31-1.342-1.308q-26.343.053-52.686.028c-1.337,0-2.673.027-4.01.04M108.822,115.9c2.4-1.662,4.889-1.875,7.478-1.872q32.558.046,65.116.023c3.463,0,7.016-.488,10.151,1.814V104.883l-.3-.214c-.555.651-1.074,1.337-1.673,1.945-1.635,1.665-2.5,1.662-4.116.049-1.162-1.157-2.352-2.289-3.466-3.49-.561-.6-.914-.534-1.444.027-1.215,1.286-2.48,2.525-3.747,3.759-1.231,1.2-2.245,1.2-3.475,0-1.266-1.237-2.531-2.474-3.746-3.76-.535-.566-.887-.618-1.444-.019-1.116,1.2-2.3,2.334-3.466,3.49-1.592,1.583-2.47,1.592-4.031.04-1.163-1.156-2.358-2.283-3.465-3.491-.6-.659-.978-.563-1.538.033-1.213,1.287-2.476,2.528-3.747,3.758a2.091,2.091,0,0,1-3.38-.007c-1.3-1.263-2.59-2.537-3.84-3.848-.5-.523-.831-.565-1.349-.015-1.184,1.254-2.425,2.456-3.653,3.669-1.413,1.4-2.365,1.406-3.753.037-1.2-1.183-2.422-2.342-3.557-3.582-.638-.7-1.035-.608-1.632.034-1.175,1.263-2.415,2.466-3.652,3.67s-2.243,1.194-3.476-.01c-1.265-1.236-2.532-2.474-3.745-3.76-.539-.571-.891-.606-1.445-.012-1.116,1.2-2.3,2.334-3.466,3.49-1.589,1.581-2.463,1.584-4.033.034-.65-.641-1.312-1.272-2.1-2.04Zm64.157,105.887c5.526,0,10.82.02,16.115-.007a6.218,6.218,0,0,0,6.387-6.634c-.131-4.355-.345-8.707-.48-13.062-.023-.76-.2-1.053-1.025-1.035-2.5.053-5.006.061-7.507,0-.9-.023-1.055.3-1.042,1.1.043,2.847.02,5.695.015,8.542,0,2.134-.66,2.8-2.755,2.809-2.157.005-4.316.045-6.472-.02-.887-.027-1.214.185-1.149,1.123a10.766,10.766,0,0,1-2.088,7.184" transform="translate(220 2541.905)" fill="#010102"/>
      <path id="Trazado_605676" data-name="Trazado 605676" d="M126.956,131.265c1.337-.015,2.673-.041,4.01-.041q26.342,0,52.685-.027c1.049,0,1.345.2,1.343,1.308q-.058,29.774,0,59.546c0,1.025-.161,1.4-1.3,1.359-2.8-.1-5.608-.051-8.413-.018-.68.008-.817-.144-.757-.855a12.178,12.178,0,0,0-7.519-12.624,2.9,2.9,0,0,1-1.246-1.049,14.459,14.459,0,0,0-23.781.054,2.661,2.661,0,0,1-1.146.978,12.23,12.23,0,0,0-7.618,12.577c.031.429.337,1.035-.56.86-.374-.721-.717-1.46-1.126-2.161A32.22,32.22,0,0,1,127,175.111c-.15-14.614-.047-29.23-.046-43.846m26.906,4.1q-11.127,0-22.256,0c-1.857,0-2.576.724-2.58,2.581q-.013,5.629,0,11.258c0,2.041.68,2.732,2.694,2.732q22.19,0,44.381,0c1.94,0,2.645-.709,2.648-2.65q.01-5.564,0-11.128c0-2.129-.658-2.794-2.762-2.8q-11.063-.005-22.126,0m.028,24.862h19.936c2.858,0,2.8,0,2.882-2.85.033-1.091-.268-1.323-1.334-1.32q-20.647.061-41.3.027c-3,0-2.95,0-3.01,2.98-.02.982.246,1.194,1.2,1.188,7.206-.044,14.412-.024,21.619-.024m-4.015,4.144H133.953c-2.862,0-2.8,0-2.886,2.845-.031,1.082.254,1.331,1.328,1.326,11-.045,22.006-.028,33.009-.028,3,0,2.955,0,3.013-2.975.019-.972-.23-1.2-1.2-1.194-5.782.051-11.564.025-17.345.025m24.817,4.144c1.986,0,1.986,0,1.986-2.028,0-2.115,0-2.115-2.157-2.115-1.986,0-1.986,0-1.986,2.028,0,2.115,0,2.115,2.157,2.115" transform="translate(216.332 2537.163)" fill="#e1e6f5"/>
      <path id="Trazado_605677" data-name="Trazado 605677" d="M116.04,121.632c.474-.016.947-.047,1.422-.047q34.442,0,68.884,0c4.358,0,6.762,2.269,6.929,6.585q.781,20.116,1.543,40.232.438,11.318.927,22.635c.037.825-.193,1.026-.983,1.009-2.286-.048-4.577-.076-6.86.01-1.015.038-1.184-.3-1.182-1.231q.044-23.63.021-47.261,0-7.51,0-15.02c0-2.143-.655-2.817-2.746-2.817q-32.5,0-65,0c-2.024,0-2.7.684-2.7,2.731q0,42.858,0,85.716c0,2.034.684,2.713,2.716,2.718,2.244.006,4.488.016,6.732-.009.607-.007.974.061.921.817a11.128,11.128,0,0,0,2.04,7.426H112.414a1.484,1.484,0,0,0-.485-.89,8.618,8.618,0,0,1-1.85-6.273c.287-3.423.286-6.86.457-10.289.231-4.631.358-9.271.538-13.907q.254-6.566.517-13.131.263-6.89.52-13.779c.165-4.291.395-8.583.505-12.873.142-5.5.48-10.994.569-16.494.047-2.966.3-5.924.3-8.895a9.86,9.86,0,0,1,1.394-5.291c.362-.58,1.066-.916,1.156-1.67" transform="translate(218.703 2538.514)" fill="#6596dc"/>
      <path id="Trazado_605678" data-name="Trazado 605678" d="M139.016,208.41c.474-.014.948-.04,1.422-.04q36,0,72,0h.518c1.747.009,2.707.742,2.708,2.069s-.963,2.071-2.707,2.072q-16.9,0-33.8,0c-2.215,0-2.851.633-2.852,2.837q0,7.7,0,15.41a4.79,4.79,0,0,1-.452,2.5q-13.9-.014-27.8-.033a9.13,9.13,0,0,1-9.043-9.044c-.017-5.258,0-10.515,0-15.772" transform="translate(214.633 2526.32)" fill="#f8d08e"/>
      <path id="Trazado_605679" data-name="Trazado 605679" d="M110.131,116.766V105.531c.792.768,1.454,1.4,2.1,2.04,1.569,1.549,2.444,1.545,4.033-.035,1.163-1.156,2.351-2.29,3.466-3.49.553-.594.906-.558,1.444.012,1.214,1.287,2.48,2.524,3.746,3.76,1.232,1.2,2.244,1.208,3.475.01s2.478-2.407,3.653-3.67c.6-.641.994-.732,1.632-.034,1.135,1.241,2.358,2.4,3.557,3.582,1.388,1.37,2.34,1.36,3.753-.037,1.228-1.213,2.468-2.415,3.653-3.669.518-.548.85-.508,1.349.015,1.251,1.311,2.541,2.585,3.84,3.849a2.091,2.091,0,0,0,3.38.007c1.271-1.231,2.535-2.472,3.747-3.759.56-.6.935-.691,1.538-.033,1.106,1.208,2.3,2.335,3.464,3.491,1.562,1.552,2.44,1.544,4.032-.039,1.162-1.157,2.351-2.29,3.465-3.49.557-.6.91-.547,1.445.018,1.214,1.286,2.48,2.524,3.745,3.76,1.231,1.2,2.244,1.2,3.476,0,1.267-1.235,2.531-2.474,3.746-3.759.53-.561.884-.632,1.444-.028,1.116,1.2,2.305,2.333,3.466,3.49,1.62,1.613,2.482,1.616,4.117-.048.6-.609,1.117-1.3,1.673-1.946l.3.214v10.982c-3.135-2.3-6.689-1.811-10.151-1.813q-32.557-.018-65.116-.024c-2.59,0-5.078.211-7.478,1.872" transform="translate(218.691 2541.04)" fill="#3b5891"/>
      <path id="Trazado_605680" data-name="Trazado 605680" d="M126.28,131.261c0,14.616-.1,29.232.046,43.846a32.226,32.226,0,0,0,4.526,16.062c.409.7.753,1.44,1.127,2.161-.3.015-.6.04-.9.044-2.053.023-2.727.68-2.729,2.7,0,5.611-.025,11.221.021,16.832.008.939-.174,1.283-1.181,1.212-1.417-.1-2.847-.053-4.271-.011-.621.018-.876-.173-.79-.8a4.764,4.764,0,0,0,.005-.646q0-40.009-.028-80.016c0-1.176.281-1.592,1.462-1.449a25.927,25.927,0,0,0,2.713.061" transform="translate(217.008 2537.167)" fill="#c7ccec"/>
      <path id="Trazado_605681" data-name="Trazado 605681" d="M115.423,121.64c-.09.754-.794,1.09-1.156,1.67a9.86,9.86,0,0,0-1.394,5.291c-.009,2.971-.257,5.929-.3,8.895-.089,5.5-.427,10.994-.569,16.494-.111,4.29-.34,8.581-.505,12.873q-.266,6.89-.52,13.779-.251,6.566-.517,13.131c-.18,4.636-.307,9.276-.538,13.907-.171,3.428-.17,6.866-.457,10.289a8.618,8.618,0,0,0,1.85,6.273,1.484,1.484,0,0,1,.485.89,6.07,6.07,0,0,1-6.143-6.3c.2-7.157.533-14.311.814-21.465q.322-8.211.65-16.421.877-22.5,1.748-45c.11-2.845.193-5.691.327-8.535a6.041,6.041,0,0,1,6.229-5.778" transform="translate(219.32 2538.506)" fill="#5d85c7"/>
      <path id="Trazado_605682" data-name="Trazado 605682" d="M184.776,238.723a10.766,10.766,0,0,0,2.088-7.184c-.065-.939.262-1.15,1.149-1.123,2.156.064,4.315.025,6.472.02,2.095,0,2.752-.675,2.755-2.809,0-2.847.028-5.7-.015-8.542-.013-.8.146-1.125,1.042-1.1,2.5.064,5.006.057,7.507,0,.823-.018,1,.275,1.025,1.035.135,4.354.349,8.707.48,13.062a6.218,6.218,0,0,1-6.387,6.634c-5.294.027-10.589.007-16.115.007" transform="translate(208.202 2524.969)" fill="#6596db"/>
      <path id="Trazado_605683" data-name="Trazado 605683" d="M138.336,208.407c0,5.257-.018,10.515,0,15.772a9.13,9.13,0,0,0,9.043,9.044q13.9.035,27.8.033a5.871,5.871,0,0,1-5.547,4.1q-14.7.054-29.392,0a6.085,6.085,0,0,1-6.028-6.051c-.047-7.337-.007-14.675-.033-22.012,0-.725.188-.984.93-.937,1.074.07,2.156.043,3.233.057" transform="translate(215.313 2526.323)" fill="#f4b85b"/>
      <path id="Trazado_605684" data-name="Trazado 605684" d="M141.725,193.069a6.507,6.507,0,0,1,3.318-2.1,3.443,3.443,0,0,0,2.044-1.632,10.29,10.29,0,0,1,17.758,0,3.737,3.737,0,0,0,2.164,1.672,7.9,7.9,0,0,1,5.484,7.748H166.3c.009-1.117-.014-2.236.038-3.352.029-.62-.179-.774-.792-.8-3.369-.144-3.369-.162-3.361,3.123,0,.343.016.687.026,1.031H149.724c.009-1.117-.013-2.236.039-3.352.029-.621-.173-.83-.8-.794-1.067.062-2.407-.327-3.129.186-.7.5-.132,1.92-.235,2.931-.009.085-.025.17-.038.255a6.306,6.306,0,0,1-3.841-4.91m12.171-2.689c0,2.165,0,2.165,2.107,2.165,2.036,0,2.036,0,2.036-1.977,0-2.166,0-2.166-2.107-2.166-2.036,0-2.036,0-2.036,1.978" transform="translate(214.252 2529.709)" fill="#cacaca"/>
      <path id="Trazado_605685" data-name="Trazado 605685" d="M141.346,194.512a6.3,6.3,0,0,0,3.84,4.909c-.021.561.153.838.809.8,1.114-.065,2.233-.022,3.35-.025h22.768c.019,2.079.019,2.079-1.981,2.079-9.87,0-19.739-.02-29.609.028-1.077.005-1.426-.376-1.483-1.343a7.83,7.83,0,0,1,2.305-6.449" transform="translate(214.632 2528.266)" fill="#b4b4b4"/>
      <path id="Trazado_605686" data-name="Trazado 605686" d="M187.247,222.119c.005-1.33-.48-3.021.158-3.883.605-.818,2.408-.221,3.682-.243,2.331-.042,2.334-.012,2.329,2.32,0,.6-.027,1.2-.04,1.807h-6.129" transform="translate(207.879 2524.994)" fill="#e1e6f5"/>
      <path id="Trazado_605687" data-name="Trazado 605687" d="M187.268,222.825H193.4c-.005,1.33.48,3.022-.157,3.887-.607.824-2.409.226-3.684.249-2.33.042-2.333.012-2.328-2.327,0-.6.026-1.206.04-1.808" transform="translate(207.858 2524.288)" fill="#c7ccec"/>
      <path id="Trazado_605688" data-name="Trazado 605688" d="M154.206,136.046q11.063,0,22.126,0c2.1,0,2.759.667,2.762,2.8q.005,5.564,0,11.128c0,1.942-.708,2.649-2.648,2.65q-22.19.005-44.381,0c-2.014,0-2.691-.691-2.694-2.732q-.006-5.629,0-11.258c0-1.857.724-2.579,2.58-2.581q11.127-.009,22.256,0m-20.653,8.033c0,1.445-.645,3.379.248,4.185.783.706,2.694.162,4.107.171q18.121.022,36.243.059c.754,0,.817-.312.809-.917-.028-2.028-.078-4.059.017-6.083.052-1.082-.252-1.336-1.33-1.331-12.168.043-24.336.02-36.5.039-1.189,0-2.868-.547-3.439.238-.594.818-.145,2.395-.152,3.639" transform="translate(215.988 2536.482)"/>
      <path id="Trazado_605689" data-name="Trazado 605689" d="M154.568,164.292c-7.206,0-14.413-.02-21.619.024-.956.006-1.222-.206-1.2-1.188.06-2.979.012-2.98,3.01-2.98q20.648,0,41.3-.027c1.066,0,1.366.23,1.334,1.32-.083,2.848-.025,2.85-2.883,2.85H154.568" transform="translate(215.654 2533.099)"/>
      <path id="Trazado_605690" data-name="Trazado 605690" d="M150.553,169.792c5.782,0,11.564.026,17.345-.025.966-.009,1.216.222,1.2,1.194-.058,2.974-.011,2.975-3.013,2.975-11,0-22.006-.017-33.008.028-1.075,0-1.36-.244-1.329-1.326.082-2.843.024-2.845,2.886-2.845h15.922" transform="translate(215.654 2531.743)"/>
      <path id="Trazado_605691" data-name="Trazado 605691" d="M182.149,173.94c-2.157,0-2.157,0-2.157-2.115,0-2.028,0-2.028,1.986-2.028,2.157,0,2.157,0,2.157,2.115,0,2.028,0,2.028-1.986,2.028" transform="translate(208.875 2531.739)"/>
      <path id="Trazado_605692" data-name="Trazado 605692" d="M155.886,191.059c0-1.978,0-1.978,2.036-1.978,2.107,0,2.107,0,2.107,2.166,0,1.977,0,1.977-2.036,1.977-2.107,0-2.107,0-2.107-2.165" transform="translate(212.262 2529.03)"/>
      <path id="Trazado_605693" data-name="Trazado 605693" d="M150.34,200.434c-1.116,0-2.236-.04-3.349.024-.656.039-.831-.237-.81-.8.013-.085.029-.17.038-.255.1-1.011-.466-2.434.236-2.931.721-.512,2.062-.124,3.129-.186.622-.036.823.174.8.794-.052,1.116-.03,2.235-.039,3.352" transform="translate(213.637 2528.029)"/>
      <path id="Trazado_605694" data-name="Trazado 605694" d="M169.645,200.438h-4.089c-.009-.344-.025-.687-.026-1.031-.008-3.285-.008-3.266,3.361-3.123.615.027.822.181.793.8-.052,1.116-.03,2.235-.039,3.352" transform="translate(210.907 2528.024)"/>
      <path id="Trazado_605695" data-name="Trazado 605695" d="M134.213,144.728c.007-1.245-.442-2.821.152-3.639.571-.785,2.25-.236,3.439-.238,12.168-.019,24.336,0,36.5-.039,1.078,0,1.381.249,1.33,1.331-.1,2.023-.045,4.055-.017,6.083.009.605-.055.92-.809.917q-18.121-.057-36.243-.059a6.132,6.132,0,0,1-4.355-4.356" transform="translate(215.329 2535.833)" fill="#f8d08e"/>
      <path id="Trazado_605696" data-name="Trazado 605696" d="M134.2,145.392a6.132,6.132,0,0,0,4.355,4.356c-1.413-.009-3.324.535-4.107-.171-.894-.806-.251-2.74-.248-4.185" transform="translate(215.34 2535.168)" fill="#f4b85b"/>
    </g>
  </g>
</svg>
