<svg xmlns="http://www.w3.org/2000/svg" width="153.902" height="177.908" viewBox="0 0 153.902 177.908">
  <g id="Grupo_264634" data-name="Grupo 264634" transform="translate(-383.541 -745.99)">
    <path id="Trazado_284653" data-name="Trazado 284653" d="M181.411,249.708c-2.609-1.188-4.78-2.756-5.249-5.864a7.021,7.021,0,0,1,5.062-7.986,7.058,7.058,0,0,1,4.985,13.133c-.44.231-1.042.184-1.316.717Z" transform="translate(285 674.19)" fill="#f18c75"/>
    <path id="Trazado_284654" data-name="Trazado 284654" d="M248.127,161.793a35.281,35.281,0,0,1,3.425,9.192c1.677,9.338-3.642,20.014-12.363,23.835-9.055,3.968-18.237,7.648-27.361,11.462-.745.311-1.468.677-2.2,1.018a3.176,3.176,0,0,1-2.562-2.212c-.7-1.862-1.565-3.662-2.36-5.489q-6.624-15.96-13.246-31.92c-.273-1.688.633-2.516,2.091-3.11,5.031-2.052,10.036-4.17,15.05-6.263l14.3-5.841c.515-.062,1.039-.087,1.545-.192a22.565,22.565,0,0,1,14.158,1.676,26.244,26.244,0,0,1,9.522,7.844" transform="translate(285 674.19)" fill="#76b6ea"/>
    <path id="Trazado_284655" data-name="Trazado 284655" d="M191.206,167.678c-3.369,7.838-6.675,15.7-9.787,23.645q-1.2,2.613-2.394,5.224c-.44-.123-.875-.271-1.321-.367a87.03,87.03,0,0,1-10.986-3.006,54.861,54.861,0,0,1-17.725-9.88c-4.895-4.218-8.722-9.159-10.471-15.521a21.844,21.844,0,0,1-.664-9.528,18.3,18.3,0,0,1,5.759-4.1,22.668,22.668,0,0,1,12.449-2.169c2.5.144,4.8,1.105,7.162,1.813a10.147,10.147,0,0,0,1.05.578c8.274,3.419,16.543,6.846,24.834,10.222,1.46.594,2.361,1.411,2.094,3.094" transform="translate(285 674.19)" fill="#f18b74"/>
    <path id="Trazado_284656" data-name="Trazado 284656" d="M183.849,75.234c7.272-5.057,18.655-4.437,25.851,1.252,3.41,2.7,5.581,6.281,7.816,9.86q6.935,11.107,13.881,22.209a9.914,9.914,0,0,1,.509,1.077c-5.778,3.579-11.565,7.143-17.33,10.743-3.659,2.285-7.284,4.622-10.924,6.936a1.052,1.052,0,0,1-.317,0c-1.112-1.956-2.2-3.924-3.338-5.866A150.223,150.223,0,0,1,188.578,97.39c-2.619-7.131-5.052-14.369-4.729-22.156" transform="translate(285 674.19)" fill="#76b6ea"/>
    <path id="Trazado_284657" data-name="Trazado 284657" d="M129.863,122.44q9.913-8.829,19.832-17.65c2.856-2.525,5.533-5.289,9-7.036a19.381,19.381,0,0,1,9.139-2.363,16.191,16.191,0,0,1-.183,1.71,21.532,21.532,0,0,0,1.831,14.765c2.222,4.308,4.985,8.3,7.576,12.382,2.552,4.027,2.166,6.619-1.589,9.52-5.374,4.151-10.6,8.507-16.216,12.325-1.634,1.11-2.943,2.783-5.035,3.181-.742-.807-1.495-1.6-2.224-2.423-5.394-6.052-10.738-12.149-16.2-18.142-1.936-2.126-3.6-4.521-5.938-6.269" transform="translate(285 674.19)" fill="#7fdad4"/>
    <path id="Trazado_284658" data-name="Trazado 284658" d="M203.652,127.311c3.64-2.314,7.266-4.651,10.924-6.935,5.765-3.6,11.553-7.164,17.33-10.744,3.118,4.3,5.7,8.936,8.575,13.389,3,4.65,5.815,9.422,8.746,14.119a22.583,22.583,0,0,1-.8,24.48c-.061.085-.194.117-.295.173a26.248,26.248,0,0,0-9.523-7.844,22.557,22.557,0,0,0-14.158-1.675c-.506.1-1.03.129-1.545.19a25.337,25.337,0,0,1-1.9-1.774,150.116,150.116,0,0,1-11.181-13.818,78.858,78.858,0,0,1-6.172-9.561" transform="translate(285 674.19)" fill="#d0eef1"/>
    <path id="Trazado_284659" data-name="Trazado 284659" d="M129.863,122.44c2.339,1.748,4,4.143,5.938,6.269,5.458,5.993,10.8,12.09,16.2,18.142.729.818,1.482,1.616,2.224,2.423l1.845,2.7a22.68,22.68,0,0,0-12.45,2.167,18.321,18.321,0,0,0-5.759,4.107c-1.126.736-1.769,1.933-2.718,2.839a4.523,4.523,0,0,0-2.025.353,14.423,14.423,0,0,1-8.643-.029,20.474,20.474,0,0,1-14.114-19.275c.012-.654.274-1.4-.384-1.943l19.89-17.751" transform="translate(285 674.19)" fill="#287d98"/>
    <path id="Trazado_284660" data-name="Trazado 284660" d="M109.973,140.191c.658.54.4,1.289.385,1.943a20.472,20.472,0,0,0,14.113,19.275,14.415,14.415,0,0,0,8.643.029,4.528,4.528,0,0,1,2.026-.353c-.581.992-1.2,1.963-1.735,2.979-2.808,5.345-3.122,10.966-1.8,16.757a22.993,22.993,0,0,1-26.607-4.463,22.728,22.728,0,0,1-.183-31.536,43.9,43.9,0,0,1,5.163-4.631" transform="translate(285 674.19)" fill="#257089"/>
    <path id="Trazado_284661" data-name="Trazado 284661" d="M193.594,133.625c-1.225-1.182-1.826-2.785-2.808-4.129-.388-.53-.5-1.345-1.35-1.454a2.2,2.2,0,0,0-.409-1.286c-3.8-6.065-7.54-12.163-11.361-18.212-2.563-4.057-4.622-8.261-4.641-13.195-.175-8.3,3.212-14.8,9.913-19.637a7.1,7.1,0,0,1,.911-.478c-.323,7.788,2.11,15.025,4.729,22.157A150.264,150.264,0,0,0,200,121.449c1.136,1.942,2.227,3.909,3.338,5.866-3.17,2.222-6.669,3.938-9.741,6.31" transform="translate(285 674.19)" fill="#6aa4d2"/>
    <path id="Trazado_284662" data-name="Trazado 284662" d="M131.6,180.821c-1.316-5.792-1-11.413,1.8-16.758.534-1.016,1.154-1.987,1.735-2.979.948-.9,1.591-2.1,2.718-2.838a21.82,21.82,0,0,0,.664,9.526c1.749,6.363,5.576,11.3,10.471,15.522a54.882,54.882,0,0,0,17.725,9.881,87.367,87.367,0,0,0,10.986,3c.446.1.881.244,1.321.367l-.666,2.121c-.954,2.226-1.9,4.456-2.866,6.676-.772,1.768-1.649,2.187-3.418,1.458-9.4-3.875-18.834-7.677-28.161-11.724a21.475,21.475,0,0,1-11.494-12.165c-.282-.694-.547-1.394-.82-2.092" transform="translate(285 674.19)" fill="#d87d68"/>
    <path id="Trazado_284663" data-name="Trazado 284663" d="M173.025,95.348c.019,4.934,2.078,9.139,4.64,13.195,3.821,6.049,7.564,12.148,11.361,18.212a2.183,2.183,0,0,1,.409,1.286,19.1,19.1,0,0,1-5.268,6.99q-10.107,9.007-20.234,17.993a10.178,10.178,0,0,0-.705.76c-2.362-.709-4.659-1.668-7.162-1.812l-1.845-2.7c2.092-.4,3.4-2.071,5.036-3.181,5.62-3.818,10.841-8.174,16.215-12.325,3.756-2.9,4.141-5.493,1.589-9.52-2.59-4.087-5.353-8.074-7.576-12.382A21.54,21.54,0,0,1,167.654,97.1a15.887,15.887,0,0,0,.183-1.709l5.188-.043" transform="translate(285 674.19)" fill="#72c4bf"/>
    <path id="Trazado_284664" data-name="Trazado 284664" d="M204.7,199.6c.795,1.826,1.661,3.626,2.36,5.489a3.178,3.178,0,0,0,2.562,2.212,6.461,6.461,0,0,1-7.711,5.193,6.553,6.553,0,0,1,1.929-12.946c.286.028.573.035.86.052" transform="translate(285 674.19)" fill="#80dad5"/>
    <path id="Trazado_284665" data-name="Trazado 284665" d="M181.757,220.312a5.5,5.5,0,1,1-11-.244,5.681,5.681,0,0,1,5.546-5.366,5.579,5.579,0,0,1,5.449,5.61" transform="translate(285 674.19)" fill="#80dad5"/>
    <path id="Trazado_284666" data-name="Trazado 284666" d="M204.471,226.507a5.083,5.083,0,0,1-5.113,5.2,5.2,5.2,0,0,1-5.3-5.238,5.338,5.338,0,0,1,5.257-5.168,5.2,5.2,0,0,1,5.159,5.21" transform="translate(285 674.19)" fill="#3b668d"/>
    <path id="Trazado_284667" data-name="Trazado 284667" d="M178.359,198.669l.666-2.121,2.394-5.224c4.338-.7,7.62,2.2,6.774,5.99a4.94,4.94,0,0,1-3.991,4.056c-2.564.539-4.477-.545-5.843-2.7" transform="translate(285 674.19)" fill="#3b668d"/>
    <path id="Trazado_284668" data-name="Trazado 284668" d="M193.594,133.625c3.072-2.372,6.571-4.088,9.741-6.31a1.086,1.086,0,0,0,.317,0,78.858,78.858,0,0,0,6.172,9.561,149.949,149.949,0,0,0,11.181,13.818,25.517,25.517,0,0,0,1.9,1.774l-14.3,5.842c-1.754-3.518-4.047-6.714-6.087-10.06-2.857-4.686-5.812-9.313-8.716-13.97a2.685,2.685,0,0,1-.2-.651" transform="translate(285 674.19)" fill="#bbd6d8"/>
  </g>
</svg>
