<svg xmlns="http://www.w3.org/2000/svg" width="199.394" height="137.598" viewBox="0 0 199.394 137.598">
  <g id="Grupo_264926" data-name="Grupo 264926" transform="translate(-1712.75 10824.756)">
    <path id="Trazado_284754" data-name="Trazado 284754" d="M141.685,242.544c-.339-9.2,7.864-14.9,15.374-14.639a2.78,2.78,0,0,0,3.145-1.834,10.057,10.057,0,0,1,7.266-5.637c1.263-.272,1.233-.657.927-1.7a8.614,8.614,0,0,1,3.064-9.55,8.759,8.759,0,0,1,10.042-.152c1.046.69,1.533.465,2.269-.364A21.544,21.544,0,0,1,201,201.062c8.8.24,15.479,4.422,19.786,12.2.545.985,4.1,2.935,5.141,2.751.8-.142,1.088-.921,1.565-1.44a12.057,12.057,0,0,1,11.853-3.949,11.877,11.877,0,0,1,9.386,8.48,10.417,10.417,0,0,1,.351,6.055c-.206.759-.363,1.554.764,1.9,7.447,2.3,10.716,7.673,11.066,15.165q-12.748,0-25.5,0c-.635,0-1.33-.21-1.883.323l-39.787-.006c-.559-.522-1.252-.317-1.889-.317q-20.572-.014-41.145.006c-.642,0-1.331-.172-1.893.329l-7.136-.018" transform="translate(1641.689 -11025.809)" fill="#feb36a"/>
    <path id="Trazado_284755" data-name="Trazado 284755" d="M134.458,289.115c-2-.657-3.995-1.322-6-1.969a6.088,6.088,0,0,1-4.127-3.965c-2.335-7.277-4.536-14.6-6.76-21.907a7.013,7.013,0,0,1-.113-1.571c.264.193.546.365.789.582A5.527,5.527,0,0,0,127.2,258.2c.27-.671-.072-1.49.58-2.027,1.794,6.052,3.6,12.1,5.376,18.157a4.843,4.843,0,0,0,3.338,3.582q10.478,3.176,20.965,6.319a6.367,6.367,0,0,0,1.369.111l-.027-.024.459.4c6.981,2.145,13.951,4.325,20.946,6.422,4.469,1.34,8.857,2.962,13.438,3.917a99.11,99.11,0,0,0,12.456,3.787,71.43,71.43,0,0,0,7.859,2.559c5.87,1.9,11.871,3.392,17.665,5.541-1.869.666-3.589,1.521-4.556,3.4-1.461,2.846-.056,4.992,1.689,7.064-.7-.177-1.408-.327-2.1-.532q-11.613-3.451-23.223-6.915a104.83,104.83,0,0,0-12.81-3.737,46.712,46.712,0,0,0-10.689-3.159,51.18,51.18,0,0,0-11.985-3.625c-.413-.6-1.091-.671-1.709-.858L148,293.073l-13.543-3.958" transform="translate(1641.689 -11025.809)" fill="#b3b8dd"/>
    <path id="Trazado_284756" data-name="Trazado 284756" d="M255.127,254.185c-2.984,3.924-6.079,7.76-9.335,11.462l-.363.425.013-.015-.4.442.031-.034-.412.458.049-.02c-.772-.152-1.235.446-1.742.8a26.763,26.763,0,0,1-16.09,5.135c-14.22-.084-28.441.019-42.66-.047a14.876,14.876,0,0,1-14-8.658c-1.634-3.225-2.85-6.663-4.255-10.005q44.088-.01,88.174-.016c.33,0,.66.044.99.068m-41.977,8.693c-1.779,0-3.557-.007-5.336,0a2.3,2.3,0,0,0-2.527,2.4,2.229,2.229,0,0,0,2.227,2.691c3.682.146,7.378.146,11.061,0a2.228,2.228,0,0,0,2.233-2.685,2.294,2.294,0,0,0-2.52-2.4c-1.712-.014-3.425,0-5.138,0" transform="translate(1641.689 -11025.809)" fill="#febd0b"/>
    <path id="Trazado_284757" data-name="Trazado 284757" d="M255.127,254.185c-.33-.024-.66-.068-.989-.068q-44.088,0-88.174.016a21.052,21.052,0,0,1-5.146-.384c-2.516-1.381-3.987-3.353-3.587-6.374.29-2.194,1.657-3.61,4.061-4.814H148.821c.563-.5,1.252-.327,1.894-.328q20.572-.017,41.144-.006c.637,0,1.331-.205,1.889.317-2.255.751-3.35,2.183-3.046,3.983.311,1.846,1.769,2.914,4.093,2.916q18.862.015,37.724,0c2.318,0,3.613-.985,3.9-2.839.31-2.014-.555-3.229-2.883-4.052.554-.532,1.248-.322,1.884-.323q12.748-.017,25.5,0a26.032,26.032,0,0,1,4.931.347,5.667,5.667,0,0,1,4.608,5.631,5.566,5.566,0,0,1-4.648,5.582c-2.362.476-4.749.129-7.122.238q-1.779.083-3.558.162" transform="translate(1641.689 -11025.809)" fill="#fe7a47"/>
    <path id="Trazado_284758" data-name="Trazado 284758" d="M160.818,253.749a21.052,21.052,0,0,0,5.146.384c1.4,3.342,2.62,6.78,4.255,10.005a14.871,14.871,0,0,0,14,8.657c14.219.067,28.44-.036,42.66.048a26.769,26.769,0,0,0,16.09-5.134c.507-.36.971-.957,1.742-.806q-4.752,5.958-9.5,11.918c-.37.464-.724.941-1.086,1.411a31.283,31.283,0,0,0-17.243-2.444A30.873,30.873,0,0,0,196.834,289.5a44.056,44.056,0,0,1-5.311-.349,39.317,39.317,0,0,1-32.017-24.975c-1.327-3.362-3.094-6.557-3.916-10.115,1.714-.584,3.488-.161,5.228-.313" transform="translate(1641.689 -11025.809)" fill="#fe9a0b"/>
    <path id="Trazado_284759" data-name="Trazado 284759" d="M196.834,289.5a30.871,30.871,0,0,1,20.046-11.712,31.285,31.285,0,0,1,17.243,2.444c9.023,4.6,14.879,11.7,17.044,21.67a26.422,26.422,0,0,1,.236,10.647,93.9,93.9,0,0,1-12.409-3.919,15.068,15.068,0,0,0-1.5-7.88c-3.693-7.615-10.707-11.642-19.337-10.332A16.056,16.056,0,0,0,206.1,298.84a99.449,99.449,0,0,1-12.456-3.789,29.855,29.855,0,0,1,3.193-5.551" transform="translate(1641.689 -11025.809)" fill="#56547a"/>
    <path id="Trazado_284760" data-name="Trazado 284760" d="M244.616,327.645c-8.072,9.236-18.258,12.829-30.124,10.132-12.216-2.777-19.857-10.75-23.054-22.894a8.448,8.448,0,0,1-.441-3.129c1.773.486,3.533,1.021,5.32,1.445,2.746.652,5.318,1.97,8.189,2.134l0,0,.4.395.406.4a17.909,17.909,0,0,0,24.639,7.551l.789-.4a87.16,87.16,0,0,0,13.885,4.364" transform="translate(1641.689 -11025.809)" fill="#56557a"/>
    <path id="Trazado_284761" data-name="Trazado 284761" d="M196.834,289.5a29.855,29.855,0,0,0-3.193,5.551c-4.581-.955-8.969-2.577-13.438-3.917-7-2.1-13.965-4.277-20.945-6.421l-.46-.4.027.024c-7.965-6.848-11.8-16.187-15.475-25.628-.644-1.658-1.349-3.292-2.027-4.938,2.549-.007,5.1-.077,7.646,0,2.207.065,4.44-.363,6.621.29.822,3.557,2.589,6.752,3.916,10.114a39.314,39.314,0,0,0,32.016,24.975,44.057,44.057,0,0,0,5.312.348" transform="translate(1641.689 -11025.809)" fill="#fe780d"/>
    <path id="Trazado_284762" data-name="Trazado 284762" d="M127.777,256.171c-.651.537-.309,1.357-.579,2.028a5.529,5.529,0,0,1-8.948,2.086c-.243-.217-.525-.389-.789-.582l.021.016-.378-.415c-2.053-5.414-3.349-11.064-5.164-16.553-.31-.937-.551-1.9-.844-2.84-.994-3.2-.126-2.855-4.02-2.861-10.322-.013-20.644,0-30.966-.015-.768,0-1.6.255-2.3-.306,7.805.023,15.611.021,23.417.094,1.3.011,1.529-.539,1.51-1.663-.054-3.175-.1-6.355.017-9.527.06-1.557-.512-1.86-1.936-1.848-7.541.06-15.084.023-22.625.02a3.471,3.471,0,0,1,2.124-.253q17.856-.017,35.712,0c4.635,0,6.59,1.656,7.883,6.122,2.472,8.538,5.09,17.034,7.644,25.548.094.312.148.636.22.953" transform="translate(1641.689 -11025.809)" fill="#d2d6fa"/>
    <path id="Trazado_284763" data-name="Trazado 284763" d="M175.548,307.832c-6.275,6.45-12.508,12.942-18.845,19.331a5.384,5.384,0,0,1-9.114-1.77c-2.015-4.882-3.7-9.9-5.517-14.863q-2.216-6.048-4.4-12.111a12.668,12.668,0,0,1-.367-1.727,4.2,4.2,0,0,1,2.1.321c2.358.753,4.7,1.592,7.1,2.162,1.178.28,2.295,1.264,3.64.6,1.4,3.968,2.856,7.918,4.178,11.911.457,1.379.874,1.148,1.661.319,2.5-2.631,5.032-5.227,7.551-7.837a100.021,100.021,0,0,0,12.009,3.66" transform="translate(1641.689 -11025.809)" fill="#b3b8dd"/>
    <path id="Trazado_284764" data-name="Trazado 284764" d="M238.994,308.63a93.9,93.9,0,0,0,12.409,3.919c4.116,1.63,8.438,2.606,12.628,4a7.133,7.133,0,0,1,3.107,1.668,5.557,5.557,0,0,1,.959,6.749,5.648,5.648,0,0,1-6.725,2.452c-3.929-1.143-7.841-2.342-11.756-3.532a3.146,3.146,0,0,0-2.12-.177c-.174-.19-.314-.491-.526-.554-4.078-1.212-8.066-2.737-12.257-3.564l-5.959-2.186c-1.745-2.071-3.15-4.219-1.689-7.064.967-1.882,2.687-2.738,4.554-3.4,2.578.039,4.812,1.585,7.375,1.691" transform="translate(1641.689 -11025.809)" fill="#8787c4"/>
    <path id="Trazado_284765" data-name="Trazado 284765" d="M74.193,223.8c7.542,0,15.084.041,22.626-.019,1.424-.012,2,.291,1.936,1.848-.121,3.171-.071,6.351-.018,9.527.019,1.123-.209,1.674-1.509,1.662-7.806-.072-15.612-.07-23.418-.093a4.288,4.288,0,0,1-2.746-4.545c.037-1.314.019-2.63,0-3.945a4.091,4.091,0,0,1,3.125-4.435" transform="translate(1641.689 -11025.809)" fill="#febd0d"/>
    <path id="Trazado_284766" data-name="Trazado 284766" d="M155.59,254.062c-2.181-.652-4.414-.224-6.621-.29-2.546-.075-5.1,0-7.646,0-3.216-.778-4.89-2.78-4.822-5.769.066-2.9,1.938-4.876,5.184-5.462l7.136.018h12.471c-2.4,1.2-3.772,2.62-4.062,4.814-.4,3.02,1.071,4.992,3.587,6.374-1.739.151-3.513-.271-5.227.313" transform="translate(1641.689 -11025.809)" fill="#fe5047"/>
    <path id="Trazado_284767" data-name="Trazado 284767" d="M150.15,299.778c-1.346.661-2.462-.323-3.64-.6-2.4-.57-4.743-1.409-7.1-2.162a4.186,4.186,0,0,0-2.1-.321,43.775,43.775,0,0,1-2.851-7.576L148,293.074c.393,2.339,1.589,4.42,2.148,6.7" transform="translate(1641.689 -11025.809)" fill="#8787c4"/>
    <path id="Trazado_284768" data-name="Trazado 284768" d="M175.548,307.832a100.021,100.021,0,0,1-12.009-3.66l4.409-4.734a51.3,51.3,0,0,1,11.985,3.624c-1.1,1.923-2.869,3.23-4.385,4.77" transform="translate(1641.689 -11025.809)" fill="#8787c4"/>
    <path id="Trazado_284769" data-name="Trazado 284769" d="M204.506,315.333c-2.871-.163-5.443-1.482-8.189-2.134-1.787-.424-3.547-.959-5.32-1.444-.716-1.8-.269-3.687-.375-5.533a104.422,104.422,0,0,1,12.809,3.739c-.247,1.913.984,3.528,1.075,5.372" transform="translate(1641.689 -11025.809)" fill="#434267"/>
    <path id="Trazado_284770" data-name="Trazado 284770" d="M234.714,319.592c4.189.827,8.178,2.352,12.256,3.564.211.063.352.364.526.554a16.355,16.355,0,0,1-2.879,3.935,87.183,87.183,0,0,1-13.887-4.364,10.473,10.473,0,0,0,3.984-3.689" transform="translate(1641.689 -11025.809)" fill="#434267"/>
    <path id="Trazado_284771" data-name="Trazado 284771" d="M117.1,259.3l.378.415-.378-.415" transform="translate(1641.689 -11025.809)" fill="#b3b8dd"/>
    <path id="Trazado_284772" data-name="Trazado 284772" d="M245.429,266.072c.121-.142.242-.283.362-.425-.12.142-.241.283-.362.425" transform="translate(1641.689 -11025.809)" fill="#fe9a0b"/>
    <path id="Trazado_284773" data-name="Trazado 284773" d="M245.044,266.5l.4-.442-.4.442" transform="translate(1641.689 -11025.809)" fill="#fe9a0b"/>
    <path id="Trazado_284774" data-name="Trazado 284774" d="M244.664,266.922c.137-.151.275-.3.412-.457-.137.153-.275.306-.412.457" transform="translate(1641.689 -11025.809)" fill="#fe9a0b"/>
    <path id="Trazado_284775" data-name="Trazado 284775" d="M233.535,242.55c2.328.823,3.192,2.038,2.882,4.051-.285,1.855-1.58,2.838-3.9,2.84q-18.861.02-37.724,0c-2.324,0-3.782-1.071-4.093-2.916-.3-1.8.791-3.232,3.046-3.983l39.787.006" transform="translate(1641.689 -11025.809)" fill="#fefefe"/>
    <path id="Trazado_284776" data-name="Trazado 284776" d="M238.994,308.63c-2.563-.106-4.8-1.652-7.375-1.691-5.792-2.15-11.793-3.639-17.663-5.541a71.65,71.65,0,0,1-7.859-2.56,16.06,16.06,0,0,1,12.063-8.421c8.629-1.309,15.644,2.718,19.337,10.334a15.06,15.06,0,0,1,1.5,7.879" transform="translate(1641.689 -11025.809)" fill="#73779d"/>
    <path id="Trazado_284777" data-name="Trazado 284777" d="M234.714,319.592a10.473,10.473,0,0,1-3.984,3.689l-.789.4a2.963,2.963,0,0,0-.648-.4c-6.033-1.864-12.057-3.76-18.115-5.541-1.944-.573-3.774-1.6-5.875-1.606l-.406-.4-.4-.395.007.005c-.092-1.845-1.324-3.461-1.076-5.373q11.613,3.457,23.224,6.913c.691.205,1.4.355,2.1.532l5.961,2.186" transform="translate(1641.689 -11025.809)" fill="#565580"/>
    <path id="Trazado_284778" data-name="Trazado 284778" d="M158.8,284.316l.459.4-.459-.4" transform="translate(1641.689 -11025.809)" fill="#fefefe"/>
    <path id="Trazado_284779" data-name="Trazado 284779" d="M213.15,262.878c1.713,0,3.426-.01,5.138,0a2.294,2.294,0,0,1,2.52,2.4,2.228,2.228,0,0,1-2.233,2.685c-3.683.145-7.379.145-11.061,0a2.229,2.229,0,0,1-2.227-2.691,2.3,2.3,0,0,1,2.527-2.4c1.779-.01,3.557,0,5.336,0" transform="translate(1641.689 -11025.809)" fill="#fe9a0b"/>
    <path id="Trazado_284780" data-name="Trazado 284780" d="M205.3,316.128c2.1.006,3.931,1.035,5.876,1.607,6.057,1.781,12.081,3.677,18.114,5.541a2.963,2.963,0,0,1,.648.4,17.908,17.908,0,0,1-24.638-7.551" transform="translate(1641.689 -11025.809)" fill="#73779d"/>
    <path id="Trazado_284781" data-name="Trazado 284781" d="M204.5,315.329l.4.4-.4-.4" transform="translate(1641.689 -11025.809)" fill="#434267"/>
  </g>
</svg>
