<svg xmlns="http://www.w3.org/2000/svg" width="155.149" height="155.416" viewBox="0 0 155.149 155.416">
  <g id="Grupo_264929" data-name="Grupo 264929" transform="translate(-1744.01 7664.015)">
    <path id="Trazado_284841" data-name="Trazado 284841" d="M172.1,3362.017a3.076,3.076,0,0,1,1.735-.175q40.855-.014,81.711-.048c1.615,0,2.064.462,1.9,1.978-.123,1.117-.015,2.259-.026,3.389a4.8,4.8,0,0,1-3.654,4.9c-1.452.315-1.532,1.041-1.531,2.223q.031,61.531.016,123.063c0,.591-.03,1.183-.046,1.774q-14.938,0-29.878,0a98.947,98.947,0,0,1-11.871-.639,42.154,42.154,0,0,1-22.48-9.93,43.752,43.752,0,0,1-12.287-16.528,40.281,40.281,0,0,1-3.511-15.577c-.106-27.135-.048-54.27-.047-81.405q20.993,0,41.985-.006a9.287,9.287,0,0,0,1.915-.157c1.806-.389,2.8-1.531,2.6-2.891-.2-1.381-1.27-2.114-3.086-2.115l-43.437-.022q0-3.914-.005-7.826m33.6,98c17.175.4,30.627-13.87,31.028-29.853a31.017,31.017,0,1,0-62.014-1.536c-.255,17.623,14.141,31.761,30.986,31.389m.042,10.653c4.625,0,9.249-.016,13.874.014a7.45,7.45,0,0,0,2.372-.357,2.337,2.337,0,0,0,1.774-2.7,2.268,2.268,0,0,0-2.4-2.13q-15.648.021-31.3,0a2.253,2.253,0,0,0-2.374,2.157,2.343,2.343,0,0,0,1.8,2.684,7.722,7.722,0,0,0,2.374.348c4.624-.029,9.249-.014,13.873-.014m-.018,5.17c-3.494,0-6.987.013-10.481-.006a2.251,2.251,0,0,0-2.381,2.147,2.339,2.339,0,0,0,1.791,2.691,7.661,7.661,0,0,0,2.372.351c5.8-.026,11.609-.018,17.414-.008a7.343,7.343,0,0,0,2.06-.277,2.623,2.623,0,0,0,2.133-2.771,2.535,2.535,0,0,0-2.75-2.125c-3.386-.009-6.772,0-10.158,0" transform="translate(1641.689 -11025.809)" fill="#d78a55"/>
    <path id="Trazado_284842" data-name="Trazado 284842" d="M148.9,3423.826a23.57,23.57,0,0,1,9.228,2.227,8.947,8.947,0,0,0,1.046.344c.278.655.957.838,1.465,1.209,5.279,3.86,8.741,8.994,8.81,15.54.215,20.264.069,40.531.062,60.8-5.919.007-11.839-.016-17.758.036a53.494,53.494,0,0,0-8.362.261,2.407,2.407,0,0,0-2.24,2.324,2.346,2.346,0,0,0,1.8,2.541,8.22,8.22,0,0,0,2.537.348q14.287-.029,28.576-.007a4.5,4.5,0,0,1,.654,2.565c-.013,1.69.052,3.38.084,5.07-.586.045-1.172.128-1.758.128q-30.7,0-61.4-.016c-.533,0-1.067-.07-1.6-.107.015-1.83.01-3.66.049-5.49.044-2.036,1.71-4.45,3.59-4.62,1.592-.144,1.589-.9,1.588-2.069-.02-20.085-.078-40.17.016-60.254.039-8.376,4.125-14.449,11.39-18.475,1.791-.992,3.826-1.279,5.683-2.07a.625.625,0,0,0,.249-.2l.729.063c5.057.3,10.118.092,15.178.1.126,0,.253-.159.38-.244m-10.4,38.75a3.675,3.675,0,0,0,2.6.141c6.989.162,13.019-6.187,12.872-12.723.018-.59.012-1.183.058-1.771.059-.747-.222-1.059-1.005-1.06-5.23,0-10.092,1.79-13.042,7.279a34.222,34.222,0,0,0-1.477,4.05c-.111-.411-.233-.819-.332-1.233-1.385-5.772-6.9-10.124-12.58-9.928-.587-.031-1.174-.057-1.76-.1-.625-.042-.781.258-.843.858a13.424,13.424,0,0,0,10.826,14.419c1.523.261,3.111.931,4.678.065m.037,13.237c4.084,0,8.168.029,12.251-.012,1.892-.019,3.22-1.186,3.236-2.677s-1.3-2.631-3.189-2.731c-.214-.012-.429,0-.644,0q-11.687,0-23.373.007a7.3,7.3,0,0,0-1.589.162,2.493,2.493,0,0,0-2.181,2.6,2.464,2.464,0,0,0,2.137,2.468,8.467,8.467,0,0,0,1.747.182c3.868.016,7.737.008,11.605.007m-.064,10.341v-.005c2.469,0,4.94.061,7.407-.021a2.7,2.7,0,1,0,.016-5.371q-7.407-.092-14.815.006a2.81,2.81,0,0,0-2.895,2.669,2.931,2.931,0,0,0,2.88,2.706,10.833,10.833,0,0,0,1.127.016h6.28" transform="translate(1641.689 -11025.809)" fill="#ecc8b0"/>
    <path id="Trazado_284843" data-name="Trazado 284843" d="M174.8,3517.082c-.032-1.69-.1-3.379-.084-5.07a4.5,4.5,0,0,0-.654-2.564,3.158,3.158,0,0,0-2.465-2.309c-1.93-.392-2.318-1.528-2.09-3.2.006-20.266.153-40.533-.062-60.8-.07-6.547-3.532-11.68-8.811-15.54-.507-.372-1.187-.554-1.465-1.21q.014-24.63.028-49.261c0-.7.028-1.4.043-2.1l12.881,0c0,27.135-.058,54.27.047,81.4a40.3,40.3,0,0,0,3.511,15.578,43.757,43.757,0,0,0,12.287,16.527,42.155,42.155,0,0,0,22.48,9.931,98.946,98.946,0,0,0,11.871.638q14.938-.019,29.878,0,0,2.421,0,4.841-19.287.006-38.574.009a20.889,20.889,0,0,0-3.034.261,2.4,2.4,0,0,0-2.245,2.332,2.486,2.486,0,0,0,1.782,2.586,5.975,5.975,0,0,0,2.379.3q22.111,0,44.223,0c1.242,2.277.48,4.745.66,7.121.023.3-.2.481-.512.5s-.645.024-.967.024l-81.111-.01" transform="translate(1641.689 -11025.809)" fill="#c47a44"/>
    <path id="Trazado_284844" data-name="Trazado 284844" d="M132.361,3424.109c-1.857.791-3.892,1.078-5.683,2.07-7.265,4.026-11.351,10.1-11.39,18.475-.094,20.084-.036,40.169-.016,60.254,0,1.172,0,1.925-1.588,2.069-1.881.17-3.547,2.584-3.59,4.62-.039,1.83-.034,3.66-.049,5.49-2.205.018-4.41.012-6.613.067-.852.022-1.135-.312-1.11-1.137.045-1.451-.038-2.907.027-4.357a5.007,5.007,0,0,1,4.205-4.794c.763-.145,1.012-.443.954-1.154-.031-.374-.005-.752-.005-1.129q0-29.7,0-59.4c0-10.684,6.87-18.989,17.345-20.929a27,27,0,0,1,3.377-.211l4.135.062" transform="translate(1641.689 -11025.809)" fill="#e3af8a"/>
    <path id="Trazado_284845" data-name="Trazado 284845" d="M172.123,3375.034l-12.881.005a8.9,8.9,0,0,1-.031-1.43c.115-.861-.271-1.224-1.066-1.407a4.171,4.171,0,0,1-3.219-2.3l17.174-.056,43.438.022c1.816,0,2.883.735,3.086,2.115.2,1.361-.795,2.5-2.6,2.891a9.225,9.225,0,0,1-1.915.157q-20.992.012-41.985.006" transform="translate(1641.689 -11025.809)" fill="#e89a58"/>
    <path id="Trazado_284846" data-name="Trazado 284846" d="M256.732,3509.447q-22.111,0-44.224,0a5.975,5.975,0,0,1-2.379-.3,2.484,2.484,0,0,1-1.781-2.586,2.4,2.4,0,0,1,2.244-2.332,20.889,20.889,0,0,1,3.034-.261q19.287,0,38.575-.009a5.3,5.3,0,0,1,.034.964c-.162,1.129.212,1.719,1.417,1.976a3.954,3.954,0,0,1,3.08,2.551" transform="translate(1641.689 -11025.809)" fill="#e89a58"/>
    <path id="Trazado_284847" data-name="Trazado 284847" d="M133.34,3398.223c.471-.381,1.031-.227,1.552-.228,4.08-.013,8.162.063,12.239-.044,1.48-.039,1.673.481,1.779,1.823a16.294,16.294,0,0,1-3.542,11.544c-.515.678-.909,1.448-1.359,2.175-1.919.562-3.862.255-5.8.164.024-.833-.589-1.355-1-1.952-1.71-2.467-3.428-4.942-3.716-8.037-.168-1.8-.108-3.629-.151-5.445" transform="translate(1641.689 -11025.809)" fill="#ecc9b1"/>
    <path id="Trazado_284848" data-name="Trazado 284848" d="M138.209,3413.657c1.937.09,3.881.4,5.8-.164,3.242.638,5.178,2.7,4.869,6.505-.1,1.267.006,2.551.019,3.828-.127.085-.254.244-.381.244-5.059-.007-10.12.207-15.177-.1a30.484,30.484,0,0,0-.01-3.513,6.646,6.646,0,0,1,3.233-6.622l1.647-.179" transform="translate(1641.689 -11025.809)" fill="#0ca76e"/>
    <path id="Trazado_284849" data-name="Trazado 284849" d="M172.1,3369.843l-17.175.056c-1.564-2.3-.725-4.893-.844-7.36-.039-.816.805-.522,1.268-.524,5.582-.016,11.164,0,16.746,0q0,3.913.005,7.826" transform="translate(1641.689 -11025.809)" fill="#c47a44"/>
    <path id="Trazado_284850" data-name="Trazado 284850" d="M138.209,3413.657l-1.647.179-3.5-.186a12.554,12.554,0,0,0-2.378-3.946c-2.287-3.2-2.7-6.787-2.514-10.552.035-.705.339-.924.99-.917,1.392.015,2.785-.005,4.178-.011.042,1.815-.017,3.64.151,5.444.288,3.094,2.006,5.57,3.716,8.037.413.6,1.027,1.119,1,1.952" transform="translate(1641.689 -11025.809)" fill="#e3af8a"/>
    <path id="Trazado_284851" data-name="Trazado 284851" d="M133.064,3413.65l3.5.186a6.645,6.645,0,0,0-3.233,6.622,30.484,30.484,0,0,1,.01,3.513l-.729-.063-4.339-.074c-.025-1.819-.148-3.644-.052-5.457.134-2.553,1.93-4.226,4.845-4.727" transform="translate(1641.689 -11025.809)" fill="#04905e"/>
    <path id="Trazado_284852" data-name="Trazado 284852" d="M128.271,3423.834l4.339.075a.628.628,0,0,1-.249.2l-4.135-.063a.376.376,0,0,1,.045-.213" transform="translate(1641.689 -11025.809)" fill="#0ca76e"/>
    <path id="Trazado_284853" data-name="Trazado 284853" d="M205.692,3460.016c-16.844.373-31.241-13.765-30.985-31.389a31.017,31.017,0,1,1,62.014,1.536c-.4,15.983-13.854,30.252-31.029,29.853m-2.852-5.252c10.6,1.128,18.943-2.935,24.611-11.706,5.82-9.007,5.851-18.631.088-27.669-5.651-8.862-14.033-12.969-24.7-11.84a23.662,23.662,0,0,0-13.935,5.988,25.46,25.46,0,0,0-5.644,32.279,24.5,24.5,0,0,0,19.579,12.948" transform="translate(1641.689 -11025.809)" fill="#e99b58"/>
    <path id="Trazado_284854" data-name="Trazado 284854" d="M205.735,3470.669c-4.624,0-9.249-.015-13.873.014a7.717,7.717,0,0,1-2.374-.348,2.342,2.342,0,0,1-1.8-2.684,2.25,2.25,0,0,1,2.374-2.156q15.648.015,31.3,0a2.268,2.268,0,0,1,2.4,2.131,2.336,2.336,0,0,1-1.773,2.7,7.488,7.488,0,0,1-2.373.357c-4.624-.031-9.249-.015-13.873-.015" transform="translate(1641.689 -11025.809)" fill="#f4a76b"/>
    <path id="Trazado_284855" data-name="Trazado 284855" d="M205.716,3475.839c3.386,0,6.772-.006,10.158,0a2.536,2.536,0,0,1,2.75,2.126,2.624,2.624,0,0,1-2.133,2.771,7.377,7.377,0,0,1-2.06.276c-5.8-.01-11.61-.018-17.414.008a7.632,7.632,0,0,1-2.372-.351,2.339,2.339,0,0,1-1.791-2.691,2.252,2.252,0,0,1,2.381-2.147c3.494.02,6.987.006,10.481.006" transform="translate(1641.689 -11025.809)" fill="#f4a76b"/>
    <path id="Trazado_284856" data-name="Trazado 284856" d="M138.536,3475.814c-3.868,0-7.737.008-11.6-.008a8.452,8.452,0,0,1-1.747-.182,2.465,2.465,0,0,1-2.138-2.468,2.494,2.494,0,0,1,2.181-2.6,7.313,7.313,0,0,1,1.59-.162q11.687-.015,23.372-.007c.215,0,.431-.008.645,0,1.884.1,3.206,1.233,3.189,2.731s-1.345,2.658-3.237,2.677c-4.083.041-8.167.013-12.25.013" transform="translate(1641.689 -11025.809)" fill="#e99c5a"/>
    <path id="Trazado_284857" data-name="Trazado 284857" d="M169.509,3503.944c-.228,1.668.16,2.8,2.089,3.195a3.157,3.157,0,0,1,2.465,2.308q-14.288,0-28.576.007a8.224,8.224,0,0,1-2.537-.348,2.345,2.345,0,0,1-1.8-2.541,2.4,2.4,0,0,1,2.239-2.323,53.5,53.5,0,0,1,8.362-.262c5.92-.051,11.839-.028,17.759-.036" transform="translate(1641.689 -11025.809)" fill="#e3af8a"/>
    <path id="Trazado_284858" data-name="Trazado 284858" d="M138.471,3486.154h-6.28a10.833,10.833,0,0,1-1.127-.016,2.931,2.931,0,0,1-2.88-2.706,2.81,2.81,0,0,1,2.895-2.669q7.407-.107,14.815-.006a2.7,2.7,0,1,1-.016,5.371c-2.467.082-4.938.021-7.407.021Z" transform="translate(1641.689 -11025.809)" fill="#e99c5a"/>
    <path id="Trazado_284859" data-name="Trazado 284859" d="M153.975,3449.994c.147,6.536-5.883,12.885-12.871,12.724.28-7.434,6.479-13.028,12.871-12.724" transform="translate(1641.689 -11025.809)" fill="#a2e42f"/>
    <path id="Trazado_284860" data-name="Trazado 284860" d="M125.6,3447.332c5.683-.2,11.2,4.155,12.58,9.928.1.414.221.822.332,1.232q-.022.765-.046,1.53c-6.416.218-12.485-5.187-12.866-12.69" transform="translate(1641.689 -11025.809)" fill="#0ba66d"/>
    <path id="Trazado_284861" data-name="Trazado 284861" d="M125.6,3447.332c.381,7.5,6.45,12.908,12.867,12.69q.017,1.278.035,2.555c-1.567.866-3.156.2-4.679-.065A13.425,13.425,0,0,1,123,3448.093c.061-.6.218-.9.842-.858.586.039,1.173.065,1.76.1" transform="translate(1641.689 -11025.809)" fill="#04905e"/>
    <path id="Trazado_284862" data-name="Trazado 284862" d="M138.5,3462.576q-.018-1.278-.035-2.555l.045-1.529a34.222,34.222,0,0,1,1.477-4.05c2.95-5.489,7.813-7.281,13.043-7.279.782,0,1.063.313,1,1.06-.046.588-.041,1.181-.059,1.771-6.391-.3-12.591,5.29-12.871,12.724a3.68,3.68,0,0,1-2.605-.142" transform="translate(1641.689 -11025.809)" fill="#97d62a"/>
    <path id="Trazado_284863" data-name="Trazado 284863" d="M202.84,3403.549c10.666-1.129,19.048,2.978,24.7,11.84,5.763,9.038,5.733,18.662-.088,27.668-5.668,8.772-14.015,12.834-24.611,11.707-.206-.7-.867-.918-1.4-1.24a28.406,28.406,0,0,1-13.495-28.366,28.1,28.1,0,0,1,10.6-18.341c1.4-1.132,3.188-1.756,4.29-3.268m5.4,12.871a11.215,11.215,0,0,0-1.673-1.937c-.559-.685-.984-.722-1.665-.054a13.292,13.292,0,0,0-4.1,7.138c-2.458-1.547-4.981-2.9-8.03-2.664-2.6-.233-2.586-.233-2.57,2.233a13.259,13.259,0,0,0,12.939,13.178q-.006,7.406-.01,14.811c0,2.134.839,3.167,2.537,3.186,1.778.02,2.622-1.016,2.628-3.259q.017-7.325.019-14.65c.691-.082,1.385-.15,2.073-.249,5.9-.849,11-6.815,10.773-12.6a7.89,7.89,0,0,1,.066-.963c.288-1.536-.427-1.828-1.841-1.818a15.775,15.775,0,0,0-8.745,2.829,9.64,9.64,0,0,0-2.4-5.184" transform="translate(1641.689 -11025.809)" fill="#f3e1d2"/>
    <path id="Trazado_284864" data-name="Trazado 284864" d="M202.84,3403.549c-1.1,1.512-2.887,2.136-4.29,3.268a28.089,28.089,0,0,0-10.6,18.341,28.406,28.406,0,0,0,13.495,28.366c.531.322,1.192.536,1.4,1.24a24.5,24.5,0,0,1-19.579-12.949,25.46,25.46,0,0,1,5.644-32.278,23.665,23.665,0,0,1,13.935-5.988" transform="translate(1641.689 -11025.809)" fill="#ecc9b1"/>
    <path id="Trazado_284865" data-name="Trazado 284865" d="M203.15,3434.314a13.258,13.258,0,0,1-12.94-13.178c-.017-2.466-.035-2.465,2.569-2.233a13.228,13.228,0,0,0,10.856,12.587c1.374.292,2.344.088,2.375-1.582.331-3.447,2.282-5.989,4.64-8.3a15.758,15.758,0,0,1,8.743-2.828c1.414-.011,2.129.281,1.841,1.817a7.715,7.715,0,0,0-.065.964,15.59,15.59,0,0,0-2.562.169c-5.955,1.477-9.692,5.957-10.332,12.451l-5.125.137" transform="translate(1641.689 -11025.809)" fill="#04905e"/>
    <path id="Trazado_284866" data-name="Trazado 284866" d="M208.275,3434.177c.639-6.494,4.377-10.974,10.332-12.451a15.59,15.59,0,0,1,2.562-.169c.224,5.781-4.875,11.747-10.773,12.6-.689.1-1.382.167-2.073.249a.793.793,0,0,0-.048-.225" transform="translate(1641.689 -11025.809)" fill="#0ba66d"/>
    <path id="Trazado_284867" data-name="Trazado 284867" d="M206.011,3429.908c-.032,1.67-1,1.874-2.375,1.582A13.226,13.226,0,0,1,192.78,3418.9c3.048-.232,5.572,1.117,8.03,2.664l2.593,2.72a29.156,29.156,0,0,1,1.889,4.169c.148.517-.048,1.233.719,1.452" transform="translate(1641.689 -11025.809)" fill="#0ba66d"/>
    <path id="Trazado_284868" data-name="Trazado 284868" d="M208.275,3434.177a.793.793,0,0,1,.048.225q-.009,7.326-.02,14.65c0,2.243-.849,3.28-2.627,3.259-1.7-.019-2.535-1.052-2.537-3.186q-.008-7.406.01-14.811l5.126-.137" transform="translate(1641.689 -11025.809)" fill="#e99b58"/>
    <path id="Trazado_284869" data-name="Trazado 284869" d="M206.011,3429.908c-.767-.219-.571-.935-.719-1.452a29.156,29.156,0,0,0-1.889-4.169,12.445,12.445,0,0,1,4.841-7.867,9.645,9.645,0,0,1,2.406,5.184c-2.357,2.315-4.308,4.857-4.639,8.3" transform="translate(1641.689 -11025.809)" fill="#a2e42f"/>
    <path id="Trazado_284870" data-name="Trazado 284870" d="M208.244,3416.42a12.453,12.453,0,0,0-4.841,7.867l-2.592-2.72a13.284,13.284,0,0,1,4.1-7.138c.681-.668,1.106-.631,1.665.054a11.215,11.215,0,0,1,1.673,1.937" transform="translate(1641.689 -11025.809)" fill="#97d62a"/>
  </g>
</svg>
