<svg id="Grupo_1017403" data-name="Grupo 1017403" xmlns="http://www.w3.org/2000/svg" xmlns:xlink="http://www.w3.org/1999/xlink" width="190" height="187" viewBox="0 0 190 187">
  <defs>
    <clipPath id="clip-path">
      <rect id="Rectángulo_346997" data-name="Rectángulo 346997" width="190" height="187" fill="none"/>
    </clipPath>
    <clipPath id="clip-path-2">
      <rect id="Rectángulo_346996" data-name="Rectángulo 346996" width="190.001" height="187" fill="none"/>
    </clipPath>
    <clipPath id="clip-path-3">
      <rect id="Rectángulo_346969" data-name="Rectángulo 346969" width="27.396" height="8.839" fill="none"/>
    </clipPath>
    <clipPath id="clip-path-4">
      <rect id="Rectángulo_346970" data-name="Rectángulo 346970" width="9.701" height="36.065" fill="none"/>
    </clipPath>
    <clipPath id="clip-path-5">
      <rect id="Rectángulo_346971" data-name="Rectángulo 346971" width="9.633" height="30.962" fill="none"/>
    </clipPath>
    <clipPath id="clip-path-6">
      <rect id="Rectángulo_346972" data-name="Rectángulo 346972" width="6.867" height="7.031" fill="none"/>
    </clipPath>
    <clipPath id="clip-path-7">
      <rect id="Rectángulo_346973" data-name="Rectángulo 346973" width="1.268" height="3.142" fill="none"/>
    </clipPath>
    <clipPath id="clip-path-8">
      <rect id="Rectángulo_346974" data-name="Rectángulo 346974" width="3.162" height="3.108" fill="none"/>
    </clipPath>
  </defs>
  <g id="Grupo_1017402" data-name="Grupo 1017402" clip-path="url(#clip-path)">
    <g id="Grupo_1017401" data-name="Grupo 1017401" transform="translate(0 0)">
      <g id="Grupo_1017400" data-name="Grupo 1017400" clip-path="url(#clip-path-2)">
        <path id="Trazado_607145" data-name="Trazado 607145" d="M1461.688,390.075c-1.66-.309-3.212-3.037-3.751-4.083a1.278,1.278,0,0,1-.119-.83l.66-3.444s1.525.255,1.407,2.252a1.452,1.452,0,0,0,.106.608l.584,1.5,1.725-1.314-.947-2.628a4.666,4.666,0,0,1-1.92.137c-1.343-.421.417-1.451.974-1.56s1.781-.547,2.338.383.891,1.478.891,1.478.612-2.08.195-6.734c-.019-.209.515-.2.664-.055.448.449,1.162,1.814,1.2,5.967,0,0,.075-4.84.918-5.337.7-.411,1.047,1.958.557,5.975,0,0,.908-3.478,1.558-3.484,1.1-.01.014,9.289-2.743,12.061Z" transform="translate(-1279.151 -330.405)" fill="#f9b384"/>
        <path id="Trazado_607146" data-name="Trazado 607146" d="M1474.982,483.329q-.073.694-.162,1.345v0a38.545,38.545,0,0,1-.726,4.1c-.015.058-.024.111-.039.164-.838,3.379-.99,5.033-3.853,4.589l-2.946-3.3-.029-.034-.216-.241.6-1.735.078-.227.441-1.263.054-.164.755-2.174.3-.882Z" transform="translate(-1287.24 -425.083)" fill="#f9b384"/>
        <path id="Trazado_607147" data-name="Trazado 607147" d="M1020.4,1479.591l-.75,2.3c-5.142,1.661-8.141,3.564-8.333,5.784h14.869l1.192-7.717a11.716,11.716,0,0,1-6.978-.373" transform="translate(-887.388 -1301.284)" fill="#1f3c88"/>
        <path id="Trazado_607148" data-name="Trazado 607148" d="M1087.3,1432.049l-1.864,5.729a11.717,11.717,0,0,0,6.978.373l.769-4.977Z" transform="translate(-952.426 -1259.471)" fill="#f9b384"/>
        <path id="Trazado_607149" data-name="Trazado 607149" d="M1258.467,1434.883l.436-5.835-6.985.361-.382,5.379a11.61,11.61,0,0,0,6.93.095" transform="translate(-1098.17 -1256.832)" fill="#f9b384"/>
        <path id="Trazado_607150" data-name="Trazado 607150" d="M1262.583,1485.126c-.192-2.22-2.818-5.262-8.578-5.986l.176-2.359a11.611,11.611,0,0,1-6.93-.095l-.6,8.439Z" transform="translate(-1093.883 -1298.73)" fill="#1f3c88"/>
        <path id="Trazado_607151" data-name="Trazado 607151" d="M1201.558,416.524l-8.426.058V404.049h8.171l0,.766.039,3.972.059,6.377Z" transform="translate(-1046.922 -355.357)" fill="#f9b384"/>
        <path id="Trazado_607152" data-name="Trazado 607152" d="M1209.1,419.38c-1.515,1.567-5.466-.2-7.132-1.928l7.093-2.044Z" transform="translate(-1054.679 -365.347)" fill="#e28b6d"/>
        <path id="Trazado_607153" data-name="Trazado 607153" d="M1180.657,319.118a17.6,17.6,0,0,1-.221,2.82c-.411,2.526-1.5,4.71-4.01,4.777-5.931.169-7.622-3.167-8.74-5.9s.7-9.3.7-9.3l7.676-.747,4.215,3.4a30.417,30.417,0,0,1,.382,4.951" transform="translate(-1024.276 -273.318)" fill="#f9b384"/>
        <path id="Trazado_607154" data-name="Trazado 607154" d="M1141.228,282.976s1.692-.077,1.981-4.372a6.041,6.041,0,0,0,6.989-1.894,4.072,4.072,0,0,0,7.093-1.426c1.021-2.872-1.8-7.15-5.9-4.559-4.023-2-10.126-1.862-11.881,3.041,0,0-6.1,2.768.359,8.862a7.574,7.574,0,0,0,1.363.347" transform="translate(-997.578 -237.037)" fill="#102048"/>
        <path id="Trazado_607155" data-name="Trazado 607155" d="M1250.923,881.349l-4.657,69.258h-10.947l2.737-67.205,1.675-.763Z" transform="translate(-1083.939 -775.136)" fill="#102048"/>
        <path id="Trazado_607156" data-name="Trazado 607156" d="M1075,765.19l-7.679,78.734h11.927l11.356-65.4,12.908-3.856.572-13.979-28.757-.643Z" transform="translate(-936.526 -668.454)" fill="#1f3c88"/>
        <g id="Grupo_1017384" data-name="Grupo 1017384" transform="translate(137.762 88.94)" opacity="0.6">
          <g id="Grupo_1017383" data-name="Grupo 1017383">
            <g id="Grupo_1017382" data-name="Grupo 1017382" clip-path="url(#clip-path-3)">
              <path id="Trazado_607157" data-name="Trazado 607157" d="M1126.614,745.995c6.515,2.3,21.8-.329,24.974-3.532l-2.255-4.436-25.141,3.286Z" transform="translate(-1124.192 -738.027)" fill="#102048"/>
            </g>
          </g>
        </g>
        <path id="Trazado_607158" data-name="Trazado 607158" d="M1179.1,506.589c-.211.087-.426.178-.647.26a44.819,44.819,0,0,1-8.166,2.391,38.082,38.082,0,0,1-5.476.66,32.15,32.15,0,0,1-8.6-.684l3.652-33.483.446-4.083s4.779,5.785,10.049-.6Z" transform="translate(-1014.526 -414.282)" fill="#fff"/>
        <g id="Grupo_1017387" data-name="Grupo 1017387" transform="translate(141.685 59.599)" opacity="0.3">
          <g id="Grupo_1017386" data-name="Grupo 1017386">
            <g id="Grupo_1017385" data-name="Grupo 1017385" clip-path="url(#clip-path-4)">
              <path id="Trazado_607159" data-name="Trazado 607159" d="M1164.81,530.57a32.147,32.147,0,0,1-8.6-.685l3.652-33.483,1.3-1.854c3.22,7.7,6.519,24.76,3.642,36.021" transform="translate(-1156.212 -494.549)" fill="#1f3c88"/>
            </g>
          </g>
        </g>
        <path id="Trazado_607160" data-name="Trazado 607160" d="M902.86,465.049c3.631,15.161,5.125,30.761-.225,48.084a20.349,20.349,0,0,1-12.908.161l1.144-31.494L863.953,500l-1.634-9.922c10.348-9.73,28.239-24.43,40.541-25.026" transform="translate(-756.648 -409.006)" fill="#708cd5"/>
        <g id="Grupo_1017390" data-name="Grupo 1017390" transform="translate(154.291 63.997)" opacity="0.3">
          <g id="Grupo_1017389" data-name="Grupo 1017389">
            <g id="Grupo_1017388" data-name="Grupo 1017388" clip-path="url(#clip-path-5)">
              <path id="Trazado_607161" data-name="Trazado 607161" d="M1268.717,559.619a44.818,44.818,0,0,1-8.166,2.391c-1.622-9.149-1.98-24.179-.662-30.962Z" transform="translate(-1259.083 -531.048)" fill="#1f3c88"/>
            </g>
          </g>
        </g>
        <g id="Grupo_1017393" data-name="Grupo 1017393" transform="translate(179.987 61.491)" opacity="0.6">
          <g id="Grupo_1017392" data-name="Grupo 1017392">
            <g id="Grupo_1017391" data-name="Grupo 1017391" clip-path="url(#clip-path-6)">
              <path id="Trazado_607162" data-name="Trazado 607162" d="M1475.639,512.457c-.015.058-.024.111-.039.164-.839,3.379-.99,5.033-3.853,4.589l-2.946-3.3-.029-.034.382-1.976.078-.227.441-1.263.054-.164Z" transform="translate(-1468.772 -510.249)" fill="#e28b6d"/>
            </g>
          </g>
        </g>
        <path id="Trazado_607163" data-name="Trazado 607163" d="M1291.855,474.455s-7.23,15.064-11.519,15.425c-4.158.35-6.127-3.615-6.127-3.615l2.941,22.015a19.052,19.052,0,0,1-11.6,1.605c-3.887-12.413-5.356-28.462-5.646-46.337,3.147.193,9.379.457,11.611,1.868,4,2.531,8.946,11.569,8.946,11.569l5.759-7.713Z" transform="translate(-1105.51 -407.686)" fill="#708cd5"/>
        <path id="Trazado_607164" data-name="Trazado 607164" d="M1151.827,369.412c-.072-.259-1.269-.615-1.532-.687a1.866,1.866,0,0,0-1.25.011c-1.448.643-1.254,2.681-.5,3.753a3.261,3.261,0,0,0,1.77,1.277c.263.074,2.753.1,2.644-.29l-1.127-4.064" transform="translate(-1007.289 -324.2)" fill="#f9b384"/>
        <path id="Trazado_607165" data-name="Trazado 607165" d="M1366.065,566.624c.194,1.138.36,2.28.519,3.422s.3,2.287.444,3.431l.38,3.438c.111,1.148.219,2.3.291,3.448l-.19.022c-.2-1.137-.364-2.279-.526-3.421l-.437-3.431c-.123-1.146-.265-2.291-.373-3.439s-.22-2.3-.3-3.447Z" transform="translate(-1198.497 -498.34)" fill="#1f3c88"/>
        <path id="Trazado_607166" data-name="Trazado 607166" d="M1091.8,565.02c0,1.278-.034,2.555-.073,3.831s-.1,2.552-.148,3.828l-.213,3.825c-.087,1.274-.176,2.548-.3,3.821l-.192-.009c0-1.278.03-2.555.066-3.832l.155-3.827c.074-1.275.13-2.55.22-3.825s.175-2.548.295-3.821Z" transform="translate(-957.191 -496.921)" fill="#1f3c88"/>
        <path id="Trazado_607167" data-name="Trazado 607167" d="M1219.05,369.075a.754.754,0,0,1-.426.958c-.338.075-.7-.233-.8-.688a.754.754,0,0,1,.425-.958c.339-.075.7.234.8.688" transform="translate(-1068.563 -323.983)" fill="#102048"/>
        <path id="Trazado_607168" data-name="Trazado 607168" d="M1258.9,363.17c-.02.466-.317.831-.664.817s-.611-.4-.591-.869.317-.831.664-.817.611.4.591.869" transform="translate(-1103.531 -318.64)" fill="#102048"/>
        <path id="Trazado_607169" data-name="Trazado 607169" d="M1244.326,372.683a10.721,10.721,0,0,1,.25,1.154.9.9,0,0,0,.238.4,1.556,1.556,0,0,0,.46.222,1.279,1.279,0,0,1,.581.43.738.738,0,0,1,.059.789,1.5,1.5,0,0,1-.479.476c-.168.112-.33.23-.505.335l-.126-.142c.129-.156.27-.3.405-.446a1.412,1.412,0,0,0,.317-.406c.1-.223-.118-.467-.44-.593a1.713,1.713,0,0,1-.6-.333,1.167,1.167,0,0,1-.315-.637c-.081-.447.012-.829-.032-1.2Z" transform="translate(-1091.678 -327.771)" fill="#e28b6d"/>
        <path id="Trazado_607170" data-name="Trazado 607170" d="M1208.943,356.159a1.4,1.4,0,0,1,.5-.751,1.538,1.538,0,0,1,.889-.327,1.65,1.65,0,0,1,1.546.854l-.15.117a2.127,2.127,0,0,0-1.372-.492,1.608,1.608,0,0,0-1.239.679Z" transform="translate(-1060.796 -312.287)" fill="#102048"/>
        <path id="Trazado_607171" data-name="Trazado 607171" d="M1250.228,352.118a1.449,1.449,0,0,1,.385-.609,1.29,1.29,0,0,1,.7-.339,1.226,1.226,0,0,1,1.3.638l-.153.113a1.574,1.574,0,0,0-1.074-.276,1.394,1.394,0,0,0-.512.184,3.389,3.389,0,0,0-.475.385Z" transform="translate(-1097.021 -308.837)" fill="#102048"/>
        <path id="Trazado_607172" data-name="Trazado 607172" d="M1228.1,411.422c.856,1.317,2,1.461,2.877.074Z" transform="translate(-1077.606 -361.841)" fill="#fff"/>
        <g id="Grupo_1017396" data-name="Grupo 1017396" transform="translate(155.136 45.478)" opacity="0.4">
          <g id="Grupo_1017395" data-name="Grupo 1017395">
            <g id="Grupo_1017394" data-name="Grupo 1017394" clip-path="url(#clip-path-7)">
              <path id="Trazado_607173" data-name="Trazado 607173" d="M1267.239,377.382a21.884,21.884,0,0,1-.243,3.141,1.454,1.454,0,0,1-1.025-1.384,1.858,1.858,0,0,1,1.268-1.758" transform="translate(-1265.971 -377.382)" fill="#fc8879"/>
            </g>
          </g>
        </g>
        <g id="Grupo_1017399" data-name="Grupo 1017399" transform="translate(146.825 46.544)" opacity="0.4">
          <g id="Grupo_1017398" data-name="Grupo 1017398">
            <g id="Grupo_1017397" data-name="Grupo 1017397" clip-path="url(#clip-path-8)">
              <path id="Trazado_607174" data-name="Trazado 607174" d="M1201.313,387.77a1.581,1.581,0,1,1-1.58-1.554,1.568,1.568,0,0,1,1.58,1.554" transform="translate(-1198.151 -386.216)" fill="#fc8879"/>
            </g>
          </g>
        </g>
        <path id="Trazado_607175" data-name="Trazado 607175" d="M1157.837,379.83a7.916,7.916,0,0,0-.884-.572.783.783,0,0,0-.39-.1.882.882,0,0,0-.408.184l-.161-.1a.755.755,0,0,1,.466-.493.924.924,0,0,1,.709.081,1.816,1.816,0,0,1,.82.888Z" transform="translate(-1014.336 -333.069)" fill="#e28b6d"/>
        <path id="Trazado_607176" data-name="Trazado 607176" d="M117.152,308.69H9.108A9.033,9.033,0,0,1,0,299.733V147.321a9.033,9.033,0,0,1,9.108-8.957H117.152a9.033,9.033,0,0,1,9.108,8.957V299.733a9.033,9.033,0,0,1-9.108,8.957" transform="translate(0 -121.69)" fill="#a9bae6"/>
        <rect id="Rectángulo_346975" data-name="Rectángulo 346975" width="103.921" height="148.456" transform="translate(11.411 23.538)" fill="#f6f5f5"/>
        <path id="Trazado_607177" data-name="Trazado 607177" d="M197.032,195.329c.032,57.89,1.933,127.708-4.679,143.166-29.125,2.791-63.227,3.686-99.243,3.853L106.8,195.776Z" transform="translate(-81.699 -171.79)" fill="#e4e4e4"/>
        <path id="Trazado_607178" data-name="Trazado 607178" d="M146.5,333.866c-45.395,7.145-75.735,7.521-100.342,5.725,3.189-33.382,4.467-88.838,5.753-144.206l54.7.119,49.507,3.214c.721,57.466.8,110.548-9.62,135.148" transform="translate(-40.505 -171.839)" fill="#fff"/>
        <rect id="Rectángulo_346976" data-name="Rectángulo 346976" width="8.213" height="54.687" transform="translate(35.094 45.418) rotate(-88.652)" fill="#708cd5"/>
        <rect id="Rectángulo_346977" data-name="Rectángulo 346977" width="3.769" height="49.326" transform="matrix(0.024, -1, 1, 0.024, 51.097, 61.141)" fill="#708cd5"/>
        <rect id="Rectángulo_346978" data-name="Rectángulo 346978" width="3.762" height="33.528" transform="translate(50.901 69.314) rotate(-88.652)" fill="#d3dfff"/>
        <rect id="Rectángulo_346979" data-name="Rectángulo 346979" width="11.488" height="11.681" transform="translate(23.7 68.464) rotate(-88.652)" fill="#fff"/>
        <rect id="Rectángulo_346980" data-name="Rectángulo 346980" width="11.488" height="11.681" transform="translate(23.7 68.464) rotate(-88.652)" fill="none" stroke="#708cd5" stroke-miterlimit="10" stroke-width="6"/>
        <path id="Trazado_607179" data-name="Trazado 607179" d="M211,448.331c.36,1.357,1.026,7.041,3.92,5.451a8.721,8.721,0,0,0,1.732-1.893l2.693-3.006,5.385-6.013c.46-.514-1.571-1.8-2.149-1.157l-4.787,5.345-2.394,2.672c-.554.618-1.834,2.612-2.655,2.789l1.34.426c.316.255-.271-1.551-.284-1.6l-.668-2.515c-.184-.693-2.407-1.525-2.134-.5" transform="translate(-185.127 -388.327)" fill="#ee6f57"/>
        <rect id="Rectángulo_346981" data-name="Rectángulo 346981" width="3.765" height="40.619" transform="translate(50.597 82.013) rotate(-88.652)" fill="#708cd5"/>
        <rect id="Rectángulo_346982" data-name="Rectángulo 346982" width="3.769" height="49.326" transform="matrix(0.024, -1, 1, 0.024, 50.402, 90.185)" fill="#d3dfff"/>
        <rect id="Rectángulo_346983" data-name="Rectángulo 346983" width="11.488" height="11.681" transform="translate(23.201 89.335) rotate(-88.652)" fill="#fff"/>
        <rect id="Rectángulo_346984" data-name="Rectángulo 346984" width="11.488" height="11.681" transform="translate(23.201 89.335) rotate(-88.652)" fill="none" stroke="#708cd5" stroke-miterlimit="10" stroke-width="6"/>
        <path id="Trazado_607180" data-name="Trazado 607180" d="M206.865,624.209c.36,1.357,1.026,7.041,3.92,5.452a8.716,8.716,0,0,0,1.732-1.893l2.693-3.006,5.385-6.013c.46-.514-1.571-1.8-2.149-1.157l-4.787,5.345-2.394,2.672c-.554.618-1.834,2.612-2.656,2.789l1.34.426c.316.255-.271-1.551-.284-1.6L209,624.708c-.184-.693-2.406-1.525-2.134-.5" transform="translate(-181.495 -543.01)" fill="#ee6f57"/>
        <rect id="Rectángulo_346985" data-name="Rectángulo 346985" width="3.769" height="49.326" transform="matrix(0.024, -1, 1, 0.024, 50.098, 102.884)" fill="#708cd5"/>
        <rect id="Rectángulo_346986" data-name="Rectángulo 346986" width="3.758" height="22.06" transform="matrix(0.024, -1, 1, 0.024, 49.902, 111.057)" fill="#d3dfff"/>
        <rect id="Rectángulo_346987" data-name="Rectángulo 346987" width="11.488" height="11.681" transform="translate(22.701 110.207) rotate(-88.652)" fill="#fff"/>
        <rect id="Rectángulo_346988" data-name="Rectángulo 346988" width="11.488" height="11.681" transform="translate(22.701 110.207) rotate(-88.652)" fill="none" stroke="#708cd5" stroke-miterlimit="10" stroke-width="6"/>
        <path id="Trazado_607181" data-name="Trazado 607181" d="M204.082,798.631c.36,1.357,1.026,7.041,3.92,5.451a8.719,8.719,0,0,0,1.732-1.893l2.693-3.006,5.385-6.013c.46-.514-1.571-1.8-2.149-1.157l-4.787,5.345-2.394,2.672c-.554.618-1.834,2.612-2.656,2.789l1.34.426c.316.255-.271-1.551-.284-1.6l-.668-2.515c-.184-.693-2.407-1.525-2.134-.5" transform="translate(-179.053 -696.412)" fill="#ee6f57"/>
        <rect id="Rectángulo_346989" data-name="Rectángulo 346989" width="3.769" height="49.326" transform="matrix(0.024, -1, 1, 0.024, 49.598, 123.756)" fill="#708cd5"/>
        <rect id="Rectángulo_346990" data-name="Rectángulo 346990" width="3.765" height="38.966" transform="translate(49.403 131.928) rotate(-88.652)" fill="#d3dfff"/>
        <rect id="Rectángulo_346991" data-name="Rectángulo 346991" width="11.488" height="11.681" transform="translate(22.202 131.078) rotate(-88.652)" fill="#fff"/>
        <rect id="Rectángulo_346992" data-name="Rectángulo 346992" width="11.488" height="11.681" transform="translate(22.202 131.078) rotate(-88.652)" fill="none" stroke="#708cd5" stroke-miterlimit="10" stroke-width="6"/>
        <path id="Trazado_607182" data-name="Trazado 607182" d="M200.032,970.685c.36,1.357,1.026,7.041,3.92,5.451a8.721,8.721,0,0,0,1.732-1.893l2.693-3.006,5.385-6.013c.46-.514-1.571-1.8-2.149-1.157l-4.787,5.345-2.393,2.672c-.554.618-1.834,2.612-2.656,2.789l1.34.426c.316.255-.271-1.551-.284-1.6l-.668-2.515c-.184-.693-2.406-1.525-2.134-.5" transform="translate(-175.5 -847.731)" fill="#ee6f57"/>
        <rect id="Rectángulo_346993" data-name="Rectángulo 346993" width="3.757" height="19.554" transform="matrix(0.024, -1, 1, 0.024, 49.103, 144.469)" fill="#708cd5"/>
        <path id="Trazado_607183" data-name="Trazado 607183" d="M448.5,1236.659l-49.311-1.141-.09,3.748c19.078.44,43.369,1.319,48.326.571a4.165,4.165,0,0,0,1.075-3.178" transform="translate(-350.194 -1086.624)" fill="#d3dfff"/>
        <rect id="Rectángulo_346994" data-name="Rectángulo 346994" width="11.488" height="11.681" transform="translate(21.869 151.796) rotate(-88.652)" fill="#fff"/>
        <rect id="Rectángulo_346995" data-name="Rectángulo 346995" width="11.488" height="11.681" transform="translate(21.869 151.796) rotate(-88.652)" fill="none" stroke="#708cd5" stroke-miterlimit="10" stroke-width="6"/>
        <path id="Trazado_607184" data-name="Trazado 607184" d="M196.018,1141.234c.36,1.357,1.026,7.041,3.92,5.451a8.717,8.717,0,0,0,1.732-1.893l2.693-3.006,5.385-6.013c.46-.513-1.571-1.8-2.149-1.157l-4.787,5.345-2.394,2.672c-.554.618-1.834,2.612-2.656,2.789l1.34.426c.316.255-.271-1.551-.284-1.6l-.668-2.515c-.184-.693-2.406-1.525-2.134-.5" transform="translate(-171.977 -997.727)" fill="#ee6f57"/>
        <path id="Trazado_607185" data-name="Trazado 607185" d="M370.97,17.708V29.167H324.159V17.708a6.559,6.559,0,0,1,1.97-4.681,5.536,5.536,0,0,1,.475-.419,6.749,6.749,0,0,1,4.284-1.518,8.037,8.037,0,0,0,3.441-.771,8.287,8.287,0,0,0,1.294-.766A7.794,7.794,0,0,0,338.5,5.547a7.826,7.826,0,0,1,2.961-4.068A8.044,8.044,0,0,1,346.1,0h2.921a8.044,8.044,0,0,1,4.647,1.475,7.826,7.826,0,0,1,2.961,4.068,7.794,7.794,0,0,0,2.872,4.006,8.29,8.29,0,0,0,1.294.766,8.037,8.037,0,0,0,3.441.771,6.749,6.749,0,0,1,4.284,1.518,6.546,6.546,0,0,1,2.446,5.1" transform="translate(-284.436 -0.003)" fill="#ee6f57"/>
        <path id="Trazado_607186" data-name="Trazado 607186" d="M347.569,195.323v8.518H293.16v-8.518h3.8v5.625H343.77v-5.625Z" transform="translate(-257.235 -171.784)" fill="#e4e4e4"/>
        <path id="Trazado_607187" data-name="Trazado 607187" d="M489.586,28.674a4.162,4.162,0,1,1-4.152-3.881,4.023,4.023,0,0,1,4.152,3.881" transform="translate(-422.304 -21.806)" fill="#fff"/>
      </g>
    </g>
  </g>
</svg>
