<svg xmlns="http://www.w3.org/2000/svg" width="91" height="91" viewBox="0 0 91 91">
  <g id="Grupo_265355" data-name="Grupo 265355" transform="translate(-359 -956.811)">
    <g id="Elipse_4708" data-name="Elipse 4708" transform="translate(359 956.811)" fill="#3b5620" stroke="#707070" stroke-width="1">
      <circle cx="45.5" cy="45.5" r="45.5" stroke="none"/>
      <circle cx="45.5" cy="45.5" r="45" fill="none"/>
    </g>
    <g id="Grupo_265351" data-name="Grupo 265351" transform="translate(-3.377 -95.606)">
      <path id="Trazado_281616" data-name="Trazado 281616" d="M132.512,149.654c0,2.155,0,4.206,0,6.257,0,.9-.2,1.107-1.114,1.107q-13.439,0-26.878,0c-.958,0-1.128-.177-1.128-1.145,0-1.991-.036-3.984.009-5.974a5.77,5.77,0,0,1,3.566-5.429c1.672-.779,3.385-1.471,5.091-2.177a.633.633,0,0,0,.485-.705c-.035-.75.018-1.5-.026-2.254a.952.952,0,0,0-.352-.662,10.536,10.536,0,0,1-5.124-9.145.941.941,0,0,0-.528-.95c-2.17-1.258-2.039-4.44-.1-5.319.148-.066.255-.375.263-.576.057-1.419,0-2.849.136-4.258a10.8,10.8,0,0,1,16.966-7.382c.079.055.164.1.341.211,0-1.008,0-1.931,0-2.854,0-.792-.011-1.585,0-2.377a3.161,3.161,0,0,1,3.183-3.171c1.723-.017,3.448,0,5.273,0,0-.41,0-.786,0-1.162.008-.885.193-1.075,1.079-1.076q5.364-.005,10.727,0,5.3,0,10.6,0c.96,0,1.141.184,1.146,1.135,0,.343,0,.685,0,1.1,1.3,0,2.553-.014,3.805.008a4.564,4.564,0,0,1,1.258.169,3.13,3.13,0,0,1,2.169,2.875c.008.2,0,.406,0,.61v39.5c0,2.4-1.244,3.649-3.632,3.649H132.512Zm.071-45.344c-1.743,0-3.4,0-5.066,0a1.738,1.738,0,0,0-1.932,1.916c-.007,1.99-.012,3.981.01,5.972a1.327,1.327,0,0,0,.273.755,10.2,10.2,0,0,1,2.3,5.033,27.482,27.482,0,0,1,.187,3.642,1.854,1.854,0,0,0,.914,1.944c1.735,1.063,1.41,3.9-.477,5.01a.873.873,0,0,0-.529.883,10.437,10.437,0,0,1-2.414,6.861,1.233,1.233,0,0,0-.254.7c-.021,1.848,0,3.7-.02,5.545a.565.565,0,0,0,.408.631c.941.375,1.866.792,2.8,1.187a5.806,5.806,0,0,1,3.229,3.226.791.791,0,0,0,.885.58q13.406-.022,26.812-.011c1.609,0,2.2-.594,2.2-2.2V106.5c0-.2.008-.408-.011-.609a1.6,1.6,0,0,0-1.406-1.535c-1.433-.07-2.871-.02-4.356-.02,0,.246,0,.446,0,.646-.006,1.125-.15,1.272-1.255,1.272h-11.4q-4.967,0-9.933,0c-.719,0-.95-.229-.972-.938-.01-.3,0-.606,0-1.006m-27.718,51.212h26.157c.01-.23.025-.428.025-.626,0-1.645.034-3.29-.006-4.934a4.421,4.421,0,0,0-2.8-4.2q-2.611-1.16-5.261-2.233a1.585,1.585,0,0,0-1.02-.048,12.034,12.034,0,0,1-8.115-.035,1.128,1.128,0,0,0-.74,0c-1.91.792-3.826,1.573-5.7,2.437a4.093,4.093,0,0,0-2.51,3.561c-.126,2-.03,4.013-.03,6.078m5.51-34.528c-.037.275-.073.451-.084.628-.067,1.014-.12,2.027-.2,3.039a.93.93,0,0,1-1.415.846c-.4-.185-.8-.391-1.189-.613-.537-.31-.859-.187-1.038.422a1.662,1.662,0,0,0,.953,2.071c1.028.274,1.176.9,1.09,1.768a4.217,4.217,0,0,0,0,.669,8.8,8.8,0,0,0,5.3,7.984,8.7,8.7,0,0,0,9.651-1.209,8.963,8.963,0,0,0,3.361-7.855,1.046,1.046,0,0,1,.851-1.249,1.721,1.721,0,0,0,1.219-2.045.977.977,0,0,0-1.094-.892,20.931,20.931,0,0,1-5.585.106,16.853,16.853,0,0,1-8.907-3.425.91.91,0,0,0-.47-.235c-.808-.024-1.617-.011-2.447-.011m-1.843,2.843.155-.065.2-3.262c.043-.7.288-.923.989-.944,1.237-.037,2.48-.029,3.711-.145,3.611-.34,7.106-1.072,10.128-3.257.049-.035.11-.1.155-.091.311.061.694.046.909.228a.6.6,0,0,1-.068.916,3.741,3.741,0,0,1-.529.408,19.417,19.417,0,0,1-7.622,2.9c-.423.079-.845.153-1.434.259a18.654,18.654,0,0,0,11.706,2.437c0-1.51.12-2.959-.023-4.382a9.346,9.346,0,0,0-18.327-1.382c-.531,1.959-.267,3.959-.306,5.943,0,.144.235.293.36.439m25.542-19.084h20.56v-2.635h-20.56ZM114,139.744c0,.545-.023,1.2.015,1.843a.642.642,0,0,0,.334.463,10.184,10.184,0,0,0,7.208,0,.59.59,0,0,0,.341-.4c.035-.746.016-1.495.016-2.145a28.639,28.639,0,0,1-3.9.628,30.353,30.353,0,0,1-4.013-.385m10.077,2.575V138.1a.914.914,0,0,0-.711,1.06,20.347,20.347,0,0,1,0,2.366c-.034.563.225.754.711.794" transform="translate(274 968.811)" fill="#fff"/>
      <path id="Trazado_281617" data-name="Trazado 281617" d="M126.144,146.491c-.535-.044-.819-.254-.782-.873a22.379,22.379,0,0,0,0-2.6,1,1,0,0,1,.782-1.166Z" transform="translate(271.977 964.758)" fill="#fff"/>
      <path id="Trazado_281618" data-name="Trazado 281618" d="M140.662,111.512a8.851,8.851,0,1,1-8.843,8.879,8.858,8.858,0,0,1,8.843-8.879m-7.233,8.869a7.24,7.24,0,1,0,7.3-7.259,7.241,7.241,0,0,0-7.3,7.259" transform="translate(270.465 967.423)" fill="#fff"/>
      <path id="Trazado_281619" data-name="Trazado 281619" d="M151.832,135.749q2.61,0,5.221,0c.523,0,.887.233.9.769s-.348.784-.857.833c-.022,0-.044,0-.067,0q-5.187,0-10.375,0c-.534,0-.938-.231-.931-.82s.4-.787.95-.785c1.718.005,3.436,0,5.154,0" transform="translate(269.271 965.531)" fill="#fff"/>
      <path id="Trazado_281620" data-name="Trazado 281620" d="M139.289,145.39c-1.361,0-2.721.005-4.082,0-.7,0-1.114-.321-1.067-.824.059-.618.489-.785,1.044-.784,2.744,0,5.487,0,8.231,0,.727,0,1.069.287,1.056.823s-.359.778-1.1.781c-1.361.006-2.721,0-4.082,0" transform="translate(270.682 964.781)" fill="#fff"/>
      <path id="Trazado_281621" data-name="Trazado 281621" d="M158.988,127.042c.915,0,1.831-.007,2.747,0,.665.007,1.037.3,1,.807-.041.581-.425.8-.963.8-1.854,0-3.709.005-5.563,0-.535,0-.934-.223-.925-.82s.414-.786.953-.785c.916,0,1.832,0,2.748,0" transform="translate(267.995 966.343)" fill="#fff"/>
      <path id="Trazado_281622" data-name="Trazado 281622" d="M159.12,113.484c.871,0,1.743-.008,2.614,0,.665.008,1.038.3,1.005.8-.038.584-.425.8-.96.8-1.81,0-3.62.006-5.429,0-.532,0-.936-.218-.929-.818s.415-.786.951-.785h2.748" transform="translate(267.995 967.609)" fill="#fff"/>
      <path id="Trazado_281623" data-name="Trazado 281623" d="M155.174,120.19c.848,0,1.7.009,2.544,0,.559-.008.985.159,1.043.778.045.484-.363.825-1,.829q-2.645.018-5.29,0c-.646,0-1.047-.332-1.007-.821.051-.62.47-.794,1.033-.786.892.012,1.785,0,2.678,0" transform="translate(269.081 966.983)" fill="#fff"/>
      <path id="Trazado_281624" data-name="Trazado 281624" d="M159.614,145.389c-.715,0-1.429,0-2.144,0-.549,0-.933-.261-.916-.833.015-.534.4-.768.912-.768q2.178,0,4.355,0c.549,0,.927.248.911.83-.015.545-.393.768-.907.772-.737.005-1.474,0-2.211,0" transform="translate(267.995 964.781)" fill="#fff"/>
      <path id="Trazado_281625" data-name="Trazado 281625" d="M137.214,135.749h2.141c.543,0,.928.209.927.805,0,.559-.382.788-.883.793q-2.174.024-4.348,0c-.539-.005-.928-.278-.9-.851.025-.532.4-.755.923-.751.714.007,1.427,0,2.141,0" transform="translate(270.914 965.531)" fill="#fff"/>
      <path id="Trazado_281626" data-name="Trazado 281626" d="M149.416,145.388c-.692,0-1.385.008-2.077,0-.511-.009-.88-.237-.886-.789s.353-.8.868-.8q2.109-.017,4.219,0c.524,0,.864.27.85.818s-.386.772-.9.777c-.693.008-1.385,0-2.077,0" transform="translate(269.694 964.781)" fill="#fff"/>
      <path id="Trazado_281627" data-name="Trazado 281627" d="M160.933,135.753c.335,0,.67-.007,1.005,0a.734.734,0,0,1,.795.735.712.712,0,0,1-.693.828,16.929,16.929,0,0,1-2.207-.008.7.7,0,0,1-.658-.85.718.718,0,0,1,.753-.7c.334-.018.67,0,1.005,0Z" transform="translate(267.995 965.531)" fill="#fff"/>
      <path id="Trazado_281628" data-name="Trazado 281628" d="M151.608,128.634a8.249,8.249,0,0,1-1.067-.01.749.749,0,0,1-.71-.823.737.737,0,0,1,.782-.749c.667-.014,1.335-.015,2,0a.735.735,0,0,1,.775.754.749.749,0,0,1-.716.818,8.076,8.076,0,0,1-1.067.009" transform="translate(269.533 966.343)" fill="#fff"/>
      <path id="Trazado_281629" data-name="Trazado 281629" d="M143.295,135.548c.439.247.878.358,1.053.636.131.207-.019.88-.149.912a4.19,4.19,0,0,1-1.65.07c-.155-.027-.4-.692-.291-.866.2-.314.633-.479,1.037-.752" transform="translate(270.345 965.546)" fill="#fff"/>
      <path id="Trazado_281630" data-name="Trazado 281630" d="M154.173,145.39c-.7,0-1.09-.28-1.1-.8s.379-.808,1.081-.81,1.1.286,1.1.8-.4.81-1.087.812" transform="translate(269.324 964.781)" fill="#fff"/>
      <path id="Trazado_281631" data-name="Trazado 281631" d="M161.7,120.19c.671,0,1.03.27,1.042.775.013.523-.391.837-1.069.833s-1.018-.277-1.031-.792c-.014-.541.346-.818,1.058-.816" transform="translate(267.995 966.983)" fill="#fff"/>
      <path id="Trazado_281632" data-name="Trazado 281632" d="M152.542,113.484c.63.011,1.015.331.994.825s-.424.787-1.053.783-1.022-.316-1.026-.809c0-.518.4-.811,1.085-.8" transform="translate(269.484 967.609)" fill="#fff"/>
      <path id="Trazado_281633" data-name="Trazado 281633" d="M138.838,122.2l4.9-4.912a5.71,5.71,0,0,1,.484-.463.736.736,0,0,1,1.082.054.764.764,0,0,1,.015,1.09,3.313,3.313,0,0,1-.277.292q-2.678,2.679-5.358,5.356c-.661.659-.969.659-1.621.012s-1.294-1.3-1.946-1.942c-.387-.383-.523-.819-.117-1.233a.788.788,0,0,1,1.236.081c.529.539,1.046,1.089,1.6,1.665" transform="translate(270.542 967.156)" fill="#fff"/>
    </g>
  </g>
</svg>
