<svg xmlns="http://www.w3.org/2000/svg" width="91" height="91" viewBox="0 0 91 91">
  <g id="Grupo_265354" data-name="Grupo 265354" transform="translate(-624 -955.811)">
    <g id="Elipse_4709" data-name="Elipse 4709" transform="translate(624 955.811)" fill="#3b5620" stroke="#707070" stroke-width="1">
      <circle cx="45.5" cy="45.5" r="45.5" stroke="none"/>
      <circle cx="45.5" cy="45.5" r="45" fill="none"/>
    </g>
    <g id="Grupo_262782" data-name="Grupo 262782" transform="translate(9.715 -85.613)">
      <path id="Trazado_281636" data-name="Trazado 281636" d="M400.883,88.613l.758,1.328h9.829c.176,0,.352-.006.527.006a1.248,1.248,0,0,1,1.2.864,1.2,1.2,0,0,1-.383,1.375c-.709.643-1.432,1.27-2.148,1.9-.114.1-.222.209-.364.343l2.3,2.03c.639.565.816,1.049.573,1.631a1.393,1.393,0,0,1-1.479.815c-3.184-.008-6.367,0-9.551,0h-.754c0,.469-.023.877.013,1.279.012.128.178.245.277.365.21.256.536.48.614.77a5.294,5.294,0,0,1-.649,4.161,1.59,1.59,0,0,0-.245.753q-.022,7.266-.01,14.531c0,.115.016.229.029.389.206.013.393.033.58.033,1.484,0,2.969,0,4.453,0a2.992,2.992,0,0,1,3.256,3.238q.012,8.115,0,16.231v6.2c.7,0,1.341,0,1.979,0,.784,0,1.187.311,1.176.9-.011.564-.4.861-1.153.861q-4.6,0-9.2,0H360.626c-.906,0-1.324-.267-1.34-.858-.017-.61.419-.9,1.354-.9h1.634c0-.908.048-1.766-.009-2.618a3.155,3.155,0,0,1,3.509-3.545c1.675.089,3.358.008,5.038.022.947.008,1.894.056,2.883.086,0-.7,0-1.476,0-2.255a2.982,2.982,0,0,1,3.038-3.1c.761-.022,1.524-.021,2.285,0a.656.656,0,0,0,.715-.438c1.173-2.508,2.374-5,3.554-7.508a2.177,2.177,0,0,0,.192-.786c.1-1.7.26-3.393.248-5.089-.015-2.084.785-3.965,1.262-5.927a7.349,7.349,0,0,1,.21-.731.877.877,0,1,1,1.681.5c-.25.939-.523,1.872-.825,2.947.668-.273,1.229-.5,1.787-.731A6.33,6.33,0,0,0,390,116.7a5.9,5.9,0,0,0,.811-2.161c.236-.7.463-1.4.7-2.118a1.063,1.063,0,0,0-.2-.035.852.852,0,0,1-.976-.653.9.9,0,0,1,.52-1.064q3.231-1.953,6.455-3.919c.6-.365,1.211-.714,1.789-1.113a3.541,3.541,0,0,0,1.585-2.819c-.242.119-.412.195-.574.283-3.463,1.88-6.918,3.774-10.392,5.634a2.644,2.644,0,0,0-1.355,1.6c-.17.539-.32,1.085-.489,1.624-.183.585-.586.845-1.086.714a.86.86,0,0,1-.592-1.194c.323-1.037.682-2.063,1.053-3.174-.964-.756-1.336-2.044-1.935-3.187a2.693,2.693,0,0,1-.07-2.051c.359-1.278,2.818-2.588,4.164-2.114a2.794,2.794,0,0,1,1.648,1.32c.5.947.965,1.908,1.47,2.914.089-.041.241-.1.384-.181,2.092-1.133,4.18-2.277,6.279-3.4a.753.753,0,0,0,.453-.776c-.015-3.633,0-7.265-.015-10.9a1.427,1.427,0,0,1,.553-1.324Zm7.042,58.224c.013-.186.031-.32.031-.453q0-10.983,0-21.965c0-1.043-.454-1.471-1.521-1.473q-3.221,0-6.443,0c-1.3,0-1.687.384-1.688,1.663q0,6.179,0,12.359c0,.681-.336,1.087-.874,1.093s-.879-.4-.881-1.08c0-1.288,0-2.577,0-3.865,0-1.143-.448-1.588-1.6-1.589q-3.192,0-6.384,0c-1.278,0-1.686.4-1.687,1.676q0,6.5,0,13v.621h9.67v-.6c0-1.464,0-2.928,0-4.393,0-.732.325-1.127.9-1.114.546.013.858.4.86,1.1,0,1.484,0,2.968,0,4.452,0,.187.017.374.027.569Zm-22.87-.011a.726.726,0,0,0,.047-.153c0-2.731.019-5.461,0-8.191-.006-.853-.494-1.278-1.407-1.282q-3.393-.018-6.787,0c-1.014,0-1.451.462-1.454,1.481,0,2.028,0,4.057,0,6.085v2.06Zm14.534-25.677V107.51c-.082.01-.125,0-.153.022-1.786,1.078-3.574,2.153-5.349,3.248a.986.986,0,0,0-.342.507c-.617,1.827-1.209,3.663-1.831,5.488a.747.747,0,0,0,.158.837c1.033,1.2,2.018,2.434,3.063,3.619a4.042,4.042,0,0,1,1.015,3.615c-.286,1.606-.417,3.24-.619,4.9l1.014.239v-5.378c0-2.089.942-3.171,3.045-3.461m1.806-24.035h9.267l-1.688-1.5c-.948-.843-.948-1.526,0-2.377.527-.472,1.055-.941,1.718-1.532h-2.1q-3.335,0-6.669,0c-.238,0-.535-.082-.535.334,0,1.673,0,3.347,0,5.077m-27.7,49.715c0-1.062.012-2.056,0-3.05a1.223,1.223,0,0,0-1.271-1.306c-.078,0-.156,0-.233,0-2.243,0-4.486,0-6.727,0-.762,0-1.323.329-1.358.927-.066,1.136-.019,2.277-.019,3.43Zm7.831-11.5.158.17a2.89,2.89,0,0,0,.558-.448c1.805-2.378,3.609-4.756,5.382-7.158a3.462,3.462,0,0,0,.585-1.31c.319-1.526.571-3.067.849-4.6.183-1.007.364-2.015.565-3.119-1.343.551-2.589,1.047-3.818,1.587-.144.063-.25.359-.262.555-.118,1.889-.181,3.782-.329,5.669a5.975,5.975,0,0,1-.476,1.846c-.536,1.253-1.157,2.47-1.742,3.7q-.737,1.552-1.47,3.106m9.8-15.935c-.164.913-.246,1.685-.451,2.422-.18.648-.071,1.057.567,1.341a2.174,2.174,0,0,1,1.262,2.064c.1,1.456.284,2.907.436,4.359a.732.732,0,0,0,.078.178l.549-.024c.244-2.035.492-4.042.715-6.051a.908.908,0,0,0-.186-.6c-.947-1.2-1.916-2.389-2.969-3.692m-2.511-12.244c.5-.238.911-.405,1.295-.622a.981.981,0,0,0,.447-1.391q-.462-.975-.984-1.921a1,1,0,0,0-1.433-.461,6.684,6.684,0,0,0-.726.372.983.983,0,0,0-.446,1.391,19.249,19.249,0,0,0,1.026,1.962,3.384,3.384,0,0,0,.821.67m1.736,17.426-.184.078c-.346,1.778-.372,3.67-1.975,5.064h2.976c-.15-1.54-.283-3.034-.456-4.523-.025-.217-.235-.414-.36-.619m-5.47,9.825-.116-.03-.772,1.059.888.205Z" transform="translate(274.001 968.811)" fill="#fff"/>
    </g>
  </g>
</svg>
