<svg xmlns="http://www.w3.org/2000/svg" width="91" height="91" viewBox="0 0 91 91">
  <g id="Grupo_265352" data-name="Grupo 265352" transform="translate(-1148 -955.811)">
    <g id="Elipse_4711" data-name="Elipse 4711" transform="translate(1148 955.811)" fill="#3b5620" stroke="#707070" stroke-width="1">
      <circle cx="45.5" cy="45.5" r="45.5" stroke="none"/>
      <circle cx="45.5" cy="45.5" r="45" fill="none"/>
    </g>
    <g id="Grupo_262784" data-name="Grupo 262784" transform="translate(7.01 -89.533)">
      <path id="Trazado_281648" data-name="Trazado 281648" d="M950.586,154.7a3.3,3.3,0,0,0-.125.371,5.248,5.248,0,0,1-5.086,4.206c-4.155.063-8.312.04-12.469,0a6.129,6.129,0,0,1-4.367-1.891q-4.443-4.422-8.863-8.866a6.13,6.13,0,0,1-1.855-4.445c-.008-3.805-.024-7.61,0-11.414a5.284,5.284,0,0,1,5.39-5.4q10.983-.037,21.969,0a5.31,5.31,0,0,1,5.278,4.225c.03.126.082.247.125.371Zm-16.4-25.463q-5.379,0-10.756,0a3.363,3.363,0,0,0-3.632,3.615q-.012,4.949,0,9.9a2.216,2.216,0,0,0,2.52,2.5c1.539.011,3.081-.037,4.615.055a5.045,5.045,0,0,1,4.77,4.35,43.191,43.191,0,0,1,.131,5.068c.018,1.75.84,2.6,2.585,2.6q5.212.006,10.425,0a3.423,3.423,0,0,0,3.76-3.768q0-10.26,0-20.521a3.428,3.428,0,0,0-3.794-3.8q-5.312,0-10.622,0m-12.774,18.011,8.443,8.41c0-1.588.01-3.271,0-4.953a3.287,3.287,0,0,0-3.248-3.442c-1.767-.072-3.538-.015-5.193-.015" transform="translate(266.405 961.306)" fill="#fff"/>
      <path id="Trazado_281649" data-name="Trazado 281649" d="M950.585,119.983c-.046.145-.1.288-.136.436a5.268,5.268,0,0,1-5.074,4.146c-4.158.054-8.317.038-12.475,0a6.066,6.066,0,0,1-4.319-1.854q-4.472-4.444-8.913-8.917a6.371,6.371,0,0,1-1.858-4.715c.02-3.652,0-7.305.009-10.957a5.329,5.329,0,0,1,5.618-5.581c4.752-.013,9.5,0,14.257,0,.22,0,.44-.005.66,0,.762.023,1.2.407,1.176,1.035-.02.611-.42.941-1.18.942q-7.459,0-14.918,0a3.377,3.377,0,0,0-3.518,2.508,4.146,4.146,0,0,0-.112,1.044q-.012,5.016,0,10.033a2.19,2.19,0,0,0,2.391,2.439c1.364.021,2.729,0,4.093.008a5.329,5.329,0,0,1,5.555,5.575c.005,1.386-.006,2.772,0,4.158A2.185,2.185,0,0,0,934.1,122.6c3.7.019,7.392.025,11.089,0a3.338,3.338,0,0,0,3.408-3.448q.015-10.593,0-21.188a3.351,3.351,0,0,0-3.358-3.434c-.857-.029-1.716,0-2.574-.011-.716-.007-1.164-.39-1.163-.975a1.012,1.012,0,0,1,1.1-.993,26.006,26.006,0,0,1,3.294.073,5.214,5.214,0,0,1,4.565,4.15c.03.127.083.248.125.371Zm-20.759.993c0-1.808.1-3.691-.03-5.559a3.173,3.173,0,0,0-3.111-2.866c-.832-.045-1.669-.017-2.5-.019-.967,0-1.934,0-2.8,0l8.446,8.444" transform="translate(266.405 968.811)" fill="#fff"/>
      <path id="Trazado_281650" data-name="Trazado 281650" d="M899.384,92.539c3.608,0,7.216-.012,10.824,0a5.342,5.342,0,0,1,5.454,4.337,7.043,7.043,0,0,1,.094,1.379q.009,10.3,0,20.593a5.361,5.361,0,0,1-5.733,5.734q-2.8,0-5.61,0a4.645,4.645,0,0,1-.528-.009,1,1,0,0,1-.958-1.053.964.964,0,0,1,1.018-.911c2.046-.013,4.092.006,6.138-.016a4.914,4.914,0,0,0,1.425-.2,3.286,3.286,0,0,0,2.266-3.35q.011-6.964,0-13.928c0-2.332.006-4.664,0-7a3.358,3.358,0,0,0-3.586-3.6q-10.793-.014-21.584,0a3.387,3.387,0,0,0-3.634,3.628q-.006,4.951,0,9.9a2.23,2.23,0,0,0,2.478,2.5c1.342.014,2.684,0,4.026.005a5.3,5.3,0,0,1,5.533,5.52c.011,1.342,0,2.684,0,4.026a2.263,2.263,0,0,0,2.483,2.507c.154,0,.309-.006.462,0a.969.969,0,0,1,.975.956.919.919,0,0,1-.872.991c-2.426.19-4.675-.159-6.5-2.021-2.816-2.877-5.685-5.7-8.534-8.548a6.518,6.518,0,0,1-1.977-3.857,9.086,9.086,0,0,1-.061-1.119q-.006-5.412,0-10.824a5.362,5.362,0,0,1,5.632-5.647c3.586-.013,7.172,0,10.759,0m-12.74,19.995,8.387,8.385c0-.679,0-1.534,0-2.389s.011-1.715,0-2.573a3.3,3.3,0,0,0-3.345-3.416c-1.73-.034-3.461-.007-5.039-.007" transform="translate(274 968.811)" fill="#fff"/>
      <path id="Trazado_281651" data-name="Trazado 281651" d="M939.373,101.209c.45-.476.826-.9,1.234-1.3a3.33,3.33,0,1,1,4.709,4.709c-.394.409-.822.784-1.3,1.232.478.466.894.851,1.288,1.258a3.33,3.33,0,1,1-4.689,4.73c-.41-.393-.769-.84-1.235-1.356-.481.509-.854.936-1.259,1.328a3.331,3.331,0,1,1-4.705-4.713c.382-.394.8-.756,1.372-1.3-.5-.417-.964-.749-1.359-1.151a3.331,3.331,0,1,1,4.73-4.688c.39.381.76.781,1.21,1.246m5.144.972a5.481,5.481,0,0,0-.933-1.124,1.163,1.163,0,0,0-1.514.2c-.625.586-1.217,1.208-1.829,1.809a1.06,1.06,0,0,1-1.754.014c-.549-.539-1.086-1.091-1.635-1.63a1.378,1.378,0,0,0-2.093-.153c-.587.6-.519,1.365.2,2.089.556.564,1.128,1.111,1.676,1.682a1.013,1.013,0,0,1-.008,1.614c-.58.6-1.187,1.177-1.767,1.778a1.356,1.356,0,1,0,1.905,1.919c.556-.532,1.091-1.086,1.637-1.629.738-.732,1.172-.738,1.9-.022.547.542,1.082,1.1,1.636,1.63a1.36,1.36,0,1,0,1.9-1.927c-.566-.585-1.153-1.149-1.721-1.732a1.029,1.029,0,0,1,0-1.658c.567-.584,1.169-1.134,1.714-1.737a7.82,7.82,0,0,0,.693-1.12" transform="translate(266.405 968.811)" fill="#fff"/>
      <path id="Trazado_281652" data-name="Trazado 281652" d="M901.993,103.751c.9-1.582,1.715-3.083,2.587-4.553a3.216,3.216,0,0,1,4.788-.95,3.183,3.183,0,0,1,.9,4.029c-1.661,3.021-3.343,6.03-5.09,9a3.168,3.168,0,0,1-5.254.377c-1.339-1.63-2.621-3.307-3.882-5a3.233,3.233,0,0,1,5.071-4.007c.289.329.55.682.884,1.1m6.717-3.009a3.738,3.738,0,0,0-.472-.833,1.238,1.238,0,0,0-2.026.421c-1.028,1.791-2.031,3.6-3.051,5.39-.6,1.051-1.3,1.106-2.035.166-.446-.572-.886-1.149-1.335-1.718a1.294,1.294,0,0,0-1.934-.4,1.278,1.278,0,0,0-.071,1.927q1.725,2.249,3.472,4.482a1.29,1.29,0,0,0,2.369-.155q2.377-4.181,4.729-8.376a7.263,7.263,0,0,0,.354-.905" transform="translate(272.201 968.811)" fill="#fff"/>
      <path id="Trazado_281653" data-name="Trazado 281653" d="M937.057,133.415q3.527,0,7.054,0c.219,0,.5-.069.646.037a2.057,2.057,0,0,1,.783.834.8.8,0,0,1-.609,1.017,2.267,2.267,0,0,1-.713.088q-7.251,0-14.5,0a2.825,2.825,0,0,1-.46-.02.951.951,0,0,1-.864-1.055.907.907,0,0,1,.953-.894c.439-.02.879-.011,1.319-.011h6.394" transform="translate(266.405 964.077)" fill="#fff"/>
      <path id="Trazado_281654" data-name="Trazado 281654" d="M934.432,140.337c-1.6,0-3.21,0-4.815,0-.811,0-1.22-.332-1.231-.962-.011-.65.427-1.02,1.254-1.021q4.815-.008,9.631,0c.766,0,1.234.384,1.249.979.016.624-.452,1-1.273,1-1.6.006-3.21,0-4.815,0" transform="translate(266.405 963.504)" fill="#fff"/>
    </g>
  </g>
</svg>
