<svg xmlns="http://www.w3.org/2000/svg" xmlns:xlink="http://www.w3.org/1999/xlink" width="460" height="317" viewBox="0 0 460 317">
  <defs>
    <linearGradient id="linear-gradient" x1="0.5" x2="0.5" y2="1" gradientUnits="objectBoundingBox">
      <stop offset="0" stop-color="#f9fef5"/>
      <stop offset="1" stop-color="#e7f7f8"/>
    </linearGradient>
    <clipPath id="clip-path">
      <path id="Trazado_605804" data-name="Trazado 605804" d="M695.514,295.357c54.319,162.293,245.751,73.32,302.888,18.8-53.56-42.295-117.373-57.311-173.026-57.314-61.563,0-113.143,18.37-129.862,38.518" transform="translate(-695.514 -256.839)" fill="#699f32"/>
    </clipPath>
    <clipPath id="clip-path-2">
      <path id="Trazado_605805" data-name="Trazado 605805" d="M698.385,309.749C768.2,469.255,957.314,424.078,998.9,319.983c-70.374,18.32-107.754,1.4-140.827-15.519-22.916-11.724-43.765-23.448-72.087-23.448-22.737,0-50.292,7.555-87.6,28.734" transform="translate(-698.385 -281.015)" fill="#3b5620"/>
    </clipPath>
    <clipPath id="clip-path-3">
      <path id="Trazado_605806" data-name="Trazado 605806" d="M804.422,318.149a.516.516,0,0,0-.514.517l.042,18.311a.516.516,0,1,0,1.031,0l-.042-18.311a.515.515,0,0,0-.516-.514h0" transform="translate(-803.908 -318.149)" fill="none"/>
    </clipPath>
    <linearGradient id="linear-gradient-2" x1="-522.274" y1="10.334" x2="-521.624" y2="10.334" gradientUnits="objectBoundingBox">
      <stop offset="0" stop-color="#311944"/>
      <stop offset="1" stop-color="#6b3976"/>
    </linearGradient>
    <clipPath id="clip-path-4">
      <path id="Trazado_605807" data-name="Trazado 605807" d="M780.278,294.218c-1.744.785-3.476,2.618-3.171,3.983.463,2.072,5.273,1.51,6.618,4.564.738,1.673-.514,2.28.217,4.138,1.012,2.573,3.7,2.157,5.968,5.367.969,1.373.463,1.55,1.663,3.5,1.845,3,4.545,5.773,5.351,5.327.719-.4-.65-3.031-1.267-7.721-.829-6.3.883-7.3-.137-10.564-1.575-5.042-7.677-9.145-12.491-9.144a6.672,6.672,0,0,0-2.75.546" transform="translate(-777.072 -293.672)" fill="none"/>
    </clipPath>
    <linearGradient id="linear-gradient-3" x1="-16.636" y1="7.382" x2="-16.614" y2="7.382" gradientUnits="objectBoundingBox">
      <stop offset="0" stop-color="#41a362"/>
      <stop offset="1" stop-color="#204f2e"/>
    </linearGradient>
    <clipPath id="clip-path-5">
      <path id="Trazado_605808" data-name="Trazado 605808" d="M803.812,314.571c-1.249,4.077,1.679,1.361,3.527-.263s.483-1.8,4.561-1.934,10.645-4.789,2.687-8.275a6.117,6.117,0,0,0-2.463-.559c-6.085,0-8.313,11.032-8.313,11.032" transform="translate(-803.512 -303.539)" fill="none"/>
    </clipPath>
    <linearGradient id="linear-gradient-4" x1="-30.556" y1="9.404" x2="-30.518" y2="9.404" xlink:href="#linear-gradient-3"/>
    <clipPath id="clip-path-6">
      <path id="Trazado_605811" data-name="Trazado 605811" d="M768.412,370.561a.623.623,0,0,0-.623.626l.05,22.15a.624.624,0,0,0,1.248,0l-.05-22.152a.624.624,0,0,0-.624-.622h0" transform="translate(-767.789 -370.561)" fill="none"/>
    </clipPath>
    <linearGradient id="linear-gradient-5" x1="-412.339" y1="6.913" x2="-411.802" y2="6.913" xlink:href="#linear-gradient-2"/>
    <clipPath id="clip-path-7">
      <path id="Trazado_605812" data-name="Trazado 605812" d="M739.2,341.61c-2.11.95-4.206,3.167-3.837,4.818.559,2.507,6.379,1.827,8.007,5.521.892,2.024-.623,2.758.262,5.007,1.224,3.112,4.481,2.61,7.22,6.492,1.172,1.661.559,1.875,2.011,4.24,2.232,3.634,5.5,6.984,6.473,6.444.869-.482-.786-3.667-1.533-9.341-1-7.621,1.067-8.828-.167-12.779-1.9-6.1-9.287-11.063-15.109-11.063a8.08,8.08,0,0,0-3.327.661" transform="translate(-735.325 -340.949)" fill="none"/>
    </clipPath>
    <linearGradient id="linear-gradient-6" x1="-12.97" y1="5.147" x2="-12.952" y2="5.147" xlink:href="#linear-gradient-3"/>
    <clipPath id="clip-path-8">
      <path id="Trazado_605813" data-name="Trazado 605813" d="M767.674,366.232c-1.511,4.931,2.031,1.646,4.267-.319s.584-2.173,5.518-2.339,12.877-5.794,3.251-10.011a7.4,7.4,0,0,0-2.98-.676c-7.362,0-10.055,13.346-10.055,13.346" transform="translate(-767.31 -352.886)" fill="none"/>
    </clipPath>
    <linearGradient id="linear-gradient-7" x1="-24.115" y1="6.502" x2="-24.083" y2="6.502" xlink:href="#linear-gradient-3"/>
    <clipPath id="clip-path-9">
      <path id="Trazado_605816" data-name="Trazado 605816" d="M858.186,374.511c-12.438,1.008-72.626,9.737-67.256,31.073,2.2,8.742,12.208,8.529,21.9,8.314,6.315-.14,12.5-.279,16.31,2.057,3.092,1.9,5.8,4.36,8.88,6.279,19.786,12.343,50.7-1.912,71.357-5.858,11.77-2.249,25.746-6.357,34.317-15.247,4.124-4.277,4.423-8.812-3.979-12.573A167.886,167.886,0,0,0,871.4,373.978q-6.617,0-13.217.533" transform="translate(-790.592 -373.978)" fill="#699f32"/>
    </clipPath>
    <clipPath id="clip-path-10">
      <path id="Trazado_605817" data-name="Trazado 605817" d="M749.536,98.818A24.31,24.31,0,1,0,769.31,88.679a24.316,24.316,0,0,0-19.774,10.139" transform="translate(-744.972 -88.679)" fill="#fffad0"/>
    </clipPath>
    <clipPath id="clip-path-11">
      <path id="Trazado_605883" data-name="Trazado 605883" d="M807.886,167.4c2.579,3.1,5.141,6.209,7.815,9.236a113.96,113.96,0,0,0,8.435,8.732c1.5,1.371,3.054,2.683,4.681,3.913l4.846,3.621c3.215,2.417,6.387,4.883,9.46,7.454s6.057,5.235,8.868,8.063q2.108,2.121,4.08,4.357c1.3,1.506,2.571,3.03,3.75,4.624s2.338,3.2,3.382,4.881c.542.828,1.026,1.689,1.53,2.539l.71,1.3.353.65.33.663a54.054,54.054,0,0,1,4.142,11.02l2.49-.614a52.3,52.3,0,0,0-4.376-11.554l-.35-.688-.372-.675c-.25-.45-.493-.9-.749-1.348-.53-.879-1.042-1.772-1.61-2.627-1.1-1.733-2.3-3.4-3.54-5.026s-2.584-3.174-3.942-4.7q-2.062-2.266-4.255-4.4c-2.941-2.82-6.032-5.466-9.21-7.982s-6.456-4.891-9.756-7.219l-4.948-3.468c-1.623-1.153-3.19-2.393-4.705-3.7-6.111-5.183-11.428-11.278-16.874-17.214Z" transform="translate(-807.886 -167.242)" fill="none"/>
    </clipPath>
    <linearGradient id="linear-gradient-8" x1="-6.698" y1="3.852" x2="-6.69" y2="3.852" xlink:href="#linear-gradient-3"/>
    <clipPath id="clip-path-12">
      <path id="Trazado_605885" data-name="Trazado 605885" d="M820.077,207.872c-.6.825,2.033,4.4.264,4.773-5.748-.647-13.853,5.3-22.315,12.235a1.1,1.1,0,0,0,.644,2.012c6.486-.406,11.563.521,14.057,3.892a1.178,1.178,0,0,1-.062,1.429l-.027.033a1.077,1.077,0,0,0,1.135,1.76c12.9-4.3,16.161-9.946,25.573-15.492,2.252-2.181-13.743-10.989-18.238-10.991a1.226,1.226,0,0,0-1.032.349" transform="translate(-797.559 -207.523)" fill="none"/>
    </clipPath>
    <linearGradient id="linear-gradient-9" x1="-9.807" y1="6.615" x2="-9.795" y2="6.615" xlink:href="#linear-gradient-3"/>
    <clipPath id="clip-path-13">
      <path id="Trazado_605886" data-name="Trazado 605886" d="M829.505,220.405a45.189,45.189,0,0,0-12.546,4.431.185.185,0,0,0,.169.329,44.686,44.686,0,0,1,12.487-4.126,36.347,36.347,0,0,1,13.063.228,39.37,39.37,0,0,1,12.15,4.741,50.437,50.437,0,0,1,10.26,8.092l.012.012a.732.732,0,1,0,1.022-1.05,51.766,51.766,0,0,0-10.7-8.087,40.448,40.448,0,0,0-12.571-4.61,36.571,36.571,0,0,0-6.536-.585,37.54,37.54,0,0,0-6.81.624" transform="translate(-816.86 -219.781)" fill="none"/>
    </clipPath>
    <linearGradient id="linear-gradient-10" x1="-26.027" y1="5.639" x2="-25.995" y2="5.639" xlink:href="#linear-gradient-3"/>
    <clipPath id="clip-path-14">
      <path id="Trazado_605887" data-name="Trazado 605887" d="M794.694,182.44l-.134-.02a.4.4,0,0,0,.134.02M783.26,147.863c4,12.99,8.281,25.034,15.1,28.276,1.522,1.458-2.374,6.293-3.67,6.3,2.114.306,28.656,4.077,27.825.25,2.246-10.12-6.047-20.225-17.4-33.866a.733.733,0,0,0-1.286.578c.171,1.386.817,2.035.644,3.321a.753.753,0,0,1-.459.6c-5.557,2.166-12.29-.768-19.613-6.259a.729.729,0,0,0-1.14.8" transform="translate(-783.225 -146.915)" fill="none"/>
    </clipPath>
    <linearGradient id="linear-gradient-11" x1="-11.383" y1="6.827" x2="-11.368" y2="6.827" xlink:href="#linear-gradient-3"/>
    <clipPath id="clip-path-15">
      <path id="Trazado_605888" data-name="Trazado 605888" d="M959.315,243.623l-.092-.06a.338.338,0,0,0,.092.06m11.861-26.347c-14.4,2.165-25,3.833-29.142,11.261-2.6,1.892,15.729,14.062,17.189,15.026-.79-.712-.54-5.8,1.188-5.865,5.95,1.736,15.142-3.313,24.682-9.089a.6.6,0,0,0-.264-1.111c-7.483-.63-13.21-2.5-15.434-6.863a.619.619,0,0,1,.046-.62c.6-.883,1.346-.927,2.206-1.683a.6.6,0,0,0-.374-1.063.651.651,0,0,0-.1.007" transform="translate(-941.782 -217.268)" fill="none"/>
    </clipPath>
    <linearGradient id="linear-gradient-12" x1="-14.097" y1="5.421" x2="-14.082" y2="5.421" xlink:href="#linear-gradient-3"/>
    <clipPath id="clip-path-16">
      <path id="Trazado_605889" data-name="Trazado 605889" d="M937.791,228.8a36.465,36.465,0,0,0-9.881,2.935c-.783.362-1.562.736-2.319,1.15s-1.488.862-2.234,1.291l-.556.326c-.183.112-.36.235-.54.351l-1.077.711c-.356.24-.723.465-1.07.718l-1.039.763a65.4,65.4,0,0,0-7.776,6.753,72.8,72.8,0,0,0-6.644,7.884l-1.47,2.124-1.37,2.193c-.235.362-.445.739-.652,1.117l-.631,1.13c-.2.38-.431.748-.618,1.138l-.571,1.164-.571,1.164c-.188.389-.344.794-.517,1.19l-.507,1.2-.251.6-.218.612c-.28.822-.594,1.63-.842,2.462l-.706,2.511,2.218.547a55.464,55.464,0,0,1,8.478-17.889,67.864,67.864,0,0,1,13.7-14.51l.985-.773c.329-.257.679-.485,1.017-.73l1.023-.723c.172-.119.339-.244.514-.359l.529-.334c.708-.438,1.405-.9,2.125-1.32s1.455-.806,2.2-1.179a35.251,35.251,0,0,1,9.447-3.139,28.543,28.543,0,0,1,9.963-.116c1.649.271,3.253.8,4.915,1.2a11.642,11.642,0,0,0,5.1.268l-.039-.214a11.3,11.3,0,0,1-4.947-.5c-1.612-.464-3.217-1.063-4.9-1.411a27.807,27.807,0,0,0-5.87-.61,31.676,31.676,0,0,0-4.391.311" transform="translate(-895.732 -228.485)" fill="none"/>
    </clipPath>
    <linearGradient id="linear-gradient-13" x1="-9.066" y1="4.733" x2="-9.055" y2="4.733" xlink:href="#linear-gradient-3"/>
    <clipPath id="clip-path-17">
      <path id="Trazado_605890" data-name="Trazado 605890" d="M805.873,272c5.143,4.02,8.427,8.162,8.3,12.53a1.156,1.156,0,0,1-.9,1.1l-.039.009a1.141,1.141,0,0,0-.191,2.168c12.312,5.2,21.542,8.669,28.554,4.736,3.336-.264-5.481-22.172-8.219-21.42-.943.26-1.083,4.878-2.645,4-3.958-4.369-13.623-5.043-24.153-5.159h-.014a1.141,1.141,0,0,0-.7,2.04" transform="translate(-805.432 -269.955)" fill="none"/>
    </clipPath>
    <linearGradient id="linear-gradient-14" x1="-14.158" y1="5.169" x2="-14.141" y2="5.169" xlink:href="#linear-gradient-3"/>
    <clipPath id="clip-path-18">
      <path id="Trazado_605892" data-name="Trazado 605892" d="M852.028,314.187c-.468.4.579,2.877-.517,2.851-3.3-1.191-8.91,1.169-14.874,4.065a.667.667,0,0,0,.1,1.277c3.879.674,6.741,1.937,7.736,4.275a.712.712,0,0,1-.239.832.222.222,0,0,1-.02.016.652.652,0,0,0,.42,1.2c8.209-.717,10.925-3.584,17.254-5.526,1.706-1.011-7.3-9.089-9.519-9.089a.5.5,0,0,0-.338.1" transform="translate(-836.209 -314.084)" fill="none"/>
    </clipPath>
    <linearGradient id="linear-gradient-15" x1="-14.879" y1="6.095" x2="-14.861" y2="6.095" xlink:href="#linear-gradient-3"/>
    <clipPath id="clip-path-19">
      <path id="Trazado_605893" data-name="Trazado 605893" d="M836.531,288.871c2.632,1.861,5.252,3.734,7.83,5.659s5.136,3.872,7.63,5.892,4.972,4.068,7.283,6.24a44.746,44.746,0,0,1,3.275,3.394,35.449,35.449,0,0,1,2.786,3.75,50.98,50.98,0,0,1,4.3,8.372c1.226,2.914,2.288,5.916,3.337,8.944.533,1.511,1.03,3.04,1.571,4.559l.8,2.286.407,1.144c.264.338-.236.938,1.613.738,1.594-.965.835-1.128.844-1.556l-.351-1.151-.695-2.312c-.455-1.546-.951-3.084-1.442-4.631a91.64,91.64,0,0,0-3.45-9.164,52.81,52.81,0,0,0-4.839-8.646,37.963,37.963,0,0,0-3.134-3.89,47.3,47.3,0,0,0-3.574-3.43c-2.475-2.152-5.038-4.126-7.643-6.059-2.614-1.915-5.263-3.776-7.967-5.549s-5.427-3.51-8.171-5.21c-2.759-1.677-5.515-3.353-8.3-4.981Z" transform="translate(-828.641 -283.268)" fill="none"/>
    </clipPath>
    <linearGradient id="linear-gradient-16" x1="-9.336" y1="3.383" x2="-9.325" y2="3.383" xlink:href="#linear-gradient-3"/>
    <clipPath id="clip-path-20">
      <path id="Trazado_605894" data-name="Trazado 605894" d="M849.157,323.23a.139.139,0,0,0,.063.27h0a28.952,28.952,0,0,1,8.353-.668,23,23,0,0,1,8.047,2.086,25.117,25.117,0,0,1,6.813,4.735,32.083,32.083,0,0,1,5.148,6.53l0,0,.005.009a.55.55,0,0,0,.927-.59,32.977,32.977,0,0,0-5.471-6.6,25.853,25.853,0,0,0-7.144-4.712,23.552,23.552,0,0,0-8.3-1.941q-.642-.033-1.283-.033a30.2,30.2,0,0,0-7.165.913" transform="translate(-849.051 -322.317)" fill="none"/>
    </clipPath>
    <linearGradient id="linear-gradient-17" x1="-24.811" y1="6.278" x2="-24.782" y2="6.278" xlink:href="#linear-gradient-3"/>
    <clipPath id="clip-path-21">
      <path id="Trazado_605895" data-name="Trazado 605895" d="M911.619,122.655a9.35,9.35,0,0,0-4.227,1.007,11.058,11.058,0,0,0-3.358,2.8,11.863,11.863,0,0,0-2.948,7.6c.137,5.772,6.451,9.13,11.526,10.141a11.014,11.014,0,0,0,4.425.041,10.784,10.784,0,0,0,8.216-8.233c.615-2.877.046-5.9-3.278-9.286a14.955,14.955,0,0,0-10.132-4.07h-.224" transform="translate(-901.084 -122.654)" fill="none"/>
    </clipPath>
    <linearGradient id="linear-gradient-18" x1="-24.414" y1="11.905" x2="-24.387" y2="11.905" xlink:href="#linear-gradient-3"/>
    <clipPath id="clip-path-22">
      <path id="Trazado_605896" data-name="Trazado 605896" d="M909.777,126.918c2.217,2.643,4.113,2.853,4.113,2.853s.22.7-2.448.706-2.468,3.377-2.468,3.377,1.518-1.963,3.435-1.949,2.782-.073,2.782-.073,2.579,2.686.834,4.365a10.494,10.494,0,0,1-2.787,1.586s3.146.941,4.332-.884-.08-4.69-.08-4.69a6.98,6.98,0,0,1,2.715.8,14.845,14.845,0,0,1,2.57,2.053,6.406,6.406,0,0,0-1.919-3.136c-2.011-1.772-3.359-1.427-3.359-1.427s.012-.538,2.857-1.017a4.88,4.88,0,0,0,3.666-3.264A12.687,12.687,0,0,1,920.875,128a3.7,3.7,0,0,1-1.657.082,3.092,3.092,0,0,0-2.518.553,2.98,2.98,0,0,1,.89-2.46,6.4,6.4,0,0,0,1.73-2.52,7.265,7.265,0,0,1-2.907,1.421c-1.925.508-2.026,2.856-2.019,3.553a2.9,2.9,0,0,0-2.464-1.717c-2.04-.338-3.15-3.737-3.15-3.737s-.158,2.556,1,3.746" transform="translate(-908.773 -123.172)" fill="none"/>
    </clipPath>
    <linearGradient id="linear-gradient-19" x1="-32.394" y1="16.994" x2="-32.358" y2="16.994" xlink:href="#linear-gradient-3"/>
    <clipPath id="clip-path-23">
      <path id="Trazado_605897" data-name="Trazado 605897" d="M902.7,121.922c-4.969.837-7.855,7.211-7.721,17.051a.733.733,0,0,0,.732.723h.011a.733.733,0,0,0,.722-.743c-.145-10.66,3.262-15.041,6.5-15.586,3.174-.539,6.49,2.4,8.065,7.149a.733.733,0,1,0,1.391-.462c-1.656-4.988-5.141-8.214-8.716-8.214a5.9,5.9,0,0,0-.983.083" transform="translate(-894.978 -121.839)" fill="none"/>
    </clipPath>
    <linearGradient id="linear-gradient-20" x1="-30.322" y1="16.004" x2="-30.288" y2="16.004" xlink:href="#linear-gradient-3"/>
    <clipPath id="clip-path-24">
      <path id="Trazado_605898" data-name="Trazado 605898" d="M912.561,314.434a7.207,7.207,0,0,0-2.518,2.2,8.52,8.52,0,0,0-1.282,3.112,9.132,9.132,0,0,0,.72,6.235c2.165,3.882,7.671,3.9,11.491,2.77a8.455,8.455,0,0,0,3.029-1.56,8.3,8.3,0,0,0,2.64-8.557c-.612-2.181-2.084-4.032-5.564-5.148a10.363,10.363,0,0,0-3-.426,11.638,11.638,0,0,0-5.514,1.373" transform="translate(-908.525 -313.061)" fill="none"/>
    </clipPath>
    <linearGradient id="linear-gradient-21" x1="-26" y1="8.288" x2="-25.972" y2="8.288" xlink:href="#linear-gradient-3"/>
    <clipPath id="clip-path-25">
      <path id="Trazado_605900" data-name="Trazado 605900" d="M914.665,317.933a2.643,2.643,0,0,0,1.3,1.9s-.162.275-1.8-.364a3.082,3.082,0,0,0-2.956.482,6.924,6.924,0,0,1,2.938.206c1.168.465,1.736.645,1.736.645s.431,1.477-1.357,1.592a14.523,14.523,0,0,1-2.386-.164,4.579,4.579,0,0,0,3.032.759,2.633,2.633,0,0,0,1.957-1.514,4.427,4.427,0,0,1,1.322.908,4.179,4.179,0,0,1,.7,1.272,1.47,1.47,0,0,0,.166-1.461,2.267,2.267,0,0,0-1.448-1.263s.238-.169,2.186.363a6.225,6.225,0,0,0,3.642-.159,17.615,17.615,0,0,1-2.691-.188c-1.119-.2-1.3-.791-2.829-.8a2.474,2.474,0,0,1,1.6-.57,7.48,7.48,0,0,0,2.138-.387,9.979,9.979,0,0,1-2.389-.247,3.439,3.439,0,0,0-2.757.647s.33-.541-.775-1.139-.331-1.95-.331-1.95-1.19.778-.993,1.434" transform="translate(-911.206 -316.499)" fill="none"/>
    </clipPath>
    <linearGradient id="linear-gradient-22" x1="-26.75" y1="15.766" x2="-26.72" y2="15.766" xlink:href="#linear-gradient-3"/>
    <clipPath id="clip-path-26">
      <path id="Trazado_605901" data-name="Trazado 605901" d="M906.175,313.523c-2.1.2-7.084,1.811-8.11,12.3a.733.733,0,0,0,.658.8.622.622,0,0,0,.072,0,.733.733,0,0,0,.729-.66c.647-6.621,3.125-10.623,6.794-10.981,3.063-.3,6.24,2.069,7.237,5.389a.732.732,0,1,0,1.4-.421,8.955,8.955,0,0,0-8.129-6.458c-.218,0-.436.011-.653.032" transform="translate(-898.061 -313.491)" fill="none"/>
    </clipPath>
    <linearGradient id="linear-gradient-23" x1="-38.314" y1="15.483" x2="-38.272" y2="15.483" xlink:href="#linear-gradient-3"/>
    <clipPath id="clip-path-27">
      <path id="Trazado_605903" data-name="Trazado 605903" d="M851.448,93.337c-.54.583,1.163,3.59-.241,3.717-4.385-1.036-11.21,2.806-18.4,7.385a.858.858,0,0,0,.311,1.616c5.055.291,8.9,1.481,10.511,4.321a.918.918,0,0,1-.181,1.1l-.024.023a.839.839,0,0,0,.714,1.467c10.381-2.125,13.429-6.188,21.227-9.6,2-1.516-10.216-10.218-13.337-10.218a.762.762,0,0,0-.577.19" transform="translate(-832.349 -93.147)" fill="none"/>
    </clipPath>
    <linearGradient id="linear-gradient-24" x1="-12.034" y1="9.248" x2="-12.02" y2="9.248" xlink:href="#linear-gradient-3"/>
    <clipPath id="clip-path-28">
      <path id="Trazado_605905" data-name="Trazado 605905" d="M853.94,51.254c2.6,5.567,3.554,10.384,1.493,13.828a1.1,1.1,0,0,1-1.261.473l-.039-.012A1.036,1.036,0,0,0,853,67.194c8.2,9.78,14.546,16.77,22.3,16.815,2.971,1.309,5.237-20.272,2.559-20.916-.4-.1-1.037.531-1.706,1.159-.877.821-1.812,1.643-2.344.838-1.429-5.306-9.4-10.253-18.349-15.146a1.154,1.154,0,0,0-.559-.148,1.026,1.026,0,0,0-.964,1.458" transform="translate(-852.744 -49.796)" fill="none"/>
    </clipPath>
    <linearGradient id="linear-gradient-25" x1="-15.035" y1="9.306" x2="-15.018" y2="9.306" xlink:href="#linear-gradient-3"/>
    <clipPath id="clip-path-29">
      <path id="Trazado_605906" data-name="Trazado 605906" d="M872.283,73.974c1.023,1.881,1.98,3.794,2.9,5.725q1.347,2.91,2.576,5.873t2.371,5.966l2.288,6.014c.8,2,1.466,4.022,2.069,6.045s1.05,4.058,1.471,6.1c.214,1.022.41,2.048.611,3.077l.3,1.546.147.775.071.388.017.1c.005.033,0,.066.074.091a.881.881,0,0,0,.145.033l.239.024c.118.012.341.01.57.009h.282c.3-.066.67-.14.83-.192l.227-.076a.847.847,0,0,0,.134-.066.089.089,0,0,0,.052-.109l-.005-.1-.023-.411c-.015-.274-.031-.548-.055-.821-.044-.548-.1-1.094-.169-1.64-.136-1.09-.34-2.174-.582-3.249a41.692,41.692,0,0,0-2.056-6.274l-5.126-11.885c-1.724-3.942-3.551-7.856-5.613-11.645q-1.553-2.839-3.3-5.559c-1.181-1.8-2.429-3.559-3.764-5.241q1.763,2.7,3.329,5.5" transform="translate(-868.954 -68.472)" fill="none"/>
    </clipPath>
    <linearGradient id="linear-gradient-26" x1="-12.171" y1="12.152" x2="-12.157" y2="12.152" xlink:href="#linear-gradient-3"/>
    <clipPath id="clip-path-30">
      <path id="Trazado_605907" data-name="Trazado 605907" d="M858.705,102.855a44.972,44.972,0,0,0-9.962,2.678.185.185,0,0,0,.125.348h0a44.476,44.476,0,0,1,9.91-2.386,25,25,0,0,1,5.056-.044,18.418,18.418,0,0,1,4.871,1.159,17.543,17.543,0,0,1,4.341,2.451,23.181,23.181,0,0,1,3.6,3.478,41.959,41.959,0,0,1,5.363,8.546l0,.008.007.015a.732.732,0,1,0,1.3-.682,43.277,43.277,0,0,0-5.77-8.667,24.3,24.3,0,0,0-3.873-3.545,18.482,18.482,0,0,0-4.647-2.463,19.283,19.283,0,0,0-5.125-1.078q-.829-.06-1.658-.059a27.256,27.256,0,0,0-3.541.241" transform="translate(-848.623 -102.614)" fill="none"/>
    </clipPath>
    <linearGradient id="linear-gradient-27" x1="-23.369" y1="9.574" x2="-23.341" y2="9.574" xlink:href="#linear-gradient-3"/>
    <clipPath id="clip-path-31">
      <path id="Trazado_605908" data-name="Trazado 605908" d="M894.93,125.568c-1.208,0-2.181,2.386-2.175,5.324l.431,188.84c.007,2.939.992,5.318,2.2,5.315s2.181-2.387,2.175-5.324l-.431-188.841c-.007-2.936-.99-5.314-2.2-5.314h0" transform="translate(-892.755 -125.568)" fill="none"/>
    </clipPath>
    <linearGradient id="linear-gradient-28" x1="-2.767" y1="19.993" x2="-2.763" y2="19.993" xlink:href="#linear-gradient-3"/>
    <clipPath id="clip-path-32">
      <path id="Trazado_605909" data-name="Trazado 605909" d="M916.562,195.7a16.385,16.385,0,0,0-6.685,4,19.933,19.933,0,0,0-4.227,6.686c-1.842,4.657-2.538,10.071-.924,14.9,3.361,10.066,15.979,12.633,25.208,11.733a19.194,19.194,0,0,0,7.59-2.261,18.863,18.863,0,0,0,5.593-4.892,19.476,19.476,0,0,0,4-13.9c-.505-5.377-3.115-10.378-10.637-14.58a25.732,25.732,0,0,0-12.051-2.894,25.365,25.365,0,0,0-7.865,1.212" transform="translate(-903.823 -194.49)" fill="none"/>
    </clipPath>
    <linearGradient id="linear-gradient-29" x1="-11.772" y1="5.663" x2="-11.759" y2="5.663" gradientUnits="objectBoundingBox">
      <stop offset="0" stop-color="#fdf53f"/>
      <stop offset="0.159" stop-color="#f7d845"/>
      <stop offset="1" stop-color="#d93c65"/>
    </linearGradient>
    <clipPath id="clip-path-33">
      <path id="Trazado_605910" data-name="Trazado 605910" d="M927.3,193.454c-1.456,2.106-3.857,1.746-4.805,4.959,0,0-1.92-2.094-1.277-4.083s-.242-4.992-.242-4.992a11.881,11.881,0,0,1-2.378,4.727c-2,2.568.19,5.722.89,6.623,0,0-1.914-1.374-4.9.2s-7.8-1.746-7.8-1.746,2.324,3.483,5.005,3.889c5.5,1.245,8.177-.357,8.177-.357s.978.688-2.488,3.341.131,6.838.131,6.838.033-4.057,2.542-5.935,3.548-2.851,3.548-2.851,6.016.943,5.407,4.855a17.188,17.188,0,0,1-2.056,4.823s5.024-1.891,4.761-5.44-4.748-6.025-4.748-6.025a11.435,11.435,0,0,1,4.325-1.65,24.318,24.318,0,0,1,5.379.127,10.475,10.475,0,0,0-5.6-2.181c-4.374-.316-5.786,1.468-5.786,1.468s-.517-.714,2.711-4.153,1.541-7.878,1.541-7.878a20.729,20.729,0,0,1-2.331,5.436" transform="translate(-906.785 -188.018)" fill="none"/>
    </clipPath>
    <linearGradient id="linear-gradient-30" x1="-18.55" y1="9.211" x2="-18.53" y2="9.211" xlink:href="#linear-gradient-3"/>
    <clipPath id="clip-path-34">
      <path id="Trazado_605911" data-name="Trazado 605911" d="M910.587,191.681c-4.37,0-8.133,3.337-10.332,9.17a.732.732,0,1,0,1.37.517c2-5.306,5.18-8.222,8.959-8.222h.064c4.54.04,8.958,4.227,11.258,10.666a.735.735,0,0,0,.69.487.711.711,0,0,0,.246-.044.732.732,0,0,0,.444-.936c-2.509-7.024-7.465-11.593-12.625-11.638Z" transform="translate(-900.208 -191.681)" fill="none"/>
    </clipPath>
    <linearGradient id="linear-gradient-31" x1="-28.084" y1="23.135" x2="-28.053" y2="23.135" xlink:href="#linear-gradient-3"/>
    <clipPath id="clip-path-35">
      <path id="Trazado_605912" data-name="Trazado 605912" d="M843.94,257.183c-7.256,4.986-9.439,10.322-9.446,15.842a19.9,19.9,0,0,0,5.383,13.771,19.269,19.269,0,0,0,6.154,4.449,19.607,19.607,0,0,0,7.937,1.584c9.476.044,22.075-3.761,24.543-14.321,1.186-5.072-.035-10.515-2.349-15.08a20.363,20.363,0,0,0-4.934-6.4,16.744,16.744,0,0,0-7.18-3.435,25.073,25.073,0,0,0-5.566-.609,26.755,26.755,0,0,0-14.542,4.2" transform="translate(-834.494 -252.98)" fill="none"/>
    </clipPath>
    <linearGradient id="linear-gradient-32" x1="-12.726" y1="4.887" x2="-12.711" y2="4.887" gradientUnits="objectBoundingBox">
      <stop offset="0" stop-color="#fdf53f"/>
      <stop offset="1" stop-color="#d93c65"/>
    </linearGradient>
    <clipPath id="clip-path-36">
      <path id="Trazado_605913" data-name="Trazado 605913" d="M859.736,257.506c1.465,1.554.612,4.329.612,4.329-2.285-2.55-4.343-1.165-6.611-2.469a21.2,21.2,0,0,1-4.536-3.995s.389,4.836,4.879,6.6,4.325,2.643,4.325,2.643-2.086-1.027-5.985,1.183a10.71,10.71,0,0,0-4.213,4.472,24.831,24.831,0,0,1,4.909-2.478,11.676,11.676,0,0,1,4.715-.374s-3.053,4.251-1.738,7.643,6.781,2.932,6.781,2.932a17.544,17.544,0,0,1-4.014-3.549c-2.278-3.344,2.861-6.853,2.861-6.853s1.385.441,4.525,1.074,4.951,4.364,4.951,4.364,1.483-5.44-2.88-6.369-3.762-1.992-3.762-1.992,3.172.3,7.7-3.258c2.3-1.551,2.913-5.785,2.913-5.785s-2.982,5.179-6.434,5.034-4.616,1.963-4.616,1.963c.25-1.138.89-5.011-2.085-6.5a12.147,12.147,0,0,1-4.268-3.319s.5,3.16,1.967,4.714" transform="translate(-848.207 -252.792)" fill="none"/>
    </clipPath>
    <linearGradient id="linear-gradient-33" x1="-19.574" y1="8.224" x2="-19.551" y2="8.224" xlink:href="#linear-gradient-3"/>
    <clipPath id="clip-path-37">
      <path id="Trazado_605914" data-name="Trazado 605914" d="M876.492,253.155c-5.268.046-10.327,4.711-12.889,11.883a.733.733,0,1,0,1.38.493c2.353-6.589,6.875-10.871,11.522-10.911h.065c3.869,0,7.123,2.986,9.171,8.415a.733.733,0,0,0,1.37-.518c-2.245-5.955-6.085-9.362-10.544-9.362h-.076" transform="translate(-863.561 -253.154)" fill="none"/>
    </clipPath>
    <linearGradient id="linear-gradient-34" x1="-26.403" y1="19.217" x2="-26.373" y2="19.217" xlink:href="#linear-gradient-3"/>
    <clipPath id="clip-path-38">
      <path id="Trazado_605915" data-name="Trazado 605915" d="M942.532,143.325c8.059,5.2,19.309,1.754,34.356-3.526a1.362,1.362,0,0,0-.067-2.6l-.047-.012a1.377,1.377,0,0,1-.988-1.377c.175-5.21,4.393-9.9,10.816-14.306a1.362,1.362,0,0,0-.7-2.483c-12.547-.642-24.108-.554-29.144,4.353-1.925.935-1.749-4.575-2.854-4.953a.658.658,0,0,0-.215-.035c-3.5,0-15.029,24.385-11.16,24.934" transform="translate(-941.748 -118.391)" fill="none"/>
    </clipPath>
    <linearGradient id="linear-gradient-35" x1="-12.362" y1="6.318" x2="-12.348" y2="6.318" xlink:href="#linear-gradient-3"/>
    <clipPath id="clip-path-39">
      <path id="Trazado_605917" data-name="Trazado 605917" d="M945.751,167.583c7.815,6.773,9.884,12.585,21.159,18.8a1.019,1.019,0,0,0,1.358-1.443l-.02-.036a1.115,1.115,0,0,1,.186-1.34c2.9-2.712,7.784-2.707,13.753-1.22a1.042,1.042,0,0,0,.943-1.763c-6.69-7.907-13.219-14.827-18.682-15.207-1.581-.654,1.479-3.528,1.063-4.4-.191-.4-.866-.575-1.859-.575-5.274,0-19.513,4.927-17.9,7.187" transform="translate(-945.624 -160.396)" fill="none"/>
    </clipPath>
    <linearGradient id="linear-gradient-36" x1="-15.465" y1="11.377" x2="-15.448" y2="11.377" xlink:href="#linear-gradient-3"/>
    <clipPath id="clip-path-40">
      <path id="Trazado_605918" data-name="Trazado 605918" d="M942.882,137.239c-3.056,1.922-6.1,3.871-9.1,5.882s-5.955,4.1-8.86,6.264-5.761,4.386-8.5,6.808q-1.025.909-2.014,1.869c-.666.635-1.283,1.314-1.923,1.973s-1.221,1.369-1.835,2.052c-.595.7-1.162,1.418-1.744,2.128a79.327,79.327,0,0,0-6.107,9.121,92.112,92.112,0,0,0-4.846,9.815c-.362.837-.694,1.685-1.033,2.531s-.651,1.7-.968,2.554-.6,1.717-.9,2.573c-.151.429-.287.864-.43,1.295-.033.468-.731.714.643,1.658,1.672.092,1.271-.513,1.534-.9.157-.42.305-.842.47-1.257.327-.832.639-1.67.981-2.5.679-1.653,1.345-3.31,2.079-4.935,1.445-3.261,3-6.47,4.71-9.585a78.9,78.9,0,0,1,5.674-9.008c.54-.7,1.067-1.415,1.621-2.106.571-.676,1.113-1.381,1.709-2.035s1.172-1.327,1.792-1.957,1.248-1.259,1.9-1.869c2.587-2.441,5.361-4.739,8.159-6.987s5.685-4.4,8.575-6.547,5.837-4.22,8.793-6.283l8.87-6.2c-3.1,1.848-6.169,3.741-9.239,5.64" transform="translate(-894.408 -131.599)" fill="none"/>
    </clipPath>
    <linearGradient id="linear-gradient-37" x1="-8.47" y1="4.674" x2="-8.46" y2="4.674" xlink:href="#linear-gradient-3"/>
    <clipPath id="clip-path-41">
      <path id="Trazado_605919" data-name="Trazado 605919" d="M925.048,169.964a47,47,0,0,0-10.881,5.49l-.009.006a.549.549,0,1,0,.631.9,46.078,46.078,0,0,1,10.557-5.554,35.955,35.955,0,0,1,11.7-2.231,33.185,33.185,0,0,1,11.757,1.97,40.767,40.767,0,0,1,10.507,5.776.139.139,0,0,0,.169-.22,41.124,41.124,0,0,0-10.509-6.009,33.763,33.763,0,0,0-11.929-2.205h-.053a36.737,36.737,0,0,0-11.935,2.077" transform="translate(-913.924 -167.887)" fill="none"/>
    </clipPath>
    <linearGradient id="linear-gradient-38" x1="-14.546" y1="35.763" x2="-14.53" y2="35.763" xlink:href="#linear-gradient-3"/>
    <clipPath id="clip-path-42">
      <path id="Trazado_605920" data-name="Trazado 605920" d="M953.916,288.784l-.076-.088a.349.349,0,0,0,.076.088M940.63,268.511c-3.181,1.186,12,18.788,13.209,20.184-.6-.948,1.1-6.056,2.879-5.629,5.559,3.462,16.349.943,27.7-2.217a.634.634,0,0,0,.049-1.205c-7.435-2.772-12.728-6.311-13.748-11.379a.649.649,0,0,1,.225-.617c.858-.729,1.632-.561,2.724-1.085a.635.635,0,0,0-.181-1.208,153.149,153.149,0,0,0-17.8-1.565c-6.448,0-11.517,1.161-15.054,4.721" transform="translate(-940.193 -263.79)" fill="none"/>
    </clipPath>
    <linearGradient id="linear-gradient-39" x1="-13.631" y1="4.828" x2="-13.616" y2="4.828" xlink:href="#linear-gradient-3"/>
    <clipPath id="clip-path-43">
      <path id="Trazado_605921" data-name="Trazado 605921" d="M929.483,269.376a43.59,43.59,0,0,0-6.019.562,28.125,28.125,0,0,0-5.893,1.624,24.253,24.253,0,0,0-5.376,3.016,29.563,29.563,0,0,0-4.5,4.188,43.958,43.958,0,0,0-3.682,4.859c-.281.42-.544.853-.815,1.279-.132.216-.289.5-.41.747s-.238.5-.332.74c-.407.978-.725,1.941-1.025,2.909-1.181,3.864-2.08,7.742-2.933,11.634s-1.626,7.791-2.37,11.7-1.436,7.819-2.073,11.749a1.282,1.282,0,0,0,2.529.418v-.007c1.31-7.8,2.7-15.606,4.325-23.34.406-1.934.838-3.86,1.282-5.78s.919-3.83,1.471-5.694c.273-.931.569-1.856.912-2.716.081-.221.179-.412.267-.621s.175-.351.3-.561c.253-.415.5-.836.76-1.243a42,42,0,0,1,3.374-4.715,28.559,28.559,0,0,1,4.082-4.028,22.4,22.4,0,0,1,4.878-2.961,33.009,33.009,0,0,1,11.3-2.46,43.907,43.907,0,0,1,11.7.768,28.07,28.07,0,0,1,5.593,1.789,19.886,19.886,0,0,1,4.979,3.114.122.122,0,0,0,.169-.007.12.12,0,0,0,0-.172,20.039,20.039,0,0,0-4.911-3.425,28.737,28.737,0,0,0-5.639-2.079,42.994,42.994,0,0,0-10.717-1.3q-.612,0-1.224.015" transform="translate(-894.04 -269.361)" fill="none"/>
    </clipPath>
    <linearGradient id="linear-gradient-40" x1="-8.66" y1="3.326" x2="-8.65" y2="3.326" xlink:href="#linear-gradient-3"/>
    <clipPath id="clip-path-44">
      <path id="Trazado_605923" data-name="Trazado 605923" d="M927.111,287.192c3.493,7,3.486,11.692,9.352,19.267.489.631,1.34.191,1.215-.638l0-.031a.838.838,0,0,1,.431-.9c2.508-1.1,5.674.282,9.2,3.019.589.457,1.28-.207,1.021-.981-2.5-7.482-5.128-14.22-8.58-16.029-.874-.91,1.777-2.079,1.709-2.812-.119-1.294-5.632-2.25-9.792-2.25-2.676,0-4.792.4-4.55,1.351" transform="translate(-927.092 -285.841)" fill="none"/>
    </clipPath>
    <linearGradient id="linear-gradient-41" x1="-21.19" y1="5.945" x2="-21.167" y2="5.945" xlink:href="#linear-gradient-3"/>
    <clipPath id="clip-path-45">
      <path id="Trazado_605924" data-name="Trazado 605924" d="M914.29,286.08a11.914,11.914,0,0,0-4.6,1.63,12.666,12.666,0,0,0-3.595,3.32l-.007.009a.55.55,0,0,0,.9.634,11.613,11.613,0,0,1,3.23-3.118,10.978,10.978,0,0,1,4.2-1.592,16.312,16.312,0,0,1,8.98,1.4,26.385,26.385,0,0,1,7.66,5.252,32.434,32.434,0,0,1,5.685,7.429v0a.139.139,0,0,0,.243-.135,32.8,32.8,0,0,0-5.589-7.64,26.969,26.969,0,0,0-7.717-5.537,18.028,18.028,0,0,0-7.52-1.781,14.043,14.043,0,0,0-1.877.124" transform="translate(-905.99 -285.956)" fill="none"/>
    </clipPath>
    <linearGradient id="linear-gradient-42" x1="-28.183" y1="6.813" x2="-28.152" y2="6.813" xlink:href="#linear-gradient-3"/>
    <clipPath id="clip-path-46">
      <path id="Trazado_605925" data-name="Trazado 605925" d="M855.13,144.289c-5.775,3.227-7.781,7.069-8.169,11.2a14.96,14.96,0,0,0,3.07,10.678,14.476,14.476,0,0,0,4.3,3.757,14.7,14.7,0,0,0,5.829,1.736c7.087.692,16.779-1.279,19.359-9.009a17,17,0,0,0-.709-11.448,15.3,15.3,0,0,0-3.246-5.135,12.584,12.584,0,0,0-5.135-3.07,19.482,19.482,0,0,0-6.04-.93,19.755,19.755,0,0,0-9.255,2.222" transform="translate(-846.892 -142.067)" fill="none"/>
    </clipPath>
    <linearGradient id="linear-gradient-43" x1="-18.868" y1="9.129" x2="-18.845" y2="9.129" xlink:href="#linear-gradient-32"/>
    <clipPath id="clip-path-47">
      <path id="Trazado_605926" data-name="Trazado 605926" d="M865.429,143.146c2.479,2.641,2.083,3.19,2.083,3.19s-1.085-1.37-4.444-1.128a8.045,8.045,0,0,0-4.3,1.676,18.645,18.645,0,0,1,4.131-.1,8.78,8.78,0,0,1,3.321,1.266s-3.443,1.9-3.646,4.628,3.657,4.177,3.657,4.177a13.172,13.172,0,0,1-1.58-3.7c-.468-3.006,4.153-3.729,4.153-3.729s.8.746,2.725,2.189,1.952,4.559,1.952,4.559,2.762-3.214.1-5.252-1.911-2.566-1.911-2.566,2.054,1.231,6.28.275c2.058-.312,3.844-2.987,3.844-2.987s-3.694,2.553-5.991,1.341a3.636,3.636,0,0,0-3.766-.156c.537-.692,2.22-3.115.683-5.087a9.124,9.124,0,0,1-1.827-3.63,8.038,8.038,0,0,0-.186,3.834c.493,1.527-.981,3.136-.981,3.136-.728-2.468-2.572-2.191-3.691-3.809a15.925,15.925,0,0,1-1.789-4.174,6.13,6.13,0,0,0,1.183,6.05" transform="translate(-858.766 -137.096)" fill="none"/>
    </clipPath>
    <linearGradient id="linear-gradient-44" x1="-25.114" y1="12.331" x2="-25.085" y2="12.331" xlink:href="#linear-gradient-3"/>
    <clipPath id="clip-path-48">
      <path id="Trazado_605927" data-name="Trazado 605927" d="M880.725,139.675c-4.036.036-7.9,3.588-9.855,9.052a.733.733,0,0,0,.443.937.755.755,0,0,0,.247.042.732.732,0,0,0,.69-.486c1.715-4.8,5.127-8.05,8.489-8.079h.047c2.827,0,5.212,2.2,6.722,6.2a.732.732,0,1,0,1.37-.517c-1.711-4.539-4.654-7.153-8.069-7.153h-.084" transform="translate(-870.827 -139.675)" fill="none"/>
    </clipPath>
    <linearGradient id="linear-gradient-45" x1="-34.635" y1="32.873" x2="-34.595" y2="32.873" xlink:href="#linear-gradient-3"/>
    <clipPath id="clip-path-49">
      <path id="Trazado_605928" data-name="Trazado 605928" d="M1021.161,288.7a3.662,3.662,0,0,0-2.524,1.98l-.919,1.888,8.024,1.6,1.793-5.664-1.982-.756Z" transform="translate(-1017.718 -287.751)" fill="none"/>
    </clipPath>
    <linearGradient id="linear-gradient-46" x1="-67.726" y1="26.894" x2="-67.66" y2="26.894" xlink:href="#linear-gradient-32"/>
    <clipPath id="clip-path-50">
      <path id="Trazado_605929" data-name="Trazado 605929" d="M1027.777,283.53a10.781,10.781,0,0,1,4.731,2l10.7-13.424-10.573-.188a28.058,28.058,0,0,1-4.861,11.611" transform="translate(-1027.777 -271.919)" fill="none"/>
    </clipPath>
    <linearGradient id="linear-gradient-47" x1="-36.676" y1="11.525" x2="-36.641" y2="11.525" gradientUnits="objectBoundingBox">
      <stop offset="0" stop-color="#53d8ff"/>
      <stop offset="1" stop-color="#3840f7"/>
    </linearGradient>
    <clipPath id="clip-path-51">
      <rect id="Rectángulo_345978" data-name="Rectángulo 345978" width="55.329" height="1.835" transform="translate(0 29.451) rotate(-32.16)" fill="none"/>
    </clipPath>
    <linearGradient id="linear-gradient-48" x1="-12.003" y1="4.324" x2="-11.99" y2="4.324" xlink:href="#linear-gradient-47"/>
    <clipPath id="clip-path-52">
      <path id="Trazado_605936" data-name="Trazado 605936" d="M1009.568,295.04c-.535.108-1.787.895-1.68,1.429l1.452,2.438a.987.987,0,0,0,1.164.773,77.251,77.251,0,0,0,19.188-11.464l-3.342-2.005c-8.024,3.916-12.328,6.855-16.782,8.829" transform="translate(-1007.882 -286.211)" fill="none"/>
    </clipPath>
    <linearGradient id="linear-gradient-49" x1="-30.539" y1="8.924" x2="-30.508" y2="8.924" gradientUnits="objectBoundingBox">
      <stop offset="0" stop-color="#cb236d"/>
      <stop offset="1" stop-color="#4c246d"/>
    </linearGradient>
    <clipPath id="clip-path-53">
      <path id="Trazado_605937" data-name="Trazado 605937" d="M938.686,342.074l2.472,3.262,8.853-7.372-.976-1.554Z" transform="translate(-938.686 -336.411)" fill="none"/>
    </clipPath>
    <linearGradient id="linear-gradient-50" x1="-47.513" y1="13.91" x2="-47.463" y2="13.91" xlink:href="#linear-gradient-47"/>
    <clipPath id="clip-path-54">
      <path id="Trazado_605938" data-name="Trazado 605938" d="M1024.542,434.512l-19.528,8.975a2.084,2.084,0,0,0-1.066,1.122.931.931,0,0,0,.819,1.275c4.242.189,16.065-.258,21.592-.489a2.859,2.859,0,0,0,2.736-3.1c-.363-4.15-1.1-8.342-1.1-8.342Z" transform="translate(-1003.88 -433.954)" fill="none"/>
    </clipPath>
    <linearGradient id="linear-gradient-51" x1="-29.874" y1="4.429" x2="-29.844" y2="4.429" xlink:href="#linear-gradient-47"/>
    <clipPath id="clip-path-55">
      <path id="Trazado_605939" data-name="Trazado 605939" d="M1029.127,435.091c2.336,1.793,5.757.2,5.757.2l.595-5.015-4.935-.775Z" transform="translate(-1029.127 -429.502)" fill="none"/>
    </clipPath>
    <linearGradient id="linear-gradient-52" x1="-117.856" y1="16.102" x2="-117.742" y2="16.102" gradientUnits="objectBoundingBox">
      <stop offset="0" stop-color="#f9b776"/>
      <stop offset="1" stop-color="#f47960"/>
    </linearGradient>
    <clipPath id="clip-path-56">
      <path id="Trazado_605940" data-name="Trazado 605940" d="M1060.575,437.2a14.678,14.678,0,0,0-3.425,8.046,1.74,1.74,0,0,0,1.722,1.941c2.25.015,5.06-.215,6.885-.395a1.745,1.745,0,0,0,1.535-2.09c-1.141-5.624-2.32-7.741-2.32-7.741Z" transform="translate(-1057.138 -436.961)" fill="none"/>
    </clipPath>
    <linearGradient id="linear-gradient-53" x1="-53.354" y1="8.008" x2="-53.303" y2="8.008" xlink:href="#linear-gradient-47"/>
    <clipPath id="clip-path-57">
      <path id="Trazado_605941" data-name="Trazado 605941" d="M1061.793,435.849c2.72.74,4.094-.281,4.094-.281l1.389-7.584-4.821-.295Z" transform="translate(-1061.793 -427.688)" fill="none"/>
    </clipPath>
    <linearGradient id="linear-gradient-54" x1="-140.841" y1="13.506" x2="-140.708" y2="13.506" xlink:href="#linear-gradient-52"/>
    <clipPath id="clip-path-58">
      <path id="Trazado_605942" data-name="Trazado 605942" d="M1077.128,215.94l-24.219,1.278.442,8.357,24.9-1.314-.406-7.678a.679.679,0,0,0-.677-.644h-.037" transform="translate(-1052.909 -215.939)" fill="#636363"/>
    </clipPath>
    <clipPath id="clip-path-59">
      <path id="Trazado_605943" data-name="Trazado 605943" d="M1081.044,223.58l-31.859,1.682a1.272,1.272,0,0,0-1.2,1.333l3.1,58.707a1.27,1.27,0,0,0,1.332,1.2l33.461-1.766a2.646,2.646,0,0,0,2.5-2.774l-2.869-54.366a4.257,4.257,0,0,0-4.236-4.02c-.074,0-.149,0-.225.006" transform="translate(-1047.985 -223.574)" fill="#636363"/>
    </clipPath>
    <clipPath id="clip-path-60">
      <path id="Trazado_605944" data-name="Trazado 605944" d="M1036.367,293.273c.157,3.112-1.162,19.752-1.147,19.765-.263,22.41-1.562,61.673-6.328,82.387-.111.485-.82,1.439-.576,1.857.595,1.015,4.97.73,7.437.816.763.027,1.173-.869,1.389-1.63,1.763-6.218,8.814-42.924,11.236-72.7,2.742,23.41,3.146,66.494,3.4,73.223a1.441,1.441,0,0,0,1,1.336,9.765,9.765,0,0,0,4.38.183,1.547,1.547,0,0,0,1.226-1.2c1.93-8.537,7.957-95.211,6.657-99.805-.668-2.346-1.653-5.106-2.675-7.912-7.542,4.118-16.92,4.232-26,3.687" transform="translate(-1028.265 -289.586)" fill="none"/>
    </clipPath>
    <linearGradient id="linear-gradient-55" x1="-13.053" y1="1.954" x2="-13.04" y2="1.954" gradientUnits="objectBoundingBox">
      <stop offset="0" stop-color="#2b3582"/>
      <stop offset="1" stop-color="#150e42"/>
    </linearGradient>
    <clipPath id="clip-path-61">
      <path id="Trazado_605945" data-name="Trazado 605945" d="M1039.015,231.488c-1.191.522-2.193.662-3.333,1.287a18.953,18.953,0,0,0-4.484,3.081,11.049,11.049,0,0,0-2.748,6.559c-.049.4-.084.794-.107,1.194-.327,5.613,1.114,11.133,2.7,16.459.072.241.143.481.216.721,1.167,3.9,4.584,12.149,5.089,16.2.01.075.017.169.023.279,9.076.545,18.455.431,26-3.687-1.275-3.5-2.605-7.074-3.444-10-.594-2.073-1.4-4.088-1.864-6.2-.532-2.434.054-4.444.559-6.846a34.1,34.1,0,0,0,.908-6.168c.071-2.893-1.695-5.438-3.556-7.49-2.142-2.362-4.828-4.641-8.044-5.274a25.6,25.6,0,0,0-4.846-.741,7.419,7.419,0,0,0-3.069.626" transform="translate(-1028.297 -230.862)" fill="none"/>
    </clipPath>
    <linearGradient id="linear-gradient-56" x1="-12.726" y1="5.01" x2="-12.714" y2="5.01" xlink:href="#linear-gradient-47"/>
    <clipPath id="clip-path-62">
      <path id="Trazado_605946" data-name="Trazado 605946" d="M1033.271,285.953l3.534,3.438c3.308-.625,9.19.714,12.234,1.964,4.338,1.783,5.094,7.011,4.782,11.242-.265,3.587-1.266,7.083-1.655,10.66a32.2,32.2,0,0,0,3.656,18.6c4.09,7.6,12.547,15.479,21.619,15.866q.249.01.495.011c10.634.038,14.135-12.774,12.811-21.395-1.3-8.467-6.861-15.682-9.138-23.94-.161-.583-.073-3.535.314-4a13.432,13.432,0,0,1-4.2,2.962c-.2.068,1.747,6.449,1.933,6.992a38.078,38.078,0,0,0,2.78,5.539A44.188,44.188,0,0,1,1086.9,326.8c.627,3.507.809,7.216-.451,10.549-3.223,8.527-11.788,7.194-18.145,2.82a28.737,28.737,0,0,1-10.006-11.452c-3.012-6.582-2.8-14.113-1.485-21.083,1.13-6.016,1.682-12.952-2.952-17.7-2.242-2.3-9.975-4.669-15.938-4.669a13.448,13.448,0,0,0-4.649.69" transform="translate(-1033.271 -285.263)" fill="none"/>
    </clipPath>
    <linearGradient id="linear-gradient-57" x1="-8.603" y1="2.752" x2="-8.594" y2="2.752" xlink:href="#linear-gradient-49"/>
    <clipPath id="clip-path-63">
      <path id="Trazado_605947" data-name="Trazado 605947" d="M1063.739,273.131c3.446,2.769,5.935,3.13,10.357,5.2a.313.313,0,0,0,.448-.279l.083-6.854a.532.532,0,0,0-.485-.538c-2.715-.228-5.54-.1-9.2-1.475Z" transform="translate(-1063.739 -269.18)" fill="#545454"/>
    </clipPath>
    <clipPath id="clip-path-64">
      <path id="Trazado_605948" data-name="Trazado 605948" d="M1036.363,221.372l.108,8.778a1.473,1.473,0,0,0,.836,1.319c4.615,2.166,7.668.415,9.015-.734a1.58,1.58,0,0,0,.463-1.73l-3.574-10.129Z" transform="translate(-1036.363 -218.876)" fill="none"/>
    </clipPath>
    <linearGradient id="linear-gradient-58" x1="-56.113" y1="16.444" x2="-56.059" y2="16.444" xlink:href="#linear-gradient-52"/>
    <clipPath id="clip-path-65">
      <path id="Trazado_605949" data-name="Trazado 605949" d="M1026.778,210.671s.353,10.853,2.847,13.888,7.831-.347,11.048-5.819l-1.811-10.9Z" transform="translate(-1026.778 -207.841)" fill="none"/>
    </clipPath>
    <linearGradient id="linear-gradient-59" x1="-30.906" y1="12.965" x2="-30.876" y2="12.965" xlink:href="#linear-gradient-52"/>
    <clipPath id="clip-path-66">
      <path id="Trazado_605950" data-name="Trazado 605950" d="M1029.705,197.776c-2.714.268-3.353,2.758-3.5,3.868a.4.4,0,0,1-.545.308c-6.294-2.614-5.184,4.56-2.983,6.4,2.258,1.891,7.058.529,10.261-.413s2.7.024,2.7.024a10.311,10.311,0,0,1,.268,3.315.4.4,0,0,0,.438.416l.778-.081a.4.4,0,0,1,.431.321l.835,4.358a.4.4,0,0,0,.626.25c2.7-2,3.774-6.318,3.992-7.315a.4.4,0,0,1,.242-.283c.749-.3,3.289-1.5,2.163-3.743a2.373,2.373,0,0,0-2.8-1.515.394.394,0,0,1-.472-.484c.229-.893.169-2.416-1.961-3.948a4.559,4.559,0,0,0-5.851.5.393.393,0,0,1-.6-.117,3.6,3.6,0,0,0-3.41-1.89,5.941,5.941,0,0,0-.607.031" transform="translate(-1020.94 -197.745)" fill="none"/>
    </clipPath>
    <linearGradient id="linear-gradient-60" x1="-26.408" y1="9.083" x2="-26.382" y2="9.083" xlink:href="#linear-gradient-55"/>
    <clipPath id="clip-path-67">
      <path id="Trazado_605951" data-name="Trazado 605951" d="M1041.809,217.024l-.047,2.173c1.906-.193,4.5-2.766,3.228-4.451a.889.889,0,0,0-.714-.418c-1.169,0-2.467,2.695-2.467,2.695" transform="translate(-1041.762 -214.329)" fill="none"/>
    </clipPath>
    <linearGradient id="linear-gradient-61" x1="-117.623" y1="43.914" x2="-117.51" y2="43.914" xlink:href="#linear-gradient-52"/>
    <clipPath id="clip-path-68">
      <path id="Trazado_605952" data-name="Trazado 605952" d="M1007.581,205.633c-.015,2.684,9.814,4.912,21.95,4.976s21.989-2.059,22-4.743-9.813-4.912-21.95-4.976h-.535c-11.891,0-21.454,2.1-21.467,4.745" transform="translate(-1007.581 -200.888)" fill="#a4905a"/>
    </clipPath>
    <clipPath id="clip-path-69">
      <path id="Trazado_605953" data-name="Trazado 605953" d="M1038.007,189.553l-12.425,1.106a1.522,1.522,0,0,0-1.279,1.068l-2.294,9.836a1.632,1.632,0,0,0,1.243,2.007c7.313,1.384,12.989.653,20.407-1.717l-4.115-11.386a1.541,1.541,0,0,0-1.4-.919c-.045,0-.09,0-.136.006" transform="translate(-1021.962 -189.547)" fill="#a4905a"/>
    </clipPath>
    <clipPath id="clip-path-70">
      <path id="Trazado_605954" data-name="Trazado 605954" d="M1026.112,288.666c-.834.5-1.391,1.313-2.223,1.83a4.907,4.907,0,0,1-2.909.482,5.435,5.435,0,0,0-2.763.376,4.344,4.344,0,0,1-3.5.447.128.128,0,0,0-.076-.013c-.039.009-.059.05-.072.087a.938.938,0,0,0,.014.589c.314.979,1.238.874,2.181.768.761-.085,1.534-.17,2.01.312.85.862,1.73,3.09.06,3.606-.046.633,2.059.858,2.451.813a6.879,6.879,0,0,0,3.929-2.311,18.032,18.032,0,0,0,3.2-3.958,3.415,3.415,0,0,0,.487-1.675,1.62,1.62,0,0,0-1.061-1.508,1.916,1.916,0,0,0-.7-.129,2,2,0,0,0-1.026.283" transform="translate(-1014.525 -288.383)" fill="none"/>
    </clipPath>
    <linearGradient id="linear-gradient-62" x1="-45.589" y1="13.014" x2="-45.544" y2="13.014" xlink:href="#linear-gradient-32"/>
    <clipPath id="clip-path-71">
      <path id="Trazado_605955" data-name="Trazado 605955" d="M1047.631,242a11.915,11.915,0,0,0-2.368,6.869c-.4,4.945,1.291,11.45-1.832,15.677s-9.948,9.655-14.837,11.144c-.559,1.87,1.383,2.461,2.356,4.521.41.868,9.781-4.019,10.953-4.394,2.966-.948,5.361-2.795,7.871-4.663,3.091-2.3,4.3-4.987,5.309-8.584q1.009-3.6,1.85-7.237.532-2.3,1-4.611a12.692,12.692,0,0,0,.236-5.653,6.773,6.773,0,0,0-6.353-5.042,5.393,5.393,0,0,0-4.179,1.973" transform="translate(-1028.495 -240.026)" fill="none"/>
    </clipPath>
    <linearGradient id="linear-gradient-63" x1="-15.046" y1="6.011" x2="-15.031" y2="6.011" xlink:href="#linear-gradient-47"/>
    <clipPath id="clip-path-72">
      <path id="Trazado_605956" data-name="Trazado 605956" d="M1057.315,234.074c-3.665,5.2-6.168,8.844-5.968,15.685,2.612-5.476,5.436-9.85,10.5-12.346a.359.359,0,0,0,.107-.566,8.706,8.706,0,0,0-4.233-2.9.348.348,0,0,0-.405.128" transform="translate(-1051.337 -233.925)" fill="#545454"/>
    </clipPath>
  </defs>
  <g id="Grupo_1070247" data-name="Grupo 1070247" transform="translate(-809.668 -498.301)">
    <rect id="Imagen_1" data-name="Imagen 1" width="460" height="317" rx="19" transform="translate(809.668 498.301)" fill="none"/>
    <g id="Grupo_1070079" data-name="Grupo 1070079" transform="translate(-11287.333 12883.524)">
      <circle id="Elipse_5672" data-name="Elipse 5672" cx="151.711" cy="151.711" r="151.711" transform="translate(12175.001 -12375.851)" fill="url(#linear-gradient)"/>
      <g id="Grupo_1070078" data-name="Grupo 1070078" transform="translate(12175.342 -12381.224)">
        <g id="Grupo_1015451" data-name="Grupo 1015451" transform="translate(0 150.6)">
          <g id="Grupo_1015450" data-name="Grupo 1015450" transform="translate(0 0)" clip-path="url(#clip-path)">
            <rect id="Rectángulo_345876" data-name="Rectángulo 345876" width="204.51" height="305.326" transform="translate(-2.461 200.781) rotate(-89.298)" fill="#699f32"/>
          </g>
        </g>
        <g id="Grupo_1015453" data-name="Grupo 1015453" transform="translate(2.088 168.185)">
          <g id="Grupo_1015452" data-name="Grupo 1015452" transform="translate(0 0)" clip-path="url(#clip-path-2)">
            <rect id="Rectángulo_345877" data-name="Rectángulo 345877" width="214.141" height="316.021" transform="translate(-16.623 186.761) rotate(-84.914)" fill="#91bc66"/>
          </g>
        </g>
        <g id="Grupo_1015455" data-name="Grupo 1015455" transform="translate(78.844 195.196)">
          <g id="Grupo_1015454" data-name="Grupo 1015454" transform="translate(0 0)" clip-path="url(#clip-path-3)">
            <rect id="Rectángulo_345878" data-name="Rectángulo 345878" width="1.12" height="19.346" transform="translate(-0.045 0) rotate(-0.132)" fill="url(#linear-gradient-2)"/>
          </g>
        </g>
        <g id="Grupo_1015457" data-name="Grupo 1015457" transform="translate(59.324 177.392)">
          <g id="Grupo_1015456" data-name="Grupo 1015456" transform="translate(0 0)" clip-path="url(#clip-path-4)">
            <rect id="Rectángulo_345879" data-name="Rectángulo 345879" width="33.578" height="29.613" transform="translate(-9.783 24.125) rotate(-68.48)" fill="url(#linear-gradient-3)"/>
          </g>
        </g>
        <g id="Grupo_1015459" data-name="Grupo 1015459" transform="translate(78.556 184.569)">
          <g id="Grupo_1015458" data-name="Grupo 1015458" clip-path="url(#clip-path-5)">
            <rect id="Rectángulo_345880" data-name="Rectángulo 345880" width="19.111" height="22.801" transform="matrix(0.219, -0.976, 0.976, 0.219, -4.171, 14.387)" fill="url(#linear-gradient-4)"/>
          </g>
        </g>
        <g id="Grupo_1015469" data-name="Grupo 1015469" transform="translate(52.572 233.32)">
          <g id="Grupo_1015468" data-name="Grupo 1015468" transform="translate(0 0)" clip-path="url(#clip-path-6)">
            <rect id="Rectángulo_345884" data-name="Rectángulo 345884" width="1.354" height="23.404" transform="translate(-0.055 -0.001) rotate(-0.131)" fill="url(#linear-gradient-5)"/>
          </g>
        </g>
        <g id="Grupo_1015471" data-name="Grupo 1015471" transform="translate(28.958 211.781)">
          <g id="Grupo_1015470" data-name="Grupo 1015470" transform="translate(0 0)" clip-path="url(#clip-path-7)">
            <rect id="Rectángulo_345885" data-name="Rectángulo 345885" width="40.62" height="35.824" transform="translate(-11.834 29.185) rotate(-68.48)" fill="url(#linear-gradient-6)"/>
          </g>
        </g>
        <g id="Grupo_1015473" data-name="Grupo 1015473" transform="translate(52.223 220.464)">
          <g id="Grupo_1015472" data-name="Grupo 1015472" transform="translate(0 0)" clip-path="url(#clip-path-8)">
            <rect id="Rectángulo_345886" data-name="Rectángulo 345886" width="23.119" height="27.584" transform="matrix(0.219, -0.976, 0.976, 0.219, -5.046, 17.404)" fill="url(#linear-gradient-7)"/>
          </g>
        </g>
        <g id="Grupo_1015483" data-name="Grupo 1015483" transform="translate(69.159 235.806)">
          <g id="Grupo_1015482" data-name="Grupo 1015482" clip-path="url(#clip-path-9)">
            <rect id="Rectángulo_345890" data-name="Rectángulo 345890" width="170.877" height="89.187" transform="translate(-15.882 2.009) rotate(-10.491)" fill="#699f32"/>
          </g>
        </g>
        <g id="Grupo_1015485" data-name="Grupo 1015485" transform="translate(35.975 28.283)">
          <g id="Grupo_1015484" data-name="Grupo 1015484" transform="translate(0 0)" clip-path="url(#clip-path-10)">
            <rect id="Rectángulo_345891" data-name="Rectángulo 345891" width="69.402" height="67.423" transform="translate(-19.694 5.861) rotate(-19.636)" fill="#fffad0"/>
          </g>
        </g>
        <g id="Grupo_1015614" data-name="Grupo 1015614" transform="translate(81.738 85.429)">
          <g id="Grupo_1015613" data-name="Grupo 1015613" transform="translate(0 0)" clip-path="url(#clip-path-11)">
            <rect id="Rectángulo_345943" data-name="Rectángulo 345943" width="86.141" height="81.759" transform="translate(-18.596 65.969) rotate(-74.257)" fill="url(#linear-gradient-8)"/>
          </g>
        </g>
        <g id="Grupo_1015616" data-name="Grupo 1015616" transform="translate(74.226 114.728)">
          <g id="Grupo_1015615" data-name="Grupo 1015615" clip-path="url(#clip-path-12)">
            <path id="Trazado_605884" data-name="Trazado 605884" d="M787.406,229.821l49.12,9.8,9.281-33.857-49.12-9.8Z" transform="translate(-794.791 -204.372)" fill="url(#linear-gradient-9)"/>
          </g>
        </g>
        <g id="Grupo_1015618" data-name="Grupo 1015618" transform="translate(88.265 123.645)">
          <g id="Grupo_1015617" data-name="Grupo 1015617" transform="translate(0 0)" clip-path="url(#clip-path-13)">
            <rect id="Rectángulo_345944" data-name="Rectángulo 345944" width="23.333" height="51.409" transform="translate(-2.623 14.137) rotate(-79.59)" fill="url(#linear-gradient-10)"/>
          </g>
        </g>
        <g id="Grupo_1015620" data-name="Grupo 1015620" transform="translate(63.8 70.643)">
          <g id="Grupo_1015619" data-name="Grupo 1015619" transform="translate(0 0)" clip-path="url(#clip-path-14)">
            <rect id="Rectángulo_345945" data-name="Rectángulo 345945" width="49.687" height="48.157" transform="translate(-9.027 2.115) rotate(-13.36)" fill="url(#linear-gradient-11)"/>
          </g>
        </g>
        <g id="Grupo_1015622" data-name="Grupo 1015622" transform="translate(179.132 121.817)">
          <g id="Grupo_1015621" data-name="Grupo 1015621" transform="translate(0 0)" clip-path="url(#clip-path-15)">
            <rect id="Rectángulo_345946" data-name="Rectángulo 345946" width="48.35" height="52.856" transform="translate(-14.84 17.363) rotate(-54.26)" fill="url(#linear-gradient-12)"/>
          </g>
        </g>
        <g id="Grupo_1015624" data-name="Grupo 1015624" transform="translate(145.636 129.976)">
          <g id="Grupo_1015623" data-name="Grupo 1015623" transform="translate(0 0)" clip-path="url(#clip-path-16)">
            <rect id="Rectángulo_345947" data-name="Rectángulo 345947" width="71.364" height="57.63" transform="translate(-11.057 3.117) rotate(-15.743)" fill="url(#linear-gradient-13)"/>
          </g>
        </g>
        <g id="Grupo_1015626" data-name="Grupo 1015626" transform="translate(79.953 160.141)">
          <g id="Grupo_1015625" data-name="Grupo 1015625" clip-path="url(#clip-path-17)">
            <rect id="Rectángulo_345948" data-name="Rectángulo 345948" width="41.301" height="47.496" transform="matrix(0.437, -0.899, 0.899, 0.437, -10.841, 21.448)" fill="url(#linear-gradient-14)"/>
          </g>
        </g>
        <g id="Grupo_1015628" data-name="Grupo 1015628" transform="translate(102.34 192.239)">
          <g id="Grupo_1015627" data-name="Grupo 1015627" clip-path="url(#clip-path-18)">
            <path id="Trazado_605891" data-name="Trazado 605891" d="M827.107,322l28.436,13.1,12-21.848-28.436-13.1Z" transform="translate(-833.728 -310.285)" fill="url(#linear-gradient-15)"/>
          </g>
        </g>
        <g id="Grupo_1015630" data-name="Grupo 1015630" transform="translate(96.835 169.824)">
          <g id="Grupo_1015629" data-name="Grupo 1015629" transform="translate(0 0)" clip-path="url(#clip-path-19)">
            <rect id="Rectángulo_345949" data-name="Rectángulo 345949" width="63.835" height="68.303" transform="translate(-14.828 4.18) rotate(-15.743)" fill="url(#linear-gradient-16)"/>
          </g>
        </g>
        <g id="Grupo_1015632" data-name="Grupo 1015632" transform="translate(111.68 198.228)">
          <g id="Grupo_1015631" data-name="Grupo 1015631" clip-path="url(#clip-path-20)">
            <rect id="Rectángulo_345950" data-name="Rectángulo 345950" width="24.985" height="32.858" transform="translate(-5.269 11.885) rotate(-66.144)" fill="url(#linear-gradient-17)"/>
          </g>
        </g>
        <g id="Grupo_1015634" data-name="Grupo 1015634" transform="translate(149.529 52.996)">
          <g id="Grupo_1015633" data-name="Grupo 1015633" transform="translate(0 0)" clip-path="url(#clip-path-21)">
            <rect id="Rectángulo_345951" data-name="Rectángulo 345951" width="26.804" height="29.036" transform="translate(-4.738 20.851) rotate(-77.363)" fill="url(#linear-gradient-18)"/>
          </g>
        </g>
        <g id="Grupo_1015636" data-name="Grupo 1015636" transform="translate(155.122 53.373)">
          <g id="Grupo_1015635" data-name="Grupo 1015635" transform="translate(0 0)" clip-path="url(#clip-path-22)">
            <rect id="Rectángulo_345952" data-name="Rectángulo 345952" width="20.326" height="20.245" transform="translate(-5.736 13.185) rotate(-67.042)" fill="url(#linear-gradient-19)"/>
          </g>
        </g>
        <g id="Grupo_1015638" data-name="Grupo 1015638" transform="translate(145.087 52.403)">
          <g id="Grupo_1015637" data-name="Grupo 1015637" transform="translate(0 0)" clip-path="url(#clip-path-23)">
            <rect id="Rectángulo_345953" data-name="Rectángulo 345953" width="21.404" height="21.532" transform="translate(-4.233 0.999) rotate(-13.68)" fill="url(#linear-gradient-20)"/>
          </g>
        </g>
        <g id="Grupo_1015640" data-name="Grupo 1015640" transform="translate(154.941 191.495)">
          <g id="Grupo_1015639" data-name="Grupo 1015639" transform="translate(0)" clip-path="url(#clip-path-24)">
            <rect id="Rectángulo_345954" data-name="Rectángulo 345954" width="25.286" height="25.066" transform="translate(-8.509 7.143) rotate(-40.662)" fill="url(#linear-gradient-21)"/>
          </g>
        </g>
        <g id="Grupo_1015642" data-name="Grupo 1015642" transform="translate(156.891 193.996)">
          <g id="Grupo_1015641" data-name="Grupo 1015641" transform="translate(0 0)" clip-path="url(#clip-path-25)">
            <path id="Trazado_605899" data-name="Trazado 605899" d="M918.109,312.522l-15.2,4.8,9.356,8.144,15.2-4.8Z" transform="translate(-908.945 -315.415)" fill="url(#linear-gradient-22)"/>
          </g>
        </g>
        <g id="Grupo_1015644" data-name="Grupo 1015644" transform="translate(147.33 191.808)">
          <g id="Grupo_1015643" data-name="Grupo 1015643" transform="translate(0 0)" clip-path="url(#clip-path-26)">
            <rect id="Rectángulo_345955" data-name="Rectángulo 345955" width="17.048" height="13.132" transform="translate(-0.036)" fill="url(#linear-gradient-23)"/>
          </g>
        </g>
        <g id="Grupo_1015646" data-name="Grupo 1015646" transform="translate(99.532 31.533)">
          <g id="Grupo_1015645" data-name="Grupo 1015645" transform="translate(0 0)" clip-path="url(#clip-path-27)">
            <path id="Trazado_605902" data-name="Trazado 605902" d="M822.061,106.955l38.326,12.571L871.749,91.68,833.422,79.109Z" transform="translate(-829.544 -89.32)" fill="url(#linear-gradient-24)"/>
          </g>
        </g>
        <g id="Grupo_1015648" data-name="Grupo 1015648" transform="translate(114.367)">
          <g id="Grupo_1015647" data-name="Grupo 1015647" transform="translate(0)" clip-path="url(#clip-path-28)">
            <path id="Trazado_605904" data-name="Trazado 605904" d="M843.508,49.259l6.957,38.349,33.851-4.5-6.957-38.349Z" transform="translate(-850.226 -48.423)" fill="url(#linear-gradient-25)"/>
          </g>
        </g>
        <g id="Grupo_1015650" data-name="Grupo 1015650" transform="translate(126.158 13.585)">
          <g id="Grupo_1015649" data-name="Grupo 1015649" clip-path="url(#clip-path-29)">
            <rect id="Rectángulo_345956" data-name="Rectángulo 345956" width="50.699" height="30.716" transform="translate(-10.26 44.931) rotate(-77.137)" fill="url(#linear-gradient-26)"/>
          </g>
        </g>
        <g id="Grupo_1015652" data-name="Grupo 1015652" transform="translate(111.369 38.419)">
          <g id="Grupo_1015651" data-name="Grupo 1015651" transform="translate(0 0)" clip-path="url(#clip-path-30)">
            <rect id="Rectángulo_345957" data-name="Rectángulo 345957" width="26.592" height="38.38" transform="translate(-4.842 15.49) rotate(-72.719)" fill="url(#linear-gradient-27)"/>
          </g>
        </g>
        <g id="Grupo_1015654" data-name="Grupo 1015654" transform="translate(143.47 55.115)">
          <g id="Grupo_1015653" data-name="Grupo 1015653" transform="translate(0 0)" clip-path="url(#clip-path-31)">
            <rect id="Rectángulo_345958" data-name="Rectángulo 345958" width="199.523" height="12.326" transform="translate(-7.513 199.2) rotate(-87.842)" fill="url(#linear-gradient-28)"/>
          </g>
        </g>
        <g id="Grupo_1015656" data-name="Grupo 1015656" transform="translate(151.521 105.248)">
          <g id="Grupo_1015655" data-name="Grupo 1015655" transform="translate(0 0)" clip-path="url(#clip-path-32)">
            <rect id="Rectángulo_345959" data-name="Rectángulo 345959" width="55.325" height="52.324" transform="matrix(0.939, -0.344, 0.344, 0.939, -13.447, 4.666)" fill="url(#linear-gradient-29)"/>
          </g>
        </g>
        <g id="Grupo_1015658" data-name="Grupo 1015658" transform="translate(153.676 100.541)">
          <g id="Grupo_1015657" data-name="Grupo 1015657" transform="translate(0 0)" clip-path="url(#clip-path-33)">
            <rect id="Rectángulo_345960" data-name="Rectángulo 345960" width="35.41" height="32.34" transform="translate(-6.159 1.57) rotate(-14.301)" fill="url(#linear-gradient-30)"/>
          </g>
        </g>
        <g id="Grupo_1015660" data-name="Grupo 1015660" transform="translate(148.891 103.205)">
          <g id="Grupo_1015659" data-name="Grupo 1015659" transform="translate(0 0)" clip-path="url(#clip-path-34)">
            <rect id="Rectángulo_345961" data-name="Rectángulo 345961" width="23.312" height="12.618" transform="translate(-0.096 0)" fill="url(#linear-gradient-31)"/>
          </g>
        </g>
        <g id="Grupo_1015662" data-name="Grupo 1015662" transform="translate(101.092 147.793)">
          <g id="Grupo_1015661" data-name="Grupo 1015661" clip-path="url(#clip-path-35)">
            <rect id="Rectángulo_345962" data-name="Rectángulo 345962" width="47.602" height="51.836" transform="translate(-7.292 38.515) rotate(-79.287)" fill="url(#linear-gradient-32)"/>
          </g>
        </g>
        <g id="Grupo_1015664" data-name="Grupo 1015664" transform="translate(111.067 147.656)">
          <g id="Grupo_1015663" data-name="Grupo 1015663" transform="translate(0 0)" clip-path="url(#clip-path-36)">
            <rect id="Rectángulo_345963" data-name="Rectángulo 345963" width="31.407" height="30.374" transform="matrix(0.981, -0.193, 0.193, 0.981, -4.855, 0.954)" fill="url(#linear-gradient-33)"/>
          </g>
        </g>
        <g id="Grupo_1015666" data-name="Grupo 1015666" transform="translate(122.235 147.92)">
          <g id="Grupo_1015665" data-name="Grupo 1015665" transform="translate(0 0)" clip-path="url(#clip-path-37)">
            <rect id="Rectángulo_345964" data-name="Rectángulo 345964" width="23.787" height="12.864" transform="translate(-0.093 0)" fill="url(#linear-gradient-34)"/>
          </g>
        </g>
        <g id="Grupo_1015668" data-name="Grupo 1015668" transform="translate(179.108 49.895)">
          <g id="Grupo_1015667" data-name="Grupo 1015667" transform="translate(0 0)" clip-path="url(#clip-path-38)">
            <rect id="Rectángulo_345965" data-name="Rectángulo 345965" width="54.925" height="56.753" transform="translate(-18.016 17.124) rotate(-48.927)" fill="url(#linear-gradient-35)"/>
          </g>
        </g>
        <g id="Grupo_1015670" data-name="Grupo 1015670" transform="translate(181.927 80.449)">
          <g id="Grupo_1015669" data-name="Grupo 1015669" transform="translate(0 0)" clip-path="url(#clip-path-39)">
            <path id="Trazado_605916" data-name="Trazado 605916" d="M984.69,186.633l-41.907.641L940.455,160.2l41.907-.641Z" transform="translate(-944.215 -160.169)" fill="url(#linear-gradient-36)"/>
          </g>
        </g>
        <g id="Grupo_1015672" data-name="Grupo 1015672" transform="translate(144.673 59.502)">
          <g id="Grupo_1015671" data-name="Grupo 1015671" transform="translate(0 0)" clip-path="url(#clip-path-40)">
            <rect id="Rectángulo_345966" data-name="Rectángulo 345966" width="75.718" height="72.943" transform="translate(-16.781 57.67) rotate(-74.257)" fill="url(#linear-gradient-37)"/>
          </g>
        </g>
        <g id="Grupo_1015674" data-name="Grupo 1015674" transform="translate(158.868 85.898)">
          <g id="Grupo_1015673" data-name="Grupo 1015673" transform="translate(0 0)" clip-path="url(#clip-path-41)">
            <rect id="Rectángulo_345967" data-name="Rectángulo 345967" width="45.697" height="8.646" transform="translate(-0.075)" fill="url(#linear-gradient-38)"/>
          </g>
        </g>
        <g id="Grupo_1015676" data-name="Grupo 1015676" transform="translate(177.976 155.656)">
          <g id="Grupo_1015675" data-name="Grupo 1015675" clip-path="url(#clip-path-42)">
            <rect id="Rectángulo_345968" data-name="Rectángulo 345968" width="49.886" height="52.442" transform="translate(-15.081 14.489) rotate(-49.586)" fill="url(#linear-gradient-39)"/>
          </g>
        </g>
        <g id="Grupo_1015678" data-name="Grupo 1015678" transform="translate(144.405 159.709)">
          <g id="Grupo_1015677" data-name="Grupo 1015677" transform="translate(0 0)" clip-path="url(#clip-path-43)">
            <rect id="Rectángulo_345969" data-name="Rectángulo 345969" width="74.157" height="73.289" transform="matrix(0.937, -0.348, 0.348, 0.937, -18.573, 6.863)" fill="url(#linear-gradient-40)"/>
          </g>
        </g>
        <g id="Grupo_1015680" data-name="Grupo 1015680" transform="translate(168.447 171.696)">
          <g id="Grupo_1015679" data-name="Grupo 1015679" transform="translate(0 0)" clip-path="url(#clip-path-44)">
            <path id="Trazado_605922" data-name="Trazado 605922" d="M944.67,313.508,920,303.236l6.914-28.692,24.668,10.272Z" transform="translate(-925.159 -282.761)" fill="url(#linear-gradient-41)"/>
          </g>
        </g>
        <g id="Grupo_1015682" data-name="Grupo 1015682" transform="translate(153.098 171.779)">
          <g id="Grupo_1015681" data-name="Grupo 1015681" transform="translate(0)" clip-path="url(#clip-path-45)">
            <rect id="Rectángulo_345970" data-name="Rectángulo 345970" width="23.515" height="34.17" transform="translate(-4.27 13.917) rotate(-73.225)" fill="url(#linear-gradient-42)"/>
          </g>
        </g>
        <g id="Grupo_1015684" data-name="Grupo 1015684" transform="translate(110.11 67.117)">
          <g id="Grupo_1015683" data-name="Grupo 1015683" transform="translate(0 0)" clip-path="url(#clip-path-46)">
            <rect id="Rectángulo_345971" data-name="Rectángulo 345971" width="32.673" height="36.255" transform="matrix(0.072, -0.997, 0.997, 0.072, -2.476, 30.126)" fill="url(#linear-gradient-43)"/>
          </g>
        </g>
        <g id="Grupo_1015686" data-name="Grupo 1015686" transform="translate(118.747 63.501)">
          <g id="Grupo_1015685" data-name="Grupo 1015685" transform="translate(0 0)" clip-path="url(#clip-path-47)">
            <rect id="Rectángulo_345972" data-name="Rectángulo 345972" width="24.836" height="27.194" transform="matrix(0.247, -0.969, 0.969, 0.247, -4.73, 18.555)" fill="url(#linear-gradient-44)"/>
          </g>
        </g>
        <g id="Grupo_1015688" data-name="Grupo 1015688" transform="translate(127.52 65.377)">
          <g id="Grupo_1015687" data-name="Grupo 1015687" transform="translate(0 0)" clip-path="url(#clip-path-48)">
            <rect id="Rectángulo_345973" data-name="Rectángulo 345973" width="18.286" height="10.031" transform="translate(-0.093 0)" fill="url(#linear-gradient-45)"/>
          </g>
        </g>
        <g id="Grupo_1015690" data-name="Grupo 1015690" transform="translate(234.367 173.085)">
          <g id="Grupo_1015689" data-name="Grupo 1015689" transform="translate(0 0)" clip-path="url(#clip-path-49)">
            <rect id="Rectángulo_345974" data-name="Rectángulo 345974" width="10.922" height="8.291" transform="translate(-1.284 0.268) rotate(-11.792)" fill="url(#linear-gradient-46)"/>
          </g>
        </g>
        <g id="Grupo_1015692" data-name="Grupo 1015692" transform="translate(241.683 161.569)">
          <g id="Grupo_1015691" data-name="Grupo 1015691" transform="translate(0 0)" clip-path="url(#clip-path-50)">
            <rect id="Rectángulo_345975" data-name="Rectángulo 345975" width="20.317" height="20.567" transform="translate(-6.678 8.122) rotate(-50.572)" fill="url(#linear-gradient-47)"/>
          </g>
        </g>
        <g id="Grupo_1015696" data-name="Grupo 1015696" transform="translate(182.641 181.915)">
          <g id="Grupo_1015695" data-name="Grupo 1015695" transform="translate(0 0)" clip-path="url(#clip-path-51)">
            <rect id="Rectángulo_345977" data-name="Rectángulo 345977" width="56.983" height="51.698" transform="matrix(0.847, -0.532, 0.532, 0.847, -13.971, 8.784)" fill="url(#linear-gradient-48)"/>
          </g>
        </g>
        <g id="Grupo_1015698" data-name="Grupo 1015698" transform="translate(227.212 171.965)">
          <g id="Grupo_1015697" data-name="Grupo 1015697" transform="translate(0)" clip-path="url(#clip-path-52)">
            <rect id="Rectángulo_345979" data-name="Rectángulo 345979" width="23.969" height="25.685" transform="matrix(0.597, -0.803, 0.803, 0.597, -6.603, 8.745)" fill="url(#linear-gradient-49)"/>
          </g>
        </g>
        <g id="Grupo_1015700" data-name="Grupo 1015700" transform="translate(176.88 208.48)">
          <g id="Grupo_1015699" data-name="Grupo 1015699" transform="translate(0 0)" clip-path="url(#clip-path-53)">
            <rect id="Rectángulo_345980" data-name="Rectángulo 345980" width="14.339" height="13.584" transform="matrix(0.847, -0.532, 0.532, 0.847, -4.022, 2.529)" fill="url(#linear-gradient-50)"/>
          </g>
        </g>
        <g id="Grupo_1015702" data-name="Grupo 1015702" transform="translate(224.302 279.431)">
          <g id="Grupo_1015701" data-name="Grupo 1015701" transform="translate(0 0)" clip-path="url(#clip-path-54)">
            <rect id="Rectángulo_345981" data-name="Rectángulo 345981" width="24.455" height="27.896" transform="translate(-5.829 8.223) rotate(-55.458)" fill="url(#linear-gradient-51)"/>
          </g>
        </g>
        <g id="Grupo_1015704" data-name="Grupo 1015704" transform="translate(242.666 276.193)">
          <g id="Grupo_1015703" data-name="Grupo 1015703" transform="translate(0)" clip-path="url(#clip-path-55)">
            <rect id="Rectángulo_345982" data-name="Rectángulo 345982" width="6.352" height="7.382" fill="url(#linear-gradient-52)"/>
          </g>
        </g>
        <g id="Grupo_1015706" data-name="Grupo 1015706" transform="translate(263.04 281.618)">
          <g id="Grupo_1015705" data-name="Grupo 1015705" transform="translate(0 0)" clip-path="url(#clip-path-56)">
            <rect id="Rectángulo_345983" data-name="Rectángulo 345983" width="14.374" height="14.434" transform="translate(-4.895 6.948) rotate(-55.458)" fill="url(#linear-gradient-53)"/>
          </g>
        </g>
        <g id="Grupo_1015708" data-name="Grupo 1015708" transform="translate(266.426 274.873)">
          <g id="Grupo_1015707" data-name="Grupo 1015707" transform="translate(0 0)" clip-path="url(#clip-path-57)">
            <rect id="Rectángulo_345984" data-name="Rectángulo 345984" width="5.484" height="8.901" transform="translate(0 0)" fill="url(#linear-gradient-54)"/>
          </g>
        </g>
        <g id="Grupo_1015710" data-name="Grupo 1015710" transform="translate(259.964 120.85)">
          <g id="Grupo_1015709" data-name="Grupo 1015709" transform="translate(0)" clip-path="url(#clip-path-58)">
            <rect id="Rectángulo_345985" data-name="Rectángulo 345985" width="23.283" height="25.848" transform="translate(-4.69 5.924) rotate(-51.633)" fill="#636363"/>
          </g>
        </g>
        <g id="Grupo_1015712" data-name="Grupo 1015712" transform="translate(256.382 126.404)">
          <g id="Grupo_1015711" data-name="Grupo 1015711" transform="translate(0 0)" clip-path="url(#clip-path-59)">
            <rect id="Rectángulo_345986" data-name="Rectángulo 345986" width="74.815" height="66.942" transform="matrix(0.51, -0.86, 0.86, 0.51, -27.649, 46.599)" fill="#636363"/>
          </g>
        </g>
        <g id="Grupo_1015714" data-name="Grupo 1015714" transform="translate(242.039 174.42)">
          <g id="Grupo_1015713" data-name="Grupo 1015713" transform="translate(0)" clip-path="url(#clip-path-60)">
            <rect id="Rectángulo_345987" data-name="Rectángulo 345987" width="56.584" height="114.215" transform="matrix(0.985, -0.173, 0.173, 0.985, -18.803, 3.268)" fill="url(#linear-gradient-55)"/>
          </g>
        </g>
        <g id="Grupo_1015716" data-name="Grupo 1015716" transform="translate(242.062 131.705)">
          <g id="Grupo_1015715" data-name="Grupo 1015715" transform="translate(0 0)" clip-path="url(#clip-path-61)">
            <rect id="Rectángulo_345988" data-name="Rectángulo 345988" width="57.829" height="53.204" transform="matrix(0.499, -0.866, 0.866, 0.499, -20.587, 35.247)" fill="url(#linear-gradient-56)"/>
          </g>
        </g>
        <g id="Grupo_1015718" data-name="Grupo 1015718" transform="translate(245.68 171.275)">
          <g id="Grupo_1015717" data-name="Grupo 1015717" transform="translate(0 0)" clip-path="url(#clip-path-62)">
            <rect id="Rectángulo_345989" data-name="Rectángulo 345989" width="85.798" height="85.521" transform="matrix(0.669, -0.743, 0.743, 0.669, -31.081, 34.55)" fill="url(#linear-gradient-57)"/>
          </g>
        </g>
        <g id="Grupo_1015720" data-name="Grupo 1015720" transform="translate(267.842 159.577)">
          <g id="Grupo_1015719" data-name="Grupo 1015719" clip-path="url(#clip-path-63)">
            <rect id="Rectángulo_345990" data-name="Rectángulo 345990" width="14.056" height="14.282" transform="matrix(0.635, -0.772, 0.772, 0.635, -4.534, 5.515)" fill="#545454"/>
          </g>
        </g>
        <g id="Grupo_1015722" data-name="Grupo 1015722" transform="translate(247.929 122.986)">
          <g id="Grupo_1015721" data-name="Grupo 1015721" clip-path="url(#clip-path-64)">
            <rect id="Rectángulo_345991" data-name="Rectángulo 345991" width="13.409" height="16.608" transform="translate(-2.929 0.606) rotate(-11.691)" fill="url(#linear-gradient-58)"/>
          </g>
        </g>
        <g id="Grupo_1015724" data-name="Grupo 1015724" transform="translate(240.957 114.96)">
          <g id="Grupo_1015723" data-name="Grupo 1015723" transform="translate(0 0)" clip-path="url(#clip-path-65)">
            <rect id="Rectángulo_345992" data-name="Rectángulo 345992" width="24.002" height="21.688" transform="translate(-8.335 15.174) rotate(-61.221)" fill="url(#linear-gradient-59)"/>
          </g>
        </g>
        <g id="Grupo_1015726" data-name="Grupo 1015726" transform="translate(236.711 107.616)">
          <g id="Grupo_1015725" data-name="Grupo 1015725" transform="translate(0 0)" clip-path="url(#clip-path-66)">
            <rect id="Rectángulo_345993" data-name="Rectángulo 345993" width="28.045" height="32.41" transform="translate(-8.252 16.294) rotate(-68.143)" fill="url(#linear-gradient-60)"/>
          </g>
        </g>
        <g id="Grupo_1015728" data-name="Grupo 1015728" transform="translate(251.856 119.679)">
          <g id="Grupo_1015727" data-name="Grupo 1015727" transform="translate(0 0)" clip-path="url(#clip-path-67)">
            <rect id="Rectángulo_345994" data-name="Rectángulo 345994" width="6.434" height="6.289" transform="translate(-2.054 3.74) rotate(-61.221)" fill="url(#linear-gradient-61)"/>
          </g>
        </g>
        <g id="Grupo_1015730" data-name="Grupo 1015730" transform="translate(226.993 109.902)">
          <g id="Grupo_1015729" data-name="Grupo 1015729" transform="translate(0 0)" clip-path="url(#clip-path-68)">
            <rect id="Rectángulo_345995" data-name="Rectángulo 345995" width="40.27" height="35.377" transform="matrix(0.775, -0.632, 0.632, 0.775, -4.807, 3.908)" fill="#a4905a"/>
          </g>
        </g>
        <g id="Grupo_1015732" data-name="Grupo 1015732" transform="translate(237.454 101.653)">
          <g id="Grupo_1015731" data-name="Grupo 1015731" transform="translate(0 0)" clip-path="url(#clip-path-69)">
            <rect id="Rectángulo_345996" data-name="Rectángulo 345996" width="18.326" height="23.815" transform="translate(-2.314 15.102) rotate(-81.92)" fill="#a4905a"/>
          </g>
        </g>
        <g id="Grupo_1015734" data-name="Grupo 1015734" transform="translate(232.044 173.545)">
          <g id="Grupo_1015733" data-name="Grupo 1015733" transform="translate(0)" clip-path="url(#clip-path-70)">
            <rect id="Rectángulo_345997" data-name="Rectángulo 345997" width="16.167" height="17.325" transform="translate(-4.555 6.435) rotate(-54.85)" fill="url(#linear-gradient-62)"/>
          </g>
        </g>
        <g id="Grupo_1015736" data-name="Grupo 1015736" transform="translate(242.206 138.371)">
          <g id="Grupo_1015735" data-name="Grupo 1015735" transform="translate(0 0)" clip-path="url(#clip-path-71)">
            <rect id="Rectángulo_345998" data-name="Rectángulo 345998" width="49.077" height="42.863" transform="translate(-13.721 36.194) rotate(-69.876)" fill="url(#linear-gradient-63)"/>
          </g>
        </g>
        <g id="Grupo_1015738" data-name="Grupo 1015738" transform="translate(258.82 133.933)">
          <g id="Grupo_1015737" data-name="Grupo 1015737" transform="translate(0)" clip-path="url(#clip-path-72)">
            <rect id="Rectángulo_345999" data-name="Rectángulo 345999" width="19.198" height="18.53" transform="translate(-7.957 9.448) rotate(-50.572)" fill="#545454"/>
          </g>
        </g>
      </g>
    </g>
  </g>
</svg>
