<svg xmlns="http://www.w3.org/2000/svg" width="83" height="83" viewBox="0 0 83 83">
  <g id="Grupo_1069959" data-name="Grupo 1069959" transform="translate(-180 -2968)">
    <circle id="Elipse_4705" data-name="Elipse 4705" cx="41.5" cy="41.5" r="41.5" transform="translate(180 2968)" fill="#3b5620"/>
    <g id="Grupo_261845" data-name="Grupo 261845" transform="translate(-376.145 -297.389)">
      <path id="Trazado_280040" data-name="Trazado 280040" d="M33.872,639.856c-.977.072-1.421-.914-.872-1.8a4.808,4.808,0,0,1,3.335-2.076,7.417,7.417,0,0,1,5.1.73,18.045,18.045,0,0,1,2.2,1.642l3.837-1.124a.857.857,0,0,0,.174.012c1.953-.231,3.9-.5,5.862-.68a11.431,11.431,0,0,1,2.2.1c1.312.133,2.621.3,3.93.465.514.066,1.024.169,1.664.277a7.575,7.575,0,0,0-2.992-2.73,10.858,10.858,0,0,0-6.4-1.19,4.974,4.974,0,0,0-2.845,1.165.975.975,0,0,1-1.343-.005,1,1,0,0,1,.063-1.535,6.12,6.12,0,0,1,3.571-1.593,12.813,12.813,0,0,1,7.949,1.433,10.05,10.05,0,0,1,4.349,4.519,1.765,1.765,0,0,0,1.049,1.005,31.838,31.838,0,0,1,7.805,3.929c1.343.937,2.638,1.947,3.909,2.98a23.631,23.631,0,0,1,2.2,2.079,5.5,5.5,0,0,1,1.487,3.373A6.075,6.075,0,0,1,78,656.077a40.312,40.312,0,0,1-8.481,6.171,31.838,31.838,0,0,1-6.711,2.823.825.825,0,0,0-.193.12,2.449,2.449,0,0,0-.333.027q-1.534.334-3.069.678a.7.7,0,0,1-.2.085c-1.706.125-3.411.306-5.119.345a36.772,36.772,0,0,1-3.687-.22c-.582-.045-1.158-.152-1.734-.23a2.605,2.605,0,0,0,1.608,3.052,8.252,8.252,0,0,0,5.619.246c.882-.322,1.787-.592,2.637-.983a1.421,1.421,0,0,1,1.686.155c.178.977.062,1.135-.861,1.655a11.993,11.993,0,0,1-7.284,1.472c-2.143-.226-4.1-.982-5.107-3.178a5.313,5.313,0,0,1-.34-2.415c.007-.349-.03-.538-.473-.617-.679-.121-1.322-.434-2-.6a.914.914,0,0,0-.747.176,6.642,6.642,0,0,1-3.463,2,6.6,6.6,0,0,1-5.989-1.158c-.842-.718-.794-1.181,0-1.912a1.623,1.623,0,0,1,1.37.443,5.144,5.144,0,0,0,1.314.618,3.752,3.752,0,0,0,.735.21,5.417,5.417,0,0,0,5.044-2.112,1.083,1.083,0,0,1,1.3-.574,4.106,4.106,0,0,1,.58.226,32.313,32.313,0,0,0,6.555,1.547,21.276,21.276,0,0,0,5.365.094c1.733-.248,3.466-.505,5.185-.833.92-.175,1.809-.507,2.655-.752-.416-1.2-.8-2.3-1.186-3.4-.059-.218-.124-.435-.177-.654q-.309-1.284-.613-2.569c-.043-.506-.086-1.012-.134-1.564a9.272,9.272,0,0,1-1.073.124c-1.2,0-2.4.01-3.6-.045-.759-.035-1.51-.2-2.268-.264a.665.665,0,0,0-.754.783,5.461,5.461,0,0,0,.207.86,4.526,4.526,0,0,0,1.078,2.286,3.681,3.681,0,0,0,3.733,1.36c.972-.187,1.514-.168,1.8.569-.052,1.006-.281,1.307-1.27,1.393a10.735,10.735,0,0,1-2.343,0,5.386,5.386,0,0,1-3.416-1.921,8.185,8.185,0,0,1-1.626-3.352,3.215,3.215,0,0,1,.429-2.947,2.47,2.47,0,0,1,2.478-1.037,23.116,23.116,0,0,0,2.611.344c1.254.059,2.513.015,3.761.015.083-1.535.157-2.917.236-4.4-1.02.1-2.049.221-3.083.289-2.082.135-4.166.279-6.251.345-1.817.058-3.637.028-5.455.008s-3.66-.041-5.487-.124c-1.4-.063-2.8-.248-4.208-.332-.855-.051-1.225-.317-1.4-1.181a1.149,1.149,0,0,1,1.429-.829c.652.07,1.309.086,1.965.126,1.908.116,3.817.331,5.726.328,3.535,0,7.071-.121,10.606-.219,1.428-.04,2.854-.138,4.28-.234a19.359,19.359,0,0,0,1.933-.24.569.569,0,0,0,.356-.348c.175-.615.307-1.243.454-1.867.183-.924.379-1.069,1.417-1.053a1.066,1.066,0,0,1,.6,1.236c-.054.255-.137.5-.206.755a26.2,26.2,0,0,0-.828,7.3,33.029,33.029,0,0,0,.461,4.1A20.1,20.1,0,0,0,65.6,661.43c.163.357.342.405.666.227,1.66-.912,3.361-1.756,4.977-2.74,1.1-.669,2.082-1.528,3.117-2.3.932-.841,1.888-1.658,2.79-2.531a3.947,3.947,0,0,0,.627-4.326,10.4,10.4,0,0,0-3.091-3.254,48.986,48.986,0,0,0-5.361-3.724,46.071,46.071,0,0,0-4.476-2.107,1.814,1.814,0,0,0-.248-.141,28.121,28.121,0,0,0-8.954-1.866,29.323,29.323,0,0,0-6.657.358,27.9,27.9,0,0,0-5.858,1.728c-1.8.895-3.669,1.686-5.393,2.715-1.679,1-3.213,2.251-4.811,3.391-.087.075-.172.151-.26.224-1.108.929-1.288.949-2.191.25-.516-.491-1.039-.976-1.547-1.475a10.711,10.711,0,0,0-4.99-2.716c-1.01-.256-1.712.158-1.78,1.029a.712.712,0,0,0-.017.232c.388,1.405.706,2.836,1.194,4.206a7.154,7.154,0,0,1,.325,4.558c-.49,1.658-1,3.312-1.475,4.973a1.217,1.217,0,0,0,1.438,1.626,10.8,10.8,0,0,0,4.978-2.523c.71-.629,1.413-1.265,2.123-1.893a.967.967,0,0,1,1.224-.113,4.579,4.579,0,0,1,.638.493,36.98,36.98,0,0,0,5.678,4.046,1.234,1.234,0,0,1,.75,1.406,1.082,1.082,0,0,1-1.651.387c-.666-.376-1.31-.79-1.964-1.188L31.448,657.5c-1.123.87-2.2,1.83-3.4,2.6a10,10,0,0,1-4.761,1.677,3.145,3.145,0,0,1-2.982-2.14,2.258,2.258,0,0,0-.161-.337v-1.525c.038-.036.1-.066.111-.109.39-1.355.769-2.713,1.165-4.066a5.186,5.186,0,0,0,.367-3.171c-.194-.593-.4-1.182-.579-1.78-.363-1.218-.71-2.441-1.064-3.662v-1.526a8.805,8.805,0,0,1,1.193-1.737c.982-.883,2.2-.712,3.377-.433a12.068,12.068,0,0,1,5.515,3.043,6.1,6.1,0,0,1,.737.641c.325.424.622.378,1,.092,1.139-.862,2.289-1.709,3.435-2.562.109-.071.214-.148.327-.213l4.492-2.578,1.3-.5a3.779,3.779,0,0,0-2.042-1.141,6.622,6.622,0,0,0-1.6-.155,14.15,14.15,0,0,0-1.543.167,2.374,2.374,0,0,0-1.661,1.121c-.153.277-.531.431-.806.641" transform="translate(548 2655)" fill="#010101"/>
      <path id="Trazado_280041" data-name="Trazado 280041" d="M20.146,658.251v0Z" transform="translate(548 2655)" fill="#1e1e1e"/>
      <path id="Trazado_280042" data-name="Trazado 280042" d="M47.729,634.65a.974.974,0,0,0,1.342.005,4.974,4.974,0,0,1,2.846-1.165,10.856,10.856,0,0,1,6.4,1.19,7.575,7.575,0,0,1,2.992,2.73c-.639-.108-1.149-.211-1.664-.277-1.308-.166-2.617-.332-3.929-.465a11.442,11.442,0,0,0-2.2-.1c-1.958.183-3.908.449-5.862.68a.862.862,0,0,1-.174-.012c.035-.656.061-1.314.109-1.97a4.042,4.042,0,0,1,.142-.612" transform="translate(548 2655)" fill="#d9ebfc"/>
      <path id="Trazado_280043" data-name="Trazado 280043" d="M35.4,660.381c.654.4,1.3.812,1.964,1.188a1.083,1.083,0,0,0,1.651-.387,2.413,2.413,0,0,0,.409.365c.527.286,1.067.547,1.6.818-.188.166-.388.32-.562.5a5.983,5.983,0,0,1-2.472,1.58c-.505.165-1.031.264-1.547.393a5.11,5.11,0,0,1-1.314-.617,1.626,1.626,0,0,0-1.37-.444c.207-.51.387-1.034.629-1.528.311-.635.671-1.246,1.01-1.868" transform="translate(548 2655)" fill="#cbe3f9"/>
      <path id="Trazado_280044" data-name="Trazado 280044" d="M40.221,639.722q-2.247,1.289-4.493,2.578c-.112.064-.218.141-.326.213l-1.529-2.656c.275-.21.653-.364.805-.642a2.376,2.376,0,0,1,1.662-1.12,1.786,1.786,0,0,0,.474.19,6.681,6.681,0,0,1,3.407,1.437" transform="translate(548 2655)" fill="#cbe3f9"/>
      <path id="Trazado_280045" data-name="Trazado 280045" d="M59.215,665.9q1.534-.34,3.069-.678a2.294,2.294,0,0,1,.333-.027,14.169,14.169,0,0,1-1.1,1.8,12.668,12.668,0,0,1-1.5,1.352,1.421,1.421,0,0,0-1.686-.155c-.85.391-1.755.661-2.637.983a8.5,8.5,0,0,1,.927-.876,7.65,7.65,0,0,0,2.59-2.4" transform="translate(548 2655)" fill="#edf6fe"/>
      <path id="Trazado_280046" data-name="Trazado 280046" d="M41.027,662.365c-.535-.271-1.075-.532-1.6-.818a2.375,2.375,0,0,1-.409-.365,1.234,1.234,0,0,0-.751-1.406,36.989,36.989,0,0,1-5.677-4.046,4.443,4.443,0,0,0-.639-.493.964.964,0,0,0-1.224.113c-.71.628-1.413,1.264-2.123,1.893a10.8,10.8,0,0,1-4.977,2.523,1.218,1.218,0,0,1-1.439-1.627c.48-1.661.985-3.314,1.475-4.972a7.157,7.157,0,0,0-.325-4.559c-.487-1.37-.806-2.8-1.193-4.206a.687.687,0,0,1,.016-.232c.548.181,1.114.319,1.64.549a14.846,14.846,0,0,1,4.052,2.886,1.5,1.5,0,0,0,2.378-.034c.079-.083.165-.159.248-.238.9.7,1.083.678,2.19-.25.088-.074.174-.15.26-.225l2.919.366c.179.865.55,1.131,1.4,1.182,1.4.083,2.8.268,4.207.332,1.827.083,3.658.1,5.487.124s3.639.049,5.455-.008c2.086-.066,4.169-.21,6.252-.346,1.033-.067,2.063-.191,3.083-.288-.08,1.482-.154,2.864-.236,4.4-1.249,0-2.508.044-3.762-.015a23.571,23.571,0,0,1-2.611-.344A2.467,2.467,0,0,0,52.65,653.3a3.21,3.21,0,0,0-.429,2.946,8.2,8.2,0,0,0,1.625,3.353,5.386,5.386,0,0,0,3.416,1.921,10.858,10.858,0,0,0,2.343,0c.989-.087,1.218-.387,1.271-1.393l1.805-.886,1.187,3.4c-.847.245-1.736.577-2.655.753-1.719.327-3.452.584-5.185.833a21.367,21.367,0,0,1-5.365-.094,32.24,32.24,0,0,1-6.556-1.548,4.054,4.054,0,0,0-.58-.225,1.081,1.081,0,0,0-1.3.574l-1.2-.572" transform="translate(548 2655)" fill="#fff0a6"/>
      <path id="Trazado_280047" data-name="Trazado 280047" d="M35.847,647.224l-2.919-.366c1.6-1.14,3.132-2.387,4.812-3.39,1.723-1.03,3.589-1.821,5.393-2.716.311.617.838.653,1.444.583a41.58,41.58,0,0,1,4.343-.416,39.066,39.066,0,0,1,4.473.325,26.727,26.727,0,0,1,6.546,1.651c.891.334,1.772.7,2.657,1.046-.147.624-.279,1.252-.454,1.867a.569.569,0,0,1-.356.348,19.359,19.359,0,0,1-1.933.24c-1.425.1-2.852.2-4.28.234-3.535.1-7.07.215-10.606.22-1.909,0-3.817-.213-5.726-.329-.655-.04-1.313-.056-1.965-.126a1.149,1.149,0,0,0-1.429.829" transform="translate(548 2655)" fill="#ffe773"/>
      <path id="Trazado_280048" data-name="Trazado 280048" d="M74.36,656.615c-1.035.774-2.018,1.633-3.118,2.3-1.615.984-3.316,1.828-4.976,2.74-.325.178-.5.13-.666-.228a20.039,20.039,0,0,1-1.565-5.143,32.835,32.835,0,0,1-.461-4.106,26.233,26.233,0,0,1,.827-7.3l4.557,2.7c0,.717-.013,1.435,0,2.152a.845.845,0,0,0,.664.883.9.9,0,0,0,1.212-.621,6.052,6.052,0,0,0,.136-.776,23.516,23.516,0,0,1,1.929,1.8,4.936,4.936,0,0,1,1.273,4.722c-.068.258.122.584.193.879" transform="translate(548 2655)" fill="#fff8d6"/>
      <path id="Trazado_280049" data-name="Trazado 280049" d="M74.36,656.615c-.071-.295-.261-.621-.193-.879a4.936,4.936,0,0,0-1.273-4.722,23.516,23.516,0,0,0-1.929-1.8c-.007-.329-.023-.658-.018-.987.008-.528-.109-1.019-.652-1.2a1.029,1.029,0,0,0-1.337.552l-4.557-2.7c.07-.252.153-.5.207-.755a1.066,1.066,0,0,0-.6-1.236q.418-1.109.836-2.216a46.215,46.215,0,0,1,4.477,2.108,49.083,49.083,0,0,1,5.361,3.724,10.385,10.385,0,0,1,3.091,3.254,3.949,3.949,0,0,1-.627,4.326c-.9.873-1.858,1.69-2.79,2.531" transform="translate(548 2655)" fill="#fffdf2"/>
      <path id="Trazado_280050" data-name="Trazado 280050" d="M64.849,640.673q-.418,1.107-.836,2.215c-1.038-.015-1.233.13-1.417,1.053-.885-.349-1.765-.712-2.657-1.046a26.727,26.727,0,0,0-6.546-1.651,39.049,39.049,0,0,0-4.473-.325,41.846,41.846,0,0,0-4.343.416c-.606.07-1.133.034-1.444-.583a27.942,27.942,0,0,1,5.858-1.727,29.258,29.258,0,0,1,6.657-.359,28.094,28.094,0,0,1,8.953,1.867,1.784,1.784,0,0,1,.248.14" transform="translate(548 2655)" fill="#fff0a6"/>
      <path id="Trazado_280051" data-name="Trazado 280051" d="M59.215,665.9a7.65,7.65,0,0,1-2.59,2.4,8.5,8.5,0,0,0-.927.876,8.258,8.258,0,0,1-5.619-.246,2.606,2.606,0,0,1-1.608-3.053c.576.079,1.152.185,1.734.231a36.483,36.483,0,0,0,3.687.219c1.708-.038,3.413-.219,5.119-.344a.726.726,0,0,0,.2-.085" transform="translate(548 2655)" fill="#cbe3fa"/>
      <path id="Trazado_280052" data-name="Trazado 280052" d="M62.681,659.242l-1.806.886c-.282-.737-.824-.757-1.8-.569a3.682,3.682,0,0,1-3.733-1.36,4.517,4.517,0,0,1-1.077-2.286,6.363,6.363,0,0,1,1.18-.138c1.529.1,3.054.264,4.584.351a15.283,15.283,0,0,0,1.859-.107q.306,1.284.614,2.568c.053.22.117.437.176.655" transform="translate(548 2655)" fill="#cbe3f9"/>
      <path id="Trazado_280053" data-name="Trazado 280053" d="M30.478,647.333c-.083.079-.169.155-.248.238a1.5,1.5,0,0,1-2.378.034,14.857,14.857,0,0,0-4.051-2.886c-.526-.23-1.093-.368-1.641-.549.069-.87.771-1.284,1.78-1.028a10.7,10.7,0,0,1,4.99,2.715c.509.5,1.032.985,1.548,1.476" transform="translate(548 2655)" fill="#fef7d5"/>
      <path id="Trazado_280054" data-name="Trazado 280054" d="M61.891,656.019a15.509,15.509,0,0,1-1.859.108c-1.53-.088-3.055-.254-4.584-.352a6.383,6.383,0,0,0-1.181.138,5.461,5.461,0,0,1-.207-.86.665.665,0,0,1,.754-.783c.758.061,1.509.229,2.267.264,1.2.055,2.4.048,3.6.045a9.272,9.272,0,0,0,1.073-.124c.047.552.091,1.058.134,1.564" transform="translate(548 2655)" fill="#edf7ff"/>
      <path id="Trazado_280055" data-name="Trazado 280055" d="M41.027,662.365l1.2.572a5.421,5.421,0,0,1-5.043,2.112,3.7,3.7,0,0,1-.736-.211c.517-.129,1.043-.228,1.548-.393a6,6,0,0,0,2.472-1.58c.173-.18.373-.334.561-.5" transform="translate(548 2655)" fill="#edf6fe"/>
      <path id="Trazado_280056" data-name="Trazado 280056" d="M40.221,639.722a6.681,6.681,0,0,0-3.407-1.437,1.786,1.786,0,0,1-.474-.19,14.424,14.424,0,0,1,1.542-.168,6.679,6.679,0,0,1,1.6.156,3.78,3.78,0,0,1,2.042,1.14l-1.3.5" transform="translate(548 2655)" fill="#ecf6fe"/>
      <path id="Trazado_280057" data-name="Trazado 280057" d="M68.959,647.579a1.029,1.029,0,0,1,1.336-.552c.543.183.661.674.653,1.2,0,.328.011.658.017.987a6.047,6.047,0,0,1-.135.776.9.9,0,0,1-1.213.621.846.846,0,0,1-.663-.883c-.008-.717,0-1.435,0-2.152" transform="translate(548 2655)" fill="#010101"/>
    </g>
  </g>
</svg>
