<svg xmlns="http://www.w3.org/2000/svg" width="83" height="83" viewBox="0 0 83 83">
  <g id="Grupo_1069954" data-name="Grupo 1069954" transform="translate(-600 -2968)">
    <circle id="Elipse_4706" data-name="Elipse 4706" cx="41.5" cy="41.5" r="41.5" transform="translate(600 2968)" fill="#3b5620"/>
    <g id="Grupo_261846" data-name="Grupo 261846" transform="translate(43.855 -398.229)">
      <path id="Trazado_280058" data-name="Trazado 280058" d="M45.353,735.807c.138-.721.444-.981,1.115-.972,1.388.021,2.777.006,4.165.006h.626c0-1.2.009-2.352,0-3.5a1.956,1.956,0,0,1,2.322-2.09,10,10,0,0,1,3.779,1.124c.574.328,1.108.726,1.674,1.07a.593.593,0,0,0,.445.055,13.11,13.11,0,0,1,5.437-.715,26.822,26.822,0,0,1,3.512.683.977.977,0,0,0,.918-.188,9.93,9.93,0,0,1,5.395-2.029A2.027,2.027,0,0,1,77,731.466c.031,1.682.061,3.366-.007,5.045a13.943,13.943,0,0,0,.687,5.163,4.766,4.766,0,0,1,.185,1.183,2.869,2.869,0,0,0,.805,1.467,7.26,7.26,0,0,1,1.452,3.821,6.81,6.81,0,0,1-1.711,5.008,14.533,14.533,0,0,1-7.077,4.362c-.611.2-1.248.307-1.868.477a1.052,1.052,0,0,0-.67.5c-.667,1.068-1.418,2.084-2.123,3.129a1.346,1.346,0,0,0-.289.662c-.017,3.713-.012,7.426-.012,11.218h1.457c.88,0,1.76-.01,2.64,0,.708.011,1.081.349,1.065.924-.014.508-.436.826-1.106.833H21.508c-.518,0-1.047.046-1.362-.5v-.7A1.178,1.178,0,0,1,21.3,773.5c1.162.023,2.326.007,3.538.007v-.613c0-1.752.012-3.5-.006-5.256-.006-.6.236-.939.84-1,.735.191.92.423.926,1.159l.018,2.043.1.1h3.167l.125-.1c.009-1.112.015-2.224.029-3.335a3.649,3.649,0,0,1,.053-.8c.322-1.352,1.637-1.88,3.06-1.267a13.114,13.114,0,0,0,5.261,1.129q5.858-.012,11.713.01a2.109,2.109,0,0,1,2.3,2.3c0,.677,0,1.354,0,2.058h1.866l.232,0H55.7l.107-.023c.027-.91.068-1.82.077-2.73a1.978,1.978,0,0,1,1.6-1.947,19.386,19.386,0,0,0,3.017-1.045,14.3,14.3,0,0,0,5.019-3.881c.467-.561.857-1.187,1.232-1.713H63.79c-.948-.046-1.907-.017-2.841-.153a22.982,22.982,0,0,1-5.724-1.5c-.729-.311-.936-.677-.691-1.41a1.107,1.107,0,0,1,1.4-.2,20.741,20.741,0,0,0,7.336,1.49,27.026,27.026,0,0,0,5.8-.5l.129-.093a.364.364,0,0,0,.1-.022.337.337,0,0,0,.115.016,14.445,14.445,0,0,0,7.478-4,5.144,5.144,0,0,0,.212-7.055,4.657,4.657,0,0,1-.858-1.764,20.169,20.169,0,0,0-1.127-3.934,12.214,12.214,0,0,0-4.21-4.885,10.182,10.182,0,0,0-4.544-1.8,2.026,2.026,0,0,0-.491-.133c-1.1-.012-2.193-.026-3.288,0a9.654,9.654,0,0,0-4.174,1.232,11.531,11.531,0,0,0-3.815,3.19,12.041,12.041,0,0,0-2.544,5.967,4.186,4.186,0,0,1-.953,2.154,4.858,4.858,0,0,0-1.179,4.492,6.811,6.811,0,0,0,2.157,3.335,1.032,1.032,0,0,1,.324,1.329c-.69.508-.931.5-1.541-.079-.284-.269-.557-.547-.827-.83a6.831,6.831,0,0,1-.557-9.026,4.769,4.769,0,0,0,.8-1.42c.3-.96.419-1.977.726-2.933a13.853,13.853,0,0,0,.235-3.455c-1.566,0-3.049-.017-4.532.008-.642.01-1.138-.142-1.36-.8m-8.076,35.922H35.324v1.746h3.323v-1.746Zm17.13,1.745h1.371v-1.743H52.451v1.743Zm-25.813,0h1.37v-1.743H26.637v1.743Zm34.611,0h1.37v-1.74H61.131v1.74Zm-24.432-3.636,0-2.345c-.031-.033-.061-.066-.092-.1l-1.408-.12-1.892-.225v2.79l.13.093,1.761,0h1.409c.029-.031.059-.061.089-.092m35.1-35.178,1.23,1.425.146-.055v-3.659c0-1.376,0-1.376-1.311-1.243a.551.551,0,0,0-.058.01,7.758,7.758,0,0,0-3.065,1.271c.507.356.979.673,1.436,1.01.548.405,1.082.827,1.622,1.241m-20.835-2.6-.01,3.979c0,.029,0,.059.005.088l.086-.074,2.94-2.815,1.3-.778c.01-.069.021-.139.032-.208a32.026,32.026,0,0,0-3.174-1.111c-1.224-.3-1.244-.215-1.175.919m8.171,37.782.116.094,1.878,0H64.6v-6.216l-1.392.983c-.557.308-1.122.6-1.666.932-.151.092-.34.283-.342.431-.018,1.259,0,2.519.014,3.779m-29.329,3.641h1.684v-6.963c-.381-.151-.747-.289-1.108-.439-.535-.223-.659-.156-.66.416,0,2.321,0,4.642.006,6.963,0,.029-.007.059-.01.088l.088-.065m8.688-.007H50.663c0-1.828-.022-3.624.012-5.419.012-.58-.182-.734-.741-.729-2.953.023-5.906.01-8.858.012-.166,0-.332.02-.505.031Zm17.064-.026h1.759v-6.91a7.453,7.453,0,0,1-1.241.346c-.418.044-.521.238-.52.6.005,1.974,0,3.948,0,5.961" transform="translate(548 2655)" fill="#010000"/>
      <path id="Trazado_280059" data-name="Trazado 280059" d="M25.673,764.235a.833.833,0,0,1-.838-1c.021-.449-.033-.9.01-1.347a8.019,8.019,0,0,0-1.013-4.47,11.838,11.838,0,0,1-1.22-4.693c-.032-.6-.119-1.193-.114-1.789a16.045,16.045,0,0,1,2.827-8.993c.031-.047.064-.094.091-.144.007-.013-.007-.037-.02-.091a5.041,5.041,0,0,1-3.8-1.736,16.4,16.4,0,0,1-1.456-2.638v-2.112c.082-.2.177-.395.244-.6a5.316,5.316,0,0,1,4.858-3.644c1.485-.017,2.97-.013,4.455-.006a.848.848,0,0,1,.217,1.678,2.924,2.924,0,0,1-.571.075c-1.27.006-2.542.036-3.81-.005a3.648,3.648,0,0,0-3.531,2.625,3.6,3.6,0,0,0,2.186,4.308,7.1,7.1,0,0,0,2.556.215c.414-.037.809-.532,1.17-.866a15.526,15.526,0,0,1,7.545-3.8A33.288,33.288,0,0,1,42,734.847c.549-.007.869.355.932.96-.119.6-.515.8-1.1.8a27.6,27.6,0,0,0-6.248.372,14.107,14.107,0,0,0-10.168,8.515,13.275,13.275,0,0,0-1.069,7.017,16.314,16.314,0,0,0,1.595,5.343,4.416,4.416,0,0,1,.523,1.494c.106,1.236.1,2.481.127,3.723.014.745-.185.976-.922,1.165" transform="translate(548 2655)" fill="#010101"/>
      <path id="Trazado_280060" data-name="Trazado 280060" d="M25.673,764.235c.737-.189.936-.42.922-1.165-.023-1.242-.021-2.487-.127-3.723a4.416,4.416,0,0,0-.523-1.494,16.314,16.314,0,0,1-1.595-5.343,13.275,13.275,0,0,1,1.069-7.017,14.107,14.107,0,0,1,10.168-8.515,27.6,27.6,0,0,1,6.248-.372c.581,0,.977-.194,1.1-.8h2.422c.221.661.717.814,1.359.8,1.483-.024,2.967-.008,4.533-.008a13.854,13.854,0,0,1-.236,3.455c-.307.957-.427,1.973-.726,2.933a4.748,4.748,0,0,1-.8,1.42,6.832,6.832,0,0,0,.557,9.027c.27.282.544.561.827.829.611.579.851.587,1.542.079l2.123,1.19c-.244.732-.037,1.1.692,1.409a22.921,22.921,0,0,0,5.723,1.495c.935.137,1.894.107,2.841.153a24.427,24.427,0,0,1-2.136,2.133,14.929,14.929,0,0,1-6.026,2.941c-.954.21-1.219.586-1.22,1.549q0,2.31,0,4.621l-.116.1H52.422c0-.7,0-1.382,0-2.059a2.109,2.109,0,0,0-2.3-2.3c-3.9-.008-7.809-.018-11.713-.009a13.119,13.119,0,0,1-5.262-1.13c-1.423-.613-2.737-.085-3.06,1.267a3.649,3.649,0,0,0-.053.8c-.013,1.112-.02,2.224-.029,3.336l-.125.1H26.716l-.1-.1c0-.681-.012-1.362-.017-2.043-.006-.736-.192-.968-.927-1.159q0-1.2,0-2.4" transform="translate(548 2655)" fill="#fe99a0"/>
      <path id="Trazado_280061" data-name="Trazado 280061" d="M54.534,755.534l-2.124-1.19a1.031,1.031,0,0,0-.324-1.328,6.814,6.814,0,0,1-2.157-3.336,4.857,4.857,0,0,1,1.179-4.491,4.189,4.189,0,0,0,.953-2.154,12.033,12.033,0,0,1,2.544-5.967,11.531,11.531,0,0,1,3.815-3.19,9.645,9.645,0,0,1,4.174-1.232c1.095-.025,2.192-.011,3.288,0a1.957,1.957,0,0,1,.492.133,2.151,2.151,0,0,0,.367.331,13.4,13.4,0,0,1,4.195,3.57,12.316,12.316,0,0,1,2.494,5.649,4.312,4.312,0,0,0,.891,2.342,5.848,5.848,0,0,1,.406,7.289,11.687,11.687,0,0,1-4.934,3.9,3.111,3.111,0,0,0-.486.347.333.333,0,0,1-.1.022l-.129.094a27.159,27.159,0,0,1-5.8.5,20.762,20.762,0,0,1-7.336-1.49,1.105,1.105,0,0,0-1.4.2m9.446-1.774c0,.012,0,.024,0,.036a29.4,29.4,0,0,0,3.365-.171,4.3,4.3,0,0,0-.834-8.526c-1.584-.031-3.168-.018-4.751,0a5.429,5.429,0,0,0-1.376.167,4.309,4.309,0,0,0-2.893,5.379,4.142,4.142,0,0,0,3.732,3.1c.913.07,1.837.013,2.755.013m-5.114-12.176c0,.313,0,.626,0,.939a.881.881,0,0,0,.758.91.857.857,0,0,0,.993-.82c.034-.7.032-1.408,0-2.111a.876.876,0,0,0-1.749.085c-.011.332,0,.665,0,1m10.443-.033c0-.313-.025-.628.006-.938a.659.659,0,0,0-.5-.793c-.427-.071-1.046-.177-1.126.469a12.376,12.376,0,0,0-.04,2.457.759.759,0,0,0,1.015.672.812.812,0,0,0,.655-.988,7.8,7.8,0,0,1-.006-.879" transform="translate(548 2655)" fill="#ffc4c8"/>
      <path id="Trazado_280062" data-name="Trazado 280062" d="M69.307,756.207a3.111,3.111,0,0,1,.486-.347,11.694,11.694,0,0,0,4.934-3.9,5.848,5.848,0,0,0-.406-7.289,4.312,4.312,0,0,1-.891-2.342,12.316,12.316,0,0,0-2.494-5.649,13.4,13.4,0,0,0-4.195-3.57,2.158,2.158,0,0,1-.368-.332,10.172,10.172,0,0,1,4.544,1.8,12.214,12.214,0,0,1,4.21,4.885,20.15,20.15,0,0,1,1.127,3.934,4.652,4.652,0,0,0,.858,1.763,5.144,5.144,0,0,1-.212,7.055,14.437,14.437,0,0,1-7.478,4,.313.313,0,0,1-.115-.016" transform="translate(548 2655)" fill="#fcb4ba"/>
      <path id="Trazado_280063" data-name="Trazado 280063" d="M54.406,769.836q0-2.31,0-4.622c0-.962.266-1.338,1.219-1.549a14.916,14.916,0,0,0,6.026-2.941,24.289,24.289,0,0,0,2.137-2.132h2.966c-.375.526-.765,1.152-1.232,1.713a14.3,14.3,0,0,1-5.019,3.881,19.386,19.386,0,0,1-3.017,1.045,1.979,1.979,0,0,0-1.6,1.947c-.009.91-.05,1.82-.077,2.73l-.106.023H54.521l-.115-.1" transform="translate(548 2655)" fill="#fc8087"/>
      <path id="Trazado_280064" data-name="Trazado 280064" d="M63.205,769.927l-1.878,0-.115-.093c-.01-1.26-.032-2.52-.015-3.78,0-.148.192-.339.343-.43.544-.33,1.109-.625,1.665-.933v5.233" transform="translate(548 2655)" fill="#ffc3c7"/>
      <path id="Trazado_280065" data-name="Trazado 280065" d="M63.205,769.927v-5.233l1.392-.983v6.216Z" transform="translate(548 2655)" fill="#fcb4ba"/>
      <path id="Trazado_280066" data-name="Trazado 280066" d="M53.031,736.034q0-1.991.01-3.98a6.763,6.763,0,0,1,3.021,1.178l-2.94,2.816a.1.1,0,0,0-.091-.014" transform="translate(548 2655)" fill="#fcb4ba"/>
      <path id="Trazado_280067" data-name="Trazado 280067" d="M73.883,731.135c.019,0,.038-.008.058-.01,1.311-.132,1.311-.132,1.312,1.243v3.659l-.147.055-1.229-1.425.006-3.522" transform="translate(548 2655)" fill="#fc8087"/>
      <path id="Trazado_280068" data-name="Trazado 280068" d="M73.883,731.135l-.006,3.522c-.541-.414-1.075-.836-1.622-1.24-.457-.338-.929-.655-1.437-1.011a7.757,7.757,0,0,1,3.065-1.271" transform="translate(548 2655)" fill="#fc989f"/>
      <path id="Trazado_280069" data-name="Trazado 280069" d="M35.384,769.837v-2.789l1.891.225v2.656H35.514l-.13-.093" transform="translate(548 2655)" fill="#ffc4c8"/>
      <path id="Trazado_280070" data-name="Trazado 280070" d="M56.062,733.232a6.735,6.735,0,0,0-3.021-1.178c-.069-1.133-.049-1.214,1.175-.918a31.77,31.77,0,0,1,3.174,1.11l-.033.209-1.295.777" transform="translate(548 2655)" fill="#fd989f"/>
      <path id="Trazado_280071" data-name="Trazado 280071" d="M37.275,769.929v-2.656l1.409.119c.03.033.061.066.092.1l0,2.346-.09.092H37.275" transform="translate(548 2655)" fill="#fcb4ba"/>
      <path id="Trazado_280072" data-name="Trazado 280072" d="M63.205,773.472H61.13v-1.74H63.2q0,.87,0,1.74" transform="translate(548 2655)" fill="#fd989f"/>
      <path id="Trazado_280073" data-name="Trazado 280073" d="M28.594,773.473H26.636V771.73h1.956c0,.581,0,1.162,0,1.743" transform="translate(548 2655)" fill="#ffc4c8"/>
      <path id="Trazado_280074" data-name="Trazado 280074" d="M54.407,773.473H52.451V771.73h1.955q0,.871,0,1.743" transform="translate(548 2655)" fill="#ffc4c8"/>
      <path id="Trazado_280075" data-name="Trazado 280075" d="M37.278,773.475H35.324v-1.746h1.953q0,.873,0,1.746" transform="translate(548 2655)" fill="#fe99a0"/>
      <path id="Trazado_280076" data-name="Trazado 280076" d="M63.205,773.472q0-.87,0-1.74h1.371v1.74Z" transform="translate(548 2655)" fill="#fc8087"/>
      <path id="Trazado_280077" data-name="Trazado 280077" d="M54.407,773.473q0-.871,0-1.743h1.372v1.743Z" transform="translate(548 2655)" fill="#fcb4ba"/>
      <path id="Trazado_280078" data-name="Trazado 280078" d="M37.278,773.475q0-.873,0-1.746h1.37v1.746Z" transform="translate(548 2655)" fill="#fc8087"/>
      <path id="Trazado_280079" data-name="Trazado 280079" d="M28.594,773.473c0-.581,0-1.162,0-1.743h1.371v1.743Z" transform="translate(548 2655)" fill="#fcb4ba"/>
      <path id="Trazado_280080" data-name="Trazado 280080" d="M54.406,769.836l.115.1-.231,0,.116-.1" transform="translate(548 2655)" fill="#e4848a"/>
      <path id="Trazado_280081" data-name="Trazado 280081" d="M61.212,769.837l.115.093-.115-.093" transform="translate(548 2655)" fill="#fcb4ba"/>
      <path id="Trazado_280082" data-name="Trazado 280082" d="M55.7,769.93l.107-.022-.107.022" transform="translate(548 2655)" fill="#e4848a"/>
      <path id="Trazado_280083" data-name="Trazado 280083" d="M38.683,769.928c.03-.031.06-.061.089-.092-.029.031-.059.061-.089.092" transform="translate(548 2655)" fill="#e2a1a6"/>
      <path id="Trazado_280084" data-name="Trazado 280084" d="M35.384,769.837l.13.093-.13-.093" transform="translate(548 2655)" fill="#fcb4ba"/>
      <path id="Trazado_280085" data-name="Trazado 280085" d="M29.884,769.933l.125-.1-.125.1" transform="translate(548 2655)" fill="#e4848a"/>
      <path id="Trazado_280086" data-name="Trazado 280086" d="M26.617,769.835l.1.1-.1-.1" transform="translate(548 2655)" fill="#e4848a"/>
      <path id="Trazado_280087" data-name="Trazado 280087" d="M38.776,767.49l-.092-.1.092.1" transform="translate(548 2655)" fill="#e2a1a6"/>
      <path id="Trazado_280088" data-name="Trazado 280088" d="M53.031,736.034a.1.1,0,0,1,.091.014l-.086.073c0-.029,0-.058-.005-.087" transform="translate(548 2655)" fill="#bd8488"/>
      <path id="Trazado_280089" data-name="Trazado 280089" d="M69.075,756.323l.128-.094-.128.094" transform="translate(548 2655)" fill="#fcb4ba"/>
      <path id="Trazado_280090" data-name="Trazado 280090" d="M31.8,773.455l.047-.017.031.039-.088.066c0-.029.007-.059.01-.088" transform="translate(548 2655)" fill="#a0a0a0"/>
      <path id="Trazado_280091" data-name="Trazado 280091" d="M63.98,753.759c-.919,0-1.842.058-2.755-.012a4.142,4.142,0,0,1-3.732-3.1,4.308,4.308,0,0,1,2.893-5.379,5.464,5.464,0,0,1,1.375-.168c1.584-.02,3.168-.032,4.751,0a4.3,4.3,0,0,1,.835,8.526,29.4,29.4,0,0,1-3.365.171l0-.037m2.756-6.812-.129-.078c-1.641-.005-3.281-.02-4.921-.013a2.391,2.391,0,0,0-2.554,2.022,2.514,2.514,0,0,0,2.377,3.107c1.738-.015,3.476-.011,5.214-.015a2.513,2.513,0,0,0,.006-5.02Z" transform="translate(548 2655)" fill="#010101"/>
      <path id="Trazado_280092" data-name="Trazado 280092" d="M58.866,741.584c0-.332-.008-.665,0-1a.876.876,0,0,1,1.749-.085c.032.7.034,1.409,0,2.111a.856.856,0,0,1-.993.82.881.881,0,0,1-.758-.91c0-.313,0-.626,0-.939" transform="translate(548 2655)" fill="#010101"/>
      <path id="Trazado_280093" data-name="Trazado 280093" d="M69.309,741.551a7.8,7.8,0,0,0,.006.879.812.812,0,0,1-.655.988.759.759,0,0,1-1.015-.672,12.376,12.376,0,0,1,.04-2.457c.08-.646.7-.54,1.127-.469a.659.659,0,0,1,.5.793c-.031.31-.006.625-.006.938" transform="translate(548 2655)" fill="#010101"/>
      <path id="Trazado_280094" data-name="Trazado 280094" d="M66.722,751.97c-1.738,0-3.476,0-5.213.015a2.513,2.513,0,0,1-2.377-3.107,2.391,2.391,0,0,1,2.554-2.022c1.64-.007,3.28.008,4.92.013l.13.078-.007,0a3.548,3.548,0,0,1,.044,4.856.593.593,0,0,0-.051.164m.239-2.62c0-.136,0-.273,0-.41-.008-.647-.246-.911-.832-.929-.606-.017-.9.267-.926.91-.011.312-.018.625,0,.937a.905.905,0,0,0,1.232.835c.63-.286.52-.829.524-1.343m-3.989-.111c0-.011,0-.148,0-.285,0-.684-.236-.936-.866-.942a.862.862,0,0,0-.892.909,9.17,9.17,0,0,0,0,.938.913.913,0,0,0,1.231.84c.64-.279.517-.825.525-1.46" transform="translate(548 2655)" fill="#fd989f"/>
      <path id="Trazado_280095" data-name="Trazado 280095" d="M66.723,751.971a.533.533,0,0,1,.051-.164,3.548,3.548,0,0,0-.044-4.856,2.513,2.513,0,0,1-.007,5.02" transform="translate(548 2655)" fill="#fc8087"/>
      <path id="Trazado_280096" data-name="Trazado 280096" d="M66.736,746.947l-.129-.078.129.078" transform="translate(548 2655)" fill="#c9787e"/>
      <path id="Trazado_280097" data-name="Trazado 280097" d="M66.962,749.351c0,.513.105,1.057-.524,1.343a.907.907,0,0,1-1.233-.836c-.019-.311-.013-.625,0-.937.024-.642.319-.927.925-.909.587.017.824.282.833.929,0,.137,0,.273,0,.41" transform="translate(548 2655)" fill="#010101"/>
      <path id="Trazado_280098" data-name="Trazado 280098" d="M62.972,749.239c-.008.635.115,1.181-.525,1.46a.913.913,0,0,1-1.231-.84,9.17,9.17,0,0,1,0-.938.862.862,0,0,1,.892-.909c.63.006.862.258.866.942,0,.137,0,.274,0,.285" transform="translate(548 2655)" fill="#010101"/>
    </g>
  </g>
</svg>
