<svg xmlns="http://www.w3.org/2000/svg" width="83" height="83" viewBox="0 0 83 83">
  <g id="Grupo_1069953" data-name="Grupo 1069953" transform="translate(-1020 -2968)">
    <circle id="Elipse_4707" data-name="Elipse 4707" cx="41.5" cy="41.5" r="41.5" transform="translate(1020 2968)" fill="#3b5620"/>
    <g id="Grupo_261847" data-name="Grupo 261847" transform="translate(463.854 -498.134)">
      <path id="Trazado_280100" data-name="Trazado 280100" d="M20.146,869.742a16.036,16.036,0,0,1,.84-2.134,6.557,6.557,0,0,1,3.947-3.111A7.026,7.026,0,0,1,27,864.359a.578.578,0,0,0,.642-.442,19.686,19.686,0,0,1,3.062-5.992,24.2,24.2,0,0,1,3.651-3.878,25.216,25.216,0,0,1,5.814-3.773,27.224,27.224,0,0,1,7.871-2.474c1.023-.142,2.051-.238,3.077-.352.532-.06,1.065-.113,1.675-.178v-3.017c-1.213-.519-2.49-1.025-3.734-1.6a25.176,25.176,0,0,1-5.715-3.843,22.818,22.818,0,0,1-5.44-6.673,10.034,10.034,0,0,1-1.114-3.558,4.776,4.776,0,0,1,1.438-4.2,4.538,4.538,0,0,1,2.872-1.2,12.757,12.757,0,0,1,5.645.819.593.593,0,0,0,.45-.04,7.388,7.388,0,0,1,4.832-.7,20.788,20.788,0,0,1,9.991,4.564,22.306,22.306,0,0,1,6.161,6.781,1.91,1.91,0,0,0,.878.735,20.156,20.156,0,0,1,4.82,2.989,18.71,18.71,0,0,1,5.135,6.336A10.819,10.819,0,0,1,80.133,849a7.021,7.021,0,0,1-5.016,7.606,16.572,16.572,0,0,1-4.795.944,4.95,4.95,0,0,0-.775.157,17.575,17.575,0,0,1-.578,14.4c1.21,1.031,2.426,1.986,3.542,3.047a5.9,5.9,0,0,1,1.747,2.776,4,4,0,0,1-3.194,5.089c-.04,0-.074.07-.11.107H69.546c-.193-.039-.388-.073-.579-.12a33.017,33.017,0,0,1-8.737-3.322,30.649,30.649,0,0,1-7.733-6.04c-.329-.371-.656-.743-.971-1.1-.634.756-1.229,1.468-1.843,2.2a7.446,7.446,0,0,1,3,2.739A3.325,3.325,0,0,1,52.6,881a5.033,5.033,0,0,1-2.772,1.766c-.538.145-1.09.237-1.635.353H46.43c-.038-.036-.074-.1-.113-.106a14.287,14.287,0,0,1-4.494-1.142,9.555,9.555,0,0,0-1.717-.722c-1.481-.267-2.995-.355-4.476-.626a12.47,12.47,0,0,1-6.675-3.184.723.723,0,0,0-.535-.112,8.134,8.134,0,0,1-2.835.158,6.313,6.313,0,0,1-4.509-3.258,19.922,19.922,0,0,1-.93-2.272Zm7.865-3.617c-.5.032-1,.1-1.491.09a4.651,4.651,0,1,0,1,9.215c0-.056.03-.123.01-.171a11.816,11.816,0,0,1-.82-6.2c.094-.694.315-.941,1.064-.98a.89.89,0,0,1,.805,1.063,10.587,10.587,0,0,0,.13,3.48c.431,2.98,2.721,4.808,5.4,5.546,1.493.32,2.975.71,4.481.937a11.872,11.872,0,0,1,3.419.785,10.74,10.74,0,0,0,6.315,1.229,6.668,6.668,0,0,0,2.195-.71,1.492,1.492,0,0,0,.325-2.318,10.534,10.534,0,0,0-1.14-1.126c-.971-.773-1.983-1.317-3.155-.315a2.031,2.031,0,0,1-.684.255.938.938,0,1,1-.575-1.768,8.441,8.441,0,0,0,5.214-11.115c-.222-.612-.765-1.206-.192-1.9a1.017,1.017,0,0,1,1.63.473,10.215,10.215,0,0,1,1.032,4.574,16.086,16.086,0,0,1-.391,2.7c-.056.339-.248.689.16.944a14.1,14.1,0,0,0,1.408,1.871c1.041,1,2.154,1.933,3.281,2.839a28.522,28.522,0,0,0,12.479,5.7,2.079,2.079,0,0,0,2.545-2.21,2.847,2.847,0,0,0-1.029-2.27,21.445,21.445,0,0,0-4.139-3.359,1.037,1.037,0,0,1-.4-1.484c.159-.324.313-.652.491-.965a13.039,13.039,0,0,0,1.553-6.6,31.882,31.882,0,0,0-.459-3.857l-.877-2.635c-1.072-.069-2.06-.088-3.035-.207a20.712,20.712,0,0,1-3.015-.545c-.993-.275-1.941-.714-2.908-1.081-.086-.073-.166-.152-.257-.217-.727-.525-1.5-.994-2.176-1.582a10.332,10.332,0,0,1-2.977-4.561.542.542,0,0,0-.376-.309,19.428,19.428,0,0,0-5.181.382,27.474,27.474,0,0,0-7.925,2.894,17.861,17.861,0,0,0-4.128,2.921c-.071.022-.164.022-.209.069q-1.3,1.368-2.594,2.744a.847.847,0,0,0-.181.14,18.7,18.7,0,0,0-3.089,5.688,2.874,2.874,0,0,1-1.532,1.949m24.741-37.694a1.331,1.331,0,0,1-1.552.019c-1.16-.718-2.344-1.4-3.558-2.024a12.312,12.312,0,0,0-6.185-1.4,2.9,2.9,0,0,0-2.878,2.949,9.66,9.66,0,0,0,1.242,3.756,22.239,22.239,0,0,0,5.832,6.542,20.906,20.906,0,0,0,8.506,4.252.915.915,0,0,1,.713,1.1,10.97,10.97,0,0,0-.1,4.368,7.81,7.81,0,0,0,2,4.1,12.045,12.045,0,0,0,8.921,3.77,52.273,52.273,0,0,0,5.721-.329,10.842,10.842,0,0,0,4.131-1.162,5.3,5.3,0,0,0,2.794-5.021,11.155,11.155,0,0,0-1.444-4.7,18.355,18.355,0,0,0-6.085-6.255,13.114,13.114,0,0,0-5.779-2.2,10.481,10.481,0,0,0-4.92.677c-.83.322-1.184.185-1.584-.6a19.715,19.715,0,0,0-4.122-5.31,1.051,1.051,0,0,1-.231-1.344.918.918,0,0,1,1.284-.18,5.146,5.146,0,0,1,.949.852c1.14,1.424,2.244,2.876,3.38,4.3a.623.623,0,0,0,.515.193,14.468,14.468,0,0,1,3.823-.492c.54.02,1.083,0,1.643,0a1.5,1.5,0,0,0-.105-.178,25.876,25.876,0,0,0-4.182-4.323,22.492,22.492,0,0,0-8.447-4.515,10.428,10.428,0,0,0-3.7-.194c.331.192.521.3.7.409.793.49,1.6.956,2.37,1.486.561.389.611.765.337,1.441" transform="translate(548 2655)" fill="#010101"/>
      <path id="Trazado_280101" data-name="Trazado 280101" d="M54.182,829.627a1.051,1.051,0,0,0,.23,1.344,19.68,19.68,0,0,1,4.122,5.311c.4.783.754.92,1.584.6a10.486,10.486,0,0,1,4.921-.677,13.105,13.105,0,0,1,5.778,2.2,18.358,18.358,0,0,1,6.086,6.255,11.155,11.155,0,0,1,1.444,4.7,5.3,5.3,0,0,1-2.794,5.02,10.842,10.842,0,0,1-4.131,1.162,52.3,52.3,0,0,1-5.721.329,12.043,12.043,0,0,1-8.921-3.77,7.8,7.8,0,0,1-2-4.1,10.971,10.971,0,0,1,.1-4.368.914.914,0,0,0-.714-1.1,20.917,20.917,0,0,1-8.505-4.253,22.229,22.229,0,0,1-5.833-6.542,9.693,9.693,0,0,1-1.242-3.756,2.9,2.9,0,0,1,2.879-2.949,12.312,12.312,0,0,1,6.185,1.4c1.214.62,2.4,1.306,3.558,2.024a1.331,1.331,0,0,0,1.552-.019ZM56.025,839.9a4.507,4.507,0,0,0-1.2-3.9,13.594,13.594,0,0,1-2.1-2.778,8.568,8.568,0,0,0-3.28-3.4c-1.23-.636-2.443-1.306-3.67-1.949-.657-.345-1.311-.7-1.995-.984a2.226,2.226,0,0,0-2.231.056,1.915,1.915,0,0,0-.362,2.495,4.314,4.314,0,0,0,1.813,1.775,11.274,11.274,0,0,1,3.392,3.332,20.048,20.048,0,0,0,2.087,2.574,9.073,9.073,0,0,0,4.513,2.194c.974.239,1.97.382,3.041.584m18.734,4.935a3.016,3.016,0,0,0-.522-3.171,31.564,31.564,0,0,0-3.294-2.3c-.925-.565-1.936-.992-2.915-1.467a1.415,1.415,0,0,0-.424-.059l-.106.137a7.4,7.4,0,0,0,.645.838,9.729,9.729,0,0,1,1.782,2.3c1.047,1.918,2.865,2.9,4.834,3.727m-4.9,2.14a1.59,1.59,0,1,0-.023-3.176,1.523,1.523,0,0,0-1.578,1.582,1.485,1.485,0,0,0,1.6,1.594" transform="translate(548 2655)" fill="#ece2e2"/>
      <path id="Trazado_280102" data-name="Trazado 280102" d="M35.616,855.535a17.861,17.861,0,0,1,4.128-2.921,27.474,27.474,0,0,1,7.925-2.894,19.428,19.428,0,0,1,5.181-.382.542.542,0,0,1,.376.309,10.332,10.332,0,0,0,2.977,4.561c.673.588,1.449,1.057,2.176,1.582.091.065.171.144.257.217a11.6,11.6,0,0,0,1.1,1.15,13.761,13.761,0,0,0,8.739,3.318,31.882,31.882,0,0,1,.459,3.857,13.039,13.039,0,0,1-1.553,6.6c-.178.313-.332.641-.491.965a1.037,1.037,0,0,0,.4,1.484,21.445,21.445,0,0,1,4.139,3.359,2.847,2.847,0,0,1,1.029,2.27c-1.085-.2-2.186-.341-3.252-.619a11.058,11.058,0,0,1-2.832-1.023,38.862,38.862,0,0,1-3.757-2.656c-2.229-1.7-4.516-3.262-7.362-3.722a4.772,4.772,0,0,0-2.51-.179c-.408-.255-.216-.605-.16-.945a16.075,16.075,0,0,0,.391-2.7,10.215,10.215,0,0,0-1.032-4.574,1.017,1.017,0,0,0-1.63-.473l-.953-1.3c.1-.3.332-.631.282-.907-.131-.723-.663-.9-1.558-.606-.17-.109-.341-.217-.511-.327q-.566-.364-1.129-.731a1.013,1.013,0,0,0-.856-1.008c-.536-.126-1.084-.2-1.626-.3l-.137-.091a.111.111,0,0,1-.1-.024c-.1-.1-.188-.252-.311-.3a17.117,17.117,0,0,0-6.128-1.085c-.558,0-1.117.065-1.675.1" transform="translate(548 2655)" fill="#ece2e2"/>
      <path id="Trazado_280103" data-name="Trazado 280103" d="M49.361,860.815q.477.652.953,1.3c-.573.7-.03,1.292.192,1.9a8.441,8.441,0,0,1-5.214,11.115.938.938,0,1,0,.575,1.768,2.031,2.031,0,0,0,.684-.255c1.172-1,2.184-.458,3.155.315a10.444,10.444,0,0,1,1.14,1.126,1.492,1.492,0,0,1-.324,2.318,6.681,6.681,0,0,1-2.2.71,10.748,10.748,0,0,1-6.315-1.228,11.832,11.832,0,0,0-3.419-.786c-1.506-.227-2.988-.617-4.481-.937a3.876,3.876,0,0,0-.292-1c-.6-.974-1.218-1.945-1.9-2.862-1.024-1.37-.751-2.3.411-3.289.931-.795,1.95-1.484,2.9-2.26,1.368-1.12,2.288-2.773,1.347-4.64a17.835,17.835,0,0,0-1.691-2.568,9.6,9.6,0,0,1-2.068-3.206q1.3-1.374,2.594-2.744c.045-.047.138-.047.209-.069.558-.036,1.117-.1,1.675-.1a17.117,17.117,0,0,1,6.128,1.085c.123.047.208.2.311.3a10.263,10.263,0,0,0-1.165.029c-.216.028-.52.13-.6.291-.14.284-.294.742-.162.938a1.741,1.741,0,0,0,.984.615c.642.154,1.324.137,1.975.267,1.061.211,1.191.179,1.682-.714q.564.366,1.129.731c.17.11.341.219.511.327-.161.388-.418.759-.145,1.2.3.486.633.564,1.421.309" transform="translate(548 2655)" fill="#fff6f6"/>
      <path id="Trazado_280104" data-name="Trazado 280104" d="M32.813,858.348a9.6,9.6,0,0,0,2.068,3.206,17.835,17.835,0,0,1,1.691,2.568c.941,1.867.021,3.52-1.347,4.64-.947.776-1.967,1.465-2.9,2.26-1.162.993-1.435,1.919-.411,3.289.685.917,1.3,1.888,1.9,2.862a3.917,3.917,0,0,1,.293,1c-2.679-.738-4.969-2.566-5.4-5.546a10.587,10.587,0,0,1-.129-3.48.891.891,0,0,0-.806-1.063q.119-.978.235-1.955a2.878,2.878,0,0,0,1.533-1.949,18.7,18.7,0,0,1,3.088-5.688.873.873,0,0,1,.181-.14" transform="translate(548 2655)" fill="#ece2e2"/>
      <path id="Trazado_280105" data-name="Trazado 280105" d="M52.745,870.81a4.758,4.758,0,0,1,2.509.179c2.847.46,5.134,2.025,7.362,3.722a38.875,38.875,0,0,0,3.758,2.656,11.094,11.094,0,0,0,2.832,1.023c1.065.278,2.166.418,3.252.619a2.079,2.079,0,0,1-2.545,2.209,28.515,28.515,0,0,1-12.479-5.7c-1.127-.906-2.24-1.838-3.281-2.84a14.089,14.089,0,0,1-1.408-1.87" transform="translate(548 2655)" fill="#cec4c4"/>
      <path id="Trazado_280106" data-name="Trazado 280106" d="M54.182,829.627l-1.43-1.2c.274-.676.224-1.052-.337-1.441-.766-.53-1.577-1-2.37-1.486-.183-.114-.373-.217-.7-.409a10.428,10.428,0,0,1,3.7.194,22.492,22.492,0,0,1,8.447,4.515,25.876,25.876,0,0,1,4.182,4.323,1.5,1.5,0,0,1,.105.178c-.561,0-1.1.017-1.643,0a14.468,14.468,0,0,0-3.823.492.623.623,0,0,1-.515-.193c-1.136-1.426-2.24-2.878-3.38-4.3a5.179,5.179,0,0,0-.949-.852.918.918,0,0,0-1.284.18" transform="translate(548 2655)" fill="#cdc3c3"/>
      <path id="Trazado_280107" data-name="Trazado 280107" d="M28.011,866.125q-.117.978-.235,1.955c-.749.039-.97.286-1.064.98a11.816,11.816,0,0,0,.82,6.2c.02.048-.006.115-.01.171a4.651,4.651,0,1,1-1-9.215c.495.015.994-.058,1.491-.09" transform="translate(548 2655)" fill="#cec4c4"/>
      <path id="Trazado_280108" data-name="Trazado 280108" d="M68.47,860.476a13.757,13.757,0,0,1-8.738-3.319,11.711,11.711,0,0,1-1.1-1.149c.968.367,1.916.8,2.909,1.081a20.8,20.8,0,0,0,3.014.544c.975.12,1.963.139,3.036.208.279.839.577,1.737.876,2.635" transform="translate(548 2655)" fill="#cec4c4"/>
      <path id="Trazado_280109" data-name="Trazado 280109" d="M56.026,839.9c-1.072-.2-2.068-.345-3.041-.584a9.06,9.06,0,0,1-4.513-2.194,19.971,19.971,0,0,1-2.088-2.574,11.271,11.271,0,0,0-3.391-3.332,4.3,4.3,0,0,1-1.813-1.775,1.912,1.912,0,0,1,.361-2.495,2.224,2.224,0,0,1,2.23-.056c.686.282,1.34.639,2,.984,1.227.643,2.44,1.313,3.671,1.949a8.572,8.572,0,0,1,3.279,3.4,13.589,13.589,0,0,0,2.1,2.778,4.506,4.506,0,0,1,1.205,3.9" transform="translate(548 2655)" fill="#ffa4b8"/>
      <path id="Trazado_280110" data-name="Trazado 280110" d="M74.759,844.838c-1.97-.826-3.787-1.809-4.835-3.727a9.7,9.7,0,0,0-1.781-2.3,7.4,7.4,0,0,1-.645-.838l.106-.137a1.415,1.415,0,0,1,.424.059c.979.475,1.99.9,2.915,1.467a31.7,31.7,0,0,1,3.294,2.3,3.018,3.018,0,0,1,.522,3.172" transform="translate(548 2655)" fill="#fff"/>
      <path id="Trazado_280111" data-name="Trazado 280111" d="M69.859,846.978a1.485,1.485,0,0,1-1.6-1.594,1.523,1.523,0,0,1,1.578-1.582,1.59,1.59,0,1,1,.023,3.176" transform="translate(548 2655)" fill="#010101"/>
      <path id="Trazado_280112" data-name="Trazado 280112" d="M46.445,858.244c-.491.893-.621.925-1.683.714-.65-.13-1.332-.113-1.974-.267a1.738,1.738,0,0,1-.984-.615c-.133-.2.022-.654.162-.938.079-.161.383-.263.6-.291a10.03,10.03,0,0,1,1.164-.029.112.112,0,0,0,.1.024l.137.091c.543.1,1.091.177,1.627.3a1.013,1.013,0,0,1,.856,1.008" transform="translate(548 2655)" fill="#010101"/>
      <path id="Trazado_280113" data-name="Trazado 280113" d="M49.361,860.815c-.788.255-1.123.177-1.421-.309-.273-.445-.016-.816.145-1.2.9-.291,1.427-.117,1.558.606.05.276-.18.6-.282.907" transform="translate(548 2655)" fill="#020202"/>
      <path id="Trazado_280114" data-name="Trazado 280114" d="M43.962,856.934l-.137-.092.137.092" transform="translate(548 2655)" fill="#fff6f6"/>
    </g>
  </g>
</svg>
