<svg id="Grupo_262619" data-name="Grupo 262619" xmlns="http://www.w3.org/2000/svg" xmlns:xlink="http://www.w3.org/1999/xlink" width="60.074" height="60" viewBox="0 0 60.074 60">
  <defs>
    <clipPath id="clip-path">
      <rect id="Rect치ngulo_325854" data-name="Rect치ngulo 325854" width="60.074" height="60" fill="none"/>
    </clipPath>
  </defs>
  <g id="Grupo_262618" data-name="Grupo 262618" clip-path="url(#clip-path)">
    <path id="Trazado_281197" data-name="Trazado 281197" d="M17.81,281.647c.008-.964.018-1.929.024-2.893a4.8,4.8,0,0,1,5.637-4.588A4.893,4.893,0,0,1,27.5,279.2c-.034.814.009,1.631.016,2.447l.13.121,5.488,0,.13-.119c.008-.89.024-1.78.022-2.669a4.838,4.838,0,0,1,6.226-4.708,4.639,4.639,0,0,1,3.437,4.56c-.027.938.01,1.878.018,2.817l.129.118h5.782c0-1.118.022-2.2-.005-3.278a4.756,4.756,0,0,1,3.037-4.124,4.9,4.9,0,0,1,6.615,4.7c.059,3.808.013,7.618.015,11.427,0,.271.021.542.032.813.115.1.225.276.347.285.514.039,1.031.027,1.547.034v1.73H.489v-1.9h1.9c0-.33,0-.594,0-.857q.007-6.018.012-12.036A4.691,4.691,0,0,1,5.627,274.3a4.908,4.908,0,0,1,6.184,3.2,6.325,6.325,0,0,1,.236,1.576c.038.864.01,1.732.01,2.695h5.624l.129-.118m15.454,3.866v-1.749H27.512v1.749l.13.121h5.493l.13-.119m-15.581.118.127-.118v-1.739H12.1v1.856Zm25.408,0h5.734v-1.865h-5.86v1.747l.126.118m-25.258,2.113-.147-.128H12.111v3.792h5.723Zm25.257,0v3.666h5.732v-3.794H43.239l-.148.128m13.418,3.688a.885.885,0,0,0,.079-.206c.006-4.131.037-8.262-.018-12.391a3.464,3.464,0,0,0-.681-1.812,2.984,2.984,0,0,0-3.344-.848,2.752,2.752,0,0,0-1.739,2.741q-.018,5.973,0,11.947a4.824,4.824,0,0,0,.068.57ZM35.354,291.4h5.68c.04-.09.077-.134.077-.177.007-4.1.038-8.209,0-12.313a2.912,2.912,0,1,0-5.814.22c.068,3.856.018,7.714.02,11.572,0,.217.022.434.035.7m-9.811,0a2.043,2.043,0,0,0,.06-.326c0-4.082.015-8.164-.017-12.246a2.9,2.9,0,1,0-5.789.145q-.007,5.9,0,11.8c0,.212.032.424.048.625Zm-15.469.025a4.059,4.059,0,0,0,.048-.418c0-4.032.009-8.065-.012-12.1a3.235,3.235,0,0,0-.279-1.2,2.957,2.957,0,0,0-3.259-1.7A3.17,3.17,0,0,0,4.3,278.828c.061,4.032.022,8.065.026,12.1a3.743,3.743,0,0,0,.07.5Zm23.265-3.812H27.586v3.8h5.752Z" transform="translate(-0.416 -233.354)" fill="#010000"/>
    <path id="Trazado_281198" data-name="Trazado 281198" d="M142.084,6.777A6.018,6.018,0,0,1,143.9.316a1.042,1.042,0,0,1,1.7.416c.421.939.8,1.9,1.2,2.844a6.18,6.18,0,0,0,.345.61c2.342-1.317,4.916-1.924,8.621.01.481-1.111.939-2.226,1.444-3.321.492-1.066,1.1-1.145,1.954-.312a5.609,5.609,0,0,1,1.748,5.547,2.612,2.612,0,0,0,0,.537c1.335-.238,2.634-.523,3.948-.684.838-.1,1.169.272,1.09,1.135a6.253,6.253,0,0,1-4.227,5.684.879.879,0,0,0-.681.993,7.955,7.955,0,0,1-3.408,6.438,9.869,9.869,0,0,1-7.124,2.058,9.472,9.472,0,0,1-8.588-6.933c-.155-.58-.09-1.215-.2-1.812a.879.879,0,0,0-.44-.583,6.708,6.708,0,0,1-4.266-4.9,3.786,3.786,0,0,1,0-1.548.835.835,0,0,1,.625-.522,24.027,24.027,0,0,1,2.495.376c.608.111,1.209.263,1.945.426m16.41,9.449a3.351,3.351,0,0,0,.3-.537,7.009,7.009,0,0,0,.094-4.1,9.559,9.559,0,0,0-3.538-5.308,6.15,6.15,0,0,0-5.078-1.262,7.4,7.4,0,0,0-4.616,3.189,8.708,8.708,0,0,0-1.97,5.657,3.7,3.7,0,0,0,.734,2.3,8.372,8.372,0,0,1,7.031-3.507,8.513,8.513,0,0,1,7.04,3.573M157.3,17.9a6.81,6.81,0,0,0-7.33-3.175,6.2,6.2,0,0,0-4.4,3.268c3.053,3.212,9.067,2.959,11.729-.093m3.424-6.923c1.133.021,2.608-1.351,3-2.891l-3.74.841.737,2.05M142.885,8.914l-3.812-.8c.49,1.563,2.021,2.988,3.044,2.845l.767-2.049m1.417-2.19a10.533,10.533,0,0,0,.812-.83c.152-.193.367-.5.307-.669-.281-.781-.647-1.532-1-2.328a3.111,3.111,0,0,0-.12,3.827m13.039-1.309,1.235,1.29a3.283,3.283,0,0,0-.1-3.838l-1.136,2.548" transform="translate(-116.599 0)" fill="#010101"/>
    <path id="Trazado_281199" data-name="Trazado 281199" d="M1,111.105a7.529,7.529,0,0,1,5.6,2.206,1.161,1.161,0,0,0,1.466.337,9.634,9.634,0,0,1,6.758-.074c1.008.352,1.369-.275,1.9-.692a7.134,7.134,0,0,1,4.692-1.763.883.883,0,0,1,.64.4,6.473,6.473,0,0,1-.544,7.251,2.15,2.15,0,0,0-.358,1.919,6.445,6.445,0,0,1-.291,3.5,34.772,34.772,0,0,1-1.436,3.27,1.027,1.027,0,0,0-.129.45,4.93,4.93,0,0,1-4.183,5.436,3.908,3.908,0,0,1-.805-.007c-2.1.008-4.208.121-6.3-.025a4.792,4.792,0,0,1-2.349-1.1,4.411,4.411,0,0,1-1.788-3.951,2.124,2.124,0,0,0-.32-1.075,9.958,9.958,0,0,1-1.467-7,.769.769,0,0,0-.171-.589,7.111,7.111,0,0,1-.921-8.5m17.308,14.407c1.156-2.167,1.535-4.38.343-6.558-1.966-3.594-5.339-4.277-8.981-3.736a6.808,6.808,0,0,0-5.775,7.333,7.288,7.288,0,0,0,1.014,2.876,9.977,9.977,0,0,1,.9-.8,4.97,4.97,0,0,1,5.346-.274,1.092,1.092,0,0,0,.87-.04,4.821,4.821,0,0,1,2.813-.574,4.778,4.778,0,0,1,3.466,1.776m-6.8,1.791c-.752-.871-1.537-1.756-2.978-1.661a2.812,2.812,0,0,0-2.705,2.4c-.177,1.556.742,3.135,2.163,3.227a52.871,52.871,0,0,0,7.073.02,2.739,2.739,0,0,0,2.214-3.655,2.8,2.8,0,0,0-3.683-1.807,10.476,10.476,0,0,0-2.085,1.48m-8.64-9.583,2.573-2.929a5.726,5.726,0,0,0-3.28-1.618,5.354,5.354,0,0,0,.707,4.547M17.4,114.64l2.879,2.655a4.76,4.76,0,0,0,.561-3.631c-.1-.407-.357-.642-.726-.466-.9.429-1.763.931-2.714,1.443" transform="translate(0 -94.601)" fill="#020101"/>
    <path id="Trazado_281200" data-name="Trazado 281200" d="M285.126,130.634c-.011-2.028-.033-4.056-.024-6.084a.91.91,0,0,0-.527-.969c-1.2-.655-2.336-1.423-3.514-2.119-1.024-.606-1.127-1.168-.321-1.985a7.523,7.523,0,0,1,4.174-1.934c.192-.037.381-.265.505-.45.512-.757.952-1.569,1.515-2.284.3-.387.314-.579-.035-.9-2.039-1.874-.941-4.53,1.243-5.335a3.141,3.141,0,0,1,2.869.408,1.319,1.319,0,0,0,1.6,0,3.085,3.085,0,0,1,3.3-.181c1.108.671,2.057,1.615,1.806,3.075a4.755,4.755,0,0,1-.909,1.9c-.323.441-.527.659-.028,1.127a6.143,6.143,0,0,1,1.834,4.5c.084,3.71.026,7.423.024,11.135a2.974,2.974,0,0,1-.061.349c-.95-.622-1.851-1.2-2.742-1.8-1.355-.9-.927-.9-2.212-.048-.379.251-.725.554-1.109.8a1.045,1.045,0,0,1-1.415.019c-.509-.437-1.124-.749-1.655-1.163a.818.818,0,0,0-1.145,0c-.978.687-2.006,1.3-3.014,1.947l-.161-.007m11.528-3.365a3.4,3.4,0,0,0,.048-.342c0-2.474.059-4.949-.011-7.42a4.838,4.838,0,0,0-5.993-4.771c-1.8.39-3.558,2.03-3.614,3.661-.1,2.9-.028,5.815-.028,8.8.547-.356,1.013-.7,1.518-.967a.81.81,0,0,1,.676,0,24.436,24.436,0,0,1,2.057,1.351.669.669,0,0,0,.964.021,18.659,18.659,0,0,1,2.059-1.334.882.882,0,0,1,.728-.012c.528.277,1.014.636,1.6,1.014m-7.46-16.937c-.748-.026-1.067.48-1.317.98-.294.59.1,1.01.5,1.4.327.323.557.6,1.168.38a7.1,7.1,0,0,1,4.514-.008,1,1,0,0,0,1.131-.3c.436-.406.862-.893.584-1.456a2.005,2.005,0,0,0-1.137-.875,1.647,1.647,0,0,0-1.141.3,2.873,2.873,0,0,1-3.4-.019,5.355,5.355,0,0,0-.9-.4m-4.245,9.048-2.15.854,2.15,1.26Z" transform="translate(-238.586 -92.293)" fill="#010101"/>
    <path id="Trazado_281201" data-name="Trazado 281201" d="M393.425,390.434c-.516-.007-1.033,0-1.547-.034-.122-.009-.231-.186-.347-.286.456,0,.915-.028,1.367.017.183.018.351.2.526.3" transform="translate(-333.378 -332.164)" fill="#d7d9d9"/>
    <path id="Trazado_281202" data-name="Trazado 281202" d="M286.6,325.26l-.129-.118.129.118" transform="translate(-243.922 -276.849)" fill="#cdcfd0"/>
    <path id="Trazado_281203" data-name="Trazado 281203" d="M220.394,325.143l-.13.12.13-.12" transform="translate(-187.548 -276.85)" fill="#cdcfd0"/>
    <path id="Trazado_281204" data-name="Trazado 281204" d="M182.568,325.264l-.13-.121.13.121" transform="translate(-155.341 -276.85)" fill="#cdcfd0"/>
    <path id="Trazado_281205" data-name="Trazado 281205" d="M313.339,258.137l.161.007-.106.155Z" transform="translate(-266.799 -219.796)" fill="#140d08"/>
    <path id="Trazado_281206" data-name="Trazado 281206" d="M116.369,325.142l-.129.118.129-.118" transform="translate(-98.975 -276.849)" fill="#cdcfd0"/>
    <path id="Trazado_281207" data-name="Trazado 281207" d="M344.917,302.482H339.28a4.791,4.791,0,0,1-.068-.57q0-5.974,0-11.947a2.753,2.753,0,0,1,1.739-2.741,2.984,2.984,0,0,1,3.344.848,3.465,3.465,0,0,1,.681,1.812c.056,4.13.024,8.261.018,12.391a.888.888,0,0,1-.079.206m-2.868-11.719c.648.07.931-.195.9-.841-.032-.673-.287-.977-.923-.944a.829.829,0,0,0-.871.954c.023.561.242.961.894.831" transform="translate(-288.825 -244.405)" fill="#b27946"/>
    <path id="Trazado_281208" data-name="Trazado 281208" d="M234.9,302.555c-.014-.263-.036-.48-.036-.7,0-3.857.049-7.716-.02-11.572a2.912,2.912,0,1,1,5.814-.22c.036,4.1.005,8.208,0,12.313,0,.044-.037.087-.077.177Zm2.8-11.688c.6.065.963-.152.935-.854a.851.851,0,0,0-.891-.94c-.482-.023-1.1.5-1.03.929.08.509.308.941.986.865" transform="translate(-199.965 -244.504)" fill="#b27946"/>
    <path id="Trazado_281209" data-name="Trazado 281209" d="M136.211,302.5h-5.7c-.016-.2-.048-.413-.048-.625q0-5.9,0-11.8a2.9,2.9,0,1,1,5.789-.145c.032,4.082.019,8.164.017,12.246a2.044,2.044,0,0,1-.06.326m-3.848-12.255a2.918,2.918,0,0,0,.927.683c.5.139,1-.461,1.009-1,.013-.652-.424-.848-.938-.9-.548-.057-.991.4-1,1.219" transform="translate(-111.085 -244.447)" fill="#b27946"/>
    <path id="Trazado_281210" data-name="Trazado 281210" d="M31.915,302.4H26.236a3.741,3.741,0,0,1-.07-.5c0-4.033.036-8.066-.026-12.1a3.17,3.17,0,0,1,2.273-2.806,2.957,2.957,0,0,1,3.259,1.7,3.239,3.239,0,0,1,.279,1.2c.021,4.032.014,8.065.012,12.1a4.054,4.054,0,0,1-.048.418m-3.87-12.324c.241.2.548.628.932.714a.988.988,0,0,0,1.041-.983.93.93,0,0,0-1.033-.908c-.575.012-.867.357-.94,1.177" transform="translate(-22.258 -244.323)" fill="#b27946"/>
    <rect id="Rect치ngulo_325853" data-name="Rect치ngulo 325853" width="5.752" height="3.802" transform="translate(27.17 54.263)" fill="#f8fafb"/>
    <path id="Trazado_281211" data-name="Trazado 281211" d="M287.462,365.323h5.584v3.794h-5.732v-3.666l.148-.128" transform="translate(-244.64 -311.062)" fill="#f8fafb"/>
    <path id="Trazado_281212" data-name="Trazado 281212" d="M84.46,365.451v3.663H78.737v-3.792h5.575l.147.128" transform="translate(-67.042 -311.062)" fill="#f8fafb"/>
    <path id="Trazado_281213" data-name="Trazado 281213" d="M286.47,341.151V339.4h5.86v1.865H286.6l-.126-.118" transform="translate(-243.921 -288.993)" fill="#d29f6c"/>
    <path id="Trazado_281214" data-name="Trazado 281214" d="M84.249,341.319H78.666v-1.856h5.71V341.2l-.127.118" transform="translate(-66.982 -289.043)" fill="#d29f6c"/>
    <path id="Trazado_281215" data-name="Trazado 281215" d="M182.424,341.141v-1.749h5.753v1.749l-.13.119h-5.493l-.13-.121" transform="translate(-155.329 -288.983)" fill="#d29f6c"/>
    <path id="Trazado_281216" data-name="Trazado 281216" d="M116.255,351.286l.127-.118-.127.118" transform="translate(-98.988 -299.009)" fill="#b2865b"/>
    <path id="Trazado_281217" data-name="Trazado 281217" d="M182.424,351.167l.13.121-.13-.121" transform="translate(-155.329 -299.009)" fill="#b2865b"/>
    <path id="Trazado_281218" data-name="Trazado 281218" d="M220.28,351.288l.13-.119-.13.119" transform="translate(-187.562 -299.01)" fill="#b2865b"/>
    <path id="Trazado_281219" data-name="Trazado 281219" d="M286.47,351.166l.126.118-.126-.118" transform="translate(-243.921 -299.008)" fill="#b2865b"/>
    <path id="Trazado_281220" data-name="Trazado 281220" d="M116.421,365.451l-.147-.128.147.128" transform="translate(-99.004 -311.062)" fill="#e6e9ed"/>
    <path id="Trazado_281221" data-name="Trazado 281221" d="M287.462,365.323l-.148.128.148-.128" transform="translate(-244.64 -311.062)" fill="#e6e9ed"/>
    <path id="Trazado_281222" data-name="Trazado 281222" d="M197.143,44.3a8.513,8.513,0,0,0-7.04-3.573,8.372,8.372,0,0,0-7.031,3.507,3.7,3.7,0,0,1-.734-2.3,8.707,8.707,0,0,1,1.97-5.657,7.4,7.4,0,0,1,4.616-3.189A6.15,6.15,0,0,1,194,34.358a9.559,9.559,0,0,1,3.538,5.308,7.009,7.009,0,0,1-.094,4.1,3.351,3.351,0,0,1-.3.537m-9.032-6.8c-.038-.375-.359-.648-.98-.666-.643-.019-.852.39-.929.886a1.1,1.1,0,0,0,.932,1.046,1.148,1.148,0,0,0,.978-1.265m5.092-.659c-.794,0-1.2.369-1.221.864a1.179,1.179,0,0,0,.936,1.06,1.01,1.01,0,0,0,.991-1.088.765.765,0,0,0-.706-.836" transform="translate(-155.248 -28.077)" fill="#aab2bd"/>
    <path id="Trazado_281223" data-name="Trazado 281223" d="M206.815,101.515c-2.662,3.053-8.676,3.305-11.729.093a6.2,6.2,0,0,1,4.4-3.268,6.81,6.81,0,0,1,7.33,3.175m-4.87-.5a.934.934,0,0,0,.888,1.029,1.18,1.18,0,0,0,1.056-1.013.967.967,0,0,0-1.093-.892c-.474.038-.891.27-.85.875m-3.866.029a.924.924,0,0,0,.885,1,1.2,1.2,0,0,0,1.055-.939,1.085,1.085,0,0,0-1.078-.966.81.81,0,0,0-.861.905" transform="translate(-166.11 -83.615)" fill="#e6e9ed"/>
    <path id="Trazado_281224" data-name="Trazado 281224" d="M292.88,57.332l-.737-2.05,3.74-.841c-.4,1.54-1.87,2.912-3,2.891" transform="translate(-248.751 -46.355)" fill="#cbd0d8"/>
    <path id="Trazado_281225" data-name="Trazado 281225" d="M155.126,55.448l-.767,2.049c-1.023.143-2.555-1.282-3.044-2.845l3.812.8" transform="translate(-128.84 -46.535)" fill="#cbd0d8"/>
    <path id="Trazado_281226" data-name="Trazado 281226" d="M183.1,23.332a3.111,3.111,0,0,1,.12-3.827c.351.8.718,1.546,1,2.328.06.168-.154.476-.307.669a10.587,10.587,0,0,1-.812.83" transform="translate(-155.395 -16.608)" fill="#939ca7"/>
    <path id="Trazado_281227" data-name="Trazado 281227" d="M274.306,21.85l1.136-2.548a3.283,3.283,0,0,1,.1,3.838l-1.235-1.29" transform="translate(-233.564 -16.435)" fill="#939ca7"/>
    <path id="Trazado_281228" data-name="Trazado 281228" d="M40.409,148.167a5.115,5.115,0,0,0-6.279-1.2,1.093,1.093,0,0,1-.87.04,4.97,4.97,0,0,0-5.346.274,10.023,10.023,0,0,0-.9.8A7.288,7.288,0,0,1,26,145.206a6.808,6.808,0,0,1,5.775-7.333c3.643-.541,7.015.142,8.981,3.736,1.191,2.178.812,4.391-.343,6.558m-3.8-6.526c-.628-.127-.915.184-.945.773s.444,1.129.976.959a1.523,1.523,0,0,0,.91-.918c.131-.6-.278-.94-.94-.814M30.818,143.4c.438,0,1.027-.572.963-1a.86.86,0,0,0-.993-.8c-.622,0-.919.224-.923.834a.891.891,0,0,0,.953.959" transform="translate(-22.102 -117.255)" fill="#ecc19c"/>
    <path id="Trazado_281229" data-name="Trazado 281229" d="M44.784,210.617a10.481,10.481,0,0,1,2.085-1.48,2.8,2.8,0,0,1,3.683,1.807,2.739,2.739,0,0,1-2.214,3.655,52.848,52.848,0,0,1-7.073-.02c-1.421-.092-2.341-1.67-2.163-3.227a2.812,2.812,0,0,1,2.705-2.4c1.44-.1,2.225.79,2.978,1.661m2,1.434c.212.195.484.639.846.732a1.022,1.022,0,0,0,1.129-.973c.014-.532-.392-.891-1.018-.9-.608-.01-.869.332-.957,1.143m-5.8-.027c.212.205.47.637.834.763.472.163,1.118-.426,1.143-.882a.929.929,0,0,0-.992-1c-.6-.016-.879.308-.985,1.117" transform="translate(-33.275 -177.914)" fill="#deb18b"/>
    <path id="Trazado_281230" data-name="Trazado 281230" d="M13.986,129.591a5.354,5.354,0,0,1-.707-4.547,5.726,5.726,0,0,1,3.28,1.618l-2.573,2.929" transform="translate(-11.117 -106.471)" fill="#ce9d75"/>
    <path id="Trazado_281231" data-name="Trazado 281231" d="M117.147,126.309c.951-.512,1.815-1.013,2.714-1.443.369-.176.621.06.726.466a4.76,4.76,0,0,1-.561,3.631l-2.879-2.655" transform="translate(-99.747 -106.27)" fill="#ce9d75"/>
    <path id="Trazado_281232" data-name="Trazado 281232" d="M335.788,162.91c-.582-.378-1.068-.737-1.6-1.014a.882.882,0,0,0-.728.012,18.657,18.657,0,0,0-2.059,1.334.669.669,0,0,1-.964-.02,24.443,24.443,0,0,0-2.057-1.351.811.811,0,0,0-.676,0c-.5.269-.971.611-1.518.967,0-2.985-.071-5.9.028-8.8.055-1.631,1.814-3.271,3.614-3.661a4.838,4.838,0,0,1,5.993,4.771c.07,2.472.013,4.947.011,7.42a3.381,3.381,0,0,1-.048.342m-7.008-9.729c-.574-.115-.636.5-.77.919-.1.327.611,1.013.969,1.029.508.024.891-.462.931-1.084.048-.748-.429-.826-1.13-.864" transform="translate(-277.72 -127.934)" fill="#fe826e"/>
    <path id="Trazado_281233" data-name="Trazado 281233" d="M332.594,121.444a5.355,5.355,0,0,1,.9.4,2.873,2.873,0,0,0,3.4.019,1.649,1.649,0,0,1,1.141-.3,2.007,2.007,0,0,1,1.137.875c.278.563-.148,1.05-.584,1.456a1,1,0,0,1-1.131.3,7.1,7.1,0,0,0-4.514.008c-.611.221-.841-.056-1.168-.38-.394-.39-.792-.811-.5-1.4.25-.5.569-1.006,1.317-.98" transform="translate(-281.986 -103.405)" fill="#fbd770"/>
    <path id="Trazado_281234" data-name="Trazado 281234" d="M299.826,182.369v2.114l-2.15-1.26,2.15-.854" transform="translate(-253.463 -155.282)" fill="#f96d50"/>
    <path id="Trazado_281235" data-name="Trazado 281235" d="M353.21,301.86c-.652.13-.871-.27-.894-.831a.829.829,0,0,1,.871-.954c.636-.033.891.271.923.944.031.647-.252.912-.9.841" transform="translate(-299.986 -255.503)" fill="#020101"/>
    <path id="Trazado_281236" data-name="Trazado 281236" d="M248.365,301.858c-.678.076-.906-.356-.986-.865-.067-.424.549-.952,1.03-.929a.851.851,0,0,1,.891.94c.028.7-.337.918-.935.854" transform="translate(-210.632 -255.495)" fill="#020101"/>
    <path id="Trazado_281237" data-name="Trazado 281237" d="M143.263,301.314c.007-.818.45-1.275,1-1.219.514.053.951.249.938.9-.011.54-.513,1.14-1.009,1a2.917,2.917,0,0,1-.927-.683" transform="translate(-121.984 -255.518)" fill="#020101"/>
    <path id="Trazado_281238" data-name="Trazado 281238" d="M38.965,301.286c.073-.82.365-1.165.94-1.177a.93.93,0,0,1,1.033.908A.988.988,0,0,1,39.9,302c-.385-.087-.691-.518-.932-.714" transform="translate(-33.178 -255.534)" fill="#020101"/>
    <path id="Trazado_281239" data-name="Trazado 281239" d="M210.279,59.668a1.148,1.148,0,0,1-.978,1.265,1.1,1.1,0,0,1-.932-1.046c.077-.5.286-.9.929-.886.621.019.942.292.98.666" transform="translate(-177.416 -50.237)" fill="#010101"/>
    <path id="Trazado_281240" data-name="Trazado 281240" d="M248.541,59.056a.765.765,0,0,1,.706.836,1.01,1.01,0,0,1-.991,1.088,1.179,1.179,0,0,1-.936-1.06c.021-.494.427-.859,1.221-.864" transform="translate(-210.585 -50.284)" fill="#010101"/>
    <path id="Trazado_281241" data-name="Trazado 281241" d="M241.249,112.086c-.041-.605.377-.837.85-.876a.967.967,0,0,1,1.093.892,1.18,1.18,0,0,1-1.056,1.013.934.934,0,0,1-.887-1.029" transform="translate(-205.415 -94.689)" fill="#010101"/>
    <path id="Trazado_281242" data-name="Trazado 281242" d="M215.229,112.12a.81.81,0,0,1,.861-.905,1.085,1.085,0,0,1,1.078.966,1.2,1.2,0,0,1-1.055.939.924.924,0,0,1-.885-1" transform="translate(-183.26 -94.694)" fill="#010101"/>
    <path id="Trazado_281243" data-name="Trazado 281243" d="M92.218,164.021c.662-.126,1.071.219.94.814a1.523,1.523,0,0,1-.909.918c-.532.169-1.006-.372-.976-.959s.318-.9.945-.773" transform="translate(-77.715 -139.635)" fill="#020101"/>
    <path id="Trazado_281244" data-name="Trazado 281244" d="M53.217,165.767a.891.891,0,0,1-.953-.959c0-.61.3-.833.923-.834a.86.86,0,0,1,.993.8c.064.425-.525,1-.963,1" transform="translate(-44.501 -139.619)" fill="#010101"/>
    <path id="Trazado_281245" data-name="Trazado 281245" d="M90.957,223.277c.088-.811.349-1.153.957-1.143.626.01,1.032.369,1.018.9a1.022,1.022,0,0,1-1.128.973c-.362-.092-.634-.537-.846-.732" transform="translate(-77.447 -189.14)" fill="#020101"/>
    <path id="Trazado_281246" data-name="Trazado 281246" d="M51.885,223.248c.106-.809.383-1.133.985-1.117a.929.929,0,0,1,.992,1c-.026.456-.671,1.044-1.143.882-.364-.126-.622-.558-.834-.763" transform="translate(-44.179 -189.138)" fill="#020101"/>
    <path id="Trazado_281247" data-name="Trazado 281247" d="M339.3,169.9c.7.038,1.177.116,1.13.864-.039.622-.423,1.108-.931,1.084-.358-.017-1.073-.7-.969-1.029.134-.423.2-1.034.77-.919" transform="translate(-288.24 -144.649)" fill="#020101"/>
  </g>
</svg>
