<svg id="Grupo_262622" data-name="Grupo 262622" xmlns="http://www.w3.org/2000/svg" xmlns:xlink="http://www.w3.org/1999/xlink" width="170.629" height="201.876" viewBox="0 0 170.629 201.876">
  <defs>
    <clipPath id="clip-path">
      <rect id="Rectángulo_325855" data-name="Rectángulo 325855" width="170.629" height="201.876" fill="none"/>
    </clipPath>
  </defs>
  <g id="Grupo_262621" data-name="Grupo 262621" clip-path="url(#clip-path)">
    <path id="Trazado_281248" data-name="Trazado 281248" d="M23.37,186.471a2.082,2.082,0,0,1-.786-1.914c0-3.992-.026-7.983.023-11.974a1.162,1.162,0,0,0-.957-1.339q-7.817-2.474-15.617-5c-1.539-.5-3.085-.976-4.6-1.531a1.98,1.98,0,0,1-1.286-2.7c.282-.874.574-1.745.85-2.621q2.256-7.171,4.506-14.344,1.657-5.283,3.3-10.569c.924-2.976,1.823-5.96,2.747-8.937.647-2.083,1.318-4.157,1.979-6.236q2.288-7.2,4.575-14.4,1.541-4.864,3.066-9.733c.247-.785.451-1.589.754-2.353a10.389,10.389,0,0,0,.658-3.9q0-35.858,0-71.716c0-.219,0-.438,0-.658.015-1.8.758-2.547,2.58-2.548q10.195-.008,20.39,0c1.146,0,1.153,0,1.509-1.1.4-1.222.774-2.449,1.17-3.671q1.162-3.592,2.335-7.179c.04-.125.082-.249.123-.373A2.148,2.148,0,0,1,53.733.177c5.022,1.592,10.036,3.208,15.056,4.808Q77.943,7.9,87.1,10.809c3.022.958,6.044,1.915,9.08,2.826a7.965,7.965,0,0,0,2.242.339Q121.146,14,143.87,14a3.984,3.984,0,0,1,1.714.308,2.031,2.031,0,0,1,1.056,1.977c-.008,4.3,0,8.6-.009,12.9,0,.443.072.731.557.885q9.719,3.087,19.428,6.2c.1.033.208.065.313.094,2.132.585,2.639,1.544,1.959,3.647-1.217,3.766-2.442,7.53-3.63,11.305q-4.03,12.8-8.028,25.61-1.913,6.1-3.832,12.205c-1.933,6.155-3.854,12.314-5.809,18.463a20.337,20.337,0,0,0-.969,6.371c.061,9.671.029,19.343.031,29.016,0,.11,0,.219,0,.329.006,1.212.016,1.177,1.165,1.467,2.947.745,5.892,1.5,8.825,2.3a57.459,57.459,0,0,1,6.088,1.828,11.653,11.653,0,0,1,7.733,9.249c.974,6.208-2.323,12.295-9.266,13.877a12.023,12.023,0,0,1-8.106-1.171c-1.93-.932-3.857-1.868-5.791-2.793a3.818,3.818,0,0,0-.66-.173c0,.993,0,1.911,0,2.829q0,6.811,0,13.62c0,.2-.022.393-.034.589a1.811,1.811,0,0,1-1.619-1.617c-.026-.186-.38-.439-.605-.464-.675-.074-1.361-.05-2.043-.064.027-.282.078-.564.078-.846,0-5.066-.014-10.132.022-15.2a1.309,1.309,0,0,0-.87-1.395c-3.521-1.658-7.026-3.352-10.53-5.047q-6.911-3.341-13.808-6.71c-.474-.232-.656-.1-.817.343-.428,1.191-.9,2.366-1.318,3.56a.717.717,0,0,0,.18.544c.413.509.9.963,1.287,1.489a9.31,9.31,0,0,1,1.844,7.314,9.17,9.17,0,0,1-11.935,7.034c-3.088-.944-6.085-2.185-9.123-3.292-4.907-1.788-9.791-3.646-14.731-5.341a9.468,9.468,0,0,1-6.027-9.967c.54-4.535,4.125-7.66,7.457-7.957a2.572,2.572,0,0,0,2.556-2.043c2.59-7.364,5.317-14.68,8.021-22a.93.93,0,0,0-.287-1.177,9.581,9.581,0,0,1-1.416-12.134,9.326,9.326,0,0,1,10.92-3.635c3.121,1,6.175,2.206,9.257,3.324,3.678,1.334,7.359,2.66,11.031,4.012a35.376,35.376,0,0,1,4.627,1.837c4.044,2.182,5.271,6.289,4.509,10.222-.9,4.654-4.648,7.05-8.681,7.348a.682.682,0,0,0-.716.511q-.67,1.92-1.392,3.82c-.149.394-.112.592.346.7,1.063.253,2.113.558,3.17.838q7.83,2.075,15.661,4.146c.731.194.773.158.764-.609,0-.11,0-.219,0-.329q0-61.581,0-123.162c0-.232-.022-.463-.037-.773h-2.024q-56.464,0-112.927,0a2.169,2.169,0,0,0-.571.161c-.015.072-.03.145-.045.218-.008.635-.022,1.271-.022,1.906q0,80.176,0,160.353c0,.482-.016.963-.024,1.445a5.81,5.81,0,0,0-.764.116,2.754,2.754,0,0,0-1.019.388,5.837,5.837,0,0,0-.975,1.169,3.862,3.862,0,0,0-.629,1.173,5.41,5.41,0,0,0-.013,1.33M146.644,96.643l.244-.547c.435-1.466.852-2.937,1.308-4.4q2.756-8.829,5.533-17.653,3.224-10.264,6.455-20.526c1.33-4.235,2.635-8.479,4-12.7.207-.64.138-.863-.5-1.065-4.792-1.515-9.574-3.064-14.361-4.6-.839-.269-1.685-.518-2.609-.8V36.03q0,25.261,0,50.521,0,4.571,0,9.143-.056.456-.111.912c-.025.051-.051.1-.072.152,0,.008.026.027.04.042l.073-.157m-95.3-83.091.006.34a.142.142,0,0,0,.113.033l.32.025q13.159,0,26.318,0c1.311,0,2.622-.025,3.933-.038l.988.063-.6-.243c-.964-.277-1.935-.53-2.89-.836-2.392-.767-4.775-1.565-7.166-2.337Q66.758,8.747,61.137,6.952c-2.164-.693-4.334-1.368-6.493-2.078-.45-.148-.63-.04-.747.4-.205.782-.457,1.551-.7,2.324q-.923,2.976-1.852,5.951M22.522,105.86v-.7l-.149,0-.059.683c-.951,2.978-1.911,5.953-2.85,8.935q-2.8,8.889-5.579,17.785-2.222,7.076-4.454,14.15C7.955,151.4,6.486,156.1,4.984,160.79c-.165.515-.049.7.43.843,1.276.387,2.542.81,3.811,1.221,3.993,1.295,7.981,2.6,11.98,3.878,1.329.424,1.343.389,1.343-1.012q0-26.515,0-53.03,0-2.959-.007-5.92l-.008-.148c-.007-.082-.014-.164-.022-.246,0-.049-.01-.1-.015-.147.007-.123.015-.245.023-.368m143.933,54.15a7.874,7.874,0,0,0-4.716-6.965,31.679,31.679,0,0,0-5.006-1.541c-4.117-1.112-8.247-2.179-12.369-3.274-3.909-1.038-7.815-2.092-11.725-3.132-3.656-.973-7.317-1.926-10.968-2.918-.623-.169-.926-.095-1.141.586-.612,1.94-1.293,3.859-1.977,5.775-.293.82-.323.82.443,1.19q11.3,5.455,22.6,10.911,6.6,3.187,13.182,6.39a8.6,8.6,0,0,0,5.538.851c4.167-.816,5.963-4.133,6.138-7.873M99.038,124.368c-.563-.022-.51.561-.641.918-1.343,3.634-2.653,7.279-3.986,10.917-1.287,3.514-2.6,7.019-3.878,10.537-.556,1.533-.518,1.519,1.043,2.085q9.472,3.438,18.928,6.914c.514.189.74.1.922-.409q1.935-5.409,3.907-10.806,2.182-5.948,4.417-11.877c.219-.58-.012-.711-.468-.878q-8.721-3.193-17.436-6.406c-.9-.332-1.812-.643-2.808-1m-18.2,32.065a4.72,4.72,0,0,0,3.385,4.839c1.867.689,3.739,1.366,5.61,2.046q8.79,3.194,17.579,6.39a5.364,5.364,0,0,0,3.521.072,4.608,4.608,0,0,0,3.358-4.31,5.25,5.25,0,0,0-3.242-5c-3.582-1.287-7.15-2.615-10.723-3.927q-6.871-2.52-13.742-5.036a2.515,2.515,0,0,0-.766-.147,4.744,4.744,0,0,0-4.979,5.07m48.3-32.747c0-2.575-.952-3.986-3.37-4.875-4.886-1.794-9.785-3.557-14.677-5.337-2.713-.987-5.427-1.973-8.133-2.979a5.657,5.657,0,0,0-4.29-.013c-3.041,1.268-3.392,4.456-2.64,6.622a3.387,3.387,0,0,0,1.914,2.3q11.273,4.142,22.562,8.241a16.7,16.7,0,0,0,3.368,1.057,4.655,4.655,0,0,0,5.266-5.016" transform="translate(0 0)" fill="#682f2a"/>
    <path id="Trazado_281249" data-name="Trazado 281249" d="M184.191,350.759c-.452-.036-.511.3-.61.621q-1.863,5.981-3.736,11.959a8.825,8.825,0,0,1-.379,1.048,1.971,1.971,0,0,1-2.49,1.128c-3.559-1.144-7.109-2.311-10.664-3.464-6.259-2.029-12.514-4.069-18.78-6.077q-7.836-2.511-15.7-4.947a11.144,11.144,0,0,0-1.711-.263,2.731,2.731,0,0,1-.027-2.066c.386-1.079.27-1.224-.641-1.888-.061-.044-.081-.144-.12-.218.175-.007.349-.021.524-.021H183.93c.175,0,.35.014.524.021a4.659,4.659,0,0,0-.515.454c-.158.184-.391.41-.381.608a9.342,9.342,0,0,0,.264,1.467c.117.548.246,1.092.369,1.638m-38.57.056-.013.093c.674.246,1.34.515,2.022.734,5,1.6,10,3.188,14.993,4.793q6.526,2.1,13.038,4.236c.495.163.643.023.78-.424.906-2.948,1.835-5.889,2.755-8.832.057-.181.091-.368.147-.6Z" transform="translate(-61.109 -163.749)" fill="#682f2a"/>
    <path id="Trazado_281250" data-name="Trazado 281250" d="M89.122,346.12c.039.074.06.174.12.218.912.664,1.027.809.641,1.888a2.731,2.731,0,0,0,.027,2.066c-.35.006-.7.016-1.05.016q-21.257.006-42.513.011a2.737,2.737,0,0,1-2.084-.571,5.387,5.387,0,0,1,.013-1.331,3.849,3.849,0,0,1,.629-1.173,5.82,5.82,0,0,1,.975-1.17,2.756,2.756,0,0,1,1.019-.388,5.815,5.815,0,0,1,.764-.115c.033.165.065.33.1.527h.88q19.843,0,39.686,0c.262,0,.525.013.787.021" transform="translate(-20.896 -163.277)" fill="#6d2a29"/>
    <path id="Trazado_281251" data-name="Trazado 281251" d="M232.756,350.724c-.123-.546-.253-1.091-.369-1.638a9.367,9.367,0,0,1-.264-1.467c-.01-.2.224-.425.382-.608a4.662,4.662,0,0,1,.515-.454q7.363-.01,14.726-.023c1.424,0,2.848-.025,4.272-.038.682.014,1.368-.009,2.044.064.224.025.578.278.6.464a1.812,1.812,0,0,0,1.619,1.618,2.182,2.182,0,0,1-2.362,2.1q-9.236.006-18.473,0c-.9,0-1.8-.014-2.693-.022" transform="translate(-109.674 -163.713)" fill="#6d2a29"/>
    <path id="Trazado_281252" data-name="Trazado 281252" d="M166.319,199.09c-1.424.013-2.848.035-4.272.038q-7.363.017-14.726.023c-.175-.007-.349-.021-.524-.021H92.726c-.175,0-.349.014-.524.021-.262-.007-.525-.021-.787-.021q-19.843,0-39.686,0h-.88c-.04-.2-.072-.362-.1-.527.008-.482.024-.963.024-1.445q0-80.177,0-160.353c0-.636.015-1.271.022-1.906l.046-.218a2.183,2.183,0,0,1,.571-.161q56.463-.009,112.927,0h2.024c.015.31.037.541.037.773q0,61.58,0,123.161c0,.11,0,.219,0,.329.009.766-.033.8-.763.609l-15.661-4.146c-1.057-.28-2.107-.586-3.17-.838-.457-.109-.5-.306-.346-.7q.72-1.9,1.392-3.82a.682.682,0,0,1,.715-.511c4.033-.3,7.78-2.694,8.681-7.348.762-3.933-.465-8.04-4.509-10.221a35.41,35.41,0,0,0-4.627-1.837c-3.672-1.351-7.352-2.678-11.031-4.012-3.082-1.118-6.136-2.327-9.257-3.324a9.326,9.326,0,0,0-10.92,3.635,9.581,9.581,0,0,0,1.417,12.134.93.93,0,0,1,.287,1.177c-2.705,7.324-5.432,14.64-8.021,22a2.573,2.573,0,0,1-2.556,2.043c-3.333.3-6.917,3.421-7.457,7.956a9.469,9.469,0,0,0,6.028,9.968c4.94,1.694,9.823,3.552,14.73,5.34,3.038,1.107,6.035,2.348,9.123,3.292a9.169,9.169,0,0,0,11.935-7.034,9.31,9.31,0,0,0-1.844-7.314c-.387-.526-.873-.98-1.286-1.489a.715.715,0,0,1-.18-.544c.419-1.194.889-2.37,1.317-3.56.161-.447.343-.575.817-.343q6.9,3.374,13.808,6.711c3.5,1.694,7.009,3.388,10.53,5.046a1.309,1.309,0,0,1,.87,1.4c-.035,5.065-.017,10.132-.022,15.2,0,.282-.051.564-.078.846M63.969,151.227c-.014.284-.04.568-.041.851q0,11.709,0,23.418c0,2.019.8,2.811,2.834,2.81q10.455-.007,20.911-.008c.833,0,1.668.033,2.5-.013a2.171,2.171,0,0,0,2.273-2.413c0-6.8-.007-13.595.014-20.392a1.529,1.529,0,0,1,.406-.964c1.728-1.775,3.491-3.516,5.239-5.27a7.029,7.029,0,0,0,.706-.778A2.028,2.028,0,0,0,99,146.293a1.9,1.9,0,0,0-1.83-1.141,2.4,2.4,0,0,0-1.84.835c-1.129,1.135-2.256,2.27-3.4,3.387a.855.855,0,0,1-.587.225c-.6-.047-1.2-.232-1.8-.233q-10.653-.023-21.306-.005c-.745,0-1.491-.008-2.236.016a1.991,1.991,0,0,0-1.973,1.672l-.055.179m26.526-46.536c-.591-.011-1.182-.03-1.772-.031q-11.144,0-22.287,0a2.213,2.213,0,0,0-2.5,2.322q-.014,12.167,0,24.333a2.154,2.154,0,0,0,2.314,2.288q11.965,0,23.93,0a2.135,2.135,0,0,0,2.27-2.254q.009-10.194,0-20.387a1.527,1.527,0,0,1,.482-1.212q2.815-2.765,5.578-5.58a2.132,2.132,0,0,0-.264-3.4,2,2,0,0,0-2.678.357c-1.056,1.019-2.108,2.047-3.1,3.123-.52.561-1,.933-1.763.492l-.2-.049M63.926,74.518q0,5.821,0,11.641c0,2.046.718,2.775,2.759,2.775l18.672,0c1.535,0,3.069.023,4.6,0,1.772-.031,2.489-.794,2.489-2.562,0-6.774-.007-13.548.02-20.323a1.6,1.6,0,0,1,.449-1c1.878-1.9,3.814-3.748,5.683-5.659a2.107,2.107,0,1,0-3.076-2.877c-1.233,1.184-2.451,2.384-3.693,3.558a.868.868,0,0,1-.6.192c-.493-.04-.981-.214-1.471-.215q-11.637-.022-23.275-.011c-1.741,0-2.557.824-2.558,2.583q0,5.953,0,11.9m66.9,1.7H147c1.469,0,2.938.023,4.406-.008a2.148,2.148,0,0,0,2.065-1.266,2.055,2.055,0,0,0-.291-2.224,2.636,2.636,0,0,0-2.249-.837q-19.927,0-39.852.006a7.04,7.04,0,0,0-1.3.131,2.092,2.092,0,0,0-1.561,2.44,2.158,2.158,0,0,0,2.284,1.757q10.161,0,20.321,0m.07,10.532h18.151c.9,0,1.8.017,2.7-.006a1.953,1.953,0,0,0,1.9-1.891,2.16,2.16,0,0,0-2.411-2.316q-20.321,0-40.642,0c-.132,0-.263,0-.395,0a2.226,2.226,0,0,0-1.94,2.717,2.044,2.044,0,0,0,2.06,1.494q10.292,0,20.584,0m-10.222-25.41v0c-3.418,0-6.837-.015-10.254.018a2.713,2.713,0,0,0-1.4.406,1.968,1.968,0,0,0-.736,2.381,2.185,2.185,0,0,0,2.086,1.415q10.321,0,20.641,0a2.149,2.149,0,0,0,2.238-2.162,2.253,2.253,0,0,0-2.186-2.079c-3.461.065-6.924.024-10.386.024m.051,48.83q5.161,0,10.322-.006a2.4,2.4,0,0,0,.893-.144,2.143,2.143,0,0,0,1.28-2.35,2.228,2.228,0,0,0-2.149-1.7c-1.292-.02-2.586-.006-3.879-.006q-8.35,0-16.7,0a2.309,2.309,0,0,0-2.242,1.582,2.036,2.036,0,0,0,2.153,2.627q5.161,0,10.322,0M81.461,43.85c2.213,0,4.427.009,6.64,0a2.088,2.088,0,0,0,1.986-2.874,2.152,2.152,0,0,0-2.2-1.33c-.986-.015-1.972,0-2.958,0-3.353,0-6.706-.009-10.059.005a2.416,2.416,0,0,0-2.215,1.279,2.049,2.049,0,0,0,.617,2.308,3.432,3.432,0,0,0,1.68.592c2.168.068,4.338.027,6.507.027m-20-4.35-.03.14a10.82,10.82,0,0,0-1.248.008c-.888.1-1.821.189-2.309,1.1a2.1,2.1,0,0,0,1.72,3.046,16.662,16.662,0,0,0,3.71-.188,1.675,1.675,0,0,0,1.4-1.539A1.852,1.852,0,0,0,63.655,40a13.643,13.643,0,0,0-2.19-.5" transform="translate(-23.976 -16.308)" fill="#f3f3f4"/>
    <path id="Trazado_281253" data-name="Trazado 281253" d="M272.47,287.288c-.175,3.74-1.971,7.057-6.138,7.873a8.6,8.6,0,0,1-5.539-.851q-6.58-3.217-13.182-6.39-11.3-5.459-22.6-10.911c-.766-.37-.736-.37-.444-1.19.685-1.916,1.366-3.835,1.978-5.775.215-.681.518-.755,1.141-.586,3.651.991,7.312,1.945,10.968,2.918,3.909,1.04,7.815,2.094,11.725,3.132,4.122,1.094,8.251,2.161,12.368,3.273a31.7,31.7,0,0,1,5.006,1.541,7.875,7.875,0,0,1,4.716,6.965" transform="translate(-106.015 -127.278)" fill="#f66760"/>
    <path id="Trazado_281254" data-name="Trazado 281254" d="M179.833,235.761c1,.352,1.905.664,2.808.995q8.718,3.2,17.436,6.407c.456.167.687.3.467.878q-2.245,5.924-4.417,11.876-1.978,5.393-3.907,10.806c-.182.508-.407.6-.922.409q-9.456-3.479-18.928-6.914c-1.561-.567-1.6-.553-1.043-2.085,1.277-3.519,2.591-7.023,3.878-10.537,1.333-3.638,2.643-7.283,3.986-10.917.132-.357.079-.94.641-.918" transform="translate(-80.795 -111.393)" fill="#fe8b82"/>
    <path id="Trazado_281255" data-name="Trazado 281255" d="M26.915,201.173c.007.082.014.164.022.246,0,.049.005.1.007.148q0,2.96.008,5.92,0,26.516,0,53.03c0,1.4-.014,1.436-1.343,1.012-4-1.277-7.987-2.584-11.98-3.878-1.269-.411-2.535-.834-3.811-1.221-.479-.146-.595-.328-.43-.843,1.5-4.687,2.971-9.386,4.449-14.081q2.227-7.074,4.454-14.149,2.792-8.892,5.579-17.785c.939-2.982,1.9-5.957,2.85-8.935l.207.02q-.012.184-.023.369c-.012.016-.037.036-.034.047a.6.6,0,0,0,.049.1" transform="translate(-4.4 -94.798)" fill="#e4e4e4"/>
    <path id="Trazado_281256" data-name="Trazado 281256" d="M278.119,126.462q0-4.571,0-9.143,0-25.26,0-50.52V65.121c.925.283,1.77.532,2.609.8,4.787,1.535,9.568,3.084,14.361,4.6.64.2.71.425.5,1.065-1.368,4.223-2.673,8.467-4,12.7q-3.224,10.264-6.454,20.526-2.772,8.825-5.534,17.653c-.455,1.46-.873,2.931-1.308,4.4-.059-.135-.117-.268-.175-.4" transform="translate(-131.405 -30.769)" fill="#e4e4e4"/>
    <path id="Trazado_281257" data-name="Trazado 281257" d="M153.234,292a4.745,4.745,0,0,1,4.979-5.07,2.537,2.537,0,0,1,.767.147q6.874,2.51,13.742,5.036c3.574,1.311,7.141,2.64,10.723,3.926a5.252,5.252,0,0,1,3.242,5,4.608,4.608,0,0,1-3.358,4.31,5.361,5.361,0,0,1-3.521-.073q-8.785-3.209-17.579-6.391c-1.871-.68-3.743-1.357-5.61-2.046A4.718,4.718,0,0,1,153.234,292" transform="translate(-72.4 -135.569)" fill="#fea39e"/>
    <path id="Trazado_281258" data-name="Trazado 281258" d="M214.836,222.269a4.655,4.655,0,0,1-5.266,5.016,16.709,16.709,0,0,1-3.368-1.057q-11.287-4.1-22.562-8.241a3.386,3.386,0,0,1-1.914-2.3c-.752-2.165-.4-5.354,2.64-6.621a5.654,5.654,0,0,1,4.29.013q4.059,1.508,8.133,2.979c4.892,1.78,9.79,3.543,14.677,5.337,2.419.888,3.368,2.3,3.37,4.875m-13.7-2.586a2.185,2.185,0,0,0,2.335-1.75,2.155,2.155,0,0,0-1.335-2.316c-1.867-.743-3.74-1.482-5.647-2.114a2.591,2.591,0,0,0-1.685.153,1.841,1.841,0,0,0-1.12,1.916,2.116,2.116,0,0,0,1.482,1.906c1.6.6,3.182,1.225,4.778,1.826.466.176.95.3,1.193.379m-8.776-5.944a1.536,1.536,0,0,0-.677-1.484,25.561,25.561,0,0,0-2.335-1.3,2.1,2.1,0,0,0-2.692,1.1,2.062,2.062,0,0,0,.938,2.7c.62.325,1.239.655,1.876.943a2.034,2.034,0,0,0,2.89-1.952" transform="translate(-85.703 -98.583)" fill="#fda39e"/>
    <path id="Trazado_281259" data-name="Trazado 281259" d="M128.03,18.221c-1.311.013-2.622.037-3.934.038q-13.159,0-26.318,0l-.32-.025a.146.146,0,0,1-.113-.033q0-.171-.007-.341.927-2.975,1.852-5.951c.24-.772.492-1.542.7-2.324.117-.444.3-.552.747-.4,2.159.71,4.329,1.385,6.493,2.078q5.62,1.8,11.237,3.608c2.391.772,4.773,1.57,7.166,2.337.954.305,1.926.559,2.889.836l-.389.179" transform="translate(-45.991 -4.309)" fill="#e4e4e4"/>
    <path id="Trazado_281260" data-name="Trazado 281260" d="M42.508,200.046l-.207-.02q.03-.342.059-.684l.148,0Z" transform="translate(-19.987 -94.186)" fill="#bcadad"/>
    <path id="Trazado_281261" data-name="Trazado 281261" d="M155.519,26.211l.389-.179.6.243-.988-.063" transform="translate(-73.48 -12.3)" fill="#bcadad"/>
    <path id="Trazado_281262" data-name="Trazado 281262" d="M278.021,181.4c.058.134.116.268.175.4q-.123.273-.244.546l-.043-.037c.037-.3.075-.608.112-.912" transform="translate(-131.307 -85.71)" fill="#a17e7a"/>
    <path id="Trazado_281263" data-name="Trazado 281263" d="M277.888,183.17l-.074.157c-.014-.014-.042-.034-.039-.041.02-.052.047-.1.071-.152l.042.037" transform="translate(-131.244 -86.527)" fill="#a17e7a"/>
    <path id="Trazado_281264" data-name="Trazado 281264" d="M97.566,26.4l.32.025-.32-.025" transform="translate(-46.098 -12.473)" fill="#bcadad"/>
    <path id="Trazado_281265" data-name="Trazado 281265" d="M97.34,25.691c0,.113,0,.227.007.34q0-.17-.007-.34" transform="translate(-45.992 -12.139)" fill="#bcadad"/>
    <path id="Trazado_281266" data-name="Trazado 281266" d="M42.728,202.268c0-.049,0-.1-.007-.148,0,.05,0,.1.007.148" transform="translate(-20.185 -95.498)" fill="#bcadad"/>
    <path id="Trazado_281267" data-name="Trazado 281267" d="M42.636,201.522a.6.6,0,0,1-.049-.1c0-.011.022-.031.034-.047.005.049.01.1.015.147" transform="translate(-20.121 -95.146)" fill="#bcadad"/>
    <path id="Trazado_281268" data-name="Trazado 281268" d="M50.884,34.829l-.046.218.046-.218" transform="translate(-24.02 -16.456)" fill="#e4e3e3"/>
    <path id="Trazado_281269" data-name="Trazado 281269" d="M160.2,354.617h33.721c-.056.233-.091.42-.147.6-.919,2.944-1.848,5.884-2.755,8.832-.137.446-.285.587-.78.424q-6.51-2.144-13.038-4.236c-5-1.606-10-3.191-14.993-4.794-.682-.219-1.348-.488-2.022-.734l.013-.093" transform="translate(-75.684 -167.551)" fill="#e4e3e3"/>
    <path id="Trazado_281270" data-name="Trazado 281270" d="M102.493,163.754c.759.441,1.244.069,1.764-.492,1-1.077,2.049-2.1,3.1-3.124a2,2,0,0,1,2.678-.357,2.132,2.132,0,0,1,.264,3.4q-2.764,2.815-5.578,5.581a1.526,1.526,0,0,0-.482,1.212q.021,10.193,0,20.387a2.135,2.135,0,0,1-2.27,2.254q-11.965.006-23.93,0a2.153,2.153,0,0,1-2.314-2.288q-.013-12.167,0-24.333a2.214,2.214,0,0,1,2.5-2.323q11.144-.005,22.287,0c.59,0,1.181.02,1.772.031l.2.049m-2.558,10.019-.265.025q-2.079,2.1-4.16,4.2c-1.066,1.072-2.122,2.154-3.214,3.2-.98.938-2.066,1.1-2.944.3-1.316-1.186-2.576-2.443-3.772-3.751a1.906,1.906,0,0,1,.166-2.775,1.988,1.988,0,0,1,2.79-.16c.606.5,1.139,1.087,1.707,1.632.121.116.252.222.459.4l8.541-8.613.239-.234-.248-.089c-.393.022-.786.062-1.179.063-5.766,0-11.531.012-17.3-.015-.6,0-.737.178-.736.74q.025,9.474,0,18.947c0,.57.156.75.742.748q9.241-.029,18.481,0c.613,0,.8-.225.792-.812-.024-2.053-.009-4.105-.009-6.157,0-1.752.009-3.5,0-5.255-.006-.8-.057-1.6-.088-2.4" transform="translate(-35.78 -75.321)" fill="#682f29"/>
    <path id="Trazado_281271" data-name="Trazado 281271" d="M75.831,250.143a1.99,1.99,0,0,1,1.973-1.672c.744-.024,1.49-.016,2.235-.016q10.653,0,21.306.005c.6,0,1.2.186,1.8.233a.852.852,0,0,0,.588-.224c1.146-1.117,2.273-2.253,3.4-3.387a2.406,2.406,0,0,1,1.841-.835,1.9,1.9,0,0,1,1.83,1.141,2.027,2.027,0,0,1-.188,2.177,7.082,7.082,0,0,1-.707.777c-1.748,1.755-3.511,3.5-5.239,5.27a1.531,1.531,0,0,0-.405.964c-.022,6.8-.012,13.594-.014,20.392a2.172,2.172,0,0,1-2.273,2.413c-.831.046-1.665.012-2.5.013q-10.456,0-20.911.007c-2.038,0-2.835-.79-2.834-2.81q0-11.709,0-23.418c0-.284.026-.568.04-.851l.055-.179m24.107,8.312-.144-.031q-.855.863-1.71,1.725-2.9,2.908-5.8,5.812a2.022,2.022,0,0,1-2.941.285c-1.319-1.216-2.576-2.5-3.8-3.811a1.768,1.768,0,0,1-.3-1.973,2.127,2.127,0,0,1,3.467-.774c.518.471,1.008.975,1.478,1.494.329.363.561.349.9,0,1.9-1.939,3.831-3.853,5.742-5.785.84-.85,1.657-1.722,2.543-2.644-.258-.026-.486-.068-.713-.068q-8.908,0-17.816,0a5.059,5.059,0,0,0-.819.134l-.046.125c.017.2.05.391.05.586q0,8.6,0,17.208c0,.612-.028,1.224-.044,1.836,0,.081,0,.161.005.242a1.934,1.934,0,0,0,.651.27q9.588.017,19.175,0l.189-.775q0-.211,0-.421.013-.333.028-.665v-1.053l0-.353c0-.059,0-.118,0-.177,0-.117,0-.233,0-.35,0-.059,0-.118,0-.177v-3.158c0-.117,0-.233,0-.35v-.177q0-.175,0-.349c0-.059,0-.118,0-.177,0-.117,0-.233,0-.349,0-.059,0-.118,0-.177,0-.117,0-.233,0-.35,0-.059,0-.118,0-.177,0-.117,0-.233,0-.35v-.177c0-.118,0-.235,0-.353q0-.612,0-1.223c0-.118,0-.235,0-.352v-.178c0-.117,0-.233,0-.35,0-.058,0-.116,0-.175,0-.118,0-.236,0-.354,0-.091-.009-.181-.014-.271l-.017-.546q.028-.324.056-.649l-.017-.249-.073-.154-.019-.022" transform="translate(-35.783 -115.402)" fill="#682f29"/>
    <path id="Trazado_281272" data-name="Trazado 281272" d="M75.731,93.555q0-5.952,0-11.9c0-1.759.818-2.583,2.557-2.583q11.638,0,23.275.011c.49,0,.977.176,1.471.215a.865.865,0,0,0,.6-.192c1.242-1.174,2.46-2.373,3.693-3.558a2.107,2.107,0,1,1,3.076,2.876c-1.87,1.911-3.8,3.758-5.683,5.66a1.593,1.593,0,0,0-.449,1c-.026,6.774-.021,13.549-.02,20.323,0,1.768-.717,2.532-2.489,2.562-1.533.027-3.069,0-4.6,0l-18.672,0c-2.042,0-2.76-.729-2.759-2.775q.006-5.821,0-11.641M98.6,83.306c-5.963,0-11.924,0-17.886-.017-.572,0-.707.2-.689.726.033,1,.012,2.01.007,3.015q-.032,7.99-.068,15.979c0,.053,0,.106-.007.159l.121.5.235.045.286.016.243-.013H96.63l1.335,0H99.02l.632,0,.149-.028.223-.166q0-6.885,0-13.771l0-.165-.178-.933c-.492.519-.841.91-1.214,1.277C96.461,92.062,94.3,94.2,92.1,96.312a1.925,1.925,0,0,1-2.737.136c-1.3-1.2-2.571-2.447-3.768-3.753a1.921,1.921,0,0,1,.212-2.866,2.14,2.14,0,0,1,2.871.04c.529.493,1.028,1.018,1.536,1.532a.524.524,0,0,0,.878,0c2.318-2.3,4.655-4.58,6.984-6.868.35-.344.691-.7,1.076-1.089l-.4-.142-.152,0" transform="translate(-35.781 -35.345)" fill="#682f29"/>
    <path id="Trazado_281273" data-name="Trazado 281273" d="M182.264,109.694q-10.161,0-20.321,0a2.157,2.157,0,0,1-2.284-1.757,2.092,2.092,0,0,1,1.561-2.439,7.037,7.037,0,0,1,1.3-.132q19.926-.01,39.852-.005a2.636,2.636,0,0,1,2.249.837,2.055,2.055,0,0,1,.291,2.224,2.148,2.148,0,0,1-2.065,1.266c-1.468.03-2.937.007-4.406.007H182.264" transform="translate(-75.415 -49.781)" fill="#cbc9c9"/>
    <path id="Trazado_281274" data-name="Trazado 281274" d="M182.325,129.768q-10.292,0-20.584,0a2.044,2.044,0,0,1-2.06-1.494,2.226,2.226,0,0,1,1.94-2.717c.131,0,.263,0,.395,0q20.321,0,40.642,0a2.16,2.16,0,0,1,2.411,2.316,1.953,1.953,0,0,1-1.9,1.891c-.9.023-1.8.006-2.7.006q-9.075,0-18.151,0" transform="translate(-75.406 -59.321)" fill="#cbc9c9"/>
    <path id="Trazado_281275" data-name="Trazado 281275" d="M172.089,85.349c3.462,0,6.925.041,10.386-.024a2.253,2.253,0,0,1,2.186,2.08,2.149,2.149,0,0,1-2.239,2.161q-10.321.006-20.641,0a2.185,2.185,0,0,1-2.086-1.415,1.966,1.966,0,0,1,.736-2.381,2.707,2.707,0,0,1,1.4-.406c3.418-.033,6.836-.018,10.254-.018Z" transform="translate(-75.391 -40.314)" fill="#fea49e"/>
    <path id="Trazado_281276" data-name="Trazado 281276" d="M172.175,174.162q-5.161,0-10.322,0a2.036,2.036,0,0,1-2.153-2.627,2.309,2.309,0,0,1,2.242-1.582q8.35,0,16.7,0c1.294,0,2.586-.014,3.879.006a2.228,2.228,0,0,1,2.149,1.7,2.143,2.143,0,0,1-1.28,2.35,2.4,2.4,0,0,1-.893.144q-5.162.014-10.322.006" transform="translate(-75.426 -80.297)" fill="#8cf2ed"/>
    <path id="Trazado_281277" data-name="Trazado 281277" d="M100.956,48.436c-2.17,0-4.34.041-6.507-.027a3.43,3.43,0,0,1-1.68-.591,2.049,2.049,0,0,1-.618-2.308,2.417,2.417,0,0,1,2.216-1.279c3.353-.014,6.706-.006,10.059-.006.986,0,1.972-.012,2.958,0a2.151,2.151,0,0,1,2.2,1.33,2.088,2.088,0,0,1-1.986,2.874c-2.213.012-4.426,0-6.64,0" transform="translate(-43.471 -20.894)" fill="#fefefe"/>
    <path id="Trazado_281278" data-name="Trazado 281278" d="M67.634,43.964a13.641,13.641,0,0,1,2.19.5,1.852,1.852,0,0,1,1.049,2.071,1.675,1.675,0,0,1-1.4,1.539,16.662,16.662,0,0,1-3.709.188,2.1,2.1,0,0,1-1.72-3.046c.488-.912,1.421-1,2.309-1.1A10.819,10.819,0,0,1,67.6,44.1l.03-.14" transform="translate(-30.145 -20.772)" fill="#fefefe"/>
    <path id="Trazado_281279" data-name="Trazado 281279" d="M75.868,255.423l-.055.18.055-.18" transform="translate(-35.82 -120.683)" fill="#7a4945"/>
    <path id="Trazado_281280" data-name="Trazado 281280" d="M126.293,167.6l-.2-.049.2.049" transform="translate(-59.579 -79.163)" fill="#7a4945"/>
    <path id="Trazado_281281" data-name="Trazado 281281" d="M212.136,223.958c-.243-.076-.727-.2-1.193-.379-1.6-.6-3.183-1.225-4.778-1.826a2.114,2.114,0,0,1-1.483-1.905,1.841,1.841,0,0,1,1.121-1.916,2.591,2.591,0,0,1,1.685-.153c1.906.631,3.779,1.37,5.647,2.113a2.155,2.155,0,0,1,1.335,2.316,2.185,2.185,0,0,1-2.335,1.75" transform="translate(-96.706 -102.858)" fill="#fefdfd"/>
    <path id="Trazado_281282" data-name="Trazado 281282" d="M196.919,215.644a2.034,2.034,0,0,1-2.89,1.952c-.637-.288-1.257-.618-1.876-.943a2.062,2.062,0,0,1-.938-2.7,2.1,2.1,0,0,1,2.692-1.1,25.56,25.56,0,0,1,2.335,1.3,1.536,1.536,0,0,1,.677,1.484" transform="translate(-90.265 -100.489)" fill="#fefdfd"/>
    <path id="Trazado_281283" data-name="Trazado 281283" d="M103.091,175.854l-8.54,8.613c-.207-.18-.339-.286-.459-.4-.568-.545-1.1-1.133-1.707-1.632a1.988,1.988,0,0,0-2.79.16,1.906,1.906,0,0,0-.166,2.775c1.2,1.307,2.456,2.564,3.772,3.751.878.792,1.964.633,2.944-.3,1.091-1.045,2.148-2.127,3.213-3.2q2.085-2.1,4.161-4.2l.265-.025c.031.8.082,1.6.088,2.4.014,1.752,0,3.5,0,5.255,0,2.053-.014,4.105.009,6.158.007.588-.179.814-.792.812q-9.24-.027-18.48,0c-.587,0-.743-.178-.742-.748q.025-9.473,0-18.947c0-.561.132-.742.735-.74,5.766.027,11.531.018,17.3.015.393,0,.786-.041,1.18-.063,0,.108.006.216.009.324" transform="translate(-39.627 -82.935)" fill="#f94867"/>
    <path id="Trazado_281284" data-name="Trazado 281284" d="M120.3,175.854c0-.108-.006-.216-.009-.323l.248.089-.239.234" transform="translate(-56.834 -82.936)" fill="#aa3942"/>
    <path id="Trazado_281285" data-name="Trazado 281285" d="M121.38,186.632l-.265.025.265-.025" transform="translate(-57.225 -88.181)" fill="#aa3942"/>
    <path id="Trazado_281286" data-name="Trazado 281286" d="M103.823,270.534c0,.118,0,.235,0,.352v.177c0,.117,0,.233,0,.35,0,.059,0,.118,0,.176v.35c0,.059,0,.118,0,.177,0,.116,0,.233,0,.349,0,.059,0,.118,0,.177q0,.175,0,.35v.177c0,.117,0,.233,0,.35,0,.059,0,.118,0,.177v.349q0,.089,0,.177v.349c0,.059,0,.118,0,.177v1.928c0,.059,0,.118,0,.177v.35c0,.059,0,.118,0,.177l0,.352v1.054q-.013.332-.028.665c0,.14,0,.281,0,.42l-.189.775q-9.587.006-19.175,0a1.936,1.936,0,0,1-.651-.27c0-.081,0-.161-.006-.242.016-.612.044-1.224.044-1.836q.007-8.6,0-17.207c0-.2-.033-.391-.05-.586l.046-.124a4.952,4.952,0,0,1,.819-.134q8.907-.013,17.816,0c.227,0,.455.042.713.068-.886.922-1.7,1.795-2.543,2.644-1.91,1.932-3.839,3.846-5.742,5.785-.343.349-.576.363-.9,0-.47-.519-.96-1.023-1.478-1.494a2.128,2.128,0,0,0-3.467.775,1.766,1.766,0,0,0,.3,1.972c1.228,1.309,2.485,2.6,3.8,3.811a2.022,2.022,0,0,0,2.941-.285q2.91-2.9,5.8-5.812.857-.86,1.71-1.725l.144.031.019.021.074.154c.005.083.011.166.017.249q-.028.324-.056.65.009.273.017.545c0,.09.009.181.014.271,0,.118,0,.236,0,.355,0,.058,0,.117,0,.175q0,.175,0,.35v.178c0,.118,0,.235,0,.352q0,.612,0,1.223" transform="translate(-39.582 -122.959)" fill="#fdcc03"/>
    <path id="Trazado_281287" data-name="Trazado 281287" d="M121.78,278.658q0-.612,0-1.223,0,.612,0,1.223" transform="translate(-57.539 -131.083)" fill="#8e712e"/>
    <path id="Trazado_281288" data-name="Trazado 281288" d="M121.375,298.229l.189-.775q-.094.388-.189.775" transform="translate(-57.348 -140.542)" fill="#8e712e"/>
    <path id="Trazado_281289" data-name="Trazado 281289" d="M121.72,272.634l.055-.649-.055.649" transform="translate(-57.511 -128.508)" fill="#8e712e"/>
    <path id="Trazado_281290" data-name="Trazado 281290" d="M121.78,294.1v0" transform="translate(-57.539 -138.627)" fill="#8e712e"/>
    <path id="Trazado_281291" data-name="Trazado 281291" d="M121.727,296.061q.014-.332.028-.665-.014.333-.028.665" transform="translate(-57.514 -139.57)" fill="#8e712e"/>
    <path id="Trazado_281292" data-name="Trazado 281292" d="M83.781,297.953c0,.081,0,.161.005.242,0-.081,0-.161-.005-.242" transform="translate(-39.585 -140.778)" fill="#8e712e"/>
    <path id="Trazado_281293" data-name="Trazado 281293" d="M121.767,274.521c0-.091-.009-.181-.014-.271,0,.09.009.181.014.271" transform="translate(-57.526 -129.579)" fill="#8e712e"/>
    <path id="Trazado_281294" data-name="Trazado 281294" d="M83.821,260.506c-.015.042-.03.083-.046.125l.046-.125" transform="translate(-39.582 -123.085)" fill="#8e712e"/>
    <path id="Trazado_281295" data-name="Trazado 281295" d="M121.776,280.6v0" transform="translate(-57.537 -132.495)" fill="#8e712e"/>
    <path id="Trazado_281296" data-name="Trazado 281296" d="M121.727,271.375l-.073-.154.073.154" transform="translate(-57.48 -128.148)" fill="#8e712e"/>
    <path id="Trazado_281297" data-name="Trazado 281297" d="M121.779,275.611c0-.058,0-.117,0-.175,0,.058,0,.117,0,.175" transform="translate(-57.539 -130.139)" fill="#8e712e"/>
    <path id="Trazado_281298" data-name="Trazado 281298" d="M121.777,276.608v0" transform="translate(-57.538 -130.609)" fill="#8e712e"/>
    <path id="Trazado_281299" data-name="Trazado 281299" d="M121.776,281.6v0" transform="translate(-57.537 -132.966)" fill="#8e712e"/>
    <path id="Trazado_281300" data-name="Trazado 281300" d="M121.777,282.595c0-.059,0-.118,0-.177,0,.059,0,.118,0,.177" transform="translate(-57.537 -133.438)" fill="#8e712e"/>
    <path id="Trazado_281301" data-name="Trazado 281301" d="M121.777,283.593c0-.059,0-.118,0-.177,0,.059,0,.118,0,.177" transform="translate(-57.537 -133.909)" fill="#8e712e"/>
    <path id="Trazado_281302" data-name="Trazado 281302" d="M121.776,284.591v0" transform="translate(-57.537 -134.381)" fill="#8e712e"/>
    <path id="Trazado_281303" data-name="Trazado 281303" d="M121.775,285.589v0" transform="translate(-57.537 -134.852)" fill="#8e712e"/>
    <path id="Trazado_281304" data-name="Trazado 281304" d="M121.775,286.586v0" transform="translate(-57.537 -135.324)" fill="#8e712e"/>
    <path id="Trazado_281305" data-name="Trazado 281305" d="M121.489,271.154l-.144-.031.144.031" transform="translate(-57.334 -128.101)" fill="#8e712e"/>
    <path id="Trazado_281306" data-name="Trazado 281306" d="M121.775,287.583v0" transform="translate(-57.537 -135.795)" fill="#8e712e"/>
    <path id="Trazado_281307" data-name="Trazado 281307" d="M121.775,288.582v0" transform="translate(-57.537 -136.267)" fill="#8e712e"/>
    <path id="Trazado_281308" data-name="Trazado 281308" d="M121.775,289.58v0" transform="translate(-57.537 -136.738)" fill="#8e712e"/>
    <path id="Trazado_281309" data-name="Trazado 281309" d="M121.775,290.577v0" transform="translate(-57.537 -137.209)" fill="#8e712e"/>
    <path id="Trazado_281310" data-name="Trazado 281310" d="M121.775,291.574c0-.059,0-.118,0-.177,0,.059,0,.118,0,.177" transform="translate(-57.537 -137.68)" fill="#8e712e"/>
    <path id="Trazado_281311" data-name="Trazado 281311" d="M121.777,292.574c0-.059,0-.118,0-.177,0,.059,0,.118,0,.177" transform="translate(-57.537 -138.153)" fill="#8e712e"/>
    <path id="Trazado_281312" data-name="Trazado 281312" d="M102.544,90.9l.4.142c-.385.39-.725.745-1.076,1.089C99.542,94.417,97.2,96.7,94.887,99a.525.525,0,0,1-.878,0c-.509-.514-1.008-1.039-1.537-1.532a2.141,2.141,0,0,0-2.871-.04,1.92,1.92,0,0,0-.212,2.866c1.2,1.306,2.466,2.551,3.768,3.753a1.925,1.925,0,0,0,2.737-.136c2.193-2.11,4.357-4.25,6.527-6.383.373-.367.722-.758,1.215-1.277.081.424.129.678.178.933l0,.165q0,6.886,0,13.771l-.223.166-.148.029-.632,0h-1.055l-1.335,0H87.793a.133.133,0,0,0-.117,0h-.409a.134.134,0,0,0-.117,0h-.409a.131.131,0,0,0-.117,0H85.442l-.808,0-.243.013-.286-.016-.235-.045q-.061-.248-.121-.5c.014-.015.041-.033.04-.047a.618.618,0,0,0-.032-.111q.034-7.989.068-15.979c0-1.005.025-2.011-.008-3.016-.017-.525.117-.728.689-.726,5.962.021,11.924.016,17.886.017l.152,0" transform="translate(-39.57 -42.941)" fill="#aab633"/>
    <path id="Trazado_281313" data-name="Trazado 281313" d="M119.882,129.6l.633,0-.633,0" transform="translate(-56.642 -61.235)" fill="#7a4945"/>
    <path id="Trazado_281314" data-name="Trazado 281314" d="M99.927,129.607h0" transform="translate(-47.214 -61.237)" fill="#7a4945"/>
    <path id="Trazado_281315" data-name="Trazado 281315" d="M91.947,129.606h0" transform="translate(-43.443 -61.237)" fill="#7a4945"/>
    <path id="Trazado_281316" data-name="Trazado 281316" d="M106.91,129.607h0" transform="translate(-50.513 -61.237)" fill="#7a4945"/>
    <path id="Trazado_281317" data-name="Trazado 281317" d="M107.907,129.607h0" transform="translate(-50.984 -61.237)" fill="#7a4945"/>
    <path id="Trazado_281318" data-name="Trazado 281318" d="M108.9,129.607h0" transform="translate(-51.456 -61.237)" fill="#7a4945"/>
    <path id="Trazado_281319" data-name="Trazado 281319" d="M109.9,129.607h0" transform="translate(-51.927 -61.237)" fill="#7a4945"/>
    <path id="Trazado_281320" data-name="Trazado 281320" d="M110.9,129.607h0" transform="translate(-52.398 -61.237)" fill="#7a4945"/>
    <path id="Trazado_281321" data-name="Trazado 281321" d="M111.9,129.607h0" transform="translate(-52.869 -61.237)" fill="#7a4945"/>
    <path id="Trazado_281322" data-name="Trazado 281322" d="M112.895,129.606h0" transform="translate(-53.341 -61.237)" fill="#7a4945"/>
    <path id="Trazado_281323" data-name="Trazado 281323" d="M113.892,129.606h0" transform="translate(-53.812 -61.237)" fill="#7a4945"/>
    <path id="Trazado_281324" data-name="Trazado 281324" d="M114.89,129.606h0" transform="translate(-54.284 -61.237)" fill="#7a4945"/>
    <path id="Trazado_281325" data-name="Trazado 281325" d="M117.882,129.6h0" transform="translate(-55.697 -61.234)" fill="#7a4945"/>
    <path id="Trazado_281326" data-name="Trazado 281326" d="M118.88,129.6h0" transform="translate(-56.169 -61.234)" fill="#7a4945"/>
    <path id="Trazado_281327" data-name="Trazado 281327" d="M104.915,129.607h0" transform="translate(-49.571 -61.237)" fill="#7a4945"/>
    <path id="Trazado_281328" data-name="Trazado 281328" d="M103.917,129.607h0" transform="translate(-49.099 -61.237)" fill="#7a4945"/>
    <path id="Trazado_281329" data-name="Trazado 281329" d="M102.92,129.607h0" transform="translate(-48.628 -61.237)" fill="#7a4945"/>
    <path id="Trazado_281330" data-name="Trazado 281330" d="M101.922,129.607h0" transform="translate(-48.156 -61.237)" fill="#7a4945"/>
    <path id="Trazado_281331" data-name="Trazado 281331" d="M100.925,129.607h0" transform="translate(-47.685 -61.237)" fill="#7a4945"/>
    <path id="Trazado_281332" data-name="Trazado 281332" d="M98.93,129.607h0" transform="translate(-46.743 -61.237)" fill="#7a4945"/>
    <path id="Trazado_281333" data-name="Trazado 281333" d="M97.932,129.607h0" transform="translate(-46.271 -61.237)" fill="#7a4945"/>
    <path id="Trazado_281334" data-name="Trazado 281334" d="M96.935,129.607h0" transform="translate(-45.8 -61.237)" fill="#7a4945"/>
    <path id="Trazado_281335" data-name="Trazado 281335" d="M121.362,129.4l.223-.166-.223.166" transform="translate(-57.342 -61.063)" fill="#8e712e"/>
    <path id="Trazado_281336" data-name="Trazado 281336" d="M83.979,129.511l.235.045-.235-.045" transform="translate(-39.679 -61.192)" fill="#7a4945"/>
    <path id="Trazado_281337" data-name="Trazado 281337" d="M84.967,129.617l.243-.013-.243.013" transform="translate(-40.146 -61.236)" fill="#7a4945"/>
    <path id="Trazado_281338" data-name="Trazado 281338" d="M95.937,129.607h0" transform="translate(-45.329 -61.237)" fill="#7a4945"/>
    <path id="Trazado_281339" data-name="Trazado 281339" d="M94.94,129.607h0" transform="translate(-44.858 -61.237)" fill="#7a4945"/>
    <path id="Trazado_281340" data-name="Trazado 281340" d="M93.942,129.607h0" transform="translate(-44.386 -61.237)" fill="#7a4945"/>
    <path id="Trazado_281341" data-name="Trazado 281341" d="M92.945,129.606h0" transform="translate(-43.915 -61.237)" fill="#7a4945"/>
    <path id="Trazado_281342" data-name="Trazado 281342" d="M86.959,129.6h0" transform="translate(-41.087 -61.236)" fill="#7a4945"/>
    <path id="Trazado_281343" data-name="Trazado 281343" d="M105.912,129.607h0" transform="translate(-50.042 -61.237)" fill="#7a4945"/>
    <path id="Trazado_281344" data-name="Trazado 281344" d="M87.958,129.607h0" transform="translate(-41.559 -61.237)" fill="#7a4945"/>
    <path id="Trazado_281345" data-name="Trazado 281345" d="M90.2,129.595a.132.132,0,0,1,.116,0H90.2" transform="translate(-42.617 -61.225)" fill="#7a4945"/>
    <path id="Trazado_281346" data-name="Trazado 281346" d="M89.2,129.595a.134.134,0,0,1,.117,0H89.2" transform="translate(-42.146 -61.225)" fill="#7a4945"/>
    <path id="Trazado_281347" data-name="Trazado 281347" d="M83.756,128.269a.61.61,0,0,1,.032.112c0,.014-.026.031-.04.047,0-.053,0-.106.007-.159" transform="translate(-39.57 -60.605)" fill="#8e712e"/>
    <path id="Trazado_281348" data-name="Trazado 281348" d="M121.777,102.985l0-.165,0,.165" transform="translate(-57.538 -48.581)" fill="#8e712e"/>
    <path id="Trazado_281349" data-name="Trazado 281349" d="M119.241,90.91l-.152,0,.152,0" transform="translate(-56.268 -42.953)" fill="#8e712e"/>
    <path id="Trazado_281350" data-name="Trazado 281350" d="M91.2,129.595a.131.131,0,0,1,.117,0H91.2" transform="translate(-43.088 -61.225)" fill="#7a4945"/>
  </g>
</svg>
