<svg xmlns="http://www.w3.org/2000/svg" xmlns:xlink="http://www.w3.org/1999/xlink" width="460" height="317" viewBox="0 0 460 317">
  <defs>
    <linearGradient id="linear-gradient" x1="0.5" x2="0.5" y2="1" gradientUnits="objectBoundingBox">
      <stop offset="0" stop-color="#f9fef5"/>
      <stop offset="1" stop-color="#e7f7f8"/>
    </linearGradient>
    <clipPath id="clip-path">
      <rect id="Rectángulo_375545" data-name="Rectángulo 375545" width="283.535" height="278.436" fill="none"/>
    </clipPath>
    <clipPath id="clip-path-2">
      <path id="Trazado_814959" data-name="Trazado 814959" d="M2.532,1356.154c-9.359,13.253,10.35,25.953,8.956,41.539-1.325,14.81,7.919,22.969,24,25.27s11.277,10.771,12.048,24.053c.926,15.955,23.687,9.962,33.959,6.3,8.272-2.95,31.324-4.88,36.4,4.675a13.2,13.2,0,0,0,4.09-4.694c2.044-6.75,6.692-19.14,3.577-25.914-.291-.632-2.13-.63-3.929-.629-1.495,0-2.961,0-3.49-.359-3.8-.269-5.131-.127-8.615-2.156-10.286-5.991-.921-28.434-21.459-27.022-15.043,1.035-24.563,10.072-31.244-11.3-5.024-16.071-23.97-37.858-39.994-37.858-5.286,0-10.253,2.37-14.3,8.1" transform="translate(0 -1348.055)" fill="none"/>
    </clipPath>
    <clipPath id="clip-path-4">
      <rect id="Rectángulo_375480" data-name="Rectángulo 375480" width="118.233" height="110.316" fill="none"/>
    </clipPath>
    <clipPath id="clip-path-5">
      <path id="Trazado_814966" data-name="Trazado 814966" d="M321.534,292.675c-8.336,14.438,7.272,38.988,40.349,56.047,22.343,14.926,23.34,20.136,23.425,33.127.06,9.1-5.446,33.541,7.922,41.274s23.969,16.591,20.6,27.315c-2.945,9.38,2.111,17.722,6.633,23.191a9.06,9.06,0,0,1,2.377.172c8.407.922,12.1-.584,20.46-1.063,1.8-.1,6.924-2.121,8.962-3.092l3.769-1.875s4.2-22.432-7.576-26.943-10.353-26.477-10.95-38.278c-.367-7.246-2.713-10.54-3.249-13.2-5.674-28.146,1.085-37.473-6-45.672-7.818-9.051-18.293-.275-27.267-9.666-10.133-10.6-3.582-28.915-15.184-36.768A17.969,17.969,0,0,0,378.687,294a20.9,20.9,0,0,0-7.7.273c-3.89.667-7.34,1.335-11.126-2.25-6.306-5.972-14.074-9.5-21.274-9.5-6.735,0-12.972,3.088-17.055,10.159" transform="translate(-319.322 -282.516)" fill="none"/>
    </clipPath>
    <clipPath id="clip-path-6">
      <path id="Trazado_814975" data-name="Trazado 814975" d="M321.535,292.675c-8.336,14.438,7.272,38.988,40.349,56.047,22.343,14.926,23.34,20.136,23.425,33.127.06,9.1-5.446,33.541,7.922,41.275s23.969,16.591,20.6,27.315c-5.123,16.317,12.865,29.745,12.865,29.745l28.774-11.543s4.765-23.3-7.014-27.812-10.353-26.477-10.95-38.278c-1.622-32.018-35.5-24.68-40.868-65.658-1.429-10.9-.51-32.162-10.83-39.647-6.057-4.394-10.687-3.684-14.821-2.975-3.89.667-7.34,1.335-11.126-2.25-6.306-5.972-14.074-9.5-21.274-9.5-6.735,0-12.972,3.088-17.055,10.159" transform="translate(-319.323 -282.516)" fill="none"/>
    </clipPath>
    <clipPath id="clip-path-7">
      <rect id="Rectángulo_375482" data-name="Rectángulo 375482" width="142.786" height="193.754" fill="none"/>
    </clipPath>
    <clipPath id="clip-path-8">
      <path id="Trazado_814976" data-name="Trazado 814976" d="M128.784,676.8c-28.525,11.846-8.638,58.063,22.865,74.143s11.436,25.94,8.855,42.061c-3.524,22.008,26.894,20.408,33.889,29.93a18.284,18.284,0,0,1,3.46,10.252l.46.256A93.737,93.737,0,0,0,231.2,844.16l7.643.512c2.736-5.814,4.3-11.833-3.2-14.956-11.637-4.849-9.718-26.007-5.644-33.137,5.043-8.825,16.364-29.613-1.508-37.393-14.878-6.477-25.8-7.615-24.808-27.539s-8.527-33.415-26.617-34.116c-16.9-.654-28.938-21.833-42.878-21.833a13.933,13.933,0,0,0-5.4,1.1" transform="translate(-115.032 -675.698)" fill="none"/>
    </clipPath>
    <clipPath id="clip-path-9">
      <path id="Trazado_814982" data-name="Trazado 814982" d="M128.784,676.8c-28.525,11.846-8.638,58.063,22.865,74.143s11.436,25.94,8.855,42.061c-3.524,22.008,26.894,20.408,33.889,29.93,5.484,7.465,3.35,16.751,1.312,22.359l41.232,3.985c2.966-5.6,7.073-16.076-1.3-19.564-11.637-4.849-9.718-26.007-5.644-33.137,5.043-8.825,16.364-29.613-1.508-37.393-14.878-6.477-25.8-7.615-24.808-27.539s-8.527-33.415-26.617-34.116c-16.9-.655-28.938-21.833-42.878-21.833a13.935,13.935,0,0,0-5.4,1.1" transform="translate(-115.031 -675.698)" fill="none"/>
    </clipPath>
    <clipPath id="clip-path-10">
      <rect id="Rectángulo_375484" data-name="Rectángulo 375484" width="129.54" height="161.562" fill="none"/>
    </clipPath>
    <clipPath id="clip-path-11">
      <path id="Trazado_814983" data-name="Trazado 814983" d="M904.081,2348.34a3.772,3.772,0,0,0-2.45,1.972l-1.833,3.674a1.452,1.452,0,0,0-.344.7l-.029.071h.019a.255.255,0,0,0-.019.092c0,3.962,23.063,7.167,51.512,7.167s51.512-3.2,51.512-7.165a.275.275,0,0,0-.019-.095h.072l-.113-.238a1.415,1.415,0,0,0-.157-.318l-1.943-3.885a3.784,3.784,0,0,0-2.458-1.974l-3.717-.937-20.612.984c-6.815-.464-14.471-.724-22.566-.724s-15.746.26-22.561.724l-20.591-.984Z" transform="translate(-899.425 -2347.404)" fill="#1b3f5e"/>
    </clipPath>
    <clipPath id="clip-path-13">
      <path id="Trazado_814985" data-name="Trazado 814985" d="M1102.275,699.474c-5.3-.114-8.752-.2-8.752-.2s-.6,3.242.235,3.872c1.9,2.27,15.59,3.965,32.2,3.965,16.224,0,29.665-1.546,32.057-3.94h0s1.47-1,.379-3.96a47.827,47.827,0,0,1-6.871.547,157.216,157.216,0,0,0-25.565-1.744,168.714,168.714,0,0,0-23.685,1.459" transform="translate(-1093.312 -698.015)" fill="#1b3f5e"/>
    </clipPath>
    <clipPath id="clip-path-14">
      <path id="Trazado_814986" data-name="Trazado 814986" d="M1095.433,669.3c0,2.526,14.522,4.574,32.436,4.574s32.436-2.048,32.436-4.574-14.522-4.574-32.436-4.574-32.436,2.048-32.436,4.574" transform="translate(-1095.433 -664.73)" fill="#1b3f5e"/>
    </clipPath>
    <clipPath id="clip-path-15">
      <path id="Trazado_814987" data-name="Trazado 814987" d="M1126.45,454.1a5.851,5.851,0,0,0-5.926,5.846,12.34,12.34,0,0,0,2.7,7.724l11.419,14.62,5.243-4.087-11.425-14.621a5.315,5.315,0,0,1-1.212-2.643h25.073V454.1Z" transform="translate(-1120.524 -454.097)" fill="#1b3f5e"/>
    </clipPath>
    <clipPath id="clip-path-16">
      <path id="Trazado_814988" data-name="Trazado 814988" d="M1368.044,454.1v6.84h24.862a5.3,5.3,0,0,1-1.182,2.664l-11.315,14.6,5.261,4.072,11.3-14.639a12.219,12.219,0,0,0,2.652-7.695,5.877,5.877,0,0,0-5.978-5.846Z" transform="translate(-1368.044 -454.097)" fill="#1b3f5e"/>
    </clipPath>
    <clipPath id="clip-path-18">
      <rect id="Rectángulo_375491" data-name="Rectángulo 375491" width="55.191" height="165.404" fill="none"/>
    </clipPath>
    <clipPath id="clip-path-19">
      <path id="Trazado_814990" data-name="Trazado 814990" d="M1383.458,466.41l5.146.156c4.323-6.557,18.6-22.373,29.941-20.377,7.744,1.357,13.562,12.758,17.858,30.622,5.571,23.163,8.827,52.1,11.976,80.093,4.99,44.356,9.3,82.664,22.1,90.571a10.48,10.48,0,0,0,5.573,1.61,11.793,11.793,0,0,0,3.8-.655c3.326-.556,21.685-5.8,19.259-53.515l-5.814.3c2.286,44.965-14.254,47.46-14.359,47.475l-.405.03-.382.141a4.951,4.951,0,0,1-4.616-.335c-10.389-6.418-14.955-47.012-19.372-86.269-3.168-28.165-6.445-57.289-12.1-80.8-4.952-20.589-12.713-31.946-23.07-33.755a16.283,16.283,0,0,0-2.817-.243c-16.416,0-32.039,23.925-32.72,24.958" transform="translate(-1383.458 -441.452)" fill="none"/>
    </clipPath>
    <linearGradient id="linear-gradient-2" x1="-1.165" y1="1.13" x2="-1.164" y2="1.13" gradientUnits="objectBoundingBox">
      <stop offset="0" stop-color="#444b8c"/>
      <stop offset="0.996" stop-color="#26264f"/>
      <stop offset="1" stop-color="#26264f"/>
    </linearGradient>
    <clipPath id="clip-path-20">
      <path id="Trazado_814991" data-name="Trazado 814991" d="M2505.164,274.128l-12.289,15.538a17.088,17.088,0,0,0-3.635,10.613v54.114a2.907,2.907,0,1,0,5.814,0V300.279a11.256,11.256,0,0,1,2.382-7l12.265-15.538a2.9,2.9,0,1,0-4.538-3.618" transform="translate(-2489.241 -273.025)" fill="none"/>
    </clipPath>
    <linearGradient id="linear-gradient-3" x1="-11.534" y1="2.982" x2="-11.53" y2="2.982" xlink:href="#linear-gradient-2"/>
    <clipPath id="clip-path-21">
      <path id="Rectángulo_375496" data-name="Rectángulo 375496" d="M4.617,0h0A4.617,4.617,0,0,1,9.234,4.617V96.958a4.617,4.617,0,0,1-4.617,4.617h0A4.617,4.617,0,0,1,0,96.958V4.617A4.617,4.617,0,0,1,4.617,0Z" fill="none"/>
    </clipPath>
    <linearGradient id="linear-gradient-4" x1="-26.584" y1="1.714" x2="-26.573" y2="1.714" xlink:href="#linear-gradient-2"/>
    <clipPath id="clip-path-22">
      <path id="Rectángulo_375498" data-name="Rectángulo 375498" d="M1.71,0H13.338a1.71,1.71,0,0,1,1.71,1.71v0a1.71,1.71,0,0,1-1.71,1.71H1.71A1.71,1.71,0,0,1,0,1.71v0A1.71,1.71,0,0,1,1.71,0Z" fill="#1b3f5e"/>
    </clipPath>
    <clipPath id="clip-path-23">
      <path id="Trazado_814992" data-name="Trazado 814992" d="M1364.6,1781.648v88.237h.293c-.039,0-.062.038-.062.117,0,1.906,10.412,3.328,23.253,3.328a118.766,118.766,0,0,0,16.424-.975c4.219-.624,6.828-1.417,6.828-2.37,0-.079-.023-.1-.062-.1h.18v-88.237Z" transform="translate(-1364.605 -1781.648)" fill="#636363"/>
    </clipPath>
    <clipPath id="clip-path-24">
      <path id="Trazado_814993" data-name="Trazado 814993" d="M1390.183,1678.47h-10.245a6.7,6.7,0,0,0-5.033,1.949l-7.975,8.386,23.253,4.574,23.253-4.545-7.974-8.415a6.7,6.7,0,0,0-5.034-1.949Z" transform="translate(-1366.93 -1678.47)" fill="#3b5620"/>
    </clipPath>
    <clipPath id="clip-path-25">
      <path id="Trazado_814994" data-name="Trazado 814994" d="M1461.034,1664.309c0,1.566,6.369,2.835,14.226,2.835s14.226-1.27,14.226-2.835-6.369-2.836-14.226-2.836-14.226,1.27-14.226,2.836" transform="translate(-1461.034 -1661.473)" fill="#3b5620"/>
    </clipPath>
    <clipPath id="clip-path-27">
      <rect id="Rectángulo_375503" data-name="Rectángulo 375503" width="40.141" height="91.719" fill="#636363"/>
    </clipPath>
    <clipPath id="clip-path-28">
      <path id="Trazado_814996" data-name="Trazado 814996" d="M1404.514,1871.642a118.046,118.046,0,0,1-16.424,1.01c-12.841,0-23.253-1.4-23.253-3.311,0-.079.023-.1.062-.1h-.293v-88.308l5.473,1.643c-.562,3.216-3.7,22.761,4.072,31.5,8.059,9.063,33.273,38.5,30.364,57.565" transform="translate(-1364.605 -1780.933)" fill="#636363"/>
    </clipPath>
    <clipPath id="clip-path-29">
      <rect id="Rectángulo_375504" data-name="Rectángulo 375504" width="2.103" height="2.103" fill="none"/>
    </clipPath>
    <clipPath id="clip-path-30">
      <path id="Trazado_815002" data-name="Trazado 815002" d="M1846.583,1095.513c-6.215.084-7.649,1.383-8.889,3.466-1.481,2.49-1.78,6.324-2.052,9.822-.317,4.067-.746,9.595.793,13.216,1.422,3.344,2.47,2.793,4.773,3.428,4.526,1.249,31.593,5.652,37.327.953,5.645-4.626,7.614-13.739,3.922-20.809-2.21-4.232-7.365-10.092-33.4-10.092q-1.209,0-2.477.017" transform="translate(-1835.336 -1095.496)" fill="none"/>
    </clipPath>
    <linearGradient id="linear-gradient-5" x1="-2.92" y1="3.424" x2="-2.919" y2="3.424" gradientUnits="objectBoundingBox">
      <stop offset="0" stop-color="#311944"/>
      <stop offset="1" stop-color="#893976"/>
    </linearGradient>
    <clipPath id="clip-path-32">
      <path id="Trazado_815004" data-name="Trazado 815004" d="M1878.058,1412.694c-18.574,24.737-14.154,59.765-14.132,80.745a10.027,10.027,0,0,0,8.284,10.043c9.375,1.728,34.654,3.1,56.664-1.272a11.925,11.925,0,0,0,9.3-10.526c1.824-19.832-5.846-62.7-22.647-79.959-5.577-5.73-7.589-9.724-6.688-31.276l-17.385-3.978s-3.547,23.1-13.4,36.223" transform="translate(-1863.452 -1376.471)" fill="none"/>
    </clipPath>
    <linearGradient id="linear-gradient-6" x1="-0.949" y1="1.071" x2="-0.949" y2="1.071" gradientUnits="objectBoundingBox">
      <stop offset="0" stop-color="#aa80f9"/>
      <stop offset="0.996" stop-color="#6165d7"/>
      <stop offset="1" stop-color="#6165d7"/>
    </linearGradient>
    <clipPath id="clip-path-34">
      <rect id="Rectángulo_375509" data-name="Rectángulo 375509" width="71.314" height="128.663" fill="none"/>
    </clipPath>
    <clipPath id="clip-path-35">
      <path id="Trazado_815006" data-name="Trazado 815006" d="M1810.411,1356.934c-.584.7,2.2,3.209,3.024,2.877,6.47-2.6,18.785-12.826,21.988-39.85l-14.735-4.983s2.43,26.795-10.277,41.956" transform="translate(-1810.331 -1314.978)" fill="none"/>
    </clipPath>
    <linearGradient id="linear-gradient-7" x1="-3.248" y1="3.101" x2="-3.246" y2="3.101" xlink:href="#linear-gradient-5"/>
    <clipPath id="clip-path-36">
      <path id="Trazado_815008" data-name="Trazado 815008" d="M1833.145,1374.877a.875.875,0,0,0,.951,1.4c6.47-2.6,20.858-11.351,24.06-38.374l-11.172-4.711s-1.133,26.523-13.84,41.684" transform="translate(-1832.93 -1333.193)" fill="none"/>
    </clipPath>
    <linearGradient id="linear-gradient-8" x1="-2.542" y1="2.331" x2="-2.541" y2="2.331" xlink:href="#linear-gradient-5"/>
    <clipPath id="clip-path-37">
      <path id="Trazado_815010" data-name="Trazado 815010" d="M1910,1096.158c-7.429.134-9.215.549-10.63,2.846-1.681,2.728-2,6.869-2.3,10.647-.342,4.393-.807,10.362.963,14.341,1.649,3.709,3.357,1.906,23.774,6.695,12.54,2.942,22.534,5.806,30.688.476a18.5,18.5,0,0,0,5.393-25.554c-3.226-4.973-9.567-9.515-41.127-9.515q-3.205,0-6.764.064" transform="translate(-1896.75 -1096.094)" fill="none"/>
    </clipPath>
    <linearGradient id="linear-gradient-9" x1="-1.661" y1="1.954" x2="-1.66" y2="1.954" xlink:href="#linear-gradient-5"/>
    <clipPath id="clip-path-39">
      <rect id="Rectángulo_375513" data-name="Rectángulo 375513" width="60.937" height="32.636" fill="none"/>
    </clipPath>
    <clipPath id="clip-path-40">
      <path id="Trazado_815011" data-name="Trazado 815011" d="M1941.138,1171.058c-14.157-4.448-15.778-9.211-24.412-10.824-9.118-1.7-12.358,4.121-15.428,1.81-1.479-1.113-2.766-4.035-3.031-11.486a39.093,39.093,0,0,0-1.2,8.141c-.342,4.393-.807,10.362.963,14.341,1.65,3.709,3.357,1.906,23.774,6.695,12.541,2.942,22.534,5.806,30.688.476a17.935,17.935,0,0,0,5.19-5.225,132.636,132.636,0,0,1-16.549-3.927" transform="translate(-1896.75 -1150.557)" fill="none"/>
    </clipPath>
    <linearGradient id="linear-gradient-10" x1="-5.033" y1="2.793" x2="-5.03" y2="2.793" xlink:href="#linear-gradient-5"/>
    <clipPath id="clip-path-41">
      <path id="Trazado_815012" data-name="Trazado 815012" d="M1779.251,1186.324c-1.27.007-2.288,2.258-2.274,5.029s1.056,5.012,2.325,5.005,2.288-2.258,2.274-5.029-1.052-5.006-2.32-5.006h-.005" transform="translate(-1776.978 -1186.324)" fill="none"/>
    </clipPath>
    <linearGradient id="linear-gradient-11" x1="-15.753" y1="17.764" x2="-15.744" y2="17.764" xlink:href="#linear-gradient-2"/>
    <clipPath id="clip-path-43">
      <path id="Trazado_815014" data-name="Trazado 815014" d="M2160.332,2031.251c.144.059.326.116.522.208l.313.149.332.191a6.471,6.471,0,0,1,.7.5,7.359,7.359,0,0,1,.7.651c.117.118.224.25.339.376s.217.268.323.406c.207.282.409.573.59.878a15.539,15.539,0,0,1,1.544,3.572c.152.51.257.94.323,1.242s.094.474.094.474l.357-.066s-.036-.182-.113-.488-.2-.741-.369-1.255a15.811,15.811,0,0,0-1.682-3.576c-.194-.3-.409-.593-.628-.872q-.169-.206-.341-.4c-.12-.125-.233-.255-.356-.371a7.589,7.589,0,0,0-.735-.636,6.569,6.569,0,0,0-.726-.479l-.341-.181-.319-.14c-.2-.087-.385-.138-.531-.192l-.476-.122.472.137" transform="translate(-2159.86 -2031.114)" fill="none"/>
    </clipPath>
    <linearGradient id="linear-gradient-12" x1="-32.467" y1="8.708" x2="-32.452" y2="8.708" gradientUnits="objectBoundingBox">
      <stop offset="0" stop-color="#444b8c"/>
      <stop offset="0.996" stop-color="#3e4177"/>
      <stop offset="1" stop-color="#3e4177"/>
    </linearGradient>
    <clipPath id="clip-path-44">
      <path id="Trazado_815015" data-name="Trazado 815015" d="M2249.906,2031.236c-.147.054-.331.106-.531.192l-.319.14-.341.181a6.569,6.569,0,0,0-.726.479,7.531,7.531,0,0,0-.735.636c-.123.116-.235.246-.356.371s-.228.264-.341.4c-.219.279-.434.568-.628.872a15.822,15.822,0,0,0-1.682,3.576c-.17.513-.291.948-.368,1.255s-.113.488-.113.488l.357.066s.027-.17.094-.474.171-.732.323-1.242a15.557,15.557,0,0,1,1.543-3.572c.181-.3.384-.6.591-.878.106-.138.215-.273.323-.406s.222-.258.339-.376a7.359,7.359,0,0,1,.7-.651,6.4,6.4,0,0,1,.7-.5l.332-.191.312-.149c.2-.093.378-.149.523-.208l.472-.137-.476.122" transform="translate(-2243.767 -2031.114)" fill="none"/>
    </clipPath>
    <linearGradient id="linear-gradient-13" x1="-33.728" y1="8.708" x2="-33.713" y2="8.708" xlink:href="#linear-gradient-12"/>
    <clipPath id="clip-path-45">
      <path id="Trazado_815016" data-name="Trazado 815016" d="M2206.357,2128.669c0,4.289,1.35,7.767,3.014,7.767s3.015-3.477,3.015-7.767-1.35-7.767-3.015-7.767-3.014,3.477-3.014,7.767" transform="translate(-2206.357 -2120.902)" fill="none"/>
    </clipPath>
    <linearGradient id="linear-gradient-14" x1="-36.39" y1="4.347" x2="-36.374" y2="4.347" xlink:href="#linear-gradient-12"/>
    <clipPath id="clip-path-46">
      <path id="Trazado_815017" data-name="Trazado 815017" d="M2147.727,2141.486h0m-.35-.211c-.1.176-.209.355-.323.529s-.233.345-.357.513a8.146,8.146,0,0,1-.814.948,4.118,4.118,0,0,1-.994.746,2.415,2.415,0,0,1-.287.121,1.15,1.15,0,0,1-.149.045,1.023,1.023,0,0,1-.153.033,1.568,1.568,0,0,1-.312.023c-.052,0-.1,0-.157-.013l-.156-.029.153.041c.052.012.1.017.158.026a1.611,1.611,0,0,0,.32,0,1,1,0,0,0,.16-.021,1.288,1.288,0,0,0,.158-.034,2.532,2.532,0,0,0,.307-.1,4.251,4.251,0,0,0,1.088-.688,8.462,8.462,0,0,0,.915-.906q.212-.243.409-.5c.087-.112.171-.224.253-.339l1.406,1.078.811.616.8.6.337-.642-.416-.261-.405-.26-.805-.518-1.658-1.073-.189-.122Z" transform="translate(-2143.677 -2141.091)" fill="none"/>
    </clipPath>
    <linearGradient id="linear-gradient-15" x1="-28.17" y1="16.894" x2="-28.157" y2="16.894" xlink:href="#linear-gradient-12"/>
    <clipPath id="clip-path-47">
      <path id="Trazado_815018" data-name="Trazado 815018" d="M2136.478,2198.626h0m-.259-.224-.094.006-.01.186c-.015.286-.041.579-.07.868s-.065.58-.107.868a16.028,16.028,0,0,1-.336,1.716,7.52,7.52,0,0,1-.6,1.634,3.808,3.808,0,0,1-.23.369,2.305,2.305,0,0,1-.282.33,1.557,1.557,0,0,1-.348.258,1.61,1.61,0,0,1-.2.087c-.069.022-.142.033-.214.049.072-.012.146-.019.218-.037a1.45,1.45,0,0,0,.58-.319,2.326,2.326,0,0,0,.308-.322,3.8,3.8,0,0,0,.256-.364,7.62,7.62,0,0,0,.71-1.628,16.071,16.071,0,0,0,.438-1.721c.06-.29.1-.582.148-.874.037-.228.055-.455.077-.685l4.917.148v-.725Z" transform="translate(-2133.723 -2198.247)" fill="none"/>
    </clipPath>
    <linearGradient id="linear-gradient-16" x1="-27.733" y1="9.167" x2="-27.72" y2="9.167" xlink:href="#linear-gradient-12"/>
    <clipPath id="clip-path-48">
      <path id="Trazado_815019" data-name="Trazado 815019" d="M2154.953,2237.276l-.18.065.035.177c.06.3.111.617.156.928s.081.625.11.939a15.4,15.4,0,0,1,.07,1.889c-.011.315-.034.629-.075.941-.023.155-.046.311-.08.465a4.53,4.53,0,0,1-.116.457,3.911,3.911,0,0,1-.163.442l-.1.211-.123.2-.143.187-.165.169-.187.146-.207.118.214-.107.2-.137.177-.163.157-.183.137-.2.119-.21a3.973,3.973,0,0,0,.193-.442,4.594,4.594,0,0,0,.145-.46c.043-.155.075-.312.108-.47.059-.316.1-.635.13-.955a15.749,15.749,0,0,0,.037-1.923q-.018-.481-.058-.96c-.022-.257-.048-.512-.081-.77l4.862-1.441-.225-.689Z" transform="translate(-2153.781 -2235.504)" fill="none"/>
    </clipPath>
    <linearGradient id="linear-gradient-17" x1="-33.791" y1="6.163" x2="-33.775" y2="6.163" xlink:href="#linear-gradient-12"/>
    <clipPath id="clip-path-49">
      <path id="Trazado_815020" data-name="Trazado 815020" d="M2261.655,2141.214l-1.658,1.073-.805.518-.4.26-.417.261.337.642.8-.6.811-.616,1.405-1.078c.082.115.166.227.253.339q.2.255.409.5a8.462,8.462,0,0,0,.915.906,4.255,4.255,0,0,0,1.088.688,2.532,2.532,0,0,0,.307.1,1.3,1.3,0,0,0,.158.034,1,1,0,0,0,.16.021,1.614,1.614,0,0,0,.32,0c.053-.009.106-.013.158-.026l.154-.041-.156.029c-.052.008-.1.008-.157.013a1.571,1.571,0,0,1-.312-.023,1.02,1.02,0,0,1-.153-.033,1.138,1.138,0,0,1-.149-.045,2.385,2.385,0,0,1-.287-.121,4.1,4.1,0,0,1-.993-.746,8.1,8.1,0,0,1-.814-.948q-.186-.251-.357-.513c-.113-.174-.225-.353-.323-.529l-.1-.184Z" transform="translate(-2258.37 -2141.091)" fill="none"/>
    </clipPath>
    <linearGradient id="linear-gradient-18" x1="-58.021" y1="8.954" x2="-57.995" y2="8.954" xlink:href="#linear-gradient-12"/>
    <clipPath id="clip-path-50">
      <path id="Trazado_815021" data-name="Trazado 815021" d="M2258.811,2198.972l5.355-.153c.042.232.1.46.141.69.048.292.124.584.184.874a16.039,16.039,0,0,0,.456,1.721,7.625,7.625,0,0,0,.719,1.628,3.846,3.846,0,0,0,.26.364,2.317,2.317,0,0,0,.311.322,1.451,1.451,0,0,0,.581.319c.072.018.146.025.218.037-.072-.017-.144-.027-.214-.049a1.43,1.43,0,0,1-.549-.345,2.256,2.256,0,0,1-.282-.33,3.81,3.81,0,0,1-.23-.369,7.508,7.508,0,0,1-.6-1.634,15.848,15.848,0,0,1-.336-1.716q-.063-.433-.107-.868c-.029-.289-.054-.582-.07-.868l-.01-.186-.381-.006-5.442-.155Z" transform="translate(-2258.811 -2198.247)" fill="none"/>
    </clipPath>
    <linearGradient id="linear-gradient-19" x1="-27.313" y1="9.167" x2="-27.301" y2="9.167" xlink:href="#linear-gradient-12"/>
    <clipPath id="clip-path-51">
      <path id="Trazado_815022" data-name="Trazado 815022" d="M2257.717,2236.193l4.862,1.441c-.032.258-.058.512-.08.77q-.041.48-.059.96a15.7,15.7,0,0,0,.038,1.923c.029.32.071.639.13.955.032.157.065.315.108.47a4.724,4.724,0,0,0,.145.46,4.019,4.019,0,0,0,.193.442l.119.21.137.2.157.183.177.163.2.137.214.107-.207-.118-.187-.146-.165-.169-.143-.187-.124-.2-.1-.211a3.912,3.912,0,0,1-.164-.442,4.6,4.6,0,0,1-.116-.457c-.033-.154-.057-.31-.08-.465-.04-.312-.063-.626-.075-.941a15.4,15.4,0,0,1,.07-1.889q.044-.471.111-.939c.044-.311.095-.626.155-.928l.036-.177-.18-.065-4.94-1.772Z" transform="translate(-2257.717 -2235.504)" fill="none"/>
    </clipPath>
    <linearGradient id="linear-gradient-20" x1="-35.421" y1="6.163" x2="-35.406" y2="6.163" xlink:href="#linear-gradient-12"/>
    <clipPath id="clip-path-52">
      <path id="Trazado_815023" data-name="Trazado 815023" d="M2204.747,2127.134c-.368,3.628-.111,6.626.573,6.7s1.539-2.815,1.908-6.444.112-6.625-.573-6.7h-.024c-.68,0-1.519,2.86-1.883,6.445" transform="translate(-2204.579 -2120.689)" fill="none"/>
    </clipPath>
    <linearGradient id="linear-gradient-21" x1="-15.883" y1="13.934" x2="-15.876" y2="13.934" xlink:href="#linear-gradient-12"/>
    <clipPath id="clip-path-53">
      <path id="Trazado_815024" data-name="Trazado 815024" d="M2238.143,2120.69c-.685.07-.941,3.067-.573,6.7s1.223,6.513,1.908,6.444.941-3.067.573-6.7c-.364-3.585-1.2-6.445-1.883-6.445h-.024" transform="translate(-2237.401 -2120.689)" fill="none"/>
    </clipPath>
    <linearGradient id="linear-gradient-22" x1="-48.854" y1="5.025" x2="-48.832" y2="5.025" xlink:href="#linear-gradient-12"/>
    <clipPath id="clip-path-54">
      <path id="Trazado_815025" data-name="Trazado 815025" d="M2215.17,2110.732c0,.509.927.922,2.07.922s2.07-.413,2.07-.922-.927-.922-2.07-.922-2.07.413-2.07.922" transform="translate(-2215.17 -2109.81)" fill="none"/>
    </clipPath>
    <linearGradient id="linear-gradient-23" x1="-53.203" y1="37.231" x2="-53.179" y2="37.231" xlink:href="#linear-gradient-12"/>
    <clipPath id="clip-path-55">
      <path id="Trazado_815027" data-name="Trazado 815027" d="M151.141,790.722c-25.533,28.869-20.979,74.3,9.487,97.919,28.217,21.874,66.282,14.788,85.8-12.905,18.436-26.165,15.262-63.886-7.522-86.877a61.234,61.234,0,0,0-43.46-18.454,58.694,58.694,0,0,0-44.3,20.317" transform="translate(-134.556 -770.405)" fill="none"/>
    </clipPath>
    <clipPath id="clip-path-56">
      <path id="Trazado_815028" data-name="Trazado 815028" d="M190.735,784.456c-26.061,29.478-21.76,75.58,8.939,99.361,28.432,22.026,67.038,14.584,86.994-13.662,18.854-26.687,15.9-64.966-7.024-88.162a61.148,61.148,0,0,0-43.514-18.455c-16.434,0-32.93,6.82-45.394,20.918" transform="translate(-173.631 -763.538)" fill="none"/>
    </clipPath>
    <clipPath id="clip-path-58">
      <rect id="Rectángulo_375530" data-name="Rectángulo 375530" width="102.685" height="114.357" fill="none"/>
    </clipPath>
    <clipPath id="clip-path-59">
      <path id="Trazado_815031" data-name="Trazado 815031" d="M533,770.441c.591.242,1.334.474,2.138.853l1.276.611,1.359.779a26.376,26.376,0,0,1,2.874,2.032,30.17,30.17,0,0,1,2.882,2.661c.479.484.917,1.022,1.386,1.54.443.542.886,1.1,1.322,1.661.846,1.151,1.674,2.344,2.417,3.592a63.669,63.669,0,0,1,6.314,14.611c.62,2.085,1.05,3.846,1.32,5.081s.385,1.937.385,1.937l1.459-.269s-.147-.744-.461-1.994-.812-3.033-1.509-5.133a64.656,64.656,0,0,0-6.88-14.63c-.794-1.242-1.673-2.427-2.568-3.567-.46-.56-.928-1.107-1.395-1.642-.494-.512-.955-1.042-1.456-1.518a30.653,30.653,0,0,0-3.005-2.6,26.614,26.614,0,0,0-2.968-1.96l-1.395-.742-1.3-.574c-.82-.355-1.574-.564-2.173-.787l-1.949-.5,1.93.56" transform="translate(-531.071 -769.881)" fill="none"/>
    </clipPath>
    <linearGradient id="linear-gradient-24" x1="-1.951" y1="5.621" x2="-1.948" y2="5.621" xlink:href="#linear-gradient-12"/>
    <clipPath id="clip-path-60">
      <path id="Trazado_815032" data-name="Trazado 815032" d="M899.429,770.38c-.6.223-1.354.432-2.173.787l-1.3.574-1.395.742a26.625,26.625,0,0,0-2.968,1.96,30.639,30.639,0,0,0-3.005,2.6c-.5.475-.962,1.005-1.456,1.518-.467.535-.934,1.082-1.394,1.642-.895,1.141-1.775,2.325-2.568,3.567a64.654,64.654,0,0,0-6.88,14.63c-.7,2.1-1.192,3.877-1.509,5.133s-.461,1.994-.461,1.994l1.459.269s.114-.7.385-1.937.7-3,1.32-5.081a63.677,63.677,0,0,1,6.314-14.611c.743-1.248,1.571-2.44,2.417-3.592.435-.566.879-1.119,1.322-1.661.469-.518.908-1.057,1.387-1.54a30.183,30.183,0,0,1,2.882-2.661,26.388,26.388,0,0,1,2.874-2.032l1.359-.779,1.276-.611c.8-.379,1.547-.611,2.138-.853l1.93-.56-1.949.5" transform="translate(-874.316 -769.881)" fill="none"/>
    </clipPath>
    <linearGradient id="linear-gradient-25" x1="-3.213" y1="5.621" x2="-3.209" y2="5.621" xlink:href="#linear-gradient-12"/>
    <clipPath id="clip-path-61">
      <path id="Trazado_815033" data-name="Trazado 815033" d="M721.28,1168.953c0,17.547,5.521,31.771,12.331,31.771s12.332-14.225,12.332-31.771-5.521-31.771-12.332-31.771-12.331,14.224-12.331,31.771" transform="translate(-721.28 -1137.181)" fill="none"/>
    </clipPath>
    <linearGradient id="linear-gradient-26" x1="-2.908" y1="2.602" x2="-2.904" y2="2.602" xlink:href="#linear-gradient-12"/>
    <clipPath id="clip-path-62">
      <path id="Trazado_815034" data-name="Trazado 815034" d="M481.442,1221.38h0m-1.43-.86c-.4.716-.858,1.453-1.322,2.162s-.954,1.413-1.462,2.1a33.265,33.265,0,0,1-3.33,3.876,16.8,16.8,0,0,1-4.063,3.052,9.991,9.991,0,0,1-1.173.5,4.794,4.794,0,0,1-.61.185,4.07,4.07,0,0,1-.624.135,6.232,6.232,0,0,1-1.277.093c-.213-.018-.43-.017-.643-.051l-.637-.118.628.17c.211.051.429.068.645.1a6.387,6.387,0,0,0,1.31.01,4.33,4.33,0,0,0,.653-.087,5.035,5.035,0,0,0,.645-.14,10.355,10.355,0,0,0,1.255-.415,17.415,17.415,0,0,0,4.451-2.814,34.282,34.282,0,0,0,3.743-3.708q.867-.993,1.676-2.035c.354-.458.7-.914,1.035-1.387l5.748,4.411,3.318,2.52,3.285,2.46,1.381-2.626-1.7-1.07-1.657-1.061-3.294-2.12-6.783-4.388-.776-.5Z" transform="translate(-464.872 -1219.767)" fill="none"/>
    </clipPath>
    <linearGradient id="linear-gradient-27" x1="-1.476" y1="9.943" x2="-1.472" y2="9.943" xlink:href="#linear-gradient-12"/>
    <clipPath id="clip-path-63">
      <path id="Trazado_815035" data-name="Trazado 815035" d="M435.675,1455.12h0m-.808-.914-.886.024-.041.762c-.062,1.169-.166,2.368-.286,3.551s-.268,2.371-.438,3.552a65.008,65.008,0,0,1-1.377,7.021,30.634,30.634,0,0,1-2.468,6.684,15.554,15.554,0,0,1-.94,1.511,9.294,9.294,0,0,1-1.153,1.351,5.812,5.812,0,0,1-2.247,1.411c-.284.09-.582.134-.875.2.295-.052.6-.078.89-.152a5.936,5.936,0,0,0,2.374-1.3,9.553,9.553,0,0,0,1.265-1.316,15.972,15.972,0,0,0,1.056-1.49,31.248,31.248,0,0,0,2.919-6.66,66.153,66.153,0,0,0,1.821-7.038c.243-1.187.472-2.379.666-3.576.151-.936.3-1.866.428-2.812l20.881.613v-2.967Z" transform="translate(-424.156 -1453.572)" fill="none"/>
    </clipPath>
    <linearGradient id="linear-gradient-28" x1="-1.306" y1="5.014" x2="-1.303" y2="5.014" xlink:href="#linear-gradient-12"/>
    <clipPath id="clip-path-64">
      <path id="Trazado_815036" data-name="Trazado 815036" d="M511,1613.233l-.737.264.145.726c.247,1.238.453,2.524.636,3.8s.332,2.559.453,3.843a63.15,63.15,0,0,1,.285,7.729c-.046,1.287-.141,2.573-.306,3.851-.094.636-.189,1.274-.326,1.9a18.422,18.422,0,0,1-.475,1.868,16.02,16.02,0,0,1-.669,1.807l-.427.864-.5.822-.587.766-.675.693-.764.6-.846.483.875-.436.806-.56.725-.666.643-.748.562-.812.487-.859a16.464,16.464,0,0,0,.789-1.809,19.105,19.105,0,0,0,.593-1.882c.175-.635.31-1.278.441-1.923.241-1.292.412-2.6.532-3.9a64.231,64.231,0,0,0,.154-7.868q-.073-1.967-.24-3.929c-.091-1.053-.194-2.094-.328-3.15l19.889-5.895-.923-2.819Z" transform="translate(-506.206 -1605.983)" fill="none"/>
    </clipPath>
    <linearGradient id="linear-gradient-29" x1="-1.941" y1="3.187" x2="-1.938" y2="3.187" xlink:href="#linear-gradient-12"/>
    <clipPath id="clip-path-65">
      <path id="Trazado_815037" data-name="Trazado 815037" d="M947.484,1220.269l-6.783,4.388-3.294,2.12-1.657,1.061-1.7,1.07,1.381,2.626,3.285-2.46,3.318-2.52,5.748-4.411c.337.473.681.929,1.035,1.387q.81,1.042,1.676,2.035a34.287,34.287,0,0,0,3.743,3.708,17.414,17.414,0,0,0,4.451,2.814,10.351,10.351,0,0,0,1.255.415,5.028,5.028,0,0,0,.645.14,4.329,4.329,0,0,0,.653.087,6.386,6.386,0,0,0,1.31-.01c.216-.036.434-.052.645-.1l.628-.17-.637.118c-.213.034-.43.033-.643.051a6.231,6.231,0,0,1-1.277-.093,4.074,4.074,0,0,1-.624-.135,4.784,4.784,0,0,1-.61-.185,9.993,9.993,0,0,1-1.173-.5,16.8,16.8,0,0,1-4.063-3.052,33.273,33.273,0,0,1-3.329-3.876q-.761-1.029-1.462-2.1c-.464-.709-.921-1.446-1.322-2.162l-.421-.753Z" transform="translate(-934.047 -1219.767)" fill="none"/>
    </clipPath>
    <linearGradient id="linear-gradient-30" x1="-6.256" y1="5.369" x2="-6.249" y2="5.369" xlink:href="#linear-gradient-12"/>
    <clipPath id="clip-path-66">
      <path id="Trazado_815038" data-name="Trazado 815038" d="M948.455,1456.539l20.948-.614c.128.946.286,1.876.437,2.812.194,1.2.429,2.389.672,3.576a66.2,66.2,0,0,0,1.824,7.038,31.261,31.261,0,0,0,2.921,6.66,15.938,15.938,0,0,0,1.056,1.49,9.554,9.554,0,0,0,1.265,1.316,5.936,5.936,0,0,0,2.375,1.3c.292.074.6.1.89.152-.293-.07-.591-.114-.875-.2a5.813,5.813,0,0,1-2.247-1.411,9.282,9.282,0,0,1-1.153-1.351,15.58,15.58,0,0,1-.94-1.511,30.635,30.635,0,0,1-2.468-6.684,65.015,65.015,0,0,1-1.377-7.021q-.255-1.771-.438-3.552c-.12-1.183-.223-2.382-.286-3.551l-.041-.762-.93-.024-21.634-.634Z" transform="translate(-948.455 -1453.572)" fill="none"/>
    </clipPath>
    <linearGradient id="linear-gradient-31" x1="-2.912" y1="5.014" x2="-2.909" y2="5.014" xlink:href="#linear-gradient-12"/>
    <clipPath id="clip-path-67">
      <path id="Trazado_815039" data-name="Trazado 815039" d="M931.378,1608.8l19.889,5.895c-.134,1.056-.237,2.1-.328,3.15q-.167,1.962-.24,3.929a64.255,64.255,0,0,0,.154,7.868c.121,1.308.291,2.612.532,3.9.132.645.266,1.288.441,1.923a19.04,19.04,0,0,0,.593,1.882,16.439,16.439,0,0,0,.788,1.809l.487.859.562.812.643.748.725.666.805.56.875.436-.846-.483-.764-.6-.675-.693-.587-.766-.5-.822-.427-.864a15.984,15.984,0,0,1-.668-1.807,18.374,18.374,0,0,1-.475-1.868c-.136-.628-.232-1.266-.326-1.9-.165-1.277-.259-2.563-.306-3.851a63.186,63.186,0,0,1,.285-7.729q.18-1.927.453-3.843c.182-1.272.389-2.558.636-3.8l.145-.726-.737-.264-20.21-7.25Z" transform="translate(-931.378 -1605.983)" fill="none"/>
    </clipPath>
    <linearGradient id="linear-gradient-32" x1="-3.572" y1="3.187" x2="-3.568" y2="3.187" xlink:href="#linear-gradient-12"/>
    <clipPath id="clip-path-68">
      <path id="Trazado_815040" data-name="Trazado 815040" d="M714.7,1162.674c-1.507,14.842-.458,27.1,2.344,27.389s6.3-11.516,7.8-26.358.458-27.1-2.344-27.389a.969.969,0,0,0-.1-.005c-2.785,0-6.214,11.7-7.7,26.364" transform="translate(-714.008 -1136.31)" fill="none"/>
    </clipPath>
    <linearGradient id="linear-gradient-33" x1="-0.893" y1="7.959" x2="-0.892" y2="7.959" xlink:href="#linear-gradient-12"/>
    <clipPath id="clip-path-69">
      <path id="Trazado_815041" data-name="Trazado 815041" d="M851.305,1136.315c-2.8.285-3.852,12.547-2.344,27.389s5,26.643,7.8,26.358,3.852-12.547,2.344-27.389c-1.49-14.666-4.919-26.363-7.7-26.364a.976.976,0,0,0-.1.005" transform="translate(-848.272 -1136.31)" fill="none"/>
    </clipPath>
    <linearGradient id="linear-gradient-34" x1="-4.356" y1="3.013" x2="-4.351" y2="3.013" xlink:href="#linear-gradient-12"/>
    <clipPath id="clip-path-70">
      <path id="Trazado_815042" data-name="Trazado 815042" d="M757.332,1095.575c0,2.082,3.791,3.771,8.468,3.771s8.468-1.688,8.468-3.771-3.791-3.771-8.468-3.771-8.468,1.688-8.468,3.771" transform="translate(-757.332 -1091.804)" fill="none"/>
    </clipPath>
    <linearGradient id="linear-gradient-35" x1="-4.447" y1="22.525" x2="-4.441" y2="22.525" xlink:href="#linear-gradient-12"/>
    <clipPath id="clip-path-71">
      <path id="Trazado_815043" data-name="Trazado 815043" d="M435.772,889.242l75.922,98.26,6.746-6.645-74.375-97.921Z" transform="translate(-435.772 -882.936)" fill="#d14444"/>
    </clipPath>
  </defs>
  <g id="Grupo_1070248" data-name="Grupo 1070248" transform="translate(-13609 11224)">
    <rect id="Imagen_79" data-name="Imagen 79" width="460" height="317" rx="19" transform="translate(13609 -11224)" fill="none"/>
    <g id="Grupo_1070082" data-name="Grupo 1070082" transform="translate(1511.999 1161.224)">
      <circle id="Elipse_5672" data-name="Elipse 5672" cx="151.711" cy="151.711" r="151.711" transform="translate(12175.001 -12375.851)" fill="url(#linear-gradient)"/>
    </g>
    <g id="Grupo_1070236" data-name="Grupo 1070236" transform="translate(13697.232 -11207.192)">
      <g id="Grupo_1070235" data-name="Grupo 1070235" clip-path="url(#clip-path)">
        <g id="Grupo_1070087" data-name="Grupo 1070087" transform="translate(0 134.052)">
          <g id="Grupo_1070086" data-name="Grupo 1070086" clip-path="url(#clip-path-2)">
            <rect id="Rectángulo_375479" data-name="Rectángulo 375479" width="172.765" height="163.675" transform="translate(-53.084 23.373) rotate(-26.807)" fill="#699f32"/>
          </g>
        </g>
        <g id="Grupo_1070092" data-name="Grupo 1070092" transform="translate(0 134.052)">
          <g id="Grupo_1070091" data-name="Grupo 1070091" clip-path="url(#clip-path-2)">
            <g id="Grupo_1070090" data-name="Grupo 1070090" transform="translate(5.614 -4.681)" style="mix-blend-mode: soft-light;isolation: isolate">
              <g id="Grupo_1070089" data-name="Grupo 1070089">
                <g id="Grupo_1070088" data-name="Grupo 1070088" clip-path="url(#clip-path-4)">
                  <path id="Trazado_814960" data-name="Trazado 814960" d="M174.657,1436.384l.028-.339c-52.273-4.26-96.354-39.073-117.916-93.123l-.316.126c10.219,25.616,26.128,47.736,46.006,63.969a130.585,130.585,0,0,0,72.2,29.367" transform="translate(-56.452 -1338.75)" fill="#fcfdfe"/>
                  <path id="Trazado_814961" data-name="Trazado 814961" d="M472.308,2237.632c11.071-9.122,32.264-17.525,47.243-18.731l-.027-.34c-15.037,1.211-36.315,9.649-47.432,18.808Z" transform="translate(-430.76 -2127.315)" fill="#fcfdfe"/>
                  <path id="Trazado_814962" data-name="Trazado 814962" d="M941.7,1862.651l.12-.319c-7.3-2.767-12.929-9.121-16.718-18.884-2.778-7.159-4.523-15.951-5.186-26.131l-.34.022c.665,10.215,2.417,19.041,5.208,26.232,3.825,9.857,9.516,16.277,16.915,19.08" transform="translate(-833.743 -1765.972)" fill="#fcfdfe"/>
                  <path id="Trazado_814963" data-name="Trazado 814963" d="M138.656,1929.716l.137-.312c-13.5-5.924-28.721-2.978-39.112.537l.109.323c10.334-3.5,25.466-6.429,38.866-.548" transform="translate(-95.382 -1863.864)" fill="#fcfdfe"/>
                  <path id="Trazado_814964" data-name="Trazado 814964" d="M222.243,1342.123l.307-.146c-7.142-14.995-3.571-32.058-.806-40.9l-.325-.1c-2.779,8.885-6.368,26.044.824,41.144" transform="translate(-201.956 -1300.979)" fill="#fcfdfe"/>
                </g>
              </g>
            </g>
          </g>
        </g>
        <g id="Grupo_1070094" data-name="Grupo 1070094" transform="translate(31.754 28.094)">
          <g id="Grupo_1070093" data-name="Grupo 1070093" clip-path="url(#clip-path-5)">
            <rect id="Rectángulo_375481" data-name="Rectángulo 375481" width="226.538" height="240.916" transform="translate(-92.491 53.952) rotate(-31.993)" fill="#91bc66"/>
          </g>
        </g>
        <g id="Grupo_1070099" data-name="Grupo 1070099" transform="translate(31.754 28.094)">
          <g id="Grupo_1070098" data-name="Grupo 1070098" clip-path="url(#clip-path-6)">
            <g id="Grupo_1070097" data-name="Grupo 1070097" transform="translate(-9.91 -2.638)" opacity="0.5" style="mix-blend-mode: soft-light;isolation: isolate">
              <g id="Grupo_1070096" data-name="Grupo 1070096">
                <g id="Grupo_1070095" data-name="Grupo 1070095" clip-path="url(#clip-path-7)">
                  <path id="Trazado_814967" data-name="Trazado 814967" d="M349.289,476.466l.595-.154c-.918-3.545-1.888-7.109-2.883-10.593a384.932,384.932,0,0,0-28.255-71.848,309.482,309.482,0,0,0-33.069-51,258.55,258.55,0,0,0-31.792-33.209,207.089,207.089,0,0,0-23.918-18.025c-1.393-.892-2.867-1.727-4.293-2.534-1.9-1.075-3.864-2.187-5.65-3.445l-.354.5c1.811,1.275,3.788,2.394,5.7,3.477,1.419.8,2.886,1.634,4.264,2.517a206.443,206.443,0,0,1,23.847,17.972,257.92,257.92,0,0,1,31.716,33.13,308.848,308.848,0,0,1,33,50.895,384.286,384.286,0,0,1,28.209,71.732c.993,3.479,1.962,7.038,2.879,10.579" transform="translate(-219.669 -282.712)" fill="#fcfdfe"/>
                  <path id="Trazado_814968" data-name="Trazado 814968" d="M923.937,441.494l.518-.33c-14.195-22.237-10.132-67.262-10.089-67.714l-.612-.058c-.043.454-4.125,45.687,10.183,68.1" transform="translate(-844.22 -361.717)" fill="#fcfdfe"/>
                  <path id="Trazado_814969" data-name="Trazado 814969" d="M991.678,1487.258l.553-.268c-7.878-16.241-41.37-25.209-41.707-25.3l-.156.595c.335.088,33.556,8.984,41.311,24.972" transform="translate(-877.705 -1341.796)" fill="#fcfdfe"/>
                  <path id="Trazado_814970" data-name="Trazado 814970" d="M1388.377,1365.875l.592-.167c-3.187-11.344-1.472-28.517,4.829-48.355.317-1,.317-1,.287-1.11l-.594.159.3-.08-.3-.037c-.014.069-.133.446-.272.882-6.337,19.951-8.054,37.249-4.835,48.707" transform="translate(-1270.731 -1210.81)" fill="#fcfdfe"/>
                  <path id="Trazado_814971" data-name="Trazado 814971" d="M1271.706,2017.221l.519-.329c-6.939-10.968-26.063-13.163-26.255-13.184l-.067.611c.19.02,19.022,2.185,25.8,12.9" transform="translate(-1143.854 -1829.913)" fill="#fcfdfe"/>
                  <path id="Trazado_814972" data-name="Trazado 814972" d="M1526.935,1910.527c.98-10.419,4.983-20.9,12.239-32.036l-.515-.336c-7.311,11.223-11.346,21.793-12.335,32.314Z" transform="translate(-1396.387 -1716.845)" fill="#fcfdfe"/>
                  <path id="Trazado_814973" data-name="Trazado 814973" d="M465.184,289.245l.5-.359c-8.581-11.923-14.832-26.439-16.886-31.209-.5-1.155-.674-1.561-.76-1.691l-.513.338c.064.1.349.761.708,1.6,2.061,4.785,8.332,19.347,16.952,31.325" transform="translate(-424.866 -255.986)" fill="#fcfdfe"/>
                  <path id="Trazado_814974" data-name="Trazado 814974" d="M440.652,711.978l.371-.49c-10.983-8.316-38.261-4.453-39.417-4.285l.089.608c.28-.041,28.18-3.994,38.957,4.167" transform="translate(-383.514 -661.396)" fill="#fcfdfe"/>
                </g>
              </g>
            </g>
          </g>
        </g>
        <g id="Grupo_1070101" data-name="Grupo 1070101" transform="translate(11.439 67.192)">
          <g id="Grupo_1070100" data-name="Grupo 1070100" clip-path="url(#clip-path-8)">
            <rect id="Rectángulo_375483" data-name="Rectángulo 375483" width="205.014" height="215.675" transform="matrix(0.901, -0.435, 0.435, 0.901, -80.903, 31.906)" fill="#204f2e"/>
          </g>
        </g>
        <g id="Grupo_1070106" data-name="Grupo 1070106" transform="translate(11.439 67.192)">
          <g id="Grupo_1070105" data-name="Grupo 1070105" clip-path="url(#clip-path-9)">
            <g id="Grupo_1070104" data-name="Grupo 1070104" transform="translate(-7.658 3.426)" opacity="0.5" style="mix-blend-mode: soft-light;isolation: isolate">
              <g id="Grupo_1070103" data-name="Grupo 1070103" transform="translate(0)">
                <g id="Grupo_1070102" data-name="Grupo 1070102" clip-path="url(#clip-path-10)">
                  <path id="Trazado_814977" data-name="Trazado 814977" d="M231.419,871.708l.893-.088c-6.423-65.311-44.513-127.184-99.4-161.475l-.475.761c54.66,34.146,92.589,95.761,98.986,160.8" transform="translate(-123.044 -710.146)" fill="#fcfdfe"/>
                  <path id="Trazado_814978" data-name="Trazado 814978" d="M1061.958,1579.026l.893.091c2.594-25.66,26.583-43.441,26.825-43.618l-.529-.725c-.245.179-24.554,18.188-27.189,44.252" transform="translate(-960.136 -1452.772)" fill="#fcfdfe"/>
                  <path id="Trazado_814979" data-name="Trazado 814979" d="M598.561,1919.253l.829-.344c-10.038-24.144-56.979-32.163-57.452-32.241l-.146.886c.468.077,46.922,8.015,56.769,31.7" transform="translate(-491.696 -1769.673)" fill="#fcfdfe"/>
                  <path id="Trazado_814980" data-name="Trazado 814980" d="M785.4,948.128l.856-.272c-6.3-19.763,9-47.647,9.158-47.927l-.784-.436c-.157.283-15.645,28.507-9.23,48.635" transform="translate(-709.679 -880.664)" fill="#fcfdfe"/>
                  <path id="Trazado_814981" data-name="Trazado 814981" d="M88.3,949.785l.545-.714C70.056,934.733,38.339,938.4,38.02,938.438l.108.891c.315-.039,31.675-3.659,50.172,10.456" transform="translate(-38.02 -915.333)" fill="#fcfdfe"/>
                </g>
              </g>
            </g>
          </g>
        </g>
        <g id="Grupo_1070108" data-name="Grupo 1070108" transform="translate(89.44 233.429)">
          <g id="Grupo_1070107" data-name="Grupo 1070107" clip-path="url(#clip-path-11)">
            <rect id="Rectángulo_375485" data-name="Rectángulo 375485" width="85.305" height="81.036" transform="matrix(0.731, -0.683, 0.683, 0.731, -7.289, 6.808)" fill="#1b3f5e"/>
          </g>
        </g>
        <g id="Grupo_1070110" data-name="Grupo 1070110">
          <g id="Grupo_1070109" data-name="Grupo 1070109" clip-path="url(#clip-path)">
            <path id="Trazado_814984" data-name="Trazado 814984" d="M1061.581,913.8h-.016a.753.753,0,0,1,.016.107c0,3.327-13.639,6.125-32.136,6.94-3.552.158-7.278.243-11.12.243-23.886,0-43.257-3.217-43.257-7.184a.73.73,0,0,1,.016-.106h-.016s-1.763-109.311-.1-130.1,20.685-27.592,21.308-28.008l5.473.018,16.568.068,22.048-.083c.624.416,19.653,7.212,21.316,28s-.1,130.1-.1,130.1" transform="translate(-877.373 -680.542)" fill="#d8dee8"/>
          </g>
        </g>
        <g id="Grupo_1070112" data-name="Grupo 1070112" transform="translate(108.72 69.412)">
          <g id="Grupo_1070111" data-name="Grupo 1070111" clip-path="url(#clip-path-13)">
            <rect id="Rectángulo_375487" data-name="Rectángulo 375487" width="54.86" height="52.086" transform="matrix(0.731, -0.683, 0.683, 0.731, -4.932, 4.238)" fill="#1b3f5e"/>
          </g>
        </g>
        <g id="Grupo_1070114" data-name="Grupo 1070114" transform="translate(108.931 66.102)">
          <g id="Grupo_1070113" data-name="Grupo 1070113" clip-path="url(#clip-path-14)">
            <rect id="Rectángulo_375488" data-name="Rectángulo 375488" width="53.655" height="50.966" transform="translate(-4.564 4.262) rotate(-43.044)" fill="#1b3f5e"/>
          </g>
        </g>
        <g id="Grupo_1070116" data-name="Grupo 1070116" transform="translate(111.426 45.156)">
          <g id="Grupo_1070115" data-name="Grupo 1070115" clip-path="url(#clip-path-15)">
            <rect id="Rectángulo_375489" data-name="Rectángulo 375489" width="42.48" height="42.306" transform="translate(-14.063 13.134) rotate(-43.044)" fill="#1b3f5e"/>
          </g>
        </g>
        <g id="Grupo_1070118" data-name="Grupo 1070118" transform="translate(136.04 45.156)">
          <g id="Grupo_1070117" data-name="Grupo 1070117" clip-path="url(#clip-path-16)">
            <rect id="Rectángulo_375490" data-name="Rectángulo 375490" width="42.149" height="42.313" transform="matrix(0.683, -0.731, 0.731, 0.683, -14.057, 15.051)" fill="#1b3f5e"/>
          </g>
        </g>
        <g id="Grupo_1070123" data-name="Grupo 1070123">
          <g id="Grupo_1070122" data-name="Grupo 1070122" clip-path="url(#clip-path)">
            <g id="Grupo_1070121" data-name="Grupo 1070121" transform="translate(96.881 75.147)" opacity="0.4" style="mix-blend-mode: multiply;isolation: isolate">
              <g id="Grupo_1070120" data-name="Grupo 1070120">
                <g id="Grupo_1070119" data-name="Grupo 1070119" clip-path="url(#clip-path-18)">
                  <path id="Trazado_814989" data-name="Trazado 814989" d="M1029.445,920.852c-3.552.158-7.277.241-11.12.241-23.886,0-43.256-3.218-43.256-7.185a.753.753,0,0,1,.016-.107h-.016s-1.763-109.311-.1-130.1,20.684-27.592,21.308-28.008l5.473.018A55.9,55.9,0,0,0,988.8,789.06c-.832,22.872-7.485,96.477,13.723,111.448,8.7,6.138,18.447,13.4,26.922,20.344" transform="translate(-974.255 -755.689)" fill="#d8dee8"/>
                </g>
              </g>
            </g>
          </g>
        </g>
        <g id="Grupo_1070125" data-name="Grupo 1070125" transform="translate(137.573 43.899)">
          <g id="Grupo_1070124" data-name="Grupo 1070124" clip-path="url(#clip-path-19)">
            <rect id="Rectángulo_375493" data-name="Rectángulo 375493" width="118.08" height="207.633" transform="translate(0 0)" fill="url(#linear-gradient-2)"/>
          </g>
        </g>
        <g id="Grupo_1070127" data-name="Grupo 1070127" transform="translate(247.534 27.15)">
          <g id="Grupo_1070126" data-name="Grupo 1070126" clip-path="url(#clip-path-20)">
            <rect id="Rectángulo_375494" data-name="Rectángulo 375494" width="21.461" height="84.279" transform="translate(0 0)" fill="url(#linear-gradient-3)"/>
          </g>
        </g>
        <g id="Grupo_1070129" data-name="Grupo 1070129" transform="translate(245.481 104.323)">
          <g id="Grupo_1070128" data-name="Grupo 1070128" clip-path="url(#clip-path-21)">
            <rect id="Rectángulo_375495" data-name="Rectángulo 375495" width="9.234" height="101.575" transform="translate(0 0)" fill="url(#linear-gradient-4)"/>
          </g>
        </g>
        <g id="Grupo_1070131" data-name="Grupo 1070131" transform="translate(131.936 67.728)">
          <g id="Grupo_1070130" data-name="Grupo 1070130" clip-path="url(#clip-path-22)">
            <rect id="Rectángulo_375497" data-name="Rectángulo 375497" width="5.809" height="15.403" transform="matrix(0.162, -0.987, 0.987, 0.162, -0.546, 3.33)" fill="#1b3f5e"/>
          </g>
        </g>
        <g id="Grupo_1070133" data-name="Grupo 1070133" transform="translate(135.698 177.169)">
          <g id="Grupo_1070132" data-name="Grupo 1070132" clip-path="url(#clip-path-23)">
            <rect id="Rectángulo_375499" data-name="Rectángulo 375499" width="46.855" height="91.682" fill="#636363"/>
          </g>
        </g>
        <g id="Grupo_1070135" data-name="Grupo 1070135" transform="translate(135.929 166.909)">
          <g id="Grupo_1070134" data-name="Grupo 1070134" clip-path="url(#clip-path-24)">
            <rect id="Rectángulo_375500" data-name="Rectángulo 375500" width="46.506" height="14.909" transform="translate(0 0)" fill="#3b5620"/>
          </g>
        </g>
        <g id="Grupo_1070137" data-name="Grupo 1070137" transform="translate(145.287 165.219)">
          <g id="Grupo_1070136" data-name="Grupo 1070136" clip-path="url(#clip-path-25)">
            <rect id="Rectángulo_375501" data-name="Rectángulo 375501" width="28.452" height="5.671" transform="translate(0 0)" fill="#3b5620"/>
          </g>
        </g>
        <g id="Grupo_1070147" data-name="Grupo 1070147">
          <g id="Grupo_1070146" data-name="Grupo 1070146" clip-path="url(#clip-path)">
            <path id="Trazado_814995" data-name="Trazado 814995" d="M1543.711,1525.725h-.193c-.377-.342-3.259-.536-6.761-.536s-6.385.194-6.761.536h-.307V1541.8H1530c-.027,0-.044,0-.044.022,0,.333,3.047.581,6.806.581s6.806-.237,6.806-.57c0-.023-.017-.033-.044-.033h.193Z" transform="translate(-1377.575 -1373.522)" fill="#f4f7fa"/>
            <g id="Grupo_1070142" data-name="Grupo 1070142" transform="translate(135.698 177.098)" opacity="0.4" style="mix-blend-mode: multiply;isolation: isolate">
              <g id="Grupo_1070141" data-name="Grupo 1070141">
                <g id="Grupo_1070140" data-name="Grupo 1070140" clip-path="url(#clip-path-27)">
                  <g id="Grupo_1070139" data-name="Grupo 1070139" transform="translate(0 0)">
                    <g id="Grupo_1070138" data-name="Grupo 1070138" clip-path="url(#clip-path-28)">
                      <rect id="Rectángulo_375502" data-name="Rectángulo 375502" width="42.818" height="91.719" transform="translate(0 0)" fill="#636363"/>
                    </g>
                  </g>
                </g>
              </g>
            </g>
            <path id="Trazado_814997" data-name="Trazado 814997" d="M1546.338,1523.663c0,.4-3.037.733-6.784.733s-6.784-.328-6.784-.733,3.037-.733,6.784-.733,6.784.328,6.784.733" transform="translate(-1380.35 -1371.488)" fill="#d8dee8"/>
            <path id="Trazado_814998" data-name="Trazado 814998" d="M1573.922,1586.622a3.332,3.332,0,1,1-3.332-3.332,3.332,3.332,0,0,1,3.332,3.332" transform="translate(-1411.408 -1425.846)" fill="#d8dee8"/>
            <g id="Grupo_1070145" data-name="Grupo 1070145" transform="translate(158.131 159.725)" style="mix-blend-mode: multiply;isolation: isolate">
              <g id="Grupo_1070144" data-name="Grupo 1070144">
                <g id="Grupo_1070143" data-name="Grupo 1070143" clip-path="url(#clip-path-29)">
                  <path id="Trazado_814999" data-name="Trazado 814999" d="M1592.293,1607.274a1.052,1.052,0,1,1-1.052-1.052,1.052,1.052,0,0,1,1.052,1.052" transform="translate(-1590.19 -1606.222)" fill="#d8dee8"/>
                </g>
              </g>
            </g>
            <path id="Trazado_815000" data-name="Trazado 815000" d="M1400.867,1779.283a1.045,1.045,0,0,1-.814,1.218,127.411,127.411,0,0,1-48.026,0,1.038,1.038,0,0,1-.813-1.218l.033-.185a1.007,1.007,0,0,1,1.169-.829,125.342,125.342,0,0,0,47.248,0,1.008,1.008,0,0,1,1.169.829c.011.062.022.124.034.185" transform="translate(-1216.831 -1601.42)" fill="#d8dee8"/>
            <path id="Trazado_815001" data-name="Trazado 815001" d="M1404.564,2663.294a1.044,1.044,0,0,1-.8,1.218,121.9,121.9,0,0,1-46.966,0,1.037,1.037,0,0,1-.8-1.218l.033-.186a.987.987,0,0,1,1.143-.829,119.9,119.9,0,0,0,46.2,0,.988.988,0,0,1,1.143.829c.011.062.022.124.033.186" transform="translate(-1221.147 -2397.524)" fill="#d8dee8"/>
          </g>
        </g>
        <g id="Grupo_1070149" data-name="Grupo 1070149" transform="translate(182.508 108.938)">
          <g id="Grupo_1070148" data-name="Grupo 1070148" clip-path="url(#clip-path-30)">
            <rect id="Rectángulo_375506" data-name="Rectángulo 375506" width="60.723" height="51.878" transform="matrix(0.931, -0.366, 0.366, 0.931, -12.557, 4.761)" fill="url(#linear-gradient-5)"/>
          </g>
        </g>
        <g id="Grupo_1070151" data-name="Grupo 1070151">
          <g id="Grupo_1070150" data-name="Grupo 1070150" clip-path="url(#clip-path)">
            <path id="Trazado_815003" data-name="Trazado 815003" d="M1807.47,1187.031a3.725,3.725,0,0,1-4.568,3.329c-1.585-.377-3.009-.712-3.009-.712l-.052-10.035,3.555-.676a3.718,3.718,0,0,1,4.4,3.945Z" transform="translate(-1620.862 -1061.644)" fill="#26264f"/>
          </g>
        </g>
        <g id="Grupo_1070153" data-name="Grupo 1070153" transform="translate(185.304 136.878)">
          <g id="Grupo_1070152" data-name="Grupo 1070152" clip-path="url(#clip-path-32)">
            <rect id="Rectángulo_375508" data-name="Rectángulo 375508" width="152.882" height="134.023" transform="matrix(0.491, -0.871, 0.871, 0.491, -59.617, 98.751)" fill="url(#linear-gradient-6)"/>
          </g>
        </g>
        <g id="Grupo_1070158" data-name="Grupo 1070158">
          <g id="Grupo_1070157" data-name="Grupo 1070157" clip-path="url(#clip-path)">
            <g id="Grupo_1070156" data-name="Grupo 1070156" transform="translate(185.304 136.878)" opacity="0.3" style="mix-blend-mode: multiply;isolation: isolate">
              <g id="Grupo_1070155" data-name="Grupo 1070155">
                <g id="Grupo_1070154" data-name="Grupo 1070154" clip-path="url(#clip-path-34)">
                  <path id="Trazado_815005" data-name="Trazado 815005" d="M1924.818,1486.429c-8.226-22.792-37.8-18.539-43.392-34.7-5.553-16.061,20.519-28.863,21.04-56.989a49.445,49.445,0,0,0-2.522-16.325l-8.488-1.942s-3.547,23.1-13.4,36.223c-18.574,24.737-14.154,59.765-14.132,80.745a10.026,10.026,0,0,0,8.284,10.043c9.375,1.729,34.654,3.1,56.663-1.272a11.417,11.417,0,0,0,5.892-3.239,12.071,12.071,0,0,1-5.776-2.993c-2.744-2.634-2.636-5.295-4.171-9.55" transform="translate(-1863.451 -1376.472)" fill="#d8dee8"/>
                </g>
              </g>
            </g>
          </g>
        </g>
        <g id="Grupo_1070160" data-name="Grupo 1070160" transform="translate(180.022 130.763)">
          <g id="Grupo_1070159" data-name="Grupo 1070159" clip-path="url(#clip-path-35)">
            <rect id="Rectángulo_375511" data-name="Rectángulo 375511" width="51.307" height="48.085" transform="translate(-22.475 27.806) rotate(-51.686)" fill="url(#linear-gradient-7)"/>
          </g>
        </g>
        <g id="Grupo_1070162" data-name="Grupo 1070162" transform="translate(182.269 132.575)">
          <g id="Grupo_1070161" data-name="Grupo 1070161" clip-path="url(#clip-path-36)">
            <path id="Trazado_815007" data-name="Trazado 815007" d="M1636.116,1253.183l37.085,25.267,26.914-42.52-37.085-25.267Z" transform="translate(-1655.688 -1222.848)" fill="url(#linear-gradient-8)"/>
          </g>
        </g>
        <g id="Grupo_1070164" data-name="Grupo 1070164" transform="translate(188.615 108.997)">
          <g id="Grupo_1070163" data-name="Grupo 1070163" clip-path="url(#clip-path-37)">
            <path id="Trazado_815009" data-name="Trazado 815009" d="M1816.885,843.107l-66.04,42.512-36.617-60.167,66.04-42.512Z" transform="translate(-1732.379 -814.081)" fill="url(#linear-gradient-9)"/>
          </g>
        </g>
        <g id="Grupo_1070171" data-name="Grupo 1070171">
          <g id="Grupo_1070170" data-name="Grupo 1070170" clip-path="url(#clip-path)">
            <g id="Grupo_1070169" data-name="Grupo 1070169" transform="translate(188.615 114.413)" opacity="0.6" style="mix-blend-mode: multiply;isolation: isolate">
              <g id="Grupo_1070168" data-name="Grupo 1070168">
                <g id="Grupo_1070167" data-name="Grupo 1070167" clip-path="url(#clip-path-39)">
                  <g id="Grupo_1070166" data-name="Grupo 1070166" transform="translate(0 0)">
                    <g id="Grupo_1070165" data-name="Grupo 1070165" clip-path="url(#clip-path-40)">
                      <rect id="Rectángulo_375512" data-name="Rectángulo 375512" width="39.554" height="63.906" transform="translate(-3.139 34.78) rotate(-85.636)" fill="url(#linear-gradient-10)"/>
                    </g>
                  </g>
                </g>
              </g>
            </g>
          </g>
        </g>
        <g id="Grupo_1070173" data-name="Grupo 1070173" transform="translate(176.705 117.97)">
          <g id="Grupo_1070172" data-name="Grupo 1070172" clip-path="url(#clip-path-41)">
            <rect id="Rectángulo_375515" data-name="Rectángulo 375515" width="11.013" height="9.004" transform="translate(-4.343 7.563) rotate(-60.214)" fill="url(#linear-gradient-11)"/>
          </g>
        </g>
        <g id="Grupo_1070175" data-name="Grupo 1070175">
          <g id="Grupo_1070174" data-name="Grupo 1070174" clip-path="url(#clip-path)">
            <path id="Trazado_815013" data-name="Trazado 815013" d="M2058.965,1985.876a21.636,21.636,0,1,1-21.636-21.636,21.636,21.636,0,0,1,21.636,21.636" transform="translate(-1815.25 -1768.913)" fill="#f4f7fa"/>
          </g>
        </g>
        <g id="Grupo_1070177" data-name="Grupo 1070177" transform="translate(214.779 201.977)">
          <g id="Grupo_1070176" data-name="Grupo 1070176" clip-path="url(#clip-path-43)">
            <rect id="Rectángulo_375517" data-name="Rectángulo 375517" width="6.615" height="8.78" fill="url(#linear-gradient-12)"/>
          </g>
        </g>
        <g id="Grupo_1070179" data-name="Grupo 1070179" transform="translate(223.123 201.977)">
          <g id="Grupo_1070178" data-name="Grupo 1070178" clip-path="url(#clip-path-44)">
            <rect id="Rectángulo_375518" data-name="Rectángulo 375518" width="6.615" height="8.78" fill="url(#linear-gradient-13)"/>
          </g>
        </g>
        <g id="Grupo_1070181" data-name="Grupo 1070181" transform="translate(219.403 210.905)">
          <g id="Grupo_1070180" data-name="Grupo 1070180" clip-path="url(#clip-path-45)">
            <rect id="Rectángulo_375519" data-name="Rectángulo 375519" width="6.029" height="15.534" transform="translate(0)" fill="url(#linear-gradient-14)"/>
          </g>
        </g>
        <g id="Grupo_1070183" data-name="Grupo 1070183" transform="translate(213.17 212.913)">
          <g id="Grupo_1070182" data-name="Grupo 1070182" clip-path="url(#clip-path-46)">
            <rect id="Rectángulo_375520" data-name="Rectángulo 375520" width="7.562" height="3.9" transform="translate(-0.32 0.032) rotate(-5.8)" fill="url(#linear-gradient-15)"/>
          </g>
        </g>
        <g id="Grupo_1070185" data-name="Grupo 1070185" transform="translate(212.18 218.597)">
          <g id="Grupo_1070184" data-name="Grupo 1070184" clip-path="url(#clip-path-47)">
            <rect id="Rectángulo_375521" data-name="Rectángulo 375521" width="7.651" height="6.528" transform="translate(0)" fill="url(#linear-gradient-16)"/>
          </g>
        </g>
        <g id="Grupo_1070187" data-name="Grupo 1070187" transform="translate(214.175 222.302)">
          <g id="Grupo_1070186" data-name="Grupo 1070186" clip-path="url(#clip-path-48)">
            <rect id="Rectángulo_375522" data-name="Rectángulo 375522" width="6.338" height="9.109" fill="url(#linear-gradient-17)"/>
          </g>
        </g>
        <g id="Grupo_1070189" data-name="Grupo 1070189" transform="translate(224.575 212.913)">
          <g id="Grupo_1070188" data-name="Grupo 1070188" clip-path="url(#clip-path-49)">
            <rect id="Rectángulo_375523" data-name="Rectángulo 375523" width="3.9" height="7.562" transform="translate(-0.32 3.148) rotate(-84.2)" fill="url(#linear-gradient-18)"/>
          </g>
        </g>
        <g id="Grupo_1070191" data-name="Grupo 1070191" transform="translate(224.619 218.597)">
          <g id="Grupo_1070190" data-name="Grupo 1070190" clip-path="url(#clip-path-50)">
            <rect id="Rectángulo_375524" data-name="Rectángulo 375524" width="8.224" height="6.528" transform="translate(0)" fill="url(#linear-gradient-19)"/>
          </g>
        </g>
        <g id="Grupo_1070193" data-name="Grupo 1070193" transform="translate(224.51 222.302)">
          <g id="Grupo_1070192" data-name="Grupo 1070192" clip-path="url(#clip-path-51)">
            <rect id="Rectángulo_375525" data-name="Rectángulo 375525" width="6.338" height="9.109" fill="url(#linear-gradient-20)"/>
          </g>
        </g>
        <g id="Grupo_1070195" data-name="Grupo 1070195" transform="translate(219.226 210.884)">
          <g id="Grupo_1070194" data-name="Grupo 1070194" clip-path="url(#clip-path-52)">
            <rect id="Rectángulo_375526" data-name="Rectángulo 375526" width="13.467" height="4.537" transform="translate(-1.529 13.075) rotate(-84.199)" fill="url(#linear-gradient-21)"/>
          </g>
        </g>
        <g id="Grupo_1070197" data-name="Grupo 1070197" transform="translate(222.49 210.884)">
          <g id="Grupo_1070196" data-name="Grupo 1070196" clip-path="url(#clip-path-53)">
            <rect id="Rectángulo_375527" data-name="Rectángulo 375527" width="4.537" height="13.467" transform="translate(-1.529 0.135) rotate(-5.801)" fill="url(#linear-gradient-22)"/>
          </g>
        </g>
        <g id="Grupo_1070199" data-name="Grupo 1070199" transform="translate(220.28 209.802)">
          <g id="Grupo_1070198" data-name="Grupo 1070198" clip-path="url(#clip-path-54)">
            <rect id="Rectángulo_375528" data-name="Rectángulo 375528" width="4.14" height="1.843" transform="translate(0)" fill="url(#linear-gradient-23)"/>
          </g>
        </g>
        <g id="Grupo_1070201" data-name="Grupo 1070201" transform="translate(13.38 76.61)">
          <g id="Grupo_1070200" data-name="Grupo 1070200" clip-path="url(#clip-path-55)">
            <path id="Trazado_815026" data-name="Trazado 815026" d="M-211.316,465.471l-35.567,163.808,161.651,36.947,35.567-163.808Z" transform="translate(208.953 -495.794)" fill="#632020"/>
          </g>
        </g>
        <g id="Grupo_1070203" data-name="Grupo 1070203" transform="translate(17.266 75.927)">
          <g id="Grupo_1070202" data-name="Grupo 1070202" clip-path="url(#clip-path-56)">
            <rect id="Rectángulo_375529" data-name="Rectángulo 375529" width="169.536" height="168.429" transform="matrix(0.218, -0.976, 0.976, 0.218, -39.171, 135.572)" fill="#d14444"/>
          </g>
        </g>
        <g id="Grupo_1070208" data-name="Grupo 1070208">
          <g id="Grupo_1070207" data-name="Grupo 1070207" clip-path="url(#clip-path)">
            <path id="Trazado_815029" data-name="Trazado 815029" d="M374.214,863.151c-21.379-21.334-55.728-21.176-76.489,2.714-21.943,25.249-18.336,64.5,7.576,85.049,24.265,19.238,57.629,13.295,75.066-11.054,16.6-23.174,13.986-56.612-6.153-76.708" transform="translate(-255.148 -763.253)" fill="#fff"/>
            <g id="Grupo_1070206" data-name="Grupo 1070206" transform="translate(18.169 93.812)" opacity="0.3" style="mix-blend-mode: multiply;isolation: isolate">
              <g id="Grupo_1070205" data-name="Grupo 1070205">
                <g id="Grupo_1070204" data-name="Grupo 1070204" clip-path="url(#clip-path-58)">
                  <path id="Trazado_815030" data-name="Trazado 815030" d="M224.2,995.112c18.059,14.909,37.366,7.8,51.124,23.247,5.841,6.559,8.827,15.085,10.074,24.248-20.988,18.451-52.579,21-76.7,2.27-30.63-23.791-34.921-69.844-8.919-99.262.676-.765,1.368-1.5,2.069-2.227,2.79,28.757,12.547,43.628,22.354,51.724" transform="translate(-182.708 -943.388)" fill="#d8dee8"/>
                </g>
              </g>
            </g>
          </g>
        </g>
        <g id="Grupo_1070210" data-name="Grupo 1070210" transform="translate(52.81 76.558)">
          <g id="Grupo_1070209" data-name="Grupo 1070209" clip-path="url(#clip-path-59)">
            <rect id="Rectángulo_375532" data-name="Rectángulo 375532" width="27.061" height="35.918" fill="url(#linear-gradient-24)"/>
          </g>
        </g>
        <g id="Grupo_1070212" data-name="Grupo 1070212" transform="translate(86.943 76.558)">
          <g id="Grupo_1070211" data-name="Grupo 1070211" clip-path="url(#clip-path-60)">
            <rect id="Rectángulo_375533" data-name="Rectángulo 375533" width="27.061" height="35.918" fill="url(#linear-gradient-25)"/>
          </g>
        </g>
        <g id="Grupo_1070214" data-name="Grupo 1070214" transform="translate(71.725 113.083)">
          <g id="Grupo_1070213" data-name="Grupo 1070213" clip-path="url(#clip-path-61)">
            <rect id="Rectángulo_375534" data-name="Rectángulo 375534" width="24.663" height="63.543" fill="url(#linear-gradient-26)"/>
          </g>
        </g>
        <g id="Grupo_1070216" data-name="Grupo 1070216" transform="translate(46.228 121.295)">
          <g id="Grupo_1070215" data-name="Grupo 1070215" clip-path="url(#clip-path-62)">
            <rect id="Rectángulo_375535" data-name="Rectángulo 375535" width="30.935" height="15.953" transform="translate(-1.308 0.133) rotate(-5.8)" fill="url(#linear-gradient-27)"/>
          </g>
        </g>
        <g id="Grupo_1070218" data-name="Grupo 1070218" transform="translate(42.179 144.545)">
          <g id="Grupo_1070217" data-name="Grupo 1070217" clip-path="url(#clip-path-63)">
            <rect id="Rectángulo_375536" data-name="Rectángulo 375536" width="32.301" height="26.703" transform="translate(0)" fill="url(#linear-gradient-28)"/>
          </g>
        </g>
        <g id="Grupo_1070220" data-name="Grupo 1070220" transform="translate(50.338 159.701)">
          <g id="Grupo_1070219" data-name="Grupo 1070219" clip-path="url(#clip-path-64)">
            <rect id="Rectángulo_375537" data-name="Rectángulo 375537" width="25.928" height="37.261" transform="translate(0)" fill="url(#linear-gradient-29)"/>
          </g>
        </g>
        <g id="Grupo_1070222" data-name="Grupo 1070222" transform="translate(92.883 121.295)">
          <g id="Grupo_1070221" data-name="Grupo 1070221" clip-path="url(#clip-path-65)">
            <rect id="Rectángulo_375538" data-name="Rectángulo 375538" width="15.953" height="30.935" transform="matrix(0.101, -0.995, 0.995, 0.101, -1.308, 12.878)" fill="url(#linear-gradient-30)"/>
          </g>
        </g>
        <g id="Grupo_1070224" data-name="Grupo 1070224" transform="translate(94.316 144.545)">
          <g id="Grupo_1070223" data-name="Grupo 1070223" clip-path="url(#clip-path-66)">
            <rect id="Rectángulo_375539" data-name="Rectángulo 375539" width="32.389" height="26.703" transform="translate(0 0)" fill="url(#linear-gradient-31)"/>
          </g>
        </g>
        <g id="Grupo_1070226" data-name="Grupo 1070226" transform="translate(92.617 159.701)">
          <g id="Grupo_1070225" data-name="Grupo 1070225" clip-path="url(#clip-path-67)">
            <rect id="Rectángulo_375540" data-name="Rectángulo 375540" width="25.928" height="37.261" transform="translate(0)" fill="url(#linear-gradient-32)"/>
          </g>
        </g>
        <g id="Grupo_1070228" data-name="Grupo 1070228" transform="translate(71.002 112.996)">
          <g id="Grupo_1070227" data-name="Grupo 1070227" clip-path="url(#clip-path-68)">
            <rect id="Rectángulo_375541" data-name="Rectángulo 375541" width="55.091" height="18.558" transform="translate(-6.253 53.485) rotate(-84.199)" fill="url(#linear-gradient-33)"/>
          </g>
        </g>
        <g id="Grupo_1070230" data-name="Grupo 1070230" transform="translate(84.353 112.996)">
          <g id="Grupo_1070229" data-name="Grupo 1070229" clip-path="url(#clip-path-69)">
            <rect id="Rectángulo_375542" data-name="Rectángulo 375542" width="18.558" height="55.091" transform="translate(-6.253 0.552) rotate(-5.801)" fill="url(#linear-gradient-34)"/>
          </g>
        </g>
        <g id="Grupo_1070232" data-name="Grupo 1070232" transform="translate(75.31 108.57)">
          <g id="Grupo_1070231" data-name="Grupo 1070231" clip-path="url(#clip-path-70)">
            <rect id="Rectángulo_375543" data-name="Rectángulo 375543" width="16.937" height="7.541" transform="translate(0)" fill="url(#linear-gradient-35)"/>
          </g>
        </g>
        <g id="Grupo_1070234" data-name="Grupo 1070234" transform="translate(43.334 87.8)">
          <g id="Grupo_1070233" data-name="Grupo 1070233" clip-path="url(#clip-path-71)">
            <rect id="Rectángulo_375544" data-name="Rectángulo 375544" width="120.045" height="103.435" transform="translate(-22.201 99.619) rotate(-77.436)" fill="#d14444"/>
          </g>
        </g>
      </g>
    </g>
  </g>
</svg>
