<svg id="Grupo_1015333" data-name="Grupo 1015333" xmlns="http://www.w3.org/2000/svg" width="103.097" height="123.851" viewBox="0 0 103.097 123.851">
  <path id="Trazado_605556" data-name="Trazado 605556" d="M170.465,90.791c.471.391,1.094.334,1.63.548a8.273,8.273,0,0,1,5.229,7.588,8.11,8.11,0,0,1-5.14,7.747,1.279,1.279,0,0,0-.966,1.469c.035,4.756.014,9.512.019,14.268,0,1.624.373,2.119,1.849,2.726,18.2,7.486,29.463,20.879,32.508,40.289,2.984,19.026-3.45,35.015-17.992,47.685a6.2,6.2,0,0,1-4.214,1.532q-28.654-.007-57.308,0a6.366,6.366,0,0,1-4.3-1.62c-13.141-11.36-19.745-25.779-18.4-43.058,1.665-21.308,12.884-36.22,32.588-44.639,1.994-.852,2.28-1.158,2.28-3.292,0-4.675-.014-9.351.016-14.026a1.156,1.156,0,0,0-.865-1.3,8.1,8.1,0,0,1-5.244-7.793,8.2,8.2,0,0,1,5.592-7.685c.273-.1.667-.043.788-.438Zm-2.678,4.169q-13.839-.021-27.68-.03a3.837,3.837,0,0,0-2.525,1.028,4.088,4.088,0,0,0,2.77,7.185q10.7.019,21.4,0c2.094,0,4.188-.042,6.282-.066.439.02.88.071,1.318.056a4.06,4.06,0,0,0,3.581-5.764c-.832-1.843-2.439-2.6-5.141-2.412m2.452,33.553c-2.606-1.834-3.273-4.418-3.172-7.47.138-4.22.017-8.447.05-12.67.006-.8-.16-1.185-1.052-1.114-1.04.082-2.088.049-3.132.067l-12.309.012-4.118,0c-1.006-.017-2.017.024-3.015-.07-.931-.087-1.139.255-1.131,1.146.045,4.673.024,9.347.02,14.021a6.385,6.385,0,0,1-4.513,6.558,47.26,47.26,0,0,0-30.313,49.1,46.63,46.63,0,0,0,16.517,31.487,3.731,3.731,0,0,0,2.626.957q26.831-.029,53.663-.017c.4,0,.8-.04,1.2-.061,1.318.079,2.582.252,3.746-.78,12.992-11.527,18.685-25.919,16.321-43.126-2.027-14.757-9.8-26.006-22.43-33.872a31.889,31.889,0,0,0-8.276-3.846l-.684-.315" transform="translate(-103.211 -90.791)" fill="#010202"/>
  <path id="Trazado_605557" data-name="Trazado 605557" d="M182.679,214.94c-.4.021-.8.061-1.2.061q-26.832,0-53.663.017a3.727,3.727,0,0,1-2.625-.958,46.634,46.634,0,0,1-16.517-31.487,47.261,47.261,0,0,1,30.314-49.1,6.382,6.382,0,0,0,4.512-6.557c.006-4.674.026-9.348-.019-14.022-.009-.892.2-1.234,1.13-1.146,1,.094,2.01.052,3.016.07,0,2.571-.009,5.143,0,7.715,0,1.615.776,2.574,2.049,2.576,1.257,0,2.067-.991,2.072-2.574.007-2.572,0-5.143,0-7.715l12.309-.012c.014,5.063.044,10.125.032,15.187a4.077,4.077,0,0,0,1.858,3.817A17.872,17.872,0,0,0,171.356,133l.684.314c.859,1.071,2.186,1.417,3.291,2.1A49.741,49.741,0,0,1,192.4,152.788,40.8,40.8,0,0,1,197,163.5c-.079-.005-.157-.01-.236-.013a2.6,2.6,0,0,0-2.155-1.509,40.614,40.614,0,0,0-8.417-.651,1.355,1.355,0,0,1-1.57-1.027,30.9,30.9,0,0,0-43.234-16.005,30.39,30.39,0,0,0-14.513,16.5c-.261.68-.441,1.014-1.325.887a33.693,33.693,0,0,0-8.317-.17,2.375,2.375,0,0,0-2.2,1.735,40.775,40.775,0,0,0-2.409,11.545c-.7,13.8,3.937,25.5,13.994,35.031a3.66,3.66,0,0,0,2.7,1.081q26.542-.033,53.084,0a3.74,3.74,0,0,0,2.707-1.065,44.565,44.565,0,0,0,10.93-15.618l.288-.016a43.8,43.8,0,0,1-6.45,12.559,63.524,63.524,0,0,1-7.192,8.181M151.74,129.36c0-.322.016-.646,0-.967a2.106,2.106,0,0,0-2.138-2.147,2.042,2.042,0,0,0-1.978,2.157c-.014.321,0,.644,0,.967,0,2.06.681,3.076,2.06,3.072s2.066-1.029,2.063-3.082" transform="translate(-104.328 -95.278)" fill="#00bad2"/>
  <path id="Trazado_605558" data-name="Trazado 605558" d="M214.343,169.378a40.813,40.813,0,0,0-4.6-10.708A49.742,49.742,0,0,0,192.672,141.3c-1.106-.685-2.432-1.032-3.291-2.1a31.9,31.9,0,0,1,8.275,3.846c12.627,7.867,20.4,19.115,22.431,33.872,2.363,17.207-3.329,31.6-16.322,43.126-1.164,1.033-2.428.86-3.745.78a63.525,63.525,0,0,0,7.192-8.181,43.763,43.763,0,0,0,6.449-12.559,7.059,7.059,0,0,0,1.164-4.091c.047-.273.073-.552.144-.818a41.561,41.561,0,0,0,1.067-17.54c-.3-1.857-.666-3.7-1-5.555a4.066,4.066,0,0,0-.69-2.7" transform="translate(-121.669 -101.16)" fill="#00828e"/>
  <path id="Trazado_605559" data-name="Trazado 605559" d="M177.016,104.207c-2.094.023-4.187.064-6.282.066q-10.7.012-21.4,0a4.088,4.088,0,0,1-2.769-7.184,3.838,3.838,0,0,1,2.525-1.029q13.84-.008,27.68.031a1.235,1.235,0,0,0,.112.336,6.017,6.017,0,0,1,.249,7.208,1.731,1.731,0,0,0-.118.575" transform="translate(-112.197 -91.919)" fill="#9f512d"/>
  <path id="Trazado_605560" data-name="Trazado 605560" d="M186.519,133a17.85,17.85,0,0,1-5.417-2.184A4.076,4.076,0,0,1,179.244,127c.012-5.063-.018-10.125-.031-15.187,1.044-.017,2.093.015,3.132-.067.892-.071,1.058.315,1.052,1.114-.033,4.224.088,8.45-.05,12.67-.1,3.052.566,5.636,3.172,7.47" transform="translate(-119.491 -95.278)" fill="#00828e"/>
  <path id="Trazado_605561" data-name="Trazado 605561" d="M162.424,111.847c0,2.572.007,5.143,0,7.715,0,1.583-.815,2.576-2.072,2.574-1.273,0-2.045-.961-2.049-2.576-.005-2.572,0-5.144,0-7.715l4.118,0" transform="translate(-115.012 -95.301)" fill="#f1f2f2"/>
  <path id="Trazado_605562" data-name="Trazado 605562" d="M185.633,104.208a1.73,1.73,0,0,1,.118-.575,6.017,6.017,0,0,0-.249-7.208,1.238,1.238,0,0,1-.112-.336c2.7-.186,4.309.568,5.141,2.411a4.059,4.059,0,0,1-3.581,5.764c-.439.015-.879-.035-1.318-.055" transform="translate(-120.814 -91.92)" fill="#763d22"/>
  <path id="Trazado_605563" data-name="Trazado 605563" d="M198.817,174.087c.336,1.851.7,3.7,1,5.555a41.574,41.574,0,0,1-1.068,17.54c-.071.266-.1.545-.144.818l-1.451,4.107a44.551,44.551,0,0,1-10.93,15.618,3.743,3.743,0,0,1-2.707,1.065q-26.542-.033-53.083,0a3.66,3.66,0,0,1-2.7-1.081c-10.057-9.528-14.69-21.227-13.994-35.031a40.78,40.78,0,0,1,2.41-11.545,2.375,2.375,0,0,1,2.2-1.735,33.732,33.732,0,0,1,8.317.17c.884.127,1.064-.207,1.325-.887a30.39,30.39,0,0,1,14.514-16.5,30.9,30.9,0,0,1,43.234,16,1.354,1.354,0,0,0,1.569,1.027,40.665,40.665,0,0,1,8.417.651,2.6,2.6,0,0,1,2.155,1.509,11.53,11.53,0,0,0,.926,2.713m-18.4,40.5c1.994.36,3.71.017,4.944-1.791.472-.692,1.133-1.25,1.663-1.906,7.984-9.9,10.83-21.091,8.208-33.546-.955-4.538-.172-3.343-4.562-3.953a1.132,1.132,0,0,0-.351.066c-.6-.042-1.205-.044-1.8-.133-1.072-.16-1.174.354-1.013,1.238a29.248,29.248,0,0,1-.011,10.094c-3.827,23.167-31.474,33.87-49.709,19.111-9.16-7.412-13-17.15-11.294-28.918.119-.818-.057-1.212-.908-1.231-1.61-.036-3.222-.057-4.829-.144-.75-.041-1.043.3-1.247.961a36.037,36.037,0,0,0-1.654,8.879A38.969,38.969,0,0,0,129.6,213.8a2.694,2.694,0,0,0,2.111.869q23.692-.04,47.384-.022c.442,0,.883-.039,1.325-.06m-16.165-9.294c.311-.072.629-.122.933-.218A26.8,26.8,0,0,0,180.468,166.6a25.743,25.743,0,0,0-15.5-12.615,24.943,24.943,0,0,0-13.923-.589,26.779,26.779,0,0,0-8.207,48.9,25.653,25.653,0,0,0,21.423,2.994" transform="translate(-105.453 -103.168)" fill="#020202"/>
  <path id="Trazado_605564" data-name="Trazado 605564" d="M162.425,133.314q0,3.08-2.065,3.082c-1.378,0-2.06-1.013-2.06-3.072,0-.322-.01-.645,0-.967a2.043,2.043,0,0,1,1.979-2.157,2.106,2.106,0,0,1,2.138,2.147c.019.321,0,.645,0,.967" transform="translate(-115.011 -99.232)" fill="#f1f2f2"/>
  <path id="Trazado_605565" data-name="Trazado 605565" d="M219.914,215.58q.726-2.053,1.451-4.107a7.05,7.05,0,0,1-1.164,4.092l-.288.015" transform="translate(-128.21 -116.642)" fill="#009caf"/>
  <path id="Trazado_605566" data-name="Trazado 605566" d="M221.774,180.3a11.546,11.546,0,0,1-.926-2.713c.079,0,.157.007.237.013a4.07,4.07,0,0,1,.69,2.7" transform="translate(-128.41 -109.384)" fill="#009caf"/>
  <path id="Trazado_605567" data-name="Trazado 605567" d="M168.736,206.414a25.653,25.653,0,0,1-21.423-2.994,26.779,26.779,0,0,1,8.207-48.9,24.943,24.943,0,0,1,13.923.589c.132.594.684.746,1.106,1.013a29.029,29.029,0,0,1,11.8,14.426c.234.6.807,1.218.358,1.974a23.5,23.5,0,0,0-9.258-11.137c-1.778-1.1-2.725-.883-3.76.9-1.836,3.167-3.679,6.33-5.479,9.517-.356.63-.64.983-1.466.743a4.986,4.986,0,0,0-2.636.007c-.7.189-.982-.049-1.3-.615Q156,167,153.141,162.1c-.885-1.521-1.946-1.8-3.421-.86a22.61,22.61,0,0,0-10.949,18.819c-.1,1.88.677,2.636,2.579,2.64,3.465.009,6.931.044,10.4-.02,1.152-.021,1.983.084,2.276,1.426a3.4,3.4,0,0,0,.993,1.628c.7.657.492,1.169.087,1.855-1.88,3.187-3.727,6.395-5.567,9.606-.827,1.444-.531,2.556.922,3.316a22.429,22.429,0,0,0,21.849.083c1.672-.866,1.943-1.914,1-3.556-1.744-3.034-3.457-6.087-5.279-9.074-.6-.984-.756-1.689.137-2.57a4.013,4.013,0,0,0,.959-1.788c.215-.819.664-.923,1.394-.917,3.667.032,7.335-.008,11,.029a2.733,2.733,0,0,0,2.434-1.029.614.614,0,0,1,.239.64c-.2,1.419-.334,2.853-.633,4.251a28.257,28.257,0,0,1-3.418,8.8,30.237,30.237,0,0,1-7.251,8.216c-1.324,1.041-2.878,1.717-4.152,2.814" transform="translate(-109.932 -104.288)" fill="#fce839"/>
  <path id="Trazado_605568" data-name="Trazado 605568" d="M181.547,221.327c-.442.02-.883.06-1.325.06q-23.692,0-47.384.022a2.7,2.7,0,0,1-2.111-.868,38.971,38.971,0,0,1-11.742-30.485,36.022,36.022,0,0,1,1.654-8.879c.2-.666.5-1,1.247-.962,1.608.087,3.219.108,4.829.144.851.019,1.027.413.908,1.231-1.7,11.769,2.135,21.506,11.294,28.919,18.235,14.758,45.883,4.055,49.709-19.112a29.245,29.245,0,0,0,.011-10.093c-.161-.884-.059-1.4,1.013-1.238.593.089,1.2.092,1.8.133a8.989,8.989,0,0,0,.168,1.065,41.443,41.443,0,0,1-6.7,36.018c-1.051,1.42-2.384,2.586-3.373,4.047" transform="translate(-106.579 -109.908)" fill="#632059"/>
  <path id="Trazado_605569" data-name="Trazado 605569" d="M178.045,206.77c1.275-1.1,2.828-1.773,4.152-2.814a30.239,30.239,0,0,0,7.251-8.216,28.26,28.26,0,0,0,3.418-8.8c.3-1.4.434-2.832.633-4.251a.614.614,0,0,0-.239-.64,6.633,6.633,0,0,0,.144-2.735,29.349,29.349,0,0,0-1.393-6.436c.449-.756-.124-1.37-.358-1.974a29.029,29.029,0,0,0-11.8-14.426c-.422-.267-.974-.419-1.106-1.013a25.743,25.743,0,0,1,15.5,12.615,26.8,26.8,0,0,1-15.278,38.474c-.3.1-.622.147-.933.218" transform="translate(-119.241 -104.644)" fill="#f9d533"/>
  <path id="Trazado_605570" data-name="Trazado 605570" d="M198.616,221.352c.989-1.461,2.322-2.627,3.373-4.047a41.443,41.443,0,0,0,6.7-36.018,9,9,0,0,1-.168-1.065,1.135,1.135,0,0,1,.351-.066c4.389.611,3.607-.584,4.562,3.953,2.621,12.455-.224,23.65-8.208,33.546-.53.656-1.19,1.216-1.663,1.906-1.234,1.808-2.95,2.152-4.944,1.791" transform="translate(-123.648 -109.933)" fill="#42163e"/>
  <path id="Trazado_605571" data-name="Trazado 605571" d="M183.841,174.4a29.366,29.366,0,0,1,1.393,6.436,6.613,6.613,0,0,1-.144,2.734,2.732,2.732,0,0,1-2.434,1.029c-3.667-.037-7.335,0-11-.029-.731-.006-1.179.1-1.394.916a4.019,4.019,0,0,1-.959,1.789c-.893.879-.737,1.586-.138,2.57,1.821,2.987,3.536,6.04,5.28,9.074.942,1.641.673,2.69-1,3.556a22.429,22.429,0,0,1-21.849-.083c-1.453-.76-1.749-1.872-.921-3.316,1.84-3.211,3.686-6.419,5.567-9.606.4-.685.615-1.2-.087-1.854a3.4,3.4,0,0,1-.993-1.628c-.293-1.343-1.124-1.447-2.275-1.426-3.465.064-6.931.029-10.4.02-1.9,0-2.68-.76-2.579-2.64a22.61,22.61,0,0,1,10.949-18.819c1.474-.941,2.536-.661,3.421.86q2.855,4.9,5.658,9.833c.321.567.6.8,1.3.615a4.979,4.979,0,0,1,2.636-.007c.827.24,1.11-.113,1.466-.743,1.8-3.187,3.644-6.35,5.48-9.517,1.034-1.784,1.982-2,3.759-.9a23.5,23.5,0,0,1,9.258,11.136m-34.424,6.057c1.206,0,2.416-.068,3.616.02,1.084.079,1.826-.087,2.105-1.325a4.5,4.5,0,0,1,1.265-2.026.73.73,0,0,0,.1-1.041c-1.523-2.6-3.038-5.2-4.513-7.825-.333-.592-.586-.58-1.057-.187a18.983,18.983,0,0,0-6.684,11.527c-.135.74.165.885.825.868,1.446-.036,2.893-.011,4.34-.011m26.253,0c1.488,0,2.977-.046,4.461.018.837.036.932-.3.8-1a19.115,19.115,0,0,0-6.567-11.34c-.574-.486-.836-.467-1.216.224-1.238,2.251-2.5,4.495-3.86,6.671-.659,1.054-.944,1.88.079,2.879a4.342,4.342,0,0,1,.937,1.8c.2.641.55.77,1.146.757,1.407-.033,2.814-.011,4.22-.011m-13.122,20.6a19.067,19.067,0,0,0,6.563-1.1c.806-.27.868-.584.447-1.283-1.307-2.172-2.6-4.353-3.8-6.587-.589-1.1-1.154-1.818-2.559-1.331a3.377,3.377,0,0,1-2.027-.126.888.888,0,0,0-1.169.518c-1.447,2.556-2.9,5.108-4.414,7.627-.449.748-.132.956.5,1.172a18.3,18.3,0,0,0,6.455,1.107m4.169-18.524a4.114,4.114,0,0,0-8.228-.042,4.114,4.114,0,1,0,8.228.042" transform="translate(-111.071 -106.169)" fill="#030201"/>
  <path id="Trazado_605572" data-name="Trazado 605572" d="M150.594,181.877c-1.447,0-2.894-.025-4.34.011-.66.017-.96-.127-.826-.868a18.984,18.984,0,0,1,6.685-11.527c.47-.393.724-.405,1.057.187,1.474,2.625,2.99,5.228,4.513,7.825a.73.73,0,0,1-.1,1.041,4.5,4.5,0,0,0-1.265,2.026c-.279,1.238-1.021,1.4-2.106,1.325-1.2-.088-2.41-.02-3.615-.02" transform="translate(-112.248 -107.59)" fill="#e61e62"/>
  <path id="Trazado_605573" data-name="Trazado 605573" d="M183.519,181.88c-1.407,0-2.814-.022-4.22.011-.6.013-.946-.116-1.146-.757a4.343,4.343,0,0,0-.937-1.8c-1.022-1-.737-1.825-.078-2.879,1.362-2.177,2.621-4.421,3.86-6.671.38-.691.643-.71,1.216-.224a19.11,19.11,0,0,1,6.566,11.34c.132.692.037,1.032-.8,1-1.484-.064-2.973-.018-4.461-.018" transform="translate(-118.92 -107.593)" fill="#e61e62"/>
  <path id="Trazado_605574" data-name="Trazado 605574" d="M166.768,208.689a18.314,18.314,0,0,1-6.455-1.107c-.636-.217-.953-.425-.5-1.172,1.51-2.519,2.967-5.071,4.414-7.628a.888.888,0,0,1,1.168-.517,3.371,3.371,0,0,0,2.027.125c1.406-.486,1.971.234,2.559,1.332,1.2,2.232,2.495,4.414,3.8,6.586.42.7.358,1.014-.448,1.283a19.066,19.066,0,0,1-6.563,1.1" transform="translate(-115.29 -113.799)" fill="#e61e62"/>
  <path id="Trazado_605575" data-name="Trazado 605575" d="M171.784,186.859a4.114,4.114,0,1,1-8.228-.042,4.114,4.114,0,0,1,8.228.042" transform="translate(-116.137 -110.494)" fill="#e51d61"/>
</svg>
