<svg xmlns="http://www.w3.org/2000/svg" width="127.048" height="110.027" viewBox="0 0 127.048 110.027">
  <g id="Grupo_262703" data-name="Grupo 262703" transform="translate(-422.477 -9099.93)">
    <path id="Trazado_281504" data-name="Trazado 281504" d="M32.763,0,1,55.013l31.762,55.014H96.287l31.762-55.014L96.287,0Z" transform="translate(421.476 9099.93)" fill="#e2e8ec"/>
    <path id="Trazado_281505" data-name="Trazado 281505" d="M79.062,79.836h-.77c-.229,0-.46-.006-.688,0a1.041,1.041,0,1,0,0,2.066c.988.012,1.976.021,2.963,0a1.09,1.09,0,0,1,.892.383q2.534,2.633,5.092,5.239a2.869,2.869,0,0,0,4.514,0c1.863-1.9,3.791-3.755,5.547-5.754,1.114-1.267,2.28-2.042,4-1.7a.636.636,0,0,0,.138,0c.752-.035,1.2-.43,1.191-1.055s-.449-.993-1.215-1.015c-.9-.026-.9-.026-.656-.886a6.4,6.4,0,0,0-2.9-7.245A6.1,6.1,0,0,0,89.7,70.9c-.305.3-.573.86-.94.8-.346-.053-.61-.578-.934-.869A5.923,5.923,0,0,0,81.252,69.6a6.064,6.064,0,0,0-4.018,5.518,6.34,6.34,0,0,0,1.828,4.715" transform="translate(421.476 9099.93)" fill="#fefefe"/>
    <path id="Trazado_281506" data-name="Trazado 281506" d="M84.176,41.429a1.145,1.145,0,0,1,1.652-.181q5.277,3.234,10.567,6.445a4.686,4.686,0,0,1,2.356,4.241q.009,1.895,0,3.79a4.709,4.709,0,0,1-1.941,3.917q-2.028,1.542-4.061,3.077a5.532,5.532,0,0,1-2.381,1c-2.813.53-5.695.722-8.434,1.622a19.028,19.028,0,0,0-10.067,7.617c-.1.148-.268.28-.221.485.271,1.169-.3,2.2-.551,3.279a1.89,1.89,0,0,1-1.252,1.37.935.935,0,0,0-.637.786,42.447,42.447,0,0,0-.777,4.819c-.115.826-.482,1.257-1.109,1.236-.6-.02-.937-.432-1-1.236a46.933,46.933,0,0,1,.895-5.341c.135-.474-.157-.487-.422-.568a49.323,49.323,0,0,1-8.548-3.5.586.586,0,0,0-.864.148,2.629,2.629,0,0,1-2.471,1.05l-.033-.005a3.383,3.383,0,0,1-1.484-.945Q48.172,69.3,42.936,64.077c-.205-.205-.373-.44-.731-.438-.732.005-1.465-.039-2.2-.062l-2.061-.229c-.155-.028-.309-.062-.465-.084-.487-.07-.96-.183-1.159-.7a1.2,1.2,0,0,1,.412-1.341c.968-.207,1.9.209,2.854.173.155.029.309.067.465.087.824.105,1.537.1,1.788-.97.086-.364.249-.613,0-.98a41.347,41.347,0,0,1-3.424-6.187,49.78,49.78,0,0,1-4.207-15.771c-.1-1.065-.086-1.067-1.166-1.066-.252,0-.5.005-.757.008a1.977,1.977,0,0,1-.97-.687V35a1.716,1.716,0,0,1,1.56-.6c.786.067,1.613.158,2.147-.656.034-.053.11-.08.169-.116a5.439,5.439,0,0,1,5.038.586c.1.1.169.221.328.213a27.269,27.269,0,0,0,4.257-.125.72.72,0,0,0,.632-.65,3.719,3.719,0,0,1,2.868-2.933c.532-.128.561-.364.5-.8a10.977,10.977,0,0,1,.8-5.66,4.415,4.415,0,0,1,4.311-2.846,11.262,11.262,0,0,1,10.551,7.094c.181.4.315.611.769.416,1.283-.547,2.532-.006,3.786.158,1.341.176,2.675.413,4,.669a4.273,4.273,0,0,1,3.111,2.378c.363.713.68,1.452.986,2.193a7.07,7.07,0,0,0,3.12,3.551,6.316,6.316,0,0,0,.709.42c.86.346.932,1.033.827,1.81-.46.122-.865.562-1.4.254a12.951,12.951,0,0,1-3.685-2.73,18.111,18.111,0,0,1-2.277-4.306,2.527,2.527,0,0,0-1.886-1.561q-2.974-.532-5.966-.974c-.79-.116-1.394.307-1.3.833a9.624,9.624,0,0,1-.157,3.619c-.166.829-.5,1.1-1.379,1.1a1.278,1.278,0,0,1-.656-1.564,8.522,8.522,0,0,0,.212-1.765,9.384,9.384,0,0,0-2.947-6.947A8.851,8.851,0,0,0,54.9,23.576c-.413-.015-.826-.039-1.239-.043a2.056,2.056,0,0,0-1.951,1.193,9.026,9.026,0,0,0-.787,5.422c.048.34.249.445.577.436.643-.017,1.287-.007,1.93,0a3.947,3.947,0,0,1,4.09,4.077c.008,1.309.009,2.619.013,3.929v.279c0,.3-.031.6-.008.894a5.039,5.039,0,0,1-1.114,3.914,4.292,4.292,0,0,1-3.2,1.146,31.315,31.315,0,0,0-3.3,0,4.336,4.336,0,0,1-3.559-1.265,4.018,4.018,0,0,1-.991-2.646c.03-1.126.006-2.253.005-3.379,0-1.061,0-1.045-1.014-1.023s-2.023.02-3.034,0c-.418-.009-.519.156-.463.535.1.7.17,1.41.284,2.111a43.673,43.673,0,0,0,5.072,14.755c.725,1.272.7,1.286,1.709.318a2.4,2.4,0,0,1,3.55.023c.8.791,1.594,1.591,2.39,2.387s.826.827,1.637.034c2.814-2.748,6.294-3.727,10.1-3.849.833-.027,1.141.257,1.316,1.084-.122.749-.6,1-1.315,1.017a12.552,12.552,0,0,0-8.885,3.412c-.515.5-.522.7-.015,1.157.854.767.878,1,.516,1.828-.743.5-1.12.471-1.747-.155-1.775-1.768-3.551-3.534-5.309-5.319-.337-.342-.556-.352-.9-.006q-2.685,2.725-5.409,5.415c-.286.283-.335.487-.026.794q4.652,4.608,9.285,9.233c.623.637,1.252,1.268,1.866,1.912.274.287.494.232.75-.025q2.738-2.751,5.489-5.489c.259-.258.306-.477.02-.749-.644-.614-1.275-1.243-1.911-1.866-.6-.766-.6-1.072-.027-1.776a1.1,1.1,0,0,1,1.389.171c.748.746,1.515,1.476,2.232,2.251a2.311,2.311,0,0,1,.426,2.562c-.116.31-.617.531-.414.828.178.26.627.339.96.488.165.074.341.125.512.186a44.228,44.228,0,0,0,5.075,1.864.775.775,0,0,0,1.045-.371,21.118,21.118,0,0,1,14.063-8.691c1.9-.317,3.8-.627,5.7-.958.283-.049.664-.017.649-.516a6.861,6.861,0,0,0-1.37-4.368c-.2-.28-.382-.568-.589-.839-1.248-1.637-2.87-3.026-3.355-5.24-.152.167-.231.245-.3.331a11.177,11.177,0,0,1-6.129,3.826,27.306,27.306,0,0,1-8.424.292,1,1,0,0,1-.973-1.053c.179-.764.461-1,1.236-.986a32.035,32.035,0,0,0,6.449-.118c4.184-.75,7.053-2.992,8.262-7.165.17-.588.671-1.288.492-1.715-.2-.486-1-.719-1.537-1.07a1.093,1.093,0,0,1-.518-1.567M60.971,73.314a45.863,45.863,0,0,0,6.2,2.425c1.977.631,1.964.634,2.418-1.367.084-.374.022-.548-.353-.653a62.707,62.707,0,0,1-6.461-2.312c-1.522-.849-1.522-.849-2.695.325-.161.161-.314.332-.484.483-.242.213-.219.358.078.49.436.193.864.4,1.3.609M92.725,47.926c-1.4-.865-2.805-1.724-4.2-2.6-.267-.168-.4-.136-.5.152-.856,2.337-.982,4.62.6,6.722.841,1.114,1.76,2.169,2.643,3.251A9.057,9.057,0,0,1,92.866,59.5c.041.4.2.394.475.176.778-.6,1.571-1.19,2.349-1.8a2.448,2.448,0,0,0,.979-1.964c.023-1.421.03-2.844,0-4.265a2.361,2.361,0,0,0-1.118-2.025c-.928-.586-1.881-1.133-2.822-1.7M51.457,32.673c-.733-.008-1.467-.039-2.2-.017a1.783,1.783,0,0,0-1.816,1.778q-.052,3.267,0,6.534a1.76,1.76,0,0,0,1.748,1.768c.753.036,1.511-.005,2.266-.011.71.008,1.421.044,2.13.018a1.828,1.828,0,0,0,1.846-1.84q.055-3.2,0-6.4a1.846,1.846,0,0,0-1.911-1.85c-.687-.015-1.375.011-2.063.02M43.631,58.468a.915.915,0,0,0,.158-.092,14.22,14.22,0,0,1,1.083-1.059c.528-.419.537-.771.176-1.358A44.226,44.226,0,0,1,38.77,36.778c-.133-1.367-.091-1.376-1.481-1.386-1.235-.009-1.228-.234-1.105,1.178A48.273,48.273,0,0,0,40.9,53.717a36.815,36.815,0,0,0,2.733,4.751" transform="translate(421.476 9099.93)" fill="#030302"/>
    <path id="Trazado_281507" data-name="Trazado 281507" d="M63.745,36.336c.876,0,1.213-.269,1.379-1.1a9.624,9.624,0,0,0,.157-3.619c-.094-.526.509-.95,1.3-.833q2.989.443,5.966.974a2.527,2.527,0,0,1,1.886,1.561,18.1,18.1,0,0,0,2.277,4.305,12.935,12.935,0,0,0,3.685,2.731c.536.308.941-.132,1.4-.255.866.313,1.553.946,2.381,1.327A1.093,1.093,0,0,0,84.694,43c.534.351,1.333.584,1.537,1.07.179.427-.322,1.127-.492,1.715-1.209,4.172-4.078,6.414-8.262,7.165a32.182,32.182,0,0,1-6.449.118c-.775-.017-1.056.222-1.236.986a14.975,14.975,0,0,0-2.878-.146c-.175-.827-.483-1.111-1.316-1.084-3.806.122-7.286,1.1-10.1,3.849-.811.793-.837.766-1.637-.034s-1.589-1.6-2.39-2.388a2.4,2.4,0,0,0-3.55-.022c-1.009.968-.984.954-1.709-.318A43.673,43.673,0,0,1,41.14,39.152c-.114-.7-.179-1.409-.283-2.111-.057-.379.044-.545.462-.535q1.517.034,3.034,0c1.015-.022,1.014-.039,1.014,1.023,0,1.126.025,2.253-.005,3.378a4.022,4.022,0,0,0,.991,2.647c0,.482-.011.966,0,1.448A2.942,2.942,0,0,0,48.8,47.833a21.968,21.968,0,0,0,4.739.1,2.8,2.8,0,0,0,2.831-2.269,12.114,12.114,0,0,0,.046-1.992,5.04,5.04,0,0,0,1.114-3.915c-.023-.295,0-.6.008-.893.757,0,1.491.211,2.238.257a3.683,3.683,0,0,0,3.971-2.786M70,38.731a3.529,3.529,0,0,0-3.335,2.415c-.245.75-.035,1.366.533,1.56.621.212,1.106-.074,1.4-.837a1.43,1.43,0,0,1,1.386-1.048,1.381,1.381,0,0,1,1.36,1.061c.259.775.768,1.039,1.418.81.561-.2.766-.765.545-1.5A3.535,3.535,0,0,0,70,38.731" transform="translate(421.476 9099.93)" fill="#3f5858"/>
    <path id="Trazado_281508" data-name="Trazado 281508" d="M79.062,79.836a6.343,6.343,0,0,1-1.827-4.715A6.063,6.063,0,0,1,81.253,69.6a5.923,5.923,0,0,1,6.578,1.228c.324.291.587.817.934.87.365.055.635-.508.94-.8a6.106,6.106,0,0,1,7.463-1.036,6.4,6.4,0,0,1,2.9,7.246c-.24.86-.24.86.654.886.768.022,1.211.391,1.217,1.015s-.44,1.02-1.191,1.055a.578.578,0,0,1-.138,0c-1.723-.34-2.889.435-4,1.7-1.757,2-3.684,3.849-5.547,5.754a2.871,2.871,0,0,1-4.516,0q-2.556-2.608-5.09-5.239a1.094,1.094,0,0,0-.892-.384c-.987.027-1.975.017-2.963.006a1.041,1.041,0,1,1,0-2.066c.23-.007.46,0,.69,0h.769M88.707,83c-.65-1.072-.67-2.375-1.244-3.563-.9,1.211-1.232,3.068-3.444,2.384.014.078.028.157.041.236l2.969,2.923c.324.355.638.72.975,1.062.621.632.986.63,1.613-.012q2.745-2.81,5.479-5.631c.072-.074.191-.136.125-.335-.481,0-.981-.005-1.48,0a5.1,5.1,0,0,0-2.163.1c-.577.316-.652,1.257-.969,1.915-.049.1-.092.21-.14.314-.406.873-.866,1.03-1.762.6m5.1-11.849a3.643,3.643,0,0,0-2.57,1.151c-.546.526-1.05,1.1-1.591,1.626a1.045,1.045,0,0,1-1.681-.007c-.558-.547-1.071-1.143-1.653-1.662a3.885,3.885,0,0,0-4.3-.737,4.085,4.085,0,0,0-2.7,3.6,4.57,4.57,0,0,0,1.32,3.36,3.072,3.072,0,0,0,3.116,1.352,1.78,1.78,0,0,1,.55,0,.659.659,0,0,0,.711-.4c.549-.929,1.134-1.836,1.694-2.759.305-.5.6-1.008,1.315-.9.676.1.822.643.972,1.189.183.67.389,1.333.585,2,.35-1.022,1.144-1,1.96-.982.756.015,1.514-.024,2.271-.04,1.1.016,2.195.029,3.293.051a.514.514,0,0,0,.488-.307,4.241,4.241,0,0,0,.086-4.445,3.819,3.819,0,0,0-3.862-2.1" transform="translate(421.476 9099.93)" fill="#040302"/>
    <path id="Trazado_281509" data-name="Trazado 281509" d="M32.289,36.516c.252,0,.5-.008.757-.008,1.08,0,1.065,0,1.166,1.066a49.746,49.746,0,0,0,4.207,15.771,41.258,41.258,0,0,0,3.424,6.187c.247.368.084.616,0,.98-.251,1.07-.964,1.075-1.788.97-.156-.02-.31-.057-.465-.087-.548-.978-1.113-1.948-1.642-2.936a47.5,47.5,0,0,1-4.089-10.406,39.02,39.02,0,0,1-1.3-6.99c-.015-.194-.019-.375-.266-.407-.092-1.38-.021-2.76-.007-4.14" transform="translate(421.476 9099.93)" fill="#374747"/>
    <path id="Trazado_281510" data-name="Trazado 281510" d="M37.947,63.348l2.061.229c-.4.91-.365,1.331.223,1.92Q45.859,71.132,51.5,76.76a1.406,1.406,0,0,0,2.132,0c.426-.416.831-.853,1.245-1.281l.033.005c.074.081.132.193.223.24a34.577,34.577,0,0,0,3.7,1.8c1.086.41,2.012,1.021,2.1,2.288a11.43,11.43,0,0,1-.233,2.1,13.641,13.641,0,0,1-3.216-1.147,42.183,42.183,0,0,1-9.571-5.6,39.814,39.814,0,0,1-6.5-6.473,40.981,40.981,0,0,1-3.109-4.6,7.76,7.76,0,0,1-.348-.744" transform="translate(421.476 9099.93)" fill="#fdf0e1"/>
    <path id="Trazado_281511" data-name="Trazado 281511" d="M60.693,81.908a11.419,11.419,0,0,0,.232-2.1c-.085-1.267-1.012-1.877-2.1-2.288a34.855,34.855,0,0,1-3.7-1.8c-.091-.048-.149-.159-.222-.241a2.628,2.628,0,0,0,2.47-1.05.587.587,0,0,1,.864-.148,49.452,49.452,0,0,0,8.548,3.5c.266.082.558.094.423.568a47.2,47.2,0,0,0-.9,5.341c-1.592-.46-3.182-.924-4.776-1.377a1.94,1.94,0,0,1-.846-.411" transform="translate(421.476 9099.93)" fill="#fce5c7"/>
    <path id="Trazado_281512" data-name="Trazado 281512" d="M32.3,40.655c.247.033.251.213.265.407a39.11,39.11,0,0,0,1.3,6.99,47.488,47.488,0,0,0,4.088,10.407c.53.988,1.094,1.957,1.643,2.935-.957.037-1.887-.379-2.854-.172-.486-1.234-1-2.457-1.453-3.7A52.118,52.118,0,0,1,32.273,41c0-.114.016-.228.024-.342" transform="translate(421.476 9099.93)" fill="#3f5858"/>
    <path id="Trazado_281513" data-name="Trazado 281513" d="M66.914,53.9a14.975,14.975,0,0,1,2.878.146,1,1,0,0,0,.973,1.053,27.306,27.306,0,0,0,8.424-.292,11.183,11.183,0,0,0,6.129-3.826c.07-.086.149-.164.3-.331.485,2.214,2.107,3.6,3.355,5.24.207.271.393.559.589.839a4,4,0,0,1-1.344,1.142,7.951,7.951,0,0,1-2.822,1.78c-1.379.3-2.776.539-4.177.713a24.508,24.508,0,0,0-9.62,2.978A22.94,22.94,0,0,0,65.863,68.2c-.464.537-.692,1.313-1.459,1.572-.171-.061-.347-.112-.512-.186-.333-.149-.782-.228-.96-.488-.2-.3.3-.518.414-.828a2.311,2.311,0,0,0-.426-2.562c-.717-.775-1.484-1.5-2.232-2.251a1.1,1.1,0,0,0-1.389-.171,8.763,8.763,0,0,1-2.084-1.969c.362-.831.338-1.061-.516-1.828-.507-.455-.5-.657.015-1.157A12.552,12.552,0,0,1,65.6,54.921c.716-.016,1.193-.268,1.315-1.017" transform="translate(421.476 9099.93)" fill="#fdf0e1"/>
    <path id="Trazado_281514" data-name="Trazado 281514" d="M64.4,69.773c.767-.259,1-1.036,1.459-1.573A22.974,22.974,0,0,1,71.6,63.345a24.533,24.533,0,0,1,9.621-2.977c1.4-.174,2.8-.414,4.177-.714a7.931,7.931,0,0,0,2.821-1.779,4,4,0,0,0,1.345-1.143,6.865,6.865,0,0,1,1.37,4.368c.015.5-.366.467-.649.517-1.9.331-3.8.64-5.7.958a21.115,21.115,0,0,0-14.063,8.691.776.776,0,0,1-1.045.371A44.417,44.417,0,0,1,64.4,69.773" transform="translate(421.476 9099.93)" fill="#fce5c7"/>
    <path id="Trazado_281515" data-name="Trazado 281515" d="M57.215,61.318A8.725,8.725,0,0,0,59.3,63.287c-.577.705-.572,1.011.027,1.777a.833.833,0,0,1-.235.557c-1.127,1.122-2.189,2.313-3.407,3.345-1.193-.289-1.78.3-1.46,1.472a1.681,1.681,0,0,1-1.112.843q-4.639-4.62-9.285-9.234c-.308-.306-.259-.511.026-.794q2.719-2.694,5.41-5.414c.34-.346.559-.336.9.005,1.758,1.785,3.535,3.551,5.308,5.32.629.625,1.005.652,1.748.154m-.659,3.639a1.267,1.267,0,0,0-.429-.847q-2.533-2.531-5.07-5.063c-.55-.546-1.119-.593-1.577-.163-.482.454-.447,1.055.119,1.628.936.948,1.882,1.885,2.825,2.827.779.779,1.554,1.565,2.341,2.335a.982.982,0,0,0,1.2.213,1.039,1.039,0,0,0,.591-.93m-3.7,1.63a1.009,1.009,0,0,0-1.01,1.058,1.029,1.029,0,0,0,1,1.008,1.033,1.033,0,1,0,.011-2.066" transform="translate(421.476 9099.93)" fill="#a7d0d5"/>
    <path id="Trazado_281516" data-name="Trazado 281516" d="M57.536,38.586c0-1.31-.005-2.619-.013-3.929a3.946,3.946,0,0,0-4.089-4.076c-.644,0-1.288-.013-1.931,0-.328.008-.529-.1-.576-.436a9.02,9.02,0,0,1,.787-5.423,2.054,2.054,0,0,1,1.95-1.193c.413,0,.826.028,1.239.043.019.253.247.33.41.429a9.557,9.557,0,0,1,3.5,3.692,10,10,0,0,1,.267,9.671,1.883,1.883,0,0,1-1.547,1.218" transform="translate(421.476 9099.93)" fill="#3f5858"/>
    <path id="Trazado_281517" data-name="Trazado 281517" d="M43.631,58.468A36.815,36.815,0,0,1,40.9,53.717,48.273,48.273,0,0,1,36.184,36.57c-.123-1.412-.13-1.187,1.105-1.178,1.39.01,1.348.019,1.481,1.386a44.226,44.226,0,0,0,6.278,19.181c.361.587.352.939-.176,1.358a14.22,14.22,0,0,0-1.083,1.059.915.915,0,0,1-.158.092" transform="translate(421.476 9099.93)" fill="#f87b4a"/>
    <path id="Trazado_281518" data-name="Trazado 281518" d="M54.873,75.479c-.414.428-.819.865-1.245,1.281a1.406,1.406,0,0,1-2.132,0Q45.858,71.134,40.231,65.5c-.588-.589-.628-1.01-.223-1.921.732.024,1.465.068,2.2.063.359,0,.527.233.732.438Q48.166,69.3,53.39,74.534a3.38,3.38,0,0,0,1.483.945" transform="translate(421.476 9099.93)" fill="#fce5c7"/>
    <path id="Trazado_281519" data-name="Trazado 281519" d="M57.536,38.586a1.883,1.883,0,0,0,1.547-1.218,10,10,0,0,0-.267-9.671A9.557,9.557,0,0,0,55.313,24c-.163-.1-.391-.176-.41-.429a8.848,8.848,0,0,1,5.451,2.484A9.382,9.382,0,0,1,63.3,33.007a8.583,8.583,0,0,1-.213,1.765,1.279,1.279,0,0,0,.657,1.565,3.685,3.685,0,0,1-3.972,2.786c-.747-.046-1.481-.261-2.238-.257v-.28" transform="translate(421.476 9099.93)" fill="#374747"/>
    <path id="Trazado_281520" data-name="Trazado 281520" d="M51.455,42.725c-.756.007-1.513.047-2.266.012a1.761,1.761,0,0,1-1.748-1.769q-.048-3.265,0-6.534a1.783,1.783,0,0,1,1.817-1.777c.732-.023,1.466.009,2.2.016a4.711,4.711,0,0,1,.686,2.685c-.007,1.563,0,3.126,0,4.688a4.453,4.453,0,0,1-.685,2.679" transform="translate(421.476 9099.93)" fill="#fbc06c"/>
    <path id="Trazado_281521" data-name="Trazado 281521" d="M92.725,47.926c.942.564,1.894,1.111,2.822,1.7a2.359,2.359,0,0,1,1.118,2.025c.034,1.421.028,2.844,0,4.265a2.45,2.45,0,0,1-.978,1.964c-.778.6-1.572,1.19-2.349,1.8-.28.218-.434.222-.476-.176a9.057,9.057,0,0,0-1.592-4.047,3.638,3.638,0,0,0,1.235-1.515c.315-.635.052-1.328.328-1.944a1.088,1.088,0,0,0,.955-.946,1.115,1.115,0,0,0-.724-1.138c-.137-.075-.26-.177-.39-.266.429-.56-.055-1.145.047-1.714" transform="translate(421.476 9099.93)" fill="#f7926b"/>
    <path id="Trazado_281522" data-name="Trazado 281522" d="M92.725,47.926c-.1.569.382,1.154-.047,1.714a5.213,5.213,0,0,0-.685-.3.976.976,0,0,0-1.217.506.9.9,0,0,0,.249,1.228,4.127,4.127,0,0,0,1.812.913c-.276.616-.013,1.309-.328,1.944a3.638,3.638,0,0,1-1.235,1.515c-.883-1.082-1.8-2.137-2.642-3.251-1.588-2.1-1.461-4.385-.606-6.722.106-.288.234-.32.5-.152,1.392.878,2.8,1.737,4.2,2.6" transform="translate(421.476 9099.93)" fill="#f8a98b"/>
    <path id="Trazado_281523" data-name="Trazado 281523" d="M51.455,42.725a4.453,4.453,0,0,0,.685-2.679c.005-1.562,0-3.125,0-4.688a4.711,4.711,0,0,0-.686-2.685c.688-.008,1.376-.035,2.063-.02A1.846,1.846,0,0,1,55.43,34.5q.057,3.2,0,6.4a1.826,1.826,0,0,1-1.845,1.84c-.709.027-1.42-.01-2.13-.018" transform="translate(421.476 9099.93)" fill="#f9a42f"/>
    <path id="Trazado_281524" data-name="Trazado 281524" d="M56.414,43.673a12.114,12.114,0,0,1-.046,1.992,2.8,2.8,0,0,1-2.831,2.269,21.968,21.968,0,0,1-4.739-.1,2.942,2.942,0,0,1-2.441-2.828c-.015-.483,0-.966,0-1.448a4.335,4.335,0,0,0,3.559,1.264,31.863,31.863,0,0,1,3.3,0,4.291,4.291,0,0,0,3.2-1.145" transform="translate(421.476 9099.93)" fill="#374747"/>
    <path id="Trazado_281525" data-name="Trazado 281525" d="M55.685,68.965c1.217-1.032,2.279-2.222,3.407-3.345a.832.832,0,0,0,.234-.557c.636.623,1.267,1.252,1.912,1.866.286.272.239.491-.021.749q-2.751,2.737-5.489,5.488c-.256.258-.475.313-.749.026-.615-.645-1.243-1.275-1.866-1.912a1.679,1.679,0,0,0,1.112-.843c.61.55,1.18.62,1.625.2.466-.442.407-1.04-.165-1.671" transform="translate(421.476 9099.93)" fill="#8eb7c1"/>
    <path id="Trazado_281526" data-name="Trazado 281526" d="M62.777,71.407a62.725,62.725,0,0,0,6.462,2.312c.374.106.437.279.352.654-.453,2-.44,2-2.418,1.366a45.966,45.966,0,0,1-6.2-2.425,8.43,8.43,0,0,1,1.806-1.907" transform="translate(421.476 9099.93)" fill="#f87b4a"/>
    <path id="Trazado_281527" data-name="Trazado 281527" d="M62.777,71.407a8.43,8.43,0,0,0-1.806,1.907c-.431-.2-.859-.416-1.3-.609-.3-.132-.319-.276-.078-.49.171-.151.323-.322.485-.483,1.173-1.173,1.173-1.173,2.694-.325" transform="translate(421.476 9099.93)" fill="#f45331"/>
    <path id="Trazado_281528" data-name="Trazado 281528" d="M70,38.731a3.535,3.535,0,0,1,3.308,2.458c.221.738.016,1.305-.545,1.5-.65.229-1.159-.035-1.418-.81a1.381,1.381,0,0,0-1.36-1.061A1.43,1.43,0,0,0,68.6,41.869c-.295.763-.78,1.049-1.4.837-.568-.194-.778-.81-.533-1.56A3.529,3.529,0,0,1,70,38.731" transform="translate(421.476 9099.93)" fill="#030302"/>
    <path id="Trazado_281529" data-name="Trazado 281529" d="M93.8,77.949c-.757.015-1.514.055-2.27.04-.817-.016-1.61-.04-1.961.982-.2-.667-.4-1.33-.585-2-.149-.546-.295-1.088-.972-1.189-.711-.107-1.009.4-1.315.9-.559.923-1.144,1.83-1.693,2.759a.66.66,0,0,1-.711.4,1.786,1.786,0,0,0-.551,0,3.072,3.072,0,0,1-3.116-1.352,4.578,4.578,0,0,1-1.32-3.361,4.085,4.085,0,0,1,2.7-3.6,3.885,3.885,0,0,1,4.3.737c.582.519,1.095,1.115,1.652,1.662a1.045,1.045,0,0,0,1.681.007c.542-.531,1.045-1.1,1.592-1.626a3.639,3.639,0,0,1,2.569-1.151,5.577,5.577,0,0,1,0,6.8" transform="translate(421.476 9099.93)" fill="#f8693a"/>
    <path id="Trazado_281530" data-name="Trazado 281530" d="M93.8,77.949a5.577,5.577,0,0,0,0-6.8,3.821,3.821,0,0,1,3.863,2.1,4.241,4.241,0,0,1-.087,4.445A.513.513,0,0,1,97.1,78c-1.1-.022-2.2-.035-3.294-.051" transform="translate(421.476 9099.93)" fill="#f45331"/>
    <path id="Trazado_281531" data-name="Trazado 281531" d="M88.707,83c.9.428,1.356.271,1.762-.6.048-.1.091-.21.14-.314.317-.657.392-1.6.969-1.914s1.43-.1,2.163-.1c.5-.007,1,0,1.48,0,.066.2-.053.261-.125.335q-2.737,2.818-5.479,5.631c-.627.642-.992.643-1.613.012-.337-.343-.651-.708-.975-1.062.144-.32.449-.5.66-.759.334-.412.867-.657,1.018-1.221" transform="translate(421.476 9099.93)" fill="#f45331"/>
    <path id="Trazado_281532" data-name="Trazado 281532" d="M88.707,83c-.151.564-.684.809-1.018,1.221-.211.26-.516.439-.66.759L84.06,82.059c-.013-.078-.027-.157-.041-.236,2.212.685,2.541-1.172,3.444-2.383.574,1.188.594,2.491,1.244,3.563" transform="translate(421.476 9099.93)" fill="#f8693a"/>
    <path id="Trazado_281533" data-name="Trazado 281533" d="M56.557,64.957a1.046,1.046,0,0,1-.591.93.985.985,0,0,1-1.2-.213c-.789-.771-1.562-1.556-2.342-2.335-.942-.942-1.888-1.879-2.824-2.827-.567-.574-.6-1.175-.12-1.628.459-.43,1.027-.384,1.578.163q2.541,2.524,5.07,5.063a1.27,1.27,0,0,1,.429.847" transform="translate(421.476 9099.93)" fill="#030302"/>
    <path id="Trazado_281534" data-name="Trazado 281534" d="M52.859,66.587a1.033,1.033,0,1,1-.011,2.066,1.029,1.029,0,0,1-1-1.008,1.009,1.009,0,0,1,1.01-1.058" transform="translate(421.476 9099.93)" fill="#040302"/>
    <path id="Trazado_281535" data-name="Trazado 281535" d="M55.685,68.965c.572.631.631,1.229.165,1.671-.445.421-1.015.351-1.625-.2-.32-1.17.266-1.761,1.46-1.472" transform="translate(421.476 9099.93)" fill="#040302"/>
    <path id="Trazado_281536" data-name="Trazado 281536" d="M92.837,51.99a4.131,4.131,0,0,1-1.813-.913.9.9,0,0,1-.248-1.228.973.973,0,0,1,1.216-.5,4.969,4.969,0,0,1,.685.3,4.651,4.651,0,0,0,.391.267,1.113,1.113,0,0,1,.723,1.137,1.085,1.085,0,0,1-.954.946" transform="translate(421.476 9099.93)" fill="#040302"/>
  </g>
</svg>
