<svg xmlns="http://www.w3.org/2000/svg" width="127.048" height="110.026" viewBox="0 0 127.048 110.026">
  <g id="Grupo_262704" data-name="Grupo 262704" transform="translate(-424.561 -9243.623)">
    <path id="Trazado_281537" data-name="Trazado 281537" d="M98.371,143.693H34.847L3.085,198.706,34.847,253.72H98.371l31.762-55.014Z" transform="translate(421.476 9099.93)" fill="#e2e8ec"/>
    <path id="Trazado_281538" data-name="Trazado 281538" d="M68.908,156.889a27.364,27.364,0,0,0,3.087.6A24.127,24.127,0,1,1,42.863,185.14a23.763,23.763,0,0,1,5.04-19.356,4.1,4.1,0,0,0,.34-.412c.31-.518.625-.491.983-.05a2.1,2.1,0,0,0,.354.282c.765.812.77.815.028,1.735a20.636,20.636,0,0,0-4.7,11.5c-.66,8.5,2.552,15.268,9.488,20.228a15.326,15.326,0,0,0,4.971,2.449h.011c.079.125.21.129.336.146a20.794,20.794,0,0,0,10.324.889A21.812,21.812,0,0,0,71.27,159.7a20.307,20.307,0,0,0-11.233.562c-.133-.008-.267-.016-.342.129l.012-.008c-.173.005-.356-.012-.459.176v-.012a1.673,1.673,0,0,0-.8.229,21.846,21.846,0,0,0-5.5,3.225c-.9.715-.9.71-1.765.008-.674-1.006-.671-1,.363-1.828A24.151,24.151,0,0,1,63.7,157.054c.159-.021.372.071.458-.165Z" transform="translate(421.476 9099.93)" fill="#040303"/>
    <path id="Trazado_281539" data-name="Trazado 281539" d="M49.612,235.308c-2.22,0-4.44-.024-6.659.016-.594.011-.718-.166-.7-.721.044-1.172-.041-2.351.031-3.52a3.846,3.846,0,0,0-.713-2.41c-3.1-4.851-6.153-9.727-9.233-14.588a2.147,2.147,0,0,1-.355-1.208q.02-10.41.01-20.82a3.128,3.128,0,0,1,4.243-3.221,4.8,4.8,0,0,1,3.626,4.328c.054.508.177.641.707.629a4.785,4.785,0,0,1,4.915,4.7c.037,1.505.008,3.011.015,4.516,0,.258-.1.554.36.594,1.884.165,2.915,1.4,3.632,2.991,1.267,2.8,2.411,5.669,3.807,8.407a23.356,23.356,0,0,1,2.138,8.357c.385,3.624.864,7.238,1.317,10.855.139,1.1.161,1.1-.944,1.1Zm4.364-4.608c-.346-2.937-.665-5.878-1.054-8.809a11.21,11.21,0,0,0-.547-3.226q-2.458-5.5-4.915-11.012a4.059,4.059,0,0,0-.812-1.284,1.391,1.391,0,0,0-1.46-.429,1.548,1.548,0,0,0-1.109,1.249,2.5,2.5,0,0,0,.116,1.2q1.762,6.048,3.509,12.1c.489,1.686.484,1.653-1.188,2.158-.51.154-.6-.027-.717-.423-.542-1.91-1.114-3.811-1.644-5.723a2.072,2.072,0,0,0-.62-1.018c-1.778-1.648-3.534-3.321-5.324-4.956a1.643,1.643,0,0,1-.61-1.375c.043-1.607.015-3.216.015-4.824,0-3.5,0-6.994,0-10.491a2.668,2.668,0,0,0-1.786-2.741c-1.087-.356-1.533-.038-1.533,1.1q0,9.993-.009,19.985a2.257,2.257,0,0,0,.383,1.277c2.975,4.691,5.92,9.4,8.911,14.081a4.548,4.548,0,0,1,1.018,3.165c-.01.611,0,1.223-.035,1.833-.021.368.1.476.472.474q4.4-.02,8.795,0c.327,0,.455-.075.4-.426-.1-.627-.168-1.259-.25-1.889M42.421,211.3l.175-.122c-.22-.776-.436-1.554-.66-2.329a4.033,4.033,0,0,1,.951-4.1.886.886,0,0,0,.319-.649c-.014-1.886.016-3.774-.026-5.659a2.507,2.507,0,0,0-2.073-2.329c-.865-.144-1.188.114-1.19.993q-.008,5.661,0,11.321c0,.223-.07.474.121.654.791.745,1.588,1.483,2.383,2.224" transform="translate(421.476 9099.93)" fill="#030303"/>
    <path id="Trazado_281540" data-name="Trazado 281540" d="M94.2,222.182c1.061.786,1.061.786.333,1.941-1.073,1.7-2.138,3.409-3.227,5.1a2.191,2.191,0,0,0-.362,1.284c.023,1.429,0,2.859.017,4.288.006.392-.088.522-.5.521q-6.814-.022-13.629,0c-.592,0-.447-.323-.411-.625q.481-4.026.975-8.049c.28-2.278.584-4.553.836-6.834a7.624,7.624,0,0,1,.621-2.342c1.614-3.569,3.195-7.152,4.795-10.728.634-1.415,1.47-2.732,3.1-3.014.941-.162,1.027-.545.992-1.319-.057-1.274-.034-2.552-.008-3.828a4.782,4.782,0,0,1,4.981-4.784c.555.015.589-.19.637-.621a4.837,4.837,0,0,1,4.678-4.492,2.974,2.974,0,0,1,3.192,2.979c.018,7.146.007,14.292.015,21.439a1.5,1.5,0,0,1-.276.846c-1.272,2-2.53,4-3.793,6.009-.616.977-.616.976-1.58.478a1.015,1.015,0,0,0-.229-.19c-.7-.288-.738-.632-.3-1.279,1.235-1.838,2.377-3.738,3.566-5.608a1.759,1.759,0,0,0,.319-.988q-.017-10.181-.01-20.36c0-.877-.315-1.128-1.194-.986a2.62,2.62,0,0,0-2.123,2.847q-.009,7.692.008,15.384a1.446,1.446,0,0,1-.513,1.185c-1.786,1.638-3.537,3.314-5.322,4.952A2.58,2.58,0,0,0,89,216.666c-.427,1.544-.876,3.083-1.323,4.622-.436,1.5-.429,1.459-1.946,1.073-.622-.158-.665-.367-.5-.935,1.283-4.342,2.526-8.7,3.788-13.046a2.654,2.654,0,0,0,.148-.9,1.578,1.578,0,0,0-1.082-1.518,1.432,1.432,0,0,0-1.634.523,4.538,4.538,0,0,0-.73,1.246Q83.3,213.166,80.872,218.6a3.14,3.14,0,0,0-.286.865Q79.9,225.08,79.243,230.7c-.077.579-.128,1.164-.24,1.736-.1.49.071.589.541.585,2.32-.025,4.64,0,6.96-.019.7-.006,1.691.326,2.031-.144s.084-1.414.088-2.149a4.4,4.4,0,0,1,.886-2.964c1.149-1.672,2.222-3.4,3.25-5.149.4-.687.754-.984,1.44-.413m-3.6-10.973.122.167c.85-.81,1.7-1.617,2.545-2.435.056-.055.04-.195.04-.3q0-5.885,0-11.768c0-.569-.305-.816-.874-.8a2.525,2.525,0,0,0-2.4,2.5c-.029,1.809,0,3.617-.015,5.426a.943.943,0,0,0,.3.732A3.868,3.868,0,0,1,91.41,208.3c-.187.984-.536,1.938-.813,2.906" transform="translate(421.476 9099.93)" fill="#030303"/>
    <path id="Trazado_281541" data-name="Trazado 281541" d="M79.243,230.7c.445-3.745.886-7.491,1.344-11.235a3.108,3.108,0,0,1,.286-.865q2.422-5.435,4.856-10.866a4.563,4.563,0,0,1,.73-1.246,1.429,1.429,0,0,1,1.634-.523,1.58,1.58,0,0,1,1.083,1.518,2.663,2.663,0,0,1-.149.9c-1.261,4.349-2.5,8.7-3.787,13.046-.168.568-.125.777.5.935,1.517.385,1.511.425,1.946-1.074.447-1.539.9-3.077,1.323-4.622a2.584,2.584,0,0,1,.775-1.272c1.785-1.639,3.536-3.315,5.322-4.953a1.45,1.45,0,0,0,.514-1.185q-.027-7.692-.009-15.384a2.622,2.622,0,0,1,2.124-2.847c.878-.141,1.193.109,1.194.987q0,10.179.009,20.359a1.749,1.749,0,0,1-.319.988c-1.188,1.87-2.331,3.77-3.565,5.609-.435.646-.4.99.3,1.279a1.006,1.006,0,0,1,.228.189c-.6.472-.664,1.368-1.383,1.746-.686-.57-1.035-.274-1.439.413-1.028,1.75-2.1,3.477-3.251,5.149a4.406,4.406,0,0,0-.886,2.964l-9.38-.009" transform="translate(421.476 9099.93)" fill="#f4ccb8"/>
    <path id="Trazado_281542" data-name="Trazado 281542" d="M59.369,201.52a15.326,15.326,0,0,1-4.971-2.449c-6.936-4.96-10.148-11.733-9.488-20.229a20.633,20.633,0,0,1,4.7-11.5c.742-.92.737-.924-.028-1.735a12.418,12.418,0,0,1,1.6-1.6c.865.7.869.707,1.765-.009a21.845,21.845,0,0,1,5.5-3.225,1.7,1.7,0,0,1,.8-.229c-.163.391-.558.495-.874.684a22.853,22.853,0,0,0-9.251,10.315,4.918,4.918,0,0,0-.728,2.215l0-.018c-.216.1-.157.3-.161.47l.009-.011c-.18.074-.175.182-.057.311a20.191,20.191,0,0,0-.882,9.42c.189,1.362.628,2.663.936,4-.006.145-.013.291.155.361l0-.019a1.361,1.361,0,0,0,.086.672,22.9,22.9,0,0,0,8.839,11.189,9.505,9.505,0,0,1,2.048,1.393" transform="translate(421.476 9099.93)" fill="#db1842"/>
    <path id="Trazado_281543" data-name="Trazado 281543" d="M48.4,173.756a4.918,4.918,0,0,1,.728-2.215,22.848,22.848,0,0,1,9.251-10.315c.316-.189.711-.293.874-.684v.012c.185.025.369.048.459-.176l-.012.009a.289.289,0,0,0,.342-.129A20.3,20.3,0,0,1,71.27,159.7a21.813,21.813,0,0,1-1.23,42.859,20.794,20.794,0,0,1-10.324-.889c-.056-.179-.173-.214-.336-.147l-.011,0a9.505,9.505,0,0,0-2.048-1.393,22.9,22.9,0,0,1-8.839-11.189,1.362,1.362,0,0,1-.086-.672c.232.154.256.426.358.649a19.537,19.537,0,1,0,.39-16.639,6.949,6.949,0,0,1-.748,1.48" transform="translate(421.476 9099.93)" fill="#eb5573"/>
    <path id="Trazado_281544" data-name="Trazado 281544" d="M59.706,160.378c-.089.224-.274.2-.458.176.1-.188.285-.17.458-.176" transform="translate(421.476 9099.93)" fill="#db1842"/>
    <path id="Trazado_281545" data-name="Trazado 281545" d="M60.036,160.258a.288.288,0,0,1-.342.129c.076-.145.209-.137.342-.129" transform="translate(421.476 9099.93)" fill="#db1842"/>
    <path id="Trazado_281546" data-name="Trazado 281546" d="M59.38,201.518c.162-.067.28-.032.336.147-.126-.018-.258-.021-.336-.147" transform="translate(421.476 9099.93)" fill="#db1842"/>
    <path id="Trazado_281547" data-name="Trazado 281547" d="M44.6,230.708a4.548,4.548,0,0,0-1.018-3.165c-2.99-4.681-5.936-9.39-8.911-14.08a2.262,2.262,0,0,1-.383-1.277q.02-9.993.009-19.986c0-1.14.446-1.459,1.533-1.1a2.666,2.666,0,0,1,1.786,2.741c.008,3.5,0,6.993,0,10.49,0,1.608.028,3.217-.015,4.824a1.641,1.641,0,0,0,.611,1.375c1.79,1.635,3.545,3.308,5.324,4.956a2.071,2.071,0,0,1,.619,1.018c.531,1.912,1.1,3.814,1.644,5.723.113.4.207.577.717.423,1.672-.5,1.677-.471,1.188-2.158q-1.755-6.05-3.509-12.1a2.49,2.49,0,0,1-.115-1.2,1.546,1.546,0,0,1,1.108-1.249,1.4,1.4,0,0,1,1.461.429,4.068,4.068,0,0,1,.811,1.284q2.458,5.507,4.915,11.013a11.2,11.2,0,0,1,.547,3.225c.389,2.931.708,5.872,1.054,8.809l-9.379.009" transform="translate(421.476 9099.93)" fill="#f4ccb8"/>
    <path id="Trazado_281548" data-name="Trazado 281548" d="M42.421,211.3c-.8-.741-1.592-1.479-2.383-2.224-.191-.18-.121-.431-.121-.654q0-5.661,0-11.321c0-.879.325-1.137,1.19-.993a2.507,2.507,0,0,1,2.073,2.329c.042,1.885.012,3.773.026,5.659a.886.886,0,0,1-.319.649,4.033,4.033,0,0,0-.951,4.1c.224.775.44,1.553.66,2.329l-.175.122" transform="translate(421.476 9099.93)" fill="#e2bdac"/>
    <path id="Trazado_281549" data-name="Trazado 281549" d="M44.6,230.708l9.379-.009c.082.63.148,1.263.25,1.889.058.351-.07.427-.4.426q-4.4-.015-8.795,0c-.366,0-.493-.107-.472-.475.034-.61.026-1.222.035-1.833" transform="translate(421.476 9099.93)" fill="#e2bdac"/>
    <path id="Trazado_281550" data-name="Trazado 281550" d="M90.6,211.209c.277-.968.626-1.922.813-2.906a3.868,3.868,0,0,0-1.092-3.575.943.943,0,0,1-.3-.732c.011-1.809-.014-3.617.015-5.426a2.525,2.525,0,0,1,2.4-2.5c.569-.014.873.233.874.8q.006,5.885,0,11.768c0,.1.016.241-.04.3-.842.818-1.695,1.625-2.545,2.435Z" transform="translate(421.476 9099.93)" fill="#e2bdac"/>
    <path id="Trazado_281551" data-name="Trazado 281551" d="M79.243,230.7l9.38.009c0,.735.263,1.665-.087,2.149s-1.33.138-2.032.144c-2.32.021-4.64-.005-6.96.019-.47,0-.637-.094-.541-.584.113-.573.163-1.158.24-1.737" transform="translate(421.476 9099.93)" fill="#e2bdac"/>
    <path id="Trazado_281552" data-name="Trazado 281552" d="M48.4,173.756a6.949,6.949,0,0,0,.748-1.48,19.52,19.52,0,1,1-.39,16.639c-.1-.223-.127-.495-.358-.649l0,.019a.3.3,0,0,0-.155-.362c-.308-1.332-.747-2.633-.936-4a20.2,20.2,0,0,1,.882-9.421l.057-.311-.009.011a.434.434,0,0,0,.161-.47Zm12.97,23.61c.088.134.22.118.352.1a15.549,15.549,0,0,0,8.368.414,17.216,17.216,0,0,0,3.055-32.8,16.215,16.215,0,0,0-11.422-.53c-.133-.015-.264-.027-.355.1l.031.028-.025-.033c-.195.051-.4.088-.585.156A17.229,17.229,0,0,0,53.876,192.6a16.073,16.073,0,0,0,7.5,4.778Z" transform="translate(421.476 9099.93)" fill="#040303"/>
    <path id="Trazado_281553" data-name="Trazado 281553" d="M48.4,173.738a.434.434,0,0,1-.161.47c0-.174-.055-.369.161-.47" transform="translate(421.476 9099.93)" fill="#eb5573"/>
    <path id="Trazado_281554" data-name="Trazado 281554" d="M48.245,174.2l-.057.311c-.118-.129-.123-.237.057-.311" transform="translate(421.476 9099.93)" fill="#eb5573"/>
    <path id="Trazado_281555" data-name="Trazado 281555" d="M48.243,187.924a.293.293,0,0,1,.155.361c-.168-.07-.161-.216-.155-.361" transform="translate(421.476 9099.93)" fill="#eb5573"/>
    <path id="Trazado_281556" data-name="Trazado 281556" d="M61.718,164.55a16.223,16.223,0,0,1,11.423.531,17.216,17.216,0,0,1-3.056,32.8,15.559,15.559,0,0,1-8.368-.414.263.263,0,0,0-.351-.1l.008.006c-.128-.311-.435-.406-.691-.554a15.409,15.409,0,0,1-2.662-1.907,18.029,18.029,0,0,1-6.108-16.6,17.8,17.8,0,0,1,7.739-12.456c.57-.408,1.284-.613,1.718-1.211l.025.034-.031-.028a.262.262,0,0,0,.354-.1m4.911,7.269c-1.327,0-2.655.018-3.982-.01-.477-.01-.668.087-.647.62.045,1.173,0,2.349.023,3.522.007.374-.1.478-.473.47-1.148-.022-2.3.031-3.445-.023-.6-.029-.706.175-.7.727q.045,3.906,0,7.811c-.005.515.1.71.658.688,1.147-.045,2.3,0,3.446-.022.392-.007.523.1.513.508-.029,1.148.022,2.3-.024,3.445-.022.557.168.666.686.661,2.629-.026,5.258-.022,7.887,0,.476,0,.668-.087.648-.62-.046-1.173,0-2.349-.023-3.522-.008-.376.107-.476.473-.469,1.149.022,2.3-.031,3.445.023.6.029.705-.178.7-.728q-.043-3.906,0-7.811c0-.516-.1-.709-.659-.687-1.147.045-2.3,0-3.445.021-.394.008-.522-.1-.512-.508.028-1.148-.023-2.3.023-3.445.022-.557-.167-.676-.686-.661-1.3.036-2.6.012-3.9.012m5.415-3.547c0-1.25,0-1.25-.847-1.251-1.463,0-1.463,0-1.464.946,0,1.361,0,1.361.967,1.361,1.344,0,1.344,0,1.344-1.056m2.284,2.147c0,1.206,0,1.206.892,1.206,1.419,0,1.419,0,1.419-.9,0-1.4,0-1.4-.925-1.4-1.386,0-1.386,0-1.386,1.1" transform="translate(421.476 9099.93)" fill="#fdfdfd"/>
    <path id="Trazado_281557" data-name="Trazado 281557" d="M61.37,164.648c-.434.6-1.148.8-1.718,1.21a17.805,17.805,0,0,0-7.739,12.457,18.028,18.028,0,0,0,6.108,16.6,15.414,15.414,0,0,0,2.662,1.908c.256.148.563.243.691.554a16.06,16.06,0,0,1-7.5-4.778,17.228,17.228,0,0,1,6.908-27.79c.19-.068.391-.1.586-.157" transform="translate(421.476 9099.93)" fill="#b4e3f8"/>
    <path id="Trazado_281558" data-name="Trazado 281558" d="M61.718,164.55a.262.262,0,0,1-.354.1c.09-.129.222-.118.354-.1" transform="translate(421.476 9099.93)" fill="#b4e3f8"/>
    <path id="Trazado_281559" data-name="Trazado 281559" d="M61.366,197.366a.265.265,0,0,1,.352.1c-.132.015-.264.031-.352-.1" transform="translate(421.476 9099.93)" fill="#b4e3f8"/>
    <path id="Trazado_281560" data-name="Trazado 281560" d="M66.629,171.818c1.3,0,2.605.024,3.9-.012.519-.014.708.1.686.661-.046,1.147,0,2.3-.023,3.445-.01.408.118.517.512.509,1.148-.023,2.3.024,3.445-.022.558-.022.664.171.659.688q-.039,3.9,0,7.81c.007.551-.1.758-.7.729-1.146-.055-2.3,0-3.445-.024-.366-.007-.481.094-.473.469.024,1.174-.023,2.35.022,3.522.021.534-.171.624-.647.62q-3.943-.03-7.887,0c-.518,0-.708-.1-.686-.661.046-1.147-.005-2.3.024-3.445.01-.41-.121-.516-.513-.508-1.149.023-2.3-.024-3.446.022-.559.022-.663-.174-.658-.689q.039-3.9,0-7.81c-.007-.552.1-.756.7-.728,1.146.054,2.3,0,3.445.024.368.007.48-.1.473-.47-.024-1.174.022-2.35-.023-3.522-.021-.533.17-.631.647-.621,1.327.029,2.655.01,3.982.01m-4.495,6.911c-.681,0-1.244.023-1.8-.007-.442-.025-.638.078-.621.58.037,1.147.03,2.3,0,3.443-.01.442.137.567.566.558,1.148-.026,2.3.011,3.444-.019.467-.012.619.123.6.6-.033,1.147.006,2.3-.019,3.444-.009.426.113.578.555.568q1.721-.041,3.444,0c.457.012.625-.107.61-.592-.035-1.122.012-2.246-.022-3.368-.015-.49.112-.671.629-.654,1.122.036,2.246-.006,3.368.019.442.011.637-.08.62-.581-.037-1.147-.03-2.3,0-3.444.011-.442-.139-.566-.567-.557-1.148.026-2.3-.012-3.444.019-.468.012-.618-.126-.6-.6.033-1.147,0-2.3.019-3.444.01-.426-.114-.578-.555-.568-1.173.027-2.347.022-3.52,0-.388-.007-.551.1-.53.513.03.586.029,1.175,0,1.76-.035.755.33,1.729-.151,2.2-.446.438-1.411.079-2.025.127" transform="translate(421.476 9099.93)" fill="#070505"/>
    <path id="Trazado_281561" data-name="Trazado 281561" d="M72.044,168.271c0,1.057,0,1.057-1.344,1.057-.968,0-.968,0-.967-1.361,0-.947,0-.947,1.463-.946.848,0,.848,0,.848,1.25" transform="translate(421.476 9099.93)" fill="#0c0c0c"/>
    <path id="Trazado_281562" data-name="Trazado 281562" d="M74.328,170.419c0-1.1,0-1.1,1.386-1.1.926,0,.926,0,.925,1.4,0,.905,0,.905-1.419.9-.892,0-.892,0-.892-1.206" transform="translate(421.476 9099.93)" fill="#0c0c0c"/>
    <path id="Trazado_281563" data-name="Trazado 281563" d="M62.134,178.729c.614-.048,1.579.311,2.025-.127.481-.472.116-1.446.151-2.2.027-.585.028-1.174,0-1.76-.021-.412.142-.52.53-.513,1.173.019,2.347.024,3.52,0,.441-.01.565.142.555.568-.024,1.148.014,2.3-.019,3.444-.014.476.136.614.6.6,1.147-.031,2.3.007,3.444-.019.428-.009.578.115.567.557-.028,1.147-.035,2.3,0,3.444.017.5-.178.592-.62.581-1.122-.025-2.246.017-3.368-.019-.517-.017-.644.164-.629.654.034,1.122-.013,2.246.022,3.368.015.485-.153.6-.61.592q-1.722-.042-3.444,0c-.442.01-.564-.142-.555-.568.025-1.148-.014-2.3.019-3.444.014-.478-.138-.613-.6-.6-1.147.03-2.3-.007-3.444.019-.429.009-.576-.116-.566-.558.028-1.147.035-2.3,0-3.443-.017-.5.179-.6.621-.58.56.03,1.123.007,1.8.007" transform="translate(421.476 9099.93)" fill="#ef5776"/>
  </g>
</svg>
