<svg xmlns="http://www.w3.org/2000/svg" width="83" height="83" viewBox="0 0 83 83">
  <g id="Grupo_1069957" data-name="Grupo 1069957" transform="translate(-180 -2681)">
    <circle id="Elipse_4699" data-name="Elipse 4699" cx="41.5" cy="41.5" r="41.5" transform="translate(180 2681)" fill="#3b5620"/>
    <g id="Grupo_261839" data-name="Grupo 261839" transform="translate(-376.146 21.848)">
      <path id="Trazado_279877" data-name="Trazado 279877" d="M80.146,72.035v1.289c-.044.057-.111.107-.13.172a3.786,3.786,0,0,1-2.683,2.641H22.74a.683.683,0,0,0-.165-.115,3.526,3.526,0,0,1-1.772-5.4,1.3,1.3,0,0,0,.236-.72c.006-1.181-.08-2.364-.033-3.542s.285-2.364.314-3.548a50.7,50.7,0,0,0-.329-7.943c-.166-1.253-.236-2.52-.362-3.779-.148-1.486-.389-2.967-.441-4.456a24.045,24.045,0,0,1,.23-3.571,10.14,10.14,0,0,1,1.807-4.651.827.827,0,0,0,.095-.972A10.191,10.191,0,0,1,21.092,31.4a6.5,6.5,0,0,1,3.5-4.928c1.765-.957,3.624-1.741,5.441-2.6a.685.685,0,0,0,.458-.632,4.178,4.178,0,0,1,3.864-3.612,22.737,22.737,0,0,1,4.826.612,1.873,1.873,0,0,1,1.349,2.425,27.836,27.836,0,0,1-1.775,3.279,4.05,4.05,0,0,1-2.545,2.174,15.592,15.592,0,0,1-2.772.056,1.7,1.7,0,0,0-.647.012,44.072,44.072,0,0,0-4.658,2.286,2.779,2.779,0,0,0-1.176,3.96,2.137,2.137,0,0,0,.213-.062A10.209,10.209,0,0,1,31.7,33.6c1.67.111,3.339.232,5.01.349.556.039,1.111.09,1.668.12,1.168.061,2.337.111,3.576.169a4.466,4.466,0,0,1-.593-3.109,4.27,4.27,0,0,1,1.627-2.716c1.16-.767,2.377-1.449,3.438-2.089a25.125,25.125,0,0,1-2.214-2.036,4.964,4.964,0,0,1-1.175-3.6,14.536,14.536,0,0,1,.653-2.739,2.25,2.25,0,0,1,2.062-1.783,2.4,2.4,0,0,1,2.419,1.285,3.786,3.786,0,0,0,.882,1.123c.917.7,1.9,1.322,2.787,1.931.761-.4,1.406-.756,2.062-1.088a1.015,1.015,0,0,1,1.421.354c.194.594.066.833-.62,1.18A13.047,13.047,0,0,0,49.8,24.986,10.912,10.912,0,0,0,47.708,34a8.771,8.771,0,0,0,2.519,4.527c.065-.235.111-.418.167-.6a7.985,7.985,0,0,1,2.277-3.577,28.079,28.079,0,0,1,2.875-2.038.356.356,0,0,0,.115-.013,11.9,11.9,0,0,1,7.725-.8,10.666,10.666,0,0,1,5.477,2.981,7.923,7.923,0,0,1,2.325,4.1c.163-.188.266-.316.378-.436a8.824,8.824,0,0,0,2.354-5.965,14.6,14.6,0,0,0-.227-2.574,10.491,10.491,0,0,0-2.615-5.351,13.474,13.474,0,0,0-4.543-3.325,14.74,14.74,0,0,0-7.242-1.134,1.821,1.821,0,0,0-.626,0,1.089,1.089,0,0,1-1.487-.5c.013-.874.23-1.1,1.119-1.166a.915.915,0,0,0,.174-.006,12.083,12.083,0,0,1,5.035.042,14.689,14.689,0,0,1,5.658,2.158.459.459,0,0,0,.375.037,8.148,8.148,0,0,0,3.766-3.019,2.771,2.771,0,0,1,1.085-.948,2.508,2.508,0,0,1,3.421,1.661,9.312,9.312,0,0,1,.472,3.207,5.105,5.105,0,0,1-1.579,3.615,16.768,16.768,0,0,1-1.9,1.441c.373.2.793.409,1.2.644.786.455,1.6.872,2.34,1.4a5.059,5.059,0,0,1,1.8,2.893V32.78c-.113.245-.224.492-.341.736A4.551,4.551,0,0,1,75.3,36.407a.789.789,0,0,0-.789.475,23.854,23.854,0,0,1-2.3,3.133A6.691,6.691,0,0,0,70.807,41.8a8.247,8.247,0,0,1-1.361,1.957A9.581,9.581,0,0,1,66.368,45.9a1.068,1.068,0,0,0-.5.572,32.135,32.135,0,0,1-2.953,7.345,17.507,17.507,0,0,1-3.787,4.695,7.4,7.4,0,0,0-2.018,2.533,9.877,9.877,0,0,0-.73,3.6.562.562,0,0,0,.3.447,17.6,17.6,0,0,0,6.314.523c1.97-.183,3.962-.122,5.945-.145a7.937,7.937,0,0,1,3.9,1.088c1.947,1.062,3.884,2.153,5.767,3.325a5.7,5.7,0,0,1,1.267,1.5,2.785,2.785,0,0,1,.274.646m-43.208-17.7a2.922,2.922,0,0,1-.846,2.084,9.863,9.863,0,0,0-.9,1.3c.034.047.065.1.1.143a4.022,4.022,0,0,1,2.836,1.01,5.307,5.307,0,0,0,2.658.844c1.473-.033,2.948-.056,4.421-.115.135-.006.331-.225.381-.383a2.633,2.633,0,0,0-1.4-3.122,3.259,3.259,0,0,1-2.006-3.048,2.577,2.577,0,0,0-2.092-2.419A2.548,2.548,0,0,0,37.3,51.8a4.466,4.466,0,0,0-.362,2.535M55.891,34.181a7.432,7.432,0,0,0-2.963,2.592c-1.745,2.613-1.256,4.683.9,6.369a11.079,11.079,0,0,0,8.424,2.05c.58-.069,1.146-.245,1.717-.372a8.549,8.549,0,0,0,4.651-2.706,3.647,3.647,0,0,0,.735-3.506,7.817,7.817,0,0,0-4.5-4.774,10.041,10.041,0,0,0-5.039-.823,8.773,8.773,0,0,0-3.928,1.17M38.444,35.966a6.624,6.624,0,0,0-.727-.144c-1.038-.087-2.088-.1-3.119-.25a17.32,17.32,0,0,0-4.86-.1,8.768,8.768,0,0,0-5.225,2.892c-2.181,2.323-2.683,5.241-2.576,8.308,0,.134.268.39.355.368a6.088,6.088,0,0,0,1.7-.562,3.788,3.788,0,0,1,4.155.068,3.3,3.3,0,0,0,1.737.492,3.5,3.5,0,0,0,3.4-2.752A3.237,3.237,0,0,1,36.132,41.8a1.355,1.355,0,0,0,.318-.123,10.826,10.826,0,0,0,2.022-.722,4.241,4.241,0,0,0,1.857-4.569c-.069-.289-.184-.482-.544-.451-.445.039-.9.026-1.341.035M35.891,50.691a4.437,4.437,0,0,1,8.033,2.181,1.86,1.86,0,0,0,1.156,1.735,4.3,4.3,0,0,1,2.284,4.653.71.71,0,0,0,.266.6A3.348,3.348,0,0,1,49.272,63c-.037,1.127-.008,2.257-.008,3.394H54.6c-.035-3.011.178-5.932,2.37-8.295-.154-.21-.3-.4-.446-.606-1.195-1.691-2.333-3.409-1.915-5.639a3.257,3.257,0,0,1,1.5-2.552,4.968,4.968,0,0,1,2.017-.476c1.538-.061,3.082-.011,4.624.013.372.005.572-.065.662-.49a13.144,13.144,0,0,1,.556-1.625,2.753,2.753,0,0,0-.4,0,14.732,14.732,0,0,1-4.043.255,13.857,13.857,0,0,1-5.906-1.8A6.723,6.723,0,0,1,50.381,41.2a.922.922,0,0,0-.312-.366,12.193,12.193,0,0,1-3.249-4.044.9.9,0,0,0-.6-.367c-.487-.086-.989-.077-1.482-.133-.868-.1-1.733-.218-2.566-.324-.038.847-.046,1.546-.1,2.241a5.526,5.526,0,0,1-1.945,3.706,6.786,6.786,0,0,1-4.142,1.667A1.69,1.69,0,0,0,34.926,44.9a5.423,5.423,0,0,1-5.307,3.92,6.812,6.812,0,0,1-2.887-.944,2,2,0,0,0-1.306-.11c-1.089.343-2.139.809-3.31,1.268.671,5.677,1.494,11.482.691,17.366h5.2v-.247a5.423,5.423,0,0,1,1.919-4.421c1.08-.9,2.115-1.857,3.15-2.811a1,1,0,0,0,.308-.626,3.541,3.541,0,0,1,.884-2.409,2.884,2.884,0,0,0,.894-2.549,4.015,4.015,0,0,1,.724-2.644m20.447,16.17c0,1.008.017,2-.006,3a2.479,2.479,0,0,1-.563,1.78,2.439,2.439,0,0,1-3.357.58,1.082,1.082,0,0,0-1.132.008,4.368,4.368,0,0,1-3.438.223,3.485,3.485,0,0,0-2.538.032,2.333,2.333,0,0,1-3.077-2.138c-.026-1.03-.005-2.06-.005-3.11a27.259,27.259,0,0,1-7.065.032c0,.87-.021,1.762,0,2.652a2.542,2.542,0,0,1-3.754,2.374,1.242,1.242,0,0,0-.911-.221,5.676,5.676,0,0,1-2.526.514,6.439,6.439,0,0,1-2.088-.375,1.186,1.186,0,0,0-.847-.053A2.636,2.636,0,0,1,22,72.119c-.244,1.45.423,2.259,1.815,2.259q26.325,0,52.652.011a1.84,1.84,0,0,0,1.786-1.17,1.715,1.715,0,0,0-.99-2.1c-.628-.321-1.268-.62-1.873-.978-1.069-.63-2.083-1.359-3.179-1.935a9.874,9.874,0,0,0-5.912-1c-1.727.2-3.48.2-5.222.255a11.952,11.952,0,0,1-1.966-.1c-.916-.125-1.823-.323-2.777-.5M35.174,59.422V65.43a4.787,4.787,0,0,0,.777.154c1.416.052,2.83.112,4.245.11a9.669,9.669,0,0,0,1.75-.241.429.429,0,0,0,.25-.321c.019-1.2.012-2.4.012-3.646-.312,0-.563-.007-.813,0a7.505,7.505,0,0,1-4.652-1.375,9.139,9.139,0,0,0-1.569-.69M39.06,22.17a2.429,2.429,0,0,0-.432-.255,15.533,15.533,0,0,0-4.608-.5.931.931,0,0,0-.376.112,2.647,2.647,0,0,0-1.436,2.543,2.685,2.685,0,0,0,1.68,2.372,2.465,2.465,0,0,0,2.868-.729c.812-1.122,1.515-2.321,2.3-3.544M31.442,26.8c-.218-.361-.392-.615-.53-.888s-.3-.348-.594-.2c-1.646.8-3.333,1.518-4.94,2.387a4.747,4.747,0,0,0-2.627,4.432A8.572,8.572,0,0,0,23.84,36.5l1.534-1.212a4.5,4.5,0,0,1,.328-4.892,8.616,8.616,0,0,1,3.665-2.651c.687-.3,1.363-.62,2.075-.945M62.554,50.589c-1.581,0-3.11-.017-4.64.006a1.39,1.39,0,0,0-1.521,1.327,4.656,4.656,0,0,0,0,1.462,7.928,7.928,0,0,0,1.947,3.492,19.1,19.1,0,0,0,4.218-6.287M50.35,21.626a.561.561,0,0,0-.126-.106,9.52,9.52,0,0,1-3.6-3.258c-.347-.549-.946-.473-1.224.142a10.146,10.146,0,0,0-.467,1.367,4.115,4.115,0,0,0,2.5,4.852.536.536,0,0,0,.479-.074c.819-.954,1.613-1.931,2.433-2.923m20.792.013c.8.984,1.588,1.971,2.407,2.933a.535.535,0,0,0,.516.04,7.554,7.554,0,0,0,1.712-1.337c1.2-1.541.968-3.241.256-4.91-.262-.611-.841-.579-1.277-.045a19.352,19.352,0,0,1-1.808,2.005,17.371,17.371,0,0,1-1.806,1.314M43.966,66.386h3.541V62.892c0-.117.005-.235,0-.351a1.152,1.152,0,0,0-1.225-1.169c-.625,0-1.25.01-1.873,0-.287-.007-.444.07-.443.385.005,1.537,0,3.075,0,4.633m-10.591-5.4c-.91.827-1.683,1.573-2.5,2.264a3.847,3.847,0,0,0-1.1,3.144h3.606ZM28.113,68.23H22.741c0,.547,0,1.051,0,1.556.005.887.542,1.268,1.339.849a2.838,2.838,0,0,1,2.846.1.784.784,0,0,0,1.182-.7c.024-.582.005-1.166.005-1.808m26.375,0H49.249a2.111,2.111,0,0,0-.029.215c0,.468-.007.937,0,1.406.01.785.457,1.149,1.172.82a3.265,3.265,0,0,1,3.148.117.653.653,0,0,0,.948-.581c.017-.643,0-1.287,0-1.977m20.86-33.637.1.192a9.351,9.351,0,0,0,1.658-.625,2.472,2.472,0,0,0,1.248-2.38c-.139-1.629-1.365-2.531-3.019-3.051a12.282,12.282,0,0,1,.01,5.864M46.1,28.653c-2.271.787-3.373,2.349-2.973,3.874A2.723,2.723,0,0,0,46.035,34.6a12.025,12.025,0,0,1,.065-5.942M29.8,70.421a3.028,3.028,0,0,1,2.513.348.711.711,0,0,0,1.059-.529c.053-.668.014-1.343.014-2.013H29.8ZM43.97,68.2c0,.692-.032,1.332.009,1.967a.669.669,0,0,0,.94.6,3.018,3.018,0,0,1,2.5-.357V68.2Z" transform="translate(548 2655)" fill="#010101"/>
      <path id="Trazado_279878" data-name="Trazado 279878" d="M35.979,43.582a6.78,6.78,0,0,0,4.142-1.667,5.519,5.519,0,0,0,1.945-3.706c.058-.695.067-1.394.1-2.241.832.106,1.7.225,2.564.324.494.057,1,.048,1.484.133a.9.9,0,0,1,.6.368,12.2,12.2,0,0,0,3.248,4.044.9.9,0,0,1,.311.366,6.726,6.726,0,0,0,3.242,3.974,13.844,13.844,0,0,0,5.907,1.805,14.805,14.805,0,0,0,4.042-.255,2.6,2.6,0,0,1,.4,0,13.312,13.312,0,0,0-.556,1.625c-.09.426-.29.5-.663.49-1.541-.024-3.085-.073-4.624-.013a4.979,4.979,0,0,0-2.015.476,3.251,3.251,0,0,0-1.5,2.553c-.418,2.23.719,3.948,1.915,5.638.142.2.291.4.446.607-2.194,2.363-2.406,5.283-2.37,8.295h-5.34c0-1.138-.031-2.268.008-3.395a3.349,3.349,0,0,0-1.643-3.145.7.7,0,0,1-.265-.6,4.3,4.3,0,0,0-2.284-4.654,1.86,1.86,0,0,1-1.157-1.735,4.436,4.436,0,0,0-8.032-2.181,17.637,17.637,0,0,1-.244-2.422c.049-1.564.214-3.124.331-4.686" transform="translate(548 2655)" fill="#efedff"/>
      <path id="Trazado_279879" data-name="Trazado 279879" d="M56.338,66.86c.955.176,1.861.372,2.776.5a11.861,11.861,0,0,0,1.966.1c1.743-.054,3.5-.051,5.224-.255a9.87,9.87,0,0,1,5.911,1c1.1.577,2.11,1.306,3.178,1.937.606.357,1.246.656,1.873.977a1.717,1.717,0,0,1,.991,2.1,1.841,1.841,0,0,1-1.786,1.169q-26.327-.02-52.653-.01c-1.392,0-2.059-.808-1.815-2.259a2.639,2.639,0,0,0,3.031.037,1.18,1.18,0,0,1,.847.052,6.439,6.439,0,0,0,2.088.375,5.663,5.663,0,0,0,2.526-.515,1.243,1.243,0,0,1,.91.221,2.542,2.542,0,0,0,3.755-2.373c-.024-.89,0-1.783,0-2.653a27.223,27.223,0,0,0,7.066-.031c0,1.049-.021,2.081.005,3.109A2.331,2.331,0,0,0,45.3,72.479a3.5,3.5,0,0,1,2.538-.031,4.373,4.373,0,0,0,3.438-.224,1.086,1.086,0,0,1,1.133-.006,2.437,2.437,0,0,0,3.355-.582,2.473,2.473,0,0,0,.564-1.779c.024-.993.006-1.988.006-3" transform="translate(548 2655)" fill="#acd980"/>
      <path id="Trazado_279880" data-name="Trazado 279880" d="M59.294,19.793a14.728,14.728,0,0,1,7.24,1.134,13.458,13.458,0,0,1,4.544,3.325A10.489,10.489,0,0,1,73.694,29.6a14.4,14.4,0,0,1,.225,2.574,8.808,8.808,0,0,1-2.352,5.964c-.113.12-.216.249-.378.437a7.924,7.924,0,0,0-2.326-4.1A10.666,10.666,0,0,0,63.386,31.5a11.9,11.9,0,0,0-7.725.8.36.36,0,0,1-.115.013c.037-.774.068-1.549.114-2.323a17.938,17.938,0,0,1,1.692-6.427c.587-1.285,1.29-2.516,1.942-3.771M68.9,30.451c0-.233-.008-.467,0-.7a.715.715,0,0,0-.618-.826c-.438-.068-.957-.069-1.03.521a7.378,7.378,0,0,0-.028,1.929c.07.5.525.68,1.027.581a.751.751,0,0,0,.648-.863c-.008-.214,0-.428,0-.642" transform="translate(548 2655)" fill="#efedff"/>
      <path id="Trazado_279881" data-name="Trazado 279881" d="M35.979,43.582c-.117,1.562-.282,3.122-.331,4.686a17.637,17.637,0,0,0,.244,2.422,4.016,4.016,0,0,0-.725,2.644,2.888,2.888,0,0,1-.893,2.549,3.537,3.537,0,0,0-.885,2.409,1,1,0,0,1-.309.627c-1.035.953-2.069,1.909-3.149,2.811a5.416,5.416,0,0,0-1.919,4.42V66.4h-5.2c.8-5.884-.021-11.689-.691-17.366,1.171-.459,2.221-.925,3.309-1.267a2,2,0,0,1,1.307.11,6.821,6.821,0,0,0,2.886.943,5.422,5.422,0,0,0,5.308-3.92,1.692,1.692,0,0,1,1.053-1.315" transform="translate(548 2655)" fill="#d4d4ff"/>
      <path id="Trazado_279882" data-name="Trazado 279882" d="M36.45,41.672a1.3,1.3,0,0,1-.318.123,3.238,3.238,0,0,0-2.847,2.494,3.494,3.494,0,0,1-3.4,2.751,3.29,3.29,0,0,1-1.737-.492,3.79,3.79,0,0,0-4.155-.068,6.024,6.024,0,0,1-1.7.562c-.087.022-.351-.234-.355-.367-.107-3.067.4-5.985,2.576-8.308a8.775,8.775,0,0,1,5.225-2.893,17.365,17.365,0,0,1,4.861.1c1.03.148,2.08.163,3.119.251a6.13,6.13,0,0,1,.726.144c-.278.663-.594,1.312-.825,1.992-.417,1.229-.782,2.475-1.169,3.714" transform="translate(548 2655)" fill="#5b778f"/>
      <path id="Trazado_279883" data-name="Trazado 279883" d="M59.293,19.793c-.651,1.255-1.355,2.486-1.942,3.771a17.942,17.942,0,0,0-1.691,6.428c-.047.773-.077,1.548-.115,2.322a28.339,28.339,0,0,0-2.875,2.037,8,8,0,0,0-2.276,3.578c-.057.179-.1.362-.167.6A8.77,8.77,0,0,1,47.708,34,10.911,10.911,0,0,1,49.8,24.986a13.047,13.047,0,0,1,4.909-4.035c.686-.347.814-.586.62-1.18L57.18,19.3a1.089,1.089,0,0,0,1.487.5,1.821,1.821,0,0,1,.626,0M54.255,30.438c0-.213,0-.427,0-.64-.006-.6-.235-.858-.79-.885a.869.869,0,0,0-.963.823,12.984,12.984,0,0,0,0,1.4.869.869,0,0,0,.957.829c.554-.024.788-.284.8-.882,0-.213,0-.427,0-.64" transform="translate(548 2655)" fill="#d4d4ff"/>
      <path id="Trazado_279884" data-name="Trazado 279884" d="M55.891,34.18a8.786,8.786,0,0,1,3.928-1.17,10.063,10.063,0,0,1,5.039.823,7.819,7.819,0,0,1,4.5,4.775,3.647,3.647,0,0,1-.734,3.506,8.559,8.559,0,0,1-4.651,2.706c-.937-.679-1.919-1.305-2.8-2.054a23.132,23.132,0,0,1-1.887-2.016c.084-.171.177-.338.249-.514A2.562,2.562,0,0,0,57.981,36.6a6.09,6.09,0,0,0-1.5-.083l-.591-2.332m5.742,4.928a2.625,2.625,0,1,0,5.249-.071,2.373,2.373,0,0,0-2.256-2.495c-1.931-.065-2.989.893-2.993,2.566" transform="translate(548 2655)" fill="#feb3c2"/>
      <path id="Trazado_279885" data-name="Trazado 279885" d="M36.938,54.336A4.459,4.459,0,0,1,37.3,51.8a2.55,2.55,0,0,1,2.793-1.175,2.578,2.578,0,0,1,2.092,2.419,3.257,3.257,0,0,0,2.006,3.047,2.634,2.634,0,0,1,1.4,3.123c-.05.158-.246.377-.382.382-1.472.06-2.946.083-4.42.115a3.049,3.049,0,0,0-.195-.344c-.937-1.251-1.885-2.494-2.815-3.751-.3-.409-.56-.852-.838-1.28" transform="translate(548 2655)" fill="#7a8fa5"/>
      <path id="Trazado_279886" data-name="Trazado 279886" d="M55.891,34.18l.591,2.333a2.738,2.738,0,0,0-1.885,3.2,2.874,2.874,0,0,0,2.442,2,3.357,3.357,0,0,0,2.252-.966,23.277,23.277,0,0,0,1.887,2.016c.877.749,1.86,1.375,2.8,2.054-.572.127-1.139.3-1.718.372a11.078,11.078,0,0,1-8.423-2.05c-2.162-1.686-2.651-3.757-.907-6.369a7.459,7.459,0,0,1,2.964-2.593" transform="translate(548 2655)" fill="#fe9eb1"/>
      <path id="Trazado_279887" data-name="Trazado 279887" d="M39.059,22.17c-.787,1.223-1.492,2.422-2.3,3.544a2.468,2.468,0,0,1-2.869.73,2.687,2.687,0,0,1-1.679-2.373,2.645,2.645,0,0,1,1.436-2.543.905.905,0,0,1,.376-.111,15.464,15.464,0,0,1,4.608.5,2.276,2.276,0,0,1,.431.254" transform="translate(548 2655)" fill="#d4d4fe"/>
      <path id="Trazado_279888" data-name="Trazado 279888" d="M31.441,26.8c-.712.325-1.388.648-2.075.945A8.61,8.61,0,0,0,25.7,30.393a4.5,4.5,0,0,0-.328,4.892L23.839,36.5a8.569,8.569,0,0,1-1.089-3.973,4.749,4.749,0,0,1,2.627-4.432c1.607-.868,3.294-1.588,4.94-2.387.3-.144.453-.072.594.2s.312.527.53.887" transform="translate(548 2655)" fill="#798ea4"/>
      <path id="Trazado_279889" data-name="Trazado 279889" d="M62.553,50.589a19.111,19.111,0,0,1-4.216,6.287,7.911,7.911,0,0,1-1.948-3.492,4.686,4.686,0,0,1,0-1.462A1.391,1.391,0,0,1,57.913,50.6c1.53-.023,3.06-.006,4.64-.006" transform="translate(548 2655)" fill="#798ea4"/>
      <path id="Trazado_279890" data-name="Trazado 279890" d="M50.35,21.626c-.819.992-1.613,1.969-2.433,2.923a.537.537,0,0,1-.48.074,4.115,4.115,0,0,1-2.5-4.852A10.013,10.013,0,0,1,45.4,18.4c.277-.615.878-.691,1.225-.142a9.51,9.51,0,0,0,3.6,3.258.561.561,0,0,1,.126.106" transform="translate(548 2655)" fill="#50687f"/>
      <path id="Trazado_279891" data-name="Trazado 279891" d="M71.142,21.639a17.411,17.411,0,0,0,1.806-1.314,19.572,19.572,0,0,0,1.808-2.005c.437-.535,1.015-.567,1.276.045.714,1.669.946,3.368-.255,4.909a7.526,7.526,0,0,1-1.712,1.337.532.532,0,0,1-.516-.04c-.818-.961-1.607-1.948-2.407-2.932" transform="translate(548 2655)" fill="#798ea4"/>
      <path id="Trazado_279892" data-name="Trazado 279892" d="M43.967,66.385c0-1.557,0-3.1,0-4.632,0-.315.157-.392.443-.385.624.015,1.249,0,1.873.005a1.151,1.151,0,0,1,1.225,1.168c.006.117,0,.234,0,.351v3.493Z" transform="translate(548 2655)" fill="#d4d4ff"/>
      <path id="Trazado_279893" data-name="Trazado 279893" d="M36.45,41.672c.387-1.239.752-2.485,1.169-3.714.231-.68.547-1.329.825-1.992.447-.01.9,0,1.342-.035.359-.031.475.161.544.45a4.243,4.243,0,0,1-1.858,4.569,10.705,10.705,0,0,1-2.022.722" transform="translate(548 2655)" fill="#798ea4"/>
      <path id="Trazado_279894" data-name="Trazado 279894" d="M33.375,60.989V66.4H29.768a3.848,3.848,0,0,1,1.1-3.144c.82-.691,1.594-1.437,2.5-2.264" transform="translate(548 2655)" fill="#bcbcfe"/>
      <path id="Trazado_279895" data-name="Trazado 279895" d="M28.113,68.23c0,.642.019,1.226-.005,1.808a.784.784,0,0,1-1.182.7,2.84,2.84,0,0,0-2.847-.1c-.8.419-1.333.038-1.338-.85,0-.5,0-1.008,0-1.555Z" transform="translate(548 2655)" fill="#7a8fa5"/>
      <path id="Trazado_279896" data-name="Trazado 279896" d="M54.489,68.225c0,.691.014,1.335,0,1.978a.651.651,0,0,1-.947.58,3.267,3.267,0,0,0-3.148-.117c-.715.33-1.163-.035-1.172-.82,0-.468,0-.937,0-1.406a2.148,2.148,0,0,1,.029-.215Z" transform="translate(548 2655)" fill="#7a8fa5"/>
      <path id="Trazado_279897" data-name="Trazado 279897" d="M75.349,34.589a12.294,12.294,0,0,0-.012-5.864c1.655.52,2.882,1.422,3.02,3.051a2.471,2.471,0,0,1-1.248,2.38,9.292,9.292,0,0,1-1.658.625l-.1-.192" transform="translate(548 2655)" fill="#bcbcfe"/>
      <path id="Trazado_279898" data-name="Trazado 279898" d="M46.1,28.653a12.049,12.049,0,0,0-.066,5.942,2.723,2.723,0,0,1-2.907-2.069c-.4-1.525.7-3.086,2.973-3.873" transform="translate(548 2655)" fill="#9da1e2"/>
      <path id="Trazado_279899" data-name="Trazado 279899" d="M36.938,54.336c.278.428.535.871.838,1.28.93,1.257,1.878,2.5,2.815,3.751a3.049,3.049,0,0,1,.195.344,5.289,5.289,0,0,1-2.657-.843,4.018,4.018,0,0,0-2.837-1.01l-.1-.144a9.71,9.71,0,0,1,.9-1.3,2.917,2.917,0,0,0,.845-2.083" transform="translate(548 2655)" fill="#5b768e"/>
      <path id="Trazado_279900" data-name="Trazado 279900" d="M29.8,70.421V68.227h3.585c0,.67.041,1.345-.013,2.013a.711.711,0,0,1-1.058.529,3.023,3.023,0,0,0-2.514-.348" transform="translate(548 2655)" fill="#5b768e"/>
      <path id="Trazado_279901" data-name="Trazado 279901" d="M43.97,68.2h3.447v2.214a3.018,3.018,0,0,0-2.5.357.669.669,0,0,1-.94-.6c-.041-.635-.009-1.275-.009-1.967" transform="translate(548 2655)" fill="#5b778f"/>
      <path id="Trazado_279902" data-name="Trazado 279902" d="M68.9,30.451c0,.214-.007.428,0,.642a.751.751,0,0,1-.648.863c-.5.1-.957-.082-1.027-.581a7.422,7.422,0,0,1,.028-1.929c.073-.59.592-.589,1.03-.521a.715.715,0,0,1,.618.826c-.01.233,0,.467,0,.7" transform="translate(548 2655)" fill="#010101"/>
      <path id="Trazado_279903" data-name="Trazado 279903" d="M54.255,30.438c0,.213,0,.427,0,.64-.008.6-.242.858-.8.882a.869.869,0,0,1-.957-.829,12.984,12.984,0,0,1,0-1.4.869.869,0,0,1,.963-.823c.555.027.784.282.79.885,0,.213,0,.427,0,.64" transform="translate(548 2655)" fill="#010101"/>
      <path id="Trazado_279904" data-name="Trazado 279904" d="M59.291,40.75a3.362,3.362,0,0,1-2.252.966,2.877,2.877,0,0,1-2.442-2,2.738,2.738,0,0,1,1.885-3.2,6.09,6.09,0,0,1,1.5.083,2.562,2.562,0,0,1,1.559,3.641c-.072.176-.165.343-.249.514m-2.229-2.47a.815.815,0,0,0-.8.753c-.09.422.506,1.019.922,1a.956.956,0,0,0,.829-.808.857.857,0,0,0-.952-.948" transform="translate(548 2655)" fill="#010101"/>
      <path id="Trazado_279905" data-name="Trazado 279905" d="M61.633,39.108c0-1.673,1.062-2.631,2.993-2.567a2.374,2.374,0,0,1,2.256,2.5,2.625,2.625,0,1,1-5.249.071m2.606-.821c-.572-.006-.845.235-.847.744,0,.6.255.889.793.9a.91.91,0,0,0,.963-.847.823.823,0,0,0-.909-.8" transform="translate(548 2655)" fill="#010101"/>
      <path id="Trazado_279906" data-name="Trazado 279906" d="M57.062,38.28a.857.857,0,0,1,.952.948.956.956,0,0,1-.829.808c-.416.016-1.012-.581-.922-1a.815.815,0,0,1,.8-.753" transform="translate(548 2655)" fill="#fc758e"/>
      <path id="Trazado_279907" data-name="Trazado 279907" d="M64.239,38.287a.823.823,0,0,1,.909.8.91.91,0,0,1-.963.847c-.538-.009-.794-.3-.793-.9,0-.509.275-.75.847-.744" transform="translate(548 2655)" fill="#fe9eb1"/>
    </g>
  </g>
</svg>
