<svg xmlns="http://www.w3.org/2000/svg" width="165.931" height="166.029" viewBox="0 0 165.931 166.029">
  <g id="Grupo_1070783" data-name="Grupo 1070783" transform="translate(1409.208 10535.459)">
    <g id="Grupo_264927" data-name="Grupo 264927" transform="translate(-3141 -717.911)">
      <path id="Trazado_284782" data-name="Trazado 284782" d="M234.584,1253.834a281.664,281.664,0,0,1,14.885,27.622,93.714,93.714,0,0,1,5.525,14.3,25.97,25.97,0,0,1,1.039,6.9q-.022,30.1-.009,60.206c0,6.876-4.526,11.429-11.363,11.43q-28.847,0-57.693,0c-6.649,0-11.226-4.574-11.227-11.216,0-18.118.092-36.236-.047-54.352-.057-7.436,2.875-13.48,7.662-18.819a45.21,45.21,0,0,1,10.14-8.635,4.555,4.555,0,0,0,1.67-2.023q6.347-12.711,12.72-25.409h26.7m10.736,75.493q0-14.3.008-28.6a5.12,5.12,0,0,0-.512-2.41q-4.743-9.4-9.415-18.844c-.569-1.155-1.027-1.4-2.263-.7-8.182,4.628-16.422,9.154-24.639,13.72-6.9,3.836-13.783,7.719-20.726,11.483a2.388,2.388,0,0,0-1.346,2.53q.036,25.592.018,51.183c0,3.809,2.087,5.891,5.9,5.892q23.5,0,47,0c3.924,0,5.973-2.054,5.974-5.987q0-14.134,0-28.268" transform="translate(1641.689 -11025.809)" fill="#a7d6e3"/>
      <path id="Trazado_284783" data-name="Trazado 284783" d="M207.82,1243.163c-2.055-.007-4.113-.09-6.162.009-1.255.061-1.821-.2-2.026-1.595a10.3,10.3,0,0,0-4.008-7.218,11.854,11.854,0,0,0-6.521-1.949q0-5.312,0-10.625c12.537-.015,25.076-.159,37.611.019,4.506.064,7.9,2.771,10.559,6.283,3.146,4.159,4.414,9.048,5.281,14.08.163.948-.368.984-1.054.981-2.284-.007-4.569.008-6.854.015H207.82" transform="translate(1641.689 -11025.809)" fill="#7babe5"/>
      <path id="Trazado_284784" data-name="Trazado 284784" d="M135.649,1296.985a13.041,13.041,0,0,1,6.491,2.706,14.073,14.073,0,0,1,3.819,3.822,13.085,13.085,0,0,1,2.7,6.489,11.044,11.044,0,0,1,0,5.457,13.155,13.155,0,0,1-2.705,6.492,14.05,14.05,0,0,1-3.82,3.818,13.061,13.061,0,0,1-6.491,2.707,11.042,11.042,0,0,1-5.457,0,13.223,13.223,0,0,1-6.492-2.706,14.007,14.007,0,0,1-3.813-3.817,13.06,13.06,0,0,1-2.711-6.492,11.091,11.091,0,0,1,0-5.46,13.061,13.061,0,0,1,2.709-6.494,14.056,14.056,0,0,1,3.819-3.817,13.163,13.163,0,0,1,6.488-2.7,11.072,11.072,0,0,1,5.458,0m-10.758,10.246c.041,3.042-.391,2.83,2.154,2.816,3.541-.02,3.2.449,3.188-2.272-.007-3.421.452-3.07-2.394-3.064-3.316.007-2.9-.446-2.948,2.52m10.7,5.424c.039,2.964-.388,2.761,2.225,2.745,3.48-.021,3.121.453,3.117-2.343,0-3.321.43-3-2.3-2.993-3.454.012-3-.461-3.043,2.591m-10.7,5.33c.04,2.987-.392,2.783,2.2,2.768,3.508-.021,3.142.449,3.139-2.321,0-3.333.431-3.026-2.276-3.015-3.471.013-3.019-.465-3.066,2.568" transform="translate(1641.689 -11025.809)" fill="#e26861"/>
      <path id="Trazado_284785" data-name="Trazado 284785" d="M126.256,1248.193q.489,1.491.979,2.982a10.931,10.931,0,0,1,0,5.349q-.489,1.491-.979,2.982l-3.734,3.735-2.985.982a10.942,10.942,0,0,1-5.349,0l-2.981-.979-3.735-3.735-.981-2.984a10.943,10.943,0,0,1,0-5.352q.492-1.491.982-2.983l3.735-3.736,2.98-.978a10.939,10.939,0,0,1,5.351,0l2.985.983,3.733,3.734m-9.315.3c-2.993.041-2.761-.389-2.747,2.224.017,3.458-.436,3.126,2.174,3.12,3.556-.01,3.166.45,3.16-2.3-.006-3.481.467-2.993-2.587-3.046" transform="translate(1641.689 -11025.809)" fill="#a998ce"/>
      <path id="Trazado_284786" data-name="Trazado 284786" d="M100.886,1342.173a5.248,5.248,0,0,1,5.079,4.046,1.7,1.7,0,0,0,1.414,1.481,5.309,5.309,0,0,1,0,10.353,1.7,1.7,0,0,0-1.415,1.481,5.252,5.252,0,0,1-5.244,4.048,5.2,5.2,0,0,1-5.062-4.054,1.845,1.845,0,0,0-1.591-1.518,5.229,5.229,0,0,1-3.966-5.137,5.154,5.154,0,0,1,3.972-5.117,2.021,2.021,0,0,0,1.626-1.693,5.2,5.2,0,0,1,5.186-3.89" transform="translate(1641.689 -11025.809)" fill="#aa9acf"/>
      <path id="Trazado_284787" data-name="Trazado 284787" d="M207.82,1243.163h26.829q-.031,5.336-.064,10.671h-26.7q-.033-5.336-.067-10.67" transform="translate(1641.689 -11025.809)" fill="#86bac8"/>
      <path id="Trazado_284788" data-name="Trazado 284788" d="M189.1,1232.411a8.537,8.537,0,0,1,3.066.4,27.045,27.045,0,0,1-3.387,13.713A22.1,22.1,0,0,1,183,1253.1a2.753,2.753,0,0,1-4-.236,2.7,2.7,0,0,1,.6-3.972,17.665,17.665,0,0,0,6.678-10.791,18.516,18.516,0,0,0,.465-5.614l2.359-.076" transform="translate(1641.689 -11025.809)" fill="#a9d7e4"/>
      <path id="Trazado_284789" data-name="Trazado 284789" d="M189.1,1232.411l-2.359.076c-2.394-.016-4.787-.062-7.18-.033-.845.01-1.182-.216-1.166-1.12q.074-4.258,0-8.519c-.017-.932.375-1.107,1.189-1.094,3.173.049,6.346.047,9.518.065q0,5.313,0,10.625" transform="translate(1641.689 -11025.809)" fill="#5c91d5"/>
      <path id="Trazado_284790" data-name="Trazado 284790" d="M119.886,1321.953a14,14,0,0,0,3.814,3.817c-2.52,2.514-5.019,5.048-7.565,7.536-1.563,1.527-3.587,1.354-4.5-.338a2.7,2.7,0,0,1,.707-3.458q3.777-3.773,7.544-7.557" transform="translate(1641.689 -11025.809)" fill="#be534c"/>
      <path id="Trazado_284791" data-name="Trazado 284791" d="M123.7,1299.69a14.056,14.056,0,0,0-3.819,3.817c-2.514-2.519-5.047-5.021-7.536-7.565-1.53-1.564-1.361-3.586.334-4.5a2.706,2.706,0,0,1,3.462.7q3.776,3.776,7.559,7.542" transform="translate(1641.689 -11025.809)" fill="#be534c"/>
      <path id="Trazado_284792" data-name="Trazado 284792" d="M142.139,1325.769a14.047,14.047,0,0,0,3.82-3.817c2.432,2.438,4.872,4.868,7.294,7.316,1.474,1.49,1.621,3.056.439,4.238s-2.743,1.035-4.237-.443c-2.448-2.422-4.878-4.862-7.316-7.294" transform="translate(1641.689 -11025.809)" fill="#be534c"/>
      <path id="Trazado_284793" data-name="Trazado 284793" d="M145.96,1303.513a14.121,14.121,0,0,0-3.819-3.823c2.437-2.431,4.868-4.871,7.316-7.294,1.5-1.482,3.048-1.629,4.235-.44s1.035,2.747-.441,4.239c-2.421,2.449-4.86,4.879-7.291,7.318" transform="translate(1641.689 -11025.809)" fill="#be534c"/>
      <path id="Trazado_284794" data-name="Trazado 284794" d="M107.472,1259.509l3.735,3.735c-2.461,2.483-4.9,4.988-7.393,7.441a2.693,2.693,0,1,1-3.786-3.785c2.461-2.484,4.96-4.93,7.444-7.391" transform="translate(1641.689 -11025.809)" fill="#84799d"/>
      <path id="Trazado_284795" data-name="Trazado 284795" d="M111.207,1244.454l-3.735,3.736c-2.484-2.462-4.991-4.9-7.442-7.4a2.68,2.68,0,1,1,3.778-3.779c2.5,2.448,4.936,4.957,7.4,7.441" transform="translate(1641.689 -11025.809)" fill="#84799d"/>
      <path id="Trazado_284796" data-name="Trazado 284796" d="M126.256,1248.193l-3.733-3.734c2.461-2.485,4.9-4.994,7.394-7.446a2.682,2.682,0,1,1,3.781,3.782c-2.447,2.5-4.958,4.936-7.442,7.4" transform="translate(1641.689 -11025.809)" fill="#84799d"/>
      <path id="Trazado_284797" data-name="Trazado 284797" d="M122.522,1263.241l3.734-3.735c2.444,2.423,4.908,4.827,7.325,7.277,1.355,1.373,1.4,2.984.205,4.109-1.136,1.073-2.663.988-3.989-.323-2.448-2.42-4.852-4.883-7.275-7.328" transform="translate(1641.689 -11025.809)" fill="#84799d"/>
      <path id="Trazado_284798" data-name="Trazado 284798" d="M114.188,1264.223a10.919,10.919,0,0,0,5.349,0c0,3.495.013,6.99,0,10.486-.009,2.043-1.084,3.273-2.757,3.219-1.613-.052-2.581-1.23-2.588-3.219-.014-3.5,0-6.991,0-10.486" transform="translate(1641.689 -11025.809)" fill="#83779b"/>
      <path id="Trazado_284799" data-name="Trazado 284799" d="M119.538,1243.477a10.939,10.939,0,0,0-5.351,0c0-3.5-.012-6.992,0-10.488.009-2.043,1.08-3.272,2.755-3.219,1.615.051,2.583,1.229,2.591,3.219.015,3.5,0,6.992,0,10.488" transform="translate(1641.689 -11025.809)" fill="#83779b"/>
      <path id="Trazado_284800" data-name="Trazado 284800" d="M127.235,1256.524a10.919,10.919,0,0,0,0-5.349c3.495,0,6.99-.012,10.485,0,2.043.008,3.271,1.079,3.218,2.755-.051,1.614-1.231,2.584-3.218,2.592-3.495.013-6.99,0-10.485,0" transform="translate(1641.689 -11025.809)" fill="#83779b"/>
      <path id="Trazado_284801" data-name="Trazado 284801" d="M106.49,1251.173a10.955,10.955,0,0,0,0,5.352c-3.495,0-6.991.012-10.486,0-2.045-.009-3.27-1.079-3.218-2.758.051-1.615,1.229-2.581,3.217-2.589,3.5-.013,6.991,0,10.487,0" transform="translate(1641.689 -11025.809)" fill="#83779b"/>
      <path id="Trazado_284802" data-name="Trazado 284802" d="M117.175,1310a11.091,11.091,0,0,0,0,5.46q-5.18-.027-10.36-.054c-2.112-.015-3.323-1-3.323-2.678s1.209-2.66,3.323-2.674q5.179-.035,10.36-.054" transform="translate(1641.689 -11025.809)" fill="#bd5049"/>
      <path id="Trazado_284803" data-name="Trazado 284803" d="M148.664,1315.459a11.055,11.055,0,0,0,0-5.457q5.18.026,10.358.053c2.114.014,3.325,1,3.325,2.674s-1.218,2.663-3.325,2.678q-5.178.035-10.358.052" transform="translate(1641.689 -11025.809)" fill="#bd5049"/>
      <path id="Trazado_284804" data-name="Trazado 284804" d="M130.191,1328.476a11.054,11.054,0,0,0,5.457,0q-.025,5.18-.053,10.359c-.014,2.107-1,3.326-2.676,3.326s-2.661-1.22-2.675-3.326q-.035-5.18-.053-10.359" transform="translate(1641.689 -11025.809)" fill="#bd5049"/>
      <path id="Trazado_284805" data-name="Trazado 284805" d="M135.649,1296.985a11.072,11.072,0,0,0-5.458,0q.025-5.181.053-10.361c.014-2.113,1-3.324,2.674-3.324s2.663,1.215,2.678,3.324q.035,5.181.053,10.361" transform="translate(1641.689 -11025.809)" fill="#bd5049"/>
      <path id="Trazado_284806" data-name="Trazado 284806" d="M170.387,1218.146a2.682,2.682,0,0,1-3.494,2.773,50.671,50.671,0,0,1-5.008-1.822,2.737,2.737,0,0,1-1.716-3.645,2.828,2.828,0,0,1,3.777-1.37c1.567.566,3.129,1.146,4.677,1.762a2.54,2.54,0,0,1,1.764,2.3" transform="translate(1641.689 -11025.809)" fill="#a9d7e4"/>
      <path id="Trazado_284807" data-name="Trazado 284807" d="M165.058,1229.759c-.948,0-1.9.049-2.842-.014a2.66,2.66,0,0,1,.035-5.315c1.837-.07,3.681-.065,5.518,0a2.571,2.571,0,0,1,2.614,2.676,2.6,2.6,0,0,1-2.65,2.649c-.889.048-1.783.009-2.675.007" transform="translate(1641.689 -11025.809)" fill="#a9d7e4"/>
      <path id="Trazado_284808" data-name="Trazado 284808" d="M147.734,1208.261c2.116.8,4.554,1.243,6.579,2.629a2.247,2.247,0,0,1,.615,3.252,2.437,2.437,0,0,1-3.1,1.236c-1.774-.624-3.554-1.24-5.308-1.921a2.486,2.486,0,0,1-1.539-3.124c.269-1.326,1.315-1.812,2.748-2.072" transform="translate(1641.689 -11025.809)" fill="#a9d7e4"/>
      <path id="Trazado_284809" data-name="Trazado 284809" d="M149.011,1229.756c-.948,0-1.9.051-2.842-.01a2.66,2.66,0,0,1,.014-5.315c1.892-.071,3.792-.078,5.684.006a2.544,2.544,0,0,1,2.459,2.655,2.581,2.581,0,0,1-2.473,2.65c-.942.071-1.894.013-2.842.014" transform="translate(1641.689 -11025.809)" fill="#a9d7e4"/>
      <path id="Trazado_284810" data-name="Trazado 284810" d="M167.317,1233.094a2.938,2.938,0,0,1,2.91,2.069,2.3,2.3,0,0,1-1.221,2.946,27.966,27.966,0,0,1-6.076,2.188c-1.337.321-2.235-.645-2.741-1.7a2.288,2.288,0,0,1,.845-2.962c1.946-1.312,4.31-1.655,6.283-2.54" transform="translate(1641.689 -11025.809)" fill="#a9d7e4"/>
      <path id="Trazado_284811" data-name="Trazado 284811" d="M152.6,1238.719a2.458,2.458,0,0,1,2.6,1.971,2.324,2.324,0,0,1-1.205,2.852,24.261,24.261,0,0,1-6.082,2.227,2.637,2.637,0,0,1-1.873-4.747,23.046,23.046,0,0,1,6.562-2.3" transform="translate(1641.689 -11025.809)" fill="#a9d7e4"/>
      <path id="Trazado_284812" data-name="Trazado 284812" d="M245.32,1329.327q0,14.134,0,28.268c0,3.933-2.05,5.987-5.976,5.987q-23.5,0-47,0c-3.815,0-5.9-2.083-5.9-5.892q0-25.591-.019-51.183a2.39,2.39,0,0,1,1.346-2.53c6.944-3.764,13.822-7.647,20.727-11.483,8.217-4.565,16.457-9.092,24.638-13.72,1.237-.7,1.694-.459,2.263.7q4.655,9.449,9.416,18.843a5.121,5.121,0,0,1,.512,2.411q-.02,14.3-.008,28.6m-26.929-.537c1.338,0,2.681-.066,4.013.02,1.138.073,1.6-.257,1.532-1.472-.1-1.779.016-3.568-.041-5.35-.032-.948.3-1.274,1.244-1.244,1.838.058,3.679-.016,5.517.03.882.023,1.323-.171,1.3-1.186q-.084-4.179,0-8.362c.022-1.016-.422-1.207-1.3-1.185-1.839.046-3.681-.027-5.519.03-.947.03-1.272-.3-1.242-1.244.056-1.838-.017-3.68.029-5.519.023-.881-.171-1.321-1.186-1.3q-4.179.086-8.36,0c-1.017-.021-1.207.422-1.186,1.3.046,1.839-.028,3.681.031,5.519.028.947-.3,1.273-1.246,1.243-1.838-.057-3.679.017-5.517-.03-.882-.022-1.321.172-1.3,1.186q.085,4.18,0,8.362c-.019,1.016.422,1.207,1.3,1.185,1.839-.046,3.681.028,5.519-.03.947-.03,1.274.3,1.244,1.245-.06,1.782.054,3.571-.043,5.35-.065,1.216.4,1.549,1.534,1.47,1.22-.085,2.451-.019,3.677-.019m2.765,16.058h12.526c3.631,0,3.547,0,3.648-3.557.043-1.536-.485-1.836-1.9-1.826-8.852.061-17.7.03-26.556.03-3.763,0-3.705,0-3.725,3.809-.006,1.3.444,1.584,1.647,1.569,4.787-.06,9.575-.025,14.364-.025m-10.648,5.353H197.982c-3.526,0-3.429,0-3.552,3.489-.058,1.642.564,1.9,2.008,1.892,8.8-.056,17.593-.028,26.388-.028,3.811,0,3.74,0,3.8-3.741.022-1.411-.517-1.649-1.751-1.635-4.787.056-9.576.023-14.364.023m-13.436-5.353c2.955-.039,2.761.39,2.746-2.226-.02-3.413.439-3.125-2.177-3.117-3.517.012-3.164-.449-3.159,2.3.01,3.449-.457,3,2.59,3.043m40.22,7.959c-.034-2.785.354-2.617-2.207-2.6-3.508.024-3.138-.445-3.136,2.323,0,3.384-.441,3.019,2.446,3.013,3.317-.007,2.849.446,2.9-2.737" transform="translate(1641.689 -11025.809)" fill="#7babe5"/>
      <path id="Trazado_284813" data-name="Trazado 284813" d="M124.891,1307.231c.043-2.966-.368-2.512,2.948-2.519,2.846-.006,2.387-.357,2.394,3.063.007,2.721.353,2.252-3.188,2.272-2.545.014-2.113.226-2.154-2.816" transform="translate(1641.689 -11025.809)" fill="#bc4f48"/>
      <path id="Trazado_284814" data-name="Trazado 284814" d="M135.6,1312.655c.048-3.052-.411-2.579,3.044-2.591,2.729-.009,2.295-.328,2.3,2.993,0,2.8.363,2.322-3.117,2.343-2.614.016-2.187.219-2.226-2.745" transform="translate(1641.689 -11025.809)" fill="#bc4f48"/>
      <path id="Trazado_284815" data-name="Trazado 284815" d="M124.891,1317.985c.047-3.033-.4-2.555,3.066-2.568,2.707-.011,2.273-.318,2.276,3.015,0,2.77.369,2.3-3.139,2.321-2.6.015-2.163.219-2.2-2.768" transform="translate(1641.689 -11025.809)" fill="#bc4f48"/>
      <path id="Trazado_284816" data-name="Trazado 284816" d="M116.941,1248.5c3.054.053,2.581-.435,2.587,3.046.006,2.748.4,2.288-3.16,2.3-2.61.006-2.157.338-2.174-3.12-.014-2.613-.246-2.183,2.747-2.224" transform="translate(1641.689 -11025.809)" fill="#83779b"/>
      <path id="Trazado_284817" data-name="Trazado 284817" d="M218.391,1328.789c-1.226,0-2.457-.066-3.678.019-1.136.08-1.6-.253-1.532-1.47.1-1.777-.017-3.567.041-5.349.031-.947-.3-1.275-1.244-1.246-1.837.059-3.679-.015-5.518.031-.88.022-1.322-.17-1.3-1.185q.085-4.18,0-8.361c-.02-1.016.42-1.21,1.3-1.187,1.839.046,3.68-.028,5.518.031.946.028,1.275-.3,1.245-1.245-.058-1.837.016-3.68-.03-5.518-.022-.881.169-1.323,1.185-1.3q4.179.084,8.361,0c1.014-.021,1.208.42,1.186,1.3-.047,1.838.027,3.681-.03,5.518-.03.946.3,1.275,1.243,1.246,1.838-.059,3.68.015,5.518-.031.88-.023,1.323.169,1.3,1.185q-.084,4.179,0,8.361c.021,1.016-.419,1.209-1.3,1.187-1.838-.046-3.68.028-5.518-.031-.946-.029-1.275.3-1.244,1.245.058,1.782-.056,3.57.041,5.349.066,1.215-.394,1.545-1.532,1.472-1.332-.086-2.674-.02-4.012-.02" transform="translate(1641.689 -11025.809)" fill="#f5efe4"/>
      <path id="Trazado_284818" data-name="Trazado 284818" d="M221.155,1344.848c-4.788,0-9.576-.035-14.364.024-1.2.015-1.653-.273-1.646-1.568.02-3.809-.038-3.809,3.725-3.809,8.852,0,17.7.03,26.556-.031,1.419-.009,1.947.291,1.9,1.827-.1,3.555-.018,3.557-3.648,3.557Z" transform="translate(1641.689 -11025.809)" fill="#5c91d5"/>
      <path id="Trazado_284819" data-name="Trazado 284819" d="M210.509,1350.2c4.788,0,9.576.033,14.364-.023,1.234-.014,1.772.224,1.751,1.635-.058,3.74.014,3.741-3.8,3.741-8.8,0-17.593-.028-26.389.028-1.444.009-2.065-.25-2.008-1.892.123-3.486.027-3.489,3.552-3.489Z" transform="translate(1641.689 -11025.809)" fill="#5c91d5"/>
      <path id="Trazado_284820" data-name="Trazado 284820" d="M197.073,1344.848c-3.049-.047-2.582.406-2.59-3.043-.007-2.749-.359-2.288,3.157-2.3,2.617-.009,2.158-.3,2.178,3.117.015,2.615.209,2.187-2.745,2.226" transform="translate(1641.689 -11025.809)" fill="#5c91d5"/>
      <path id="Trazado_284821" data-name="Trazado 284821" d="M237.292,1352.807c-.048,3.183.42,2.73-2.9,2.737-2.887.006-2.441.371-2.446-3.013,0-2.768-.372-2.3,3.136-2.323,2.561-.018,2.173-.186,2.207,2.6" transform="translate(1641.689 -11025.809)" fill="#5c91d5"/>
    </g>
  </g>
</svg>
