<svg xmlns="http://www.w3.org/2000/svg" width="91" height="91" viewBox="0 0 91 91">
  <g id="Grupo_265353" data-name="Grupo 265353" transform="translate(-884 -955.811)">
    <g id="Elipse_4710" data-name="Elipse 4710" transform="translate(884 955.811)" fill="#3b5620" stroke="#707070" stroke-width="1">
      <circle cx="45.5" cy="45.5" r="45.5" stroke="none"/>
      <circle cx="45.5" cy="45.5" r="45" fill="none"/>
    </g>
    <g id="Grupo_262783" data-name="Grupo 262783" transform="translate(0.468 -80.223)">
      <path id="Trazado_281639" data-name="Trazado 281639" d="M644.671,146.167a2.731,2.731,0,0,1-1.753-2.963c.059-2.713,0-5.429.028-8.143a2.35,2.35,0,0,0-.824-1.9c-8.238-7.451-7.269-21.192,2.245-27.189.447-.282.308-.62.272-.961a9.738,9.738,0,0,1,1.267-5.966,1.105,1.105,0,0,1,.62-.549,1.016,1.016,0,0,1,.862.259,1.308,1.308,0,0,1,.057,1.063,9.523,9.523,0,0,0-1.048,3.266,7.863,7.863,0,0,0,1.884,6.2,12.7,12.7,0,0,1,2.879,5.161c.036.14.273.253.439.326a1.051,1.051,0,0,0,.406.009c.1,0,.192-.011.377-.022-.25-1.022-.49-2.012-.734-3-.532-2.158-1.07-4.315-1.6-6.474-.213-.875.127-1.307,1.022-1.309q3.575-.005,7.15,0c.863,0,1.206.436,1,1.278q-1.084,4.432-2.185,8.859c-.046.189-.087.378-.13.566.939.265,1.069.2,1.331-.653a11.281,11.281,0,0,1,2.337-4.218,9.059,9.059,0,0,0,2.317-5.012,8.275,8.275,0,0,0-12.569-7.882c-.631.378-1.137.307-1.425-.182s-.1-.941.539-1.334a10.041,10.041,0,0,1,15.18,7.465,9.814,9.814,0,0,1-2.364,7.659,10.257,10.257,0,0,0-2.395,4.3,12.892,12.892,0,0,0-.213,2.727,2.619,2.619,0,0,1-1.49,2.628.561.561,0,0,0-.229.4,3.294,3.294,0,1,1-6.588.015.6.6,0,0,0-.261-.433,2.488,2.488,0,0,1-1.441-2.475,7.646,7.646,0,0,0-.5-3.732,35.211,35.211,0,0,0-1.808-3.051c-.718-1.1-1.5-2.169-2.277-3.287a13.766,13.766,0,0,0-3.972,3.854,15.553,15.553,0,0,0,2.311,20.434,22.462,22.462,0,0,0,3.124,2.034c.163.1.362.149.529.249a.864.864,0,0,1-.723,1.568c-.523-.2-1.027-.449-1.6-.7-.01.21-.025.376-.025.541q0,3.954,0,7.91c0,.8.111.9.919.9.273,0,.547.009.82,0,.492-.02.953.028,1.169.563s-.111.877-.469,1.2Zm12.623-40.411h-5.318c.745,3.013,1.482,5.991,2.222,8.979h.874l2.223-8.979m-5.882,10.808a6.593,6.593,0,0,0,.031,1.457.921.921,0,0,0,.663.566q2.539.073,5.082,0a.87.87,0,0,0,.63-.536,7.65,7.65,0,0,0,.03-1.489Zm1.72,3.841a1.6,1.6,0,0,0,1.551,1.723,1.524,1.524,0,0,0,1.442-1.723Z" transform="translate(274 965.866)" fill="#fff"/>
      <path id="Trazado_281640" data-name="Trazado 281640" d="M655.783,151.594c-.383-.3-.721-.621-.513-1.172s.655-.593,1.153-.589c1.387.011,2.774-.011,4.16.011.56.009.778-.228.764-.769-.017-.663-.015-1.328,0-1.992a2.543,2.543,0,0,1,2.8-2.678c1.6.03,3.209.164,4.8.041a4.691,4.691,0,0,0,4.306-4.659c.038-1.6.057-3.2.079-4.8a2.2,2.2,0,0,1,1.691-2.42c.164-.061.33-.12.492-.187a.748.748,0,0,0,.39-1.255c-.689-1.041-1.4-2.069-2.1-3.105a2.322,2.322,0,0,1-.094-2.755,4.6,4.6,0,0,0,.567-3.857,12.185,12.185,0,0,0-2.956-6.139.909.909,0,0,1-.062-1.35c.4-.378.908-.317,1.377.191a13.957,13.957,0,0,1,3.427,7.311,5.612,5.612,0,0,1-.807,4.636.878.878,0,0,0,.073,1.089c.668.961,1.32,1.934,1.972,2.907a2.5,2.5,0,0,1-1.268,4.01c-.987.385-.936.119-.95,1.356-.016,1.406-.118,2.815-.056,4.216A6.662,6.662,0,0,1,668,146.278c-1.268-.046-2.538-.078-3.807-.111-.834-.022-1.081.22-1.09,1.066-.006.527-.03,1.056,0,1.581a2.474,2.474,0,0,1-1.815,2.78Z" transform="translate(268.866 960.439)" fill="#fff"/>
      <path id="Trazado_281641" data-name="Trazado 281641" d="M638.105,99.526c.1.022.232.041.36.083,1.109.357,2.219.713,3.324,1.082.644.215.9.657.718,1.185-.166.481-.647.671-1.257.477-1.129-.359-2.257-.721-3.38-1.1a.88.88,0,0,1,.236-1.73" transform="translate(273.812 964.328)" fill="#fff"/>
      <path id="Trazado_281642" data-name="Trazado 281642" d="M679.146,102.561a3.236,3.236,0,0,1-.679-.758.7.7,0,0,1,.4-.977c1.3-.46,2.608-.891,3.93-1.272a.742.742,0,0,1,.922.612.793.793,0,0,1-.517,1.039c-1.229.426-2.47.816-3.708,1.219a1.478,1.478,0,0,1-.229.037l-.115.1" transform="translate(262.489 964.328)" fill="#fff"/>
      <path id="Trazado_281643" data-name="Trazado 281643" d="M662.038,85.853c0,.545.018,1.09-.005,1.634a.853.853,0,0,1-.9.926.844.844,0,0,1-.838-.928q-.029-1.664,0-3.327a.866.866,0,0,1,.841-.935.879.879,0,0,1,.9.937c.022.564,0,1.129,0,1.693" transform="translate(267.471 968.811)" fill="#fff"/>
      <path id="Trazado_281644" data-name="Trazado 281644" d="M650.091,91.561c-.162.181-.333.534-.585.607a1.074,1.074,0,0,1-.934-.175c-.8-.982-1.536-2.012-2.245-3.06a.855.855,0,0,1,1.351-1.016c.791,1.011,1.527,2.066,2.274,3.112a2.014,2.014,0,0,1,.138.532" transform="translate(271.345 967.595)" fill="#fff"/>
      <path id="Trazado_281645" data-name="Trazado 281645" d="M675.42,88.419a5.089,5.089,0,0,1-.34.733q-.944,1.336-1.919,2.651a.884.884,0,0,1-1.308.308.9.9,0,0,1-.106-1.343c.645-.9,1.3-1.8,1.957-2.7a.792.792,0,0,1,1.019-.338c.275.135.464.446.7.685" transform="translate(264.386 967.592)" fill="#fff"/>
    </g>
  </g>
</svg>
