<svg xmlns="http://www.w3.org/2000/svg" width="85" height="85" viewBox="0 0 85 85">
  <g id="Grupo_1070808" data-name="Grupo 1070808" transform="translate(-285.168 -3913.127)">
    <circle id="Elipse_5682" data-name="Elipse 5682" cx="42.5" cy="42.5" r="42.5" transform="translate(285.168 3913.127)" fill="#dbf9bd"/>
    <g id="Grupo_1070755" data-name="Grupo 1070755" transform="translate(-15.285 422.532)">
      <path id="Trazado_606652" data-name="Trazado 606652" d="M148.3,73.826h1.074a4.6,4.6,0,0,1,2.068,1.438q5.428,5.447,10.865,10.884c.25.251.373.242.617,0q5.045-5.071,10.113-10.119a8.614,8.614,0,0,1,2.636-2.2h1.074a3.685,3.685,0,0,1,1.44.8q3.247,3.267,6.511,6.518a2.607,2.607,0,0,1,.721,1.213,2.684,2.684,0,0,1-.853,2.707q-5.672,5.65-11.333,11.31c-.3.3-.262.44.014.715q5.643,5.616,11.264,11.253a2.636,2.636,0,0,1,.014,4.138q-3.082,3.085-6.167,6.167a2.629,2.629,0,0,1-4.105,0q-5.661-5.659-11.315-11.327c-.263-.264-.387-.265-.65,0q-5.662,5.691-11.347,11.359a2.614,2.614,0,0,1-4.04,0q-2.563-2.561-5.123-5.124a7.958,7.958,0,0,1-2.066-2.517v-1.252a8.483,8.483,0,0,1,2.168-2.606q5.064-5.085,10.152-10.147c.248-.246.249-.369,0-.616q-5.072-5.046-10.12-10.115a8.645,8.645,0,0,1-2.2-2.637V82.413a6.7,6.7,0,0,1,1.777-2.232c1.421-1.422,2.836-2.848,4.265-4.261a8.1,8.1,0,0,1,2.546-2.094m7.157,22.9a1.591,1.591,0,0,1-.574,1.119q-6.106,6.1-12.215,12.195c-.316.314-.286.466.013.76q2.962,2.92,5.882,5.881c.3.3.449.268.727-.012q6.058-6.084,12.136-12.148c.867-.867,1.5-.872,2.361-.012q6.087,6.086,12.168,12.18c.275.276.416.287.7,0q2.936-2.976,5.913-5.914c.289-.285.3-.436,0-.727q-6.1-6.073-12.18-12.168a1.387,1.387,0,0,1,.005-2.327q6.071-6.071,12.148-12.136c.29-.289.347-.44.021-.761q-2.982-2.93-5.914-5.912c-.29-.294-.429-.253-.7.014q-6.059,6.084-12.137,12.148c-.889.889-1.512.891-2.393.01q-6.087-6.087-12.168-12.18c-.26-.261-.4-.268-.662,0q-2.956,2.989-5.945,5.944c-.277.274-.287.414,0,.7q4.933,4.9,9.841,9.827,1.233,1.233,2.467,2.466a1.46,1.46,0,0,1,.507,1.057" transform="translate(180 3436)" fill="#1c2022"/>
      <path id="Trazado_606653" data-name="Trazado 606653" d="M158.071,99.339a1.456,1.456,0,0,0-.507-1.056q-1.235-1.232-2.467-2.466-4.917-4.917-9.841-9.827c-.283-.282-.273-.422,0-.7q2.991-2.954,5.945-5.944c.262-.266.4-.259.662,0q6.075,6.1,12.168,12.18c.88.881,1.5.879,2.393-.01q6.072-6.07,12.137-12.148c.266-.267.406-.308.7-.014q2.933,2.979,5.913,5.912c.326.321.269.472-.021.76q-6.085,6.058-12.148,12.136a1.387,1.387,0,0,0,0,2.328q6.087,6.086,12.18,12.167c.293.291.286.442,0,.727q-2.975,2.936-5.913,5.913c-.28.284-.42.273-.7,0q-6.073-6.1-12.168-12.18c-.86-.859-1.493-.855-2.361.012q-6.071,6.072-12.136,12.149c-.278.28-.428.314-.727.011q-2.919-2.962-5.883-5.881c-.3-.294-.328-.445-.012-.759q6.12-6.085,12.215-12.2a1.589,1.589,0,0,0,.573-1.119" transform="translate(177.386 3433.39)" fill="#f64354"/>
    </g>
  </g>
</svg>
