<svg xmlns="http://www.w3.org/2000/svg" width="102.519" height="102.515" viewBox="0 0 102.519 102.515">
  <g id="Grupo_1015351" data-name="Grupo 1015351" transform="translate(-13733.792 9468.874)">
    <path id="Trazado_605615" data-name="Trazado 605615" d="M190.253,106.633a3.327,3.327,0,0,1-1.42,1.186,108.04,108.04,0,0,1-19.822,7.8c-.788.222-1.118.512-1.087,1.395a34.866,34.866,0,0,1-.053,6.49,2.792,2.792,0,0,0,1.615,3.19,23.368,23.368,0,0,1,1.914,1.444c1.081.839,1.181,1.221.67,2.472a1.711,1.711,0,0,1-2.432-.027c-.613-.513-1.328-.913-1.9-1.468a7.138,7.138,0,0,0-6.475-2.237,1.309,1.309,0,0,1-.3-.009,3.058,3.058,0,0,1-2.81-2.05c-.11-.263.049-.711-.465-.77-.532-.061-.669.336-.876.667-1.5,2.4-2.912,4.863-4.514,7.193a15.462,15.462,0,0,1-13.293,7.075,15.737,15.737,0,0,1-13.939-7.75c-1.421-2.215-2.775-4.47-4.162-6.707-.138-.222-.242-.479-.581-.47-.425.011-.3.37-.384.588a3.084,3.084,0,0,1-3.087,2.232c-1.067.023-2.135.011-3.2,0a1.393,1.393,0,0,0-.93.261q-6.063,4.656-12.141,9.292c-2.336,1.754-4.666,3.514-7.012,5.254-.356.264-.372.449-.1.785.582.725,1.132,1.476,1.681,2.227A1.615,1.615,0,0,1,95,147.155a1.637,1.637,0,0,1-2.249-.64c-.6-.837-1.241-1.647-1.855-2.477a2.959,2.959,0,0,1,.657-4.588q8.977-6.832,17.972-13.639a1.514,1.514,0,0,0,.675-1.591,69.563,69.563,0,0,1-.083-6.987c.029-1-.25-1.389-1.254-1.672a105.792,105.792,0,0,1-19.87-7.869c-.666-.343-1.192-.735-1.2-1.549s.567-1.19,1.2-1.513h.6q.693.349,1.387.7a107.362,107.362,0,0,0,18.7,7.371c.773.225,1.415.385,2.087-.23a2,2,0,0,1,1.323-.384c1.333-.021,2.668-.058,4,.007a3.022,3.022,0,0,1,2.89,2.463.745.745,0,0,0,.753.7c2.5.405,5,.764,7.519,1.029a105.126,105.126,0,0,0,29.07-1.026c.46-.08.647-.208.754-.7a3.019,3.019,0,0,1,2.889-2.464c1.33-.065,2.666-.032,4-.006a2.18,2.18,0,0,1,1.493.486,1.456,1.456,0,0,0,1.633.222,109.184,109.184,0,0,0,20.371-8.164c.6,0,1.614-.19,1.719.038a5.027,5.027,0,0,1,.082,1.963m-51.369,19.429a46.012,46.012,0,0,0,14.247-2.262,2.174,2.174,0,0,0,1.423-1.125,2.366,2.366,0,0,1,2.068-1.537c1.467.071,1.508-.69,1.379-1.736a2.494,2.494,0,0,1,0-.6c.066-.529-.181-.609-.642-.527a105.228,105.228,0,0,1-13,1.442,107.088,107.088,0,0,1-22.126-1.176c-2.419-.377-2.4-.433-2.2,1.994.032.379.12.529.516.518a2.946,2.946,0,0,1,2.813,1.729,1.9,1.9,0,0,0,1.19.955,45.709,45.709,0,0,0,14.332,2.325m12.626,1.358a48.947,48.947,0,0,1-25.182,0c2.664,5.3,6.623,8.555,12.589,8.558s9.926-3.252,12.593-8.556m-38.418-7.952c0,.432-.021.866,0,1.3.06,1.017-.456,2.444.212,2.942.693.515,2.04.138,3.1.18.449.017.648-.086.644-.595q-.036-3.791,0-7.583c.006-.563-.228-.663-.714-.646a23.6,23.6,0,0,1-2.493-.005c-.664-.046-.776.251-.762.818.03,1.2.009,2.395.009,3.592M161,119.439c0,1.23.038,2.463-.016,3.691-.028.639.189.8.788.762a24.624,24.624,0,0,1,2.494,0c.511.021.7-.133.695-.669q-.036-3.742,0-7.483c0-.526-.184-.7-.7-.675-.864.035-1.731.038-2.594,0-.535-.024-.686.174-.675.686.029,1.23.009,2.461.009,3.691" transform="translate(13646 -9573.431)" fill="#040404"/>
    <path id="Trazado_605616" data-name="Trazado 605616" d="M105.559,144.009q6.073-4.643,12.141-9.291a1.392,1.392,0,0,1,.93-.262c1.067.009,2.135.02,3.2,0a3.083,3.083,0,0,0,3.086-2.232c.079-.218-.04-.577.384-.588.339-.009.444.248.581.471,1.387,2.236,2.742,4.493,4.162,6.707a15.737,15.737,0,0,0,13.939,7.75,15.46,15.46,0,0,0,13.293-7.074c1.6-2.331,3.015-4.792,4.514-7.194.207-.331.343-.728.876-.667.513.059.354.507.465.77a3.058,3.058,0,0,0,2.81,2.051,1.39,1.39,0,0,0,.3.009,7.136,7.136,0,0,1,6.475,2.237c.567.555,1.283.955,1.9,1.468a1.71,1.71,0,0,0,2.431.027c.994.516,1.719,1.422,2.741,1.9-.563,1.14-.465,1.632.532,2.394,2.887,2.2,5.77,4.415,8.684,6.584.552.412.611.657.182,1.221q-5.831,7.686-11.593,15.424c-.4.537-.673.624-1.261.23-2.406-1.613-4.855-3.164-7.283-4.744-.6-.393-1.2-.747-1.942-.341a1.866,1.866,0,0,0-.838,1.893c.006,3.135,0,6.269,0,9.4,0,1.338.259,1.674,1.531,2.089q0,1.461.006,2.923a2.811,2.811,0,0,0-2.56,1.618,6.15,6.15,0,0,1-2.521,2.5,2.729,2.729,0,0,0-1.647,2.536,2.667,2.667,0,0,0,1.777,2.437,4.757,4.757,0,0,1,2.372,2.341,2.769,2.769,0,0,0,2.581,1.73q0,1.463-.006,2.927c-1.264.408-1.525.749-1.531,2.074q-.031,6.867-.053,13.736-16.455,0-32.91,0a6.716,6.716,0,0,1-6.924-6.923q0-22.553.007-45.107a2.415,2.415,0,0,0-1.094-2.307,2.153,2.153,0,0,0-2.492.356c-1.4.957-2.841,1.849-4.26,2.775-1.451.946-2.117.808-3.162-.6-2.3-3.087-4.629-6.149-6.915-9.244a34.863,34.863,0,0,1-2.909-4" transform="translate(13641.024 -9581.009)" fill="#f185e3"/>
    <path id="Trazado_605617" data-name="Trazado 605617" d="M102.72,148.828a34.863,34.863,0,0,0,2.909,4c2.286,3.1,4.618,6.157,6.915,9.244,1.045,1.4,1.711,1.542,3.162.6,1.419-.927,2.862-1.819,4.26-2.775a2.153,2.153,0,0,1,2.492-.356,2.415,2.415,0,0,1,1.094,2.307q-.016,22.554-.007,45.107a6.716,6.716,0,0,0,6.924,6.923q16.455.007,32.91,0a12.617,12.617,0,0,0,.06,1.393c.138.939-.171,1.222-1.167,1.217-10.1-.042-20.2-.025-30.293-.025-4.1,0-8.2-.018-12.3.016-.749.006-1.087-.135-1.015-.969.077-.893.027-1.8.014-2.7-.017-1.241-.328-1.629-1.54-1.96l0-3.338c1.23-.3,1.539-.692,1.539-2.046q.006-18.934.005-37.866a1.915,1.915,0,0,0-.8-1.912c-.773-.449-1.4-.057-2.025.353-2.4,1.563-4.817,3.092-7.188,4.693-.632.427-.912.322-1.335-.255-1.889-2.577-3.822-5.123-5.75-7.671-.777-1.026-1.19-1.119-2.395-.625a26.062,26.062,0,0,0-2.05-2.633,1.615,1.615,0,0,0,.15-2.459c-.549-.75-1.1-1.5-1.681-2.226-.27-.337-.254-.522.1-.785,2.346-1.74,4.677-3.5,7.012-5.254" transform="translate(13643.863 -9585.828)" fill="#9a4885"/>
    <path id="Trazado_605618" data-name="Trazado 605618" d="M125.014,230.005c1.212.332,1.523.719,1.54,1.96.012.9.063,1.8-.014,2.7-.072.834.266.976,1.015.969,4.1-.033,8.2-.016,12.3-.016,10.1,0,20.2-.016,30.293.026.995,0,1.3-.279,1.167-1.217a12.645,12.645,0,0,1-.06-1.394q.026-6.867.053-13.735c.007-1.324.267-1.666,1.531-2.074a1.751,1.751,0,0,1,1.49,2.013c-.028,5.8-.009,11.605-.015,17.408,0,1.477-.5,1.976-1.981,1.976q-23.413,0-46.827,0c-1.43,0-1.94-.5-1.95-1.9-.012-1.6.023-3.2-.012-4.8a1.651,1.651,0,0,1,1.475-1.907" transform="translate(13635.989 -9604.98)" fill="#040303"/>
    <path id="Trazado_605619" data-name="Trazado 605619" d="M100.442,167.269c1.2-.494,1.618-.4,2.395.625,1.929,2.548,3.861,5.093,5.75,7.671.423.577.7.682,1.335.255,2.371-1.6,4.791-3.13,7.188-4.693.629-.41,1.253-.8,2.025-.353a1.914,1.914,0,0,1,.8,1.911q-.005,18.934-.005,37.866c0,1.355-.309,1.745-1.539,2.047-1.238-.338-1.467-.654-1.468-2.09q0-17.2,0-34.4v-1.256l-4.282,2.76c-.672.433-1.323.9-2.017,1.294a2.788,2.788,0,0,1-3.765-.688c-2.236-2.9-4.425-5.839-6.615-8.775a1.572,1.572,0,0,1,.194-2.174" transform="translate(13642.61 -9590.911)" fill="#060303"/>
    <path id="Trazado_605620" data-name="Trazado 605620" d="M191.412,177.338c-1.271-.415-1.528-.751-1.53-2.089-.006-3.135,0-6.269-.005-9.4a1.867,1.867,0,0,1,.839-1.894c.739-.406,1.338-.052,1.942.341,2.429,1.58,4.878,3.13,7.284,4.744.588.394.86.307,1.261-.23q5.768-7.732,11.593-15.423c.428-.564.371-.81-.181-1.221-2.914-2.169-5.8-4.38-8.684-6.585-1-.761-1.1-1.253-.533-2.394a1.646,1.646,0,0,1,2.336-.013c3.067,2.345,6.156,4.661,9.216,7.014a2.947,2.947,0,0,1,.582,4.532Q209.422,162.866,203.29,171c-1.326,1.758-2.733,2-4.572.814-1.893-1.219-3.779-2.446-5.829-3.775,0,2.487-.043,4.8.019,7.112.031,1.157-.317,1.924-1.5,2.192" transform="translate(13617.412 -9584.11)" fill="#050303"/>
    <path id="Trazado_605621" data-name="Trazado 605621" d="M103.24,199.941a2.439,2.439,0,0,1,2.067,1.32,10.159,10.159,0,0,0,3.445,3.538,2.636,2.636,0,0,1-.19,4.661,8.168,8.168,0,0,0-3.162,3.1,2.653,2.653,0,0,1-4.813-.071,7.107,7.107,0,0,0-3.151-3.079,2.647,2.647,0,0,1-.184-4.756,9.152,9.152,0,0,0,3.426-3.4,2.61,2.61,0,0,1,2.562-1.305m-.255,3.3a11.606,11.606,0,0,1-3.737,3.727,9.52,9.52,0,0,1,3.781,3.684,10.722,10.722,0,0,1,3.662-3.616,12.037,12.037,0,0,1-3.706-3.795" transform="translate(13643.742 -9600.142)" fill="#040403"/>
    <path id="Trazado_605622" data-name="Trazado 605622" d="M189.4,208.037a2.771,2.771,0,0,1-2.581-1.73,4.759,4.759,0,0,0-2.372-2.341,2.667,2.667,0,0,1-1.777-2.437,2.727,2.727,0,0,1,1.647-2.535,6.141,6.141,0,0,0,2.521-2.5,2.813,2.813,0,0,1,2.561-1.619,2.86,2.86,0,0,1,2.275,1.561,7.57,7.57,0,0,0,2.675,2.751c2.046,1.289,2,3.6-.092,4.754a6.092,6.092,0,0,0-2.524,2.462,2.874,2.874,0,0,1-2.333,1.636m-.107-9.722a11.35,11.35,0,0,1-3.177,3.141,8.748,8.748,0,0,1,3.221,3.079,9.723,9.723,0,0,1,3.048-3.02,11.345,11.345,0,0,1-3.092-3.2" transform="translate(13619.431 -9598.723)" fill="#040302"/>
    <path id="Trazado_605623" data-name="Trazado 605623" d="M211.179,224.279a2.182,2.182,0,0,1-1.838-1.322,5.542,5.542,0,0,0-2.505-2.471,2.409,2.409,0,0,1-.172-4.3,8.438,8.438,0,0,0,2.787-2.786,2.393,2.393,0,0,1,4.1-.021,9.878,9.878,0,0,0,2.89,2.97,2.4,2.4,0,0,1-.191,4.144,6.579,6.579,0,0,0-2.592,2.548,2.507,2.507,0,0,1-2.477,1.233m.327-8.468a9.652,9.652,0,0,1-2.043,2.1c-.308.215-.419.395-.024.649a6.289,6.289,0,0,1,1.829,1.814c.233.347.384.237.579-.032a9.518,9.518,0,0,1,2.144-2.026,10.856,10.856,0,0,1-2.485-2.5" transform="translate(13613.058 -9603.585)" fill="#040403"/>
    <path id="Trazado_605624" data-name="Trazado 605624" d="M166.5,136.311c-2.667,5.3-6.626,8.558-12.594,8.556s-9.925-3.256-12.589-8.558a48.939,48.939,0,0,0,25.182,0" transform="translate(13631.011 -9582.322)" fill="#9a4885"/>
    <path id="Trazado_605625" data-name="Trazado 605625" d="M122.882,123.55c0-1.2.021-2.4-.009-3.592-.014-.567.1-.863.762-.818a23.811,23.811,0,0,0,2.494.006c.486-.018.72.082.714.645q-.039,3.791,0,7.583c.005.509-.194.612-.643.595-1.061-.042-2.409.335-3.1-.18-.668-.5-.152-1.925-.212-2.942-.025-.431,0-.864,0-1.3" transform="translate(13636.21 -9577.514)" fill="#dddadd"/>
    <path id="Trazado_605626" data-name="Trazado 605626" d="M189.464,123.524c0-1.23.019-2.462-.009-3.691-.012-.512.14-.711.675-.686.863.039,1.73.035,2.594,0,.515-.021.7.149.7.675q-.028,3.741,0,7.483c.005.536-.184.69-.695.669a24.624,24.624,0,0,0-2.494,0c-.6.035-.816-.122-.788-.762.054-1.228.016-2.461.016-3.691" transform="translate(13617.533 -9577.516)" fill="#dddadd"/>
    <path id="Trazado_605627" data-name="Trazado 605627" d="M104.3,204.526a12.037,12.037,0,0,0,3.706,3.795,10.722,10.722,0,0,0-3.662,3.616,9.52,9.52,0,0,0-3.781-3.684,11.606,11.606,0,0,0,3.737-3.727" transform="translate(13642.422 -9601.426)" fill="#f7e303"/>
    <path id="Trazado_605628" data-name="Trazado 605628" d="M190.634,199.654a11.345,11.345,0,0,0,3.092,3.2,9.723,9.723,0,0,0-3.048,3.02,8.748,8.748,0,0,0-3.221-3.079,11.349,11.349,0,0,0,3.176-3.141" transform="translate(13618.09 -9600.062)" fill="#f7e303"/>
    <path id="Trazado_605629" data-name="Trazado 605629" d="M212.967,217.2a10.856,10.856,0,0,0,2.485,2.5,9.518,9.518,0,0,0-2.144,2.026c-.2.269-.346.379-.579.032a6.289,6.289,0,0,0-1.829-1.814c-.395-.255-.284-.434.024-.649a9.652,9.652,0,0,0,2.043-2.1" transform="translate(13611.597 -9604.976)" fill="#f7e303"/>
  </g>
</svg>
