<svg xmlns="http://www.w3.org/2000/svg" width="84.043" height="86.005" viewBox="0 0 84.043 86.005">
  <g id="Grupo_1015360" data-name="Grupo 1015360" transform="translate(-13723.223 9180.426)">
    <path id="Trazado_605632" data-name="Trazado 605632" d="M162.75,195.282l-4.938.019a65.939,65.939,0,0,1,.733-8.074,83.016,83.016,0,0,1,7.167-23.764c.568-1.2.294-1.694-1.021-1.908a2.5,2.5,0,0,1-2.189-2.521,2.54,2.54,0,0,1,2.342-2.4c.578-.052,1.164,0,1.745-.035a4.512,4.512,0,0,0,.846-8.905,8.916,8.916,0,0,0-2.168-.155,2.549,2.549,0,0,1-2.76-2.325,2.472,2.472,0,0,1,2.457-2.626,50.329,50.329,0,0,1,6.1,0c0,4.389-.017,8.778,0,13.167a16.825,16.825,0,0,0,2.018,8.251c3.161,5.693,8.1,8.5,14.493,8.833,2.232.118,4.475.016,6.713.014.058.252.134.5.172.757q.816,5.343,1.323,10.725c.341,3.646.631,7.3.743,10.96l-4.945-.056q-.317-4.652-.634-9.3c-.088-1.265-.369-1.53-1.6-1.53q-11.948,0-23.894,0c-1.156,0-1.384.2-1.577,1.273a93.662,93.662,0,0,0-1.127,9.6" transform="translate(13608.703 -9290.732)" fill="#fdaa03"/>
    <path id="Trazado_605633" data-name="Trazado 605633" d="M167.831,122.38a50.44,50.44,0,0,0-6.1-.005A2.473,2.473,0,0,0,159.275,125a2.55,2.55,0,0,0,2.761,2.325,8.915,8.915,0,0,1,2.168.155,4.512,4.512,0,0,1-.846,8.905c-.58.032-1.166-.018-1.744.035a2.538,2.538,0,0,0-2.342,2.4,2.5,2.5,0,0,0,2.189,2.522c1.316.214,1.59.705,1.021,1.908a83.038,83.038,0,0,0-7.166,23.764,65.852,65.852,0,0,0-.733,8.074c-.151.694-.54,1.13-1.287.96-.713-.162-.779-.739-.748-1.375a84.894,84.894,0,0,1,7.421-30.826c.165-.368.386-.634-.21-.943a4.433,4.433,0,0,1-2.408-5.1,4.738,4.738,0,0,1,4.425-3.46c.493-.027.99,0,1.484-.018a2.462,2.462,0,0,0,.222-4.909c-.749-.088-1.515-.033-2.263-.125a4.5,4.5,0,0,1,.319-8.962c1.976-.078,3.959-.056,5.937-.024.63.011.871-.117.842-.8-.058-1.366-.062-2.738,0-4.1.042-.972-.728-1.333-1.255-1.858-.292-.29-.4.194-.538.354a14.88,14.88,0,0,1-6.463,4.587,14.406,14.406,0,0,1-4.779.861,3.062,3.062,0,0,1-3.281-2.9,2.993,2.993,0,0,1,2.936-3.149,9.152,9.152,0,0,0,6.024-2.379c1.8-1.674,1.749-2.384-.246-3.822a1.262,1.262,0,0,0-.831-.157c-1.832-.006-3.663.006-5.5-.006a3.285,3.285,0,0,1-3.549-3.528,12.654,12.654,0,0,1,.05-1.744,3.248,3.248,0,0,1,3.141-2.764c3.813-.047,7.627-.013,11.44-.009a1.1,1.1,0,0,1,1.205,1.011,1.138,1.138,0,0,1-1.321,1.052c-.631-.013-1.264.016-1.9.026-1.192-.01-2.385,0-3.576-.041-.524-.02-.635.185-.618.656a24.24,24.24,0,0,1,0,2.53c-.044.649.149.929.814.816a2.51,2.51,0,0,1,2.353.975c2.236,2.329,4.544,4.588,6.809,6.89a1.551,1.551,0,0,0,1.217.519c3.084-.023,6.168-.015,9.251-.008a2.756,2.756,0,0,0,1.189-.216q2.058-.946,4.115-1.893c.232-.107.464-.193.464-.543a9.289,9.289,0,0,0-.676-4.339,8.353,8.353,0,0,0-7.4-5.363c-2.182-.053-4.365-.032-6.547-.013-.772.006-1.3-.244-1.469-1.043.138-.6.461-1.029,1.118-1.021a67.932,67.932,0,0,1,7.587.1,10.524,10.524,0,0,1,9.415,10.566c.028,3.168.373,2.548-2.411,3.839-.947.439-1.882.906-2.843,1.313a.779.779,0,0,0-.561.846q.037,2.051,0,4.1c-.009.488.141.739.639.638,1.727-.351,2.409.569,2.994,2.066a136.685,136.685,0,0,1,6.963,25.129,202.533,202.533,0,0,1,3.044,27.2c.032.675-.062,1.255-.844,1.383-.729.119-1.053-.333-1.188-.978-.112-3.662-.4-7.313-.742-10.959q-.5-5.381-1.323-10.725c-.039-.256-.114-.505-.173-.757a53.467,53.467,0,0,0-.887-5.479c-.644-3.381-1.31-6.757-2.274-10.066a98.564,98.564,0,0,0-3.919-12.533c-.276-.73-.418-1.666-.952-2.1-.55-.448-1.506-.146-2.286-.092-.142.01-.288-.04-.432-.04q-4.492.019-8.984.043a28.334,28.334,0,0,0-3.49,0m6.114-7.038c-.987-.013-1.975,0-2.96-.05-.527-.026-.715.125-.7.677.041,1.19.048,2.385,0,3.575-.026.627.186.777.786.769,2.5-.032,5-.013,7.5-.013,1.152,0,1.152,0,1.077-1.189.01-1.075,0-2.152.04-3.226.017-.468-.149-.6-.6-.587-1.714.033-3.429.032-5.145.044m-18.893,2.015a13.039,13.039,0,0,0,9.463-4.263c1.035-1.131,1.02-1.172-.1-2.229-.373-.353-.52-.248-.789.1a10.592,10.592,0,0,1-8.378,4.32c-.71.022-1.228.334-1.19,1.086a.963.963,0,0,0,.992.989m2.126-14.407a8.129,8.129,0,0,1,.008-1.043c.1-.735-.122-1.073-.932-.976a11.956,11.956,0,0,1-1.825.01c-.8-.027-1.42.254-1.539,1.078-.194,1.354-.148,2.293.616,2.7a2.115,2.115,0,0,0,.741.215,8.332,8.332,0,0,0,.956.011c1.975,0,1.975,0,1.975-2" transform="translate(13611.934 -9270.52)" fill="#040403"/>
    <path id="Trazado_605634" data-name="Trazado 605634" d="M98.561,203.008c-.668,0-1.337.015-2,0a.944.944,0,0,1-1.051-1.02.9.9,0,0,1,1.085-.966c.932.118,1.017-.325.993-1.09-.053-1.636-.019-1.622-1.6-1.915-.769-.143-1.529-.343-2.288-.535-.25-.063-.5-.247-.634.147-.1.285-.335.534.1.8a.924.924,0,0,1,.3,1.368.99.99,0,0,1-1.373.353c-.667-.281-1.331-.568-2-.837a1.007,1.007,0,0,1-.718-1.227.873.873,0,0,1,1.1-.74c.5.094.575-.191.716-.526.2-.481-.234-.444-.439-.562a16.167,16.167,0,0,1-2.66-1.815c-.324-.285-.561-.355-.853.019a3.785,3.785,0,0,1-.616.617c-.683.547-1.185,1.045-.194,1.825a.865.865,0,0,1-.057,1.324.893.893,0,0,1-1.332.066q-1.588-1.495-3.091-3.08a.893.893,0,0,1,.083-1.333.859.859,0,0,1,1.323-.041c.709.887,1.157.57,1.772-.113.978-1.086,1-1.035.165-2.221-.485-.687-.9-1.425-1.349-2.134-.11-.171-.143-.51-.483-.316-.243.139-.659.1-.548.614a.932.932,0,0,1-.789,1.23c-.665.127-1.017-.288-1.244-.847-.261-.644-.507-1.295-.785-1.931a.965.965,0,0,1,.4-1.353.893.893,0,0,1,1.3.288c.243.4.467.273.781.169.435-.146.281-.4.2-.68a15.98,15.98,0,0,1-.658-3.33c-.037-.4-.13-.58-.559-.529a5.066,5.066,0,0,1-.959,0c-.817-.06-1.553-.119-1.36,1.125.085.547-.376.916-.934.945a.9.9,0,0,1-1.031-.857c-.056-1.48-.059-2.965,0-4.445a.884.884,0,0,1,1.035-.842.9.9,0,0,1,.942,1.028c-.145,1,.353,1.044,1.123,1.023,1.65-.046,1.63-.017,1.89-1.622.125-.772.335-1.532.534-2.29.069-.263.206-.492-.189-.6-.258-.068-.489-.323-.74.072a.932.932,0,0,1-1.42.344,1.047,1.047,0,0,1-.3-1.465c.284-.634.538-1.282.809-1.922a1,1,0,0,1,1.225-.712.909.909,0,0,1,.743,1.111c-.076.42.1.558.431.692.407.164.5-.117.635-.375a14.731,14.731,0,0,1,1.905-2.807c.255-.292.239-.474-.04-.71a5.438,5.438,0,0,1-.678-.679c-.559-.678-1.066-1.144-1.826-.16a.856.856,0,0,1-1.322-.064.892.892,0,0,1-.063-1.333c1-1.054,2.028-2.086,3.087-3.083a.909.909,0,0,1,1.339.07.874.874,0,0,1,.039,1.33c-.92.725-.537,1.175.127,1.78,1.064.969,1.02.987,2.209.141.661-.47,1.371-.872,2.059-1.3.226-.141.591-.184.349-.615-.149-.264-.141-.58-.64-.447a.9.9,0,0,1-1.133-.7.986.986,0,0,1,.658-1.258c.666-.286,1.343-.544,2.01-.825.577-.243,1.114-.23,1.441.359a.924.924,0,0,1-.351,1.357c-.4.229-.19.451-.111.719.111.379.357.308.616.226a14.13,14.13,0,0,1,3.413-.671c.37-.023.526-.146.5-.522a7.641,7.641,0,0,1,0-.961c.044-.8.15-1.569-1.123-1.4-.555.073-.971-.387-.944-1.022a.943.943,0,0,1,1.013-.977q2.052-.035,4.1,0a.942.942,0,0,1,1.015.973c.028.637-.377,1.095-.937,1.026-1.161-.142-1.161.481-1.135,1.318.045,1.427.011,1.435,1.378,1.657a16.927,16.927,0,0,1,2.462.555c.267.085.537.215.7-.214.131-.34.185-.541-.179-.783a.909.909,0,0,1-.269-1.306.975.975,0,0,1,1.3-.4c.76.28,1.505.6,2.243.94a.944.944,0,0,1,.548,1.23A.876.876,0,0,1,106.6,166c-.517-.161-.488.2-.63.456-.192.345.038.441.284.574a14.822,14.822,0,0,1,2.882,1.951c.331.3.524.233.771-.066a4.618,4.618,0,0,1,.616-.618c.663-.55,1.222-1.046.2-1.834a.866.866,0,0,1,.036-1.327.934.934,0,0,1,1.406-.028c1.012.962,2,1.953,2.964,2.96a1,1,0,1,1-1.468,1.361c-.568-.709-.924-.534-1.463.045-1.151,1.237-1.169,1.2-.225,2.542.434.616.814,1.271,1.2,1.922.156.266.268.51.653.336.3-.137.52-.222.41-.67a.9.9,0,0,1,.724-1.117.934.934,0,0,1,1.2.6c.333.739.649,1.486.942,2.242a.957.957,0,0,1-.43,1.279.865.865,0,0,1-1.241-.229c-.3-.463-.563-.35-.938-.184-.476.212-.134.521-.073.725a21.77,21.77,0,0,1,.617,3.074c.013.086-.017.2.027.257.651.872,1.566.184,2.337.385.479.125.507-.216.48-.569a2.816,2.816,0,0,1,0-.436.976.976,0,0,1,.976-1.023.923.923,0,0,1,1.049.935c.048,1.424.048,2.852,0,4.276a.925.925,0,0,1-1.056.932.914.914,0,0,1-.947-1.036c.145-1.047-.388-1.07-1.183-1.044-1.606.053-1.584.019-1.825,1.579-.119.772-.342,1.529-.519,2.293-.054.23-.272.511.139.618.258.067.511.421.793-.064a.92.92,0,0,1,1.361-.341,1.024,1.024,0,0,1,.348,1.448c-.3.66-.557,1.336-.838,2a.975.975,0,0,1-1.253.659.912.912,0,0,1-.694-1.147c.125-.481-.168-.517-.452-.66-.437-.22-.488.148-.612.379a14.586,14.586,0,0,1-1.851,2.74c-.3.341-.311.565.042.848a4.13,4.13,0,0,1,.679.677c.548.706,1.048,1.068,1.767.132a.853.853,0,0,1,1.321.033.923.923,0,0,1,.035,1.4c-.966,1.008-1.962,1.989-2.967,2.958a1,1,0,1,1-1.352-1.464c.706-.559.547-.914-.037-1.457-1.254-1.165-1.217-1.187-2.607-.212-.593.416-1.226.776-1.838,1.167-.216.138-.6.161-.387.6.14.291.192.581.656.485a.9.9,0,0,1,1.167.759,1,1,0,0,1-.732,1.214c-.7.283-1.391.574-2.089.854a.962.962,0,0,1-1.29-.388.88.88,0,0,1,.245-1.3c.448-.279.288-.535.153-.866-.189-.46-.472-.173-.719-.107a15.361,15.361,0,0,1-3.162.6c-.475.024-.684.206-.624.7a3.457,3.457,0,0,1,0,.872c-.124.908.01,1.5,1.174,1.357.553-.067.891.391.891.967a.889.889,0,0,1-.9.98c-.724.041-1.452.01-2.177.01v.013M112.6,185.132a13.61,13.61,0,0,0,.192-6.217c-1.323-7.579-9.189-13.015-16.615-11.5a12.54,12.54,0,0,0-5.937,2.462,14.08,14.08,0,0,0-5.98,13.968,14.306,14.306,0,0,0,15.343,12.263,13.578,13.578,0,0,0,10.07-5.2,12.62,12.62,0,0,0,2.926-5.777" transform="translate(13646 -9298.981)" fill="#050505"/>
    <path id="Trazado_605635" data-name="Trazado 605635" d="M195.566,233.248h-24.7c.129-2.757.457-5.494.857-8.225.066-.451.2-.693.755-.691q10.9.035,21.8,0c.584,0,.752.208.782.738.157,2.726.335,5.45.506,8.175" transform="translate(13602.662 -9328.606)" fill="#ee4b51"/>
    <path id="Trazado_605636" data-name="Trazado 605636" d="M193.78,231.481c-.17-2.725-.348-5.449-.506-8.175-.03-.53-.2-.74-.782-.738q-10.9.031-21.8,0c-.56,0-.689.241-.755.691-.4,2.73-.728,5.467-.857,8.225a1,1,0,0,1-1.034.93c-.669,0-.929-.444-1.041-1.024a93.661,93.661,0,0,1,1.127-9.6c.193-1.069.421-1.273,1.577-1.273q11.948,0,23.894,0c1.23,0,1.512.266,1.6,1.531q.323,4.651.635,9.3c-.057.568-.283,1.011-.915,1.063a1.026,1.026,0,0,1-1.142-.933" transform="translate(13604.448 -9326.839)" fill="#040403"/>
    <path id="Trazado_605637" data-name="Trazado 605637" d="M180.091,100.828c.17.8.7,1.05,1.469,1.043,2.183-.019,4.366-.04,6.547.013a8.353,8.353,0,0,1,7.4,5.363,1.754,1.754,0,0,1-2.928.538,10.629,10.629,0,0,0-7.983-2.96c-2.785.107-5.581-.071-8.364.056-1.84.084-2.675-1.154-2.064-2.98.632-.01,1.264-.039,1.9-.026a1.138,1.138,0,0,0,1.321-1.052l2.711.006" transform="translate(13601.227 -9271.445)" fill="#ea676d"/>
    <path id="Trazado_605638" data-name="Trazado 605638" d="M116.845,106.254c-.9,0-1.8-.006-2.706,0a1.019,1.019,0,1,1-.034-2.028c1.891-.018,3.783-.019,5.674.007a.939.939,0,0,1,1.039,1.036.958.958,0,0,1-1.092.981c-.961.006-1.921,0-2.882,0" transform="translate(13629.441 -9273.016)" fill="#050505"/>
    <path id="Trazado_605639" data-name="Trazado 605639" d="M117.534,120.981a.981.981,0,0,1-.946-.822.971.971,0,0,1,.7-1.151q1.93-.773,3.864-1.536c.51-.2,1.015-.424,1.536-.591a.927.927,0,0,1,1.207.562.844.844,0,0,1-.357,1.2c-1.91.818-3.854,1.556-5.786,2.321a.812.812,0,0,1-.214.013" transform="translate(13627.793 -9278.85)" fill="#050505"/>
    <path id="Trazado_605640" data-name="Trazado 605640" d="M122.741,91.857a60.068,60.068,0,0,1-5.871-2.438.838.838,0,0,1-.17-1.186.989.989,0,0,1,1.291-.421c.711.249,1.4.553,2.1.831,1.079.427,2.167.831,3.234,1.283a.959.959,0,0,1,.62,1.2c-.126.466-.461.728-1.209.731" transform="translate(13627.805 -9265.386)" fill="#050505"/>
    <path id="Trazado_605641" data-name="Trazado 605641" d="M101.151,106.221c-.435,0-.873.034-1.3-.009a.933.933,0,0,1-.9-.986.9.9,0,0,1,.813-.973,11.059,11.059,0,0,1,2.772,0,.891.891,0,0,1,.805,1.053.907.907,0,0,1-.882.908c-.431.041-.869.009-1.3.009" transform="translate(13635.947 -9272.992)" fill="#050505"/>
    <path id="Trazado_605642" data-name="Trazado 605642" d="M134.335,106.217c-.435,0-.873.033-1.3-.009a.925.925,0,0,1-.87-.93.891.891,0,0,1,.764-1.012,10.267,10.267,0,0,1,2.858-.008.887.887,0,0,1,.785.994.932.932,0,0,1-.929.964c-.433.03-.869.006-1.3.006v0" transform="translate(13620.576 -9272.991)" fill="#050505"/>
    <path id="Trazado_605643" data-name="Trazado 605643" d="M138.6,96.652a.971.971,0,0,1-1.294.977,22.53,22.53,0,0,1-2.329-.932.9.9,0,0,1-.534-1.216.918.918,0,0,1,1.241-.631c.791.27,1.565.591,2.338.91a.918.918,0,0,1,.577.892" transform="translate(13619.551 -9268.65)" fill="#050505"/>
    <path id="Trazado_605644" data-name="Trazado 605644" d="M104.664,127.25a1.089,1.089,0,0,1-1.121-.8.883.883,0,0,1,.492-1.092c.811-.372,1.648-.7,2.492-.986a.986.986,0,0,1,.9,1.678,14.694,14.694,0,0,1-2.762,1.2" transform="translate(13633.837 -9282.322)" fill="#050505"/>
    <path id="Trazado_605645" data-name="Trazado 605645" d="M137.531,112.11c.622.075.931.3,1.03.749a.9.9,0,0,1-.449,1.111,24.386,24.386,0,0,1-2.486.983.921.921,0,0,1-1.15-.54.814.814,0,0,1,.2-1.1,11.127,11.127,0,0,1,2.851-1.205" transform="translate(13619.56 -9276.669)" fill="#050505"/>
    <path id="Trazado_605646" data-name="Trazado 605646" d="M104.641,82.574a11.587,11.587,0,0,1,2.8,1.179.976.976,0,0,1-.858,1.659,11.335,11.335,0,0,1-2.644-1.044.854.854,0,0,1-.395-1.055,1.006,1.006,0,0,1,1.1-.739" transform="translate(13633.842 -9263)" fill="#050505"/>
    <path id="Trazado_605647" data-name="Trazado 605647" d="M202.535,157.346c.965,3.309,1.631,6.685,2.275,10.066a53.3,53.3,0,0,1,.887,5.479c-2.238,0-4.481.1-6.713-.014-6.4-.338-11.332-3.14-14.493-8.833a16.827,16.827,0,0,1-2.018-8.251c-.02-4.389,0-8.778,0-13.167a28.243,28.243,0,0,1,3.491,0,5.451,5.451,0,0,0,4.174,3.763,15.117,15.117,0,0,0,3.117.131c2.707.067,5.616,2.865,5.615,5.564a5.077,5.077,0,0,0,3.669,5.265" transform="translate(13597.294 -9290.766)" fill="#fdbb35"/>
    <path id="Trazado_605648" data-name="Trazado 605648" d="M170.713,102.793c-.611,1.826.223,3.064,2.064,2.98,2.783-.127,5.579.051,8.363-.055a10.627,10.627,0,0,1,7.983,2.96,1.754,1.754,0,0,0,2.927-.538,9.3,9.3,0,0,1,.677,4.34c0,.35-.232.436-.464.543q-2.056.951-4.116,1.893a2.754,2.754,0,0,1-1.188.216c-3.084-.007-6.168-.016-9.252.008a1.551,1.551,0,0,1-1.217-.519c-2.264-2.3-4.573-4.561-6.809-6.89a2.509,2.509,0,0,0-2.353-.975c-.666.113-.858-.167-.814-.816a24.23,24.23,0,0,0,0-2.53c-.018-.472.094-.677.617-.657,1.191.045,2.384.031,3.576.041" transform="translate(13604.679 -9272.338)" fill="#ed4950"/>
    <path id="Trazado_605649" data-name="Trazado 605649" d="M205.548,157.261A5.077,5.077,0,0,1,201.88,152c0-2.7-2.908-5.5-5.615-5.564a15.119,15.119,0,0,1-3.117-.131,5.451,5.451,0,0,1-4.174-3.763q4.492-.023,8.984-.043c.145,0,.29.049.432.04.781-.054,1.737-.357,2.286.092.535.436.676,1.371.952,2.1a98.565,98.565,0,0,1,3.919,12.533" transform="translate(13594.281 -9290.681)" fill="#fcc75c"/>
    <path id="Trazado_605650" data-name="Trazado 605650" d="M196.41,133.3c.076,1.189.076,1.189-1.077,1.189-2.5,0-5-.018-7.5.013-.6.008-.812-.142-.786-.769.049-1.19.042-2.384,0-3.575-.019-.553.169-.7.7-.677.985.048,1.974.037,2.961.051,0,.377-.015.753-.009,1.13a2.507,2.507,0,0,0,2.672,2.649c1.014,0,2.028-.006,3.042-.01" transform="translate(13595.174 -9284.705)" fill="#d7d7d7"/>
    <path id="Trazado_605651" data-name="Trazado 605651" d="M157.833,127.543a.962.962,0,0,1-.992-.989c-.038-.752.48-1.064,1.19-1.085a10.592,10.592,0,0,0,8.378-4.32c.27-.345.417-.45.79-.1,1.117,1.057,1.132,1.1.1,2.229a13.04,13.04,0,0,1-9.463,4.263" transform="translate(13609.153 -9280.706)" fill="#4c6372"/>
    <path id="Trazado_605652" data-name="Trazado 605652" d="M199.554,133.3c-1.014,0-2.028.012-3.042.01a2.507,2.507,0,0,1-2.672-2.649c-.005-.377.006-.753.009-1.13,1.715-.012,3.43-.011,5.145-.044.45-.009.617.118.6.587-.039,1.074-.03,2.15-.04,3.226" transform="translate(13592.029 -9284.713)" fill="#f0f0f0"/>
    <path id="Trazado_605653" data-name="Trazado 605653" d="M158.869,104.753c0,2,0,2-1.975,2a8.33,8.33,0,0,1-.956-.011,2.115,2.115,0,0,1-.741-.215c-.764-.411-.81-1.35-.616-2.7.119-.825.743-1.106,1.539-1.078a11.957,11.957,0,0,0,1.825-.01c.809-.1,1.028.24.932.976a8.126,8.126,0,0,0-.008,1.043" transform="translate(13610.243 -9272.322)" fill="#4c6372"/>
    <path id="Trazado_605654" data-name="Trazado 605654" d="M115.578,199.142a13.578,13.578,0,0,1-10.07,5.2,14.306,14.306,0,0,1-15.343-12.264,14.079,14.079,0,0,1,5.98-13.968c-.012.227-.005.457-.039.68a9.566,9.566,0,0,0,.062,3.568,4.587,4.587,0,0,0-1.937,2.868,4.17,4.17,0,0,0,4.732,4.852c.023.827.642,1.332,1.077,1.919a11.289,11.289,0,0,0,3.459,3.291,4.266,4.266,0,0,0,1.815,4.234c1.7,1.156,3.648.889,5.514-.746a17.32,17.32,0,0,0,4.752.364" transform="translate(13640.099 -9307.216)" fill="#7bb3e6"/>
    <path id="Trazado_605655" data-name="Trazado 605655" d="M111.95,173.31c7.426-1.518,15.292,3.918,16.615,11.5a13.6,13.6,0,0,1-.192,6.217,17.24,17.24,0,0,1-7.852-.168,4.783,4.783,0,0,0-2.95-1.277,16.7,16.7,0,0,0-2.083-1.757,18.359,18.359,0,0,1-3.134-4.306,5.232,5.232,0,0,0-.977-2.595c.2-.092.175-.239.147-.431a14.168,14.168,0,0,1-.112-4.216,13.1,13.1,0,0,0,.539-2.965m12.466,9.152a4.13,4.13,0,1,0-4.139,4.168,4.137,4.137,0,0,0,4.139-4.168" transform="translate(13630.229 -9304.875)" fill="#a9ceee"/>
    <path id="Trazado_605656" data-name="Trazado 605656" d="M128.466,206.2a17.239,17.239,0,0,0,7.852.167,12.63,12.63,0,0,1-2.926,5.777,17.347,17.347,0,0,1-4.752-.364,4.331,4.331,0,0,0-.174-5.58" transform="translate(13622.284 -9320.212)" fill="#94c2ea"/>
    <path id="Trazado_605657" data-name="Trazado 605657" d="M107.244,173.53a13.044,13.044,0,0,1-.539,2.966,14.168,14.168,0,0,0,.112,4.216c.028.192.056.338-.147.431a4.339,4.339,0,0,0-5.34-.9,9.566,9.566,0,0,1-.062-3.568c.033-.224.027-.453.039-.681a12.54,12.54,0,0,1,5.937-2.462" transform="translate(13634.935 -9305.095)" fill="#94c2ea"/>
    <path id="Trazado_605658" data-name="Trazado 605658" d="M122.28,205.094a4.333,4.333,0,0,1,.174,5.58c-1.866,1.634-3.809,1.9-5.514.746a4.136,4.136,0,0,1,2.389-7.6,4.787,4.787,0,0,1,2.951,1.277m-4,1.056a1.968,1.968,0,0,0-1.049,2.328,1.906,1.906,0,0,0,1.507,1.5,1.965,1.965,0,0,0,2.326-1.052,2.043,2.043,0,0,0-.322-2.441,2.11,2.11,0,0,0-2.462-.34" transform="translate(13628.471 -9319.111)" fill="#040403"/>
    <path id="Trazado_605659" data-name="Trazado 605659" d="M99.778,185.557a4.34,4.34,0,0,1,5.34.9,5.235,5.235,0,0,1,.977,2.595,4.228,4.228,0,0,1-3.522,4.222,4.171,4.171,0,0,1-4.733-4.852,4.588,4.588,0,0,1,1.938-2.868m3.984,4.538a1.973,1.973,0,0,0-.326-2.384A2.009,2.009,0,0,0,101,187.3a2.05,2.05,0,0,0,.519,3.886,2,2,0,0,0,2.242-1.1" transform="translate(13636.488 -9310.411)" fill="#040403"/>
    <path id="Trazado_605660" data-name="Trazado 605660" d="M106.706,196.753a4.229,4.229,0,0,0,3.522-4.223,18.359,18.359,0,0,0,3.134,4.306,16.7,16.7,0,0,1,2.083,1.757,4.289,4.289,0,0,0-4.2,3.369,11.287,11.287,0,0,1-3.459-3.29c-.434-.587-1.053-1.093-1.077-1.919" transform="translate(13632.355 -9313.888)" fill="#94c2ea"/>
    <path id="Trazado_605661" data-name="Trazado 605661" d="M128.6,187a4.13,4.13,0,1,1-4.16-4.145A4.137,4.137,0,0,1,128.6,187m-5.121-1.778a1.922,1.922,0,0,0-1.034,2.252A1.99,1.99,0,0,0,124,189.055a1.9,1.9,0,0,0,2.14-.911,1.943,1.943,0,0,0-.089-2.523,1.976,1.976,0,0,0-2.573-.4" transform="translate(13626.045 -9309.408)" fill="#040403"/>
    <path id="Trazado_605662" data-name="Trazado 605662" d="M122.834,210.94a1.966,1.966,0,0,1-2.326,1.052,1.906,1.906,0,0,1-1.507-1.5,1.968,1.968,0,0,1,1.049-2.328,3.048,3.048,0,0,0,2.784,2.78" transform="translate(13626.699 -9321.121)" fill="#4c6372"/>
    <path id="Trazado_605663" data-name="Trazado 605663" d="M123.8,210.734a3.048,3.048,0,0,1-2.784-2.78,2.11,2.11,0,0,1,2.462.34,2.044,2.044,0,0,1,.322,2.44" transform="translate(13625.731 -9320.915)" fill="#617583"/>
    <path id="Trazado_605664" data-name="Trazado 605664" d="M105.5,192.063a2,2,0,0,1-2.242,1.1,2.05,2.05,0,0,1-.519-3.886,2.865,2.865,0,0,0,2.761,2.79" transform="translate(13634.748 -9312.38)" fill="#4c6372"/>
    <path id="Trazado_605665" data-name="Trazado 605665" d="M106.54,191.868a2.865,2.865,0,0,1-2.761-2.79,2.009,2.009,0,0,1,2.435.406,1.973,1.973,0,0,1,.326,2.384" transform="translate(13633.71 -9312.186)" fill="#617583"/>
    <path id="Trazado_605666" data-name="Trazado 605666" d="M127.906,190.183a1.9,1.9,0,0,1-2.14.911,1.99,1.99,0,0,1-1.556-1.585,1.922,1.922,0,0,1,1.034-2.252,3.043,3.043,0,0,0,2.263,2.653c.176.047.334.082.4.273" transform="translate(13624.279 -9311.447)" fill="#4c6372"/>
    <path id="Trazado_605667" data-name="Trazado 605667" d="M128.845,189.926c-.065-.192-.223-.226-.4-.273A3.043,3.043,0,0,1,126.183,187a1.976,1.976,0,0,1,2.573.4,1.943,1.943,0,0,1,.089,2.523" transform="translate(13623.341 -9311.19)" fill="#617583"/>
  </g>
</svg>
