<svg xmlns="http://www.w3.org/2000/svg" width="127.421" height="153.742" viewBox="0 0 127.421 153.742">
  <g id="Grupo_264928" data-name="Grupo 264928" transform="translate(-1765.955 8727.006)">
    <path id="Trazado_284822" data-name="Trazado 284822" d="M232.4,2442.921c.011,2.152-.05,4.306.058,6.452a3.3,3.3,0,0,1-1.527,3.172h-1.8c-1.822-1.237-3.89-2-5.814-3.049a.933.933,0,0,0-.983,0c-1.921,1.048-3.993,1.809-5.815,3.045h-1.8c-1.824-1.233-3.89-2.007-5.814-3.05a.938.938,0,0,0-.983,0c-1.922,1.045-3.992,1.812-5.815,3.046h-1.8c-1.823-1.235-3.89-2.006-5.814-3.05a.938.938,0,0,0-.983,0c-1.922,1.045-3.991,1.812-5.815,3.046h-1.8c-1.822-1.237-3.89-2-5.813-3.049a.935.935,0,0,0-.984,0c-1.921,1.048-3.992,1.809-5.815,3.045h-1.8c-1.825-1.233-3.89-2.007-5.814-3.049a.935.935,0,0,0-.984,0c-1.921,1.048-3.992,1.809-5.814,3.045h-1.8c-1.822-1.237-3.891-2-5.814-3.049a.933.933,0,0,0-.983,0c-1.921,1.048-3.993,1.809-5.815,3.045h-1.8a3.292,3.292,0,0,1-1.527-3.172c.108-2.146.047-4.3.057-6.452Z" transform="translate(1641.689 -11025.809)" fill="#d8d0cb"/>
    <path id="Trazado_284823" data-name="Trazado 284823" d="M127.926,2419.221a31.034,31.034,0,0,1-3.622-14.628c.063-19.215.142-38.431-.037-57.645a35.059,35.059,0,0,1,5.114-18.923c3.229-5.363,7.285-10.1,11.177-14.957a3.593,3.593,0,0,1,.574-.476c.284,1.053,1.152.6,1.751.6q43.1.034,86.194.032c.619,0,1.308-.253,1.855.288-1.066,1.314-2.094,2.66-3.205,3.934a92.622,92.622,0,0,0-10.656,14.011,25.586,25.586,0,0,0-3.9,13.309c.109,13.3.029,26.6.023,39.906a1.383,1.383,0,0,0-1.1.7c-1.662,2.352-4.17,3.85-6.025,6a1.7,1.7,0,0,1-1.664.795c.2-.509.42-1.01.6-1.527,1.97-5.8,1.36-10.762-3.785-14.973-.184-1.6.33-3.237-.285-4.809a8.109,8.109,0,0,0-.611-3.794,2.081,2.081,0,0,1,.254-2.342,36.719,36.719,0,0,0,3.714-6.3,16.7,16.7,0,0,0,1.064-12.013c-.884-2.879-2-3.791-5.05-3.774-.4,0-.8.019-1.195.029a10.8,10.8,0,0,0-4.166,1,19.512,19.512,0,0,0-7.326,6.035c-.679.893-1.238,1.175-2.349.6a33.131,33.131,0,0,0-14.1-3.422,33.714,33.714,0,0,0-16.637,3.5,1.329,1.329,0,0,1-2.007-.478,17.233,17.233,0,0,0-3.061-3.28,14.629,14.629,0,0,0-11.233-4,2.481,2.481,0,0,0-1.863.813,9.413,9.413,0,0,0-2.03,3.617,16.731,16.731,0,0,0,1.009,10.635,32.282,32.282,0,0,0,3.668,6.344,2.958,2.958,0,0,1,.522,3.277,8.553,8.553,0,0,0-.541,3.521c-.5,1.592-.138,3.224-.228,4.835-4.615,3.813-6.052,9.114-3.908,14.413,1.345,5.126,7.251,9.6,12.78,9.6,14.189.017,28.378,0,42.567.016a18.412,18.412,0,0,0,5.6-.571c0,.5-.441.641-.752.854a103.5,103.5,0,0,1-10.329,6.292,107.561,107.561,0,0,1-26.229,9.819,109.831,109.831,0,0,1-23.011,2.81c-2.048.032-4.1,0-6.146.011-.479,0-1.014-.164-1.4.3m16.82-96.072c0,4.581,2.977,7.614,7.237,7.825a7.673,7.673,0,0,0,8.061-7.611,7.84,7.84,0,0,0-7.706-7.758c-3.723-.058-7.9,3.186-7.592,7.544m27.628,9.505a4.654,4.654,0,1,0-4.763,4.581,4.789,4.789,0,0,0,4.763-4.581" transform="translate(1641.689 -11025.809)" fill="#e1dad4"/>
    <path id="Trazado_284824" data-name="Trazado 284824" d="M204.4,2392.168a1.7,1.7,0,0,0,1.664-.793c1.855-2.156,4.364-3.653,6.026-6a1.379,1.379,0,0,1,1.1-.7c.007,6.849.1,13.7-.011,20.549a25.384,25.384,0,0,0,2.777,11.654c2.615,5.379,6.477,9.9,10.182,14.52,1.525,1.9,3.02,3.827,4.527,5.742.185.235.422.5.3.8-.146.347-.521.169-.795.19-.348.028-.7.007-1.05.007H143.172c-.45,0-.9.009-1.35,0a.646.646,0,0,0-.7.624c-2.174-2.975-4.367-5.936-6.515-8.928a111.177,111.177,0,0,1-6.15-9.386,11.561,11.561,0,0,1-.532-1.226c.388-.464.923-.3,1.4-.3,2.049-.015,4.1.021,6.146-.011a109.831,109.831,0,0,0,23.011-2.81,107.561,107.561,0,0,0,26.229-9.819,103.792,103.792,0,0,0,10.329-6.291c.31-.214.749-.354.752-.855a15.673,15.673,0,0,0,8.608-6.966" transform="translate(1641.689 -11025.809)" fill="#d8d0cb"/>
    <path id="Trazado_284825" data-name="Trazado 284825" d="M141.122,2438.76a.644.644,0,0,1,.7-.623c.45,0,.9,0,1.35,0h85.949c.351,0,.7.02,1.05-.007.275-.021.649.157.795-.19.126-.3-.112-.562-.3-.8-1.507-1.915-3-3.84-4.526-5.741-3.706-4.623-7.568-9.143-10.183-14.521a25.387,25.387,0,0,1-2.777-11.654c.106-6.848.018-13.7.011-20.549.006-13.3.086-26.6-.023-39.907a25.583,25.583,0,0,1,3.9-13.308,92.622,92.622,0,0,1,10.656-14.011c1.111-1.274,2.139-2.621,3.205-3.934.508-.5.819-1.194,1.509-1.511v0q0,62.663,0,125.324c0,.478-.172,1.015.294,1.405-.542,1.362-.183,2.8-.332,4.189H141.177q-.027-2.082-.055-4.162" transform="translate(1641.689 -11025.809)" fill="#c3bbb6"/>
    <path id="Trazado_284826" data-name="Trazado 284826" d="M232.733,2438.733c-.466-.39-.294-.927-.294-1.405q-.007-62.661,0-125.324c1.992,2.354,4.019,4.68,5.968,7.069a100.749,100.749,0,0,1,9.288,12.834,26.779,26.779,0,0,1,3.99,13.893q-.156,30.311,0,60.624c.031,6.748-2.563,12.392-6.5,17.61-3.127,4.145-6.836,7.8-10.066,11.853-.771.969-1.589,1.9-2.386,2.846" transform="translate(1641.689 -11025.809)" fill="#d8d0cb"/>
    <path id="Trazado_284827" data-name="Trazado 284827" d="M141.166,2308.414c-.007-2.3-.037-4.6-.015-6.9s1.677-3.322,3.768-2.318c1.578.757,3.169,1.5,4.687,2.364a2.128,2.128,0,0,0,2.351-.031c1.4-.775,2.881-1.4,4.277-2.177a3.179,3.179,0,0,1,3.391-.03c1.438.806,2.972,1.441,4.414,2.24a2.024,2.024,0,0,0,2.213.027c1.527-.852,3.134-1.56,4.682-2.376a2.838,2.838,0,0,1,2.85-.015c1.593.837,3.235,1.584,4.818,2.438a1.819,1.819,0,0,0,1.944.011c1.582-.857,3.224-1.6,4.817-2.442a2.841,2.841,0,0,1,2.85,0c1.637.862,3.317,1.642,4.953,2.507a1.6,1.6,0,0,0,1.673-.007c1.592-.841,3.234-1.586,4.817-2.441a3.017,3.017,0,0,1,3.121.015c1.539.832,3.146,1.538,4.682,2.374a1.808,1.808,0,0,0,1.944-.023c1.449-.787,2.979-1.428,4.409-2.248a3.315,3.315,0,0,1,3.664.035c.769.463,1.681.712,2.4,1.238a4.6,4.6,0,0,0,5.983-.027,17.7,17.7,0,0,1,2.937-1.5c1.931-.89,3.6.12,3.63,2.233.037,2.351,0,4.7-.011,7.055Z" transform="translate(1641.689 -11025.809)" fill="#e1dad4"/>
    <path id="Trazado_284828" data-name="Trazado 284828" d="M141.166,2308.414H232.41q.015,1.794.03,3.587c-.69.317-1,1.013-1.509,1.512-.547-.541-1.236-.288-1.854-.289q-43.1-.021-86.194-.032c-.6,0-1.467.453-1.752-.6q.018-2.091.035-4.179" transform="translate(1641.689 -11025.809)" fill="#d8d0cb"/>
    <path id="Trazado_284829" data-name="Trazado 284829" d="M134.849,2390.088c-2.145-5.3-.708-10.6,3.907-14.413q3.228,0,6.456,0c2.1,0,3.114-.771,3.137-2.363.024-1.647-1.017-2.434-3.21-2.442q-3.078-.009-6.155-.027a8.555,8.555,0,0,1,.541-3.521,2.956,2.956,0,0,0-.522-3.276,32.3,32.3,0,0,1-3.667-6.344,16.724,16.724,0,0,1-1.01-10.635,9.4,9.4,0,0,1,2.03-3.617,2.482,2.482,0,0,1,1.863-.814,14.627,14.627,0,0,1,11.233,4,17.167,17.167,0,0,1,3.062,3.278,1.326,1.326,0,0,0,2.006.478,33.74,33.74,0,0,1,16.637-3.5,33.113,33.113,0,0,1,14.106,3.424c1.11.573,1.669.291,2.349-.6a19.5,19.5,0,0,1,7.326-6.035,10.793,10.793,0,0,1,4.165-1q-.753,2.537-1.5,5.075c-2.674,1-4.464,3.11-6.4,5.043-.445.445-.408.66.05,1.172.78.874,2.134,1.184,2.453,2.489a55.647,55.647,0,0,1-4.7,7.442,31.741,31.741,0,0,1-5.231,6.078,12.71,12.71,0,0,0-8.494-3.887c-3.548-.079-7.1-.057-10.646-.009-5.955.079-11.341,5.514-11.488,11.462a12.989,12.989,0,0,0,3.929,9.538,69.015,69.015,0,0,1-22.227,3.015m3.879-39.241c0,3.389,1.55,6.227,3.229,9.02.386.643.685.542,1.1,0a28.658,28.658,0,0,1,5.375-5.765c.419-.311.765-.8.29-1.275-1.819-1.828-3.4-3.936-6.007-4.814-3.366-1.135-3.976-.726-3.991,2.833m21.83,10.41a4.651,4.651,0,1,0-4.695-4.646,4.778,4.778,0,0,0,4.695,4.646" transform="translate(1641.689 -11025.809)" fill="#ef9b73"/>
    <path id="Trazado_284830" data-name="Trazado 284830" d="M197.6,2347.745l1.5-5.075c.4-.01.8-.026,1.2-.028,3.051-.017,4.165.9,5.05,3.774a16.7,16.7,0,0,1-1.065,12.012,36.632,36.632,0,0,1-3.714,6.295,2.081,2.081,0,0,0-.254,2.342,8.1,8.1,0,0,1,.611,3.794c-2.2,0-4.4,0-6.6.013-1.768.013-2.767.932-2.729,2.465.037,1.462,1.015,2.319,2.714,2.331,2.3.016,4.6,0,6.9,0,5.144,4.21,5.754,9.175,3.784,14.973-.175.516-.395,1.018-.6,1.526a15.675,15.675,0,0,1-8.609,6.966,18.381,18.381,0,0,1-5.6.571c-14.189-.018-28.378,0-42.567-.017-5.528-.006-11.434-4.473-12.78-9.6a69.018,69.018,0,0,0,22.228-3.015,13.085,13.085,0,0,0,7.663,3q5.247.059,10.495,0a12.178,12.178,0,0,0,11.568-11.544,13.623,13.623,0,0,0-3.027-8.564,31.735,31.735,0,0,0,5.231-6.077,55.821,55.821,0,0,0,4.7-7.443c1.423.723,2.1,2.156,3.068,3.3.523.616.853.594,1.235.009,1.755-2.688,3.152-5.521,3.191-8.822.041-3.476-.256-3.717-3.6-3.191" transform="translate(1641.689 -11025.809)" fill="#e48b6c"/>
    <path id="Trazado_284831" data-name="Trazado 284831" d="M144.745,2323.149c-.311-4.358,3.87-7.6,7.593-7.545a7.84,7.84,0,0,1,7.705,7.759,7.672,7.672,0,0,1-8.061,7.61c-4.259-.21-7.24-3.243-7.237-7.824" transform="translate(1641.689 -11025.809)" fill="#eeeae7"/>
    <path id="Trazado_284832" data-name="Trazado 284832" d="M172.374,2332.654a4.654,4.654,0,1,1-4.618-4.726,4.791,4.791,0,0,1,4.618,4.726" transform="translate(1641.689 -11025.809)" fill="#eeeae7"/>
    <path id="Trazado_284833" data-name="Trazado 284833" d="M138.985,2370.839c2.051.009,4.1.022,6.154.027,2.194.008,3.235.795,3.211,2.443-.023,1.591-1.041,2.36-3.137,2.362q-3.228.006-6.456,0c.09-1.612-.269-3.244.228-4.836" transform="translate(1641.689 -11025.809)" fill="#df8261"/>
    <path id="Trazado_284834" data-name="Trazado 284834" d="M201.213,2375.669c-2.3,0-4.6.014-6.9,0-1.7-.011-2.677-.869-2.714-2.33-.039-1.534.961-2.453,2.728-2.467,2.2-.017,4.4-.009,6.6-.012.616,1.573.1,3.212.286,4.81" transform="translate(1641.689 -11025.809)" fill="#df8261"/>
    <path id="Trazado_284835" data-name="Trazado 284835" d="M183.775,2369.968a13.635,13.635,0,0,1,3.028,8.565,12.179,12.179,0,0,1-11.569,11.544q-5.247.06-10.494,0a11.829,11.829,0,0,1-11.594-12.539c.148-5.948,5.534-11.384,11.489-11.463,3.549-.047,7.1-.069,10.646.009a12.7,12.7,0,0,1,8.494,3.886m-16.207,8.059a2.4,2.4,0,1,0-2.429,2.448,2.352,2.352,0,0,0,2.429-2.448m9.61.027a2.4,2.4,0,1,0-2.455,2.421,2.354,2.354,0,0,0,2.455-2.421" transform="translate(1641.689 -11025.809)" fill="#f1baa4"/>
    <path id="Trazado_284836" data-name="Trazado 284836" d="M197.6,2347.745c3.341-.526,3.638-.285,3.6,3.191-.039,3.3-1.436,6.134-3.191,8.822-.382.585-.712.607-1.235-.009-.969-1.144-1.645-2.577-3.068-3.3-.319-1.3-1.673-1.615-2.453-2.489-.458-.512-.495-.727-.05-1.171,1.936-1.934,3.726-4.048,6.4-5.044" transform="translate(1641.689 -11025.809)" fill="#df8261"/>
    <path id="Trazado_284837" data-name="Trazado 284837" d="M138.729,2350.848c.014-3.559.625-3.969,3.99-2.833,2.6.877,4.188,2.986,6.007,4.814.475.478.129.962-.29,1.273a28.668,28.668,0,0,0-5.375,5.767c-.419.541-.718.64-1.1,0-1.679-2.793-3.225-5.631-3.228-9.02" transform="translate(1641.689 -11025.809)" fill="#df8261"/>
    <path id="Trazado_284838" data-name="Trazado 284838" d="M160.558,2361.257a4.651,4.651,0,1,1,4.608-4.731,4.774,4.774,0,0,1-4.608,4.731" transform="translate(1641.689 -11025.809)" fill="#f1baa4"/>
    <path id="Trazado_284839" data-name="Trazado 284839" d="M167.568,2378.027a2.4,2.4,0,1,1-2.373-2.353,2.362,2.362,0,0,1,2.373,2.353" transform="translate(1641.689 -11025.809)" fill="#e08464"/>
    <path id="Trazado_284840" data-name="Trazado 284840" d="M177.178,2378.054a2.4,2.4,0,1,1-2.347-2.38,2.361,2.361,0,0,1,2.347,2.38" transform="translate(1641.689 -11025.809)" fill="#e08464"/>
  </g>
</svg>
