<svg xmlns="http://www.w3.org/2000/svg" width="85" height="85" viewBox="0 0 85 85">
  <g id="Grupo_1070809" data-name="Grupo 1070809" transform="translate(-285.168 -4023.127)">
    <circle id="Elipse_5683" data-name="Elipse 5683" cx="42.5" cy="42.5" r="42.5" transform="translate(285.168 4023.127)" fill="#dbf9bd"/>
    <g id="Grupo_1070756" data-name="Grupo 1070756" transform="translate(-22025.02 12211.398)">
      <path id="Trazado_606668" data-name="Trazado 606668" d="M171.614,166.3a24.072,24.072,0,0,1,3.1-2.3,16.016,16.016,0,0,1,8.18-2.26c.979-.005,1.958-.01,2.936.006.282,0,.37-.077.364-.362-.018-.862,0-1.726-.009-2.588a.918.918,0,0,1,.452-.967.894.894,0,0,1,1.041.226q6.435,5.172,12.876,10.339a2.129,2.129,0,0,1,.486.593v.5a6.193,6.193,0,0,1-.454.446q-6.471,5.206-12.948,10.406a.864.864,0,0,1-1,.195.891.891,0,0,1-.453-.918c.009-.879,0-1.758.007-2.638,0-.232-.022-.368-.313-.364-1.028.015-2.058-.023-3.085.018a1.3,1.3,0,0,0-1.231.942c-.688,2.4-1.318,4.817-1.969,7.228q-.776,2.792-1.553,5.583a29.553,29.553,0,0,1-1.676,5.128,17.56,17.56,0,0,1-3.42,4.658,18,18,0,0,1-5.465,3.458,15.812,15.812,0,0,1-5.777,1.084c-3.485.011-6.97,0-10.454,0-.93,0-1.187-.257-1.188-1.177q0-6.272,0-12.545c0-.89.262-1.154,1.159-1.154q5.127,0,10.255,0a1.526,1.526,0,0,0,1.646-1.26c.448-1.627.89-3.255,1.353-4.878a1.7,1.7,0,0,0-.01-.964c-.46-1.641-.908-3.285-1.358-4.929a1.538,1.538,0,0,0-1.556-1.191q-5.127,0-10.255,0c-1,0-1.235-.232-1.235-1.228V162.933c0-.959.245-1.208,1.211-1.2,3.816.023,7.634-.081,11.449.05a15.077,15.077,0,0,1,7.228,2.247c.546.323.629.593.417,1.255-.533.427-.735.443-1.386.067a13.757,13.757,0,0,0-6.942-1.966c-3.316-.011-6.633,0-9.95-.015-.4,0-.411.171-.411.476.008,3.549.012,7.1-.006,10.646,0,.412.134.483.506.481,3.084-.014,6.169-.008,9.253-.008a3.176,3.176,0,0,1,3.271,2.485c.231.849.469,1.7.738,2.669.475-1.729.931-3.318,1.347-4.919a18.992,18.992,0,0,1,2.485-6.078,24.432,24.432,0,0,1,2.339-2.826m18.581-4.1.008.007-.111-.1,0,0-.107-.089-.008-.005-.087-.077-2.084-1.707v1.858c0,1.068-.217,1.273-1.271,1.292a52.019,52.019,0,0,0-5.468.108,14.83,14.83,0,0,0-12.3,10.659q-2.043,7.47-4.092,14.937a3.186,3.186,0,0,1-3.154,2.383c-3.119,0-6.238.007-9.356-.009-.387,0-.5.093-.5.489q.025,5.3,0,10.6c0,.42.119.517.524.515,3.1-.017,6.2-.024,9.306,0a13.917,13.917,0,0,0,5.758-1.122,14.74,14.74,0,0,0,7.893-7.743,41.338,41.338,0,0,0,1.68-5.6c1.058-3.776,2.075-7.564,3.111-11.346a3.2,3.2,0,0,1,2.833-2.278c1.344-.02,2.688-.012,4.031,0,.7.005.988.312.994,1.011.005.673,0,1.346,0,2.136l2.1-1.725.129-.11-.006.011.176-.147.192-.149a.442.442,0,0,0,.089-.044q4.094-3.284,8.19-6.565c.287-.228.132-.322-.051-.468-1.36-1.087-2.713-2.182-4.075-3.268q-2.117-1.688-4.243-3.364l.007.009a.114.114,0,0,0-.118-.1" transform="translate(22179.383 -8329)" fill="#050403"/>
      <path id="Trazado_606669" data-name="Trazado 606669" d="M204.2,216.025a1,1,0,0,1,1.049.57,1.571,1.571,0,0,0,1.479.825c.895-.032,1.791-.022,2.686,0,.323.008.429-.078.42-.413-.024-.878,0-1.758-.01-2.637a.836.836,0,0,1,1.451-.68q6.472,5.2,12.947,10.4a2.4,2.4,0,0,1,.458.553v.5c-.226.213-.437.444-.679.638q-4.657,3.752-9.324,7.491c-1.272,1.016-2.5,2.087-3.838,3.023h-.5a1.169,1.169,0,0,1-.523-1.14c.028-.812-.011-1.626.016-2.437.012-.356-.1-.434-.444-.435a37.75,37.75,0,0,1-5.117-.151,15.854,15.854,0,0,1-6.027-2.164c-.5-.3-.58-.6-.37-1.23a.977.977,0,0,1,1.312-.127,13.339,13.339,0,0,0,6.414,2c1.091.053,2.186.032,3.279.026,2.837-.015,2.559-.129,2.56,2.534v.622l2.083-1.713.087-.077.008-.006.105-.089,0,0,.111-.1-.006.006a.109.109,0,0,0,.115-.1l-.005.008a.551.551,0,0,0,.134-.059q4.111-3.3,8.223-6.6c.258-.206.185-.3-.027-.471-1.156-.917-2.3-1.848-3.454-2.768q-2.388-1.907-4.784-3.806l-.2-.153a.233.233,0,0,0-.176-.145l.005.009-.124-.108-2.1-1.723c0,.783,0,1.428,0,2.074,0,.79-.282,1.067-1.082,1.071-1.059.005-2.121-.052-3.176.016a3.7,3.7,0,0,1-3-1.124c-.091-.134-.186-.265-.273-.4a.94.94,0,0,1,.291-1.52" transform="translate(22155.748 -8356.587)" fill="#040303"/>
      <path id="Trazado_606670" data-name="Trazado 606670" d="M173.2,171.833a24.43,24.43,0,0,0-2.34,2.826,19,19,0,0,0-2.485,6.078c-.415,1.6-.872,3.19-1.347,4.919-.269-.972-.507-1.819-.738-2.669a3.177,3.177,0,0,0-3.271-2.485c-3.084,0-6.169-.006-9.253.008-.372,0-.508-.069-.506-.481.018-3.549.013-7.1.006-10.647,0-.305.015-.478.411-.476,3.316.018,6.633,0,9.95.015a13.763,13.763,0,0,1,6.942,1.966c.651.377.853.361,1.386-.066a4.585,4.585,0,0,1,1.245,1.013" transform="translate(22177.801 -8334.538)" fill="#fca57f"/>
      <path id="Trazado_606671" data-name="Trazado 606671" d="M203.038,215.012a.94.94,0,0,0-.291,1.52c.087.136.182.267.273.4-.2.781-.414,1.56-.612,2.342a19.219,19.219,0,0,1-2.338,5.592c-.61.969-1.373,1.812-2.042,2.73a.977.977,0,0,0-1.312.127,7.312,7.312,0,0,1-1.294-.992,17.552,17.552,0,0,0,3.42-4.658,29.531,29.531,0,0,0,1.676-5.128q.782-2.79,1.553-5.584l.967,3.65" transform="translate(22156.91 -8355.573)" fill="#fb824d"/>
      <path id="Trazado_606672" data-name="Trazado 606672" d="M191.979,178.451l-.192.148c-.1,0-.181.023-.176.148l.006-.011a.119.119,0,0,0-.13.11l-2.1,1.725c0-.791,0-1.464,0-2.137-.006-.7-.3-1.006-.994-1.011-1.344-.01-2.688-.018-4.031,0a3.2,3.2,0,0,0-2.833,2.278c-1.036,3.782-2.054,7.569-3.111,11.345a41.32,41.32,0,0,1-1.68,5.6,14.738,14.738,0,0,1-7.894,7.743,13.9,13.9,0,0,1-5.758,1.122c-3.1-.021-6.2-.013-9.306,0-.406,0-.526-.1-.524-.515q.026-5.3,0-10.6c0-.4.108-.491.5-.489,3.119.016,6.237.009,9.356.009a3.185,3.185,0,0,0,3.154-2.383q2.047-7.468,4.092-14.937a14.83,14.83,0,0,1,12.3-10.66,52.025,52.025,0,0,1,5.468-.108c1.054-.019,1.271-.224,1.271-1.292v-1.858l2.084,1.708.087.076.008.005.106.089,0,0,.111.1-.007-.007.118.1-.007-.008c-.041.213.122.345.228.475.72.881,1.458,1.747,2.188,2.621.994,1.19,1.981,2.385,2.982,3.568.151.179.142.28-.006.456-1.711,2.03-3.411,4.07-5.12,6.1a.566.566,0,0,0-.182.487m-26.574,20.092a.793.793,0,0,0-.8-.822.83.83,0,0,0-.8.788.8.8,0,0,0,.816.815.782.782,0,0,0,.789-.781m-4.321,2.13a.813.813,0,0,0-.86-.772.786.786,0,0,0-.752.818.811.811,0,0,0,.848.783.843.843,0,0,0,.765-.828" transform="translate(22177.801 -8331.456)" fill="#fde676"/>
      <path id="Trazado_606673" data-name="Trazado 606673" d="M229.907,180.47a.566.566,0,0,1,.182-.487c1.709-2.032,3.409-4.072,5.12-6.1.148-.175.157-.276.006-.455-1-1.183-1.988-2.378-2.982-3.568-.73-.873-1.468-1.74-2.188-2.621-.106-.131-.269-.262-.228-.475q2.122,1.682,4.243,3.363c1.361,1.086,2.714,2.181,4.075,3.269.183.146.338.24.051.468q-4.1,3.272-8.19,6.565a.467.467,0,0,1-.089.043" transform="translate(22139.871 -8333.476)" fill="#fad93d"/>
      <path id="Trazado_606674" data-name="Trazado 606674" d="M229.274,194.374c-.005-.125.079-.144.176-.147l-.176.147" transform="translate(22140.137 -8347.083)" fill="#fad93d"/>
      <path id="Trazado_606675" data-name="Trazado 606675" d="M229.091,166.147,229,166.07l.087.077" transform="translate(22140.271 -8333.133)" fill="#fad93d"/>
      <path id="Trazado_606676" data-name="Trazado 606676" d="M229.3,166.321l-.107-.089.107.089" transform="translate(22140.18 -8333.213)" fill="#fad93d"/>
      <path id="Trazado_606677" data-name="Trazado 606677" d="M229.507,166.5l-.111-.1.111.1" transform="translate(22140.076 -8333.299)" fill="#fad93d"/>
      <path id="Trazado_606678" data-name="Trazado 606678" d="M229.721,166.682l-.118-.1a.113.113,0,0,1,.118.1" transform="translate(22139.975 -8333.388)" fill="#fad93d"/>
      <path id="Trazado_606679" data-name="Trazado 606679" d="M229.028,194.608a.118.118,0,0,1,.129-.11l-.129.11" transform="translate(22140.26 -8347.218)" fill="#fad93d"/>
      <path id="Trazado_606680" data-name="Trazado 606680" d="M200.586,231.067c.669-.918,1.432-1.761,2.042-2.73a19.22,19.22,0,0,0,2.338-5.592c.2-.783.408-1.562.612-2.343a3.7,3.7,0,0,0,3,1.124c1.054-.068,2.117-.011,3.176-.015.8,0,1.078-.282,1.082-1.071,0-.645,0-1.291,0-2.074l2.1,1.723a.113.113,0,0,0,.125.108l-.006-.009c0,.123.08.143.177.145l.2.154a.521.521,0,0,0,.15.45c1.707,2.032,3.4,4.072,5.118,6.1.178.21.182.319,0,.53q-2.23,2.647-4.43,5.319c-.337.412-.806.739-.936,1.3l.005-.007-.115.1.006-.005-.11.1,0,0-.105.089-.008.005-.087.077-2.083,1.714c0-.28,0-.451,0-.622,0-2.662.277-2.549-2.56-2.534-1.093.006-2.188.026-3.279-.026a13.341,13.341,0,0,1-6.415-2" transform="translate(22154.352 -8359.044)" fill="#fda57f"/>
      <path id="Trazado_606681" data-name="Trazado 606681" d="M229.82,236.27c.13-.564.6-.891.936-1.3q2.192-2.679,4.429-5.32c.178-.21.175-.319,0-.53-1.713-2.026-3.411-4.066-5.118-6.1a.522.522,0,0,1-.151-.449q2.392,1.9,4.784,3.805c1.153.92,2.3,1.852,3.453,2.768.212.168.286.265.027.471q-4.119,3.29-8.224,6.6a.552.552,0,0,1-.134.059" transform="translate(22139.867 -8361.126)" fill="#fa814c"/>
      <path id="Trazado_606682" data-name="Trazado 606682" d="M229.443,222.123c-.1,0-.179-.022-.176-.145a.233.233,0,0,1,.176.145" transform="translate(22140.141 -8360.833)" fill="#fa814c"/>
      <path id="Trazado_606683" data-name="Trazado 606683" d="M229.155,221.889a.113.113,0,0,1-.124-.108l.124.108" transform="translate(22140.258 -8360.735)" fill="#fa814c"/>
      <path id="Trazado_606684" data-name="Trazado 606684" d="M229.6,249.808l.115-.1a.109.109,0,0,1-.115.1" transform="translate(22139.975 -8374.573)" fill="#fa814c"/>
      <path id="Trazado_606685" data-name="Trazado 606685" d="M229.4,249.989l.11-.1-.11.1" transform="translate(22140.076 -8374.664)" fill="#fa814c"/>
      <path id="Trazado_606686" data-name="Trazado 606686" d="M229.191,250.17l.105-.089-.105.089" transform="translate(22140.18 -8374.757)" fill="#fa814c"/>
      <path id="Trazado_606687" data-name="Trazado 606687" d="M229,250.345l.087-.077-.087.077" transform="translate(22140.271 -8374.85)" fill="#fa814c"/>
      <path id="Trazado_606688" data-name="Trazado 606688" d="M175.758,232.948a.782.782,0,0,1-.789.781.8.8,0,0,1-.816-.815.831.831,0,0,1,.8-.789.794.794,0,0,1,.8.822" transform="translate(22167.447 -8365.86)" fill="#080704"/>
      <path id="Trazado_606689" data-name="Trazado 606689" d="M167.185,237.218a.843.843,0,0,1-.765.828.811.811,0,0,1-.848-.783.786.786,0,0,1,.752-.818.813.813,0,0,1,.86.772" transform="translate(22171.699 -8368.001)" fill="#070603"/>
    </g>
  </g>
</svg>
