<svg xmlns="http://www.w3.org/2000/svg" width="85" height="85" viewBox="0 0 85 85">
  <g id="Grupo_1070810" data-name="Grupo 1070810" transform="translate(-285.168 -4138.127)">
    <circle id="Elipse_5684" data-name="Elipse 5684" cx="42.5" cy="42.5" r="42.5" transform="translate(285.168 4138.127)" fill="#dbf9bd"/>
    <g id="Grupo_1070757" data-name="Grupo 1070757" transform="translate(-22013.975 11566.518)">
      <path id="Trazado_606704" data-name="Trazado 606704" d="M152.1,289.223c.275.6.236.83-.284,1.187a8.053,8.053,0,0,1-9.807-12.771q6.716-5.523,13.452-11.022c.285-.233.36-.357.125-.709a2.383,2.383,0,0,1,.324-3,2.445,2.445,0,0,1,3.033-.41c.24.147.38.212.618-.025s.221-.391.064-.663a13.573,13.573,0,0,1,2.857-17.03,5.994,5.994,0,0,1,1.02-.583h.933c.014.076.075.075.134.095a2.136,2.136,0,0,1,1.58,2.063c.012.208,0,.418,0,.7,1.315-.759,2.557-1.453,3.774-2.186a2.676,2.676,0,0,1,2.978,0c1.089.653,2.193,1.281,3.3,1.91.139.079.259.227.468.2,0-.174,0-.345,0-.515a2.148,2.148,0,0,1,1-1.888,6.466,6.466,0,0,1,.767-.37h.84a8.394,8.394,0,0,1,3.452,3.309c.235.328.083.651-.183.916-.566.2-.754.156-1.105-.341a12.93,12.93,0,0,0-1.985-2.218.781.781,0,0,0-.979-.152.889.889,0,0,0-.407.877c.005,2.456,0,4.912.006,7.368a2.541,2.541,0,0,1-1.356,2.375c-1.089.626-2.179,1.252-3.263,1.887a1.433,1.433,0,0,0-.572.4c2.455,1.417,4.9,2.82,7.337,4.249.336.2.486.134.7-.148a12.075,12.075,0,0,0,2.1-11.419c-.142-.472-.195-.879.275-1.19.648-.082.822.027,1.03.649a13.59,13.59,0,0,1-7.961,16.961c-.264.1-.373.185-.288.52a1.756,1.756,0,0,1-.475,1.719c-.434.446-.867.892-1.32,1.318a1.851,1.851,0,0,1-2.64-.017c-.338-.321-.673-.647-.988-.99-.168-.183-.273-.168-.436,0-.508.525-1.027,1.04-1.549,1.551a.34.34,0,0,0-.077.442,2.465,2.465,0,0,1-3.677,3.03c-.341-.232-.4.039-.525.191q-4.336,5.278-8.663,10.563-.62.758-1.243,1.513c-.423.515-.592.558-1.2.3a.872.872,0,0,1,.118-1.207q2.423-2.918,4.815-5.861,2.325-2.845,4.641-5.7c.173-.2.334-.408.523-.59.265-.254.264-.435-.016-.711q-3.121-3.081-6.2-6.2c-.252-.255-.4-.256-.67-.03q-6.155,5.07-12.326,10.121a14.051,14.051,0,0,0-2.4,2.2,6.653,6.653,0,0,0,9.16,9.439.908.908,0,0,1,1.178-.1m21.683-19.447c.267-.258.536-.513.8-.775a.489.489,0,0,0,.1-.56c-.1-.243-.29-.1-.441-.076-.565.083-1.129.177-1.694.267-.17,0-.34.015-.51.012a.6.6,0,0,0-.533.388c-.081.151.144.238.238.346.143.162.3.309.457.462.778.778.837.775,1.582-.064m-13.346-3.934c-.671-.665-1.329-1.346-2.018-1.991a1.047,1.047,0,0,0-1.5.043,1.029,1.029,0,0,0,0,1.469c.654.681,1.341,1.331,2.013,1.994a1.293,1.293,0,0,0,.112.146q3.215,3.217,6.433,6.431a1.575,1.575,0,0,0,.321.267,1.076,1.076,0,0,0,1.606-1.122,1.419,1.419,0,0,0-.465-.736q-2.1-2.092-4.19-4.189c-.426-.427-.445-.609-.149-1.147.544-.28.72-.258,1.151.172,1.168,1.164,2.339,2.324,3.493,3.5.233.238.353.272.6.011,1-1.04,2.04-2.051,3.058-3.078a1.018,1.018,0,0,1,.771-.365,9.748,9.748,0,0,0,1.9-.184,12.063,12.063,0,0,0,6.005-2.935c-.111-.073-.2-.136-.286-.188q-2.055-1.19-4.11-2.377-4.535-2.617-9.072-5.232a2.526,2.526,0,0,1-1.35-2.289c-.008-.529,0-1.058,0-1.586q-.012-2.821-.026-5.642c.008-.139.026-.277.022-.416a.784.784,0,0,0-1.341-.554,12.052,12.052,0,0,0-4.061,11.009,11.528,11.528,0,0,0,1.884,4.91.727.727,0,0,1-.11,1.113c-.216.223-.432.448-.662.656-.155.139-.144.237,0,.372.3.271.581.556.871.836a.843.843,0,0,1-.016.941.822.822,0,0,1-.884.163m11.186-8.3a.652.652,0,0,0,.435-.135l3.991-2.3a1.174,1.174,0,0,0,.623-1.112q-.017-2.283,0-4.566a1.192,1.192,0,0,0-.661-1.135c-1.322-.752-2.635-1.519-3.951-2.28a.707.707,0,0,0-.435-.138c-.309-.179-.572-.01-.822.131-1.35.767-2.693,1.546-4.04,2.317a1.211,1.211,0,0,0-.617,1.127q-.012,2.261,0,4.522a1.168,1.168,0,0,0,.58,1.1c1.373.788,2.74,1.589,4.117,2.37.23.131.49.293.779.108" transform="translate(22179.383 -7654)" fill="#040303"/>
      <path id="Trazado_606705" data-name="Trazado 606705" d="M156.659,322.662a.908.908,0,0,0-1.178.1,6.573,6.573,0,0,1-7.944-.169,15.192,15.192,0,0,1-.275-1.641,7.321,7.321,0,0,1,2.75-6.355c1.622-1.36,3.287-2.67,4.925-4.012q3.462-2.837,6.912-5.686a1.483,1.483,0,0,1,1.96,0c1.222,1.193,2.457,2.374,3.608,3.637q-2.32,2.849-4.641,5.7-2.4,2.936-4.815,5.861a.873.873,0,0,0-.118,1.207,6.087,6.087,0,0,1-1.185,1.36" transform="translate(22174.824 -7687.439)" fill="#fd636e"/>
      <path id="Trazado_606706" data-name="Trazado 606706" d="M225.409,251.854c-.469.31-.417.718-.275,1.19a12.076,12.076,0,0,1-2.1,11.419c-.217.282-.366.345-.7.148-2.434-1.429-4.882-2.831-7.337-4.249a1.433,1.433,0,0,1,.572-.4c1.084-.636,2.173-1.261,3.262-1.887a2.539,2.539,0,0,0,1.356-2.375c-.009-2.456,0-4.912-.005-7.368a.889.889,0,0,1,.407-.877.78.78,0,0,1,.979.152,12.91,12.91,0,0,1,1.984,2.218c.352.5.54.545,1.106.341a12.7,12.7,0,0,1,.753,1.686" transform="translate(22137.271 -7655.744)" fill="#e6ebf0"/>
      <path id="Trazado_606707" data-name="Trazado 606707" d="M192.461,250.059q.013,2.821.026,5.642c0,.529,0,1.057,0,1.586a2.526,2.526,0,0,0,1.35,2.29q4.536,2.615,9.072,5.232,2.057,1.187,4.11,2.377c.09.053.175.115.286.189a12.066,12.066,0,0,1-6.005,2.935,9.781,9.781,0,0,1-1.9.184,1.016,1.016,0,0,0-.771.365c-1.018,1.027-2.054,2.037-3.058,3.077-.252.262-.372.227-.605-.011-1.153-1.178-2.324-2.337-3.492-3.5-.431-.43-.607-.452-1.151-.172a13.011,13.011,0,0,1-1.273-1.326.844.844,0,0,0,.016-.941l1.156-1.04a2.162,2.162,0,0,0,1.359.9c.2.033.238.145.275.3a1.911,1.911,0,0,0,1.507,1.533.443.443,0,0,1,.373.38,1.992,1.992,0,0,0,3.375.953q1.375-1.327,2.7-2.7a2,2,0,0,0-.976-3.4c-.185-.046-.286-.082-.332-.3a1.93,1.93,0,0,0-1.578-1.575c-.154-.034-.251-.067-.276-.244a2.032,2.032,0,0,0-3.563-.925c-.7.768-1.473,1.466-2.213,2.195-.368-.112-.353-.477-.472-.743a12.372,12.372,0,0,1-.919-6.889,12.872,12.872,0,0,1,2.656-6.143c.089-.115.156-.231.319-.229" transform="translate(22151.65 -7657.248)" fill="#e5eaef"/>
      <path id="Trazado_606708" data-name="Trazado 606708" d="M164.588,303.95c-1.151-1.263-2.386-2.445-3.608-3.637a1.483,1.483,0,0,0-1.961,0q-3.457,2.841-6.912,5.686c-1.638,1.342-3.3,2.652-4.925,4.012a7.321,7.321,0,0,0-2.751,6.355,15.393,15.393,0,0,0,.275,1.641,6.631,6.631,0,0,1-1.216-9.27,14.052,14.052,0,0,1,2.4-2.2q6.158-5.066,12.326-10.121c.275-.226.418-.225.67.03q3.084,3.117,6.2,6.2c.28.277.28.457.016.711-.189.181-.349.392-.523.589" transform="translate(22177.652 -7682.854)" fill="#fb4654"/>
      <path id="Trazado_606709" data-name="Trazado 606709" d="M206.593,247.942a.708.708,0,0,1,.435.138c1.316.761,2.629,1.528,3.951,2.28a1.192,1.192,0,0,1,.661,1.135q-.015,2.283,0,4.566a1.174,1.174,0,0,1-.623,1.112l-3.991,2.3a.653.653,0,0,1-.435.135c-.046-.132-.17-.175-.275-.236-1.125-.654-2.252-1.3-3.374-1.96a1.516,1.516,0,0,1-.83-1.358c-.005-1.522,0-3.043,0-4.565a1.46,1.46,0,0,1,.759-1.3c.622-.378,1.269-.715,1.888-1.1a11.228,11.228,0,0,0,1.836-1.151m-3.29,5.848a3.09,3.09,0,1,0,3.048-3.116,3.1,3.1,0,0,0-3.048,3.116" transform="translate(22144.414 -7656.073)" fill="#798a96"/>
      <path id="Trazado_606710" data-name="Trazado 606710" d="M187.62,265.439l-1.156,1.041c-.29-.279-.574-.565-.871-.836-.149-.135-.159-.233,0-.372.23-.208.446-.433.662-.656a.728.728,0,0,0,.109-1.113,11.533,11.533,0,0,1-1.884-4.91,12.054,12.054,0,0,1,4.061-11.01.784.784,0,0,1,1.341.554c0,.138-.014.277-.022.416-.164,0-.23.114-.319.229a12.871,12.871,0,0,0-2.655,6.143,12.367,12.367,0,0,0,.918,6.889c.119.267.1.631.472.743a2.232,2.232,0,0,0-.653,2.882" transform="translate(22154.254 -7655.742)" fill="#d7e5ea"/>
      <path id="Trazado_606711" data-name="Trazado 606711" d="M186.073,292.389a12.957,12.957,0,0,0,1.273,1.326c-.3.538-.278.719.148,1.147q2.092,2.1,4.19,4.189a1.419,1.419,0,0,1,.464.736,1.075,1.075,0,0,1-1.605,1.122,1.563,1.563,0,0,1-.321-.267q-3.219-3.213-6.434-6.43a1.4,1.4,0,0,1-.112-.146,1.766,1.766,0,0,1,1.513-1.514.823.823,0,0,0,.884-.164" transform="translate(22154.631 -7680.711)" fill="#fa626d"/>
      <path id="Trazado_606712" data-name="Trazado 606712" d="M205.349,247.848A11.243,11.243,0,0,1,203.512,249c-.619.383-1.265.72-1.888,1.1a1.46,1.46,0,0,0-.759,1.3c0,1.522,0,3.044,0,4.565a1.516,1.516,0,0,0,.829,1.358c1.123.657,2.25,1.306,3.374,1.96.106.061.23.1.276.236-.29.185-.549.023-.779-.108-1.378-.781-2.744-1.582-4.118-2.37a1.171,1.171,0,0,1-.58-1.1q-.014-2.26,0-4.522a1.212,1.212,0,0,1,.617-1.127c1.347-.772,2.69-1.551,4.04-2.317.249-.142.513-.311.822-.131" transform="translate(22145.656 -7655.979)" fill="#566972"/>
      <path id="Trazado_606713" data-name="Trazado 606713" d="M182.3,289.909a1.767,1.767,0,0,0-1.513,1.514c-.673-.663-1.359-1.313-2.013-1.994a1.029,1.029,0,0,1,0-1.469,1.046,1.046,0,0,1,1.5-.043c.69.646,1.347,1.326,2.018,1.991" transform="translate(22157.516 -7678.068)" fill="#f74553"/>
      <path id="Trazado_606714" data-name="Trazado 606714" d="M214.16,300.161c-.745.839-.8.841-1.582.063-.153-.153-.314-.3-.457-.462-.095-.108-.32-.195-.239-.346a.6.6,0,0,1,.533-.388c.17,0,.34-.007.509-.011a2.412,2.412,0,0,0,1.235,1.144" transform="translate(22139.006 -7684.385)" fill="#566972"/>
      <path id="Trazado_606715" data-name="Trazado 606715" d="M215.478,299.749a2.412,2.412,0,0,1-1.235-1.144c.565-.09,1.129-.184,1.694-.267.151-.022.342-.168.44.076a.487.487,0,0,1-.1.56c-.263.262-.532.517-.8.776" transform="translate(22137.688 -7683.974)" fill="#778894"/>
      <path id="Trazado_606716" data-name="Trazado 606716" d="M191.328,280.725a2.231,2.231,0,0,1,.653-2.881c.74-.73,1.515-1.428,2.213-2.2a2.032,2.032,0,0,1,3.563.925c.026.177.122.21.276.245a1.929,1.929,0,0,1,1.578,1.575c.046.216.147.252.332.3a2,2,0,0,1,.976,3.4q-1.329,1.373-2.7,2.7a1.992,1.992,0,0,1-3.374-.952.443.443,0,0,0-.374-.38,1.912,1.912,0,0,1-1.507-1.534c-.037-.158-.074-.271-.275-.3a2.162,2.162,0,0,1-1.359-.9m6.524,2.436c.682-.674,1.371-1.341,2.044-2.024a.616.616,0,1,0-.868-.867c-.683.673-1.351,1.362-2.024,2.044-.221.213-.456.413-.658.643a.557.557,0,0,0,0,.826.563.563,0,0,0,.859.036c.231-.2.43-.437.643-.657m-2.712-2.71c-.221.213-.456.413-.658.641a.568.568,0,0,0,.04.861.554.554,0,0,0,.825,0c.23-.2.43-.436.643-.657.682-.674,1.37-1.343,2.044-2.024a.616.616,0,1,0-.869-.866c-.683.673-1.351,1.362-2.024,2.044m-1.864-1.863c-.221.212-.456.412-.658.64a.568.568,0,0,0,.041.861.554.554,0,0,0,.825,0c.23-.2.43-.436.643-.656.682-.674,1.37-1.343,2.044-2.025a.616.616,0,1,0-.87-.865c-.683.673-1.351,1.362-2.024,2.044" transform="translate(22150.545 -7671.029)" fill="#020202"/>
      <path id="Trazado_606717" data-name="Trazado 606717" d="M204.789,257.19a3.091,3.091,0,1,1,3.074,3.094,3.1,3.1,0,0,1-3.074-3.094m4.779-.019a1.717,1.717,0,0,0-1.69-1.695,1.7,1.7,0,0,0,.011,3.4,1.716,1.716,0,0,0,1.679-1.7" transform="translate(22142.928 -7659.473)" fill="#030303"/>
      <path id="Trazado_606718" data-name="Trazado 606718" d="M196.05,280.327c.674-.682,1.342-1.371,2.024-2.044a.616.616,0,1,1,.87.865c-.674.682-1.362,1.35-2.044,2.025a1.046,1.046,0,0,1-.851-.846" transform="translate(22147.771 -7672.768)" fill="#778894"/>
      <path id="Trazado_606719" data-name="Trazado 606719" d="M200.233,284.508c.674-.682,1.342-1.371,2.024-2.044a.616.616,0,1,1,.869.866c-.674.682-1.362,1.35-2.044,2.025a1.048,1.048,0,0,1-.85-.846" transform="translate(22145.453 -7675.086)" fill="#778894"/>
      <path id="Trazado_606720" data-name="Trazado 606720" d="M204.415,288.687c.673-.682,1.341-1.371,2.024-2.044a.616.616,0,1,1,.868.867c-.673.683-1.361,1.351-2.044,2.024a1.07,1.07,0,0,1-.848-.847" transform="translate(22143.135 -7677.403)" fill="#778894"/>
      <path id="Trazado_606721" data-name="Trazado 606721" d="M203.371,291.506a1.07,1.07,0,0,0,.848.847c-.213.221-.412.457-.643.657a.611.611,0,0,1-.863-.862c.2-.23.437-.429.658-.642" transform="translate(22144.18 -7680.222)" fill="#566972"/>
      <path id="Trazado_606722" data-name="Trazado 606722" d="M195.01,283.147a1.046,1.046,0,0,0,.851.846c-.213.22-.414.454-.643.656a.554.554,0,0,1-.825,0,.568.568,0,0,1-.041-.861c.2-.228.438-.428.658-.64" transform="translate(22148.813 -7675.588)" fill="#566972"/>
      <path id="Trazado_606723" data-name="Trazado 606723" d="M199.193,287.327a1.048,1.048,0,0,0,.85.846c-.213.22-.413.455-.643.657a.553.553,0,0,1-.825,0,.567.567,0,0,1-.04-.86c.2-.229.437-.428.658-.641" transform="translate(22146.492 -7677.905)" fill="#566972"/>
      <path id="Trazado_606724" data-name="Trazado 606724" d="M211.306,258.916a1.716,1.716,0,0,1-1.679,1.7,1.7,1.7,0,0,1-.011-3.4,1.717,1.717,0,0,1,1.69,1.695" transform="translate(22141.191 -7661.218)" fill="#e4e8ed"/>
    </g>
  </g>
</svg>
