<svg xmlns="http://www.w3.org/2000/svg" width="149" height="149" viewBox="0 0 149 149">
  <g id="Grupo_1070059" data-name="Grupo 1070059" transform="translate(-1028.334 -2471)">
    <rect id="Rectángulo_375464" data-name="Rectángulo 375464" width="149" height="149" transform="translate(1028.334 2471)" fill="none"/>
    <g id="Grupo_1015396" data-name="Grupo 1015396" transform="translate(-9841.843 11462.485)">
      <path id="Trazado_605702" data-name="Trazado 605702" d="M199.406,268.459l2.812,2.812a3.239,3.239,0,0,1-.509.6c-.9.639-.9,1.181-.026,1.91.949.787,1.723,1.782,2.656,2.59.779.674.768,1.095.016,1.84Q192.778,289.7,181.27,301.259c-2.128,2.128-2.09,2.093-.018,4.254.736.769,1.123.7,1.839-.021q11.354-11.435,22.779-22.8c.772-.769,1.469-2.174,2.39-2.083.864.086,1.564,1.421,2.42,2.1.911.721.729,1.177-.029,1.931q-14.528,14.449-28.974,28.981c-.815.821-1.2.837-2.034,0q-30.2-30.283-60.467-60.507a12.783,12.783,0,0,1-.912-.961,3.857,3.857,0,0,1,2.666-6.327,4.3,4.3,0,0,1,3.493,1.569q8.983,9.023,18,18.008a6.1,6.1,0,0,0,1.211,1.01,2.081,2.081,0,0,0,2.8-2.8,6.1,6.1,0,0,0-1.009-1.213q-8.854-8.871-17.72-17.728a12.755,12.755,0,0,1-1-1.057,3.836,3.836,0,0,1,2.254-6.2,4.1,4.1,0,0,1,3.9,1.45q8.987,9.018,18,18.006a6.071,6.071,0,0,0,1.2,1.031,2.077,2.077,0,0,0,3.1-1.844,2.739,2.739,0,0,0-1.021-1.931q-5.54-5.526-11.068-11.064c-2.5-2.5-5.022-4.982-7.493-7.512a3.823,3.823,0,0,1,.166-5.835c1.672-1.385,3.763-1.162,5.561.633q9.013,8.993,18.01,18a8.271,8.271,0,0,0,.968.9,1.948,1.948,0,0,0,2.665-.122,1.99,1.99,0,0,0,.312-2.758,6.458,6.458,0,0,0-.885-.981q-8.858-8.867-17.721-17.728a11.85,11.85,0,0,1-1-1.058,3.837,3.837,0,0,1,2.319-6.181,4.137,4.137,0,0,1,3.892,1.485q12.176,12.206,24.376,24.387a8.271,8.271,0,0,0,.963.908,2.1,2.1,0,0,0,3.343-1.222,11.687,11.687,0,0,0,.226-1.573c.449-4.217.875-8.436,1.344-12.65a3.561,3.561,0,0,1,3.68-3.277,3.608,3.608,0,0,1,3.49,3.483c.108,1.587.18,3.177.264,4.767.4,7.546.811,15.093,1.188,22.641a3.736,3.736,0,0,0,1.226,2.668c2.131,2.056,4.2,4.176,6.3,6.27,1.524,1.523,1.524,1.523,3.142.141" transform="translate(10791.111 -9168.889)" fill="#fdb331"/>
      <path id="Trazado_605703" data-name="Trazado 605703" d="M194.517,263.574c-1.619,1.381-1.619,1.381-3.142-.141-2.095-2.095-4.164-4.215-6.3-6.271a3.732,3.732,0,0,1-1.225-2.668c-.378-7.548-.788-15.094-1.188-22.641-.085-1.589-.157-3.179-.265-4.767a3.608,3.608,0,0,0-3.49-3.483,3.561,3.561,0,0,0-3.679,3.277c-.469,4.214-.9,8.433-1.345,12.65a11.824,11.824,0,0,1-.226,1.573,2.1,2.1,0,0,1-3.343,1.222,8.138,8.138,0,0,1-.963-.908q-12.193-12.19-24.377-24.387a4.137,4.137,0,0,0-3.892-1.485,3.838,3.838,0,0,0-2.319,6.181,11.859,11.859,0,0,0,1,1.058q8.859,8.864,17.72,17.728a6.458,6.458,0,0,1,.885.981,1.99,1.99,0,0,1-.312,2.758,1.948,1.948,0,0,1-2.665.122,8.262,8.262,0,0,1-.967-.9q-9.006-9-18.01-18c-1.8-1.8-3.891-2.018-5.562-.633a3.824,3.824,0,0,0-.166,5.835c2.472,2.53,4.993,5.011,7.493,7.512q5.532,5.533,11.069,11.064a2.735,2.735,0,0,1,1.021,1.931,2.077,2.077,0,0,1-3.1,1.844,6.048,6.048,0,0,1-1.2-1.031q-9.01-8.995-18-18.006a4.1,4.1,0,0,0-3.9-1.45,3.836,3.836,0,0,0-2.255,6.2,12.9,12.9,0,0,0,1,1.057q8.861,8.863,17.72,17.728a6.1,6.1,0,0,1,1.009,1.213,2.081,2.081,0,0,1-2.8,2.8,6.129,6.129,0,0,1-1.211-1.01q-9.011-8.995-18-18.008a4.3,4.3,0,0,0-3.494-1.569,3.856,3.856,0,0,0-2.665,6.327,12.768,12.768,0,0,0,.912.961q30.244,30.245,60.467,60.507c.829.832,1.219.816,2.034,0q14.44-14.536,28.974-28.981c.758-.754.94-1.21.029-1.931-.857-.678-1.557-2.014-2.421-2.1-.92-.091-1.618,1.313-2.39,2.083q-11.413,11.375-22.779,22.8c-.716.721-1.1.791-1.839.021-2.071-2.161-2.11-2.126.018-4.254q11.534-11.537,23.088-23.052c.751-.746.763-1.166-.017-1.84-.934-.808-1.707-1.8-2.656-2.59-.879-.729-.87-1.271.025-1.91a3.205,3.205,0,0,0,.509-.595c1.638-1.381,1.638-1.381,3.228.209q5.108,5.11,10.215,10.221c1.478,1.483,1.443,2.411-.012,3.944-.718.757-2.054,1.378-1.985,2.3.058.779,1.252,1.484,1.964,2.2,2.91,2.922,2.914,2.919-.461,5.558-1.375-1.371-2.771-2.722-4.111-4.126-.5-.524-.82-.609-1.353-.027-.982,1.072-2.046,2.07-3.076,3.1-5.928,5.928-11.838,11.875-17.8,17.764-.809.8-.772,1.206.032,1.93,1.342,1.21,2.572,2.542,3.85,3.823a32.119,32.119,0,0,1-2.447,2.589c-.423.5-.7.3-1.053-.065-1.205-1.231-2.462-2.414-3.636-3.673-.529-.567-.867-.551-1.347.021-.452.54-.99,1.008-1.491,1.506-1.626,1.615-2.522,1.623-4.123.023Q162,301.971,150.3,290.234c-.83-.837-1.277-.9-2.119-.014-2.37,2.5-4.842,4.905-7.289,7.332-3.315,3.287-7.6,3.292-10.913-.018q-20.775-20.75-41.524-41.525c-5.323-5.335-5.286-12.809.027-18.174,2.114-2.135,4.3-4.2,6.349-6.4.849-.91,1.4-.923,2.09.043a2.521,2.521,0,0,0,.5.42,2.593,2.593,0,0,0,.419.5c.966.7.941,1.26.033,2.1-2.134,1.987-4.15,4.1-6.21,6.167-3.937,3.949-3.925,8.611.039,12.576q18.893,18.9,37.79,37.791c1.25,1.25,2.475,2.528,3.76,3.742a2.985,2.985,0,0,0,4.386,0c1.214-1.093,1.214-1.093.033-2.275-.406-.406-.806-.82-1.22-1.218-.269-.259-.329-.49-.03-.775.863-.82,1.6-2.008,2.616-2.353.688-.233,1.358,1.182,2.1,1.791a.571.571,0,0,1,.092.1c.386.52.727.466,1.162.005a31.852,31.852,0,0,1,2.822-2.8c.986-.815.779-1.318-.037-2.129q-17.152-17.075-34.247-34.207c-2.471-2.468-3.4-5.371-2.257-8.709a7.7,7.7,0,0,1,6.98-5.453c.889-.089,1.021-.461,1.119-1.2A7.889,7.889,0,0,1,124,228.295c.959-.116,1.2-.443,1.3-1.338a7.783,7.783,0,0,1,4.987-6.633,18.269,18.269,0,0,0,4.006-4.014,8.115,8.115,0,0,1,13.458-2.51q10.54,10.465,21.013,21c.335.335.689.65,1.223,1.153.282-2.756.483-5.294.831-7.813a2.22,2.22,0,0,0-.767-2.179Q157.353,213.9,144.712,201.8c-2.273-2.17-2.241-2.133-.088-4.441.69-.741,1.044-.552,1.652.038,3.108,3.017,6.257,5.991,9.389,8.983q8.006,7.649,16.021,15.287c.3.287.587,1.092,1.227.357a10.2,10.2,0,0,1,2.785-2.1,12.269,12.269,0,0,1-1.089-.849q-12.152-12.137-24.291-24.284c-4.083-4.081-8.682-4.078-12.769.009q-17.023,17.016-34.041,34.038c-1.59,1.589-1.59,1.589-3.229.078-1.364-1.51-1.363-1.509.146-3.017q17.163-17.162,34.321-34.33a12.723,12.723,0,0,1,8.666-4.024,12.5,12.5,0,0,1,9.719,4.026q13.623,13.669,27.282,27.3a6.086,6.086,0,0,0,1.809,1.286,7.084,7.084,0,0,1,3.6,3.559,6.733,6.733,0,0,0,1.455,2.012q3.668,3.648,7.315,7.316c3.227,3.264,3.223,7.54-.008,10.825-1.922,1.954-3.873,3.88-5.809,5.82a4.266,4.266,0,0,0,.009,5.122c2.024,2.039,4.017,4.113,6.113,6.076.878.823,1.192,1.417.043,2.182a2.265,2.265,0,0,0-.416.506m-7.329-31.966-.283.109c.087,1.483.18,2.965.259,4.449a1.121,1.121,0,0,0,.481.752c1.15,1.1,2.324,2.175,3.444,3.3.57.575.855.346,1.186-.221a3.022,3.022,0,0,0-.529-3.766c-1.5-1.564-3.036-3.085-4.557-4.625m.458,13.028c1.416-.843.7-1.288-.138-1.86,0,.467-.014.8,0,1.129a6.568,6.568,0,0,0,.134.731" transform="translate(10796 -9164.003)" fill="#040403"/>
      <path id="Trazado_605704" data-name="Trazado 605704" d="M101.02,229.648c1.639,1.51,1.639,1.51,3.228-.078q17.022-17.02,34.042-34.038c4.087-4.086,8.686-4.09,12.769-.008q12.146,12.139,24.291,24.284a12.271,12.271,0,0,0,1.089.849,10.2,10.2,0,0,0-2.785,2.1c-.639.735-.924-.07-1.227-.357q-8.029-7.622-16.021-15.286c-3.132-2.992-6.281-5.967-9.389-8.983-.608-.589-.962-.78-1.652-.038-2.153,2.308-2.186,2.271.088,4.441q12.663,12.084,25.335,24.159a2.222,2.222,0,0,1,.767,2.18c-.348,2.519-.549,5.057-.831,7.813-.535-.5-.889-.819-1.223-1.153q-10.505-10.5-21.014-21a8.115,8.115,0,0,0-13.458,2.51,18.287,18.287,0,0,1-4.006,4.014,7.783,7.783,0,0,0-4.987,6.633c-.1.895-.34,1.221-1.3,1.338a7.89,7.89,0,0,0-7.215,7.255c-.1.74-.229,1.112-1.118,1.2a7.7,7.7,0,0,0-6.98,5.453c-1.141,3.338-.214,6.241,2.257,8.709q17.121,17.1,34.247,34.206c.815.811,1.023,1.314.037,2.129a31.845,31.845,0,0,0-2.822,2.8c-.435.461-.775.515-1.162,0a.544.544,0,0,0-.092-.1c-.74-.609-1.411-2.024-2.1-1.791-1.021.346-1.753,1.533-2.616,2.354-.3.284-.24.516.03.775.414.4.813.812,1.22,1.218,1.181,1.182,1.181,1.182-.033,2.275a2.985,2.985,0,0,1-4.386,0c-1.285-1.214-2.51-2.491-3.76-3.742q-18.9-18.895-37.79-37.791c-3.964-3.965-3.977-8.627-.039-12.576,2.06-2.067,4.076-4.179,6.21-6.167.907-.844.933-1.406-.033-2.1a2.627,2.627,0,0,1-.42-.5,24.482,24.482,0,0,0,2.848-2.988m-3.863,16.431a11.25,11.25,0,0,1-.889,1.161c-1.917,1.942-1.924,1.934.017,3.874,2.428,2.427,2.428,2.427,4.716-.083a.749.749,0,0,1,.094-.093c.47-.36.4-.677-.007-1.067-1.082-1.043-2.13-2.119-3.2-3.178-.152-.153-.331-.278-.735-.613M110,258.93a7.616,7.616,0,0,0-.483-.612c-.46-.477-.936-.938-1.4-1.407-2.529-2.532-2.518-2.525-4.818.268-.329.4-.343.625.02.976q1.664,1.616,3.28,3.281c.356.366.62.386.977.008.667-.706,1.37-1.379,2.055-2.069.123-.124.226-.267.375-.445m8.521,8.462c-.224-.253-.387-.455-.57-.639-.966-.972-1.976-1.9-2.891-2.919-.561-.622-.889-.557-1.461.009-2.309,2.282-2.33,2.262-.051,4.539,2.031,2.03,2.032,2.032,4.057-.008.3-.306.588-.629.917-.981m5.727,11.533a12.031,12.031,0,0,1,.838-1.053c1.98-1.994,1.985-1.989.012-3.965-2.409-2.411-2.4-2.4-4.721.138-.416.455-.488.724-.017,1.17,1.089,1.032,2.131,2.115,3.2,3.171.152.15.338.266.689.538m11.222,5.464a4.906,4.906,0,0,0-.351-.451c-1.121-1.128-2.254-2.245-3.368-3.379-.307-.313-.516-.309-.88-.033-2.749,2.083-2.782,2.4-.365,4.816,2.049,2.047,2.05,2.048,4.148-.073.273-.277.53-.57.816-.879" transform="translate(10795.259 -9164.737)" fill="#4cb4e2"/>
      <path id="Trazado_605705" data-name="Trazado 605705" d="M205.1,330.55c-1.278-1.281-2.508-2.614-3.85-3.823-.8-.724-.84-1.132-.031-1.93,5.966-5.889,11.876-11.835,17.8-17.764,1.029-1.03,2.094-2.027,3.076-3.1.533-.581.851-.5,1.353.027,1.341,1.4,2.736,2.754,4.111,4.126L205.1,330.55" transform="translate(10778.713 -9181.269)" fill="#fbc7a1"/>
      <path id="Trazado_605706" data-name="Trazado 605706" d="M217.021,187.522c1.237,0,2.473.028,3.709-.012.632-.02.981.066.922.836-.084,1.09.334,2.477-.194,3.2-.5.689-1.976.212-3.021.254a121.568,121.568,0,0,0-37.41,7.122c-.861.317-1.2.18-1.512-.682-1.114-3.035-1.135-2.989,2.1-4.082a131.459,131.459,0,0,1,35.408-6.639" transform="translate(10781.957 -9164)" fill="#040404"/>
      <path id="Trazado_605707" data-name="Trazado 605707" d="M85.379,311.018a119.673,119.673,0,0,1,4.148-20.824c.775-2.618,1.7-5.192,2.53-7.794.217-.682.427-1,1.268-.693,3.078,1.12,3.062,1.073,2,4.2a115.81,115.81,0,0,0-5.64,25.122c-.09.844-.294,1.184-1.207.962a17.223,17.223,0,0,0-2.238-.239c-.561-.06-1.174-.1-.857-.739" transform="translate(10795.88 -9178.003)" fill="#050505"/>
      <path id="Trazado_605708" data-name="Trazado 605708" d="M114.434,326.02a104.432,104.432,0,0,1,2.931-21.062c.181-.738.422-.841,1.158-.649,3.173.826,3.174.791,2.45,3.969a92.9,92.9,0,0,0-2.268,22.592c.021,1.064-.183,1.417-1.33,1.381-2.942-.091-2.944-.027-2.942-2.921q0-1.656,0-3.311" transform="translate(10791.542 -9181.372)" fill="#040404"/>
      <path id="Trazado_605709" data-name="Trazado 605709" d="M225.382,220.669c.008,2.04.008,2.059-2.06,2.114a92.825,92.825,0,0,0-17.841,2.107c-.708.158-.9-.012-1.066-.674-.836-3.415-.842-3.348,2.7-4.01a104.318,104.318,0,0,1,16.569-1.683c1.929-.049,1.65-.352,1.694,1.616,0,.176,0,.353,0,.529" transform="translate(10778.218 -9168.609)" fill="#050505"/>
      <path id="Trazado_605710" data-name="Trazado 605710" d="M84.515,328.036c.071-1.437.192-3.332.245-5.229.018-.639.2-.9.846-.752a3.953,3.953,0,0,0,.66.048c2.873.155,2.868.154,2.647,2.973-.228,2.91-.163,5.827-.128,8.741.01.888-.256,1.076-1.1,1.072-3.173-.018-3.173.014-3.173-3.211v-3.641" transform="translate(10795.996 -9184.02)" fill="#030303"/>
      <path id="Trazado_605711" data-name="Trazado 605711" d="M205.1,239.315c1.521,1.54,3.062,3.061,4.558,4.624a3.023,3.023,0,0,1,.529,3.766c-.33.567-.615.8-1.186.221-1.121-1.129-2.294-2.2-3.444-3.3a1.122,1.122,0,0,1-.482-.752c-.079-1.483-.171-2.965-.259-4.448l.283-.109" transform="translate(10778.091 -9171.711)" fill="#4bb1de"/>
      <path id="Trazado_605712" data-name="Trazado 605712" d="M205.661,254.3a6.567,6.567,0,0,1-.134-.731c-.018-.33,0-.661,0-1.129.841.572,1.554,1.017.138,1.86" transform="translate(10777.985 -9173.663)" fill="#4098be"/>
      <path id="Trazado_605713" data-name="Trazado 605713" d="M98.092,255.453c.4.335.583.461.736.613,1.066,1.059,2.113,2.136,3.2,3.178.406.391.477.708.007,1.067a.814.814,0,0,0-.094.094c-2.289,2.509-2.289,2.509-4.715.083-1.942-1.94-1.935-1.933-.018-3.875a11.248,11.248,0,0,0,.889-1.161" transform="translate(10794.321 -9174.112)" fill="#020607"/>
      <path id="Trazado_605714" data-name="Trazado 605714" d="M112.376,269.874c-.149.178-.252.321-.375.445-.684.69-1.387,1.363-2.055,2.069-.357.379-.621.358-.977-.008q-1.615-1.665-3.28-3.281c-.363-.352-.348-.577-.02-.976,2.3-2.792,2.29-2.8,4.818-.268.468.469.945.93,1.4,1.407a7.607,7.607,0,0,1,.483.612" transform="translate(10792.885 -9175.682)" fill="#020607"/>
      <path id="Trazado_605715" data-name="Trazado 605715" d="M122.438,279.795c-.329.353-.614.677-.917.982-2.026,2.039-2.027,2.038-4.057.008-2.279-2.279-2.258-2.257.051-4.539.572-.565.9-.631,1.461-.009.915,1.016,1.925,1.948,2.891,2.92.182.184.346.387.57.639" transform="translate(10791.344 -9177.141)" fill="#020607"/>
      <path id="Trazado_605716" data-name="Trazado 605716" d="M129.6,292.854c-.352-.272-.538-.387-.689-.538-1.067-1.056-2.109-2.138-3.2-3.171-.471-.446-.4-.716.016-1.169,2.327-2.537,2.313-2.55,4.721-.139,1.973,1.976,1.969,1.97-.012,3.965a12.171,12.171,0,0,0-.838,1.053" transform="translate(10789.913 -9178.667)" fill="#020607"/>
      <path id="Trazado_605717" data-name="Trazado 605717" d="M142.341,299.753c-.286.309-.543.6-.816.879-2.1,2.121-2.1,2.12-4.148.073-2.417-2.416-2.384-2.733.365-4.816.364-.276.573-.28.88.033,1.114,1.135,2.247,2.251,3.368,3.379a4.9,4.9,0,0,1,.351.451" transform="translate(10788.39 -9180.101)" fill="#020607"/>
    </g>
  </g>
</svg>
