<svg xmlns="http://www.w3.org/2000/svg" width="85" height="85" viewBox="0 0 85 85">
  <g id="Grupo_1070811" data-name="Grupo 1070811" transform="translate(-285.168 -4258.127)">
    <circle id="Elipse_5685" data-name="Elipse 5685" cx="42.5" cy="42.5" r="42.5" transform="translate(285.168 4258.127)" fill="#dbf9bd"/>
    <g id="Grupo_1070758" data-name="Grupo 1070758" transform="translate(-22010.848 10954.98)">
      <path id="Trazado_606739" data-name="Trazado 606739" d="M181.693,358.348a1.113,1.113,0,0,1-1.022.454q-13.947-.016-27.893-.008c-.793,0-1.006-.21-1.006-.992,0-.979-.008-1.958.006-2.937,0-.254-.033-.355-.328-.355-1.1,0-1.1-.014-1.1,1.089,0,.772,0,1.543,0,2.314,0,.522-.223.826-.628.876s-.672-.19-.81-.705q.007-2.091.014-4.183c0-.563.246-.8.812-.806,1.216,0,2.433.023,3.649-.012a4.27,4.27,0,0,0,4.083-4.139.731.731,0,0,0-.67-.835.723.723,0,0,0-.75.757,2.854,2.854,0,0,1-3,2.8c-1.854,0-3.708,0-5.562-.009a.843.843,0,0,0-.693.293c-.49.535-.694.6-1.3.207a1.312,1.312,0,0,0-1.685.01.284.284,0,0,1-.039.022c-.579.307-.8.285-1.232-.206a.891.891,0,0,0-.77-.324c-.726.024-1.454-.007-2.18.012a2.109,2.109,0,0,0-2.058,2.049c-.021,1.453,0,2.908.006,4.361-.14.516-.414.755-.811.705s-.626-.353-.627-.877c0-1.38-.008-2.76,0-4.141a3.566,3.566,0,0,1,3.513-3.527c.578-.006,1.157.012,1.735-.01.145-.005.417.147.432-.122s.153-.568-.2-.785a5.431,5.431,0,0,1-1.745-1.748,5.855,5.855,0,0,1-.887-3.474c.008-.208-.017-.417.006-.623a.343.343,0,0,0-.287-.43.62.62,0,0,1-.431-.608,6.1,6.1,0,0,1,4.649-6.288c.145-.035.329,0,.429-.166h1.781c.014.072.066.08.128.089a6.007,6.007,0,0,1,5.047,5.038,28.693,28.693,0,0,1,.075,3.468,5.634,5.634,0,0,1-2.551,4.682c-.382.235-.328.544-.278.836.047.272.342.131.518.133,1.1.015,2.2-.011,3.294.018.375.01.455-.091.454-.458-.014-4.261,0-8.521-.017-12.782a1.1,1.1,0,0,1,.454-1.023q14.56,0,29.119-.008c.3,0,.365.06.365.365q-.017,11-.008,22M148.21,342.493a1.318,1.318,0,0,0-1.52-.411c-.281.09-.558.2-.832.308a11.9,11.9,0,0,1-4.142.915c-.444.011-1.059-.228-1.289.1-.216.309-.062.888-.044,1.348a4.245,4.245,0,0,0,6.4,3.442,1.674,1.674,0,0,0,.623-.407,4.523,4.523,0,0,0,1.531-3.625,1.8,1.8,0,0,0-.731-1.672m18.511,14.874c4.348,0,8.7,0,13.045.008.382,0,.515-.064.514-.49q-.024-9.486,0-18.973c0-.391-.078-.51-.5-.509q-13.045.021-26.09.01a1.724,1.724,0,0,1-.222,0c-.211-.028-.287.051-.277.269.017.355,0,.712,0,1.069,0,3.711,0,7.422-.007,11.134,0,.342.091.4.4.3a1.453,1.453,0,0,0,1.03-1.4,2.138,2.138,0,1,1,4.275.116,5.712,5.712,0,0,1-5.323,5.6c-.3.02-.4.091-.384.4.027.682.033,1.367,0,2.048-.019.368.113.426.444.425q6.545-.016,13.089-.007m-25.462-15.492a9.027,9.027,0,0,0,2.468-.277,7.116,7.116,0,0,0,2.513-.952c.488-.362.633-1.175.961-1.771.141-.256.081-.382-.138-.537a4.482,4.482,0,0,0-4.589-.539,4.533,4.533,0,0,0-2.786,3.7c-.034.216.029.272.239.3a10.448,10.448,0,0,0,1.332.076m7.552-.757a3.738,3.738,0,0,0-.462-1.281c-.48.719-.48.719.216,1.133l.246.149m-4.409,9.144-.979-.169c-.081-.014-.2-.066-.194.075,0,.184-.089.4.069.548s.268-.032.388-.085c.225-.1.44-.225.715-.369m.467-.008c.358.183.635.317.9.465.131.073.252.062.281-.074a.918.918,0,0,0-.007-.52c-.063-.144-.23.006-.351.017-.245.021-.488.064-.826.111" transform="translate(22179.383 -7013)" fill="#010101"/>
      <path id="Trazado_606740" data-name="Trazado 606740" d="M229.184,418.973a.976.976,0,0,1-.929.454c-4.14-.014-8.28-.008-12.42-.009-.684,0-.913-.216-.9-.9a14.026,14.026,0,0,1,.076-2.574,2.813,2.813,0,0,1,2.744-2.227c.4,0,.8-.01,1.2,0,.19.006.262-.045.253-.246-.016-.341-.015-.683,0-1.024a.359.359,0,0,0-.208-.347,5.714,5.714,0,0,1-2.65-5.128c.019-1.054,0-2.108,0-3.162a5,5,0,0,1,5.038-5.062q1.691-.005,3.383,0c.6,0,.835.236.84.824,0,.089.006.179,0,.267-.059.68-.012,1.184.8,1.534a2.384,2.384,0,0,1,1.331,2.348,36.978,36.978,0,0,1-.07,4.4A5.166,5.166,0,0,1,225.5,411.8a1.259,1.259,0,0,0-.6,1.271c.043.64.013.682.659.634a3.131,3.131,0,0,1,3.625,2.324Zm-10.107-8.791c-.038,0-.1-.025-.109-.01-.032.047.01.07.052.083a3.505,3.505,0,0,0,1.44,1,4.142,4.142,0,0,0,4.63-1.008c.043-.006.083-.019.053-.07-.005-.009-.066.016-.1.025a6.871,6.871,0,0,1-5.965-.018m4.405-9.991c-.7,0-1.392-.017-2.088-.013a3.564,3.564,0,0,0-3.607,3.611c-.006,1.008,0,2.016-.005,3.024a.891.891,0,0,0,.188.572,4.841,4.841,0,0,0,3.864,2.045,4.667,4.667,0,0,0,3.8-1.484,1.678,1.678,0,0,0,.715-1.519c-.054-.826-.012-1.657-.013-2.487a1.444,1.444,0,0,0-1.475-1.626.677.677,0,0,1-.66-.7c-.012-.3,0-.592,0-.888,0-.565,0-.565-.582-.552-.045,0-.089.008-.133.012m-1.446,17.8v0c1.78,0,3.561-.009,5.341.008.322,0,.407-.094.384-.4-.027-.354,0-.712-.01-1.068a1.407,1.407,0,0,0-1.4-1.383q-4.295-.016-8.589,0a1.4,1.4,0,0,0-1.393,1.39c-.012.356.018.714-.009,1.068-.024.308.067.4.386.4,1.765-.016,3.53-.008,5.3-.008m0-4.274h.888c.587,0,.579,0,.568-.6,0-.218-.016-.313-.289-.248a5.4,5.4,0,0,1-2.246.021c-.132-.024-.375-.176-.314.135.047.233-.28.641.24.686.382.033.768.007,1.153.007" transform="translate(22131.893 -7050.82)" fill="#010101"/>
      <path id="Trazado_606741" data-name="Trazado 606741" d="M182.644,418.368h-6.232c-.675,0-.89-.22-.89-.908,0-.653,0-1.306,0-1.959a2.848,2.848,0,0,1,2.832-2.834c.386,0,.774-.025,1.157.007.357.03.27-.2.289-.391.021-.221,0-.341-.285-.336-1.053.019-2.107.009-3.16.007-.593,0-.832-.239-.832-.832,0-2.39-.022-4.78.005-7.169a7.12,7.12,0,0,1,14.171-.8,20.03,20.03,0,0,1,.069,2.489c.011,1.826,0,3.651,0,5.477,0,.591-.241.829-.834.83-1.039,0-2.078.011-3.116-.006-.272,0-.356.057-.333.338.019.241,0,.4.341.393a6.756,6.756,0,0,1,1.642.045,2.84,2.84,0,0,1,2.3,2.825c0,.653,0,1.306,0,1.959,0,.625-.232.86-.849.86q-3.138,0-6.277,0m4.988-7.854a3.915,3.915,0,0,1,.4.017c.255.035.321-.07.32-.319-.011-2.108.048-4.218-.026-6.323a5.684,5.684,0,0,0-11.355-.024c-.085,2.117-.018,4.24-.027,6.36,0,.217.036.31.286.309q5.2-.02,10.4-.02m-4.98,6.428c1.437,0,2.875,0,4.312,0,.442,0,1.037.146,1.285-.079.285-.259.089-.864.086-1.317a1.446,1.446,0,0,0-1.469-1.459,8.014,8.014,0,0,0-3.85.639.892.892,0,0,1-.77-.011,7.984,7.984,0,0,0-3.9-.625,1.439,1.439,0,0,0-1.4,1.389c-.014.37.018.743-.01,1.111-.023.307.1.361.376.36,1.778-.011,3.556-.006,5.335-.006m.018-4.988c-.356,0-.713-.013-1.068.007-.13.008-.4-.13-.37.138s-.219.666.186.821a2.484,2.484,0,0,0,2.087.157c.431-.2.624-.365.579-.842-.023-.241-.083-.294-.3-.286-.37.014-.742,0-1.113,0" transform="translate(22155.633 -7049.77)" fill="#010101"/>
      <path id="Trazado_606742" data-name="Trazado 606742" d="M143.226,419.42q-3.138,0-6.276,0c-.618,0-.848-.234-.849-.859,0-.668,0-1.336,0-2a2.848,2.848,0,0,1,2.827-2.838c.4,0,.8-.011,1.2,0,.2.007.258-.056.249-.251-.015-.326-.014-.653,0-.979a.4.4,0,0,0-.209-.391,5.669,5.669,0,0,1-2.643-5.127,27.464,27.464,0,0,1,.087-3.511,5.689,5.689,0,0,1,11.215.041,19.03,19.03,0,0,1,.013,4.617,5.375,5.375,0,0,1-2.485,3.929.523.523,0,0,0-.287.528c.029.366-.111.851.074,1.07s.7.087,1.061.063a2.886,2.886,0,0,1,3.111,2.444,6.827,6.827,0,0,1,.032.977c0,.475,0,.95,0,1.425,0,.626-.232.862-.847.862q-3.138,0-6.276,0m2.982-9.234-.663.3a6.957,6.957,0,0,1-5.3-.3c-.038,0-.1-.025-.109-.01-.033.047.01.07.052.082a1.379,1.379,0,0,0,.439.425,4.108,4.108,0,0,0,4.74.279,2.233,2.233,0,0,0,.9-.7c.042-.014.082-.038.049-.083-.011-.015-.07.007-.108.012m2,7.793c.714.037.714.037.714-.684,0-.264.009-.529,0-.793a1.342,1.342,0,0,0-1.063-1.278.4.4,0,0,0-.293-.079c-2.892,0-5.785-.008-8.677,0a1.385,1.385,0,0,0-1.355,1.333c-.021.415.007.831-.011,1.246-.009.22.068.27.277.27q5.206-.016,10.412-.019M145.364,400.8a4.229,4.229,0,0,0-6.327,2.863,24.544,24.544,0,0,0-.086,3.329.57.57,0,0,0,.159.356,4.794,4.794,0,0,0,3.754,2.08,4.688,4.688,0,0,0,3.933-1.48c.307-.258.676-.543.682-.94a16.335,16.335,0,0,0-.075-3.363,3.906,3.906,0,0,0-2.04-2.846m-.766,12.026a5.6,5.6,0,0,1-2.8-.006,3.365,3.365,0,0,1,0,.5c-.054.342.085.423.411.407.561-.028,1.125-.008,1.688-.008.831,0,.831,0,.738-.841,0-.013-.014-.024-.032-.053" transform="translate(22179.381 -7050.822)" fill="#020202"/>
      <path id="Trazado_606743" data-name="Trazado 606743" d="M139.7,376.463c0-1.454-.027-2.908-.006-4.362a2.108,2.108,0,0,1,2.057-2.049c.727-.019,1.454.012,2.18-.013a.893.893,0,0,1,.77.324c.437.492.653.514,1.232.207a.3.3,0,0,0,.039-.022,1.311,1.311,0,0,1,1.685-.01c.6.389.806.328,1.3-.207a.844.844,0,0,1,.693-.293c1.854.014,3.708.01,5.562.009a2.853,2.853,0,0,0,3-2.8.723.723,0,0,1,.75-.757.731.731,0,0,1,.67.835,4.27,4.27,0,0,1-4.083,4.139c-1.215.035-2.433.008-3.649.012-.566,0-.81.244-.812.806q-.01,2.092-.014,4.183h-8.521q-.007-1.686-.014-3.372c0-.57-.248-.889-.69-.9-.459-.015-.731.318-.734.9q-.008,1.686-.014,3.372h-1.4" transform="translate(22177.219 -7031.38)" fill="#e4e7eb"/>
      <path id="Trazado_606744" data-name="Trazado 606744" d="M143.238,385.1q.007-1.686.014-3.372c0-.585.275-.918.734-.9.442.014.688.333.691.9q.008,1.686.014,3.372c-.072.425-.293.714-.748.7-.432-.011-.64-.3-.7-.7" transform="translate(22175.078 -7040.022)" fill="#020202"/>
      <path id="Trazado_606745" data-name="Trazado 606745" d="M192.626,359.526q-6.545,0-13.089.007c-.33,0-.462-.056-.444-.424.034-.681.028-1.366,0-2.048-.012-.311.079-.382.384-.4a5.712,5.712,0,0,0,5.324-5.6,2.138,2.138,0,1,0-4.275-.116,1.453,1.453,0,0,1-1.03,1.4c-.31.1-.4.044-.4-.3.011-3.711.007-7.423.007-11.134,0-.356.012-.713,0-1.068-.01-.218.066-.3.277-.27a1.65,1.65,0,0,0,.222,0q13.045,0,26.09-.01c.417,0,.5.118.495.509q-.018,9.486,0,18.973c0,.426-.131.492-.514.49-4.348-.013-8.7-.008-13.045-.008m5.043-2.85q1.336,0,2.671,0c.615,0,.845-.238.846-.865,0-1.262.009-2.524-.006-3.786,0-.274.065-.352.343-.345.8.02,1.6.012,2.4.005a.725.725,0,0,0,.82-.822c.007-.891.008-1.782,0-2.672a.7.7,0,0,0-.773-.777c-2.33-.006-4.66,0-6.99,0a.72.72,0,0,0-.716.427,1.427,1.427,0,0,0-.061.7c.009.228-.056.287-.293.305a3.8,3.8,0,0,1-2.914-.757,2.21,2.21,0,0,0-.645-.388,1.608,1.608,0,0,1-1.142-2.044.4.4,0,0,0,0-.133c-.027-.194.051-.26.248-.253.386.014.772.007,1.157,0A2.137,2.137,0,1,0,192.6,341q-2.115-.008-4.23,0a2.137,2.137,0,1,0-.022,4.274c.371,0,.743.015,1.113,0,.242-.012.343.049.328.313a8.886,8.886,0,0,0,0,1.113.464.464,0,0,1-.284.485c-.933.546-1.858,1.107-2.783,1.667-.677.41-.678,1,0,1.409.924.561,1.855,1.113,2.78,1.673.107.064.274.087.273.256,0,.531-.015,1.063-.024,1.594a6.4,6.4,0,0,1-1.186.046c-.045,0-.089,0-.134,0a2.139,2.139,0,1,0-.014,4.275q2.071.005,4.141,0a2.067,2.067,0,0,0,1.954-1.159.447.447,0,0,1,.48-.27c.89.011,1.781,0,2.671,0" transform="translate(22153.479 -7015.158)" fill="#cbd0d8"/>
      <path id="Trazado_606746" data-name="Trazado 606746" d="M153.178,357.316a4.245,4.245,0,0,1-6.4-3.442c-.019-.46-.173-1.039.044-1.348.231-.33.845-.09,1.289-.1a11.9,11.9,0,0,0,4.143-.915c.274-.11.551-.217.832-.308a1.317,1.317,0,0,1,1.52.411c0,.577-.008,1.154,0,1.731a4.877,4.877,0,0,1-1.248,3.576.6.6,0,0,0-.177.4" transform="translate(22172.992 -7022.12)" fill="#e8c4b9"/>
      <path id="Trazado_606747" data-name="Trazado 606747" d="M146.691,344.026a10.448,10.448,0,0,1-1.332-.076c-.209-.033-.273-.089-.239-.3a4.533,4.533,0,0,1,2.785-3.7,4.48,4.48,0,0,1,4.589.539c.219.155.279.281.138.537-.328.6-.473,1.409-.961,1.771a7.116,7.116,0,0,1-2.514.952,9.006,9.006,0,0,1-2.468.277" transform="translate(22173.949 -7015.151)" fill="#fecd54"/>
      <path id="Trazado_606748" data-name="Trazado 606748" d="M162.993,358.069a.6.6,0,0,1,.177-.4,4.877,4.877,0,0,0,1.248-3.576c-.011-.577,0-1.154,0-1.731a1.8,1.8,0,0,1,.732,1.672,4.523,4.523,0,0,1-1.531,3.625,1.668,1.668,0,0,1-.622.407" transform="translate(22163.176 -7022.873)" fill="#cfada6"/>
      <path id="Trazado_606749" data-name="Trazado 606749" d="M166.872,346.964l-.246-.149c-.7-.414-.7-.414-.216-1.133a3.73,3.73,0,0,1,.462,1.281" transform="translate(22161.322 -7018.846)" fill="#f3b941"/>
      <path id="Trazado_606750" data-name="Trazado 606750" d="M155.178,371.625c-.275.144-.489.27-.715.369-.12.053-.24.228-.388.085s-.066-.364-.069-.548c0-.141.112-.089.194-.076l.979.169" transform="translate(22168.605 -7034.363)" fill="#e4e7eb"/>
      <path id="Trazado_606751" data-name="Trazado 606751" d="M158.167,371.6c.338-.047.581-.09.826-.111.121-.011.288-.161.351-.017a.918.918,0,0,1,.007.52c-.029.136-.149.147-.281.074-.268-.148-.545-.282-.9-.465" transform="translate(22166.084 -7034.349)" fill="#e4e7eb"/>
      <path id="Trazado_606752" data-name="Trazado 606752" d="M229.976,410.111a4.668,4.668,0,0,1-3.8,1.484,4.839,4.839,0,0,1-3.863-2.045.888.888,0,0,1-.188-.572c.009-1.008,0-2.016.005-3.024a3.563,3.563,0,0,1,3.606-3.61c.7,0,1.392.008,2.089.012,0,.475,0,.95,0,1.425a1.406,1.406,0,0,0,1.325,1.41c.611.049.808.257.81.866q.007,2.027.01,4.053" transform="translate(22127.549 -7052.985)" fill="#955252"/>
      <path id="Trazado_606753" data-name="Trazado 606753" d="M224.211,442.836c-1.765,0-3.531-.009-5.3.008-.319,0-.41-.088-.386-.4.027-.354,0-.712.009-1.068a1.4,1.4,0,0,1,1.393-1.39q4.295-.015,8.589,0a1.407,1.407,0,0,1,1.4,1.382c.015.356-.017.714.01,1.068.023.3-.062.4-.384.4-1.78-.017-3.56-.008-5.34-.008Z" transform="translate(22129.717 -7075.664)" fill="#5d9beb"/>
      <path id="Trazado_606754" data-name="Trazado 606754" d="M238.615,410.108q0-2.027-.01-4.053c0-.609-.2-.818-.81-.867a1.406,1.406,0,0,1-1.325-1.41c-.008-.475,0-.95,0-1.425.044,0,.088-.011.132-.012.582-.014.582-.013.582.551,0,.3-.009.593,0,.888a.676.676,0,0,0,.66.7,1.444,1.444,0,0,1,1.474,1.626c0,.829-.041,1.661.013,2.487a1.677,1.677,0,0,1-.715,1.519" transform="translate(22118.908 -7052.981)" fill="#834646"/>
      <path id="Trazado_606755" data-name="Trazado 606755" d="M231.31,427.575a4.142,4.142,0,0,1-4.63,1.008,3.508,3.508,0,0,1-1.44-1l.057-.072a6.871,6.871,0,0,0,5.965.017c.016.016.032.031.048.045" transform="translate(22125.672 -7068.15)" fill="#e8c4b9"/>
      <path id="Trazado_606756" data-name="Trazado 606756" d="M230.63,435.066c-.385,0-.771.027-1.153-.006-.52-.045-.194-.453-.24-.686-.062-.311.182-.159.314-.135a5.407,5.407,0,0,0,2.246-.021c.273-.065.286.03.289.248.01.6.018.6-.568.6h-.888" transform="translate(22123.299 -7072.167)" fill="#5d9beb"/>
      <path id="Trazado_606757" data-name="Trazado 606757" d="M225.143,427.561c-.043-.013-.085-.036-.052-.082.01-.015.071.006.109.01l-.057.072" transform="translate(22125.768 -7068.127)" fill="#e8c4b9"/>
      <path id="Trazado_606758" data-name="Trazado 606758" d="M240.39,427.515c.035-.009.1-.034.1-.025.031.051-.01.064-.053.07-.017-.014-.033-.029-.048-.045" transform="translate(22116.545 -7068.136)" fill="#e8c4b9"/>
      <path id="Trazado_606759" data-name="Trazado 606759" d="M189.772,412.651q-5.2.007-10.4.02c-.249,0-.287-.092-.286-.309.008-2.12-.058-4.243.027-6.359a5.671,5.671,0,0,1,8.718-4.508c-.036.2.118.289.224.407a6.417,6.417,0,0,1,1.72,4.387c.006,2.121,0,4.241,0,6.361" transform="translate(22153.492 -7051.907)" fill="#fecd54"/>
      <path id="Trazado_606760" data-name="Trazado 606760" d="M184.81,442.8c-1.778,0-3.556-.006-5.335.006-.277,0-.4-.053-.376-.36.028-.368,0-.741.01-1.111a1.439,1.439,0,0,1,1.4-1.389,7.984,7.984,0,0,1,3.9.625.893.893,0,0,0,.77.011,8.009,8.009,0,0,1,3.85-.639,1.446,1.446,0,0,1,1.468,1.459c0,.454.2,1.058-.086,1.317-.248.225-.843.078-1.285.079-1.437,0-2.875,0-4.312,0" transform="translate(22153.475 -7075.625)" fill="#48ceac"/>
      <path id="Trazado_606761" data-name="Trazado 606761" d="M203.045,414.078c0-2.121.006-4.241,0-6.361a6.417,6.417,0,0,0-1.72-4.387c-.106-.119-.26-.211-.224-.407a5.356,5.356,0,0,1,2.637,4.531c.074,2.105.016,4.215.026,6.323,0,.249-.065.354-.32.319-.132-.018-.266-.012-.4-.017" transform="translate(22140.219 -7053.334)" fill="#f3b941"/>
      <path id="Trazado_606762" data-name="Trazado 606762" d="M191.263,434.579c.371,0,.742.01,1.113,0,.219-.008.28.044.3.286.045.477-.148.642-.579.842a2.484,2.484,0,0,1-2.087-.157c-.406-.155-.159-.545-.186-.821s.24-.131.37-.138c.355-.021.711-.007,1.068-.007" transform="translate(22147.039 -7072.396)" fill="#e8c4b9"/>
      <path id="Trazado_606763" data-name="Trazado 606763" d="M151.1,410.1a4.688,4.688,0,0,1-3.933,1.48,4.8,4.8,0,0,1-3.754-2.081.571.571,0,0,1-.159-.356,24.539,24.539,0,0,1,.086-3.328,4.229,4.229,0,0,1,6.326-2.863.877.877,0,0,0,.276.494,4.827,4.827,0,0,1,1.146,3.183c.01,1.157.008,2.315.012,3.472" transform="translate(22175.08 -7052.973)" fill="#646c77"/>
      <path id="Trazado_606764" data-name="Trazado 606764" d="M150.366,442.825q-5.206.007-10.412.019c-.208,0-.286-.049-.277-.269.017-.415-.01-.832.01-1.246A1.386,1.386,0,0,1,141.042,440c2.892-.012,5.785-.005,8.677,0a.4.4,0,0,1,.293.078c-.05.23.133.382.2.568a7.13,7.13,0,0,1,.148,2.187" transform="translate(22177.225 -7075.667)" fill="#e4e7eb"/>
      <path id="Trazado_606765" data-name="Trazado 606765" d="M160.841,411.047c0-1.157,0-2.315-.012-3.472a4.827,4.827,0,0,0-1.146-3.183.877.877,0,0,1-.276-.494,3.9,3.9,0,0,1,2.04,2.846,16.333,16.333,0,0,1,.075,3.363c-.006.4-.375.681-.682.94" transform="translate(22165.336 -7053.923)" fill="#535b64"/>
      <path id="Trazado_606766" data-name="Trazado 606766" d="M151.558,428.289a4.109,4.109,0,0,1-4.74-.279,1.375,1.375,0,0,1-.439-.425l.057-.072a6.956,6.956,0,0,0,5.3.3l-.181.475" transform="translate(22173.188 -7068.15)" fill="#e8c4b9"/>
      <path id="Trazado_606767" data-name="Trazado 606767" d="M153.214,434.144c.018.029.031.041.032.053.093.841.093.841-.738.841-.563,0-1.127-.021-1.688.008-.326.017-.465-.064-.411-.407a3.366,3.366,0,0,0,0-.5,5.6,5.6,0,0,0,2.8.006" transform="translate(22170.766 -7072.143)" fill="#e4e7eb"/>
      <path id="Trazado_606768" data-name="Trazado 606768" d="M166.021,442.948a7.131,7.131,0,0,0-.148-2.187c-.072-.186-.254-.338-.2-.568a1.343,1.343,0,0,1,1.063,1.279c.013.264,0,.528,0,.793,0,.721,0,.721-.714.684" transform="translate(22161.57 -7075.791)" fill="#cbd0d8"/>
      <path id="Trazado_606769" data-name="Trazado 606769" d="M159.408,428.292l.181-.475.663-.3.058.072a2.232,2.232,0,0,1-.9.7" transform="translate(22165.336 -7068.153)" fill="#cfada6"/>
      <path id="Trazado_606770" data-name="Trazado 606770" d="M146.282,427.561c-.043-.013-.085-.036-.052-.082.01-.015.071.006.109.01l-.057.072" transform="translate(22173.283 -7068.127)" fill="#e8c4b9"/>
      <path id="Trazado_606771" data-name="Trazado 606771" d="M161.532,427.492c.037,0,.1-.026.108-.012.033.045-.008.07-.05.083l-.058-.072" transform="translate(22164.059 -7068.127)" fill="#cfada6"/>
      <path id="Trazado_606772" data-name="Trazado 606772" d="M208.473,358.847c-.891,0-1.781.006-2.671,0a.448.448,0,0,0-.48.269,2.068,2.068,0,0,1-1.954,1.159q-2.07,0-4.141,0a2.139,2.139,0,1,1,.014-4.275c.045,0,.089,0,.134,0a6.361,6.361,0,0,0,1.186-.045c.009-.531.021-1.062.024-1.594,0-.169-.167-.192-.273-.257-.925-.56-1.855-1.112-2.78-1.673-.68-.413-.679-1,0-1.409.925-.56,1.85-1.121,2.783-1.667a.464.464,0,0,0,.284-.485,8.88,8.88,0,0,1,0-1.113c.016-.264-.085-.325-.327-.313-.37.018-.742.009-1.113,0a2.137,2.137,0,1,1,.022-4.274q2.115-.01,4.23,0a2.137,2.137,0,1,1,.013,4.275c-.386,0-.772.01-1.157,0-.2-.007-.274.059-.248.252a.407.407,0,0,1,0,.134,1.608,1.608,0,0,0,1.142,2.044,2.2,2.2,0,0,1,.646.388,3.8,3.8,0,0,0,2.914.758c.236-.018.3-.077.293-.305a1.422,1.422,0,0,1,.061-.7.72.72,0,0,1,.716-.428c2.33,0,4.66,0,6.99,0a.7.7,0,0,1,.774.777c.01.89.008,1.781,0,2.672a.725.725,0,0,1-.82.822c-.8.007-1.6.015-2.4-.006-.277-.007-.346.071-.342.345.015,1.262.008,2.524.006,3.786,0,.627-.231.863-.846.865q-1.336,0-2.671,0m-.49-1.426c.757,0,1.514-.011,2.27.006.256.006.321-.075.317-.323-.014-.98-.015-1.96,0-2.939,0-.265-.089-.316-.329-.312-.8.014-1.6,0-2.4.007a.765.765,0,0,1-.747-.382,1.193,1.193,0,0,1-.083-.7c.016-.255-.041-.335-.328-.362a3.822,3.822,0,0,0-2.908.783,2.109,2.109,0,0,1-.609.364,1.658,1.658,0,0,0-1.16,2.087c.041.246.049.374.341.349.339-.029.682-.007,1.023-.007a2.065,2.065,0,0,1,1.953,1.159.446.446,0,0,0,.479.271c.727-.012,1.454,0,2.182,0m3.257-4.988h1.824c1.078,0,1.065,0,1.072-1.076,0-.305-.1-.358-.374-.356-1.423.013-2.847.006-4.27.006-1.078,0-1.065,0-1.072,1.076,0,.305.1.362.374.356.815-.017,1.631-.006,2.446-.006m-9.938-7.839c-.666,0-1.332,0-2,0-.527,0-.841.267-.848.7s.309.721.824.723q2.02.007,4.04,0c.513,0,.836-.291.828-.721s-.325-.7-.849-.7c-.666,0-1.332,0-2,0m-.006,14.253c.68,0,1.361.005,2.042,0a.725.725,0,0,0,.81-.7c.011-.431-.311-.725-.822-.726q-2.019-.007-4.04,0c-.52,0-.834.281-.831.715s.318.7.842.707c.666.005,1.332,0,2,0m-2.167-7.125c.708.425,1.343.8,1.977,1.187.091.055.186.116.289.056.68-.4,1.357-.809,2.083-1.243-.7-.418-1.32-.789-1.939-1.166a.35.35,0,0,0-.409-.041c-.642.393-1.288.778-2,1.208" transform="translate(22142.672 -7017.329)" fill="#010101"/>
      <path id="Trazado_606773" data-name="Trazado 606773" d="M215.471,371.413c-.727,0-1.455-.008-2.182,0a.446.446,0,0,1-.479-.271,2.064,2.064,0,0,0-1.953-1.159c-.341,0-.684-.022-1.024.007-.292.025-.3-.1-.341-.349a1.658,1.658,0,0,1,1.16-2.086,2.126,2.126,0,0,0,.609-.364,3.822,3.822,0,0,1,2.908-.783c.287.027.344.107.328.362a1.193,1.193,0,0,0,.083.7.767.767,0,0,0,.747.382c.8-.007,1.6.006,2.4-.008.24,0,.333.047.329.312-.016.979-.014,1.96,0,2.939,0,.248-.061.329-.317.323-.757-.017-1.514-.006-2.271-.006" transform="translate(22135.188 -7031.32)" fill="#cbd0d8"/>
      <path id="Trazado_606774" data-name="Trazado 606774" d="M228.518,364.312c-.816,0-1.631-.011-2.446.006-.277.006-.376-.05-.374-.356.007-1.075-.007-1.075,1.072-1.075,1.424,0,2.848.007,4.271-.006.276,0,.376.05.374.355-.007,1.076.007,1.076-1.072,1.076Z" transform="translate(22125.395 -7029.208)" fill="#e4e7eb"/>
      <path id="Trazado_606775" data-name="Trazado 606775" d="M203.478,346.757c.666,0,1.332,0,2,0,.525,0,.842.27.849.7s-.316.72-.828.721q-2.02.007-4.04,0c-.516,0-.832-.289-.825-.723s.322-.7.849-.7c.666,0,1.332,0,2,0" transform="translate(22140.498 -7019.493)" fill="#e4e7eb"/>
      <path id="Trazado_606776" data-name="Trazado 606776" d="M203.472,380.454c-.666,0-1.332,0-2,0-.524,0-.838-.273-.842-.707s.311-.714.831-.715q2.02-.007,4.04,0c.511,0,.832.3.822.727a.726.726,0,0,1-.811.695c-.68.007-1.361,0-2.042,0" transform="translate(22140.498 -7038.937)" fill="#e4e7eb"/>
      <path id="Trazado_606777" data-name="Trazado 606777" d="M202.324,362.785c.713-.429,1.359-.815,2-1.208a.35.35,0,0,1,.409.041c.619.377,1.242.748,1.939,1.166-.726.434-1.4.841-2.083,1.243-.1.061-.2,0-.289-.056-.634-.382-1.269-.762-1.977-1.187" transform="translate(22139.479 -7028.393)" fill="#48ceac"/>
    </g>
  </g>
</svg>
