<svg xmlns="http://www.w3.org/2000/svg" width="85" height="85" viewBox="0 0 85 85">
  <g id="Grupo_1070812" data-name="Grupo 1070812" transform="translate(-285.168 -4393.127)">
    <circle id="Elipse_5686" data-name="Elipse 5686" cx="42.5" cy="42.5" r="42.5" transform="translate(285.168 4393.127)" fill="#dbf9bd"/>
    <g id="Grupo_1070759" data-name="Grupo 1070759" transform="translate(-22001.416 10368.094)">
      <path id="Trazado_606792" data-name="Trazado 606792" d="M133.264,469.184a3.321,3.321,0,0,0-1-.266,7.9,7.9,0,0,1-5.823-7.516,1.685,1.685,0,0,1,1.166-1.691.384.384,0,0,0,.313-.452c-.01-1.843-.047-3.686,0-5.527.218-8.22,3.961-14.3,11.163-18.258a.638.638,0,0,0,.366-.42,3.4,3.4,0,0,1,3.4-2.559c.626,0,1.112-.008,1.459-.715a2.012,2.012,0,0,1,1.888-1.036c1.565-.008,3.133-.064,4.7.039.309.02.235-.139.235-.288,0-1.382,0-2.763,0-4.145a.971.971,0,0,1,.843-1.127q4.95-1.55,9.9-3.105a1.574,1.574,0,0,1,.987-.007q4.946,1.559,9.9,3.105c.687.216.767.335.767,1.043,0,2.978-.024,5.957.007,8.935A13.382,13.382,0,0,1,167.695,446c-.256.171-.278.317-.172.6a20.56,20.56,0,0,1,1.283,7.341c0,1.766,0,3.531,0,5.3,0,.25.028.356.329.392a1.7,1.7,0,0,1,1.51,1.788,7.852,7.852,0,0,1-6.831,7.685c-.063.008-.119.014-.137.087Zm18.494-8.663c.136-.689.418-.919,1.144-.919q6.818,0,13.637.008c.345,0,.436-.084.432-.431-.018-1.8,0-3.593-.011-5.389a19.048,19.048,0,0,0-1.068-6.32c-.1-.289-.2-.344-.478-.208a9.466,9.466,0,0,1-1.948.683,3.007,3.007,0,0,1-1.351.2A13.648,13.648,0,0,1,155,444.263a15.612,15.612,0,0,1-2.007-2.615c-.011.169-.018.224-.018.278q0,5.666,0,11.332c0,.334.115.47.456.463.752-.014,1.505-.021,2.257,0a.916.916,0,1,1-.024,1.832c-.322.011-.645.006-.967,0a13.6,13.6,0,0,1-1.839-.043,2.177,2.177,0,0,1-1.734-2.318c.028-6.541.013-13.083.013-19.624,0-.795-.193-1-.959-1q-1.728,0-3.455,0c-.918,0-1.076.157-1.076,1.066v14.511c0,1.75.012,3.5,0,5.252a2.084,2.084,0,0,1-2.151,2.153c-.752.009-1.5.006-2.257,0-.65,0-1.044-.348-1.051-.9s.412-.932,1.073-.939c.63-.006,1.259,0,1.889,0,.658,0,.659,0,.659-.668q0-9.1,0-18.2,0-.162,0-.323a.178.178,0,0,0-.135-.2,1.854,1.854,0,0,0-2.477,1.757q-.007,5.344,0,10.687a2.356,2.356,0,0,1-.036.549.912.912,0,0,1-1.487.494,1.04,1.04,0,0,1-.321-.871q.007-4.469,0-8.937v-.488c-.193-.039-.293.077-.4.146a18.43,18.43,0,0,0-9.151,15.528c-.1,1.976-.007,3.961-.029,5.941,0,.378.081.479.47.478,4.638-.016,9.276-.01,13.913-.01.763,0,1.008.189,1.2.921-.194.731-.441.922-1.2.922H129.305c-1.141,0-1.141,0-.881,1.146a6.024,6.024,0,0,0,5.945,4.748q13.22.007,26.44,0c.737,0,1.474.013,2.211-.006a6.062,6.062,0,0,0,5.746-5.411c.041-.452-.108-.487-.483-.486q-7.692.016-15.385.007c-.724,0-1.007-.234-1.14-.924m1.224-28.926c.054,1.291-.084,2.874.077,4.453a11.821,11.821,0,0,0,8.9,10.179,1.753,1.753,0,0,0,.856,0,11.815,11.815,0,0,0,8.959-11.291c.024-2.579,0-5.159.013-7.739a.415.415,0,0,0-.344-.479q-4.37-1.348-8.733-2.718a.991.991,0,0,0-.626-.007q-4.386,1.375-8.777,2.731c-.279.085-.332.225-.33.487.012,1.366.005,2.733.005,4.388" transform="translate(22179.383 -6380)" fill="#020202"/>
      <path id="Trazado_606793" data-name="Trazado 606793" d="M149.4,473.531c-.2-.731-.44-.921-1.2-.921-4.638,0-9.276-.006-13.913.009-.389,0-.475-.1-.471-.477.022-1.98-.069-3.965.028-5.941a18.431,18.431,0,0,1,9.151-15.528c.11-.069.209-.184.4-.146v.489q0,4.469,0,8.937a1.043,1.043,0,0,0,.321.872.912.912,0,0,0,1.488-.494,2.383,2.383,0,0,0,.036-.549q0-5.344,0-10.687a1.854,1.854,0,0,1,2.477-1.757.177.177,0,0,1,.136.2c0,.107,0,.215,0,.322q0,9.1,0,18.2c0,.667,0,.667-.659.668-.629,0-1.259,0-1.889,0-.66.006-1.079.377-1.073.938s.4.9,1.051.9c.753.005,1.505.009,2.258,0a2.083,2.083,0,0,0,2.151-2.153c.017-1.75,0-3.5.005-5.252q0-7.256,0-14.511c0-.909.158-1.065,1.075-1.065q1.728,0,3.456,0c.766,0,.959.2.959,1,0,6.541.016,13.083-.013,19.624a2.178,2.178,0,0,0,1.735,2.318,13.591,13.591,0,0,0,1.839.043c.322,0,.646.009.967,0a.916.916,0,1,0,.024-1.832c-.752-.024-1.505-.018-2.257,0-.341.006-.457-.129-.456-.463q.011-5.666,0-11.332c0-.055.007-.11.019-.279a15.6,15.6,0,0,0,2.007,2.616,13.641,13.641,0,0,0,7.118,3.883,3,3,0,0,0,1.351-.2,9.446,9.446,0,0,0,1.948-.683c.275-.136.375-.081.478.208a19.047,19.047,0,0,1,1.068,6.32c.009,1.8-.008,3.593.011,5.389,0,.346-.087.432-.432.431q-6.818-.019-13.637-.008c-.726,0-1.009.23-1.144.919l-2.271,0c-.17-.633-.483-.931-.968-.92s-.791.322-.908.919H149.4" transform="translate(22175.324 -6393.008)" fill="#fdb38d"/>
      <path id="Trazado_606794" data-name="Trazado 606794" d="M147.607,508.011h2.271a.951.951,0,0,0,.553.836c.591.271,1.116-.061,1.323-.835l2.271,0c.132.69.416.923,1.14.924q7.693,0,15.385-.007c.375,0,.524.034.483.486a6.062,6.062,0,0,1-5.746,5.411c-.736.02-1.474.006-2.211.006q-13.22,0-26.44,0a6.023,6.023,0,0,1-5.945-4.748c-.26-1.146-.26-1.146.881-1.146H146.4c.762,0,1.009-.191,1.2-.922" transform="translate(22177.115 -6427.488)" fill="#fe9c6b"/>
      <path id="Trazado_606795" data-name="Trazado 606795" d="M185.718,433.951c0-1.655.006-3.022-.005-4.388,0-.262.051-.4.33-.487q4.393-1.35,8.776-2.731a.991.991,0,0,1,.626.007q4.364,1.367,8.733,2.718a.415.415,0,0,1,.344.479c-.012,2.58.011,5.16-.013,7.739a11.815,11.815,0,0,1-8.959,11.291,1.753,1.753,0,0,1-.856,0,11.821,11.821,0,0,1-8.9-10.179c-.161-1.579-.023-3.161-.077-4.453m1.843.556c0,.875,0,1.75,0,2.625a9.992,9.992,0,0,0,7.019,9.507,1.691,1.691,0,0,0,1.033.013,9.992,9.992,0,0,0,7.053-9.342c.022-1.98.007-3.96,0-5.94a.936.936,0,0,0-.753-1.061c-2.147-.676-4.3-1.339-6.445-2.013a1.157,1.157,0,0,0-.719,0c-2.133.668-4.269,1.327-6.4,1.995a.959.959,0,0,0-.789,1.082c0,1.044,0,2.087,0,3.131" transform="translate(22146.646 -6382.356)" fill="#77b0fc"/>
      <path id="Trazado_606796" data-name="Trazado 606796" d="M175.6,506.878c-.206.774-.732,1.106-1.322.835a.949.949,0,0,1-.553-.836c.118-.6.425-.908.908-.919s.8.287.967.92" transform="translate(22153.268 -6426.355)" fill="#070403"/>
      <path id="Trazado_606797" data-name="Trazado 606797" d="M189.84,436.9c0-1.044,0-2.087,0-3.131a.959.959,0,0,1,.789-1.082c2.133-.667,4.269-1.327,6.4-1.994a1.157,1.157,0,0,1,.72,0c2.147.673,4.3,1.337,6.445,2.013a.937.937,0,0,1,.753,1.061c0,1.98.017,3.96,0,5.94a9.991,9.991,0,0,1-7.053,9.342,1.69,1.69,0,0,1-1.032-.013,9.993,9.993,0,0,1-7.02-9.507c0-.875,0-1.75,0-2.625m13.269.624c0-1.066-.014-1.957.008-2.847a.433.433,0,0,0-.368-.511c-1.684-.509-3.361-1.042-5.039-1.569a.86.86,0,0,0-.538-.025q-2.626.827-5.256,1.642c-.152.047-.238.1-.234.276a53.61,53.61,0,0,0,.1,6.071,7.855,7.855,0,0,0,5.3,6.588.752.752,0,0,0,.576.025,8.058,8.058,0,0,0,5.26-5.975,17.792,17.792,0,0,0,.186-3.677" transform="translate(22144.367 -6384.753)" fill="#020202"/>
      <path id="Trazado_606798" data-name="Trazado 606798" d="M205.332,439.883a17.76,17.76,0,0,1-.186,3.677,8.058,8.058,0,0,1-5.26,5.975.754.754,0,0,1-.577-.025,7.855,7.855,0,0,1-5.3-6.588,53.714,53.714,0,0,1-.1-6.071c0-.176.082-.229.235-.276q2.63-.814,5.256-1.642a.859.859,0,0,1,.538.025c1.679.526,3.356,1.059,5.04,1.569a.433.433,0,0,1,.368.511c-.021.889-.008,1.78-.008,2.847m-6.54,4.928a.848.848,0,0,0,.628-.24c1.271-1.268,2.546-2.532,3.8-3.813a.878.878,0,0,0-.043-1.31.922.922,0,0,0-1.317.088c-.928.917-1.855,1.835-2.764,2.77-.225.231-.357.3-.6.015-.35-.406-.746-.772-1.134-1.143a.913.913,0,0,0-1.35-.038.9.9,0,0,0,.036,1.315c.685.7,1.386,1.391,2.081,2.085a.891.891,0,0,0,.66.271" transform="translate(22142.146 -6387.107)" fill="#fdfdfd"/>
      <path id="Trazado_606799" data-name="Trazado 606799" d="M201.114,450.131a.892.892,0,0,1-.661-.271c-.7-.694-1.4-1.382-2.081-2.085a.9.9,0,0,1-.036-1.316.913.913,0,0,1,1.35.039c.388.371.784.738,1.134,1.143.243.282.375.216.6-.015.91-.935,1.836-1.853,2.764-2.77a.921.921,0,0,1,1.317-.088.878.878,0,0,1,.043,1.31c-1.257,1.281-2.532,2.545-3.8,3.813a.848.848,0,0,1-.627.24" transform="translate(22139.824 -6392.427)" fill="#020202"/>
    </g>
  </g>
</svg>
