<svg xmlns="http://www.w3.org/2000/svg" width="83" height="83" viewBox="0 0 83 83">
  <g id="Grupo_1069955" data-name="Grupo 1069955" transform="translate(-600 -2825)">
    <circle id="Elipse_4703" data-name="Elipse 4703" cx="41.5" cy="41.5" r="41.5" transform="translate(600 2825)" fill="#3b5620"/>
    <g id="Grupo_261843" data-name="Grupo 261843" transform="translate(43.855 -238.254)">
      <path id="Trazado_279992" data-name="Trazado 279992" d="M20.145,448.722c.2-.758.371-1.523.6-2.272a10.748,10.748,0,0,1,5.059-6.431c.9-.522,1.7-1.211,2.562-1.808a11.454,11.454,0,0,1,4.825-1.828,24.758,24.758,0,0,1,4.837-.33c1.468.051,2.934.14,4.4.233.655.041.9.323.978,1.048a1.067,1.067,0,0,1-1.18.708c-1.33-.1-2.661-.185-3.994-.233a20.992,20.992,0,0,0-5.683.482,8.17,8.17,0,0,0-3.96,2.028,8.27,8.27,0,0,0-2.074,3.826,16.647,16.647,0,0,0-.4,5.117,9.06,9.06,0,0,0,1.363,3.882,16.249,16.249,0,0,0,1.206,1.491c.034-.259.053-.332.052-.4-.006-.506-.016-1.012-.024-1.518.012-.43.015-.859.04-1.288a.687.687,0,0,1,.663-.706c.685-.08,1.083.338,1.083,1.152q0,9,0,18.008c0,.677.217.9.885.909.488,0,.977,0,1.466,0,1.009,0,1.266-.254,1.266-1.251q0-7.6,0-15.193c0-.781.2-1.028.829-1.043.576-.014.9.352.925,1.055.018.585.02,1.171.029,1.757v.771a2.66,2.66,0,0,0,.3.031c3.561-.03,7.122-.026,10.681-.114a32.717,32.717,0,0,0,3.462-.454c.363-.049.5-.229.4-.586-.03-.711-.1-1.424-.077-2.133s.328-1.014.818-1.031c.761-.027,1.038.266,1.041,1.142.006,1.817,0,3.634,0,5.451q0,5.481,0,10.961c0,.769.226.986,1,.988.43,0,.86,0,1.29,0,1.028,0,1.328-.3,1.328-1.334q0-8.529,0-17.057a4.548,4.548,0,0,1,.029-.7c.059-.381.253-.654.687-.621.222.017.529,0,.643.133a4.648,4.648,0,0,1,.494,1.014l2.4-2.546a1.174,1.174,0,0,0,.393-1.6,8.066,8.066,0,0,1-.4-1.6c-.111-.44-.246-.875-.365-1.289a18.892,18.892,0,0,1-1.9,1.937,2.469,2.469,0,0,1-2.573.607,3.254,3.254,0,0,1-1.846-2.467c-.155-.584.11-.906.692-1.028a.931.931,0,0,1,1.061.819,2.3,2.3,0,0,0,.218.463.777.777,0,0,0,1.246.347,5.452,5.452,0,0,0,1.825-2.3,4.389,4.389,0,0,0,.543-1.5,12.917,12.917,0,0,0-.495-2.149,18.7,18.7,0,0,1-.876-4.767c.015-.314.074-.626.113-.939L57.9,434.5l-.9,1.549a14.3,14.3,0,0,0-1.623,5.084c-.126.937-.232,1.207-1.076,1.509a.974.974,0,0,1-.8-1.089c.186-1.208.473-2.4.731-3.661l-.99.17a17.7,17.7,0,0,1-2,.32c-1.6.08-3.207.1-4.811.125-.689.008-1.043-.339-1.185-1.053a1.007,1.007,0,0,1,1.195-.716,22.679,22.679,0,0,0,2.4.01,29.756,29.756,0,0,0,5.561-.731,1.493,1.493,0,0,0,1.086-.921A7.412,7.412,0,0,1,58.043,432a1.973,1.973,0,0,1,.862-.386c.479-.011.626-.258.745-.638.316-1.008.639-2.016.981-3.016a2.2,2.2,0,0,1,2.6-1.671,2.469,2.469,0,0,1,1.851,1.835c.111.625.361.817.981.79,1.132-.048,2.269-.048,3.4,0a.7.7,0,0,0,.806-.588,4.827,4.827,0,0,1,.55-1.221,2.27,2.27,0,0,1,3.974.871c.377,1.231.73,2.468,1.108,3.7a1.045,1.045,0,0,0,.283.484,11.131,11.131,0,0,1,3.182,5.428,17.92,17.92,0,0,1,.726,6.9,4.945,4.945,0,0,1-1.035,2.788,2.415,2.415,0,0,1-3.675.275c-.214-.2-.427-.395-.744-.688-.14.532-.26.986-.378,1.441a6.542,6.542,0,0,1-2.3,3.728,1.366,1.366,0,0,0-.318.527q-1.024,2.249-2.036,4.5c-.347.769-.958.9-1.681.34-.559.7-1.091,1.418-1.688,2.081a.855.855,0,0,1-1.585-.376c-.3-1.073-.566-2.155-.839-3.235-.32-1.264-.609-2.536-.965-3.789-.082-.289-.38-.516-.579-.772l-.183-.192c0,.067,0,.133-.008.2q-.006,8.3-.01,16.6a2.482,2.482,0,0,1-1.738,2.62,7.518,7.518,0,0,1-1.922.234c-.379.019-.606.042-.735.5a2.592,2.592,0,0,1-2.289,1.619,19.565,19.565,0,0,1-2.722-.124,2.46,2.46,0,0,1-1.9-2.513c.041-3.794.015-7.589.014-11.383,0-.215-.011-.43-.017-.645l-.1-.1c-.671.111-1.338.257-2.013.323-1.047.1-2.1.172-3.152.215-.837.034-1.677.027-2.514,0-.4-.014-.573.173-.826.46a32.76,32.76,0,0,1-2.379,2.379c-.228.21-.5.282-.525.7-.031.49-.428.756-.908.856-.212-.12-.427-.236-.636-.363-.117-.072-.228-.238-.334-.231-.49.033-.977.111-1.477.174v6.388l.094.1c.116.007.232.018.349.019.893.006,1.177-.272,1.177-1.154,0-.7-.006-1.4,0-2.1.007-.59.23-.816.825-.867.644.06.93.3.925.9-.007.985-.024,1.974-.116,2.954a2.4,2.4,0,0,1-2.273,2.014,1.661,1.661,0,0,0-1.721.752,2.115,2.115,0,0,1-2.054.914,19.788,19.788,0,0,1-2.713-.157,2.334,2.334,0,0,1-1.653-2.347c0-4.279-.012-8.559.011-12.838,0-.6-.5-.709-.806-.958a9.5,9.5,0,0,1-2.621-3.434c-.235-.518-.453-.532-.9-.234-1.128.759-2.6.881-3.274.115a10.9,10.9,0,0,1-1.006-1.631v-2.347Zm49.27-17.954-.1-.088-.822,0H66.973l-.939,0-.1.087c.526,1.454.265,2.5-.557,3.17a4.413,4.413,0,0,1-2.59.931,4.139,4.139,0,0,1-2.725-.994l-.229,1a5.2,5.2,0,0,0-.117,1.486c.487,2.26,1.046,4.5,1.581,6.754.363,1.529.7,3.066,1.107,4.584a5.665,5.665,0,0,0,1.838,3.083,5.158,5.158,0,0,0,3.8,1.112,5.061,5.061,0,0,0,3.205-1.559,6.1,6.1,0,0,0,1.49-3.157c.79-3.333,1.63-6.654,2.388-9.993a11.149,11.149,0,0,0,.068-2.2c-.052-.308-.1-.617-.16-.945a4.365,4.365,0,0,1-3.48.707,3.045,3.045,0,0,1-2.325-1.893,3.473,3.473,0,0,1,.187-2.088m8.331,7.513q-.3-.863-.6-1.724l-.157.02a4.21,4.21,0,0,1-.052.713c-.465,1.956-.927,3.913-1.426,5.86-.224.873-.547,1.727.378,2.4.209.229.4.474.63.683.411.376.871.409,1.115-.062a5.717,5.717,0,0,0,.7-2.123,15.744,15.744,0,0,0-.589-5.771M57.913,469.025h1.1c.993,0,1.287-.286,1.287-1.261q0-7.178,0-14.354c0-.164-.016-.329-.028-.57a15.658,15.658,0,0,1-1.673,1.354,1.484,1.484,0,0,0-.7,1.5c.023,4.218.012,8.437.012,12.655ZM25.058,442.9l-.16-.117c-.414.519-.867,1.011-1.235,1.56a10.147,10.147,0,0,0-1.756,6.024c.021.809.3,1.2.807,1.023a10.158,10.158,0,0,0,1.7-.918c.063-.037.066-.211.062-.32-.032-.932-.1-1.864-.1-2.8a13.694,13.694,0,0,1,.683-4.456m37.678-9.7a13.049,13.049,0,0,0,1.5-.628.716.716,0,0,0,.186-.641c-.337-1.183-.71-2.357-1.11-3.52a.633.633,0,0,0-.5-.325.676.676,0,0,0-.506.351c-.389,1.127-.7,2.28-1.106,3.4a.583.583,0,0,0,.238.791,11.8,11.8,0,0,0,1.3.57m9.849-5.285c-.214.221-.446.356-.513.547q-.579,1.665-1.087,3.352a.8.8,0,0,0,.549,1.057,2.413,2.413,0,0,0,2.319-.211c.321-.191.451-.373.33-.746-.384-1.189-.738-2.388-1.129-3.575-.047-.141-.249-.231-.469-.424m-3.271,25.523a6.288,6.288,0,0,1-4.344-.191c.336,1.282.647,2.466.989,3.767.247-.323.391-.552.574-.744.523-.547.833-1.512,1.923-.964.271-.588.524-1.14.858-1.868M35.9,460.822a5.679,5.679,0,0,0,4.439-2.107H35.9Z" transform="translate(548 2655)" fill="#010101"/>
      <path id="Trazado_279993" data-name="Trazado 279993" d="M20.146,449.426v0Z" transform="translate(548 2655)" fill="#0f0e0c"/>
      <path id="Trazado_279994" data-name="Trazado 279994" d="M60.407,450.025l-2.4,2.546a4.573,4.573,0,0,0-.493-1.013c-.114-.133-.421-.117-.644-.134-.434-.032-.628.24-.686.621a4.547,4.547,0,0,0-.029.7q0,8.529,0,17.057c0,1.034-.3,1.334-1.328,1.334-.43,0-.86,0-1.29,0-.773,0-1-.219-1-.988q0-5.481,0-10.961c0-1.817,0-3.635,0-5.452,0-.876-.279-1.169-1.04-1.142-.49.018-.791.331-.818,1.032s.047,1.421.077,2.132c-1.354.118-2.706.32-4.062.338-3.6.047-7.193.015-10.79.015-.008-.586-.01-1.172-.028-1.758-.021-.7-.349-1.069-.926-1.055-.627.015-.828.262-.828,1.044q0,7.6,0,15.192c0,1-.258,1.25-1.266,1.251-.489,0-.978.006-1.467,0-.667-.007-.885-.231-.885-.909q0-9,0-18.008c0-.814-.4-1.232-1.083-1.152a.687.687,0,0,0-.663.706c-.025.429-.028.859-.04,1.288a9.4,9.4,0,0,1-2.181-7.373,11.9,11.9,0,0,0-.015-1.194,8.265,8.265,0,0,1,2.073-3.825,8.171,8.171,0,0,1,3.961-2.029,20.947,20.947,0,0,1,5.683-.481c1.332.048,2.664.133,3.994.233a1.068,1.068,0,0,0,1.18-.709l1.836.119c.142.714.5,1.061,1.185,1.053,1.6-.019,3.209-.045,4.811-.124a17.932,17.932,0,0,0,2-.321,3.765,3.765,0,0,1-.043.523,17.745,17.745,0,0,0-.565,5.768,6.916,6.916,0,0,0,.956,3.153,3.079,3.079,0,0,0,3.9,1.363,15.481,15.481,0,0,0,2.161-1.223c.243.76.5,1.57.76,2.381" transform="translate(548 2655)" fill="#f9e8d4"/>
      <path id="Trazado_279995" data-name="Trazado 279995" d="M35.9,469.025v-6.388c.5-.063.987-.141,1.476-.173.106-.007.217.159.334.23.209.127.424.243.636.364v1.958c-.6.052-.818.277-.825.867-.009.7,0,1.4,0,2.1,0,.881-.284,1.16-1.177,1.153-.117,0-.233-.012-.349-.018-.03-.032-.063-.064-.093-.1" transform="translate(548 2655)" fill="#d8ad8f"/>
      <path id="Trazado_279996" data-name="Trazado 279996" d="M62.078,451.316c0-.067.005-.133.008-.2l.182.192-.19.008" transform="translate(548 2655)" fill="#b7b7b7"/>
      <path id="Trazado_279997" data-name="Trazado 279997" d="M50.659,458.13l.094.1-.094-.1" transform="translate(548 2655)" fill="#efefef"/>
      <path id="Trazado_279998" data-name="Trazado 279998" d="M66.973,430.682H68.5c-.041.247-.069.5-.126.74a3.284,3.284,0,0,0,1.611,3.6,5.126,5.126,0,0,0,5.214-.038,11.148,11.148,0,0,1-.069,2.2c-.758,3.339-1.6,6.66-2.387,9.992a6.1,6.1,0,0,1-1.491,3.158,5.055,5.055,0,0,1-3.205,1.558,5.162,5.162,0,0,1-3.8-1.111,5.675,5.675,0,0,1-1.838-3.083c-.408-1.518-.743-3.055-1.107-4.584-.535-2.25-1.094-4.495-1.58-6.755a5.167,5.167,0,0,1,.117-1.486c.2.082.4.153.587.248a5.021,5.021,0,0,0,4.905-.079,3,3,0,0,0,1.761-2.916c-.023-.482-.076-.963-.116-1.445m-2.873,11a.836.836,0,0,0,.881-.889.911.911,0,0,0-.943-.878.863.863,0,0,0-.822.9c.005.6.276.866.884.863m6.75,0c.645.009.925-.251.934-.87a.882.882,0,1,0-1.761.054.83.83,0,0,0,.827.816" transform="translate(548 2655)" fill="#f9e8d4"/>
      <path id="Trazado_279999" data-name="Trazado 279999" d="M57.913,469.025v-.675c0-4.219.012-8.437-.012-12.655a1.484,1.484,0,0,1,.7-1.5,15.887,15.887,0,0,0,1.674-1.354c.012.241.027.406.027.57q0,7.178,0,14.354c0,.975-.3,1.261-1.288,1.261h-1.1" transform="translate(548 2655)" fill="#d8ad8f"/>
      <path id="Trazado_280000" data-name="Trazado 280000" d="M58.766,443.928a5.447,5.447,0,0,1-1.825,2.295.776.776,0,0,1-1.246-.346,2.3,2.3,0,0,1-.218-.463.931.931,0,0,0-1.061-.819q-.057-.977-.115-1.954c.845-.3.95-.572,1.076-1.509A14.285,14.285,0,0,1,57,436.048c.032.048.084.091.094.143.278,1.368.538,2.74.831,4.1.261,1.215.559,2.422.84,3.633" transform="translate(548 2655)" fill="#f8e7d3"/>
      <path id="Trazado_280001" data-name="Trazado 280001" d="M54.3,442.641q.059.977.116,1.954c-.583.122-.848.444-.692,1.028a3.253,3.253,0,0,0,1.845,2.467,2.471,2.471,0,0,0,2.574-.607,19,19,0,0,0,1.9-1.937c.118.414.253.849.365,1.289a8.066,8.066,0,0,0,.4,1.6,1.174,1.174,0,0,1-.393,1.6l-.76-2.382a15.4,15.4,0,0,1-2.162,1.224,3.079,3.079,0,0,1-3.9-1.363,6.916,6.916,0,0,1-.956-3.153,17.717,17.717,0,0,1,.564-5.768,3.765,3.765,0,0,0,.044-.523l.989-.17c-.258,1.26-.544,2.453-.731,3.661a.974.974,0,0,0,.8,1.089" transform="translate(548 2655)" fill="#eecdb1"/>
      <path id="Trazado_280002" data-name="Trazado 280002" d="M25.059,442.9a13.722,13.722,0,0,0-.684,4.456c.008.932.072,1.864.1,2.8,0,.109,0,.283-.062.319a10.062,10.062,0,0,1-1.7.919c-.508.178-.786-.215-.806-1.023a10.147,10.147,0,0,1,1.756-6.024c.367-.549.82-1.041,1.234-1.56l.161.117" transform="translate(548 2655)" fill="#d7ac8e"/>
      <path id="Trazado_280003" data-name="Trazado 280003" d="M77.746,438.28a15.75,15.75,0,0,1,.589,5.772,5.723,5.723,0,0,1-.7,2.123c-.244.47-.7.437-1.115.061-.228-.208-.421-.454-.63-.683.436-1.835.863-3.672,1.314-5.5.148-.6.36-1.18.542-1.77" transform="translate(548 2655)" fill="#f8e7d3"/>
      <path id="Trazado_280004" data-name="Trazado 280004" d="M35.9,456.111c3.6,0,7.194.033,10.79-.014,1.355-.018,2.708-.22,4.062-.338.1.356-.043.537-.406.585a32.442,32.442,0,0,1-3.461.455c-3.559.088-7.121.084-10.682.113a2.88,2.88,0,0,1-.3-.03Z" transform="translate(548 2655)" fill="#eecdb1"/>
      <path id="Trazado_280005" data-name="Trazado 280005" d="M62.736,433.206a11.513,11.513,0,0,1-1.3-.57.582.582,0,0,1-.238-.79c.4-1.123.717-2.276,1.107-3.4a.671.671,0,0,1,.506-.35.633.633,0,0,1,.5.325q.6,1.744,1.11,3.519a.716.716,0,0,1-.187.641,12.8,12.8,0,0,1-1.5.628" transform="translate(548 2655)" fill="#b3722d"/>
      <path id="Trazado_280006" data-name="Trazado 280006" d="M72.585,427.921c.22.193.422.283.469.424.391,1.187.745,2.386,1.129,3.575.121.373-.009.556-.33.746a2.413,2.413,0,0,1-2.319.211.8.8,0,0,1-.549-1.057q.508-1.686,1.087-3.351c.067-.192.3-.327.513-.548" transform="translate(548 2655)" fill="#b3722d"/>
      <path id="Trazado_280007" data-name="Trazado 280007" d="M66.973,430.682c.039.482.093.963.115,1.445a3,3,0,0,1-1.76,2.916,5.018,5.018,0,0,1-4.905.079c-.189-.1-.391-.166-.588-.247l.229-1a4.139,4.139,0,0,0,2.725.994,4.413,4.413,0,0,0,2.59-.931c.822-.668,1.083-1.716.557-3.17.033-.029.066-.058.1-.088l.939,0" transform="translate(548 2655)" fill="#eeccb1"/>
      <path id="Trazado_280008" data-name="Trazado 280008" d="M75.194,434.987a5.124,5.124,0,0,1-5.213.038,3.282,3.282,0,0,1-1.611-3.6c.057-.243.084-.493.125-.741l.823,0,.1.089a3.477,3.477,0,0,0-.186,2.087,3.041,3.041,0,0,0,2.325,1.893,4.358,4.358,0,0,0,3.479-.707c.056.329.109.637.161.946" transform="translate(548 2655)" fill="#efcdb1"/>
      <path id="Trazado_280009" data-name="Trazado 280009" d="M77.746,438.28c-.182.59-.394,1.172-.542,1.77-.451,1.831-.878,3.668-1.314,5.5-.925-.677-.6-1.531-.378-2.4.5-1.948.961-3.9,1.426-5.86a4.221,4.221,0,0,0,.052-.714l.157-.02.6,1.724" transform="translate(548 2655)" fill="#edcbb0"/>
      <path id="Trazado_280010" data-name="Trazado 280010" d="M69.315,453.445c-.335.728-.588,1.279-.858,1.868-1.09-.548-1.4.417-1.923.964-.184.192-.328.421-.575.744-.341-1.3-.652-2.485-.989-3.767a6.3,6.3,0,0,0,4.345.191" transform="translate(548 2655)" fill="#d7ac8e"/>
      <path id="Trazado_280011" data-name="Trazado 280011" d="M26.514,444.144a11.9,11.9,0,0,1,.015,1.194,9.4,9.4,0,0,0,2.18,7.373c.009.506.019,1.012.025,1.518,0,.073-.018.146-.052.4a16.083,16.083,0,0,1-1.206-1.491,9.048,9.048,0,0,1-1.364-3.882,16.681,16.681,0,0,1,.4-5.117" transform="translate(548 2655)" fill="#edccb0"/>
      <path id="Trazado_280012" data-name="Trazado 280012" d="M58.766,443.928c-.281-1.211-.579-2.418-.84-3.633-.293-1.364-.553-2.736-.831-4.1-.01-.052-.062-.1-.094-.143l.9-1.549.147.072c-.038.313-.1.625-.113.938a18.734,18.734,0,0,0,.876,4.767,12.963,12.963,0,0,1,.495,2.149,4.365,4.365,0,0,1-.543,1.5" transform="translate(548 2655)" fill="#eeccb1"/>
      <path id="Trazado_280013" data-name="Trazado 280013" d="M35.9,460.822v-2.107h4.439a5.679,5.679,0,0,1-4.439,2.107" transform="translate(548 2655)" fill="#fe8282"/>
      <path id="Trazado_280014" data-name="Trazado 280014" d="M69.415,430.767l-.1-.088.1.088" transform="translate(548 2655)" fill="#c6b19e"/>
      <path id="Trazado_280015" data-name="Trazado 280015" d="M66.035,430.679c-.034.029-.066.059-.1.088.033-.029.065-.059.1-.088" transform="translate(548 2655)" fill="#c6b19e"/>
      <path id="Trazado_280016" data-name="Trazado 280016" d="M35.9,469.025c.03.032.063.064.093.1-.03-.032-.063-.064-.093-.1" transform="translate(548 2655)" fill="#c9a185"/>
      <path id="Trazado_280017" data-name="Trazado 280017" d="M64.1,441.681c-.608,0-.879-.261-.884-.863a.863.863,0,0,1,.822-.9.912.912,0,0,1,.943.879.836.836,0,0,1-.881.888" transform="translate(548 2655)" fill="#020202"/>
      <path id="Trazado_280018" data-name="Trazado 280018" d="M70.85,441.685a.83.83,0,0,1-.827-.816.882.882,0,1,1,1.761-.054c-.009.619-.289.879-.934.87" transform="translate(548 2655)" fill="#010101"/>
    </g>
  </g>
</svg>
