<svg xmlns="http://www.w3.org/2000/svg" width="83" height="83" viewBox="0 0 83 83">
  <g id="Grupo_1069952" data-name="Grupo 1069952" transform="translate(-1020 -2825)">
    <circle id="Elipse_4704" data-name="Elipse 4704" cx="41.5" cy="41.5" r="41.5" transform="translate(1020 2825)" fill="#3b5620"/>
    <g id="Grupo_261844" data-name="Grupo 261844" transform="translate(463.855 -339.225)">
      <path id="Trazado_280019" data-name="Trazado 280019" d="M42.761,582.868a3.866,3.866,0,0,1-2.353-2.062,3.477,3.477,0,0,1-.262-1.178c-.028-2.167-.041-4.334,0-6.5a.741.741,0,0,0-.637-.86,23.6,23.6,0,0,1-8.5-4.533A25,25,0,0,1,24.685,560a26.963,26.963,0,0,1-2.6-7.522,11.63,11.63,0,0,1-.24-2.769c.072-1.4-.693-2.507-1.125-3.731-.141-.4-.306-.793-.459-1.189a1.822,1.822,0,0,1,.486-1.924,1.763,1.763,0,0,1,1.762-.482c1.684.313,3.359.672,5.046.965a11.679,11.679,0,0,0,1.98.137q11.678.014,23.353.013a1.285,1.285,0,0,0,1.176-.595c.673-.9,1.475-1.7,2.229-2.529.867-.958,1.761-1.893,2.6-2.877a1.617,1.617,0,0,0,.33-.958c.019-1.25-.136-2.513-.016-3.751a8.149,8.149,0,0,1,1.537-4.113,5.418,5.418,0,0,1-2.695-2.282,5.344,5.344,0,0,1,.56-6.277,4.924,4.924,0,0,1,2.654-1.7,5.548,5.548,0,0,1,4.6.9c.349.254.645.589,1.012.811a2.005,2.005,0,0,0,2.561-.479,5.165,5.165,0,0,1,3.12-1.39,5.53,5.53,0,0,1,5.795,4.163,5.4,5.4,0,0,1-3.613,6.331c-.036.013-.062.055-.1.091.246.939,1.092,1.322,1.752,1.855.973.787,2.025,1.477,2.987,2.276a2.751,2.751,0,0,1,.234,3.55,4.069,4.069,0,0,1-2.539,1.2c0,1.285-.043,2.567.03,3.842a1.65,1.65,0,0,0,.631.95,3.928,3.928,0,0,1,1.249,2.66,3.843,3.843,0,0,1-3.462,3.855,21.3,21.3,0,0,1-2.174-.214c-.126,1.12-.265,2.368-.409,3.615a6.719,6.719,0,0,1-.149,1.035.967.967,0,0,1-1.113.771c-.7-.145-.923-.558-.755-1.423a17.545,17.545,0,0,0,.372-6.1c-.266-1.71-.548-3.417-.819-5.1a2.619,2.619,0,0,0-.407-.017c-.3.053-.6.1-.9.177a.972.972,0,0,1-1.245-.738c-.135-.54.215-.843.65-1.048a3.183,3.183,0,0,1,.588-.159,6.309,6.309,0,0,0,2.791-1.481,6.21,6.21,0,0,0,1.989-6.179,6.14,6.14,0,0,0-4.412-4.818,14.266,14.266,0,0,0-3.065-.213,6.122,6.122,0,0,0-3.96,2.34,6.431,6.431,0,0,0-1.4,3.466,30.606,30.606,0,0,0,.039,3.556,2.979,2.979,0,0,1-.659,2.069c-.729.856-1.494,1.681-2.247,2.516-.85.943-1.768,1.834-2.538,2.838-.756.984-1.54,1.723-2.9,1.478a4.644,4.644,0,0,0-.941.017l-4.046-.005-15.018,0-.107.1a2.309,2.309,0,0,0,.469,1.772,2.257,2.257,0,0,0,2.06,1.192c.925.015,1.85.028,2.775,0a1.123,1.123,0,0,1,1.263.946c-.315.8-.6,1.007-1.413,1.008H35.713a2.3,2.3,0,0,0,.607,2.025,2.35,2.35,0,0,0,2.006,1.012c3.95-.014,7.9-.006,11.85,0,.724,0,1.158.358,1.166.935s-.428.943-1.141.953-1.427.016-2.14.024l-10.1,0c-.033.032-.066.065-.1.1q.064.567.13,1.134a2.442,2.442,0,0,0,2.389,1.831q4.857,0,9.715.008c.587,0,1.174-.026,1.761-.04.291.25.76.456.837.76.2.784-.212,1.172-1.083,1.173-3.723,0-7.445,0-11.168,0a4.385,4.385,0,0,1-3.984-2.4,4.515,4.515,0,0,1-.515-2.692.848.848,0,0,0-.353-.833,4.508,4.508,0,0,1-1.816-3.85.94.94,0,0,0-.385-.588c-.344-.278-.773-.456-1.1-.751a4.563,4.563,0,0,1-1.536-3.713c-2.983.111-5.771-.874-8.692-1.249.174.425.325.839.511,1.236a9.508,9.508,0,0,1,1.144,4.736,6.257,6.257,0,0,0,.268,2.132c.525,1.795,1.034,3.6,1.733,5.335a21.344,21.344,0,0,0,6.326,8.435,20.529,20.529,0,0,0,6.365,3.734c1.259.436,2.557.763,3.837,1.139a24.487,24.487,0,0,0,3.124.472,32.172,32.172,0,0,0,6.716-.33,23.311,23.311,0,0,0,13.97-8.1,22.1,22.1,0,0,0,3.438-5.593c.323-.765.663-1.243,1.541-1.128a1.059,1.059,0,0,1,.378,1.455,24.351,24.351,0,0,1-3.219,5.636,25.415,25.415,0,0,1-10.234,7.962,21.1,21.1,0,0,1-5.731,1.641c-.733.093-1.463.213-2.241.328v3.625c.939,0,1.877-.014,2.815,0a3.3,3.3,0,0,1,2.932,1.635,4.614,4.614,0,0,1,.317,3.2c-.058.393-.685.7-1.053,1.049Zm32.228-56.35.05-.011a3.462,3.462,0,0,0,1.491-3.445,3.424,3.424,0,0,0-4.229-2.785,8.073,8.073,0,0,0-1.713.906,3.837,3.837,0,0,1-5.313.058,3.7,3.7,0,0,0-3.706-.907,3.467,3.467,0,0,0-2.391,3.4,3.641,3.641,0,0,0,2.574,3.3.785.785,0,0,0,.635-.1,8.522,8.522,0,0,1,10.236-.113c.219.164.529.39.742.342a9.269,9.269,0,0,0,1.464-.576Zm.618,20.593h.01a4.88,4.88,0,0,0,1.082-.766,1.834,1.834,0,0,0-.3-2.506,3.055,3.055,0,0,1-1.251-2.879,19.989,19.989,0,0,0,.023-2.683c-.89-.106-1.03.68-1.489,1.029l-1.571,1.364c.312,1.442.688,2.894.927,4.367a2.2,2.2,0,0,0,2.419,2.085l.15-.012m-30.7,30.813c.771.147.871.28.885,1.063.022,1.164.59,2.1,1.946,2,.919-.069,1.847-.013,2.772-.013H54.2c.154-1.646-.258-2.1-1.83-2.1-.84,0-1.68-.006-2.52,0a1.611,1.611,0,0,1-1.789-1.711c-.009-.546,0-1.092,0-1.638v-2.094H45.79c0,.462,0,.9,0,1.335,0,.663-.193.862-.883.931a.767.767,0,0,1-.887-.685,7.422,7.422,0,0,1-.112-1.286.484.484,0,0,0-.474-.577c-.459-.063-.918-.12-1.4-.183q0,3.316,0,6.617a.835.835,0,0,0,.088.345c.488,1.022.952,1.174,2.138,1.005-.113-.43-.233-.858-.338-1.289a1.259,1.259,0,0,1,.986-1.717m30.806-41.781c.677-.193,1.379-.36,2.057-.6a.646.646,0,0,0,.333-1.07c-.642-.586-1.342-1.107-2.05-1.681-.119,1.175-.226,2.222-.34,3.348" transform="translate(548 2655)" fill="#010101"/>
      <path id="Trazado_280020" data-name="Trazado 280020" d="M69.521,527.347a6.14,6.14,0,0,1,4.412,4.819,6.21,6.21,0,0,1-1.988,6.179,6.321,6.321,0,0,1-2.792,1.48,3.152,3.152,0,0,0-.587.159c-.435.205-.785.508-.65,1.049a.971.971,0,0,0,1.244.738c.3-.074.6-.125.9-.177a2.72,2.72,0,0,1,.408.016c.27,1.682.552,3.39.819,5.1a17.589,17.589,0,0,1-.372,6.1c-.169.865.054,1.278.755,1.423l-.63,2.1c-.877-.115-1.217.363-1.541,1.129a22.109,22.109,0,0,1-3.438,5.593,23.3,23.3,0,0,1-13.969,8.1,32.111,32.111,0,0,1-6.717.33,24.315,24.315,0,0,1-3.124-.472,3.921,3.921,0,0,1,.586-.131c1.791-.132,3.595-.165,5.372-.4a21.4,21.4,0,0,0,8.306-3.067,24.463,24.463,0,0,0,6.089-5.2,24.06,24.06,0,0,0,3.917-6.545,24.949,24.949,0,0,0,1.645-7.054,21.073,21.073,0,0,0-.369-6.168c-.254-1.266-.592-2.516-.9-3.8a8.1,8.1,0,0,0,2.863-2.654,7.335,7.335,0,0,0,.407-7.363c-.2-.434-.432-.856-.649-1.284" transform="translate(548 2655)" fill="#e5e1e5"/>
      <path id="Trazado_280021" data-name="Trazado 280021" d="M69.521,527.347c.217.428.445.85.649,1.284a7.337,7.337,0,0,1-.407,7.364,8.116,8.116,0,0,1-2.863,2.654c.306,1.283.644,2.533.9,3.8a21.071,21.071,0,0,1,.369,6.168,24.958,24.958,0,0,1-1.645,7.054,24.054,24.054,0,0,1-3.917,6.544,24.443,24.443,0,0,1-6.089,5.2,21.4,21.4,0,0,1-8.306,3.068c-1.777.235-3.581.267-5.372.4a3.925,3.925,0,0,0-.586.132c-1.28-.376-2.577-.7-3.837-1.14a20.475,20.475,0,0,1-6.364-3.734,21.35,21.35,0,0,1-6.327-8.434c-.7-1.73-1.208-3.541-1.732-5.335a6.264,6.264,0,0,1-.269-2.133A9.493,9.493,0,0,0,22.58,545.5c-.186-.4-.337-.812-.512-1.236,2.921.374,5.709,1.359,8.692,1.248a4.564,4.564,0,0,0,1.536,3.713c.325.295.754.473,1.1.752a.937.937,0,0,1,.386.588,4.505,4.505,0,0,0,1.816,3.85.847.847,0,0,1,.353.833,4.51,4.51,0,0,0,.514,2.691,4.386,4.386,0,0,0,3.985,2.4c3.722-.006,7.445,0,11.167,0,.872,0,1.281-.389,1.083-1.173-.076-.3-.546-.51-.837-.761q0-6.5-.007-12.995a4.8,4.8,0,0,1,.942-.017c1.354.246,2.139-.493,2.894-1.478.771-1,1.688-1.9,2.539-2.838.753-.835,1.518-1.66,2.247-2.515a2.982,2.982,0,0,0,.658-2.069,30.4,30.4,0,0,1-.038-3.557,6.423,6.423,0,0,1,1.4-3.465,6.116,6.116,0,0,1,3.96-2.34,14.251,14.251,0,0,1,3.065.212m-.48,2.5a1.387,1.387,0,0,0-1.539,1.374,1.519,1.519,0,0,0,1.431,1.529,1.546,1.546,0,0,0,1.577-1.522c-.113-.966-.662-1.489-1.469-1.381M56.185,560.276v0c.356,0,.712.005,1.068,0,.6-.011.893-.289.908-.843a.806.806,0,0,0-.9-.921c-.691-.01-1.382-.005-2.074,0a.956.956,0,0,0-.938.865.887.887,0,0,0,.932.9c.335,0,.67,0,1.005,0" transform="translate(548 2655)" fill="#efedef"/>
      <path id="Trazado_280022" data-name="Trazado 280022" d="M51.854,545.414q0,6.5.007,12.995c-.587.014-1.174.041-1.761.041q-4.857,0-9.715-.008A2.443,2.443,0,0,1,38,556.61q4.335,0,8.668,0c.917,0,1.331-.381,1.4-1.236q1.069-.012,2.141-.024c.712-.009,1.148-.374,1.14-.953s-.442-.934-1.166-.934c-3.95-.005-7.9-.012-11.85,0a2.348,2.348,0,0,1-2.005-1.013,4.03,4.03,0,0,1,.712-.126c2.835-.009,5.669.01,8.5-.013,1.511-.012,2.537-.56,2.584-2.428,0-.152-.27-.31-.415-.466-.138-.523-.407-.926-1.005-.931q-2.169-.018-4.337,0a.9.9,0,0,0-1.012.93h-2.1a1.124,1.124,0,0,0-1.263-.946c-.925.024-1.85.011-2.775,0a2.257,2.257,0,0,1-2.06-1.192q5.927,0,11.851-.012a4.658,4.658,0,0,0,1.115-.137,2.123,2.123,0,0,0,1.69-1.719l4.046.005" transform="translate(548 2655)" fill="#d7d0d6"/>
      <path id="Trazado_280023" data-name="Trazado 280023" d="M74.829,526.583a9.392,9.392,0,0,1-1.463.576c-.213.048-.524-.178-.743-.342a8.52,8.52,0,0,0-10.235.113.785.785,0,0,1-.635.1,3.642,3.642,0,0,1-2.575-3.3,3.469,3.469,0,0,1,2.392-3.4,3.7,3.7,0,0,1,3.705.907,3.839,3.839,0,0,0,5.314-.058,8,8,0,0,1,1.712-.906c.093.044.183.093.278.13,1.93.76,3.151,3.22,2.645,4.834a7.76,7.76,0,0,0-.185,1.265l-.05.012-.16.065" transform="translate(548 2655)" fill="#fc6773"/>
      <path id="Trazado_280024" data-name="Trazado 280024" d="M44.908,575.694c.689-.069.879-.267.882-.931,0-.436,0-.872,0-1.335H48.06c0,.687,0,1.391,0,2.094,0,.546-.006,1.093,0,1.638a1.61,1.61,0,0,0,1.788,1.711c.841-.006,1.681,0,2.521,0,1.572,0,1.983.457,1.83,2.1H50.51c-.924,0-1.852-.056-2.771.013-1.356.1-1.924-.837-1.946-2-.015-.784-.115-.915-.885-1.063v-2.23" transform="translate(548 2655)" fill="#face85"/>
      <path id="Trazado_280025" data-name="Trazado 280025" d="M47.808,545.409a2.123,2.123,0,0,1-1.69,1.719,4.709,4.709,0,0,1-1.115.138q-5.925.016-11.851.011a2.31,2.31,0,0,1-.469-1.771l.108-.1,15.017,0" transform="translate(548 2655)" fill="#e5e1e5"/>
      <path id="Trazado_280026" data-name="Trazado 280026" d="M47.706,549.419c.144.156.418.314.413.466-.046,1.868-1.071,2.416-2.583,2.428-2.834.023-5.668,0-8.5.013a4.051,4.051,0,0,0-.714.126,2.3,2.3,0,0,1-.606-2.025h2.124c.814,0,1.1-.2,1.412-1.008h2.1c.147.759.349.952,1.121.961,1.346.015,2.694,0,4.04.005a1.128,1.128,0,0,0,1.193-.966" transform="translate(548 2655)" fill="#e5e0e5"/>
      <path id="Trazado_280027" data-name="Trazado 280027" d="M44.908,575.694v2.23a1.261,1.261,0,0,0-.987,1.718c.1.431.225.859.338,1.289-1.185.168-1.65.016-2.137-1.005a.836.836,0,0,1-.088-.345q-.008-3.3,0-6.617c.486.062.946.119,1.405.183a.484.484,0,0,1,.474.576,7.43,7.43,0,0,0,.112,1.286.767.767,0,0,0,.887.685" transform="translate(548 2655)" fill="#fbc773"/>
      <path id="Trazado_280028" data-name="Trazado 280028" d="M73.682,539.307c.459-.349.6-1.135,1.49-1.028a19.811,19.811,0,0,1-.024,2.682A3.054,3.054,0,0,0,76.4,543.84a1.833,1.833,0,0,1,.3,2.506,4.913,4.913,0,0,1-1.083.767,3.868,3.868,0,0,0-.665-2.741,10.6,10.6,0,0,1-.889-.974,1.75,1.75,0,0,1-.359-.874c-.044-1.071-.02-2.144-.022-3.217" transform="translate(548 2655)" fill="#fb4d5a"/>
      <path id="Trazado_280029" data-name="Trazado 280029" d="M48.061,555.374c-.066.855-.48,1.234-1.4,1.236q-4.333.008-8.667,0-.066-.567-.131-1.134c.033-.033.066-.065.1-.1l10.1,0" transform="translate(548 2655)" fill="#e5e1e5"/>
      <path id="Trazado_280030" data-name="Trazado 280030" d="M73.682,539.307c0,1.073-.022,2.146.022,3.217a1.75,1.75,0,0,0,.359.874,10.6,10.6,0,0,0,.889.974,3.868,3.868,0,0,1,.665,2.741l-.01,0-.15.012a2.2,2.2,0,0,1-2.419-2.084c-.238-1.474-.614-2.925-.926-4.367l1.57-1.365" transform="translate(548 2655)" fill="#fc6672"/>
      <path id="Trazado_280031" data-name="Trazado 280031" d="M75.039,526.507a7.771,7.771,0,0,1,.185-1.266c.506-1.613-.716-4.074-2.645-4.833-.1-.038-.185-.087-.278-.131a3.424,3.424,0,0,1,4.229,2.785,3.461,3.461,0,0,1-1.491,3.445" transform="translate(548 2655)" fill="#fa4d5a"/>
      <path id="Trazado_280032" data-name="Trazado 280032" d="M75.713,536.143c.114-1.126.221-2.173.34-3.348.708.574,1.408,1.1,2.05,1.681a.646.646,0,0,1-.333,1.07c-.678.237-1.38.4-2.057.6" transform="translate(548 2655)" fill="#fac672"/>
      <path id="Trazado_280033" data-name="Trazado 280033" d="M74.829,526.583l.16-.065-.16.065" transform="translate(548 2655)" fill="#fa4d5a"/>
      <path id="Trazado_280034" data-name="Trazado 280034" d="M32.791,545.405l-.108.1.108-.1" transform="translate(548 2655)" fill="#c5c1c4"/>
      <path id="Trazado_280035" data-name="Trazado 280035" d="M75.457,547.123l.15-.012-.15.012" transform="translate(548 2655)" fill="#fb4d5a"/>
      <path id="Trazado_280036" data-name="Trazado 280036" d="M37.964,555.378l-.1.1.1-.1" transform="translate(548 2655)" fill="#d5d1d5"/>
      <path id="Trazado_280037" data-name="Trazado 280037" d="M69.04,529.851c.807-.108,1.356.415,1.469,1.38a1.546,1.546,0,0,1-1.577,1.523,1.52,1.52,0,0,1-1.431-1.529,1.387,1.387,0,0,1,1.539-1.374" transform="translate(548 2655)" fill="#010101"/>
      <path id="Trazado_280038" data-name="Trazado 280038" d="M56.185,560.276c-.335,0-.67,0-1.005,0a.887.887,0,0,1-.932-.9.956.956,0,0,1,.938-.865c.692,0,1.383-.009,2.074,0a.806.806,0,0,1,.9.921c-.015.554-.31.832-.908.843-.356.007-.712,0-1.068,0Z" transform="translate(548 2655)" fill="#010101"/>
      <path id="Trazado_280039" data-name="Trazado 280039" d="M47.706,549.419a1.128,1.128,0,0,1-1.193.966c-1.346,0-2.694.01-4.04-.005-.772-.009-.974-.2-1.121-.961a.9.9,0,0,1,1.01-.93q2.169-.018,4.339,0c.6.005.867.408,1.005.931" transform="translate(548 2655)"/>
    </g>
  </g>
</svg>
